<svg width="428" height="926" viewBox="0 0 428 926" fill="none" xmlns="http://www.w3.org/2000/svg">
<g clip-path="url(#clip0_80_192)">
<rect width="428" height="926" fill="white"/>
<path d="M27.5342 27H29.4238V16.4312H27.5415L24.7803 18.3647V20.1812L27.4097 18.3354H27.5342V27Z" fill="#111111"/>
<path d="M36.1182 27.2563C38.8062 27.2563 40.4028 25.1543 40.4028 21.5947C40.4028 20.2544 40.1465 19.1265 39.6558 18.2549C38.9453 16.8999 37.7222 16.1675 36.1768 16.1675C33.877 16.1675 32.251 17.7129 32.251 19.8809C32.251 21.917 33.7158 23.3965 35.73 23.3965C36.9678 23.3965 37.9712 22.8179 38.4692 21.8145H38.4912C38.4912 21.8145 38.5205 21.8145 38.5278 21.8145C38.5425 21.8145 38.5938 21.8145 38.5938 21.8145C38.5938 24.2314 37.6782 25.6743 36.1328 25.6743C35.2246 25.6743 34.5215 25.1763 34.2798 24.3779H32.3975C32.7124 26.1138 34.1846 27.2563 36.1182 27.2563ZM36.1841 21.895C34.9683 21.895 34.104 21.0308 34.104 19.8223C34.104 18.6431 35.0122 17.7422 36.1914 17.7422C37.3706 17.7422 38.2788 18.6577 38.2788 19.8516C38.2788 21.0308 37.3926 21.895 36.1841 21.895Z" fill="#111111"/>
<path d="M43.7207 25.8794C44.4165 25.8794 44.8926 25.3813 44.8926 24.7222C44.8926 24.0557 44.4165 23.5649 43.7207 23.5649C43.0322 23.5649 42.5488 24.0557 42.5488 24.7222C42.5488 25.3813 43.0322 25.8794 43.7207 25.8794ZM43.7207 20.3862C44.4165 20.3862 44.8926 19.8955 44.8926 19.2363C44.8926 18.5698 44.4165 18.0791 43.7207 18.0791C43.0322 18.0791 42.5488 18.5698 42.5488 19.2363C42.5488 19.8955 43.0322 20.3862 43.7207 20.3862Z" fill="#111111"/>
<path d="M51.1035 27.2637C53.6304 27.2637 55.1318 25.2129 55.1318 21.7192C55.1318 18.2109 53.6084 16.1675 51.1035 16.1675C48.5913 16.1675 47.0679 18.2109 47.0679 21.7046C47.0679 25.2129 48.5693 27.2637 51.1035 27.2637ZM51.1035 25.6963C49.7632 25.6963 48.9795 24.3047 48.9795 21.7046C48.9795 19.1265 49.7778 17.7422 51.1035 17.7422C52.4292 17.7422 53.2202 19.1191 53.2202 21.7046C53.2202 24.3047 52.4438 25.6963 51.1035 25.6963Z" fill="#111111"/>
<path d="M57.0947 19.522V19.5513H58.8672V19.522C58.8672 18.4453 59.6143 17.7202 60.7202 17.7202C61.7603 17.7202 62.522 18.394 62.522 19.3242C62.522 20.0713 62.1631 20.6206 60.7202 22.0854L57.1973 25.689V27H64.5361V25.396H59.79V25.2715L62.002 23.0522C63.7964 21.2798 64.375 20.3423 64.375 19.207C64.375 17.4419 62.8662 16.1675 60.7788 16.1675C58.6108 16.1675 57.0947 17.5444 57.0947 19.522Z" fill="#111111"/>
<path opacity="0.44" fill-rule="evenodd" clip-rule="evenodd" d="M411 20.5L411.46 20.8066C412.11 21.2398 412.5 21.9691 412.5 22.75C412.5 23.5309 412.11 24.2602 411.46 24.6934L411 25V20.5ZM389.833 17H408.167C409.179 17 410 17.8954 410 19V26.5C410 27.6046 409.179 28.5 408.167 28.5H389.833C388.821 28.5 388 27.6046 388 26.5V19C388 17.8954 388.821 17 389.833 17ZM389.909 18C389.407 18 389 18.4477 389 19V26.5C389 27.0523 389.407 27.5 389.909 27.5H408.091C408.593 27.5 409 27.0523 409 26.5V19C409 18.4477 408.593 18 408.091 18H389.909Z" fill="#111111"/>
<path fill-rule="evenodd" clip-rule="evenodd" d="M390.875 19H404V26.5H390.875C390.392 26.5 390 26.0523 390 25.5V20C390 19.4477 390.392 19 390.875 19Z" fill="#111111"/>
<path fill-rule="evenodd" clip-rule="evenodd" d="M360.5 18C359.948 18 359.5 18.4477 359.5 19V27C359.5 27.5523 359.948 28 360.5 28H361.5C362.052 28 362.5 27.5523 362.5 27V19C362.5 18.4477 362.052 18 361.5 18H360.5ZM355 21C355 20.4477 355.448 20 356 20H357C357.552 20 358 20.4477 358 21V27C358 27.5523 357.552 28 357 28H356C355.448 28 355 27.5523 355 27V21ZM351.5 22C350.948 22 350.5 22.4477 350.5 23V27C350.5 27.5523 350.948 28 351.5 28H352.5C353.052 28 353.5 27.5523 353.5 27V23C353.5 22.4477 353.052 22 352.5 22H351.5ZM347 28C346.448 28 346 27.5523 346 27V24.5C346 23.9477 346.448 23.5 347 23.5H348C348.552 23.5 349 23.9477 349 24.5V27C349 27.5523 348.552 28 348 28H347Z" fill="#111111"/>
<path d="M375.637 19.2773C377.852 19.2774 379.984 20.1289 381.59 21.6557C381.711 21.7735 381.904 21.772 382.023 21.6523L383.179 20.4857C383.239 20.4249 383.273 20.3427 383.272 20.2571C383.272 20.1715 383.237 20.0897 383.176 20.0297C378.961 15.9901 372.311 15.9901 368.096 20.0297C368.035 20.0896 368.001 20.1715 368 20.257C367.999 20.3426 368.033 20.4249 368.093 20.4857L369.25 21.6523C369.369 21.7722 369.562 21.7737 369.683 21.6557C371.289 20.1288 373.42 19.2773 375.637 19.2773ZM375.637 23.073C376.854 23.0729 378.028 23.5255 378.931 24.3427C379.053 24.4586 379.245 24.4561 379.364 24.337L380.519 23.1703C380.579 23.1091 380.613 23.0261 380.612 22.9399C380.611 22.8536 380.576 22.7713 380.514 22.7113C377.766 20.1549 373.51 20.1549 370.762 22.7113C370.7 22.7713 370.664 22.8536 370.663 22.9399C370.662 23.0262 370.696 23.1092 370.757 23.1703L371.912 24.337C372.031 24.4561 372.223 24.4586 372.345 24.3427C373.247 23.526 374.42 23.0735 375.637 23.073ZM377.856 25.8573C377.917 25.7967 377.951 25.7133 377.95 25.6268C377.948 25.5403 377.91 25.4584 377.846 25.4003C376.571 24.3214 374.703 24.3214 373.427 25.4003C373.363 25.4583 373.325 25.5402 373.323 25.6267C373.322 25.7132 373.356 25.7967 373.417 25.8573L375.415 27.873C375.473 27.9322 375.553 27.9656 375.637 27.9656C375.72 27.9656 375.8 27.9322 375.858 27.873L377.856 25.8573Z" fill="#111111"/>
<rect y="48" width="428" height="2152" fill="url(#paint0_linear_80_192)" fill-opacity="0.6"/>
<path d="M182.102 220.337C91.7662 183.959 22.4599 228.599 -1 267.311V849.229C68.9849 796.779 123.5 793.385 182.102 816.849C240.703 840.313 319.848 888.222 318.319 849.229C325.61 821.787 356.848 783.952 427 793.385V196C376.021 205.093 318.319 181.138 318.319 254.335C318.319 292.264 246.187 246.145 182.102 220.337Z" fill="white"/>
<g filter="url(#filter0_d_80_192)">
<rect x="1" y="530" width="427" height="959" fill="white"/>
</g>
<path d="M94.3197 398.75L91.4997 401.69V407H86.6697V386H91.4997V395.81L100.8 386H106.2L97.4997 395.36L106.71 407H101.04L94.3197 398.75ZM118.064 390.62C120.064 390.62 121.674 391.22 122.894 392.42C124.134 393.62 124.754 395.4 124.754 397.76V407H120.074V398.48C120.074 397.2 119.794 396.25 119.234 395.63C118.674 394.99 117.864 394.67 116.804 394.67C115.624 394.67 114.684 395.04 113.984 395.78C113.284 396.5 112.934 397.58 112.934 399.02V407H108.254V390.86H112.724V392.75C113.344 392.07 114.114 391.55 115.034 391.19C115.954 390.81 116.964 390.62 118.064 390.62ZM136.852 407.24C135.152 407.24 133.622 406.89 132.262 406.19C130.922 405.47 129.872 404.48 129.112 403.22C128.352 401.96 127.972 400.53 127.972 398.93C127.972 397.33 128.352 395.9 129.112 394.64C129.872 393.38 130.922 392.4 132.262 391.7C133.622 390.98 135.152 390.62 136.852 390.62C138.552 390.62 140.072 390.98 141.412 391.7C142.752 392.4 143.802 393.38 144.562 394.64C145.322 395.9 145.702 397.33 145.702 398.93C145.702 400.53 145.322 401.96 144.562 403.22C143.802 404.48 142.752 405.47 141.412 406.19C140.072 406.89 138.552 407.24 136.852 407.24ZM136.852 403.4C138.052 403.4 139.032 403 139.792 402.2C140.572 401.38 140.962 400.29 140.962 398.93C140.962 397.57 140.572 396.49 139.792 395.69C139.032 394.87 138.052 394.46 136.852 394.46C135.652 394.46 134.662 394.87 133.882 395.69C133.102 396.49 132.712 397.57 132.712 398.93C132.712 400.29 133.102 401.38 133.882 402.2C134.662 403 135.652 403.4 136.852 403.4ZM174.31 390.86L168.46 407H163.96L160.33 396.98L156.58 407H152.08L146.26 390.86H150.67L154.48 401.78L158.44 390.86H162.4L166.24 401.78L170.17 390.86H174.31ZM195.392 406.22C194.932 406.56 194.362 406.82 193.682 407C193.022 407.16 192.322 407.24 191.582 407.24C189.662 407.24 188.172 406.75 187.112 405.77C186.072 404.79 185.552 403.35 185.552 401.45V394.82H183.062V391.22H185.552V387.29H190.232V391.22H194.252V394.82H190.232V401.39C190.232 402.07 190.402 402.6 190.742 402.98C191.102 403.34 191.602 403.52 192.242 403.52C192.982 403.52 193.612 403.32 194.132 402.92L195.392 406.22ZM207.829 390.62C209.829 390.62 211.439 391.22 212.659 392.42C213.899 393.62 214.519 395.4 214.519 397.76V407H209.839V398.48C209.839 397.2 209.559 396.25 208.999 395.63C208.439 394.99 207.629 394.67 206.569 394.67C205.389 394.67 204.449 395.04 203.749 395.78C203.049 396.5 202.699 397.58 202.699 399.02V407H198.019V384.74H202.699V392.54C203.319 391.92 204.069 391.45 204.949 391.13C205.829 390.79 206.789 390.62 207.829 390.62ZM234.747 398.99C234.747 399.05 234.717 399.47 234.657 400.25H222.447C222.667 401.25 223.187 402.04 224.007 402.62C224.827 403.2 225.847 403.49 227.067 403.49C227.907 403.49 228.647 403.37 229.287 403.13C229.947 402.87 230.557 402.47 231.117 401.93L233.607 404.63C232.087 406.37 229.867 407.24 226.947 407.24C225.127 407.24 223.517 406.89 222.117 406.19C220.717 405.47 219.637 404.48 218.877 403.22C218.117 401.96 217.737 400.53 217.737 398.93C217.737 397.35 218.107 395.93 218.847 394.67C219.607 393.39 220.637 392.4 221.937 391.7C223.257 390.98 224.727 390.62 226.347 390.62C227.927 390.62 229.357 390.96 230.637 391.64C231.917 392.32 232.917 393.3 233.637 394.58C234.377 395.84 234.747 397.31 234.747 398.99ZM226.377 394.16C225.317 394.16 224.427 394.46 223.707 395.06C222.987 395.66 222.547 396.48 222.387 397.52H230.337C230.177 396.5 229.737 395.69 229.017 395.09C228.297 394.47 227.417 394.16 226.377 394.16ZM249.071 439.99C249.631 439.21 250.381 438.62 251.321 438.22C252.281 437.82 253.381 437.62 254.621 437.62V441.94C254.101 441.9 253.751 441.88 253.571 441.88C252.231 441.88 251.181 442.26 250.421 443.02C249.661 443.76 249.281 444.88 249.281 446.38V454H244.601V437.86H249.071V439.99ZM273.068 445.99C273.068 446.05 273.038 446.47 272.978 447.25H260.768C260.988 448.25 261.508 449.04 262.328 449.62C263.148 450.2 264.168 450.49 265.388 450.49C266.228 450.49 266.968 450.37 267.608 450.13C268.268 449.87 268.878 449.47 269.438 448.93L271.928 451.63C270.408 453.37 268.188 454.24 265.268 454.24C263.448 454.24 261.838 453.89 260.438 453.19C259.038 452.47 257.958 451.48 257.198 450.22C256.438 448.96 256.058 447.53 256.058 445.93C256.058 444.35 256.428 442.93 257.168 441.67C257.928 440.39 258.958 439.4 260.258 438.7C261.578 437.98 263.048 437.62 264.668 437.62C266.248 437.62 267.678 437.96 268.958 438.64C270.238 439.32 271.238 440.3 271.958 441.58C272.698 442.84 273.068 444.31 273.068 445.99ZM264.698 441.16C263.638 441.16 262.748 441.46 262.028 442.06C261.308 442.66 260.868 443.48 260.708 444.52H268.658C268.498 443.5 268.058 442.69 267.338 442.09C266.618 441.47 265.738 441.16 264.698 441.16ZM282.254 437.62C284.754 437.62 286.674 438.22 288.014 439.42C289.354 440.6 290.024 442.39 290.024 444.79V454H285.644V451.99C284.764 453.49 283.124 454.24 280.724 454.24C279.484 454.24 278.404 454.03 277.484 453.61C276.584 453.19 275.894 452.61 275.414 451.87C274.934 451.13 274.694 450.29 274.694 449.35C274.694 447.85 275.254 446.67 276.374 445.81C277.514 444.95 279.264 444.52 281.624 444.52H285.344C285.344 443.5 285.034 442.72 284.414 442.18C283.794 441.62 282.864 441.34 281.624 441.34C280.764 441.34 279.914 441.48 279.074 441.76C278.254 442.02 277.554 442.38 276.974 442.84L275.294 439.57C276.174 438.95 277.224 438.47 278.444 438.13C279.684 437.79 280.954 437.62 282.254 437.62ZM281.894 451.09C282.694 451.09 283.404 450.91 284.024 450.55C284.644 450.17 285.084 449.62 285.344 448.9V447.25H282.134C280.214 447.25 279.254 447.88 279.254 449.14C279.254 449.74 279.484 450.22 279.944 450.58C280.424 450.92 281.074 451.09 281.894 451.09ZM294.26 431.74H298.94V454H294.26V431.74ZM302.683 443.68H311.173V447.43H302.683V443.68ZM325.558 453.22C325.098 453.56 324.528 453.82 323.848 454C323.188 454.16 322.488 454.24 321.748 454.24C319.828 454.24 318.338 453.75 317.278 452.77C316.238 451.79 315.718 450.35 315.718 448.45V441.82H313.228V438.22H315.718V434.29H320.398V438.22H324.418V441.82H320.398V448.39C320.398 449.07 320.568 449.6 320.908 449.98C321.268 450.34 321.768 450.52 322.408 450.52C323.148 450.52 323.778 450.32 324.298 449.92L325.558 453.22ZM328.185 437.86H332.865V454H328.185V437.86ZM330.525 435.61C329.665 435.61 328.965 435.36 328.425 434.86C327.885 434.36 327.615 433.74 327.615 433C327.615 432.26 327.885 431.64 328.425 431.14C328.965 430.64 329.665 430.39 330.525 430.39C331.385 430.39 332.085 430.63 332.625 431.11C333.165 431.59 333.435 432.19 333.435 432.91C333.435 433.69 333.165 434.34 332.625 434.86C332.085 435.36 331.385 435.61 330.525 435.61ZM357.879 437.62C359.899 437.62 361.499 438.22 362.679 439.42C363.879 440.6 364.479 442.38 364.479 444.76V454H359.799V445.48C359.799 444.2 359.529 443.25 358.989 442.63C358.469 441.99 357.719 441.67 356.739 441.67C355.639 441.67 354.769 442.03 354.129 442.75C353.489 443.45 353.169 444.5 353.169 445.9V454H348.489V445.48C348.489 442.94 347.469 441.67 345.429 441.67C344.349 441.67 343.489 442.03 342.849 442.75C342.209 443.45 341.889 444.5 341.889 445.9V454H337.209V437.86H341.679V439.72C342.279 439.04 343.009 438.52 343.869 438.16C344.749 437.8 345.709 437.62 346.749 437.62C347.889 437.62 348.919 437.85 349.839 438.31C350.759 438.75 351.499 439.4 352.059 440.26C352.719 439.42 353.549 438.77 354.549 438.31C355.569 437.85 356.679 437.62 357.879 437.62ZM384.659 445.99C384.659 446.05 384.629 446.47 384.569 447.25H372.359C372.579 448.25 373.099 449.04 373.919 449.62C374.739 450.2 375.759 450.49 376.979 450.49C377.819 450.49 378.559 450.37 379.199 450.13C379.859 449.87 380.469 449.47 381.029 448.93L383.519 451.63C381.999 453.37 379.779 454.24 376.859 454.24C375.039 454.24 373.429 453.89 372.029 453.19C370.629 452.47 369.549 451.48 368.789 450.22C368.029 448.96 367.649 447.53 367.649 445.93C367.649 444.35 368.019 442.93 368.759 441.67C369.519 440.39 370.549 439.4 371.849 438.7C373.169 437.98 374.639 437.62 376.259 437.62C377.839 437.62 379.269 437.96 380.549 438.64C381.829 439.32 382.829 440.3 383.549 441.58C384.289 442.84 384.659 444.31 384.659 445.99ZM376.289 441.16C375.229 441.16 374.339 441.46 373.619 442.06C372.899 442.66 372.459 443.48 372.299 444.52H380.249C380.089 443.5 379.649 442.69 378.929 442.09C378.209 441.47 377.329 441.16 376.289 441.16Z" fill="black"/>
<path d="M256.769 406.22C256.309 406.56 255.739 406.82 255.059 407C254.399 407.16 253.699 407.24 252.959 407.24C251.039 407.24 249.549 406.75 248.489 405.77C247.449 404.79 246.929 403.35 246.929 401.45V394.82H244.439V391.22H246.929V387.29H251.609V391.22H255.629V394.82H251.609V401.39C251.609 402.07 251.779 402.6 252.119 402.98C252.479 403.34 252.979 403.52 253.619 403.52C254.359 403.52 254.989 403.32 255.509 402.92L256.769 406.22ZM263.866 392.99C264.426 392.21 265.176 391.62 266.116 391.22C267.076 390.82 268.176 390.62 269.416 390.62V394.94C268.896 394.9 268.546 394.88 268.366 394.88C267.026 394.88 265.976 395.26 265.216 396.02C264.456 396.76 264.076 397.88 264.076 399.38V407H259.396V390.86H263.866V392.99ZM278.621 390.62C281.121 390.62 283.041 391.22 284.381 392.42C285.721 393.6 286.391 395.39 286.391 397.79V407H282.011V404.99C281.131 406.49 279.491 407.24 277.091 407.24C275.851 407.24 274.771 407.03 273.851 406.61C272.951 406.19 272.261 405.61 271.781 404.87C271.301 404.13 271.061 403.29 271.061 402.35C271.061 400.85 271.621 399.67 272.741 398.81C273.881 397.95 275.631 397.52 277.991 397.52H281.711C281.711 396.5 281.401 395.72 280.781 395.18C280.161 394.62 279.231 394.34 277.991 394.34C277.131 394.34 276.281 394.48 275.441 394.76C274.621 395.02 273.921 395.38 273.341 395.84L271.661 392.57C272.541 391.95 273.591 391.47 274.811 391.13C276.051 390.79 277.321 390.62 278.621 390.62ZM278.261 404.09C279.061 404.09 279.771 403.91 280.391 403.55C281.011 403.17 281.451 402.62 281.711 401.9V400.25H278.501C276.581 400.25 275.621 400.88 275.621 402.14C275.621 402.74 275.851 403.22 276.311 403.58C276.791 403.92 277.441 404.09 278.261 404.09ZM295.757 391.22H299.897V394.82H295.877V407H291.197V394.82H288.707V391.22H291.197V390.5C291.197 388.66 291.737 387.2 292.817 386.12C293.917 385.04 295.457 384.5 297.437 384.5C298.137 384.5 298.797 384.58 299.417 384.74C300.057 384.88 300.587 385.09 301.007 385.37L299.777 388.76C299.237 388.38 298.607 388.19 297.887 388.19C296.467 388.19 295.757 388.97 295.757 390.53V391.22ZM307.358 391.22H311.498V394.82H307.478V407H302.798V394.82H300.308V391.22H302.798V390.5C302.798 388.66 303.338 387.2 304.418 386.12C305.518 385.04 307.058 384.5 309.038 384.5C309.738 384.5 310.398 384.58 311.018 384.74C311.658 384.88 312.188 385.09 312.608 385.37L311.378 388.76C310.838 388.38 310.208 388.19 309.488 388.19C308.068 388.19 307.358 388.97 307.358 390.53V391.22ZM316.238 390.86H320.918V407H316.238V390.86ZM318.578 388.61C317.718 388.61 317.018 388.36 316.478 387.86C315.938 387.36 315.668 386.74 315.668 386C315.668 385.26 315.938 384.64 316.478 384.14C317.018 383.64 317.718 383.39 318.578 383.39C319.438 383.39 320.138 383.63 320.678 384.11C321.218 384.59 321.488 385.19 321.488 385.91C321.488 386.69 321.218 387.34 320.678 387.86C320.138 388.36 319.438 388.61 318.578 388.61ZM333.056 407.24C331.336 407.24 329.786 406.89 328.406 406.19C327.046 405.47 325.976 404.48 325.196 403.22C324.436 401.96 324.056 400.53 324.056 398.93C324.056 397.33 324.436 395.9 325.196 394.64C325.976 393.38 327.046 392.4 328.406 391.7C329.786 390.98 331.336 390.62 333.056 390.62C334.756 390.62 336.236 390.98 337.496 391.7C338.776 392.4 339.706 393.41 340.286 394.73L336.656 396.68C335.816 395.2 334.606 394.46 333.026 394.46C331.806 394.46 330.796 394.86 329.996 395.66C329.196 396.46 328.796 397.55 328.796 398.93C328.796 400.31 329.196 401.4 329.996 402.2C330.796 403 331.806 403.4 333.026 403.4C334.626 403.4 335.836 402.66 336.656 401.18L340.286 403.16C339.706 404.44 338.776 405.44 337.496 406.16C336.236 406.88 334.756 407.24 333.056 407.24ZM50.0409 437.86H54.7209V454H50.0409V437.86ZM52.3809 435.61C51.5209 435.61 50.8209 435.36 50.2809 434.86C49.7409 434.36 49.4709 433.74 49.4709 433C49.4709 432.26 49.7409 431.64 50.2809 431.14C50.8209 430.64 51.5209 430.39 52.3809 430.39C53.2409 430.39 53.9409 430.63 54.4809 431.11C55.0209 431.59 55.2909 432.19 55.2909 432.91C55.2909 433.69 55.0209 434.34 54.4809 434.86C53.9409 435.36 53.2409 435.61 52.3809 435.61ZM68.8743 437.62C70.8743 437.62 72.4843 438.22 73.7043 439.42C74.9443 440.62 75.5643 442.4 75.5643 444.76V454H70.8843V445.48C70.8843 444.2 70.6043 443.25 70.0443 442.63C69.4843 441.99 68.6743 441.67 67.6143 441.67C66.4343 441.67 65.4943 442.04 64.7943 442.78C64.0943 443.5 63.7443 444.58 63.7443 446.02V454H59.0643V437.86H63.5343V439.75C64.1543 439.07 64.9243 438.55 65.8443 438.19C66.7643 437.81 67.7743 437.62 68.8743 437.62ZM84.9365 438.22H89.0765V441.82H85.0565V454H80.3765V441.82H77.8865V438.22H80.3765V437.5C80.3765 435.66 80.9165 434.2 81.9965 433.12C83.0965 432.04 84.6365 431.5 86.6165 431.5C87.3165 431.5 87.9765 431.58 88.5965 431.74C89.2365 431.88 89.7665 432.09 90.1865 432.37L88.9565 435.76C88.4165 435.38 87.7865 435.19 87.0665 435.19C85.6465 435.19 84.9365 435.97 84.9365 437.53V438.22ZM98.883 454.24C97.183 454.24 95.653 453.89 94.293 453.19C92.953 452.47 91.903 451.48 91.143 450.22C90.383 448.96 90.003 447.53 90.003 445.93C90.003 444.33 90.383 442.9 91.143 441.64C91.903 440.38 92.953 439.4 94.293 438.7C95.653 437.98 97.183 437.62 98.883 437.62C100.583 437.62 102.103 437.98 103.443 438.7C104.783 439.4 105.833 440.38 106.593 441.64C107.353 442.9 107.733 444.33 107.733 445.93C107.733 447.53 107.353 448.96 106.593 450.22C105.833 451.48 104.783 452.47 103.443 453.19C102.103 453.89 100.583 454.24 98.883 454.24ZM98.883 450.4C100.083 450.4 101.063 450 101.823 449.2C102.603 448.38 102.993 447.29 102.993 445.93C102.993 444.57 102.603 443.49 101.823 442.69C101.063 441.87 100.083 441.46 98.883 441.46C97.683 441.46 96.693 441.87 95.913 442.69C95.133 443.49 94.743 444.57 94.743 445.93C94.743 447.29 95.133 448.38 95.913 449.2C96.693 450 97.683 450.4 98.883 450.4ZM115.331 439.99C115.891 439.21 116.641 438.62 117.581 438.22C118.541 437.82 119.641 437.62 120.881 437.62V441.94C120.361 441.9 120.011 441.88 119.831 441.88C118.491 441.88 117.441 442.26 116.681 443.02C115.921 443.76 115.541 444.88 115.541 446.38V454H110.861V437.86H115.331V439.99ZM144.334 437.62C146.354 437.62 147.954 438.22 149.134 439.42C150.334 440.6 150.934 442.38 150.934 444.76V454H146.254V445.48C146.254 444.2 145.984 443.25 145.444 442.63C144.924 441.99 144.174 441.67 143.194 441.67C142.094 441.67 141.224 442.03 140.584 442.75C139.944 443.45 139.624 444.5 139.624 445.9V454H134.944V445.48C134.944 442.94 133.924 441.67 131.884 441.67C130.804 441.67 129.944 442.03 129.304 442.75C128.664 443.45 128.344 444.5 128.344 445.9V454H123.664V437.86H128.134V439.72C128.734 439.04 129.464 438.52 130.324 438.16C131.204 437.8 132.164 437.62 133.204 437.62C134.344 437.62 135.374 437.85 136.294 438.31C137.214 438.75 137.954 439.4 138.514 440.26C139.174 439.42 140.004 438.77 141.004 438.31C142.024 437.85 143.134 437.62 144.334 437.62ZM161.639 437.62C164.139 437.62 166.059 438.22 167.399 439.42C168.739 440.6 169.409 442.39 169.409 444.79V454H165.029V451.99C164.149 453.49 162.509 454.24 160.109 454.24C158.869 454.24 157.789 454.03 156.869 453.61C155.969 453.19 155.279 452.61 154.799 451.87C154.319 451.13 154.079 450.29 154.079 449.35C154.079 447.85 154.639 446.67 155.759 445.81C156.899 444.95 158.649 444.52 161.009 444.52H164.729C164.729 443.5 164.419 442.72 163.799 442.18C163.179 441.62 162.249 441.34 161.009 441.34C160.149 441.34 159.299 441.48 158.459 441.76C157.639 442.02 156.939 442.38 156.359 442.84L154.679 439.57C155.559 438.95 156.609 438.47 157.829 438.13C159.069 437.79 160.339 437.62 161.639 437.62ZM161.279 451.09C162.079 451.09 162.789 450.91 163.409 450.55C164.029 450.17 164.469 449.62 164.729 448.9V447.25H161.519C159.599 447.25 158.639 447.88 158.639 449.14C158.639 449.74 158.869 450.22 159.329 450.58C159.809 450.92 160.459 451.09 161.279 451.09ZM184.054 453.22C183.594 453.56 183.024 453.82 182.344 454C181.684 454.16 180.984 454.24 180.244 454.24C178.324 454.24 176.834 453.75 175.774 452.77C174.734 451.79 174.214 450.35 174.214 448.45V441.82H171.724V438.22H174.214V434.29H178.894V438.22H182.914V441.82H178.894V448.39C178.894 449.07 179.064 449.6 179.404 449.98C179.764 450.34 180.264 450.52 180.904 450.52C181.644 450.52 182.274 450.32 182.794 449.92L184.054 453.22ZM186.681 437.86H191.361V454H186.681V437.86ZM189.021 435.61C188.161 435.61 187.461 435.36 186.921 434.86C186.381 434.36 186.111 433.74 186.111 433C186.111 432.26 186.381 431.64 186.921 431.14C187.461 430.64 188.161 430.39 189.021 430.39C189.881 430.39 190.581 430.63 191.121 431.11C191.661 431.59 191.931 432.19 191.931 432.91C191.931 433.69 191.661 434.34 191.121 434.86C190.581 435.36 189.881 435.61 189.021 435.61ZM203.385 454.24C201.685 454.24 200.155 453.89 198.795 453.19C197.455 452.47 196.405 451.48 195.645 450.22C194.885 448.96 194.505 447.53 194.505 445.93C194.505 444.33 194.885 442.9 195.645 441.64C196.405 440.38 197.455 439.4 198.795 438.7C200.155 437.98 201.685 437.62 203.385 437.62C205.085 437.62 206.605 437.98 207.945 438.7C209.285 439.4 210.335 440.38 211.095 441.64C211.855 442.9 212.235 444.33 212.235 445.93C212.235 447.53 211.855 448.96 211.095 450.22C210.335 451.48 209.285 452.47 207.945 453.19C206.605 453.89 205.085 454.24 203.385 454.24ZM203.385 450.4C204.585 450.4 205.565 450 206.325 449.2C207.105 448.38 207.495 447.29 207.495 445.93C207.495 444.57 207.105 443.49 206.325 442.69C205.565 441.87 204.585 441.46 203.385 441.46C202.185 441.46 201.195 441.87 200.415 442.69C199.635 443.49 199.245 444.57 199.245 445.93C199.245 447.29 199.635 448.38 200.415 449.2C201.195 450 202.185 450.4 203.385 450.4ZM225.173 437.62C227.173 437.62 228.783 438.22 230.003 439.42C231.243 440.62 231.863 442.4 231.863 444.76V454H227.183V445.48C227.183 444.2 226.903 443.25 226.343 442.63C225.783 441.99 224.973 441.67 223.913 441.67C222.733 441.67 221.793 442.04 221.093 442.78C220.393 443.5 220.043 444.58 220.043 446.02V454H215.363V437.86H219.833V439.75C220.453 439.07 221.223 438.55 222.143 438.19C223.063 437.81 224.073 437.62 225.173 437.62Z" fill="#169F00"/>
<g clip-path="url(#clip1_80_192)">
<path d="M124.577 328.878V349H119.326V328.878H124.577Z" fill="url(#paint1_linear_80_192)"/>
<path d="M147.211 328.878V349H141.38L135.121 338.116L133.594 335.128H133.564L133.686 338.847V349H129.045V328.878H134.877L141.135 339.762L142.662 342.75H142.692L142.57 339.03V328.878H147.211ZM171.621 349V328.878H187.314V332.933H176.873V337.018H185.177V340.829H176.873V344.945H187.711V349H171.621ZM196.133 344.945H206.239V349H190.882V328.878H196.133V344.945ZM209.248 349V328.878H224.94V332.933H214.499V337.018H222.803V340.829H214.499V344.945H225.337V349H209.248ZM258.072 328.878C260.473 328.878 262.336 329.436 263.659 330.554C265.002 331.672 265.674 333.176 265.674 335.067C265.674 336.571 265.318 337.811 264.605 338.786C263.913 339.742 262.916 340.443 261.613 340.89L266.864 349H261.064L256.759 341.652H253.614V349H248.454V328.878H258.072ZM257.339 337.933C258.357 337.933 259.12 337.729 259.629 337.323C260.138 336.916 260.392 336.266 260.392 335.372C260.392 333.685 259.374 332.841 257.339 332.841H253.614V337.933H257.339ZM267.397 349L274.481 328.878H280.77L287.822 349H282.419L281.045 344.457H274.084L272.679 349H267.397ZM276.709 336.042L275.183 340.89H279.946L278.48 336.073L277.595 332.902H277.534L276.709 336.042ZM305.828 332.933H295.417V337.201H303.721V341.256H295.417V349H290.166V328.878H305.828V332.933Z" fill="black"/>
<path d="M168.619 328.878V332.933H162.055V349H156.804V332.933H150.209V328.878H168.619Z" fill="url(#paint2_linear_80_192)"/>
<path d="M245.453 328.878V332.933H238.889V349H233.637V332.933H227.043V328.878H245.453Z" fill="url(#paint3_linear_80_192)"/>
<g filter="url(#filter1_d_80_192)">
<path d="M253.155 89H170.573C164.572 89 159.708 93.8581 159.708 99.851V285.186C159.708 291.178 164.572 296.037 170.573 296.037H253.155C259.155 296.037 264.02 291.178 264.02 285.186V99.851C264.02 93.8581 259.155 89 253.155 89Z" fill="#242424"/>
<g filter="url(#filter2_d_80_192)">
<path d="M247.457 124.788V110.81H175.701V124.788H202.777V199.68H220.014V124.788H247.457Z" fill="url(#paint4_linear_80_192)"/>
</g>
<g filter="url(#filter3_d_80_192)">
<path d="M247.457 173.4V159.423H175.701V173.4H202.777V248.292H220.014V173.4H247.457Z" fill="url(#paint5_linear_80_192)"/>
</g>
<g filter="url(#filter4_d_80_192)">
<path d="M247.457 187.289V173.312H175.701V187.289H202.777V262.182H220.014V187.289H247.457Z" fill="url(#paint6_linear_80_192)"/>
</g>
<g filter="url(#filter5_d_80_192)">
<path d="M247.457 201.179V187.201H175.701V201.179H202.777V276.071H220.014V201.179H247.457Z" fill="url(#paint7_linear_80_192)"/>
</g>
</g>
</g>
<g filter="url(#filter6_dd_80_192)">
<rect x="1" y="560" width="427" height="274" fill="#93D289"/>
</g>
<g filter="url(#filter7_dd_80_192)">
<rect x="1" y="867" width="427" height="274" fill="#FFB78F"/>
</g>
<g filter="url(#filter8_d_80_192)">
<circle cx="1" cy="691" r="100" fill="#167A06"/>
</g>
<g filter="url(#filter9_d_80_192)">
<circle cy="1004" r="100" fill="#FF8C4C"/>
</g>
<path d="M162.584 628.896H172.056V647.072C169.624 648.907 166.808 650.315 163.608 651.296C160.408 652.277 157.187 652.768 153.944 652.768C149.293 652.768 145.112 651.787 141.4 649.824C137.688 647.819 134.765 645.067 132.632 641.568C130.541 638.027 129.496 634.037 129.496 629.6C129.496 625.163 130.541 621.195 132.632 617.696C134.765 614.155 137.709 611.403 141.464 609.44C145.219 607.435 149.443 606.432 154.136 606.432C158.061 606.432 161.624 607.093 164.824 608.416C168.024 609.739 170.712 611.659 172.888 614.176L166.232 620.32C163.032 616.949 159.171 615.264 154.648 615.264C151.789 615.264 149.251 615.861 147.032 617.056C144.813 618.251 143.085 619.936 141.848 622.112C140.611 624.288 139.992 626.784 139.992 629.6C139.992 632.373 140.611 634.848 141.848 637.024C143.085 639.2 144.792 640.907 146.968 642.144C149.187 643.339 151.704 643.936 154.52 643.936C157.507 643.936 160.195 643.296 162.584 642.016V628.896ZM197.367 652.512C193.74 652.512 190.476 651.765 187.575 650.272C184.716 648.736 182.476 646.624 180.855 643.936C179.234 641.248 178.423 638.197 178.423 634.784C178.423 631.371 179.234 628.32 180.855 625.632C182.476 622.944 184.716 620.853 187.575 619.36C190.476 617.824 193.74 617.056 197.367 617.056C200.994 617.056 204.236 617.824 207.095 619.36C209.954 620.853 212.194 622.944 213.815 625.632C215.436 628.32 216.247 631.371 216.247 634.784C216.247 638.197 215.436 641.248 213.815 643.936C212.194 646.624 209.954 648.736 207.095 650.272C204.236 651.765 200.994 652.512 197.367 652.512ZM197.367 644.32C199.927 644.32 202.018 643.467 203.639 641.76C205.303 640.011 206.135 637.685 206.135 634.784C206.135 631.883 205.303 629.579 203.639 627.872C202.018 626.123 199.927 625.248 197.367 625.248C194.807 625.248 192.695 626.123 191.031 627.872C189.367 629.579 188.535 631.883 188.535 634.784C188.535 637.685 189.367 640.011 191.031 641.76C192.695 643.467 194.807 644.32 197.367 644.32Z" fill="white"/>
<path d="M140.408 690.168C139.917 690.531 139.309 690.808 138.584 691C137.88 691.171 137.133 691.256 136.344 691.256C134.296 691.256 132.707 690.733 131.576 689.688C130.467 688.643 129.912 687.107 129.912 685.08V678.008H127.256V674.168H129.912V669.976H134.904V674.168H139.192V678.008H134.904V685.016C134.904 685.741 135.085 686.307 135.448 686.712C135.832 687.096 136.365 687.288 137.048 687.288C137.837 687.288 138.509 687.075 139.064 686.648L140.408 690.168ZM150.871 691.256C149.058 691.256 147.426 690.883 145.975 690.136C144.546 689.368 143.426 688.312 142.615 686.968C141.804 685.624 141.399 684.099 141.399 682.392C141.399 680.685 141.804 679.16 142.615 677.816C143.426 676.472 144.546 675.427 145.975 674.68C147.426 673.912 149.058 673.528 150.871 673.528C152.684 673.528 154.306 673.912 155.735 674.68C157.164 675.427 158.284 676.472 159.095 677.816C159.906 679.16 160.311 680.685 160.311 682.392C160.311 684.099 159.906 685.624 159.095 686.968C158.284 688.312 157.164 689.368 155.735 690.136C154.306 690.883 152.684 691.256 150.871 691.256ZM150.871 687.16C152.151 687.16 153.196 686.733 154.007 685.88C154.839 685.005 155.255 683.843 155.255 682.392C155.255 680.941 154.839 679.789 154.007 678.936C153.196 678.061 152.151 677.624 150.871 677.624C149.591 677.624 148.535 678.061 147.703 678.936C146.871 679.789 146.455 680.941 146.455 682.392C146.455 683.843 146.871 685.005 147.703 685.88C148.535 686.733 149.591 687.16 150.871 687.16ZM190.97 673.784L183.194 692.056C182.405 694.04 181.423 695.437 180.25 696.248C179.098 697.059 177.701 697.464 176.058 697.464C175.162 697.464 174.277 697.325 173.402 697.048C172.527 696.771 171.813 696.387 171.258 695.896L173.082 692.344C173.466 692.685 173.903 692.952 174.394 693.144C174.906 693.336 175.407 693.432 175.898 693.432C176.581 693.432 177.135 693.261 177.562 692.92C177.989 692.6 178.373 692.056 178.714 691.288L178.778 691.128L171.322 673.784H176.474L181.306 685.464L186.17 673.784H190.97ZM200.73 691.256C198.917 691.256 197.285 690.883 195.834 690.136C194.405 689.368 193.285 688.312 192.474 686.968C191.664 685.624 191.258 684.099 191.258 682.392C191.258 680.685 191.664 679.16 192.474 677.816C193.285 676.472 194.405 675.427 195.834 674.68C197.285 673.912 198.917 673.528 200.73 673.528C202.544 673.528 204.165 673.912 205.594 674.68C207.024 675.427 208.144 676.472 208.954 677.816C209.765 679.16 210.17 680.685 210.17 682.392C210.17 684.099 209.765 685.624 208.954 686.968C208.144 688.312 207.024 689.368 205.594 690.136C204.165 690.883 202.544 691.256 200.73 691.256ZM200.73 687.16C202.01 687.16 203.056 686.733 203.866 685.88C204.698 685.005 205.114 683.843 205.114 682.392C205.114 680.941 204.698 679.789 203.866 678.936C203.056 678.061 202.01 677.624 200.73 677.624C199.45 677.624 198.394 678.061 197.562 678.936C196.73 679.789 196.314 680.941 196.314 682.392C196.314 683.843 196.73 685.005 197.562 685.88C198.394 686.733 199.45 687.16 200.73 687.16ZM230.851 673.784V691H226.115V688.952C225.454 689.699 224.664 690.275 223.747 690.68C222.83 691.064 221.838 691.256 220.771 691.256C218.51 691.256 216.718 690.605 215.395 689.304C214.072 688.003 213.411 686.072 213.411 683.512V673.784H218.403V682.776C218.403 685.549 219.566 686.936 221.891 686.936C223.086 686.936 224.046 686.552 224.771 685.784C225.496 684.995 225.859 683.832 225.859 682.296V673.784H230.851ZM240.244 676.056C240.841 675.224 241.641 674.595 242.644 674.168C243.668 673.741 244.841 673.528 246.164 673.528V678.136C245.609 678.093 245.236 678.072 245.044 678.072C243.615 678.072 242.495 678.477 241.684 679.288C240.873 680.077 240.468 681.272 240.468 682.872V691H235.476V673.784H240.244V676.056ZM277.028 667.256V691H272.26V689.016C271.022 690.509 269.23 691.256 266.884 691.256C265.262 691.256 263.79 690.893 262.468 690.168C261.166 689.443 260.142 688.408 259.396 687.064C258.649 685.72 258.276 684.163 258.276 682.392C258.276 680.621 258.649 679.064 259.396 677.72C260.142 676.376 261.166 675.341 262.468 674.616C263.79 673.891 265.262 673.528 266.884 673.528C269.081 673.528 270.798 674.221 272.036 675.608V667.256H277.028ZM267.748 687.16C269.006 687.16 270.052 686.733 270.884 685.88C271.716 685.005 272.132 683.843 272.132 682.392C272.132 680.941 271.716 679.789 270.884 678.936C270.052 678.061 269.006 677.624 267.748 677.624C266.468 677.624 265.412 678.061 264.58 678.936C263.748 679.789 263.332 680.941 263.332 682.392C263.332 683.843 263.748 685.005 264.58 685.88C265.412 686.733 266.468 687.16 267.748 687.16ZM298.512 682.456C298.512 682.52 298.48 682.968 298.416 683.8H285.392C285.626 684.867 286.181 685.709 287.056 686.328C287.93 686.947 289.018 687.256 290.32 687.256C291.216 687.256 292.005 687.128 292.688 686.872C293.392 686.595 294.042 686.168 294.64 685.592L297.296 688.472C295.674 690.328 293.306 691.256 290.192 691.256C288.25 691.256 286.533 690.883 285.04 690.136C283.546 689.368 282.394 688.312 281.584 686.968C280.773 685.624 280.368 684.099 280.368 682.392C280.368 680.707 280.762 679.192 281.552 677.848C282.362 676.483 283.461 675.427 284.848 674.68C286.256 673.912 287.824 673.528 289.552 673.528C291.237 673.528 292.762 673.891 294.128 674.616C295.493 675.341 296.56 676.387 297.328 677.752C298.117 679.096 298.512 680.664 298.512 682.456ZM289.584 677.304C288.453 677.304 287.504 677.624 286.736 678.264C285.968 678.904 285.498 679.779 285.328 680.888H293.808C293.637 679.8 293.168 678.936 292.4 678.296C291.632 677.635 290.693 677.304 289.584 677.304ZM307.627 691.256C306.198 691.256 304.801 691.085 303.435 690.744C302.07 690.381 300.982 689.933 300.171 689.4L301.835 685.816C302.603 686.307 303.531 686.712 304.619 687.032C305.707 687.331 306.774 687.48 307.819 687.48C309.931 687.48 310.987 686.957 310.987 685.912C310.987 685.421 310.699 685.069 310.123 684.856C309.547 684.643 308.662 684.461 307.467 684.312C306.059 684.099 304.897 683.853 303.979 683.576C303.062 683.299 302.262 682.808 301.579 682.104C300.918 681.4 300.587 680.397 300.587 679.096C300.587 678.008 300.897 677.048 301.515 676.216C302.155 675.363 303.073 674.701 304.267 674.232C305.483 673.763 306.913 673.528 308.555 673.528C309.771 673.528 310.977 673.667 312.171 673.944C313.387 674.2 314.39 674.563 315.179 675.032L313.515 678.584C312.001 677.731 310.347 677.304 308.555 677.304C307.489 677.304 306.689 677.453 306.155 677.752C305.622 678.051 305.355 678.435 305.355 678.904C305.355 679.437 305.643 679.811 306.219 680.024C306.795 680.237 307.713 680.44 308.971 680.632C310.379 680.867 311.531 681.123 312.427 681.4C313.323 681.656 314.102 682.136 314.763 682.84C315.425 683.544 315.755 684.525 315.755 685.784C315.755 686.851 315.435 687.8 314.795 688.632C314.155 689.464 313.217 690.115 311.979 690.584C310.763 691.032 309.313 691.256 307.627 691.256ZM318.835 673.784H323.827V691H318.835V673.784ZM321.331 671.384C320.414 671.384 319.667 671.117 319.091 670.584C318.515 670.051 318.227 669.389 318.227 668.6C318.227 667.811 318.515 667.149 319.091 666.616C319.667 666.083 320.414 665.816 321.331 665.816C322.249 665.816 322.995 666.072 323.571 666.584C324.147 667.096 324.435 667.736 324.435 668.504C324.435 669.336 324.147 670.029 323.571 670.584C322.995 671.117 322.249 671.384 321.331 671.384ZM333.228 676.056C333.826 675.224 334.626 674.595 335.628 674.168C336.652 673.741 337.826 673.528 339.148 673.528V678.136C338.594 678.093 338.22 678.072 338.028 678.072C336.599 678.072 335.479 678.477 334.668 679.288C333.858 680.077 333.452 681.272 333.452 682.872V691H328.46V673.784H333.228V676.056ZM358.824 682.456C358.824 682.52 358.792 682.968 358.728 683.8H345.704C345.939 684.867 346.494 685.709 347.368 686.328C348.243 686.947 349.331 687.256 350.632 687.256C351.528 687.256 352.318 687.128 353 686.872C353.704 686.595 354.355 686.168 354.952 685.592L357.608 688.472C355.987 690.328 353.619 691.256 350.504 691.256C348.563 691.256 346.846 690.883 345.352 690.136C343.859 689.368 342.707 688.312 341.896 686.968C341.086 685.624 340.68 684.099 340.68 682.392C340.68 680.707 341.075 679.192 341.864 677.848C342.675 676.483 343.774 675.427 345.16 674.68C346.568 673.912 348.136 673.528 349.864 673.528C351.55 673.528 353.075 673.891 354.44 674.616C355.806 675.341 356.872 676.387 357.64 677.752C358.43 679.096 358.824 680.664 358.824 682.456ZM349.896 677.304C348.766 677.304 347.816 677.624 347.048 678.264C346.28 678.904 345.811 679.779 345.64 680.888H354.12C353.95 679.8 353.48 678.936 352.712 678.296C351.944 677.635 351.006 677.304 349.896 677.304ZM379.684 667.256V691H374.916V689.016C373.678 690.509 371.886 691.256 369.54 691.256C367.918 691.256 366.446 690.893 365.124 690.168C363.822 689.443 362.798 688.408 362.052 687.064C361.305 685.72 360.932 684.163 360.932 682.392C360.932 680.621 361.305 679.064 362.052 677.72C362.798 676.376 363.822 675.341 365.124 674.616C366.446 673.891 367.918 673.528 369.54 673.528C371.737 673.528 373.454 674.221 374.692 675.608V667.256H379.684ZM370.404 687.16C371.662 687.16 372.708 686.733 373.54 685.88C374.372 685.005 374.788 683.843 374.788 682.392C374.788 680.941 374.372 679.789 373.54 678.936C372.708 678.061 371.662 677.624 370.404 677.624C369.124 677.624 368.068 678.061 367.236 678.936C366.404 679.789 365.988 680.941 365.988 682.392C365.988 683.843 366.404 685.005 367.236 685.88C368.068 686.733 369.124 687.16 370.404 687.16ZM146.84 706.256V730H142.072V728.016C140.835 729.509 139.043 730.256 136.696 730.256C135.075 730.256 133.603 729.893 132.28 729.168C130.979 728.443 129.955 727.408 129.208 726.064C128.461 724.72 128.088 723.163 128.088 721.392C128.088 719.621 128.461 718.064 129.208 716.72C129.955 715.376 130.979 714.341 132.28 713.616C133.603 712.891 135.075 712.528 136.696 712.528C138.893 712.528 140.611 713.221 141.848 714.608V706.256H146.84ZM137.56 726.16C138.819 726.16 139.864 725.733 140.696 724.88C141.528 724.005 141.944 722.843 141.944 721.392C141.944 719.941 141.528 718.789 140.696 717.936C139.864 717.061 138.819 716.624 137.56 716.624C136.28 716.624 135.224 717.061 134.392 717.936C133.56 718.789 133.144 719.941 133.144 721.392C133.144 722.843 133.56 724.005 134.392 724.88C135.224 725.733 136.28 726.16 137.56 726.16ZM168.324 721.456C168.324 721.52 168.292 721.968 168.228 722.8H155.204C155.439 723.867 155.994 724.709 156.868 725.328C157.743 725.947 158.831 726.256 160.132 726.256C161.028 726.256 161.818 726.128 162.5 725.872C163.204 725.595 163.855 725.168 164.452 724.592L167.108 727.472C165.487 729.328 163.119 730.256 160.004 730.256C158.063 730.256 156.346 729.883 154.852 729.136C153.359 728.368 152.207 727.312 151.396 725.968C150.586 724.624 150.18 723.099 150.18 721.392C150.18 719.707 150.575 718.192 151.364 716.848C152.175 715.483 153.274 714.427 154.66 713.68C156.068 712.912 157.636 712.528 159.364 712.528C161.05 712.528 162.575 712.891 163.94 713.616C165.306 714.341 166.372 715.387 167.14 716.752C167.93 718.096 168.324 719.664 168.324 721.456ZM159.396 716.304C158.266 716.304 157.316 716.624 156.548 717.264C155.78 717.904 155.311 718.779 155.14 719.888H163.62C163.45 718.8 162.98 717.936 162.212 717.296C161.444 716.635 160.506 716.304 159.396 716.304ZM177.44 730.256C176.01 730.256 174.613 730.085 173.248 729.744C171.882 729.381 170.794 728.933 169.984 728.4L171.648 724.816C172.416 725.307 173.344 725.712 174.432 726.032C175.52 726.331 176.586 726.48 177.632 726.48C179.744 726.48 180.8 725.957 180.8 724.912C180.8 724.421 180.512 724.069 179.936 723.856C179.36 723.643 178.474 723.461 177.28 723.312C175.872 723.099 174.709 722.853 173.792 722.576C172.874 722.299 172.074 721.808 171.392 721.104C170.73 720.4 170.4 719.397 170.4 718.096C170.4 717.008 170.709 716.048 171.328 715.216C171.968 714.363 172.885 713.701 174.08 713.232C175.296 712.763 176.725 712.528 178.368 712.528C179.584 712.528 180.789 712.667 181.984 712.944C183.2 713.2 184.202 713.563 184.992 714.032L183.328 717.584C181.813 716.731 180.16 716.304 178.368 716.304C177.301 716.304 176.501 716.453 175.968 716.752C175.434 717.051 175.168 717.435 175.168 717.904C175.168 718.437 175.456 718.811 176.032 719.024C176.608 719.237 177.525 719.44 178.784 719.632C180.192 719.867 181.344 720.123 182.24 720.4C183.136 720.656 183.914 721.136 184.576 721.84C185.237 722.544 185.568 723.525 185.568 724.784C185.568 725.851 185.248 726.8 184.608 727.632C183.968 728.464 183.029 729.115 181.792 729.584C180.576 730.032 179.125 730.256 177.44 730.256ZM199.752 729.168C199.261 729.531 198.653 729.808 197.928 730C197.224 730.171 196.477 730.256 195.688 730.256C193.64 730.256 192.05 729.733 190.92 728.688C189.81 727.643 189.256 726.107 189.256 724.08V717.008H186.6V713.168H189.256V708.976H194.248V713.168H198.536V717.008H194.248V724.016C194.248 724.741 194.429 725.307 194.792 725.712C195.176 726.096 195.709 726.288 196.392 726.288C197.181 726.288 197.853 726.075 198.408 725.648L199.752 729.168ZM202.554 712.784H207.546V730H202.554V712.784ZM205.05 710.384C204.133 710.384 203.386 710.117 202.81 709.584C202.234 709.051 201.946 708.389 201.946 707.6C201.946 706.811 202.234 706.149 202.81 705.616C203.386 705.083 204.133 704.816 205.05 704.816C205.967 704.816 206.714 705.072 207.29 705.584C207.866 706.096 208.154 706.736 208.154 707.504C208.154 708.336 207.866 709.029 207.29 709.584C206.714 710.117 205.967 710.384 205.05 710.384ZM222.643 712.528C224.776 712.528 226.494 713.168 227.795 714.448C229.118 715.728 229.779 717.627 229.779 720.144V730H224.787V720.912C224.787 719.547 224.488 718.533 223.891 717.872C223.294 717.189 222.43 716.848 221.299 716.848C220.04 716.848 219.038 717.243 218.291 718.032C217.544 718.8 217.171 719.952 217.171 721.488V730H212.179V712.784H216.947V714.8C217.608 714.075 218.43 713.52 219.411 713.136C220.392 712.731 221.47 712.528 222.643 712.528ZM241.248 712.528C243.915 712.528 245.963 713.168 247.392 714.448C248.821 715.707 249.536 717.616 249.536 720.176V730H244.864V727.856C243.925 729.456 242.176 730.256 239.616 730.256C238.293 730.256 237.141 730.032 236.16 729.584C235.2 729.136 234.464 728.517 233.952 727.728C233.44 726.939 233.184 726.043 233.184 725.04C233.184 723.44 233.781 722.181 234.976 721.264C236.192 720.347 238.059 719.888 240.576 719.888H244.544C244.544 718.8 244.213 717.968 243.552 717.392C242.891 716.795 241.899 716.496 240.576 716.496C239.659 716.496 238.752 716.645 237.856 716.944C236.981 717.221 236.235 717.605 235.616 718.096L233.824 714.608C234.763 713.947 235.883 713.435 237.184 713.072C238.507 712.709 239.861 712.528 241.248 712.528ZM240.864 726.896C241.717 726.896 242.475 726.704 243.136 726.32C243.797 725.915 244.267 725.328 244.544 724.56V722.8H241.12C239.072 722.8 238.048 723.472 238.048 724.816C238.048 725.456 238.293 725.968 238.784 726.352C239.296 726.715 239.989 726.896 240.864 726.896ZM265.158 729.168C264.667 729.531 264.059 729.808 263.334 730C262.63 730.171 261.883 730.256 261.094 730.256C259.046 730.256 257.457 729.733 256.326 728.688C255.217 727.643 254.662 726.107 254.662 724.08V717.008H252.006V713.168H254.662V708.976H259.654V713.168H263.942V717.008H259.654V724.016C259.654 724.741 259.835 725.307 260.198 725.712C260.582 726.096 261.115 726.288 261.798 726.288C262.587 726.288 263.259 726.075 263.814 725.648L265.158 729.168ZM267.96 712.784H272.952V730H267.96V712.784ZM270.456 710.384C269.539 710.384 268.792 710.117 268.216 709.584C267.64 709.051 267.352 708.389 267.352 707.6C267.352 706.811 267.64 706.149 268.216 705.616C268.792 705.083 269.539 704.816 270.456 704.816C271.374 704.816 272.12 705.072 272.696 705.584C273.272 706.096 273.56 706.736 273.56 707.504C273.56 708.336 273.272 709.029 272.696 709.584C272.12 710.117 271.374 710.384 270.456 710.384ZM285.777 730.256C283.964 730.256 282.332 729.883 280.881 729.136C279.452 728.368 278.332 727.312 277.521 725.968C276.711 724.624 276.305 723.099 276.305 721.392C276.305 719.685 276.711 718.16 277.521 716.816C278.332 715.472 279.452 714.427 280.881 713.68C282.332 712.912 283.964 712.528 285.777 712.528C287.591 712.528 289.212 712.912 290.641 713.68C292.071 714.427 293.191 715.472 294.001 716.816C294.812 718.16 295.217 719.685 295.217 721.392C295.217 723.099 294.812 724.624 294.001 725.968C293.191 727.312 292.071 728.368 290.641 729.136C289.212 729.883 287.591 730.256 285.777 730.256ZM285.777 726.16C287.057 726.16 288.103 725.733 288.913 724.88C289.745 724.005 290.161 722.843 290.161 721.392C290.161 719.941 289.745 718.789 288.913 717.936C288.103 717.061 287.057 716.624 285.777 716.624C284.497 716.624 283.441 717.061 282.609 717.936C281.777 718.789 281.361 719.941 281.361 721.392C281.361 722.843 281.777 724.005 282.609 724.88C283.441 725.733 284.497 726.16 285.777 726.16ZM309.018 712.528C311.151 712.528 312.869 713.168 314.17 714.448C315.493 715.728 316.154 717.627 316.154 720.144V730H311.162V720.912C311.162 719.547 310.863 718.533 310.266 717.872C309.669 717.189 308.805 716.848 307.674 716.848C306.415 716.848 305.413 717.243 304.666 718.032C303.919 718.8 303.546 719.952 303.546 721.488V730H298.554V712.784H303.322V714.8C303.983 714.075 304.805 713.52 305.786 713.136C306.767 712.731 307.845 712.528 309.018 712.528ZM156.952 751.784L150.712 769H145.912L142.04 758.312L138.04 769H133.24L127.032 751.784H131.736L135.8 763.432L140.024 751.784H144.248L148.344 763.432L152.536 751.784H156.952ZM159.273 751.784H164.265V769H159.273V751.784ZM161.769 749.384C160.851 749.384 160.105 749.117 159.529 748.584C158.953 748.051 158.665 747.389 158.665 746.6C158.665 745.811 158.953 745.149 159.529 744.616C160.105 744.083 160.851 743.816 161.769 743.816C162.686 743.816 163.433 744.072 164.009 744.584C164.585 745.096 164.873 745.736 164.873 746.504C164.873 747.336 164.585 748.029 164.009 748.584C163.433 749.117 162.686 749.384 161.769 749.384ZM180.002 768.168C179.511 768.531 178.903 768.808 178.178 769C177.474 769.171 176.727 769.256 175.938 769.256C173.89 769.256 172.3 768.733 171.17 767.688C170.06 766.643 169.506 765.107 169.506 763.08V756.008H166.85V752.168H169.506V747.976H174.498V752.168H178.786V756.008H174.498V763.016C174.498 763.741 174.679 764.307 175.042 764.712C175.426 765.096 175.959 765.288 176.642 765.288C177.431 765.288 178.103 765.075 178.658 764.648L180.002 768.168ZM193.268 751.528C195.401 751.528 197.119 752.168 198.42 753.448C199.743 754.728 200.404 756.627 200.404 759.144V769H195.412V759.912C195.412 758.547 195.113 757.533 194.516 756.872C193.919 756.189 193.055 755.848 191.924 755.848C190.665 755.848 189.663 756.243 188.916 757.032C188.169 757.8 187.796 758.952 187.796 760.488V769H182.804V745.256H187.796V753.576C188.457 752.915 189.257 752.413 190.196 752.072C191.135 751.709 192.159 751.528 193.268 751.528ZM230.856 760.456C230.856 760.52 230.824 760.968 230.76 761.8H217.736C217.97 762.867 218.525 763.709 219.4 764.328C220.274 764.947 221.362 765.256 222.664 765.256C223.56 765.256 224.349 765.128 225.032 764.872C225.736 764.595 226.386 764.168 226.984 763.592L229.64 766.472C228.018 768.328 225.65 769.256 222.536 769.256C220.594 769.256 218.877 768.883 217.384 768.136C215.89 767.368 214.738 766.312 213.928 764.968C213.117 763.624 212.712 762.099 212.712 760.392C212.712 758.707 213.106 757.192 213.896 755.848C214.706 754.483 215.805 753.427 217.192 752.68C218.6 751.912 220.168 751.528 221.896 751.528C223.581 751.528 225.106 751.891 226.472 752.616C227.837 753.341 228.904 754.387 229.672 755.752C230.461 757.096 230.856 758.664 230.856 760.456ZM221.928 755.304C220.797 755.304 219.848 755.624 219.08 756.264C218.312 756.904 217.842 757.779 217.672 758.888H226.152C225.981 757.8 225.512 756.936 224.744 756.296C223.976 755.635 223.037 755.304 221.928 755.304ZM240.654 751.528C243.321 751.528 245.369 752.168 246.798 753.448C248.228 754.707 248.942 756.616 248.942 759.176V769H244.27V766.856C243.332 768.456 241.582 769.256 239.022 769.256C237.7 769.256 236.548 769.032 235.566 768.584C234.606 768.136 233.87 767.517 233.358 766.728C232.846 765.939 232.59 765.043 232.59 764.04C232.59 762.44 233.188 761.181 234.382 760.264C235.598 759.347 237.465 758.888 239.982 758.888H243.95C243.95 757.8 243.62 756.968 242.958 756.392C242.297 755.795 241.305 755.496 239.982 755.496C239.065 755.496 238.158 755.645 237.262 755.944C236.388 756.221 235.641 756.605 235.022 757.096L233.23 753.608C234.169 752.947 235.289 752.435 236.59 752.072C237.913 751.709 239.268 751.528 240.654 751.528ZM240.27 765.896C241.124 765.896 241.881 765.704 242.542 765.32C243.204 764.915 243.673 764.328 243.95 763.56V761.8H240.526C238.478 761.8 237.454 762.472 237.454 763.816C237.454 764.456 237.7 764.968 238.19 765.352C238.702 765.715 239.396 765.896 240.27 765.896ZM259.252 769.256C257.823 769.256 256.426 769.085 255.06 768.744C253.695 768.381 252.607 767.933 251.796 767.4L253.46 763.816C254.228 764.307 255.156 764.712 256.244 765.032C257.332 765.331 258.399 765.48 259.444 765.48C261.556 765.48 262.612 764.957 262.612 763.912C262.612 763.421 262.324 763.069 261.748 762.856C261.172 762.643 260.287 762.461 259.092 762.312C257.684 762.099 256.522 761.853 255.604 761.576C254.687 761.299 253.887 760.808 253.204 760.104C252.543 759.4 252.212 758.397 252.212 757.096C252.212 756.008 252.522 755.048 253.14 754.216C253.78 753.363 254.698 752.701 255.892 752.232C257.108 751.763 258.538 751.528 260.18 751.528C261.396 751.528 262.602 751.667 263.796 751.944C265.012 752.2 266.015 752.563 266.804 753.032L265.14 756.584C263.626 755.731 261.972 755.304 260.18 755.304C259.114 755.304 258.314 755.453 257.78 755.752C257.247 756.051 256.98 756.435 256.98 756.904C256.98 757.437 257.268 757.811 257.844 758.024C258.42 758.237 259.338 758.44 260.596 758.632C262.004 758.867 263.156 759.123 264.052 759.4C264.948 759.656 265.727 760.136 266.388 760.84C267.05 761.544 267.38 762.525 267.38 763.784C267.38 764.851 267.06 765.8 266.42 766.632C265.78 767.464 264.842 768.115 263.604 768.584C262.388 769.032 260.938 769.256 259.252 769.256ZM287.324 760.456C287.324 760.52 287.292 760.968 287.228 761.8H274.204C274.439 762.867 274.994 763.709 275.868 764.328C276.743 764.947 277.831 765.256 279.132 765.256C280.028 765.256 280.818 765.128 281.5 764.872C282.204 764.595 282.855 764.168 283.452 763.592L286.108 766.472C284.487 768.328 282.119 769.256 279.004 769.256C277.063 769.256 275.346 768.883 273.852 768.136C272.359 767.368 271.207 766.312 270.396 764.968C269.586 763.624 269.18 762.099 269.18 760.392C269.18 758.707 269.575 757.192 270.364 755.848C271.175 754.483 272.274 753.427 273.66 752.68C275.068 751.912 276.636 751.528 278.364 751.528C280.05 751.528 281.575 751.891 282.94 752.616C284.306 753.341 285.372 754.387 286.14 755.752C286.93 757.096 287.324 758.664 287.324 760.456ZM278.396 755.304C277.266 755.304 276.316 755.624 275.548 756.264C274.78 756.904 274.311 757.779 274.14 758.888H282.62C282.45 757.8 281.98 756.936 281.212 756.296C280.444 755.635 279.506 755.304 278.396 755.304Z" fill="#111111"/>
</g>
<defs>
<filter id="filter0_d_80_192" x="-20" y="519" width="469" height="1001" filterUnits="userSpaceOnUse" color-interpolation-filters="sRGB">
<feFlood flood-opacity="0" result="BackgroundImageFix"/>
<feColorMatrix in="SourceAlpha" type="matrix" values="0 0 0 0 0 0 0 0 0 0 0 0 0 0 0 0 0 0 127 0" result="hardAlpha"/>
<feMorphology radius="8" operator="dilate" in="SourceAlpha" result="effect1_dropShadow_80_192"/>
<feOffset dy="10"/>
<feGaussianBlur stdDeviation="6.5"/>
<feComposite in2="hardAlpha" operator="out"/>
<feColorMatrix type="matrix" values="0 0 0 0 0 0 0 0 0 0 0 0 0 0 0 0 0 0 0.1 0"/>
<feBlend mode="normal" in2="BackgroundImageFix" result="effect1_dropShadow_80_192"/>
<feBlend mode="normal" in="SourceGraphic" in2="effect1_dropShadow_80_192" result="shape"/>
</filter>
<filter id="filter1_d_80_192" x="149.708" y="79" width="144.313" height="247.037" filterUnits="userSpaceOnUse" color-interpolation-filters="sRGB">
<feFlood flood-opacity="0" result="BackgroundImageFix"/>
<feColorMatrix in="SourceAlpha" type="matrix" values="0 0 0 0 0 0 0 0 0 0 0 0 0 0 0 0 0 0 127 0" result="hardAlpha"/>
<feOffset dx="10" dy="10"/>
<feGaussianBlur stdDeviation="10"/>
<feColorMatrix type="matrix" values="0 0 0 0 0 0 0 0 0 0 0 0 0 0 0 0 0 0 0.25 0"/>
<feBlend mode="normal" in2="BackgroundImageFix" result="effect1_dropShadow_80_192"/>
<feBlend mode="normal" in="SourceGraphic" in2="effect1_dropShadow_80_192" result="shape"/>
</filter>
<filter id="filter2_d_80_192" x="171.701" y="110.81" width="79.7559" height="96.8695" filterUnits="userSpaceOnUse" color-interpolation-filters="sRGB">
<feFlood flood-opacity="0" result="BackgroundImageFix"/>
<feColorMatrix in="SourceAlpha" type="matrix" values="0 0 0 0 0 0 0 0 0 0 0 0 0 0 0 0 0 0 127 0" result="hardAlpha"/>
<feOffset dy="4"/>
<feGaussianBlur stdDeviation="2"/>
<feComposite in2="hardAlpha" operator="out"/>
<feColorMatrix type="matrix" values="0 0 0 0 0 0 0 0 0 0 0 0 0 0 0 0 0 0 0.25 0"/>
<feBlend mode="normal" in2="BackgroundImageFix" result="effect1_dropShadow_80_192"/>
<feBlend mode="normal" in="SourceGraphic" in2="effect1_dropShadow_80_192" result="shape"/>
</filter>
<filter id="filter3_d_80_192" x="171.701" y="159.423" width="79.7559" height="96.8696" filterUnits="userSpaceOnUse" color-interpolation-filters="sRGB">
<feFlood flood-opacity="0" result="BackgroundImageFix"/>
<feColorMatrix in="SourceAlpha" type="matrix" values="0 0 0 0 0 0 0 0 0 0 0 0 0 0 0 0 0 0 127 0" result="hardAlpha"/>
<feOffset dy="4"/>
<feGaussianBlur stdDeviation="2"/>
<feComposite in2="hardAlpha" operator="out"/>
<feColorMatrix type="matrix" values="0 0 0 0 0 0 0 0 0 0 0 0 0 0 0 0 0 0 0.25 0"/>
<feBlend mode="normal" in2="BackgroundImageFix" result="effect1_dropShadow_80_192"/>
<feBlend mode="normal" in="SourceGraphic" in2="effect1_dropShadow_80_192" result="shape"/>
</filter>
<filter id="filter4_d_80_192" x="171.701" y="173.312" width="79.7559" height="96.8696" filterUnits="userSpaceOnUse" color-interpolation-filters="sRGB">
<feFlood flood-opacity="0" result="BackgroundImageFix"/>
<feColorMatrix in="SourceAlpha" type="matrix" values="0 0 0 0 0 0 0 0 0 0 0 0 0 0 0 0 0 0 127 0" result="hardAlpha"/>
<feOffset dy="4"/>
<feGaussianBlur stdDeviation="2"/>
<feComposite in2="hardAlpha" operator="out"/>
<feColorMatrix type="matrix" values="0 0 0 0 0 0 0 0 0 0 0 0 0 0 0 0 0 0 0.25 0"/>
<feBlend mode="normal" in2="BackgroundImageFix" result="effect1_dropShadow_80_192"/>
<feBlend mode="normal" in="SourceGraphic" in2="effect1_dropShadow_80_192" result="shape"/>
</filter>
<filter id="filter5_d_80_192" x="171.701" y="187.201" width="79.7559" height="96.8696" filterUnits="userSpaceOnUse" color-interpolation-filters="sRGB">
<feFlood flood-opacity="0" result="BackgroundImageFix"/>
<feColorMatrix in="SourceAlpha" type="matrix" values="0 0 0 0 0 0 0 0 0 0 0 0 0 0 0 0 0 0 127 0" result="hardAlpha"/>
<feOffset dy="4"/>
<feGaussianBlur stdDeviation="2"/>
<feComposite in2="hardAlpha" operator="out"/>
<feColorMatrix type="matrix" values="0 0 0 0 0 0 0 0 0 0 0 0 0 0 0 0 0 0 0.25 0"/>
<feBlend mode="normal" in2="BackgroundImageFix" result="effect1_dropShadow_80_192"/>
<feBlend mode="normal" in="SourceGraphic" in2="effect1_dropShadow_80_192" result="shape"/>
</filter>
<filter id="filter6_dd_80_192" x="-14" y="547" width="457" height="304" filterUnits="userSpaceOnUse" color-interpolation-filters="sRGB">
<feFlood flood-opacity="0" result="BackgroundImageFix"/>
<feColorMatrix in="SourceAlpha" type="matrix" values="0 0 0 0 0 0 0 0 0 0 0 0 0 0 0 0 0 0 127 0" result="hardAlpha"/>
<feMorphology radius="5" operator="dilate" in="SourceAlpha" result="effect1_dropShadow_80_192"/>
<feOffset dy="2"/>
<feGaussianBlur stdDeviation="5"/>
<feComposite in2="hardAlpha" operator="out"/>
<feColorMatrix type="matrix" values="0 0 0 0 0 0 0 0 0 0 0 0 0 0 0 0 0 0 0.15 0"/>
<feBlend mode="normal" in2="BackgroundImageFix" result="effect1_dropShadow_80_192"/>
<feColorMatrix in="SourceAlpha" type="matrix" values="0 0 0 0 0 0 0 0 0 0 0 0 0 0 0 0 0 0 127 0" result="hardAlpha"/>
<feOffset dy="4"/>
<feGaussianBlur stdDeviation="2"/>
<feComposite in2="hardAlpha" operator="out"/>
<feColorMatrix type="matrix" values="0 0 0 0 0 0 0 0 0 0 0 0 0 0 0 0 0 0 0.15 0"/>
<feBlend mode="normal" in2="effect1_dropShadow_80_192" result="effect2_dropShadow_80_192"/>
<feBlend mode="normal" in="SourceGraphic" in2="effect2_dropShadow_80_192" result="shape"/>
</filter>
<filter id="filter7_dd_80_192" x="-14" y="854" width="457" height="304" filterUnits="userSpaceOnUse" color-interpolation-filters="sRGB">
<feFlood flood-opacity="0" result="BackgroundImageFix"/>
<feColorMatrix in="SourceAlpha" type="matrix" values="0 0 0 0 0 0 0 0 0 0 0 0 0 0 0 0 0 0 127 0" result="hardAlpha"/>
<feMorphology radius="5" operator="dilate" in="SourceAlpha" result="effect1_dropShadow_80_192"/>
<feOffset dy="2"/>
<feGaussianBlur stdDeviation="5"/>
<feComposite in2="hardAlpha" operator="out"/>
<feColorMatrix type="matrix" values="0 0 0 0 0 0 0 0 0 0 0 0 0 0 0 0 0 0 0.15 0"/>
<feBlend mode="normal" in2="BackgroundImageFix" result="effect1_dropShadow_80_192"/>
<feColorMatrix in="SourceAlpha" type="matrix" values="0 0 0 0 0 0 0 0 0 0 0 0 0 0 0 0 0 0 127 0" result="hardAlpha"/>
<feOffset dy="4"/>
<feGaussianBlur stdDeviation="2"/>
<feComposite in2="hardAlpha" operator="out"/>
<feColorMatrix type="matrix" values="0 0 0 0 0 0 0 0 0 0 0 0 0 0 0 0 0 0 0.15 0"/>
<feBlend mode="normal" in2="effect1_dropShadow_80_192" result="effect2_dropShadow_80_192"/>
<feBlend mode="normal" in="SourceGraphic" in2="effect2_dropShadow_80_192" result="shape"/>
</filter>
<filter id="filter8_d_80_192" x="-137" y="555" width="276" height="276" filterUnits="userSpaceOnUse" color-interpolation-filters="sRGB">
<feFlood flood-opacity="0" result="BackgroundImageFix"/>
<feColorMatrix in="SourceAlpha" type="matrix" values="0 0 0 0 0 0 0 0 0 0 0 0 0 0 0 0 0 0 127 0" result="hardAlpha"/>
<feMorphology radius="13" operator="dilate" in="SourceAlpha" result="effect1_dropShadow_80_192"/>
<feOffset dy="2"/>
<feGaussianBlur stdDeviation="12.5"/>
<feComposite in2="hardAlpha" operator="out"/>
<feColorMatrix type="matrix" values="0 0 0 0 0 0 0 0 0 0 0 0 0 0 0 0 0 0 0.25 0"/>
<feBlend mode="normal" in2="BackgroundImageFix" result="effect1_dropShadow_80_192"/>
<feBlend mode="normal" in="SourceGraphic" in2="effect1_dropShadow_80_192" result="shape"/>
</filter>
<filter id="filter9_d_80_192" x="-138" y="868" width="276" height="276" filterUnits="userSpaceOnUse" color-interpolation-filters="sRGB">
<feFlood flood-opacity="0" result="BackgroundImageFix"/>
<feColorMatrix in="SourceAlpha" type="matrix" values="0 0 0 0 0 0 0 0 0 0 0 0 0 0 0 0 0 0 127 0" result="hardAlpha"/>
<feMorphology radius="13" operator="dilate" in="SourceAlpha" result="effect1_dropShadow_80_192"/>
<feOffset dy="2"/>
<feGaussianBlur stdDeviation="12.5"/>
<feComposite in2="hardAlpha" operator="out"/>
<feColorMatrix type="matrix" values="0 0 0 0 0 0 0 0 0 0 0 0 0 0 0 0 0 0 0.25 0"/>
<feBlend mode="normal" in2="BackgroundImageFix" result="effect1_dropShadow_80_192"/>
<feBlend mode="normal" in="SourceGraphic" in2="effect1_dropShadow_80_192" result="shape"/>
</filter>
<linearGradient id="paint0_linear_80_192" x1="428" y1="47.9999" x2="-1048.05" y2="784.522" gradientUnits="userSpaceOnUse">
<stop stop-color="#92D288"/>
<stop offset="0.4375" stop-color="#FF8C4C"/>
<stop offset="0.718253" stop-color="#FF6060"/>
<stop offset="1" stop-color="white"/>
</linearGradient>
<linearGradient id="paint1_linear_80_192" x1="211.864" y1="320.629" x2="211.864" y2="356.199" gradientUnits="userSpaceOnUse">
<stop stop-color="#0F6C00"/>
<stop offset="0.682292" stop-color="#0F6C00" stop-opacity="0.578125"/>
<stop offset="1" stop-color="#0F6C00" stop-opacity="0"/>
</linearGradient>
<linearGradient id="paint2_linear_80_192" x1="211.864" y1="320.629" x2="211.864" y2="356.199" gradientUnits="userSpaceOnUse">
<stop stop-color="#FF5C00"/>
<stop offset="0.734375" stop-color="#FF5C00" stop-opacity="0.630208"/>
<stop offset="1" stop-color="#FF5C00" stop-opacity="0"/>
</linearGradient>
<linearGradient id="paint3_linear_80_192" x1="211.864" y1="320.629" x2="211.864" y2="356.199" gradientUnits="userSpaceOnUse">
<stop stop-color="#FF0000"/>
<stop offset="0.713542" stop-color="#FF0000" stop-opacity="0.630208"/>
<stop offset="1" stop-color="#FF0000" stop-opacity="0"/>
</linearGradient>
<linearGradient id="paint4_linear_80_192" x1="211.646" y1="68.6002" x2="211.646" y2="233.535" gradientUnits="userSpaceOnUse">
<stop stop-color="#169F00"/>
<stop offset="1" stop-color="white"/>
</linearGradient>
<linearGradient id="paint5_linear_80_192" x1="211.646" y1="117.213" x2="211.646" y2="282.147" gradientUnits="userSpaceOnUse">
<stop stop-color="#93D289"/>
<stop offset="0.536458" stop-color="#92D288"/>
<stop offset="1" stop-color="white"/>
</linearGradient>
<linearGradient id="paint6_linear_80_192" x1="211.646" y1="131.102" x2="211.646" y2="296.037" gradientUnits="userSpaceOnUse">
<stop stop-color="#FF5C00"/>
<stop offset="1" stop-color="white"/>
</linearGradient>
<linearGradient id="paint7_linear_80_192" x1="211.646" y1="144.991" x2="211.646" y2="309.926" gradientUnits="userSpaceOnUse">
<stop stop-color="#FF0000"/>
<stop offset="1" stop-color="#FF7B7B"/>
</linearGradient>
<clipPath id="clip0_80_192">
<rect width="428" height="926" fill="white"/>
</clipPath>
<clipPath id="clip1_80_192">
<rect width="187" height="260" fill="white" transform="translate(119 89)"/>
</clipPath>
</defs>
</svg>
