<svg width="528" height="616" viewBox="0 0 528 616" fill="none" xmlns="http://www.w3.org/2000/svg">
<g clip-path="url(#clip0_487_2)">
<path d="M97.6934 465.919C97.6934 482.006 110.825 495.138 126.981 495.138H160.462V577.913C160.462 598.881 177.306 616 198 616C218.762 616 235.537 598.95 235.537 577.913V495.069H293.975V577.844C293.975 598.813 310.818 615.931 331.512 615.931C352.275 615.931 369.05 598.881 369.05 577.844V495.069H402.531C418.687 495.069 431.818 481.938 431.818 465.85V194.15H97.6934V465.919V465.919ZM343.2 53.3501L374.068 8.66257C375.856 6.05007 375.443 2.54382 373.037 0.82507C370.631 -0.82493 367.193 7.44313e-05 365.406 2.61257L333.368 49.0876C312.262 40.7688 288.75 36.1626 264.068 36.1626C239.387 36.1626 215.875 40.7688 194.768 49.0876L162.731 2.68132C160.943 0.0688234 157.506 -0.824926 155.1 0.893824C152.693 2.54382 152.281 5.98132 154.068 8.73132L184.937 53.4188C135.85 76.2438 101.475 119.488 97.0746 170.019H431.2C426.662 119.419 392.218 76.1751 343.2 53.3501V53.3501ZM193.531 123.819C189.873 123.819 186.298 122.734 183.256 120.702C180.215 118.67 177.845 115.782 176.445 112.402C175.045 109.023 174.679 105.305 175.392 101.717C176.106 98.1297 177.867 94.8344 180.454 92.248C183.04 89.6616 186.335 87.9003 189.923 87.1867C193.51 86.4731 197.229 86.8393 200.608 88.2391C203.987 89.6388 206.876 92.0092 208.908 95.0505C210.94 98.0918 212.025 101.667 212.025 105.325C212.012 110.226 210.059 114.923 206.594 118.388C203.128 121.854 198.432 123.806 193.531 123.819V123.819ZM336.806 123.819C333.148 123.819 329.573 122.734 326.531 120.702C323.49 118.67 321.12 115.782 319.72 112.402C318.32 109.023 317.954 105.305 318.667 101.717C319.381 98.1297 321.142 94.8344 323.729 92.248C326.315 89.6616 329.61 87.9003 333.198 87.1867C336.785 86.4731 340.504 86.8393 343.883 88.2391C347.262 89.6388 350.151 92.0092 352.183 95.0505C354.215 98.0918 355.3 101.667 355.3 105.325C355.287 110.226 353.334 114.923 349.869 118.388C346.403 121.854 341.707 123.806 336.806 123.819ZM490.393 193.05C469.631 193.05 452.856 210.1 452.856 231.138V379.913C452.856 400.881 469.7 418 490.393 418C511.156 418 527.931 400.95 527.931 379.913V231.069C528 210.031 511.225 193.05 490.393 193.05ZM37.6059 193.05C16.8434 193.05 0.0683594 210.1 0.0683594 231.138V379.913C0.0683594 400.881 16.9121 418 37.6059 418C58.3684 418 75.1434 400.95 75.1434 379.913V231.069C75.1434 210.031 58.2996 193.05 37.6059 193.05Z" fill="#222222"/>
</g>
<defs>
<clipPath id="clip0_487_2">
<rect width="528" height="616" fill="white"/>
</clipPath>
</defs>
</svg>
