<svg width="89" height="75" viewBox="0 0 89 75" fill="none" xmlns="http://www.w3.org/2000/svg">
<g clip-path="url(#clip0_51_159)">
<path fill-rule="evenodd" clip-rule="evenodd" d="M3.69922 40.1602V33.7852C3.83203 33.7188 3.83203 33.5859 3.83203 33.4531C5.82422 24.7539 11.2695 19.5078 19.9023 17.4492C20.6328 17.25 21.4297 17.3164 22.1602 17.0508H26.4102C26.4766 17.1836 26.6758 17.1172 26.8086 17.1172C31.0586 17.582 34.9102 19.1094 38.2969 21.7656C41.2188 23.957 43.4766 26.7461 45.5352 29.7344C45.8008 30.1328 45.9336 30.1328 46.1992 29.7344C47.3945 28.0078 48.6562 26.3477 50.1172 24.8203C53.6367 21.0352 57.8867 18.3789 63.0664 17.4492C63.7969 17.25 64.6602 17.3164 65.3906 17.0508H69.5078C69.5742 17.1836 69.707 17.1172 69.8398 17.1172C71.1016 17.25 72.2969 17.5156 73.4922 17.8477C82.3906 20.4375 88.6992 28.6055 88.168 37.8359C87.7695 45.6055 83.8516 51.1836 77.0117 54.7031C73.625 56.5625 69.9063 57.0273 66.0547 56.9609C61.0078 56.8945 56.625 55.168 52.8398 51.8477C50.1836 49.5234 48.125 46.7344 46.1992 43.8125C45.9336 43.4141 45.8008 43.4805 45.5352 43.8789C44.3398 45.6719 43.0781 47.4648 41.6172 49.1914C39.0273 52.1133 36.0391 54.5039 32.3203 55.7656C27.7383 57.3594 23.0898 57.4258 18.4414 56.1641C11.7344 54.2383 7.15234 49.9883 4.62891 43.4805C4.23047 42.418 4.03125 41.2227 3.69922 40.1602V40.1602ZM24.8164 49.9219C28.6016 50.0547 31.8555 48.793 34.6445 46.2031C37.5 43.5469 39.5586 40.2266 41.6172 36.9727C41.6836 36.7734 41.6836 36.6406 41.5508 36.4414C39.8242 33.7188 38.0313 30.9961 35.6406 28.7383C31.0586 24.3555 25.6797 22.8945 19.6367 24.8203C14.6563 26.4805 11.4688 30 10.7383 35.3125C10.0078 40.293 11.9336 44.2773 15.918 47.2656C18.5742 49.1914 21.5625 49.9883 24.8164 49.9219V49.9219ZM66.918 49.9219C68.3789 49.9219 69.8398 49.8555 71.2344 49.457C76.4805 47.8633 79.9336 44.6094 80.9297 39.1641C81.9258 33.7852 79.8672 29.4687 75.3516 26.4141C70.3711 22.9609 63.1328 23.293 58.0859 27.0781C54.6992 29.6016 52.4414 32.9883 50.1836 36.5078C50.0508 36.707 50.1172 36.8398 50.1836 37.0391C51.9766 39.8945 53.7695 42.75 56.0938 45.207C59.0156 48.3281 62.5352 50.1211 66.918 49.9219V49.9219Z" fill="#111A26"/>
<path fill-rule="evenodd" clip-rule="evenodd" d="M24.75 34.8476C26.875 34.8476 29.0664 34.914 31.1914 34.8476C31.7227 34.8476 31.7891 34.9805 31.7891 35.5117C31.7227 36.1094 31.7227 36.707 31.7891 37.3047C31.8555 37.8359 31.7227 37.9687 31.125 37.9687H22.625C21.1641 37.9687 19.7031 37.9023 18.2422 37.9687C17.7773 37.9687 17.6445 37.8359 17.6445 37.3047C17.7109 36.707 17.7109 36.1094 17.6445 35.4453C17.6445 34.9805 17.7773 34.8476 18.2422 34.8476C20.3672 34.914 22.5586 34.8476 24.75 34.8476V34.8476ZM66.5859 30.5976C67.1172 30.5976 67.6484 30.664 68.1133 30.5976C68.4453 30.5976 68.5781 30.7305 68.5781 31.0625C68.5117 31.9922 68.5781 32.9219 68.5117 33.8515C68.5117 34.3164 68.6445 34.4492 69.1094 34.4492C69.9727 34.3828 70.9024 34.4492 71.832 34.3828C72.2305 34.3828 72.3633 34.4492 72.3633 34.914V37.9687C72.3633 38.3008 72.2305 38.4336 71.8984 38.4336C70.9688 38.3672 70.0391 38.4336 69.043 38.3672C68.6445 38.3672 68.5117 38.5 68.5117 38.8984C68.5781 39.8281 68.5117 40.7578 68.5781 41.6875C68.5781 42.0859 68.4453 42.2851 68.0469 42.2851C67.0508 42.2187 66.0547 42.2187 65.0586 42.2851C64.6602 42.2851 64.5274 42.1523 64.5274 41.7539C64.5938 40.7578 64.5273 39.8281 64.5938 38.832C64.5938 38.5 64.4609 38.3672 64.1289 38.3672C63.1992 38.4336 62.2695 38.3672 61.3398 38.4336C60.8086 38.4336 60.7422 38.2344 60.7422 37.8359C60.7422 36.9062 60.8086 35.9765 60.7422 35.0469C60.6758 34.5156 60.9414 34.3828 61.4062 34.3828C62.3359 34.4492 63.1992 34.3828 64.1289 34.4492C64.4609 34.4492 64.5938 34.3164 64.5938 33.9844C64.5273 33.0547 64.5938 32.0586 64.5274 31.1289C64.5274 30.7305 64.6602 30.5976 65.0586 30.5976C65.5898 30.664 66.0547 30.5976 66.5859 30.5976V30.5976ZM86.4095 12.2542C86.3212 12.3864 86.29 12.4302 86.2614 12.4747C86.1007 12.7158 86.2249 13.2032 85.8205 13.1959C85.4619 13.1879 85.5529 12.7417 85.4261 12.4979C85.3929 12.4329 85.353 12.3731 85.2421 12.1918C85.2421 12.5265 85.2474 12.7158 85.2421 12.9077C85.2368 13.0372 85.2654 13.2005 85.0602 13.2112C84.853 13.2218 84.8656 13.0558 84.8629 12.9256C84.8583 12.474 84.8583 12.0258 84.8609 11.5769C84.8609 11.4242 84.837 11.2475 85.0761 11.2422C85.2554 11.2396 85.4108 11.2322 85.4858 11.4653C85.5814 11.7509 85.6153 12.0696 85.8358 12.3446C86.0463 12.0776 86.0822 11.7688 86.1625 11.4859C86.2302 11.2555 86.373 11.2402 86.5596 11.2402C86.796 11.2422 86.7854 11.4082 86.788 11.5643C86.7907 12.0158 86.7907 12.4641 86.7854 12.9156C86.7827 13.0425 86.8007 13.2112 86.5988 13.2138C86.3963 13.2138 86.4115 13.0531 86.4095 12.9203C86.4042 12.7284 86.4095 12.5391 86.4095 12.2542V12.2542ZM83.9445 11.2369C84.0023 11.2369 84.0641 11.2269 84.1185 11.2369C84.3343 11.2787 84.6684 11.1127 84.7388 11.3697C84.8344 11.7303 84.4559 11.549 84.2952 11.626C84.1345 11.7037 84.1657 11.8465 84.1623 11.9767C84.155 12.2874 84.1577 12.5989 84.1577 12.9103C84.1577 13.0817 84.1245 13.2244 83.9034 13.2158C83.7008 13.2092 83.7088 13.0604 83.7088 12.9256C83.7027 12.6343 83.7018 12.343 83.7061 12.0517C83.7141 11.8027 83.7168 11.5689 83.3588 11.6028C83.234 11.6134 83.1251 11.5769 83.1251 11.4188C83.1251 11.201 83.2938 11.2449 83.4186 11.2396C83.5946 11.2316 83.7686 11.2369 83.9452 11.2369H83.9445Z" fill="#111A26"/>
</g>
<defs>
<clipPath id="clip0_51_159">
<rect width="88" height="74" fill="white" transform="translate(0.5 0.5)"/>
</clipPath>
</defs>
</svg>
