<svg width="746" height="121" viewBox="0 0 746 121" fill="none" xmlns="http://www.w3.org/2000/svg">
<g clip-path="url(#clip0_405_3)">
<path d="M2.74756 7.86501L2.86853 6.05001H28.7568C46.1769 6.05001 54.887 12.8663 54.887 26.499C54.887 31.7423 51.4191 37.4697 44.4833 43.681C54.7257 46.1817 59.8469 53.5223 59.8469 65.703C59.8469 75.2217 57.4274 81.796 52.5885 85.426C47.8302 88.9753 40.4912 90.75 30.5713 90.75H27.0631L2.74756 90.871L2.86853 89.177L9.15913 88.33C9.96562 88.2493 10.4495 87.725 10.6108 86.757V10.285C10.4495 9.23634 9.96562 8.67167 9.15913 8.59101L2.74756 7.86501ZM32.9908 44.407H18.837V88.935H29.9665C44.4027 88.935 51.6207 81.3523 51.6207 66.187C51.6207 58.443 50.0481 52.877 46.9028 49.489C43.8381 46.101 39.2008 44.407 32.9908 44.407ZM33.5957 42.592C36.5797 42.592 39.1605 42.7533 41.338 43.076C44.8865 37.51 46.6608 32.2263 46.6608 27.225C46.6608 14.3183 40.4912 7.86501 28.1519 7.86501H18.837V42.592H33.5957ZM94.7143 91.234C86.3268 91.234 79.512 88.814 74.2699 83.974C69.1084 79.134 66.5276 71.753 66.5276 61.831C66.5276 51.8283 69.2697 44.0037 74.7538 38.357C80.3185 32.6297 87.2946 29.766 95.6821 29.766C104.07 29.766 110.884 32.186 116.127 37.026C121.369 41.866 123.99 49.2873 123.99 59.29C123.99 69.212 121.207 77.0367 115.643 82.764C110.159 88.4107 103.182 91.234 94.7143 91.234ZM95.5611 31.944C89.5125 31.944 84.4719 34.5657 80.4395 39.809C76.4071 45.0523 74.3908 52.1913 74.3908 61.226C74.3908 70.18 76.2861 77.077 80.0766 81.917C83.9477 86.6763 88.9076 89.056 94.9563 89.056C101.005 89.056 106.045 86.4343 110.078 81.191C114.11 75.9477 116.127 68.849 116.127 59.895C116.127 50.941 114.191 44.044 110.32 39.204C106.529 34.364 101.61 31.944 95.5611 31.944ZM163.116 91.234C154.729 91.234 147.914 88.814 142.672 83.974C137.51 79.134 134.929 71.753 134.929 61.831C134.929 51.8283 137.671 44.0037 143.156 38.357C148.72 32.6297 155.696 29.766 164.084 29.766C172.471 29.766 179.286 32.186 184.528 37.026C189.77 41.866 192.392 49.2873 192.392 59.29C192.392 69.212 189.609 77.0367 184.044 82.764C178.56 88.4107 171.584 91.234 163.116 91.234ZM163.963 31.944C157.914 31.944 152.874 34.5657 148.841 39.809C144.809 45.0523 142.793 52.1913 142.793 61.226C142.793 70.18 144.688 77.077 148.478 81.917C152.35 86.6763 157.309 89.056 163.358 89.056C169.407 89.056 174.447 86.4343 178.48 81.191C182.512 75.9477 184.528 68.849 184.528 59.895C184.528 50.941 182.593 44.044 178.722 39.204C174.931 34.364 170.012 31.944 163.963 31.944ZM200.907 90.871L201.028 89.177L207.319 88.33C207.883 88.2493 208.246 87.846 208.407 87.12V4.35601C208.407 3.46867 208.165 3.025 207.682 3.025L200.302 2.783L200.423 1.089C205.504 0.363 208.972 0 210.827 0C212.762 0 214.133 0.524334 214.94 1.573C215.827 2.62167 216.271 3.75101 216.271 4.96101V88.33L225.344 88.935C225.344 89.0157 225.303 89.6207 225.223 90.75L200.907 90.871ZM258.611 88.935C258.611 89.0157 258.571 89.6207 258.49 90.75H243.248L216.271 58.564L237.078 34.485C237.078 33.4363 236.755 32.8717 236.11 32.791L229.82 31.944C229.739 31.5407 229.699 30.976 229.699 30.25L255.103 30.371C255.103 30.4517 255.143 31.0567 255.224 32.186L241.433 33.033L221.11 55.176L250.264 88.33L258.611 88.935ZM292.245 88.451C298.213 88.451 303.455 86.7167 307.972 83.248C312.488 79.6987 314.746 74.3343 314.746 67.155C314.746 63.9283 313.94 61.1857 312.327 58.927C310.795 56.5877 308.738 54.813 306.157 53.603C303.576 52.3123 300.754 51.2233 297.689 50.336C294.624 49.368 291.56 48.3597 288.495 47.311C285.431 46.2623 282.608 45.012 280.027 43.56C277.446 42.108 275.349 40.051 273.736 37.389C272.204 34.727 271.438 31.5407 271.438 27.83C271.438 21.3767 273.656 16.093 278.092 11.979C282.527 7.86501 288.455 5.80801 295.875 5.80801C303.294 5.80801 310.391 6.65501 317.166 8.34901L318.496 23.474L316.198 24.442L314.988 14.883C309.02 10.4463 303.415 8.22801 298.173 8.22801C292.931 8.22801 288.536 9.84134 284.987 13.068C281.438 16.214 279.664 20.9733 279.664 27.346C279.664 31.0567 281.156 34.001 284.14 36.179C287.124 38.357 290.713 40.051 294.907 41.261C299.181 42.471 303.415 43.8423 307.609 45.375C311.883 46.9077 315.512 49.489 318.496 53.119C321.48 56.749 322.972 61.468 322.972 67.276C322.972 75.1007 320.19 80.9893 314.625 84.942C309.061 88.8947 301.722 90.871 292.608 90.871C283.495 90.871 275.591 88.4107 268.898 83.49L269.019 70.664L271.317 70.059L271.559 76.956C273.736 80.0213 276.72 82.7237 280.511 85.063C284.301 87.3217 288.213 88.451 292.245 88.451ZM342.142 121L341.9 119.306L353.151 117.854C353.715 117.773 354.078 117.209 354.239 116.16L358.231 90.75H354.239L334.038 34.485L333.917 34.364C333.514 33.396 332.868 32.8313 331.981 32.67L326.537 32.186C326.457 31.702 326.416 31.097 326.416 30.371L351.82 30.25C351.82 30.3307 351.86 30.9357 351.941 32.065L342.505 32.791L360.409 87.604L382.91 34.364C383.152 33.88 382.991 33.4767 382.426 33.154C381.942 32.8313 381.418 32.6297 380.853 32.549L375.531 32.186C375.45 31.702 375.41 31.097 375.41 30.371L397.548 30.25C397.548 30.3307 397.588 30.9357 397.669 32.065L386.902 33.154L361.498 90.75L356.901 118.459L367.425 119.064C367.587 120.193 367.667 120.798 367.667 120.879L342.142 121ZM406.056 7.86501L406.177 6.05001H422.75L469.809 87.362L469.204 10.285C468.881 9.47834 468.438 9.03467 467.873 8.95401L456.744 7.98601C456.663 7.50201 456.623 6.89701 456.623 6.17101L479.608 6.05001C479.608 6.13067 479.648 6.73567 479.729 7.86501L471.986 8.71201V90.75H463.155L416.097 9.43801L416.702 88.209L430.493 88.935C430.493 89.0157 430.452 89.6207 430.372 90.75L406.056 90.871L406.177 89.177L412.468 88.33C413.274 88.2493 413.758 87.725 413.919 86.757V10.164C413.758 9.19601 413.274 8.67167 412.468 8.59101L406.056 7.86501ZM523.904 86.152H523.541C516.283 89.54 509.226 91.234 502.371 91.234C491.644 91.234 485.959 86.999 485.313 78.529C485.233 77.9643 485.192 77.44 485.192 76.956C485.192 70.7447 489.265 66.5903 497.411 64.493C502.25 63.4443 510.96 62.194 523.541 60.742V50.094C523.541 46.706 523.138 43.802 522.331 41.382C521.525 38.962 520.638 37.1873 519.67 36.058C518.702 34.848 517.452 33.9203 515.92 33.275C513.984 32.4683 511.807 32.065 509.387 32.065C507.048 32.065 504.347 32.67 501.282 33.88C496.846 35.7353 492.894 38.0747 489.427 40.898L488.943 50.336L486.644 50.941V36.3L487.854 35.816C494.145 33.0733 498.943 31.4197 502.25 30.855C505.556 30.2903 507.976 30.008 509.508 30.008C511.04 29.9273 512.492 29.9273 513.863 30.008C515.315 30.0887 517.17 30.4517 519.428 31.097C521.686 31.7423 523.622 32.67 525.235 33.88C526.928 35.0093 528.38 36.7437 529.59 39.083C530.799 41.4223 531.404 44.2053 531.404 47.432V84.458C531.404 86.9587 532.049 88.209 533.34 88.209L540.719 88.572L540.598 90.387C536.082 91.0323 532.049 91.355 528.501 91.355C527.533 91.2743 526.525 90.7903 525.477 89.903C524.428 88.935 523.904 87.6847 523.904 86.152ZM504.548 89.298C510.516 89.298 516.847 87.2007 523.541 83.006V63.041C511.444 63.4443 503.822 64.1703 500.677 65.219C497.612 66.187 495.475 67.76 494.266 69.938C493.136 72.0353 492.572 74.1327 492.572 76.23C492.572 76.6333 492.572 77.0367 492.572 77.44C492.814 81.6347 494.064 84.6597 496.322 86.515C498.58 88.3703 501.322 89.298 504.548 89.298ZM570.781 88.451L575.499 88.209L575.862 89.419C575.781 89.419 575.217 89.54 574.168 89.782C571.749 90.3467 569.047 90.629 566.063 90.629C563.321 90.4677 560.821 90.024 558.563 89.298C556.304 88.4913 554.208 86.878 552.272 84.458C550.336 81.9573 549.369 78.771 549.369 74.899V32.428H543.199L544.167 31.46L549.49 30.371L550.457 18.755L557.232 18.15V30.25H571.87V32.428H557.232V72.842C557.232 78.9727 558.522 83.127 561.103 85.305C563.684 87.4023 566.91 88.451 570.781 88.451ZM597.734 35.211V88.33L606.807 88.935C606.807 89.0157 606.767 89.6207 606.686 90.75L582.492 90.871C582.492 90.145 582.532 89.5803 582.613 89.177L588.903 88.33C589.387 88.33 589.71 87.967 589.871 87.241V34.122C589.71 33.5573 589.468 33.275 589.145 33.275L581.887 33.033L582.008 31.339C586.363 30.613 589.669 30.25 591.928 30.25C594.186 30.25 595.718 30.7743 596.525 31.823C597.331 32.8717 597.734 34.001 597.734 35.211ZM593.621 14.036C592.008 14.036 590.758 13.552 589.871 12.584C588.984 11.5353 588.54 10.2043 588.54 8.59101C588.54 6.89701 588.984 5.56601 589.871 4.59801C590.839 3.54934 592.129 3.025 593.742 3.025C595.355 3.025 596.646 3.54934 597.613 4.59801C598.662 5.56601 599.186 6.93734 599.186 8.71201C599.186 10.406 598.662 11.737 597.613 12.705C596.565 13.5923 595.234 14.036 593.621 14.036ZM646.537 91.234C638.149 91.234 631.335 88.814 626.092 83.974C620.931 79.134 618.35 71.753 618.35 61.831C618.35 51.8283 621.092 44.0037 626.576 38.357C632.141 32.6297 639.117 29.766 647.505 29.766C655.892 29.766 662.707 32.186 667.949 37.026C673.191 41.866 675.812 49.2873 675.812 59.29C675.812 69.212 673.03 77.0367 667.465 82.764C661.981 88.4107 655.005 91.234 646.537 91.234ZM647.384 31.944C641.335 31.944 636.294 34.5657 632.262 39.809C628.23 45.0523 626.213 52.1913 626.213 61.226C626.213 70.18 628.109 77.077 631.899 81.917C635.77 86.6763 640.73 89.056 646.779 89.056C652.827 89.056 657.868 86.4343 661.9 81.191C665.933 75.9477 667.949 68.849 667.949 59.895C667.949 50.941 666.013 44.044 662.142 39.204C658.352 34.364 653.432 31.944 647.384 31.944ZM683.118 90.871L683.239 89.177L689.529 88.33C690.255 88.2493 690.618 87.6847 690.618 86.636V34.243C690.457 33.5977 690.215 33.275 689.892 33.275L682.513 33.033L682.634 31.339C687.715 30.613 691.142 30.25 692.917 30.25C696.142 30.25 697.957 31.6617 698.36 34.485H698.481V37.026C705.094 32.5087 711.425 30.129 717.474 29.887C723.361 29.887 727.837 31.0567 730.902 33.396C732.273 34.4447 733.483 36.0983 734.531 38.357C735.66 40.535 736.225 43.1567 736.225 46.222V88.33L745.298 88.935C745.298 89.0157 745.258 89.6207 745.177 90.75L720.982 90.871C720.982 90.145 721.023 89.5803 721.103 89.177L727.394 88.33C728.039 88.2493 728.362 87.6847 728.362 86.636V49.247C728.362 46.0203 727.918 43.2777 727.031 41.019C726.224 38.7603 725.297 37.1067 724.249 36.058C723.2 35.0093 721.91 34.2027 720.377 33.638C718.603 32.9927 716.748 32.67 714.813 32.67C709.974 32.7507 704.53 34.6463 698.481 38.357V88.33L707.554 88.935C707.554 89.0157 707.514 89.6207 707.433 90.75L683.118 90.871Z" fill="#019673"/>
</g>
<defs>
<clipPath id="clip0_405_3">
<rect width="746" height="121" fill="white"/>
</clipPath>
</defs>
</svg>
