<svg width="453" height="73" viewBox="0 0 453 73" fill="none" xmlns="http://www.w3.org/2000/svg">
<g clip-path="url(#clip0_214_37)">
<path d="M1.66846 4.745L1.74192 3.65H17.4622C28.0405 3.65 33.3295 7.76234 33.3295 15.987C33.3295 19.1503 31.2237 22.6057 27.012 26.353C33.2316 27.8617 36.3414 32.2903 36.3414 39.639C36.3414 45.3817 34.8722 49.348 31.9338 51.538C29.0444 53.6793 24.5879 54.75 18.5641 54.75H16.4338L1.66846 54.823L1.74192 53.801L5.56181 53.29C6.05154 53.2413 6.34538 52.925 6.44333 52.341V6.205C6.34538 5.57234 6.05154 5.23167 5.56181 5.183L1.66846 4.745ZM20.0333 26.791H11.4386V53.655H18.1968C26.963 53.655 31.3461 49.0803 31.3461 39.931C31.3461 35.259 30.3912 31.901 28.4812 29.857C26.6202 27.813 23.8043 26.791 20.0333 26.791ZM20.4006 25.696C22.2127 25.696 23.7798 25.7933 25.1021 25.988C27.2569 22.63 28.3343 19.4423 28.3343 16.425C28.3343 8.63834 24.5879 4.745 17.0949 4.745H11.4386V25.696H20.4006ZM57.5142 55.042C52.421 55.042 48.2828 53.582 45.0996 50.662C41.9653 47.742 40.3982 43.289 40.3982 37.303C40.3982 31.2683 42.0633 26.5477 45.3934 23.141C48.7725 19.6857 53.0087 17.958 58.1019 17.958C63.1951 17.958 67.3333 19.418 70.5166 22.338C73.6998 25.258 75.2914 29.7353 75.2914 35.77C75.2914 41.756 73.6018 46.4767 70.2227 49.932C66.8925 53.3387 62.6564 55.042 57.5142 55.042ZM58.0284 19.272C54.3555 19.272 51.2947 20.8537 48.846 24.017C46.3974 27.1803 45.173 31.4873 45.173 36.938C45.173 42.34 46.3239 46.501 48.6256 49.421C50.9763 52.2923 53.9882 53.728 57.6611 53.728C61.3341 53.728 64.3949 52.1463 66.8436 48.983C69.2922 45.8197 70.5166 41.537 70.5166 36.135C70.5166 30.733 69.3412 26.572 66.9905 23.652C64.6888 20.732 61.7014 19.272 58.0284 19.272ZM99.0504 55.042C93.9573 55.042 89.819 53.582 86.6358 50.662C83.5015 47.742 81.9344 43.289 81.9344 37.303C81.9344 31.2683 83.5995 26.5477 86.9296 23.141C90.3088 19.6857 94.5449 17.958 99.6381 17.958C104.731 17.958 108.87 19.418 112.053 22.338C115.236 25.258 116.828 29.7353 116.828 35.77C116.828 41.756 115.138 46.4767 111.759 49.932C108.429 53.3387 104.193 55.042 99.0504 55.042ZM99.5647 19.272C95.8917 19.272 92.8309 20.8537 90.3822 24.017C87.9336 27.1803 86.7093 31.4873 86.7093 36.938C86.7093 42.34 87.8601 46.501 90.1619 49.421C92.5126 52.2923 95.5244 53.728 99.1974 53.728C102.87 53.728 105.931 52.1463 108.38 48.983C110.828 45.8197 112.053 41.537 112.053 36.135C112.053 30.733 110.877 26.572 108.527 23.652C106.225 20.732 103.238 19.272 99.5647 19.272ZM121.999 54.823L122.072 53.801L125.892 53.29C126.235 53.2413 126.455 52.998 126.553 52.56V2.628C126.553 2.09267 126.406 1.825 126.112 1.825L121.631 1.679L121.705 0.657C124.79 0.219 126.896 0 128.022 0C129.198 0 130.03 0.316334 130.52 0.949C131.059 1.58167 131.328 2.263 131.328 2.993V53.29L136.837 53.655C136.837 53.7037 136.813 54.0687 136.764 54.75L121.999 54.823ZM157.039 53.655C157.039 53.7037 157.014 54.0687 156.965 54.75H147.709L131.328 35.332L143.963 20.805C143.963 20.1723 143.767 19.8317 143.375 19.783L139.555 19.272C139.506 19.0287 139.482 18.688 139.482 18.25L154.908 18.323C154.908 18.3717 154.933 18.7367 154.982 19.418L146.607 19.929L134.266 33.288L151.97 53.29L157.039 53.655ZM177.463 53.363C181.087 53.363 184.27 52.3167 187.012 50.224C189.755 48.0827 191.126 44.8463 191.126 40.515C191.126 38.5683 190.636 36.9137 189.657 35.551C188.726 34.1397 187.478 33.069 185.911 32.339C184.343 31.5603 182.629 30.9033 180.768 30.368C178.907 29.784 177.046 29.1757 175.185 28.543C173.324 27.9103 171.61 27.156 170.043 26.28C168.476 25.404 167.203 24.163 166.223 22.557C165.293 20.951 164.828 19.0287 164.828 16.79C164.828 12.8967 166.174 9.709 168.868 7.227C171.561 4.745 175.161 3.504 179.666 3.504C184.172 3.504 188.482 4.015 192.595 5.037L193.403 14.162L192.008 14.746L191.273 8.979C187.649 6.30234 184.245 4.964 181.062 4.964C177.879 4.964 175.21 5.93734 173.055 7.884C170.9 9.782 169.823 12.6533 169.823 16.498C169.823 18.7367 170.729 20.513 172.541 21.827C174.353 23.141 176.532 24.163 179.079 24.893C181.674 25.623 184.245 26.4503 186.792 27.375C189.388 28.2997 191.591 29.857 193.403 32.047C195.215 34.237 196.121 37.084 196.121 40.588C196.121 45.3087 194.432 48.8613 191.053 51.246C187.674 53.6307 183.217 54.823 177.683 54.823C172.149 54.823 167.35 53.3387 163.285 50.37L163.358 42.632L164.754 42.267L164.901 46.428C166.223 48.2773 168.035 49.9077 170.337 51.319C172.639 52.6817 175.014 53.363 177.463 53.363ZM207.762 73L207.615 71.978L214.447 71.102C214.79 71.0533 215.01 70.7127 215.108 70.08L217.532 54.75H215.108L202.841 20.805L202.767 20.732C202.522 20.148 202.131 19.8073 201.592 19.71L198.286 19.418C198.237 19.126 198.213 18.761 198.213 18.323L213.639 18.25C213.639 18.2987 213.663 18.6637 213.712 19.345L207.982 19.783L218.854 52.852L232.518 20.732C232.665 20.44 232.567 20.1967 232.224 20.002C231.93 19.8073 231.612 19.6857 231.269 19.637L228.037 19.418C227.988 19.126 227.963 18.761 227.963 18.323L241.406 18.25C241.406 18.2987 241.431 18.6637 241.48 19.345L234.942 20.002L219.515 54.75L216.724 71.467L223.115 71.832C223.213 72.5133 223.262 72.8783 223.262 72.927L207.762 73ZM246.573 4.745L246.646 3.65H256.71L285.286 52.706L284.919 6.205C284.723 5.71834 284.454 5.45067 284.111 5.402L277.352 4.818C277.304 4.526 277.279 4.161 277.279 3.723L291.236 3.65C291.236 3.69867 291.261 4.06367 291.31 4.745L286.608 5.256V54.75H281.246L252.67 5.694L253.037 53.217L261.412 53.655C261.412 53.7037 261.387 54.0687 261.338 54.75L246.573 54.823L246.646 53.801L250.466 53.29C250.956 53.2413 251.25 52.925 251.348 52.341V6.132C251.25 5.548 250.956 5.23167 250.466 5.183L246.573 4.745ZM318.135 51.976H317.914C313.507 54.02 309.222 55.042 305.059 55.042C298.546 55.042 295.093 52.487 294.701 47.377C294.652 47.0363 294.628 46.72 294.628 46.428C294.628 42.6807 297.101 40.1743 302.047 38.909C304.985 38.2763 310.275 37.522 317.914 36.646V30.222C317.914 28.178 317.669 26.426 317.18 24.966C316.69 23.506 316.151 22.4353 315.564 21.754C314.976 21.024 314.217 20.4643 313.286 20.075C312.111 19.5883 310.789 19.345 309.32 19.345C307.899 19.345 306.259 19.71 304.398 20.44C301.704 21.5593 299.305 22.9707 297.199 24.674L296.905 30.368L295.509 30.733V21.9L296.244 21.608C300.064 19.9533 302.978 18.9557 304.985 18.615C306.993 18.2743 308.463 18.104 309.393 18.104C310.324 18.0553 311.205 18.0553 312.038 18.104C312.919 18.1527 314.045 18.3717 315.417 18.761C316.788 19.1503 317.963 19.71 318.943 20.44C319.971 21.1213 320.853 22.1677 321.587 23.579C322.322 24.9903 322.689 26.6693 322.689 28.616V50.954C322.689 52.4627 323.081 53.217 323.865 53.217L328.346 53.436L328.272 54.531C325.53 54.9203 323.081 55.115 320.926 55.115C320.339 55.0663 319.726 54.7743 319.09 54.239C318.453 53.655 318.135 52.9007 318.135 51.976ZM306.381 53.874C310.005 53.874 313.85 52.6087 317.914 50.078V38.033C310.568 38.2763 305.94 38.7143 304.03 39.347C302.17 39.931 300.872 40.88 300.137 42.194C299.452 43.4593 299.109 44.7247 299.109 45.99C299.109 46.2333 299.109 46.4767 299.109 46.72C299.256 49.2507 300.015 51.0757 301.386 52.195C302.757 53.3143 304.422 53.874 306.381 53.874ZM346.6 53.363L349.465 53.217L349.686 53.947C349.637 53.947 349.294 54.02 348.657 54.166C347.188 54.5067 345.547 54.677 343.735 54.677C342.07 54.5797 340.552 54.312 339.181 53.874C337.81 53.3873 336.536 52.414 335.361 50.954C334.186 49.4453 333.598 47.523 333.598 45.187V19.564H329.852L330.439 18.98L333.671 18.323L334.259 11.315L338.373 10.95V18.25H347.261V19.564H338.373V43.946C338.373 47.6447 339.156 50.151 340.724 51.465C342.291 52.7303 344.25 53.363 346.6 53.363ZM362.967 21.243V53.29L368.477 53.655C368.477 53.7037 368.452 54.0687 368.403 54.75L353.712 54.823C353.712 54.385 353.736 54.0443 353.785 53.801L357.605 53.29C357.899 53.29 358.095 53.071 358.193 52.633V20.586C358.095 20.2453 357.948 20.075 357.752 20.075L353.344 19.929L353.418 18.907C356.062 18.469 358.07 18.25 359.441 18.25C360.813 18.25 361.743 18.5663 362.233 19.199C362.723 19.8317 362.967 20.513 362.967 21.243ZM360.47 8.468C359.49 8.468 358.731 8.176 358.193 7.592C357.654 6.95934 357.385 6.15634 357.385 5.183C357.385 4.161 357.654 3.358 358.193 2.774C358.78 2.14134 359.564 1.825 360.543 1.825C361.523 1.825 362.306 2.14134 362.894 2.774C363.531 3.358 363.849 4.18534 363.849 5.256C363.849 6.278 363.531 7.081 362.894 7.665C362.257 8.20034 361.449 8.468 360.47 8.468ZM392.602 55.042C387.509 55.042 383.371 53.582 380.188 50.662C377.053 47.742 375.486 43.289 375.486 37.303C375.486 31.2683 377.151 26.5477 380.481 23.141C383.861 19.6857 388.097 17.958 393.19 17.958C398.283 17.958 402.421 19.418 405.605 22.338C408.788 25.258 410.379 29.7353 410.379 35.77C410.379 41.756 408.69 46.4767 405.311 49.932C401.981 53.3387 397.744 55.042 392.602 55.042ZM393.116 19.272C389.443 19.272 386.383 20.8537 383.934 24.017C381.485 27.1803 380.261 31.4873 380.261 36.938C380.261 42.34 381.412 46.501 383.714 49.421C386.064 52.2923 389.076 53.728 392.749 53.728C396.422 53.728 399.483 52.1463 401.932 48.983C404.38 45.8197 405.605 41.537 405.605 36.135C405.605 30.733 404.429 26.572 402.078 23.652C399.777 20.732 396.789 19.272 393.116 19.272ZM414.816 54.823L414.889 53.801L418.709 53.29C419.15 53.2413 419.37 52.9007 419.37 52.268V20.659C419.272 20.2697 419.125 20.075 418.929 20.075L414.448 19.929L414.522 18.907C417.607 18.469 419.688 18.25 420.766 18.25C422.725 18.25 423.827 19.1017 424.071 20.805H424.145V22.338C428.161 19.6127 432.005 18.177 435.678 18.031C439.253 18.031 441.971 18.7367 443.832 20.148C444.665 20.7807 445.399 21.7783 446.036 23.141C446.721 24.455 447.064 26.0367 447.064 27.886V53.29L452.574 53.655C452.574 53.7037 452.549 54.0687 452.5 54.75L437.808 54.823C437.808 54.385 437.833 54.0443 437.882 53.801L441.702 53.29C442.093 53.2413 442.289 52.9007 442.289 52.268V29.711C442.289 27.7643 442.02 26.1097 441.481 24.747C440.992 23.3843 440.428 22.3867 439.792 21.754C439.155 21.1213 438.372 20.6347 437.441 20.294C436.364 19.9047 435.237 19.71 434.062 19.71C431.124 19.7587 427.818 20.9023 424.145 23.141V53.29L429.654 53.655C429.654 53.7037 429.63 54.0687 429.581 54.75L414.816 54.823Z" fill="white"/>
</g>
<defs>
<clipPath id="clip0_214_37">
<rect width="453" height="73" fill="white"/>
</clipPath>
</defs>
</svg>
