<svg width="86" height="85" viewBox="0 0 86 85" fill="none" xmlns="http://www.w3.org/2000/svg">
<path d="M77.3828 20.3867L45.3086 1.92578C44.7773 1.59375 44.0469 1.46094 43.25 1.46094C42.4531 1.46094 41.7227 1.66016 41.1914 1.92578L9.31641 20.4531C8.1875 21.1172 7.39062 22.7773 7.39062 24.0391V61.0273C7.39062 61.7578 7.52344 62.6211 8.05469 63.3516L78.9766 22.1797C78.5781 21.3828 77.9805 20.7852 77.3828 20.3867Z" fill="#233039"/>
<path d="M7.85547 63.2852C8.1875 63.8164 8.65234 64.2812 9.11719 64.5469L41.125 83.0742C41.6562 83.4063 42.3867 83.5391 43.1836 83.5391C43.9805 83.5391 44.7109 83.3398 45.2422 83.0742L77.1172 64.5469C78.2461 63.8828 79.043 62.2227 79.043 60.9609V23.9727C79.043 23.375 78.9766 22.7109 78.6445 22.1133L7.85547 63.2852Z" fill="#111A26"/>
<path d="M57.3945 50.5352C54.6055 55.4492 49.293 58.7695 43.25 58.7695C34.2852 58.7695 26.9805 51.4648 26.9805 42.5C26.9805 33.5352 34.2852 26.2305 43.25 26.2305C49.293 26.2305 54.6055 29.5508 57.3945 34.5312L66.0273 29.5508C61.5117 21.6484 53.0117 16.2695 43.25 16.2695C28.7734 16.2695 17.0195 28.0234 17.0195 42.5C17.0195 56.9766 28.7734 68.7305 43.25 68.7305C52.9453 68.7305 61.4453 63.418 65.9609 55.582L57.3945 50.5352Z" fill="white"/>
</svg>
