<svg width="725" height="121" viewBox="0 0 725 121" fill="none" xmlns="http://www.w3.org/2000/svg">
<path d="M47.8165 95.768C41.0752 95.768 34.8458 94.6587 29.1285 92.44C23.4112 90.136 18.4618 86.936 14.2805 82.84C10.0992 78.744 6.81383 73.9227 4.4245 68.376C2.1205 62.8293 0.9685 56.7707 0.9685 50.2C0.9685 43.6293 2.1205 37.5707 4.4245 32.024C6.81383 26.4773 10.0992 21.656 14.2805 17.56C18.5472 13.464 23.5392 10.3067 29.2565 8.088C34.9738 5.784 41.2032 4.632 47.9445 4.632C54.4298 4.632 60.5312 5.74133 66.2485 7.96C71.9658 10.0933 76.7872 13.336 80.7125 17.688L74.6965 23.704C71.0272 19.9493 66.9738 17.2613 62.5365 15.64C58.0992 13.9333 53.3205 13.08 48.2005 13.08C42.8245 13.08 37.8325 14.0187 33.2245 15.896C28.6165 17.688 24.6058 20.2907 21.1925 23.704C17.7792 27.032 15.0912 30.9573 13.1285 35.48C11.2512 39.9173 10.3125 44.824 10.3125 50.2C10.3125 55.576 11.2512 60.5253 13.1285 65.048C15.0912 69.4853 17.7792 73.4107 21.1925 76.824C24.6058 80.152 28.6165 82.7547 33.2245 84.632C37.8325 86.424 42.8245 87.32 48.2005 87.32C53.3205 87.32 58.0992 86.4667 62.5365 84.76C66.9738 83.0533 71.0272 80.3227 74.6965 76.568L80.7125 82.584C76.7872 86.936 71.9658 90.2213 66.2485 92.44C60.5312 94.6587 54.3872 95.768 47.8165 95.768ZM99.4965 120.472C96.3392 120.472 93.3098 119.96 90.4085 118.936C87.5925 117.912 85.1605 116.376 83.1125 114.328L87.3365 107.544C89.0432 109.165 90.8778 110.403 92.8405 111.256C94.8885 112.195 97.1498 112.664 99.6245 112.664C102.611 112.664 105.171 111.811 107.305 110.104C109.523 108.483 111.614 105.581 113.577 101.4L117.929 91.544L118.953 90.136L146.601 27.8H155.561L121.897 103.064C120.019 107.416 117.929 110.872 115.625 113.432C113.406 115.992 110.974 117.784 108.329 118.808C105.683 119.917 102.739 120.472 99.4965 120.472ZM117.417 96.92L86.4405 27.8H95.9125L123.305 89.496L117.417 96.92ZM203.048 95.64C197.16 95.64 191.869 94.3173 187.176 91.672C182.482 88.9413 178.77 85.016 176.04 79.896C173.309 74.776 171.944 68.5893 171.944 61.336C171.944 53.9973 173.309 47.8107 176.04 42.776C178.856 37.656 182.61 33.7733 187.304 31.128C191.997 28.4827 197.245 27.16 203.048 27.16C209.448 27.16 215.165 28.6107 220.2 31.512C225.32 34.328 229.33 38.296 232.232 43.416C235.133 48.536 236.584 54.5093 236.584 61.336C236.584 68.0773 235.133 74.0507 232.232 79.256C229.33 84.376 225.32 88.3867 220.2 91.288C215.165 94.1893 209.448 95.64 203.048 95.64ZM168.36 95V0.0239944H177.448V47.64L176.168 61.208L177.064 74.776V95H168.36ZM202.408 87.576C207.186 87.576 211.453 86.5093 215.208 84.376C218.962 82.1573 221.949 79.0853 224.168 75.16C226.386 71.1493 227.496 66.5413 227.496 61.336C227.496 56.0453 226.386 51.4373 224.168 47.512C221.949 43.5867 218.962 40.5573 215.208 38.424C211.453 36.2053 207.186 35.096 202.408 35.096C197.629 35.096 193.32 36.2053 189.479 38.424C185.725 40.5573 182.738 43.5867 180.52 47.512C178.386 51.4373 177.32 56.0453 177.32 61.336C177.32 66.5413 178.386 71.1493 180.52 75.16C182.738 79.0853 185.725 82.1573 189.479 84.376C193.32 86.5093 197.629 87.576 202.408 87.576ZM283.654 95.64C276.656 95.64 270.512 94.1893 265.222 91.288C259.931 88.3013 255.792 84.248 252.806 79.128C249.819 73.9227 248.326 67.992 248.326 61.336C248.326 54.68 249.734 48.792 252.55 43.672C255.451 38.552 259.376 34.5413 264.326 31.64C269.36 28.6533 274.992 27.16 281.222 27.16C287.536 27.16 293.126 28.6107 297.99 31.512C302.939 34.328 306.822 38.3387 309.638 43.544C312.454 48.664 313.862 54.5947 313.862 61.336C313.862 61.7627 313.819 62.232 313.734 62.744C313.734 63.1707 313.734 63.64 313.734 64.152H255.238V57.368H308.87L305.286 60.056C305.286 55.192 304.219 50.8827 302.086 47.128C300.038 43.288 297.222 40.3013 293.638 38.168C290.054 36.0347 285.915 34.968 281.222 34.968C276.614 34.968 272.475 36.0347 268.806 38.168C265.136 40.3013 262.278 43.288 260.23 47.128C258.182 50.968 257.158 55.3627 257.158 60.312V61.72C257.158 66.84 258.267 71.3627 260.486 75.288C262.79 79.128 265.947 82.1573 269.958 84.376C274.054 86.5093 278.704 87.576 283.91 87.576C288.006 87.576 291.803 86.8507 295.302 85.4C298.886 83.9493 301.958 81.7307 304.518 78.744L309.638 84.632C306.651 88.216 302.896 90.9467 298.374 92.824C293.936 94.7013 289.03 95.64 283.654 95.64ZM332.36 95V27.8H341.064V46.104L340.168 42.904C342.045 37.784 345.202 33.9013 349.64 31.256C354.077 28.5253 359.581 27.16 366.152 27.16V35.992C365.81 35.992 365.469 35.992 365.128 35.992C364.786 35.9067 364.445 35.864 364.104 35.864C357.021 35.864 351.474 38.04 347.464 42.392C343.453 46.6587 341.448 52.76 341.448 60.696V95H332.36Z" fill="white"/>
<path d="M424.567 95.768C417.825 95.768 411.596 94.6587 405.879 92.44C400.161 90.136 395.212 86.936 391.031 82.84C386.849 78.744 383.564 73.9227 381.175 68.376C378.871 62.8293 377.719 56.7707 377.719 50.2C377.719 43.6293 378.871 37.5707 381.175 32.024C383.564 26.4773 386.849 21.656 391.031 17.56C395.297 13.464 400.289 10.3067 406.007 8.088C411.724 5.784 417.953 4.632 424.695 4.632C431.18 4.632 437.281 5.74133 442.999 7.96C448.716 10.0933 453.537 13.336 457.463 17.688L451.447 23.704C447.777 19.9493 443.724 17.2613 439.287 15.64C434.849 13.9333 430.071 13.08 424.951 13.08C419.575 13.08 414.583 14.0187 409.975 15.896C405.367 17.688 401.356 20.2907 397.943 23.704C394.529 27.032 391.841 30.9573 389.878 35.48C388.001 39.9173 387.062 44.824 387.062 50.2C387.062 55.576 388.001 60.5253 389.878 65.048C391.841 69.4853 394.529 73.4107 397.943 76.824C401.356 80.152 405.367 82.7547 409.975 84.632C414.583 86.424 419.575 87.32 424.951 87.32C430.071 87.32 434.849 86.4667 439.287 84.76C443.724 83.0533 447.777 80.3227 451.447 76.568L457.463 82.584C453.537 86.936 448.716 90.2213 442.999 92.44C437.281 94.6587 431.137 95.768 424.567 95.768ZM475.735 95V0.0239944H484.823V95H475.735ZM537.502 95.64C531.016 95.64 525.171 94.1893 519.966 91.288C514.846 88.3013 510.792 84.248 507.806 79.128C504.819 73.9227 503.326 67.992 503.326 61.336C503.326 54.5947 504.819 48.664 507.806 43.544C510.792 38.424 514.846 34.4133 519.966 31.512C525.086 28.6107 530.931 27.16 537.502 27.16C544.158 27.16 550.046 28.6107 555.166 31.512C560.371 34.4133 564.424 38.424 567.326 43.544C570.312 48.664 571.806 54.5947 571.806 61.336C571.806 67.992 570.312 73.9227 567.326 79.128C564.424 84.248 560.371 88.3013 555.166 91.288C549.96 94.1893 544.072 95.64 537.502 95.64ZM537.502 87.576C542.366 87.576 546.675 86.5093 550.43 84.376C554.184 82.1573 557.128 79.0853 559.262 75.16C561.48 71.1493 562.59 66.5413 562.59 61.336C562.59 56.0453 561.48 51.4373 559.262 47.512C557.128 43.5867 554.184 40.5573 550.43 38.424C546.675 36.2053 542.408 35.096 537.63 35.096C532.851 35.096 528.584 36.2053 524.83 38.424C521.075 40.5573 518.088 43.5867 515.87 47.512C513.651 51.4373 512.542 56.0453 512.542 61.336C512.542 66.5413 513.651 71.1493 515.87 75.16C518.088 79.0853 521.075 82.1573 524.83 84.376C528.584 86.5093 532.808 87.576 537.502 87.576ZM618.264 95.64C611.608 95.64 605.634 94.1893 600.344 91.288C595.138 88.3013 591.042 84.248 588.056 79.128C585.069 73.9227 583.576 67.992 583.576 61.336C583.576 54.5947 585.069 48.664 588.056 43.544C591.042 38.424 595.138 34.4133 600.344 31.512C605.634 28.6107 611.608 27.16 618.264 27.16C623.981 27.16 629.144 28.2693 633.752 30.488C638.36 32.7067 641.986 36.0347 644.632 40.472L637.848 45.08C635.544 41.6667 632.685 39.1493 629.272 37.528C625.858 35.9067 622.146 35.096 618.136 35.096C613.357 35.096 609.048 36.2053 605.208 38.424C601.368 40.5573 598.338 43.5867 596.12 47.512C593.901 51.4373 592.792 56.0453 592.792 61.336C592.792 66.6267 593.901 71.2347 596.12 75.16C598.338 79.0853 601.368 82.1573 605.208 84.376C609.048 86.5093 613.357 87.576 618.136 87.576C622.146 87.576 625.858 86.7653 629.272 85.144C632.685 83.5227 635.544 81.048 637.848 77.72L644.632 82.328C641.986 86.68 638.36 90.008 633.752 92.312C629.144 94.5307 623.981 95.64 618.264 95.64ZM668.653 77.592L668.909 65.944L710.765 27.8H721.901L692.333 56.088L687.213 60.44L668.653 77.592ZM661.485 95V0.0239944H670.573V95H661.485ZM713.581 95L685.549 60.056L691.437 53.016L724.717 95H713.581Z" fill="#72969B"/>
</svg>
