<svg width="621" height="104" viewBox="0 0 621 104" fill="none" xmlns="http://www.w3.org/2000/svg">
<path d="M42.2468 82.7621C36.4835 82.7621 31.158 81.8132 26.2703 79.9158C21.3825 77.9453 17.1513 75.2084 13.5767 71.7053C10.0021 68.2021 7.19346 64.0785 5.15084 59.3347C3.18115 54.591 2.19629 49.409 2.19629 43.7895C2.19629 38.1699 3.18115 32.988 5.15084 28.2442C7.19346 23.5004 10.0021 19.3769 13.5767 15.8737C17.2243 12.3705 21.492 9.67017 26.3797 7.77264C31.2674 5.80211 36.593 4.81685 42.3562 4.81685C47.9004 4.81685 53.1165 5.76563 58.0043 7.66317C62.8919 9.48774 67.0138 12.2611 70.3696 15.9832L65.2265 21.1284C62.0895 17.9172 58.6242 15.6183 54.8309 14.2316C51.0374 12.7719 46.9522 12.0421 42.5751 12.0421C37.9791 12.0421 33.7115 12.8449 29.7721 14.4505C25.8326 15.9832 22.4039 18.2091 19.4858 21.1284C16.5677 23.9747 14.2698 27.3319 12.5919 31.2C10.987 34.9952 10.1845 39.1916 10.1845 43.7895C10.1845 48.3874 10.987 52.6204 12.5919 56.4884C14.2698 60.2836 16.5677 63.6406 19.4858 66.56C22.4039 69.4063 25.8326 71.6322 29.7721 73.2379C33.7115 74.7705 37.9791 75.5368 42.5751 75.5368C46.9522 75.5368 51.0374 74.8069 54.8309 73.3474C58.6242 71.8878 62.0895 69.5522 65.2265 66.3411L70.3696 71.4863C67.0138 75.2084 62.8919 78.0183 58.0043 79.9158C53.1165 81.8132 47.864 82.7621 42.2468 82.7621ZM86.4281 103.891C83.7288 103.891 81.1389 103.453 78.6587 102.577C76.2513 101.701 74.1722 100.387 72.4214 98.6358L76.0325 92.8337C77.4914 94.2204 79.0598 95.2785 80.7379 96.0084C82.4887 96.8111 84.4217 97.2126 86.5375 97.2126C89.0907 97.2126 91.2793 96.4827 93.1032 95.0232C94.9998 93.6364 96.787 91.1552 98.4651 87.579L102.186 79.1495L103.061 77.9453L126.697 24.6316H134.357L105.578 89.0021C103.973 92.7242 102.186 95.68 100.216 97.8695C98.319 100.059 96.2399 101.592 93.9786 102.467C91.717 103.416 89.2001 103.891 86.4281 103.891ZM101.748 83.7474L75.2665 24.6316H83.3641L106.782 77.3979L101.748 83.7474ZM174.954 82.6526C169.92 82.6526 165.397 81.5215 161.385 79.2589C157.373 76.9236 154.199 73.5663 151.865 69.1874C149.53 64.8084 148.363 59.5173 148.363 53.3137C148.363 47.0373 149.53 41.7459 151.865 37.44C154.272 33.0611 157.482 29.7404 161.494 27.4779C165.507 25.2154 169.993 24.0842 174.954 24.0842C180.425 24.0842 185.313 25.3249 189.617 27.8063C193.994 30.2147 197.423 33.6084 199.903 37.9874C202.384 42.3663 203.624 47.4752 203.624 53.3137C203.624 59.0794 202.384 64.188 199.903 68.64C197.423 73.019 193.994 76.449 189.617 78.9305C185.313 81.412 180.425 82.6526 174.954 82.6526ZM145.299 82.1053V0.875793H153.068V41.6L151.974 53.2042L152.74 64.8084V82.1053H145.299ZM174.407 75.7558C178.492 75.7558 182.139 74.8436 185.349 73.019C188.559 71.1215 191.113 68.4941 193.009 65.1368C194.906 61.7068 195.854 57.7657 195.854 53.3137C195.854 48.7889 194.906 44.8478 193.009 41.4905C191.113 38.1332 188.559 35.5426 185.349 33.7179C182.139 31.8204 178.492 30.8716 174.407 30.8716C170.321 30.8716 166.637 31.8204 163.354 33.7179C160.145 35.5426 157.591 38.1332 155.694 41.4905C153.871 44.8478 152.959 48.7889 152.959 53.3137C152.959 57.7657 153.871 61.7068 155.694 65.1368C157.591 68.4941 160.145 71.1215 163.354 73.019C166.637 74.8436 170.321 75.7558 174.407 75.7558ZM243.864 82.6526C237.882 82.6526 232.63 81.412 228.106 78.9305C223.583 76.3762 220.045 72.9095 217.492 68.5305C214.939 64.0785 213.662 59.0063 213.662 53.3137C213.662 47.6211 214.866 42.5853 217.273 38.2063C219.753 33.8274 223.109 30.3973 227.34 27.9158C231.645 25.3614 236.459 24.0842 241.785 24.0842C247.183 24.0842 251.961 25.3249 256.12 27.8063C260.351 30.2147 263.67 33.6448 266.078 38.0968C268.485 42.4758 269.689 47.548 269.689 53.3137C269.689 53.6785 269.652 54.08 269.579 54.5179C269.579 54.8827 269.579 55.2842 269.579 55.7221H219.571V49.92H265.421L262.357 52.219C262.357 48.059 261.445 44.3732 259.621 41.1621C257.871 37.8779 255.463 35.3236 252.399 33.499C249.335 31.6743 245.797 30.7621 241.785 30.7621C237.845 30.7621 234.307 31.6743 231.17 33.499C228.034 35.3236 225.59 37.8779 223.839 41.1621C222.088 44.4463 221.212 48.2048 221.212 52.4379V53.6421C221.212 58.0211 222.161 61.889 224.058 65.2463C226.027 68.5305 228.727 71.1215 232.155 73.019C235.657 74.8436 239.633 75.7558 244.083 75.7558C247.584 75.7558 250.831 75.1354 253.822 73.8947C256.886 72.6541 259.512 70.7564 261.701 68.2021L266.078 73.2379C263.524 76.3032 260.315 78.6385 256.448 80.2442C252.655 81.8499 248.46 82.6526 243.864 82.6526ZM285.502 82.1053V24.6316H292.943V40.2863L292.177 37.5495C293.783 33.1705 296.483 29.8499 300.274 27.5874C304.069 25.2519 308.774 24.0842 314.391 24.0842V31.6379C314.101 31.6379 313.808 31.6379 313.515 31.6379C313.225 31.5648 312.932 31.5284 312.64 31.5284C306.586 31.5284 301.845 33.3895 298.414 37.1116C294.986 40.7606 293.271 45.979 293.271 52.7663V82.1053H285.502Z" fill="#002232"/>
<path d="M364.33 82.7621C358.566 82.7621 353.242 81.8133 348.353 79.9158C343.465 77.9453 339.235 75.2084 335.66 71.7053C332.084 68.2021 329.277 64.0785 327.234 59.3347C325.264 54.591 324.279 49.409 324.279 43.7895C324.279 38.1699 325.264 32.988 327.234 28.2442C329.277 23.5004 332.084 19.3769 335.66 15.8737C339.306 12.3705 343.574 9.67018 348.463 7.77264C353.351 5.80211 358.675 4.81685 364.439 4.81685C369.984 4.81685 375.199 5.76563 380.087 7.66317C384.976 9.48774 389.096 12.2611 392.453 15.9832L387.309 21.1284C384.172 17.9172 380.708 15.6183 376.914 14.2316C373.119 12.7719 369.035 12.0421 364.658 12.0421C360.062 12.0421 355.794 12.8449 351.855 14.4505C347.916 15.9832 344.488 18.2091 341.569 21.1284C338.65 23.9747 336.352 27.3319 334.675 31.2C333.069 34.9952 332.267 39.1916 332.267 43.7895C332.267 48.3874 333.069 52.6205 334.675 56.4884C336.352 60.2836 338.65 63.6406 341.569 66.56C344.488 69.4063 347.916 71.6322 351.855 73.2379C355.794 74.7705 360.062 75.5369 364.658 75.5369C369.035 75.5369 373.119 74.8069 376.914 73.3474C380.708 71.8878 384.172 69.5522 387.309 66.3411L392.453 71.4863C389.096 75.2084 384.976 78.0184 380.087 79.9158C375.199 81.8133 369.946 82.7621 364.33 82.7621ZM408.073 82.1053V0.875793H415.843V82.1053H408.073ZM460.877 82.6526C455.335 82.6526 450.337 81.412 445.886 78.9305C441.509 76.3762 438.045 72.9095 435.49 68.5305C432.938 64.0785 431.66 59.0063 431.66 53.3137C431.66 47.548 432.938 42.4758 435.49 38.0969C438.045 33.7179 441.509 30.2878 445.886 27.8063C450.263 25.3249 455.261 24.0842 460.877 24.0842C466.568 24.0842 471.601 25.3249 475.978 27.8063C480.429 30.2878 483.895 33.7179 486.374 38.0969C488.929 42.4758 490.204 47.548 490.204 53.3137C490.204 59.0063 488.929 64.0785 486.374 68.5305C483.895 72.9095 480.429 76.3762 475.978 78.9305C471.53 81.412 466.496 82.6526 460.877 82.6526ZM460.877 75.7558C465.036 75.7558 468.721 74.8436 471.93 73.019C475.141 71.1215 477.658 68.4941 479.48 65.1369C481.379 61.7068 482.325 57.7657 482.325 53.3137C482.325 48.7889 481.379 44.8478 479.48 41.4905C477.658 38.1333 475.141 35.5426 471.93 33.7179C468.721 31.8205 465.074 30.8716 460.987 30.8716C456.902 30.8716 453.256 31.8205 450.044 33.7179C446.835 35.5426 444.283 38.1333 442.384 41.4905C440.488 44.8478 439.539 48.7889 439.539 53.3137C439.539 57.7657 440.488 61.7068 442.384 65.1369C444.283 68.4941 446.835 71.1215 450.044 73.019C453.256 74.8436 456.867 75.7558 460.877 75.7558ZM529.921 82.6526C524.23 82.6526 519.126 81.412 514.601 78.9305C510.153 76.3762 506.651 72.9095 504.096 68.5305C501.543 64.0785 500.266 59.0063 500.266 53.3137C500.266 47.548 501.543 42.4758 504.096 38.0969C506.651 33.7179 510.153 30.2878 514.601 27.8063C519.126 25.3249 524.23 24.0842 529.921 24.0842C534.809 24.0842 539.222 25.033 543.161 26.9305C547.101 28.828 550.203 31.6743 552.463 35.4695L546.663 39.4105C544.693 36.4911 542.25 34.3383 539.331 32.9516C536.415 31.5648 533.242 30.8716 529.811 30.8716C525.727 30.8716 522.042 31.8205 518.759 33.7179C515.476 35.5426 512.888 38.1333 510.99 41.4905C509.094 44.8478 508.145 48.7889 508.145 53.3137C508.145 57.8385 509.094 61.7796 510.99 65.1369C512.888 68.4941 515.476 71.1215 518.759 73.019C522.042 74.8436 525.727 75.7558 529.811 75.7558C533.242 75.7558 536.415 75.0626 539.331 73.6758C542.25 72.289 544.693 70.1726 546.663 67.3263L552.463 71.2674C550.203 74.9895 547.101 77.8358 543.161 79.8063C539.222 81.7038 534.809 82.6526 529.921 82.6526ZM572.999 67.2169L573.218 57.2547L609.001 24.6316H618.521L593.243 48.8253L588.866 52.5474L572.999 67.2169ZM566.871 82.1053V0.875793H574.641V82.1053H566.871ZM611.408 82.1053L587.444 52.219L592.477 46.1979L620.929 82.1053H611.408Z" fill="#036673"/>
</svg>
