<svg width="715" height="97" viewBox="0 0 715 97" fill="none" xmlns="http://www.w3.org/2000/svg">
<path d="M30.8062 95H0.669922V1.90909H31.7608C40.882 1.90909 48.7153 3.77273 55.2608 7.5C61.8062 11.197 66.8214 16.5151 70.3062 23.4545C73.8214 30.3636 75.579 38.6515 75.579 48.3182C75.579 58.0152 73.8062 66.3485 70.2608 73.3182C66.7456 80.2879 61.6547 85.6515 54.9881 89.4091C48.3214 93.1364 40.2608 95 30.8062 95ZM14.7153 82.7273H30.0335C37.1244 82.7273 43.0184 81.3939 47.7153 78.7273C52.4123 76.0303 55.9275 72.1364 58.2608 67.0455C60.5941 61.9242 61.7608 55.6818 61.7608 48.3182C61.7608 41.0152 60.5941 34.8182 58.2608 29.7273C55.9578 24.6364 52.5184 20.7727 47.9426 18.1364C43.3668 15.5 37.685 14.1818 30.8972 14.1818H14.7153V82.7273ZM112.632 96.5455C108.208 96.5455 104.208 95.7273 100.632 94.0909C97.0564 92.4242 94.2231 90.0152 92.1322 86.8636C90.0715 83.7121 89.0412 79.8485 89.0412 75.2727C89.0412 71.3333 89.7988 68.0909 91.314 65.5455C92.8291 63 94.8746 60.9848 97.4503 59.5C100.026 58.0152 102.905 56.8939 106.087 56.1364C109.268 55.3788 112.511 54.803 115.814 54.4091C119.996 53.9242 123.39 53.5303 125.996 53.2273C128.602 52.8939 130.496 52.3636 131.678 51.6364C132.859 50.9091 133.45 49.7273 133.45 48.0909V47.7727C133.45 43.803 132.329 40.7273 130.087 38.5455C127.874 36.3636 124.571 35.2727 120.178 35.2727C115.602 35.2727 111.996 36.2879 109.359 38.3182C106.753 40.3182 104.95 42.5455 103.95 45L91.1776 42.0909C92.6928 37.8485 94.9049 34.4242 97.814 31.8182C100.753 29.1818 104.132 27.2727 107.95 26.0909C111.768 24.8788 115.784 24.2727 119.996 24.2727C122.784 24.2727 125.738 24.6061 128.859 25.2727C132.011 25.9091 134.95 27.0909 137.678 28.8182C140.435 30.5455 142.693 33.0151 144.45 36.2273C146.208 39.4091 147.087 43.5455 147.087 48.6364V95H133.814V85.4545H133.268C132.39 87.2121 131.071 88.9394 129.314 90.6364C127.556 92.3333 125.299 93.7424 122.541 94.8636C119.784 95.9848 116.481 96.5455 112.632 96.5455ZM115.587 85.6364C119.344 85.6364 122.556 84.8939 125.223 83.4091C127.92 81.9242 129.965 79.9848 131.359 77.5909C132.784 75.1667 133.496 72.5758 133.496 69.8182V60.8182C133.011 61.303 132.071 61.7576 130.678 62.1818C129.314 62.5758 127.753 62.9242 125.996 63.2273C124.238 63.5 122.526 63.7576 120.859 64C119.193 64.2121 117.799 64.3939 116.678 64.5455C114.041 64.8788 111.632 65.4394 109.45 66.2273C107.299 67.0152 105.571 68.1515 104.268 69.6364C102.996 71.0909 102.359 73.0303 102.359 75.4545C102.359 78.8182 103.602 81.3636 106.087 83.0909C108.571 84.7879 111.738 85.6364 115.587 85.6364ZM198.14 25.1818V36.0909H160.003V25.1818H198.14ZM170.231 8.45454H183.822V74.5C183.822 77.1364 184.216 79.1212 185.003 80.4545C185.791 81.7576 186.806 82.6515 188.049 83.1364C189.322 83.5909 190.7 83.8182 192.185 83.8182C193.276 83.8182 194.231 83.7424 195.049 83.5909C195.867 83.4394 196.503 83.3182 196.958 83.2273L199.413 94.4545C198.625 94.7576 197.503 95.0606 196.049 95.3636C194.594 95.697 192.776 95.8788 190.594 95.9091C187.019 95.9697 183.685 95.3333 180.594 94C177.503 92.6667 175.003 90.6061 173.094 87.8182C171.185 85.0303 170.231 81.5303 170.231 77.3182V8.45454ZM233.852 96.5455C229.428 96.5455 225.428 95.7273 221.852 94.0909C218.276 92.4242 215.443 90.0152 213.352 86.8636C211.291 83.7121 210.261 79.8485 210.261 75.2727C210.261 71.3333 211.019 68.0909 212.534 65.5455C214.049 63 216.094 60.9848 218.67 59.5C221.246 58.0152 224.125 56.8939 227.307 56.1364C230.488 55.3788 233.731 54.803 237.034 54.4091C241.216 53.9242 244.61 53.5303 247.216 53.2273C249.822 52.8939 251.716 52.3636 252.898 51.6364C254.079 50.9091 254.67 49.7273 254.67 48.0909V47.7727C254.67 43.803 253.549 40.7273 251.307 38.5455C249.094 36.3636 245.791 35.2727 241.398 35.2727C236.822 35.2727 233.216 36.2879 230.579 38.3182C227.973 40.3182 226.17 42.5455 225.17 45L212.398 42.0909C213.913 37.8485 216.125 34.4242 219.034 31.8182C221.973 29.1818 225.352 27.2727 229.17 26.0909C232.988 24.8788 237.004 24.2727 241.216 24.2727C244.004 24.2727 246.958 24.6061 250.079 25.2727C253.231 25.9091 256.17 27.0909 258.898 28.8182C261.655 30.5455 263.913 33.0151 265.67 36.2273C267.428 39.4091 268.307 43.5455 268.307 48.6364V95H255.034V85.4545H254.488C253.61 87.2121 252.291 88.9394 250.534 90.6364C248.776 92.3333 246.519 93.7424 243.761 94.8636C241.004 95.9848 237.701 96.5455 233.852 96.5455ZM236.807 85.6364C240.564 85.6364 243.776 84.8939 246.443 83.4091C249.14 81.9242 251.185 79.9848 252.579 77.5909C254.004 75.1667 254.716 72.5758 254.716 69.8182V60.8182C254.231 61.303 253.291 61.7576 251.898 62.1818C250.534 62.5758 248.973 62.9242 247.216 63.2273C245.458 63.5 243.746 63.7576 242.079 64C240.413 64.2121 239.019 64.3939 237.898 64.5455C235.261 64.8788 232.852 65.4394 230.67 66.2273C228.519 67.0152 226.791 68.1515 225.488 69.6364C224.216 71.0909 223.579 73.0303 223.579 75.4545C223.579 78.8182 224.822 81.3636 227.307 83.0909C229.791 84.7879 232.958 85.6364 236.807 85.6364Z" fill="#C9552F"/>
<path d="M350.86 31.3182C349.981 28.5606 348.799 26.0909 347.314 23.9091C345.86 21.697 344.117 19.8182 342.087 18.2727C340.057 16.697 337.739 15.5 335.133 14.6818C332.557 13.8636 329.723 13.4545 326.633 13.4545C321.39 13.4545 316.663 14.803 312.451 17.5C308.239 20.197 304.905 24.1515 302.451 29.3636C300.026 34.5455 298.814 40.8939 298.814 48.4091C298.814 55.9545 300.042 62.3333 302.496 67.5455C304.951 72.7576 308.314 76.7121 312.587 79.4091C316.86 82.1061 321.723 83.4545 327.178 83.4545C332.239 83.4545 336.648 82.4242 340.405 80.3636C344.193 78.303 347.117 75.3939 349.178 71.6364C351.269 67.8485 352.314 63.3939 352.314 58.2727L355.951 58.9545H329.314V47.3636H365.905V57.9545C365.905 65.7727 364.239 72.5606 360.905 78.3182C357.602 84.0455 353.026 88.4697 347.178 91.5909C341.36 94.7121 334.693 96.2727 327.178 96.2727C318.754 96.2727 311.36 94.3333 304.996 90.4545C298.663 86.5758 293.723 81.0758 290.178 73.9545C286.633 66.803 284.86 58.3182 284.86 48.5C284.86 41.0758 285.89 34.4091 287.951 28.5C290.011 22.5909 292.905 17.5758 296.633 13.4545C300.39 9.30302 304.799 6.13635 309.86 3.95453C314.951 1.74241 320.511 0.636353 326.542 0.636353C331.572 0.636353 336.254 1.37877 340.587 2.86362C344.951 4.34847 348.829 6.45453 352.223 9.18181C355.648 11.9091 358.481 15.1515 360.723 18.9091C362.966 22.6364 364.481 26.7727 365.269 31.3182H350.86ZM383.004 95V25.1818H396.14V36.2727H396.867C398.14 32.5151 400.383 29.5606 403.595 27.4091C406.837 25.2273 410.504 24.1364 414.595 24.1364C415.443 24.1364 416.443 24.1667 417.595 24.2273C418.777 24.2879 419.701 24.3636 420.367 24.4545V37.4545C419.822 37.303 418.852 37.1364 417.458 36.9545C416.064 36.7424 414.671 36.6364 413.277 36.6364C410.064 36.6364 407.201 37.3182 404.686 38.6818C402.201 40.0151 400.231 41.8788 398.777 44.2727C397.322 46.6364 396.595 49.3333 396.595 52.3636V95H383.004ZM452.182 96.5455C447.758 96.5455 443.758 95.7273 440.182 94.0909C436.606 92.4242 433.773 90.0152 431.682 86.8636C429.621 83.7121 428.591 79.8485 428.591 75.2727C428.591 71.3333 429.349 68.0909 430.864 65.5455C432.379 63 434.424 60.9848 437 59.5C439.576 58.0152 442.455 56.8939 445.637 56.1364C448.818 55.3788 452.061 54.803 455.364 54.4091C459.546 53.9242 462.94 53.5303 465.546 53.2273C468.152 52.8939 470.046 52.3636 471.228 51.6364C472.409 50.9091 473 49.7273 473 48.0909V47.7727C473 43.803 471.879 40.7273 469.637 38.5455C467.424 36.3636 464.121 35.2727 459.728 35.2727C455.152 35.2727 451.546 36.2879 448.909 38.3182C446.303 40.3182 444.5 42.5455 443.5 45L430.728 42.0909C432.243 37.8485 434.455 34.4242 437.364 31.8182C440.303 29.1818 443.682 27.2727 447.5 26.0909C451.318 24.8788 455.334 24.2727 459.546 24.2727C462.334 24.2727 465.288 24.6061 468.409 25.2727C471.561 25.9091 474.5 27.0909 477.228 28.8182C479.985 30.5455 482.243 33.0151 484 36.2273C485.758 39.4091 486.637 43.5455 486.637 48.6364V95H473.364V85.4545H472.818C471.94 87.2121 470.621 88.9394 468.864 90.6364C467.106 92.3333 464.849 93.7424 462.091 94.8636C459.334 95.9848 456.031 96.5455 452.182 96.5455ZM455.137 85.6364C458.894 85.6364 462.106 84.8939 464.773 83.4091C467.47 81.9242 469.515 79.9848 470.909 77.5909C472.334 75.1667 473.046 72.5758 473.046 69.8182V60.8182C472.561 61.303 471.621 61.7576 470.228 62.1818C468.864 62.5758 467.303 62.9242 465.546 63.2273C463.788 63.5 462.076 63.7576 460.409 64C458.743 64.2121 457.349 64.3939 456.228 64.5455C453.591 64.8788 451.182 65.4394 449 66.2273C446.849 67.0152 445.121 68.1515 443.818 69.6364C442.546 71.0909 441.909 73.0303 441.909 75.4545C441.909 78.8182 443.152 81.3636 445.637 83.0909C448.121 84.7879 451.288 85.6364 455.137 85.6364ZM531.235 96.3636C525.599 96.3636 520.569 94.9242 516.144 92.0455C511.75 89.1364 508.296 85 505.781 79.6364C503.296 74.2424 502.053 67.7727 502.053 60.2273C502.053 52.6818 503.311 46.2273 505.826 40.8636C508.372 35.5 511.856 31.3939 516.281 28.5455C520.705 25.697 525.72 24.2727 531.326 24.2727C535.659 24.2727 539.144 25 541.781 26.4545C544.447 27.8788 546.508 29.5455 547.962 31.4545C549.447 33.3636 550.599 35.0455 551.417 36.5H552.235V1.90908H565.826V95H552.553V84.1364H551.417C550.599 85.6212 549.417 87.3182 547.872 89.2273C546.356 91.1364 544.266 92.803 541.599 94.2273C538.932 95.6515 535.478 96.3636 531.235 96.3636ZM534.235 84.7727C538.144 84.7727 541.447 83.7424 544.144 81.6818C546.872 79.5909 548.932 76.697 550.326 73C551.75 69.303 552.462 65 552.462 60.0909C552.462 55.2424 551.766 51 550.372 47.3636C548.978 43.7273 546.932 40.8939 544.235 38.8636C541.538 36.8333 538.205 35.8182 534.235 35.8182C530.144 35.8182 526.735 36.8788 524.008 39C521.281 41.1212 519.22 44.0151 517.826 47.6818C516.462 51.3485 515.781 55.4848 515.781 60.0909C515.781 64.7576 516.478 68.9545 517.872 72.6818C519.266 76.4091 521.326 79.3636 524.053 81.5455C526.811 83.697 530.205 84.7727 534.235 84.7727ZM615.675 96.4091C608.796 96.4091 602.872 94.9394 597.902 92C592.963 89.0303 589.144 84.8636 586.448 79.5C583.781 74.1061 582.448 67.7879 582.448 60.5455C582.448 53.3939 583.781 47.0909 586.448 41.6364C589.144 36.1818 592.902 31.9242 597.72 28.8636C602.569 25.803 608.235 24.2727 614.72 24.2727C618.66 24.2727 622.478 24.9242 626.175 26.2273C629.872 27.5303 633.19 29.5758 636.129 32.3636C639.069 35.1515 641.387 38.7727 643.084 43.2273C644.781 47.6515 645.629 53.0303 645.629 59.3636V64.1818H590.129V54H632.311C632.311 50.4242 631.584 47.2576 630.129 44.5C628.675 41.7121 626.629 39.5151 623.993 37.9091C621.387 36.303 618.326 35.5 614.811 35.5C610.993 35.5 607.66 36.4394 604.811 38.3182C601.993 40.1667 599.811 42.5909 598.266 45.5909C596.751 48.5606 595.993 51.7879 595.993 55.2727V63.2273C595.993 67.8939 596.811 71.8636 598.448 75.1364C600.114 78.4091 602.432 80.9091 605.402 82.6364C608.372 84.3333 611.841 85.1818 615.811 85.1818C618.387 85.1818 620.735 84.8182 622.857 84.0909C624.978 83.3333 626.811 82.2121 628.357 80.7273C629.902 79.2424 631.084 77.4091 631.902 75.2273L644.766 77.5455C643.735 81.3333 641.887 84.6515 639.22 87.5C636.584 90.3182 633.266 92.5152 629.266 94.0909C625.296 95.6364 620.766 96.4091 615.675 96.4091ZM713.387 42.2273L701.069 44.4091C700.554 42.8333 699.736 41.3333 698.614 39.9091C697.523 38.4848 696.039 37.3182 694.16 36.4091C692.281 35.5 689.932 35.0455 687.114 35.0455C683.266 35.0455 680.054 35.9091 677.478 37.6364C674.902 39.3333 673.614 41.5303 673.614 44.2273C673.614 46.5606 674.478 48.4394 676.205 49.8636C677.932 51.2879 680.72 52.4545 684.569 53.3636L695.66 55.9091C702.084 57.3939 706.872 59.6818 710.023 62.7727C713.175 65.8636 714.751 69.8788 714.751 74.8182C714.751 79 713.539 82.7273 711.114 86C708.72 89.2424 705.372 91.7879 701.069 93.6364C696.796 95.4848 691.842 96.4091 686.205 96.4091C678.387 96.4091 672.008 94.7424 667.069 91.4091C662.129 88.0455 659.099 83.2727 657.978 77.0909L671.114 75.0909C671.932 78.5152 673.614 81.1061 676.16 82.8636C678.705 84.5909 682.023 85.4545 686.114 85.4545C690.569 85.4545 694.129 84.5303 696.796 82.6818C699.463 80.803 700.796 78.5152 700.796 75.8182C700.796 73.6364 699.978 71.803 698.342 70.3182C696.736 68.8333 694.266 67.7121 690.932 66.9545L679.114 64.3636C672.599 62.8788 667.781 60.5152 664.66 57.2727C661.569 54.0303 660.023 49.9242 660.023 44.9545C660.023 40.8333 661.175 37.2273 663.478 34.1364C665.781 31.0455 668.963 28.6364 673.023 26.9091C677.084 25.1515 681.736 24.2727 686.978 24.2727C694.523 24.2727 700.463 25.9091 704.796 29.1818C709.129 32.4242 711.993 36.7727 713.387 42.2273Z" fill="#0A1A31"/>
</svg>
