<svg width="617" height="617" viewBox="0 0 617 617" fill="none" xmlns="http://www.w3.org/2000/svg">
<path fill-rule="evenodd" clip-rule="evenodd" d="M216.336 0C153.428 0 102.834 52.7792 102.834 117.436C102.834 156.744 121.549 191.656 150.317 212.968C135.49 224.076 123.473 238.503 115.227 255.093C106.981 271.683 102.736 289.974 102.834 308.5C102.834 347.834 121.549 382.72 150.317 404.032C135.49 415.14 123.473 429.568 115.227 446.158C106.981 462.747 102.736 481.038 102.834 499.564C102.834 564.221 153.428 617 216.336 617C279.219 617 329.838 564.221 329.838 499.564V400.279C349.719 416.855 374.78 425.942 400.665 425.961C463.573 425.936 514.167 373.156 514.167 308.5C514.27 289.973 510.029 271.68 501.782 255.089C493.536 238.498 481.515 224.072 466.684 212.968C481.51 201.86 493.528 187.432 501.774 170.842C510.02 154.253 514.264 135.962 514.167 117.436C514.167 52.7792 463.573 0 400.665 0H216.336V0ZM145.484 117.436C145.484 76.5337 177.414 43.7813 216.336 43.7813H287.162V191.09H216.336C177.414 191.09 145.484 158.312 145.484 117.436V117.436ZM400.665 191.064H329.838V43.7556H400.665C439.613 43.7556 471.517 76.5337 471.517 117.436C471.517 158.312 439.613 191.064 400.665 191.064ZM145.509 308.5C145.509 267.624 177.439 234.846 216.362 234.846H287.188V382.154H216.336C177.388 382.154 145.484 349.376 145.484 308.5H145.509ZM329.838 308.5C329.838 267.624 361.768 234.846 400.69 234.846C439.639 234.846 471.543 267.598 471.543 308.5C471.543 349.376 439.639 382.154 400.69 382.154C361.768 382.154 329.864 349.402 329.864 308.5H329.838ZM145.509 499.564C145.509 458.688 177.439 425.936 216.362 425.936H287.188V499.564C287.188 540.466 255.31 573.219 216.362 573.219C177.439 573.219 145.509 540.466 145.509 499.564Z" fill="#222222"/>
</svg>
