<svg width="483" height="615" viewBox="0 0 483 615" fill="none" xmlns="http://www.w3.org/2000/svg">
<path d="M256.594 197.679V49.4197H49.3979V565.58H433.603V226.507H285.409C277.767 226.507 270.438 223.469 265.034 218.063C259.63 212.657 256.594 205.324 256.594 197.679V197.679ZM241.5 418.694C241.5 421.714 239.03 424.185 236.012 424.185H109.773C106.754 424.185 104.284 421.714 104.284 418.694V385.748C104.284 382.728 106.754 380.257 109.773 380.257H236.012C239.03 380.257 241.5 382.728 241.5 385.748V418.694ZM378.716 292.4V325.346C378.716 328.366 376.246 330.837 373.228 330.837H109.773C106.754 330.837 104.284 328.366 104.284 325.346V292.4C104.284 289.379 106.754 286.909 109.773 286.909H373.228C376.246 286.909 378.716 289.379 378.716 292.4Z" fill="#222222" fill-opacity="0.15"/>
<path d="M476.551 154.162L328.907 6.45201C324.79 2.33371 319.233 0 313.401 0H21.9545C9.81094 0 0 9.81529 0 21.9643V593.036C0 605.185 9.81094 615 21.9545 615H461.045C473.189 615 483 605.185 483 593.036V169.743C483 163.908 480.667 158.28 476.551 154.162ZM303.247 50.6551L432.367 179.833H303.247V50.6551ZM433.602 565.58H49.3977V49.4196H256.594V197.679C256.594 205.324 259.63 212.657 265.034 218.063C270.437 223.469 277.767 226.507 285.409 226.507H433.602V565.58Z" fill="#222222"/>
<path d="M104.284 292.4V325.346C104.284 328.366 106.754 330.837 109.773 330.837H373.227C376.246 330.837 378.716 328.366 378.716 325.346V292.4C378.716 289.38 376.246 286.909 373.227 286.909H109.773C106.754 286.909 104.284 289.38 104.284 292.4ZM236.011 380.257H109.773C106.754 380.257 104.284 382.728 104.284 385.748V418.694C104.284 421.714 106.754 424.185 109.773 424.185H236.011C239.03 424.185 241.5 421.714 241.5 418.694V385.748C241.5 382.728 239.03 380.257 236.011 380.257Z" fill="#222222"/>
</svg>
