<svg width="633" height="617" viewBox="0 0 633 617" fill="none" xmlns="http://www.w3.org/2000/svg">
<g clip-path="url(#clip0_482_12)">
<path fill-rule="evenodd" clip-rule="evenodd" d="M316.5 0C141.634 0 0 141.564 0 316.343C0 456.325 90.5981 574.558 216.407 616.474C232.232 619.242 238.166 609.752 238.166 601.448C238.166 593.934 237.771 569.022 237.771 542.529C158.25 557.159 137.678 523.153 131.348 505.358C127.787 496.263 112.357 468.188 98.9062 460.675C87.8288 454.743 72.0037 440.113 98.5106 439.717C123.435 439.322 141.238 462.652 147.172 472.142C175.657 519.989 221.154 506.545 239.353 498.241C242.122 477.678 250.431 463.838 259.53 455.93C189.109 448.021 115.523 420.736 115.523 299.735C115.523 265.333 127.787 236.862 147.964 214.718C144.799 206.809 133.721 174.384 151.129 130.887C151.129 130.887 177.636 122.583 238.166 163.312C263.486 156.194 290.389 152.636 317.291 152.636C344.194 152.636 371.096 156.194 396.416 163.312C456.947 122.188 483.454 130.887 483.454 130.887C500.861 174.384 489.784 206.809 486.619 214.718C506.796 236.862 519.06 264.937 519.06 299.735C519.06 421.132 445.078 448.021 374.657 455.93C386.13 465.815 396.021 484.796 396.021 514.453C396.021 556.764 395.625 590.771 395.625 601.448C395.625 609.752 401.559 619.637 417.384 616.474C480.214 595.272 534.811 554.91 573.489 501.071C612.168 447.232 632.981 382.625 633 316.343C633 141.564 491.366 0 316.5 0Z" fill="#222222"/>
</g>
<defs>
<clipPath id="clip0_482_12">
<rect width="633" height="617" fill="white"/>
</clipPath>
</defs>
</svg>
