<svg width="156" height="156" viewBox="0 0 156 156" fill="none" xmlns="http://www.w3.org/2000/svg">
<path fill-rule="evenodd" clip-rule="evenodd" d="M78 0C34.905 0 0 34.8702 0 77.9223C0 112.403 22.3275 141.526 53.3325 151.851C57.2325 152.533 58.695 150.195 58.695 148.15C58.695 146.299 58.5975 140.163 58.5975 133.637C39 137.241 33.93 128.864 32.37 124.481C31.4925 122.241 27.69 115.325 24.375 113.474C21.645 112.013 17.745 108.409 24.2775 108.312C30.42 108.215 34.8075 113.961 36.27 116.299C43.29 128.085 54.5025 124.773 58.9875 122.728C59.67 117.663 61.7175 114.254 63.96 112.306C46.605 110.357 28.47 103.637 28.47 73.8314C28.47 65.3574 31.4925 58.3443 36.465 52.8898C35.685 50.9417 32.955 42.9547 37.245 32.2404C37.245 32.2404 43.7775 30.1949 58.695 40.2274C64.935 38.4742 71.565 37.5975 78.195 37.5975C84.825 37.5975 91.455 38.4742 97.695 40.2274C112.612 30.0975 119.145 32.2404 119.145 32.2404C123.435 42.9547 120.705 50.9417 119.925 52.8898C124.898 58.3443 127.92 65.2599 127.92 73.8314C127.92 103.734 109.687 110.357 92.3325 112.306C95.16 114.741 97.5975 119.416 97.5975 126.721C97.5975 137.143 97.5 145.52 97.5 148.15C97.5 150.195 98.9625 152.63 102.863 151.851C118.347 146.629 131.802 136.687 141.334 123.425C150.866 110.163 155.995 94.2489 156 77.9223C156 34.8702 121.095 0 78 0Z" fill="#F8F8F8"/>
</svg>
