<svg width="83" height="83" viewBox="0 0 83 83" fill="none" xmlns="http://www.w3.org/2000/svg">
<path d="M30.8766 63.6247C18.4318 67.1016 38.4485 74.2843 54.295 67.4952C51.6993 66.4862 49.8376 65.3223 49.8376 65.3223C42.7716 66.6581 39.4937 66.7631 33.0794 66.0304C27.7855 65.4241 30.8766 63.6247 30.8766 63.6247ZM52.3976 56.842C43.0316 58.644 37.6217 58.5863 30.7697 57.8795C25.4713 57.3316 28.9398 54.7638 28.9398 54.7638C15.2337 59.3132 36.5699 64.4754 55.7261 58.8723C53.69 58.1551 52.3976 56.842 52.3976 56.842ZM59.7373 17.5629C59.738 17.5629 32.0289 24.4811 45.2622 39.731C49.1684 44.228 44.2377 48.271 44.2377 48.271C44.2377 48.271 54.1517 43.1541 49.5996 36.7437C45.3465 30.7683 42.0862 27.7998 59.7373 17.5629ZM66.2204 70.1797C66.2204 70.1797 68.5087 72.0667 63.6993 73.525C54.555 76.2952 25.6321 77.1303 17.5986 73.6359C14.713 72.3792 20.1269 70.6369 21.8303 70.2692C23.6064 69.8847 24.6205 69.9547 24.6205 69.9547C21.4095 67.6936 3.86209 74.3965 15.7097 76.3191C48.0155 81.5559 74.5989 73.9608 66.2204 70.1797ZM55.1172 50.5107C56.6702 49.4511 58.8152 48.531 58.8152 48.531C58.8152 48.531 52.7044 49.6236 46.6162 50.1352C39.163 50.7603 31.1684 50.8835 27.1553 50.3466C17.6544 49.0763 32.3642 45.5819 32.3642 45.5819C32.3642 45.5819 26.6501 45.1954 19.6263 48.5932C11.3185 52.6103 40.1759 54.4415 55.1172 50.5107ZM58.7543 60.3313C58.6842 60.5193 58.4508 60.7307 58.4508 60.7307C78.7294 55.3999 71.2737 41.9396 61.5776 45.3465C60.7268 45.6474 60.2807 46.3471 60.2807 46.3471C60.2807 46.3471 60.8183 46.1305 62.0172 45.8802C66.9188 44.8589 73.9413 52.4417 58.7543 60.3313ZM41.6174 45.4354C38.6255 38.6728 28.48 32.7565 41.6219 22.3776C58.0086 9.44318 49.6003 1.02905 49.6003 1.02905C52.9916 14.3921 37.636 18.4286 32.0931 26.7506C28.3186 32.4212 33.9457 38.5146 41.6174 45.4354ZM59.3029 78.9907C46.8613 81.3329 31.5147 81.0599 22.4152 79.5574C22.4152 79.5574 24.2788 81.1007 33.8575 81.7174C48.4318 82.6492 70.8185 81.1986 71.3476 74.3018C71.3482 74.3018 70.3295 76.9164 59.3029 78.9907Z" fill="#F8F8F8"/>
</svg>
