<svg width="88" height="40" viewBox="0 0 88 40" fill="none" xmlns="http://www.w3.org/2000/svg">
<g clip-path="url(#clip0_214_20)">
<path d="M0.143555 40V12.0455H0.718718L10.2808 24.2046V40H0.143555ZM0.143555 5.45457V0.227295H8.41153L34.5096 32.2727H37.9605L36.2351 40H32.137H27.32L0.143555 5.45457ZM21.9998 11.7046V0.227295H32.137V23.8637H31.5619L21.9998 11.7046Z" fill="white"/>
<path d="M41.6993 40.0568H38.3921L40.1176 32.2727H40.9803C41.8431 32.2727 43.4727 31.6667 44.4313 31.0227C45.2461 30.4167 45.6775 29.6781 45.7254 28.8068V2.04547L55.7908 10V28.8068C55.7908 33.0872 53.3942 36.2879 48.6012 38.4091C46.2047 39.5076 43.9041 40.0568 41.6993 40.0568Z" fill="white"/>
<path d="M46.0132 0.454529H87.8923V8.29544H77.3955V40.2273H67.2583V8.29544H56.3661L46.0132 0.454529Z" fill="white"/>
</g>
<defs>
<clipPath id="clip0_214_20">
<rect width="88" height="40" fill="white"/>
</clipPath>
</defs>
</svg>
