<svg width="683" height="615" viewBox="0 0 683 615" fill="none" xmlns="http://www.w3.org/2000/svg">
<g clip-path="url(#clip0_488_8)">
<path d="M609.388 189.785H73.6121C64.1524 189.785 55.0802 193.544 48.3912 200.235C41.7022 206.927 37.9443 216.002 37.9443 225.465V571.633C37.9443 581.096 41.7022 590.171 48.3912 596.862C55.0802 603.553 64.1524 607.312 73.6121 607.312H609.388C618.847 607.313 627.92 603.553 634.609 596.862C641.298 590.171 645.055 581.096 645.055 571.633V225.465C645.055 216.002 641.298 206.927 634.609 200.235C627.92 193.544 618.847 189.785 609.388 189.785V189.785ZM458.748 414.301L273.39 497.047C270.503 498.345 267.338 498.9 264.183 498.662C261.028 498.424 257.982 497.4 255.323 495.683C252.664 493.967 250.477 491.612 248.96 488.834C247.443 486.056 246.645 482.942 246.639 479.777V314.284C246.645 311.119 247.443 308.005 248.96 305.227C250.477 302.449 252.664 300.094 255.323 298.378C257.982 296.661 261.028 295.637 264.183 295.399C267.338 295.161 270.503 295.716 273.39 297.014L458.748 379.57C462.115 381.055 464.977 383.487 466.987 386.571C468.996 389.654 470.066 393.255 470.066 396.936C470.066 400.616 468.996 404.217 466.987 407.301C464.977 410.384 462.115 412.816 458.748 414.301V414.301Z" fill="#222222"/>
<path d="M571.823 56.9355C571.823 51.9021 569.824 47.0749 566.266 43.5157C562.708 39.9565 557.882 37.957 552.85 37.957H135.461C130.43 37.957 125.604 39.9565 122.046 43.5157C118.488 47.0749 116.489 51.9021 116.489 56.9355V75.9141H571.823V56.9355Z" fill="#222222"/>
<path d="M609.388 132.85C609.388 127.816 607.389 122.989 603.831 119.43C600.273 115.871 595.448 113.871 590.416 113.871H97.1382C92.1065 113.871 87.2808 115.871 83.7229 119.43C80.1649 122.989 78.166 127.816 78.166 132.85V151.828H609.388V132.85Z" fill="#222222"/>
</g>
<defs>
<clipPath id="clip0_488_8">
<rect width="683" height="615" fill="white"/>
</clipPath>
</defs>
</svg>
