<svg width="77" height="77" viewBox="0 0 77 77" fill="none" xmlns="http://www.w3.org/2000/svg">
<g clip-path="url(#clip0_41_92)">
<g filter="url(#filter0_d_41_92)">
<path d="M50.4254 7.92621C50.5183 7.62412 50.5508 7.30669 50.521 6.99204C50.4912 6.6774 50.3998 6.3717 50.2519 6.09239C50.1039 5.81309 49.9024 5.56566 49.6589 5.36423C49.4154 5.16279 49.1345 5.0113 48.8324 4.9184C48.5303 4.82549 48.2129 4.793 47.8983 4.82278C47.5836 4.85255 47.2779 4.94401 46.9986 5.09193C46.7193 5.23984 46.4719 5.44133 46.2705 5.68487C46.069 5.92841 45.9175 6.20924 45.8246 6.51133L26.5746 69.0738C26.387 69.6839 26.4494 70.3436 26.7482 70.9077C27.0469 71.4717 27.5575 71.894 28.1676 72.0816C28.7777 72.2693 29.4373 72.2068 30.0014 71.9081C30.5655 71.6094 30.9878 71.0988 31.1754 70.4887L50.4254 7.92621ZM23.3599 19.9526C23.584 20.1762 23.7617 20.4417 23.8831 20.734C24.0044 21.0264 24.0668 21.3398 24.0668 21.6563C24.0668 21.9728 24.0044 22.2862 23.8831 22.5785C23.7617 22.8708 23.584 23.1364 23.3599 23.3599L8.21494 38.5L23.3599 53.6401C23.8117 54.092 24.0655 54.7048 24.0655 55.3438C24.0655 55.9828 23.8117 56.5956 23.3599 57.0474C22.908 57.4992 22.2952 57.7531 21.6562 57.7531C21.0173 57.7531 20.4045 57.4992 19.9526 57.0474L3.10887 40.2036C2.88479 39.9801 2.707 39.7146 2.58569 39.4223C2.46439 39.1299 2.40195 38.8165 2.40195 38.5C2.40195 38.1835 2.46439 37.8701 2.58569 37.5778C2.707 37.2854 2.88479 37.0199 3.10887 36.7964L19.9526 19.9526C20.1761 19.7286 20.4417 19.5508 20.734 19.4295C21.0264 19.3082 21.3397 19.2457 21.6562 19.2457C21.9728 19.2457 22.2861 19.3082 22.5785 19.4295C22.8708 19.5508 23.1364 19.7286 23.3599 19.9526ZM53.6401 19.9526C53.416 20.1762 53.2383 20.4417 53.117 20.734C52.9956 21.0264 52.9332 21.3398 52.9332 21.6563C52.9332 21.9728 52.9956 22.2862 53.117 22.5785C53.2383 22.8708 53.416 23.1364 53.6401 23.3599L68.7851 38.5L53.6401 53.6401C53.4164 53.8639 53.2389 54.1295 53.1179 54.4218C52.9968 54.7141 52.9345 55.0274 52.9345 55.3438C52.9345 55.6602 52.9968 55.9735 53.1179 56.2658C53.2389 56.5581 53.4164 56.8237 53.6401 57.0474C53.8638 57.2711 54.1294 57.4486 54.4218 57.5697C54.7141 57.6907 55.0274 57.7531 55.3438 57.7531C55.6601 57.7531 55.9734 57.6907 56.2658 57.5697C56.5581 57.4486 56.8237 57.2711 57.0474 57.0474L73.8911 40.2036C74.1152 39.9801 74.293 39.7146 74.4143 39.4223C74.5356 39.1299 74.5981 38.8165 74.5981 38.5C74.5981 38.1835 74.5356 37.8701 74.4143 37.5778C74.293 37.2854 74.1152 37.0199 73.8911 36.7964L57.0474 19.9526C56.8239 19.7286 56.5583 19.5508 56.266 19.4295C55.9737 19.3082 55.6603 19.2457 55.3438 19.2457C55.0272 19.2457 54.7139 19.3082 54.4215 19.4295C54.1292 19.5508 53.8636 19.7286 53.6401 19.9526Z" fill="#F8F8F8"/>
</g>
</g>
<defs>
<filter id="filter0_d_41_92" x="-1.59805" y="4.81207" width="80.1961" height="75.3759" filterUnits="userSpaceOnUse" color-interpolation-filters="sRGB">
<feFlood flood-opacity="0" result="BackgroundImageFix"/>
<feColorMatrix in="SourceAlpha" type="matrix" values="0 0 0 0 0 0 0 0 0 0 0 0 0 0 0 0 0 0 127 0" result="hardAlpha"/>
<feOffset dy="4"/>
<feGaussianBlur stdDeviation="2"/>
<feComposite in2="hardAlpha" operator="out"/>
<feColorMatrix type="matrix" values="0 0 0 0 0 0 0 0 0 0 0 0 0 0 0 0 0 0 0.25 0"/>
<feBlend mode="normal" in2="BackgroundImageFix" result="effect1_dropShadow_41_92"/>
<feBlend mode="normal" in="SourceGraphic" in2="effect1_dropShadow_41_92" result="shape"/>
</filter>
<clipPath id="clip0_41_92">
<rect width="77" height="77" fill="white"/>
</clipPath>
</defs>
</svg>
