<svg width="367" height="76" viewBox="0 0 367 76" fill="none" xmlns="http://www.w3.org/2000/svg">
<path d="M48.7648 23.168L37.044 72.3535H35.9309L24.7667 25.3949L13.5697 72.3535H12.4566L0.73584 23.168L1.81625 22.9062L13.0132 69.9956L24.2102 23.0372H25.3234L36.4875 69.9956L47.6844 22.9062L48.7648 23.168ZM62.8757 72.3535V23.0372H63.9233V45.9925H98.0709V23.0372H99.1511V72.3535H98.0709V47.0731H63.9233V72.3535H62.8757ZM117.944 72.3535V23.0372H118.992V72.3535H117.944ZM147.147 72.3535V23.5939H131.268V22.5133H164.139V23.5939H148.227V72.3535H147.147ZM195.733 47.0731H177.464V71.7966H207.453V72.8119H176.416V22.5133H207.453V23.5939H177.464V45.9925H195.733V47.0731Z" fill="white"/>
<path d="M283.865 65.8274L276.663 68.402V18.5782L283.865 16.0036V65.8274ZM327.485 24.4236L321.641 31.4866C321.131 29.9556 320.471 28.4943 319.66 27.1027C318.846 25.7108 317.884 24.4932 316.771 23.4494C315.658 22.4056 314.395 21.5706 312.98 20.9444C311.565 20.3179 309.987 20.0049 308.249 20.0049C306.996 20.0049 305.837 20.2368 304.77 20.7007C303.703 21.1414 302.763 21.7677 301.952 22.5795C301.164 23.3681 300.537 24.3075 300.073 25.3978C299.634 26.4879 299.413 27.6592 299.413 28.9118C299.413 30.2108 299.658 31.4287 300.143 32.5652C300.631 33.7017 301.28 34.734 302.091 35.6617C302.904 36.5663 303.83 37.355 304.875 38.0276C305.942 38.7004 307.042 39.2223 308.179 39.5934C309.315 39.9878 310.509 40.4285 311.762 40.9154C313.015 41.4027 314.244 41.971 315.451 42.6204C316.655 43.27 317.803 44.0005 318.892 44.8124C319.983 45.6009 320.945 46.494 321.781 47.4915C322.614 48.4889 323.276 49.6022 323.764 50.8315C324.249 52.0377 324.494 53.3599 324.494 54.798C324.494 56.8855 324.03 58.7644 323.101 60.4345C322.198 62.0813 321.002 63.4731 319.52 64.6098C318.035 65.7463 316.33 66.6161 314.406 67.2192C312.505 67.8222 310.568 68.1238 308.596 68.1238C307.251 68.1238 305.883 67.9267 304.492 67.5324C303.123 67.138 301.801 66.6045 300.526 65.9318C299.273 65.236 298.09 64.4357 296.977 63.531C295.888 62.6264 294.937 61.6522 294.126 60.6084L299.761 54.1369C300.108 55.2504 300.712 56.4332 301.571 57.6858C302.452 58.9385 303.471 60.0982 304.632 61.1651C305.791 62.2322 307.031 63.1253 308.353 63.8442C309.698 64.54 310.997 64.888 312.25 64.888C312.967 64.888 313.71 64.7025 314.476 64.3313C315.241 63.9602 315.936 63.4847 316.563 62.9048C317.211 62.3018 317.745 61.6522 318.162 60.9564C318.58 60.2605 318.789 59.5763 318.789 58.9037C318.789 57.8829 318.58 56.9203 318.162 56.0157C317.745 55.088 317.189 54.2182 316.494 53.4063C315.82 52.5944 315.033 51.8522 314.128 51.1795C313.247 50.4837 312.318 49.8691 311.345 49.3354C310.393 48.7788 309.431 48.3032 308.456 47.9089C307.507 47.4915 306.624 47.1667 305.813 46.9347C304.214 46.4476 302.649 45.7518 301.118 44.8472C299.61 43.9425 298.265 42.8524 297.082 41.5766C295.899 40.3008 294.948 38.8743 294.229 37.297C293.511 35.6964 293.153 33.9917 293.153 32.1824C293.153 30.6284 293.396 29.1555 293.881 27.7637C294.369 26.372 295.042 25.0846 295.899 23.9017C296.758 22.7187 297.766 21.6517 298.925 20.7007C300.086 19.7265 301.337 18.9146 302.684 18.2652C304.028 17.5925 305.43 17.0822 306.893 16.7343C308.353 16.3632 309.825 16.1776 311.31 16.1776C314.556 16.1776 317.572 16.9082 320.355 18.3696C323.136 19.8077 325.513 21.8256 327.485 24.4236ZM366.166 16.2472C365.425 17.3606 364.544 18.4043 363.523 19.3785C362.504 20.3527 361.378 21.211 360.149 21.9533C358.942 22.6955 357.667 23.2869 356.323 23.7276C354.978 24.1452 353.633 24.354 352.287 24.354L351.488 24.4236C350.605 25.5369 349.934 26.6155 349.47 27.6592C349.007 28.7032 348.773 29.9324 348.773 31.3475V53.5804C348.773 56.6653 348.113 59.414 346.792 61.8263C345.493 64.2154 343.569 66.2797 341.017 68.0195L339.869 66.6973C340.263 66.2565 340.576 65.7579 340.808 65.2012C341.041 64.6212 341.214 64.0297 341.33 63.4267C341.446 62.8237 341.516 62.2206 341.54 61.6174C341.586 60.9912 341.608 60.3998 341.608 59.8431V35.3834C341.608 34.2933 341.829 33.2378 342.268 32.2172C342.732 31.1734 343.313 30.1876 344.008 29.2598C344.704 28.332 345.469 27.4621 346.304 26.6502C347.162 25.8385 347.986 25.0962 348.773 24.4236L337.261 24.354C336.378 24.354 335.59 24.4468 334.895 24.6323C334.222 24.7948 333.596 25.0382 333.017 25.363C332.436 25.6878 331.88 26.0936 331.346 26.5807C330.813 27.0678 330.269 27.6362 329.711 28.2856L328.703 27.2071C329.468 26.1633 330.326 25.0614 331.277 23.9017C332.252 22.7419 333.295 21.6865 334.408 20.7355C335.544 19.7845 336.749 18.996 338.026 18.3696C339.323 17.7433 340.681 17.4302 342.095 17.4302H357.123C357.726 17.4302 358.398 17.3954 359.139 17.3258C359.906 17.2562 360.672 17.1402 361.437 16.9778C362.202 16.8155 362.921 16.6067 363.593 16.3516C364.288 16.0732 364.868 15.7253 365.331 15.3078L366.166 16.2472Z" fill="white"/>
<path d="M267.053 58.4525L257.182 74.4655C254.956 74.0726 252.892 73.7286 250.993 73.434C249.128 73.1392 247.277 72.861 245.445 72.5989C243.644 72.3697 241.793 72.1242 239.895 71.8621C237.996 71.6003 235.951 71.2891 233.756 70.929C232.906 70.7652 232.055 70.6506 231.203 70.585C230.384 70.4868 229.549 70.4376 228.697 70.4376C226.898 70.4376 225.162 70.6833 223.493 71.1746C221.856 71.6658 220.285 72.4354 218.778 73.4832L217.257 71.8621C217.943 71.2727 218.532 70.5687 219.023 69.75C219.514 68.9314 219.924 68.0636 220.252 67.1466C220.612 66.1969 220.873 65.2474 221.037 64.2977C221.201 63.3481 221.284 62.4475 221.284 61.5962V32.6156C221.284 28.0309 222.086 23.7576 223.69 19.7953C225.294 15.8329 227.503 12.3946 230.32 9.48011C233.168 6.53293 236.506 4.22429 240.336 2.55423C244.2 0.851408 248.376 0 252.86 0C254.301 0 255.692 0.163733 257.034 0.491196C258.376 0.818663 259.557 1.34261 260.57 2.06302C261.619 2.78346 262.454 3.71673 263.076 4.86286C263.698 6.00899 264.008 7.41708 264.008 9.08712C264.008 10.5608 263.729 11.9852 263.173 13.3606C262.616 14.7359 261.847 16.0458 260.865 17.2901C259.915 18.5346 258.802 19.6971 257.526 20.7776C256.28 21.8256 254.972 22.7752 253.596 23.6266C252.222 24.4781 250.815 25.1985 249.373 25.7879C247.932 26.3773 246.575 26.8357 245.298 27.1633L244.51 25.2966C245.625 24.6417 246.771 23.8887 247.949 23.0372C249.161 22.1857 250.257 21.2526 251.24 20.2373C252.222 19.1894 253.024 18.0597 253.646 16.8481C254.268 15.6037 254.579 14.2611 254.579 12.8203C254.579 11.6741 254.365 10.6263 253.94 9.6766C253.515 8.6942 252.925 7.85915 252.172 7.17147C251.453 6.48381 250.601 5.94349 249.619 5.55054C248.67 5.15757 247.638 4.96111 246.525 4.96111C244.069 4.96111 241.909 5.48505 240.042 6.53293C238.177 7.58081 236.606 8.95617 235.327 10.6589C234.051 12.3618 233.087 14.2939 232.43 16.4551C231.775 18.6163 231.448 20.8104 231.448 23.0372V54.6703C231.448 55.9146 231.269 57.1262 230.908 58.3051C230.548 59.4513 230.057 60.5646 229.435 61.6454C228.846 62.6932 228.142 63.692 227.323 64.6416C226.504 65.5913 225.638 66.4591 224.72 67.2449C225.769 66.4917 226.782 65.804 227.765 65.1819C228.747 64.5269 229.746 63.9703 230.761 63.5119C231.808 63.0533 232.888 62.7096 234.003 62.4803C235.116 62.2184 236.343 62.0874 237.686 62.0874C239.323 62.0874 240.78 62.1693 242.056 62.3331C243.333 62.4967 244.577 62.6768 245.789 62.8733C247.033 63.0369 248.293 63.2007 249.569 63.3645C250.846 63.5283 252.303 63.6102 253.94 63.6102C255.086 63.6102 256.183 63.4464 257.231 63.1188C258.311 62.7587 259.327 62.2839 260.276 61.6945C261.225 61.1049 262.11 60.4336 262.927 59.6804C263.778 58.8945 264.549 58.0596 265.235 57.1754L267.053 58.4525Z" fill="white"/>
</svg>
