<svg width="428" height="926" viewBox="0 0 428 926" fill="none" xmlns="http://www.w3.org/2000/svg">
<rect width="428" height="926" fill="#EBEBEB"/>
<path d="M60.27 114.24C58.67 114.24 57.14 114 55.68 113.52C54.22 113.02 53.07 112.38 52.23 111.6L53.34 109.26C54.14 109.96 55.16 110.54 56.4 111C57.64 111.46 58.93 111.69 60.27 111.69C61.49 111.69 62.48 111.55 63.24 111.27C64 110.99 64.56 110.61 64.92 110.13C65.28 109.63 65.46 109.07 65.46 108.45C65.46 107.73 65.22 107.15 64.74 106.71C64.28 106.27 63.67 105.92 62.91 105.66C62.17 105.38 61.35 105.14 60.45 104.94C59.55 104.74 58.64 104.51 57.72 104.25C56.82 103.97 55.99 103.62 55.23 103.2C54.49 102.78 53.89 102.22 53.43 101.52C52.97 100.8 52.74 99.88 52.74 98.76C52.74 97.68 53.02 96.69 53.58 95.79C54.16 94.87 55.04 94.14 56.22 93.6C57.42 93.04 58.94 92.76 60.78 92.76C62 92.76 63.21 92.92 64.41 93.24C65.61 93.56 66.65 94.02 67.53 94.62L66.54 97.02C65.64 96.42 64.69 95.99 63.69 95.73C62.69 95.45 61.72 95.31 60.78 95.31C59.6 95.31 58.63 95.46 57.87 95.76C57.11 96.06 56.55 96.46 56.19 96.96C55.85 97.46 55.68 98.02 55.68 98.64C55.68 99.38 55.91 99.97 56.37 100.41C56.85 100.85 57.46 101.2 58.2 101.46C58.96 101.72 59.79 101.96 60.69 102.18C61.59 102.38 62.49 102.61 63.39 102.87C64.31 103.13 65.14 103.47 65.88 103.89C66.64 104.31 67.25 104.87 67.71 105.57C68.17 106.27 68.4 107.17 68.4 108.27C68.4 109.33 68.11 110.32 67.53 111.24C66.95 112.14 66.05 112.87 64.83 113.43C63.63 113.97 62.11 114.24 60.27 114.24ZM77.8228 114.18C76.2228 114.18 74.9828 113.75 74.1028 112.89C73.2228 112.03 72.7828 110.8 72.7828 109.2V94.62H75.6628V109.08C75.6628 109.94 75.8728 110.6 76.2928 111.06C76.7328 111.52 77.3528 111.75 78.1528 111.75C79.0528 111.75 79.8028 111.5 80.4028 111L81.3028 113.07C80.8628 113.45 80.3328 113.73 79.7128 113.91C79.1128 114.09 78.4828 114.18 77.8228 114.18ZM70.0828 100.47V98.1H80.2228V100.47H70.0828ZM91.0673 114.18C89.4673 114.18 88.0473 113.83 86.8073 113.13C85.5673 112.43 84.5873 111.47 83.8673 110.25C83.1473 109.01 82.7873 107.61 82.7873 106.05C82.7873 104.47 83.1473 103.07 83.8673 101.85C84.5873 100.63 85.5673 99.68 86.8073 99C88.0473 98.3 89.4673 97.95 91.0673 97.95C92.6473 97.95 94.0573 98.3 95.2973 99C96.5573 99.68 97.5373 100.63 98.2373 101.85C98.9573 103.05 99.3173 104.45 99.3173 106.05C99.3173 107.63 98.9573 109.03 98.2373 110.25C97.5373 111.47 96.5573 112.43 95.2973 113.13C94.0573 113.83 92.6473 114.18 91.0673 114.18ZM91.0673 111.66C92.0873 111.66 92.9973 111.43 93.7973 110.97C94.6173 110.51 95.2573 109.86 95.7173 109.02C96.1773 108.16 96.4073 107.17 96.4073 106.05C96.4073 104.91 96.1773 103.93 95.7173 103.11C95.2573 102.27 94.6173 101.62 93.7973 101.16C92.9973 100.7 92.0873 100.47 91.0673 100.47C90.0473 100.47 89.1373 100.7 88.3373 101.16C87.5373 101.62 86.8973 102.27 86.4173 103.11C85.9373 103.93 85.6973 104.91 85.6973 106.05C85.6973 107.17 85.9373 108.16 86.4173 109.02C86.8973 109.86 87.5373 110.51 88.3373 110.97C89.1373 111.43 90.0473 111.66 91.0673 111.66ZM111.73 114.18C110.41 114.18 109.2 113.88 108.1 113.28C107.02 112.66 106.15 111.75 105.49 110.55C104.85 109.35 104.53 107.85 104.53 106.05C104.53 104.25 104.84 102.75 105.46 101.55C106.1 100.35 106.96 99.45 108.04 98.85C109.14 98.25 110.37 97.95 111.73 97.95C113.29 97.95 114.67 98.29 115.87 98.97C117.07 99.65 118.02 100.6 118.72 101.82C119.42 103.02 119.77 104.43 119.77 106.05C119.77 107.67 119.42 109.09 118.72 110.31C118.02 111.53 117.07 112.48 115.87 113.16C114.67 113.84 113.29 114.18 111.73 114.18ZM103.3 119.82V98.1H106.06V102.39L105.88 106.08L106.18 109.77V119.82H103.3ZM111.49 111.66C112.51 111.66 113.42 111.43 114.22 110.97C115.04 110.51 115.68 109.86 116.14 109.02C116.62 108.16 116.86 107.17 116.86 106.05C116.86 104.91 116.62 103.93 116.14 103.11C115.68 102.27 115.04 101.62 114.22 101.16C113.42 100.7 112.51 100.47 111.49 100.47C110.49 100.47 109.58 100.7 108.76 101.16C107.96 101.62 107.32 102.27 106.84 103.11C106.38 103.93 106.15 104.91 106.15 106.05C106.15 107.17 106.38 108.16 106.84 109.02C107.32 109.86 107.96 110.51 108.76 110.97C109.58 111.43 110.49 111.66 111.49 111.66ZM126.67 114L120.76 98.1H123.49L128.74 112.5H127.45L132.91 98.1H135.34L140.68 112.5H139.42L144.79 98.1H147.37L141.43 114H138.67L133.66 100.86H134.5L129.43 114H126.67ZM159.664 114V110.64L159.514 110.01V104.28C159.514 103.06 159.154 102.12 158.434 101.46C157.734 100.78 156.674 100.44 155.254 100.44C154.314 100.44 153.394 100.6 152.494 100.92C151.594 101.22 150.834 101.63 150.214 102.15L149.014 99.99C149.834 99.33 150.814 98.83 151.954 98.49C153.114 98.13 154.324 97.95 155.584 97.95C157.764 97.95 159.444 98.48 160.624 99.54C161.804 100.6 162.394 102.22 162.394 104.4V114H159.664ZM154.444 114.18C153.264 114.18 152.224 113.98 151.324 113.58C150.444 113.18 149.764 112.63 149.284 111.93C148.804 111.21 148.564 110.4 148.564 109.5C148.564 108.64 148.764 107.86 149.164 107.16C149.584 106.46 150.254 105.9 151.174 105.48C152.114 105.06 153.374 104.85 154.954 104.85H159.994V106.92H155.074C153.634 106.92 152.664 107.16 152.164 107.64C151.664 108.12 151.414 108.7 151.414 109.38C151.414 110.16 151.724 110.79 152.344 111.27C152.964 111.73 153.824 111.96 154.924 111.96C156.004 111.96 156.944 111.72 157.744 111.24C158.564 110.76 159.154 110.06 159.514 109.14L160.084 111.12C159.704 112.06 159.034 112.81 158.074 113.37C157.114 113.91 155.904 114.18 154.444 114.18ZM173.184 114.18C171.584 114.18 170.344 113.75 169.464 112.89C168.584 112.03 168.144 110.8 168.144 109.2V94.62H171.024V109.08C171.024 109.94 171.234 110.6 171.654 111.06C172.094 111.52 172.714 111.75 173.514 111.75C174.414 111.75 175.164 111.5 175.764 111L176.664 113.07C176.224 113.45 175.694 113.73 175.074 113.91C174.474 114.09 173.844 114.18 173.184 114.18ZM165.444 100.47V98.1H175.584V100.47H165.444ZM186.549 114.18C184.929 114.18 183.479 113.83 182.199 113.13C180.939 112.43 179.949 111.47 179.229 110.25C178.509 109.03 178.149 107.63 178.149 106.05C178.149 104.47 178.509 103.07 179.229 101.85C179.949 100.63 180.939 99.68 182.199 99C183.479 98.3 184.929 97.95 186.549 97.95C187.989 97.95 189.269 98.24 190.389 98.82C191.529 99.38 192.409 100.22 193.029 101.34L190.839 102.75C190.319 101.97 189.679 101.4 188.919 101.04C188.179 100.66 187.379 100.47 186.519 100.47C185.479 100.47 184.549 100.7 183.729 101.16C182.909 101.62 182.259 102.27 181.779 103.11C181.299 103.93 181.059 104.91 181.059 106.05C181.059 107.19 181.299 108.18 181.779 109.02C182.259 109.86 182.909 110.51 183.729 110.97C184.549 111.43 185.479 111.66 186.519 111.66C187.379 111.66 188.179 111.48 188.919 111.12C189.679 110.74 190.319 110.16 190.839 109.38L193.029 110.76C192.409 111.86 191.529 112.71 190.389 113.31C189.269 113.89 187.989 114.18 186.549 114.18ZM205.042 97.95C206.342 97.95 207.482 98.2 208.462 98.7C209.462 99.2 210.242 99.96 210.802 100.98C211.362 102 211.642 103.29 211.642 104.85V114H208.762V105.18C208.762 103.64 208.382 102.48 207.622 101.7C206.882 100.92 205.832 100.53 204.472 100.53C203.452 100.53 202.562 100.73 201.802 101.13C201.042 101.53 200.452 102.12 200.032 102.9C199.632 103.68 199.432 104.65 199.432 105.81V114H196.552V91.74H199.432V102.39L198.862 101.25C199.382 100.21 200.182 99.4 201.262 98.82C202.342 98.24 203.602 97.95 205.042 97.95Z" fill="#002232"/>
<g filter="url(#filter0_dd_10_1235)">
<rect x="136" y="803" width="56.3228" height="56" rx="15.5556" fill="#EBEBEB"/>
</g>
<path d="M164.713 826.176H162.827V833.719L168.798 837.301L169.741 835.755L164.713 832.776V826.176ZM170.793 818.395L176.585 823.228L174.976 825.158L169.181 820.327L170.793 818.395ZM157.375 818.395L158.987 820.326L153.194 825.158L151.585 823.227L157.375 818.395ZM164.084 821.148C157.837 821.148 152.771 826.214 152.771 832.461C152.771 838.709 157.837 843.775 164.084 843.775C170.332 843.775 175.398 838.709 175.398 832.461C175.398 826.214 170.332 821.148 164.084 821.148ZM164.084 841.261C159.232 841.261 155.285 837.314 155.285 832.461C155.285 827.609 159.232 823.662 164.084 823.662C168.937 823.662 172.884 827.609 172.884 832.461C172.884 837.314 168.937 841.261 164.084 841.261Z" fill="#117B7D"/>
<g filter="url(#filter1_ii_10_1235)">
<rect x="234" y="803" width="56.3228" height="56" rx="15.5556" fill="#EBEBEB"/>
</g>
<path d="M276 843C276 843 278 843 278 841C278 839 276 833 268 833C260 833 258 839 258 841C258 843 260 843 260 843H276ZM260.044 841C260.029 840.998 260.015 840.995 260 840.992C260.002 840.464 260.334 838.932 261.52 837.552C262.624 836.258 264.564 835 268 835C271.434 835 273.374 836.26 274.48 837.552C275.666 838.932 275.996 840.466 276 840.992L275.984 840.996C275.975 840.998 275.965 840.999 275.956 841H260.044ZM268 829C269.061 829 270.078 828.579 270.828 827.828C271.579 827.078 272 826.061 272 825C272 823.939 271.579 822.922 270.828 822.172C270.078 821.421 269.061 821 268 821C266.939 821 265.922 821.421 265.172 822.172C264.421 822.922 264 823.939 264 825C264 826.061 264.421 827.078 265.172 827.828C265.922 828.579 266.939 829 268 829ZM274 825C274 825.788 273.845 826.568 273.543 827.296C273.242 828.024 272.8 828.685 272.243 829.243C271.685 829.8 271.024 830.242 270.296 830.543C269.568 830.845 268.788 831 268 831C267.212 831 266.432 830.845 265.704 830.543C264.976 830.242 264.315 829.8 263.757 829.243C263.2 828.685 262.758 828.024 262.457 827.296C262.155 826.568 262 825.788 262 825C262 823.409 262.632 821.883 263.757 820.757C264.883 819.632 266.409 819 268 819C269.591 819 271.117 819.632 272.243 820.757C273.368 821.883 274 823.409 274 825ZM259.872 833.56C259.072 833.308 258.247 833.142 257.412 833.066C256.943 833.021 256.471 832.999 256 833C248 833 246 839 246 841C246 842.334 246.666 843 248 843H256.432C256.136 842.376 255.988 841.691 256 841C256 838.98 256.754 836.916 258.18 835.192C258.666 834.604 259.232 834.054 259.872 833.56ZM255.84 835C254.656 836.779 254.017 838.864 254 841H248C248 840.48 248.328 838.94 249.52 837.552C250.61 836.28 252.504 835.04 255.84 835.002V835ZM249 826C249 824.409 249.632 822.883 250.757 821.757C251.883 820.632 253.409 820 255 820C256.591 820 258.117 820.632 259.243 821.757C260.368 822.883 261 824.409 261 826C261 827.591 260.368 829.117 259.243 830.243C258.117 831.368 256.591 832 255 832C253.409 832 251.883 831.368 250.757 830.243C249.632 829.117 249 827.591 249 826ZM255 822C253.939 822 252.922 822.421 252.172 823.172C251.421 823.922 251 824.939 251 826C251 827.061 251.421 828.078 252.172 828.828C252.922 829.579 253.939 830 255 830C256.061 830 257.078 829.579 257.828 828.828C258.579 828.078 259 827.061 259 826C259 824.939 258.579 823.922 257.828 823.172C257.078 822.421 256.061 822 255 822Z" fill="#117B7D"/>
<g filter="url(#filter2_dd_10_1235)">
<rect x="39" y="803" width="56.3228" height="56" rx="15.5556" fill="#EBEBEB"/>
</g>
<path d="M68.2788 829.551L68.0001 829.826L67.7201 829.551C67.1998 829.038 66.4981 828.75 65.7669 828.75C65.0358 828.75 64.3341 829.038 63.8138 829.551C63.5556 829.8 63.3502 830.098 63.2098 830.427C63.0695 830.757 62.9972 831.112 62.9972 831.47C62.9972 831.828 63.0695 832.183 63.2098 832.513C63.3502 832.842 63.5556 833.14 63.8138 833.389L68.0001 837.5L72.1863 833.389C72.4445 833.14 72.65 832.842 72.7903 832.513C72.9306 832.183 73.0029 831.828 73.0029 831.47C73.0029 831.112 72.9306 830.757 72.7903 830.427C72.65 830.098 72.4445 829.8 72.1863 829.551C71.6658 829.038 70.9639 828.749 70.2326 828.749C69.5012 828.749 68.7993 829.038 68.2788 829.551Z" fill="#117B7D"/>
<path d="M80.1337 829.116L68.8837 817.866C68.7677 817.75 68.63 817.658 68.4783 817.595C68.3267 817.532 68.1641 817.5 68 817.5C67.8358 817.5 67.6733 817.532 67.5216 817.595C67.37 817.658 67.2322 817.75 67.1162 817.866L55.8662 829.116C55.6915 829.291 55.5725 829.514 55.5242 829.756C55.476 829.999 55.5008 830.25 55.5954 830.478C55.69 830.707 55.8501 830.902 56.0557 831.039C56.2612 831.177 56.5028 831.25 56.75 831.25H58V840C58 841.379 59.1212 842.5 60.5 842.5H75.5C76.8787 842.5 78 841.379 78 840V831.25H79.25C79.4972 831.25 79.7388 831.177 79.9443 831.039C80.1498 830.902 80.31 830.707 80.4046 830.478C80.4992 830.25 80.5239 829.999 80.4757 829.756C80.4275 829.514 80.3085 829.291 80.1337 829.116ZM75.5012 840H60.5V828.019L68 820.519L75.5 828.019V833.75L75.5012 840Z" fill="#117B7D"/>
<g filter="url(#filter3_dd_10_1235)">
<rect x="331" y="803" width="56.3228" height="56" rx="15.5556" fill="#EBEBEB"/>
</g>
<path d="M351.542 818.514V826.057H351.555L351.542 826.069L356.571 831.085L351.542 836.113L351.555 836.126H351.542V843.656H366.627V836.126H366.615L366.627 836.113L361.599 831.085L366.627 826.069L366.615 826.057H366.627V818.514H351.542ZM364.113 836.742V841.142H354.057V836.742L359.085 831.714L364.113 836.742ZM359.085 830.456L354.057 825.428V821.028H364.113V825.428L359.085 830.456Z" fill="#117B7D"/>
<g filter="url(#filter4_dd_10_1235)">
<rect x="73" y="483" width="129" height="40" rx="10" fill="#EBEBEB"/>
</g>
<path d="M109.5 503.54C109.28 503.54 109.05 503.54 108.81 503.54C108.59 503.54 108.35 503.53 108.09 503.51V512H104.64V492.2C104.96 492.18 105.32 492.16 105.72 492.14C106.14 492.12 106.56 492.11 106.98 492.11C107.4 492.09 107.79 492.08 108.15 492.08C108.53 492.06 108.83 492.05 109.05 492.05C111.61 492.05 113.56 492.54 114.9 493.52C116.24 494.48 116.91 495.89 116.91 497.75C116.91 498.93 116.62 499.99 116.04 500.93C115.46 501.87 114.49 502.57 113.13 503.03L120.39 512H116.4L109.5 503.54ZM109.35 494.93C109.19 494.93 109 494.93 108.78 494.93C108.56 494.93 108.33 494.94 108.09 494.96V500.66H109.95C111.03 500.66 111.85 500.39 112.41 499.85C112.97 499.31 113.25 498.54 113.25 497.54C113.25 496.64 112.97 495.98 112.41 495.56C111.87 495.14 110.85 494.93 109.35 494.93ZM128.006 497.75C129.766 497.75 131.126 498.2 132.086 499.1C133.046 499.98 133.526 501.23 133.526 502.85C133.526 503.07 133.506 503.31 133.466 503.57C133.446 503.81 133.406 504.05 133.346 504.29C133.306 504.53 133.246 504.75 133.166 504.95C133.106 505.13 133.036 505.28 132.956 505.4H124.226C124.266 506 124.376 506.57 124.556 507.11C124.736 507.63 124.996 508.09 125.336 508.49C125.676 508.87 126.086 509.18 126.566 509.42C127.066 509.64 127.646 509.75 128.306 509.75C129.046 509.75 129.826 509.61 130.646 509.33C131.486 509.05 132.196 508.7 132.776 508.28L133.316 510.74C133.056 510.9 132.736 511.08 132.356 511.28C131.976 511.46 131.546 511.63 131.066 511.79C130.586 511.95 130.066 512.08 129.506 512.18C128.966 512.3 128.396 512.36 127.796 512.36C126.676 512.36 125.686 512.17 124.826 511.79C123.966 511.39 123.246 510.86 122.666 510.2C122.086 509.52 121.646 508.74 121.346 507.86C121.046 506.98 120.896 506.06 120.896 505.1C120.896 504.12 121.046 503.19 121.346 502.31C121.666 501.41 122.126 500.62 122.726 499.94C123.326 499.26 124.066 498.73 124.946 498.35C125.846 497.95 126.866 497.75 128.006 497.75ZM127.916 500.33C127.076 500.33 126.356 500.58 125.756 501.08C125.176 501.56 124.756 502.22 124.496 503.06H130.226C130.246 503 130.256 502.93 130.256 502.85C130.276 502.77 130.286 502.67 130.286 502.55C130.286 501.91 130.066 501.38 129.626 500.96C129.186 500.54 128.616 500.33 127.916 500.33ZM141.083 500.21C140.423 500.21 139.903 500.34 139.523 500.6C139.163 500.84 138.983 501.19 138.983 501.65C138.983 501.95 139.083 502.23 139.283 502.49C139.503 502.73 139.953 502.93 140.633 503.09L142.763 503.57C143.603 503.75 144.273 504.01 144.773 504.35C145.293 504.69 145.693 505.06 145.973 505.46C146.273 505.86 146.473 506.27 146.573 506.69C146.673 507.11 146.723 507.5 146.723 507.86C146.723 508.5 146.593 509.1 146.333 509.66C146.073 510.2 145.703 510.67 145.223 511.07C144.743 511.47 144.163 511.78 143.483 512C142.803 512.24 142.043 512.36 141.203 512.36C140.143 512.36 139.163 512.21 138.263 511.91C137.363 511.59 136.643 511.24 136.103 510.86L136.883 508.01C137.563 508.67 138.323 509.16 139.163 509.48C140.023 509.8 140.813 509.96 141.533 509.96C142.293 509.96 142.873 509.8 143.273 509.48C143.673 509.14 143.873 508.68 143.873 508.1C143.873 507.76 143.773 507.48 143.573 507.26C143.373 507.02 142.973 506.82 142.373 506.66L139.493 505.94C138.813 505.78 138.253 505.55 137.813 505.25C137.393 504.95 137.053 504.62 136.792 504.26C136.553 503.88 136.383 503.49 136.283 503.09C136.203 502.69 136.163 502.31 136.163 501.95C136.163 500.61 136.633 499.58 137.573 498.86C138.513 498.12 139.733 497.75 141.233 497.75C142.013 497.75 142.853 497.86 143.753 498.08C144.653 498.28 145.413 498.58 146.033 498.98L145.163 501.68C144.763 501.36 144.203 501.04 143.483 500.72C142.763 500.38 141.963 500.21 141.083 500.21ZM156.131 497.75C157.891 497.75 159.251 498.2 160.211 499.1C161.171 499.98 161.651 501.23 161.651 502.85C161.651 503.07 161.631 503.31 161.591 503.57C161.571 503.81 161.531 504.05 161.471 504.29C161.431 504.53 161.371 504.75 161.291 504.95C161.231 505.13 161.161 505.28 161.081 505.4H152.351C152.391 506 152.501 506.57 152.681 507.11C152.861 507.63 153.121 508.09 153.461 508.49C153.801 508.87 154.211 509.18 154.691 509.42C155.191 509.64 155.771 509.75 156.431 509.75C157.171 509.75 157.951 509.61 158.771 509.33C159.611 509.05 160.321 508.7 160.901 508.28L161.441 510.74C161.181 510.9 160.861 511.08 160.481 511.28C160.101 511.46 159.671 511.63 159.191 511.79C158.711 511.95 158.191 512.08 157.631 512.18C157.091 512.3 156.521 512.36 155.921 512.36C154.801 512.36 153.811 512.17 152.951 511.79C152.091 511.39 151.371 510.86 150.791 510.2C150.211 509.52 149.771 508.74 149.471 507.86C149.171 506.98 149.021 506.06 149.021 505.1C149.021 504.12 149.171 503.19 149.471 502.31C149.791 501.41 150.251 500.62 150.851 499.94C151.451 499.26 152.191 498.73 153.071 498.35C153.971 497.95 154.991 497.75 156.131 497.75ZM156.041 500.33C155.201 500.33 154.481 500.58 153.881 501.08C153.301 501.56 152.881 502.22 152.621 503.06H158.351C158.371 503 158.381 502.93 158.381 502.85C158.401 502.77 158.411 502.67 158.411 502.55C158.411 501.91 158.191 501.38 157.751 500.96C157.311 500.54 156.741 500.33 156.041 500.33ZM165.638 500.21H163.927V498.41L165.878 498.11L166.418 494.03H168.938V498.2H171.578V500.21H168.938V508.13C168.938 508.73 168.998 509.14 169.118 509.36C169.238 509.56 169.468 509.66 169.808 509.66C170.068 509.66 170.328 509.61 170.588 509.51C170.848 509.41 171.228 509.22 171.728 508.94L172.268 511.31C171.888 511.63 171.348 511.88 170.647 512.06C169.968 512.26 169.288 512.36 168.608 512.36C168.008 512.36 167.508 512.28 167.108 512.12C166.728 511.96 166.428 511.73 166.208 511.43C165.988 511.11 165.838 510.73 165.758 510.29C165.678 509.85 165.638 509.36 165.638 508.82V500.21Z" fill="url(#paint0_linear_10_1235)"/>
<g filter="url(#filter5_dd_10_1235)">
<rect x="227" y="483" width="129" height="40" rx="10" fill="#EBEBEB"/>
</g>
<path d="M265.16 496.97C265.16 497.39 265.25 497.75 265.43 498.05C265.63 498.35 265.9 498.61 266.24 498.83C266.58 499.05 266.98 499.26 267.44 499.46C267.92 499.64 268.45 499.83 269.03 500.03C269.75 500.29 270.46 500.59 271.16 500.93C271.88 501.25 272.52 501.66 273.08 502.16C273.66 502.64 274.13 503.24 274.49 503.96C274.85 504.68 275.03 505.55 275.03 506.57C275.03 507.65 274.83 508.56 274.43 509.3C274.05 510.04 273.53 510.64 272.87 511.1C272.21 511.54 271.45 511.86 270.59 512.06C269.73 512.26 268.84 512.36 267.92 512.36C266.6 512.36 265.36 512.2 264.2 511.88C263.06 511.56 262.08 511.17 261.26 510.71L262.16 507.47C262.92 508.05 263.76 508.53 264.68 508.91C265.62 509.29 266.69 509.48 267.89 509.48C269.17 509.48 270.1 509.26 270.68 508.82C271.26 508.36 271.55 507.75 271.55 506.99C271.55 506.41 271.41 505.92 271.13 505.52C270.85 505.1 270.5 504.75 270.08 504.47C269.66 504.17 269.21 503.93 268.73 503.75C268.27 503.57 267.86 503.42 267.5 503.3C266.86 503.1 266.21 502.86 265.55 502.58C264.89 502.3 264.28 501.94 263.72 501.5C263.16 501.04 262.7 500.47 262.34 499.79C262 499.11 261.83 498.26 261.83 497.24C261.83 496.28 261.99 495.47 262.31 494.81C262.65 494.15 263.1 493.62 263.66 493.22C264.24 492.8 264.91 492.5 265.67 492.32C266.45 492.14 267.29 492.05 268.19 492.05C269.29 492.05 270.35 492.16 271.37 492.38C272.41 492.6 273.28 492.87 273.98 493.19L273.17 496.37C272.81 496.13 272.42 495.92 272 495.74C271.58 495.56 271.14 495.41 270.68 495.29C270.24 495.17 269.79 495.08 269.33 495.02C268.89 494.94 268.47 494.9 268.07 494.9C267.17 494.9 266.46 495.07 265.94 495.41C265.42 495.75 265.16 496.27 265.16 496.97ZM278.579 500.21H276.869V498.41L278.819 498.11L279.359 494.03H281.879V498.2H284.519V500.21H281.879V508.13C281.879 508.73 281.939 509.14 282.059 509.36C282.179 509.56 282.409 509.66 282.749 509.66C283.009 509.66 283.269 509.61 283.529 509.51C283.789 509.41 284.169 509.22 284.669 508.94L285.209 511.31C284.829 511.63 284.289 511.88 283.589 512.06C282.909 512.26 282.229 512.36 281.549 512.36C280.949 512.36 280.449 512.28 280.049 512.12C279.669 511.96 279.369 511.73 279.149 511.43C278.929 511.11 278.779 510.73 278.699 510.29C278.619 509.85 278.579 509.36 278.579 508.82V500.21ZM296.31 512L296.07 510.11H295.95C295.41 510.79 294.67 511.34 293.73 511.76C292.81 512.16 291.87 512.36 290.91 512.36C289.65 512.36 288.66 512 287.94 511.28C287.22 510.54 286.86 509.57 286.86 508.37C286.86 507.55 287.03 506.82 287.37 506.18C287.73 505.52 288.24 504.97 288.9 504.53C289.56 504.07 290.35 503.72 291.27 503.48C292.19 503.24 293.22 503.12 294.36 503.12H295.65V502.67C295.65 501.89 295.4 501.32 294.9 500.96C294.38 500.6 293.57 500.42 292.47 500.42C290.99 500.42 289.67 500.75 288.51 501.41L287.88 498.92C289.22 498.14 290.84 497.75 292.74 497.75C294.74 497.75 296.26 498.16 297.3 498.98C297.78 499.36 298.17 499.85 298.47 500.45C298.79 501.05 298.95 501.77 298.95 502.61V512H296.31ZM292.2 509.69C292.84 509.69 293.48 509.54 294.12 509.24C294.76 508.92 295.27 508.5 295.65 507.98V505.25H295.08C293.44 505.25 292.24 505.46 291.48 505.88C290.74 506.3 290.37 506.97 290.37 507.89C290.37 509.09 290.98 509.69 292.2 509.69ZM310.829 501.2C310.629 501.04 310.319 500.91 309.899 500.81C309.479 500.71 309.119 500.66 308.819 500.66C308.419 500.66 308.089 500.76 307.829 500.96C307.569 501.14 307.339 501.39 307.139 501.71C306.939 502.01 306.769 502.36 306.629 502.76C306.489 503.16 306.359 503.57 306.239 503.99V512H302.939V498.2H305.519L305.669 501.08H305.789C305.989 500.66 306.199 500.25 306.419 499.85C306.639 499.45 306.889 499.1 307.169 498.8C307.449 498.48 307.769 498.23 308.129 498.05C308.509 497.85 308.949 497.75 309.449 497.75C310.249 497.75 310.999 498.01 311.699 498.53L310.829 501.2ZM314.79 500.21H313.08V498.41L315.03 498.11L315.57 494.03H318.09V498.2H320.73V500.21H318.09V508.13C318.09 508.73 318.15 509.14 318.27 509.36C318.39 509.56 318.62 509.66 318.96 509.66C319.22 509.66 319.48 509.61 319.74 509.51C320 509.41 320.38 509.22 320.88 508.94L321.42 511.31C321.04 511.63 320.5 511.88 319.8 512.06C319.12 512.26 318.44 512.36 317.76 512.36C317.16 512.36 316.66 512.28 316.26 512.12C315.88 511.96 315.58 511.73 315.36 511.43C315.14 511.11 314.99 510.73 314.91 510.29C314.83 509.85 314.79 509.36 314.79 508.82V500.21Z" fill="url(#paint1_linear_10_1235)"/>
<g filter="url(#filter6_dd_10_1235)">
<rect x="73" y="568" width="283" height="40" rx="10" fill="#EBEBEB"/>
</g>
<path d="M90.88 596H88.12V584.336L86.176 585.2L85.648 582.8L90.88 580.16V596Z" fill="#024959"/>
<path d="M103.654 591.2H108.604V593H101.584V581.12H103.654V591.2ZM115.229 593L115.085 591.866H115.013C114.689 592.274 114.245 592.604 113.681 592.856C113.129 593.096 112.565 593.216 111.989 593.216C111.233 593.216 110.639 593 110.207 592.568C109.775 592.124 109.559 591.542 109.559 590.822C109.559 590.33 109.661 589.892 109.865 589.508C110.081 589.112 110.387 588.782 110.783 588.518C111.179 588.242 111.653 588.032 112.205 587.888C112.757 587.744 113.375 587.672 114.059 587.672H114.833V587.402C114.833 586.934 114.683 586.592 114.383 586.376C114.071 586.16 113.585 586.052 112.925 586.052C112.037 586.052 111.245 586.25 110.549 586.646L110.171 585.152C110.975 584.684 111.947 584.45 113.087 584.45C114.287 584.45 115.199 584.696 115.823 585.188C116.111 585.416 116.345 585.71 116.525 586.07C116.717 586.43 116.813 586.862 116.813 587.366V593H115.229ZM112.763 591.614C113.147 591.614 113.531 591.524 113.915 591.344C114.299 591.152 114.605 590.9 114.833 590.588V588.95H114.491C113.507 588.95 112.787 589.076 112.331 589.328C111.887 589.58 111.665 589.982 111.665 590.534C111.665 591.254 112.031 591.614 112.763 591.614ZM123.815 584.45C124.463 584.45 125.021 584.576 125.489 584.828C125.957 585.068 126.341 585.392 126.641 585.8C126.953 586.208 127.181 586.682 127.325 587.222C127.469 587.75 127.541 588.302 127.541 588.878C127.541 589.466 127.463 590.024 127.307 590.552C127.163 591.08 126.935 591.542 126.623 591.938C126.311 592.334 125.921 592.646 125.453 592.874C124.985 593.102 124.427 593.216 123.779 593.216C123.239 593.216 122.735 593.138 122.267 592.982C121.811 592.826 121.445 592.574 121.169 592.226V597.68H119.207V584.72H120.791L120.935 585.854H121.007C121.163 585.662 121.349 585.482 121.565 585.314C121.781 585.134 122.015 584.984 122.267 584.864C122.519 584.732 122.777 584.63 123.041 584.558C123.305 584.486 123.563 584.45 123.815 584.45ZM123.491 585.962C123.311 585.962 123.113 585.992 122.897 586.052C122.681 586.1 122.465 586.178 122.249 586.286C122.045 586.382 121.847 586.502 121.655 586.646C121.463 586.79 121.301 586.952 121.169 587.132V590.642C121.529 591.086 121.895 591.368 122.267 591.488C122.651 591.596 122.999 591.65 123.311 591.65C123.707 591.65 124.043 591.578 124.319 591.434C124.607 591.29 124.841 591.098 125.021 590.858C125.213 590.606 125.351 590.318 125.435 589.994C125.531 589.658 125.579 589.298 125.579 588.914C125.579 588.554 125.537 588.2 125.453 587.852C125.381 587.492 125.255 587.174 125.075 586.898C124.907 586.622 124.691 586.4 124.427 586.232C124.163 586.052 123.851 585.962 123.491 585.962Z" fill="#159A9C"/>
<path d="M272.724 581.03C273.492 581.03 274.17 581.198 274.758 581.534C275.358 581.858 275.862 582.296 276.27 582.848C276.678 583.4 276.984 584.042 277.188 584.774C277.404 585.494 277.512 586.256 277.512 587.06C277.512 587.864 277.404 588.638 277.188 589.382C276.972 590.114 276.654 590.768 276.234 591.344C275.826 591.908 275.316 592.364 274.704 592.712C274.092 593.048 273.39 593.216 272.598 593.216C271.818 593.216 271.134 593.054 270.546 592.73C269.97 592.406 269.49 591.968 269.106 591.416C268.722 590.864 268.428 590.228 268.224 589.508C268.032 588.776 267.936 588.008 267.936 587.204C267.936 586.352 268.044 585.554 268.26 584.81C268.476 584.054 268.788 583.4 269.196 582.848C269.604 582.284 270.102 581.84 270.69 581.516C271.29 581.192 271.968 581.03 272.724 581.03ZM272.67 591.488C273.126 591.488 273.516 591.38 273.84 591.164C274.176 590.936 274.452 590.624 274.668 590.228C274.884 589.832 275.046 589.364 275.154 588.824C275.262 588.284 275.316 587.702 275.316 587.078C275.316 586.442 275.262 585.86 275.154 585.332C275.046 584.804 274.878 584.348 274.65 583.964C274.434 583.58 274.158 583.286 273.822 583.082C273.486 582.866 273.096 582.758 272.652 582.758C272.208 582.758 271.824 582.866 271.5 583.082C271.188 583.286 270.93 583.58 270.726 583.964C270.534 584.336 270.39 584.792 270.294 585.332C270.198 585.86 270.15 586.442 270.15 587.078C270.15 588.53 270.366 589.628 270.798 590.372C271.242 591.116 271.866 591.488 272.67 591.488ZM284.15 581.03C284.918 581.03 285.596 581.198 286.184 581.534C286.784 581.858 287.288 582.296 287.696 582.848C288.104 583.4 288.41 584.042 288.614 584.774C288.83 585.494 288.938 586.256 288.938 587.06C288.938 587.864 288.83 588.638 288.614 589.382C288.398 590.114 288.08 590.768 287.66 591.344C287.252 591.908 286.742 592.364 286.13 592.712C285.518 593.048 284.816 593.216 284.024 593.216C283.244 593.216 282.56 593.054 281.972 592.73C281.396 592.406 280.916 591.968 280.532 591.416C280.148 590.864 279.854 590.228 279.65 589.508C279.458 588.776 279.362 588.008 279.362 587.204C279.362 586.352 279.47 585.554 279.686 584.81C279.902 584.054 280.214 583.4 280.622 582.848C281.03 582.284 281.528 581.84 282.116 581.516C282.716 581.192 283.394 581.03 284.15 581.03ZM284.096 591.488C284.552 591.488 284.942 591.38 285.266 591.164C285.602 590.936 285.878 590.624 286.094 590.228C286.31 589.832 286.472 589.364 286.58 588.824C286.688 588.284 286.742 587.702 286.742 587.078C286.742 586.442 286.688 585.86 286.58 585.332C286.472 584.804 286.304 584.348 286.076 583.964C285.86 583.58 285.584 583.286 285.248 583.082C284.912 582.866 284.522 582.758 284.078 582.758C283.634 582.758 283.25 582.866 282.926 583.082C282.614 583.286 282.356 583.58 282.152 583.964C281.96 584.336 281.816 584.792 281.72 585.332C281.624 585.86 281.576 586.442 281.576 587.078C281.576 588.53 281.792 589.628 282.224 590.372C282.668 591.116 283.292 591.488 284.096 591.488ZM291.022 591.938C291.022 591.77 291.052 591.608 291.112 591.452C291.184 591.296 291.28 591.158 291.4 591.038C291.52 590.906 291.652 590.804 291.796 590.732C291.952 590.66 292.12 590.624 292.3 590.624C292.468 590.624 292.63 590.66 292.786 590.732C292.942 590.804 293.08 590.906 293.2 591.038C293.332 591.158 293.434 591.296 293.506 591.452C293.578 591.608 293.614 591.77 293.614 591.938C293.614 592.118 293.578 592.286 293.506 592.442C293.434 592.586 293.332 592.718 293.2 592.838C293.08 592.958 292.942 593.048 292.786 593.108C292.63 593.18 292.468 593.216 292.3 593.216C291.952 593.216 291.652 593.09 291.4 592.838C291.148 592.586 291.022 592.286 291.022 591.938ZM291.022 586.124C291.022 585.956 291.052 585.794 291.112 585.638C291.184 585.482 291.28 585.344 291.4 585.224C291.52 585.092 291.652 584.99 291.796 584.918C291.952 584.846 292.12 584.81 292.3 584.81C292.468 584.81 292.63 584.846 292.786 584.918C292.942 584.99 293.08 585.092 293.2 585.224C293.332 585.344 293.434 585.482 293.506 585.638C293.578 585.794 293.614 585.956 293.614 586.124C293.614 586.304 293.578 586.472 293.506 586.628C293.434 586.772 293.332 586.904 293.2 587.024C293.08 587.144 292.942 587.24 292.786 587.312C292.63 587.372 292.468 587.402 292.3 587.402C291.952 587.402 291.652 587.276 291.4 587.024C291.148 586.772 291.022 586.472 291.022 586.124ZM297.779 587.042C297.983 586.61 298.295 586.292 298.715 586.088C299.147 585.884 299.651 585.782 300.227 585.782C300.911 585.782 301.475 585.908 301.919 586.16C302.363 586.412 302.717 586.724 302.981 587.096C303.245 587.468 303.425 587.87 303.521 588.302C303.629 588.722 303.683 589.112 303.683 589.472C303.683 589.904 303.611 590.342 303.467 590.786C303.335 591.23 303.113 591.632 302.801 591.992C302.501 592.352 302.105 592.646 301.613 592.874C301.121 593.102 300.527 593.216 299.831 593.216C299.087 593.216 298.457 593.084 297.941 592.82C297.437 592.544 297.023 592.16 296.699 591.668C296.387 591.176 296.159 590.588 296.015 589.904C295.871 589.208 295.799 588.44 295.799 587.6C295.799 586.784 295.865 585.986 295.997 585.206C296.141 584.414 296.381 583.712 296.717 583.1C297.065 582.488 297.521 581.996 298.085 581.624C298.661 581.24 299.375 581.048 300.227 581.048C300.443 581.048 300.683 581.066 300.947 581.102C301.211 581.126 301.475 581.174 301.739 581.246C302.015 581.318 302.279 581.414 302.531 581.534C302.783 581.654 302.999 581.804 303.179 581.984L302.729 583.568C302.333 583.268 301.913 583.058 301.469 582.938C301.025 582.818 300.635 582.758 300.299 582.758C299.795 582.758 299.375 582.872 299.039 583.1C298.703 583.316 298.433 583.604 298.229 583.964C298.037 584.324 297.899 584.726 297.815 585.17C297.743 585.614 297.707 586.058 297.707 586.502C297.707 586.598 297.707 586.688 297.707 586.772C297.707 586.844 297.713 586.928 297.725 587.024L297.779 587.042ZM301.559 589.4C301.559 589.148 301.535 588.902 301.487 588.662C301.439 588.422 301.349 588.212 301.217 588.032C301.097 587.84 300.929 587.69 300.713 587.582C300.509 587.474 300.251 587.42 299.939 587.42C299.327 587.42 298.865 587.618 298.553 588.014C298.253 588.41 298.103 588.914 298.103 589.526C298.103 590.15 298.259 590.648 298.571 591.02C298.883 591.392 299.309 591.578 299.849 591.578C300.389 591.578 300.809 591.386 301.109 591.002C301.409 590.618 301.559 590.084 301.559 589.4ZM310.218 581.03C310.986 581.03 311.664 581.198 312.252 581.534C312.852 581.858 313.356 582.296 313.764 582.848C314.172 583.4 314.478 584.042 314.682 584.774C314.898 585.494 315.006 586.256 315.006 587.06C315.006 587.864 314.898 588.638 314.682 589.382C314.466 590.114 314.148 590.768 313.728 591.344C313.32 591.908 312.81 592.364 312.198 592.712C311.586 593.048 310.884 593.216 310.092 593.216C309.312 593.216 308.628 593.054 308.04 592.73C307.464 592.406 306.984 591.968 306.6 591.416C306.216 590.864 305.922 590.228 305.718 589.508C305.526 588.776 305.43 588.008 305.43 587.204C305.43 586.352 305.538 585.554 305.754 584.81C305.97 584.054 306.282 583.4 306.69 582.848C307.098 582.284 307.596 581.84 308.184 581.516C308.784 581.192 309.462 581.03 310.218 581.03ZM310.164 591.488C310.62 591.488 311.01 591.38 311.334 591.164C311.67 590.936 311.946 590.624 312.162 590.228C312.378 589.832 312.54 589.364 312.648 588.824C312.756 588.284 312.81 587.702 312.81 587.078C312.81 586.442 312.756 585.86 312.648 585.332C312.54 584.804 312.372 584.348 312.144 583.964C311.928 583.58 311.652 583.286 311.316 583.082C310.98 582.866 310.59 582.758 310.146 582.758C309.702 582.758 309.318 582.866 308.994 583.082C308.682 583.286 308.424 583.58 308.22 583.964C308.028 584.336 307.884 584.792 307.788 585.332C307.692 585.86 307.644 586.442 307.644 587.078C307.644 588.53 307.86 589.628 308.292 590.372C308.736 591.116 309.36 591.488 310.164 591.488ZM317.09 591.938C317.09 591.77 317.12 591.608 317.18 591.452C317.252 591.296 317.348 591.158 317.468 591.038C317.588 590.906 317.72 590.804 317.864 590.732C318.02 590.66 318.188 590.624 318.368 590.624C318.536 590.624 318.698 590.66 318.854 590.732C319.01 590.804 319.148 590.906 319.268 591.038C319.4 591.158 319.502 591.296 319.574 591.452C319.646 591.608 319.682 591.77 319.682 591.938C319.682 592.118 319.646 592.286 319.574 592.442C319.502 592.586 319.4 592.718 319.268 592.838C319.148 592.958 319.01 593.048 318.854 593.108C318.698 593.18 318.536 593.216 318.368 593.216C318.02 593.216 317.72 593.09 317.468 592.838C317.216 592.586 317.09 592.286 317.09 591.938ZM317.09 586.124C317.09 585.956 317.12 585.794 317.18 585.638C317.252 585.482 317.348 585.344 317.468 585.224C317.588 585.092 317.72 584.99 317.864 584.918C318.02 584.846 318.188 584.81 318.368 584.81C318.536 584.81 318.698 584.846 318.854 584.918C319.01 584.99 319.148 585.092 319.268 585.224C319.4 585.344 319.502 585.482 319.574 585.638C319.646 585.794 319.682 585.956 319.682 586.124C319.682 586.304 319.646 586.472 319.574 586.628C319.502 586.772 319.4 586.904 319.268 587.024C319.148 587.144 319.01 587.24 318.854 587.312C318.698 587.372 318.536 587.402 318.368 587.402C318.02 587.402 317.72 587.276 317.468 587.024C317.216 586.772 317.09 586.472 317.09 586.124ZM326.583 581.03C327.351 581.03 328.029 581.198 328.617 581.534C329.217 581.858 329.721 582.296 330.129 582.848C330.537 583.4 330.843 584.042 331.047 584.774C331.263 585.494 331.371 586.256 331.371 587.06C331.371 587.864 331.263 588.638 331.047 589.382C330.831 590.114 330.513 590.768 330.093 591.344C329.685 591.908 329.175 592.364 328.563 592.712C327.951 593.048 327.249 593.216 326.457 593.216C325.677 593.216 324.993 593.054 324.405 592.73C323.829 592.406 323.349 591.968 322.965 591.416C322.581 590.864 322.287 590.228 322.083 589.508C321.891 588.776 321.795 588.008 321.795 587.204C321.795 586.352 321.903 585.554 322.119 584.81C322.335 584.054 322.647 583.4 323.055 582.848C323.463 582.284 323.961 581.84 324.549 581.516C325.149 581.192 325.827 581.03 326.583 581.03ZM326.529 591.488C326.985 591.488 327.375 591.38 327.699 591.164C328.035 590.936 328.311 590.624 328.527 590.228C328.743 589.832 328.905 589.364 329.013 588.824C329.121 588.284 329.175 587.702 329.175 587.078C329.175 586.442 329.121 585.86 329.013 585.332C328.905 584.804 328.737 584.348 328.509 583.964C328.293 583.58 328.017 583.286 327.681 583.082C327.345 582.866 326.955 582.758 326.511 582.758C326.067 582.758 325.683 582.866 325.359 583.082C325.047 583.286 324.789 583.58 324.585 583.964C324.393 584.336 324.249 584.792 324.153 585.332C324.057 585.86 324.009 586.442 324.009 587.078C324.009 588.53 324.225 589.628 324.657 590.372C325.101 591.116 325.725 591.488 326.529 591.488ZM333.185 581.966C333.413 581.846 333.671 581.732 333.959 581.624C334.259 581.504 334.565 581.402 334.877 581.318C335.201 581.222 335.525 581.15 335.849 581.102C336.173 581.054 336.491 581.03 336.803 581.03C337.307 581.03 337.775 581.102 338.207 581.246C338.639 581.378 339.005 581.576 339.305 581.84C339.617 582.092 339.857 582.404 340.025 582.776C340.205 583.136 340.295 583.538 340.295 583.982C340.295 584.594 340.139 585.206 339.827 585.818C339.527 586.418 339.143 587.024 338.675 587.636C338.219 588.236 337.715 588.836 337.163 589.436C336.611 590.024 336.095 590.612 335.615 591.2H340.421V593H333.131V591.2C333.599 590.564 334.127 589.94 334.715 589.328C335.315 588.704 335.873 588.098 336.389 587.51C336.917 586.922 337.361 586.346 337.721 585.782C338.081 585.218 338.261 584.666 338.261 584.126C338.261 583.61 338.093 583.244 337.757 583.028C337.421 582.812 336.983 582.704 336.443 582.704C335.927 582.704 335.417 582.788 334.913 582.956C334.421 583.112 333.983 583.298 333.599 583.514L333.185 581.966Z" fill="#024959"/>
<path d="M225.549 102.424C225.42 102.295 225.348 102.12 225.348 101.938C225.348 101.756 225.42 101.581 225.549 101.452L231.938 95.0625L232.034 94.9814C232.166 94.8904 232.326 94.8487 232.486 94.8635C232.646 94.8783 232.796 94.9487 232.91 95.0625L232.989 95.1587C233.081 95.2913 233.123 95.4515 233.108 95.6118C233.093 95.772 233.023 95.9221 232.91 96.036L227.696 101.25H242.938C243.12 101.25 243.295 101.322 243.424 101.451C243.553 101.58 243.625 101.755 243.625 101.937C243.625 102.12 243.553 102.295 243.424 102.424C243.295 102.553 243.12 102.625 242.938 102.625H226.035C225.853 102.625 225.678 102.553 225.549 102.424ZM224.375 106.062C224.375 105.88 224.447 105.705 224.576 105.576C224.705 105.447 224.88 105.375 225.062 105.375H241.965C242.101 105.375 242.234 105.415 242.347 105.491C242.46 105.566 242.548 105.673 242.6 105.799C242.652 105.924 242.666 106.063 242.64 106.196C242.613 106.329 242.548 106.452 242.452 106.548L236.062 112.938L235.966 113.019C235.825 113.114 235.653 113.154 235.484 113.13C235.315 113.105 235.161 113.02 235.052 112.888C234.942 112.757 234.886 112.59 234.893 112.42C234.9 112.249 234.97 112.087 235.089 111.965L240.309 106.75H225.062C224.88 106.75 224.705 106.678 224.576 106.549C224.447 106.42 224.375 106.245 224.375 106.062Z" fill="#0D4F5E"/>
<g filter="url(#filter7_dd_10_1235)">
<circle cx="214" cy="308" r="113" fill="#EBEBEB"/>
</g>
<g filter="url(#filter8_ii_10_1235)">
<circle cx="214" cy="308" r="85.2133" stroke="#024959" stroke-width="16.4267"/>
</g>
<path d="M176.448 295.06C177.984 295.06 179.34 295.396 180.516 296.068C181.716 296.716 182.724 297.592 183.54 298.696C184.356 299.8 184.968 301.084 185.376 302.548C185.808 303.988 186.024 305.512 186.024 307.12C186.024 308.728 185.808 310.276 185.376 311.764C184.944 313.228 184.308 314.536 183.468 315.688C182.652 316.816 181.632 317.728 180.408 318.424C179.184 319.096 177.78 319.432 176.196 319.432C174.636 319.432 173.268 319.108 172.092 318.46C170.94 317.812 169.98 316.936 169.212 315.832C168.444 314.728 167.856 313.456 167.448 312.016C167.064 310.552 166.872 309.016 166.872 307.408C166.872 305.704 167.088 304.108 167.52 302.62C167.952 301.108 168.576 299.8 169.392 298.696C170.208 297.568 171.204 296.68 172.38 296.032C173.58 295.384 174.936 295.06 176.448 295.06ZM176.34 315.976C177.252 315.976 178.032 315.76 178.68 315.328C179.352 314.872 179.904 314.248 180.336 313.456C180.768 312.664 181.092 311.728 181.308 310.648C181.524 309.568 181.632 308.404 181.632 307.156C181.632 305.884 181.524 304.72 181.308 303.664C181.092 302.608 180.756 301.696 180.3 300.928C179.868 300.16 179.316 299.572 178.644 299.164C177.972 298.732 177.192 298.516 176.304 298.516C175.416 298.516 174.648 298.732 174 299.164C173.376 299.572 172.86 300.16 172.452 300.928C172.068 301.672 171.78 302.584 171.588 303.664C171.396 304.72 171.3 305.884 171.3 307.156C171.3 310.06 171.732 312.256 172.596 313.744C173.484 315.232 174.732 315.976 176.34 315.976Z" fill="#125362"/>
<path d="M213.34 316.876C213.34 316.54 213.4 316.216 213.52 315.904C213.664 315.592 213.856 315.316 214.096 315.076C214.336 314.812 214.6 314.608 214.888 314.464C215.2 314.32 215.536 314.248 215.896 314.248C216.232 314.248 216.556 314.32 216.868 314.464C217.18 314.608 217.456 314.812 217.696 315.076C217.96 315.316 218.164 315.592 218.308 315.904C218.452 316.216 218.524 316.54 218.524 316.876C218.524 317.236 218.452 317.572 218.308 317.884C218.164 318.172 217.96 318.436 217.696 318.676C217.456 318.916 217.18 319.096 216.868 319.216C216.556 319.36 216.232 319.432 215.896 319.432C215.2 319.432 214.6 319.18 214.096 318.676C213.592 318.172 213.34 317.572 213.34 316.876ZM213.34 305.248C213.34 304.912 213.4 304.588 213.52 304.276C213.664 303.964 213.856 303.688 214.096 303.448C214.336 303.184 214.6 302.98 214.888 302.836C215.2 302.692 215.536 302.62 215.896 302.62C216.232 302.62 216.556 302.692 216.868 302.836C217.18 302.98 217.456 303.184 217.696 303.448C217.96 303.688 218.164 303.964 218.308 304.276C218.452 304.588 218.524 304.912 218.524 305.248C218.524 305.608 218.452 305.944 218.308 306.256C218.164 306.544 217.96 306.808 217.696 307.048C217.456 307.288 217.18 307.48 216.868 307.624C216.556 307.744 216.232 307.804 215.896 307.804C215.2 307.804 214.6 307.552 214.096 307.048C213.592 306.544 213.34 305.944 213.34 305.248Z" fill="#125362"/>
<mask id="mask0_10_1235" style="mask-type:alpha" maskUnits="userSpaceOnUse" x="235" y="288" width="40" height="40">
<rect x="235" y="288" width="40" height="40" fill="#C4C4C4"/>
</mask>
<g mask="url(#mask0_10_1235)">
<path d="M254.522 295.06C256.058 295.06 257.414 295.396 258.59 296.068C259.79 296.716 260.798 297.592 261.614 298.696C262.43 299.8 263.042 301.084 263.45 302.548C263.882 303.988 264.098 305.512 264.098 307.12C264.098 308.728 263.882 310.276 263.45 311.764C263.018 313.228 262.382 314.536 261.542 315.688C260.726 316.816 259.706 317.728 258.482 318.424C257.258 319.096 255.854 319.432 254.27 319.432C252.71 319.432 251.342 319.108 250.166 318.46C249.014 317.812 248.054 316.936 247.286 315.832C246.518 314.728 245.93 313.456 245.522 312.016C245.138 310.552 244.946 309.016 244.946 307.408C244.946 305.704 245.162 304.108 245.594 302.62C246.026 301.108 246.65 299.8 247.466 298.696C248.282 297.568 249.278 296.68 250.454 296.032C251.654 295.384 253.01 295.06 254.522 295.06ZM254.414 315.976C255.326 315.976 256.106 315.76 256.754 315.328C257.426 314.872 257.978 314.248 258.41 313.456C258.842 312.664 259.166 311.728 259.382 310.648C259.598 309.568 259.706 308.404 259.706 307.156C259.706 305.884 259.598 304.72 259.382 303.664C259.166 302.608 258.83 301.696 258.374 300.928C257.942 300.16 257.39 299.572 256.718 299.164C256.046 298.732 255.266 298.516 254.378 298.516C253.49 298.516 252.722 298.732 252.074 299.164C251.45 299.572 250.934 300.16 250.526 300.928C250.142 301.672 249.854 302.584 249.662 303.664C249.47 304.72 249.374 305.884 249.374 307.156C249.374 310.06 249.806 312.256 250.67 313.744C251.558 315.232 252.806 315.976 254.414 315.976Z" fill="#125362"/>
</g>
<mask id="mask1_10_1235" style="mask-type:alpha" maskUnits="userSpaceOnUse" x="212" y="288" width="40" height="40">
<rect x="212" y="288" width="40" height="40" fill="#C4C4C4"/>
</mask>
<g mask="url(#mask1_10_1235)">
<path d="M231.522 295.06C233.058 295.06 234.414 295.396 235.59 296.068C236.79 296.716 237.798 297.592 238.614 298.696C239.43 299.8 240.042 301.084 240.45 302.548C240.882 303.988 241.098 305.512 241.098 307.12C241.098 308.728 240.882 310.276 240.45 311.764C240.018 313.228 239.382 314.536 238.542 315.688C237.726 316.816 236.706 317.728 235.482 318.424C234.258 319.096 232.854 319.432 231.27 319.432C229.71 319.432 228.342 319.108 227.166 318.46C226.014 317.812 225.054 316.936 224.286 315.832C223.518 314.728 222.93 313.456 222.522 312.016C222.138 310.552 221.946 309.016 221.946 307.408C221.946 305.704 222.162 304.108 222.594 302.62C223.026 301.108 223.65 299.8 224.466 298.696C225.282 297.568 226.278 296.68 227.454 296.032C228.654 295.384 230.01 295.06 231.522 295.06ZM231.414 315.976C232.326 315.976 233.106 315.76 233.754 315.328C234.426 314.872 234.978 314.248 235.41 313.456C235.842 312.664 236.166 311.728 236.382 310.648C236.598 309.568 236.706 308.404 236.706 307.156C236.706 305.884 236.598 304.72 236.382 303.664C236.166 302.608 235.83 301.696 235.374 300.928C234.942 300.16 234.39 299.572 233.718 299.164C233.046 298.732 232.266 298.516 231.378 298.516C230.49 298.516 229.722 298.732 229.074 299.164C228.45 299.572 227.934 300.16 227.526 300.928C227.142 301.672 226.854 302.584 226.662 303.664C226.47 304.72 226.374 305.884 226.374 307.156C226.374 310.06 226.806 312.256 227.67 313.744C228.558 315.232 229.806 315.976 231.414 315.976Z" fill="#125362"/>
</g>
<mask id="mask2_10_1235" style="mask-type:alpha" maskUnits="userSpaceOnUse" x="180" y="288" width="40" height="40">
<rect x="180" y="288" width="40" height="40" fill="#C4C4C4"/>
</mask>
<g mask="url(#mask2_10_1235)">
<path d="M199.522 295.06C201.058 295.06 202.414 295.396 203.59 296.068C204.79 296.716 205.798 297.592 206.614 298.696C207.43 299.8 208.042 301.084 208.45 302.548C208.882 303.988 209.098 305.512 209.098 307.12C209.098 308.728 208.882 310.276 208.45 311.764C208.018 313.228 207.382 314.536 206.542 315.688C205.726 316.816 204.706 317.728 203.482 318.424C202.258 319.096 200.854 319.432 199.27 319.432C197.71 319.432 196.342 319.108 195.166 318.46C194.014 317.812 193.054 316.936 192.286 315.832C191.518 314.728 190.93 313.456 190.522 312.016C190.138 310.552 189.946 309.016 189.946 307.408C189.946 305.704 190.162 304.108 190.594 302.62C191.026 301.108 191.65 299.8 192.466 298.696C193.282 297.568 194.278 296.68 195.454 296.032C196.654 295.384 198.01 295.06 199.522 295.06ZM199.414 315.976C200.326 315.976 201.106 315.76 201.754 315.328C202.426 314.872 202.978 314.248 203.41 313.456C203.842 312.664 204.166 311.728 204.382 310.648C204.598 309.568 204.706 308.404 204.706 307.156C204.706 305.884 204.598 304.72 204.382 303.664C204.166 302.608 203.83 301.696 203.374 300.928C202.942 300.16 202.39 299.572 201.718 299.164C201.046 298.732 200.266 298.516 199.378 298.516C198.49 298.516 197.722 298.732 197.074 299.164C196.45 299.572 195.934 300.16 195.526 300.928C195.142 301.672 194.854 302.584 194.662 303.664C194.47 304.72 194.374 305.884 194.374 307.156C194.374 310.06 194.806 312.256 195.67 313.744C196.558 315.232 197.806 315.976 199.414 315.976Z" fill="#125362"/>
</g>
<g filter="url(#filter9_dd_10_1235)">
<circle cx="212" cy="435" r="28" fill="#EBEBEB"/>
</g>
<g clip-path="url(#clip0_10_1235)">
<path d="M201 427V433H207" stroke="#245C6A" stroke-width="4" stroke-linecap="round" stroke-linejoin="round"/>
<path d="M203.51 437.991C204.158 439.831 205.387 441.411 207.012 442.492C208.636 443.573 210.568 444.097 212.516 443.985C214.464 443.873 216.323 443.131 217.812 441.87C219.302 440.61 220.341 438.9 220.774 436.997C221.207 435.094 221.01 433.103 220.213 431.322C219.415 429.541 218.061 428.067 216.353 427.123C214.645 426.179 212.677 425.816 210.745 426.088C208.812 426.36 207.021 427.252 205.64 428.631L201 432.991" stroke="#245C6A" stroke-width="4" stroke-linecap="round" stroke-linejoin="round"/>
</g>
<defs>
<filter id="filter0_dd_10_1235" x="111.111" y="778.111" width="106.101" height="105.778" filterUnits="userSpaceOnUse" color-interpolation-filters="sRGB">
<feFlood flood-opacity="0" result="BackgroundImageFix"/>
<feColorMatrix in="SourceAlpha" type="matrix" values="0 0 0 0 0 0 0 0 0 0 0 0 0 0 0 0 0 0 127 0" result="hardAlpha"/>
<feOffset dx="6.22222" dy="6.22222"/>
<feGaussianBlur stdDeviation="9.33333"/>
<feComposite in2="hardAlpha" operator="out"/>
<feColorMatrix type="matrix" values="0 0 0 0 0 0 0 0 0 0 0 0 0 0 0 0 0 0 0.09 0"/>
<feBlend mode="normal" in2="BackgroundImageFix" result="effect1_dropShadow_10_1235"/>
<feColorMatrix in="SourceAlpha" type="matrix" values="0 0 0 0 0 0 0 0 0 0 0 0 0 0 0 0 0 0 127 0" result="hardAlpha"/>
<feOffset dx="-6.22222" dy="-6.22222"/>
<feGaussianBlur stdDeviation="9.33333"/>
<feComposite in2="hardAlpha" operator="out"/>
<feColorMatrix type="matrix" values="0 0 0 0 1 0 0 0 0 1 0 0 0 0 1 0 0 0 0.68 0"/>
<feBlend mode="normal" in2="effect1_dropShadow_10_1235" result="effect2_dropShadow_10_1235"/>
<feBlend mode="normal" in="SourceGraphic" in2="effect2_dropShadow_10_1235" result="shape"/>
</filter>
<filter id="filter1_ii_10_1235" x="227.778" y="796.778" width="68.7672" height="68.4444" filterUnits="userSpaceOnUse" color-interpolation-filters="sRGB">
<feFlood flood-opacity="0" result="BackgroundImageFix"/>
<feBlend mode="normal" in="SourceGraphic" in2="BackgroundImageFix" result="shape"/>
<feColorMatrix in="SourceAlpha" type="matrix" values="0 0 0 0 0 0 0 0 0 0 0 0 0 0 0 0 0 0 127 0" result="hardAlpha"/>
<feOffset dx="6.22222" dy="6.22222"/>
<feGaussianBlur stdDeviation="9.33333"/>
<feComposite in2="hardAlpha" operator="arithmetic" k2="-1" k3="1"/>
<feColorMatrix type="matrix" values="0 0 0 0 0 0 0 0 0 0 0 0 0 0 0 0 0 0 0.09 0"/>
<feBlend mode="normal" in2="shape" result="effect1_innerShadow_10_1235"/>
<feColorMatrix in="SourceAlpha" type="matrix" values="0 0 0 0 0 0 0 0 0 0 0 0 0 0 0 0 0 0 127 0" result="hardAlpha"/>
<feOffset dx="-6.22222" dy="-6.22222"/>
<feGaussianBlur stdDeviation="9.33333"/>
<feComposite in2="hardAlpha" operator="arithmetic" k2="-1" k3="1"/>
<feColorMatrix type="matrix" values="0 0 0 0 1 0 0 0 0 1 0 0 0 0 1 0 0 0 0.68 0"/>
<feBlend mode="normal" in2="effect1_innerShadow_10_1235" result="effect2_innerShadow_10_1235"/>
</filter>
<filter id="filter2_dd_10_1235" x="14.1111" y="778.111" width="106.101" height="105.778" filterUnits="userSpaceOnUse" color-interpolation-filters="sRGB">
<feFlood flood-opacity="0" result="BackgroundImageFix"/>
<feColorMatrix in="SourceAlpha" type="matrix" values="0 0 0 0 0 0 0 0 0 0 0 0 0 0 0 0 0 0 127 0" result="hardAlpha"/>
<feOffset dx="6.22222" dy="6.22222"/>
<feGaussianBlur stdDeviation="9.33333"/>
<feComposite in2="hardAlpha" operator="out"/>
<feColorMatrix type="matrix" values="0 0 0 0 0 0 0 0 0 0 0 0 0 0 0 0 0 0 0.09 0"/>
<feBlend mode="normal" in2="BackgroundImageFix" result="effect1_dropShadow_10_1235"/>
<feColorMatrix in="SourceAlpha" type="matrix" values="0 0 0 0 0 0 0 0 0 0 0 0 0 0 0 0 0 0 127 0" result="hardAlpha"/>
<feOffset dx="-6.22222" dy="-6.22222"/>
<feGaussianBlur stdDeviation="9.33333"/>
<feComposite in2="hardAlpha" operator="out"/>
<feColorMatrix type="matrix" values="0 0 0 0 1 0 0 0 0 1 0 0 0 0 1 0 0 0 0.68 0"/>
<feBlend mode="normal" in2="effect1_dropShadow_10_1235" result="effect2_dropShadow_10_1235"/>
<feBlend mode="normal" in="SourceGraphic" in2="effect2_dropShadow_10_1235" result="shape"/>
</filter>
<filter id="filter3_dd_10_1235" x="306.111" y="778.111" width="106.101" height="105.778" filterUnits="userSpaceOnUse" color-interpolation-filters="sRGB">
<feFlood flood-opacity="0" result="BackgroundImageFix"/>
<feColorMatrix in="SourceAlpha" type="matrix" values="0 0 0 0 0 0 0 0 0 0 0 0 0 0 0 0 0 0 127 0" result="hardAlpha"/>
<feOffset dx="6.22222" dy="6.22222"/>
<feGaussianBlur stdDeviation="9.33333"/>
<feComposite in2="hardAlpha" operator="out"/>
<feColorMatrix type="matrix" values="0 0 0 0 0 0 0 0 0 0 0 0 0 0 0 0 0 0 0.09 0"/>
<feBlend mode="normal" in2="BackgroundImageFix" result="effect1_dropShadow_10_1235"/>
<feColorMatrix in="SourceAlpha" type="matrix" values="0 0 0 0 0 0 0 0 0 0 0 0 0 0 0 0 0 0 127 0" result="hardAlpha"/>
<feOffset dx="-6.22222" dy="-6.22222"/>
<feGaussianBlur stdDeviation="9.33333"/>
<feComposite in2="hardAlpha" operator="out"/>
<feColorMatrix type="matrix" values="0 0 0 0 1 0 0 0 0 1 0 0 0 0 1 0 0 0 0.68 0"/>
<feBlend mode="normal" in2="effect1_dropShadow_10_1235" result="effect2_dropShadow_10_1235"/>
<feBlend mode="normal" in="SourceGraphic" in2="effect2_dropShadow_10_1235" result="shape"/>
</filter>
<filter id="filter4_dd_10_1235" x="57" y="467" width="161" height="72" filterUnits="userSpaceOnUse" color-interpolation-filters="sRGB">
<feFlood flood-opacity="0" result="BackgroundImageFix"/>
<feColorMatrix in="SourceAlpha" type="matrix" values="0 0 0 0 0 0 0 0 0 0 0 0 0 0 0 0 0 0 127 0" result="hardAlpha"/>
<feOffset dx="4" dy="4"/>
<feGaussianBlur stdDeviation="6"/>
<feComposite in2="hardAlpha" operator="out"/>
<feColorMatrix type="matrix" values="0 0 0 0 0 0 0 0 0 0 0 0 0 0 0 0 0 0 0.11 0"/>
<feBlend mode="normal" in2="BackgroundImageFix" result="effect1_dropShadow_10_1235"/>
<feColorMatrix in="SourceAlpha" type="matrix" values="0 0 0 0 0 0 0 0 0 0 0 0 0 0 0 0 0 0 127 0" result="hardAlpha"/>
<feOffset dx="-4" dy="-4"/>
<feGaussianBlur stdDeviation="6"/>
<feComposite in2="hardAlpha" operator="out"/>
<feColorMatrix type="matrix" values="0 0 0 0 1 0 0 0 0 1 0 0 0 0 1 0 0 0 0.5 0"/>
<feBlend mode="normal" in2="effect1_dropShadow_10_1235" result="effect2_dropShadow_10_1235"/>
<feBlend mode="normal" in="SourceGraphic" in2="effect2_dropShadow_10_1235" result="shape"/>
</filter>
<filter id="filter5_dd_10_1235" x="211" y="467" width="161" height="72" filterUnits="userSpaceOnUse" color-interpolation-filters="sRGB">
<feFlood flood-opacity="0" result="BackgroundImageFix"/>
<feColorMatrix in="SourceAlpha" type="matrix" values="0 0 0 0 0 0 0 0 0 0 0 0 0 0 0 0 0 0 127 0" result="hardAlpha"/>
<feOffset dx="4" dy="4"/>
<feGaussianBlur stdDeviation="6"/>
<feComposite in2="hardAlpha" operator="out"/>
<feColorMatrix type="matrix" values="0 0 0 0 0 0 0 0 0 0 0 0 0 0 0 0 0 0 0.11 0"/>
<feBlend mode="normal" in2="BackgroundImageFix" result="effect1_dropShadow_10_1235"/>
<feColorMatrix in="SourceAlpha" type="matrix" values="0 0 0 0 0 0 0 0 0 0 0 0 0 0 0 0 0 0 127 0" result="hardAlpha"/>
<feOffset dx="-4" dy="-4"/>
<feGaussianBlur stdDeviation="6"/>
<feComposite in2="hardAlpha" operator="out"/>
<feColorMatrix type="matrix" values="0 0 0 0 1 0 0 0 0 1 0 0 0 0 1 0 0 0 0.5 0"/>
<feBlend mode="normal" in2="effect1_dropShadow_10_1235" result="effect2_dropShadow_10_1235"/>
<feBlend mode="normal" in="SourceGraphic" in2="effect2_dropShadow_10_1235" result="shape"/>
</filter>
<filter id="filter6_dd_10_1235" x="57" y="552" width="315" height="72" filterUnits="userSpaceOnUse" color-interpolation-filters="sRGB">
<feFlood flood-opacity="0" result="BackgroundImageFix"/>
<feColorMatrix in="SourceAlpha" type="matrix" values="0 0 0 0 0 0 0 0 0 0 0 0 0 0 0 0 0 0 127 0" result="hardAlpha"/>
<feOffset dx="4" dy="4"/>
<feGaussianBlur stdDeviation="6"/>
<feComposite in2="hardAlpha" operator="out"/>
<feColorMatrix type="matrix" values="0 0 0 0 0 0 0 0 0 0 0 0 0 0 0 0 0 0 0.11 0"/>
<feBlend mode="normal" in2="BackgroundImageFix" result="effect1_dropShadow_10_1235"/>
<feColorMatrix in="SourceAlpha" type="matrix" values="0 0 0 0 0 0 0 0 0 0 0 0 0 0 0 0 0 0 127 0" result="hardAlpha"/>
<feOffset dx="-4" dy="-4"/>
<feGaussianBlur stdDeviation="6"/>
<feComposite in2="hardAlpha" operator="out"/>
<feColorMatrix type="matrix" values="0 0 0 0 1 0 0 0 0 1 0 0 0 0 1 0 0 0 0.5 0"/>
<feBlend mode="normal" in2="effect1_dropShadow_10_1235" result="effect2_dropShadow_10_1235"/>
<feBlend mode="normal" in="SourceGraphic" in2="effect2_dropShadow_10_1235" result="shape"/>
</filter>
<filter id="filter7_dd_10_1235" x="71" y="165" width="286.044" height="286.044" filterUnits="userSpaceOnUse" color-interpolation-filters="sRGB">
<feFlood flood-opacity="0" result="BackgroundImageFix"/>
<feColorMatrix in="SourceAlpha" type="matrix" values="0 0 0 0 0 0 0 0 0 0 0 0 0 0 0 0 0 0 127 0" result="hardAlpha"/>
<feOffset dx="10.0444" dy="10.0444"/>
<feGaussianBlur stdDeviation="10"/>
<feComposite in2="hardAlpha" operator="out"/>
<feColorMatrix type="matrix" values="0 0 0 0 0 0 0 0 0 0 0 0 0 0 0 0 0 0 0.08 0"/>
<feBlend mode="normal" in2="BackgroundImageFix" result="effect1_dropShadow_10_1235"/>
<feColorMatrix in="SourceAlpha" type="matrix" values="0 0 0 0 0 0 0 0 0 0 0 0 0 0 0 0 0 0 127 0" result="hardAlpha"/>
<feOffset dx="-10" dy="-10"/>
<feGaussianBlur stdDeviation="10"/>
<feComposite in2="hardAlpha" operator="out"/>
<feColorMatrix type="matrix" values="0 0 0 0 1 0 0 0 0 1 0 0 0 0 1 0 0 0 0.37 0"/>
<feBlend mode="normal" in2="effect1_dropShadow_10_1235" result="effect2_dropShadow_10_1235"/>
<feBlend mode="normal" in="SourceGraphic" in2="effect2_dropShadow_10_1235" result="shape"/>
</filter>
<filter id="filter8_ii_10_1235" x="113.759" y="207.759" width="200.512" height="200.512" filterUnits="userSpaceOnUse" color-interpolation-filters="sRGB">
<feFlood flood-opacity="0" result="BackgroundImageFix"/>
<feBlend mode="normal" in="SourceGraphic" in2="BackgroundImageFix" result="shape"/>
<feColorMatrix in="SourceAlpha" type="matrix" values="0 0 0 0 0 0 0 0 0 0 0 0 0 0 0 0 0 0 127 0" result="hardAlpha"/>
<feOffset dx="6.84444" dy="6.84444"/>
<feGaussianBlur stdDeviation="6.81416"/>
<feComposite in2="hardAlpha" operator="arithmetic" k2="-1" k3="1"/>
<feColorMatrix type="matrix" values="0 0 0 0 0 0 0 0 0 0 0 0 0 0 0 0 0 0 0.11 0"/>
<feBlend mode="normal" in2="shape" result="effect1_innerShadow_10_1235"/>
<feColorMatrix in="SourceAlpha" type="matrix" values="0 0 0 0 0 0 0 0 0 0 0 0 0 0 0 0 0 0 127 0" result="hardAlpha"/>
<feOffset dx="-6.81416" dy="-6.81416"/>
<feGaussianBlur stdDeviation="6.81416"/>
<feComposite in2="hardAlpha" operator="arithmetic" k2="-1" k3="1"/>
<feColorMatrix type="matrix" values="0 0 0 0 1 0 0 0 0 1 0 0 0 0 1 0 0 0 0.3 0"/>
<feBlend mode="normal" in2="effect1_innerShadow_10_1235" result="effect2_innerShadow_10_1235"/>
</filter>
<filter id="filter9_dd_10_1235" x="154" y="377" width="116.044" height="116.044" filterUnits="userSpaceOnUse" color-interpolation-filters="sRGB">
<feFlood flood-opacity="0" result="BackgroundImageFix"/>
<feColorMatrix in="SourceAlpha" type="matrix" values="0 0 0 0 0 0 0 0 0 0 0 0 0 0 0 0 0 0 127 0" result="hardAlpha"/>
<feOffset dx="10.0444" dy="10.0444"/>
<feGaussianBlur stdDeviation="10"/>
<feComposite in2="hardAlpha" operator="out"/>
<feColorMatrix type="matrix" values="0 0 0 0 0 0 0 0 0 0 0 0 0 0 0 0 0 0 0.08 0"/>
<feBlend mode="normal" in2="BackgroundImageFix" result="effect1_dropShadow_10_1235"/>
<feColorMatrix in="SourceAlpha" type="matrix" values="0 0 0 0 0 0 0 0 0 0 0 0 0 0 0 0 0 0 127 0" result="hardAlpha"/>
<feOffset dx="-10" dy="-10"/>
<feGaussianBlur stdDeviation="10"/>
<feComposite in2="hardAlpha" operator="out"/>
<feColorMatrix type="matrix" values="0 0 0 0 1 0 0 0 0 1 0 0 0 0 1 0 0 0 0.37 0"/>
<feBlend mode="normal" in2="effect1_dropShadow_10_1235" result="effect2_dropShadow_10_1235"/>
<feBlend mode="normal" in="SourceGraphic" in2="effect2_dropShadow_10_1235" result="shape"/>
</filter>
<linearGradient id="paint0_linear_10_1235" x1="42.0291" y1="474" x2="175.698" y2="492.428" gradientUnits="userSpaceOnUse">
<stop stop-color="#012F41"/>
<stop offset="0.258333" stop-color="#024959"/>
<stop offset="0.628125" stop-color="#036673"/>
<stop offset="1" stop-color="#3CA7A7"/>
<stop offset="1" stop-color="#3CA7A7"/>
</linearGradient>
<linearGradient id="paint1_linear_10_1235" x1="241.1" y1="492" x2="540.174" y2="535.194" gradientUnits="userSpaceOnUse">
<stop stop-color="#03733D"/>
<stop offset="0.343908" stop-color="#3CA780"/>
<stop offset="0.628125" stop-color="#3CA774"/>
<stop offset="1" stop-color="#DEEEE4"/>
</linearGradient>
<clipPath id="clip0_10_1235">
<rect width="24" height="24" fill="white" transform="translate(200 423)"/>
</clipPath>
</defs>
</svg>
