<svg width="428" height="926" viewBox="0 0 428 926" fill="none" xmlns="http://www.w3.org/2000/svg">
<rect width="428" height="926" fill="#EBEBEB"/>
<path d="M50.97 114L60.48 93H63.45L72.99 114H69.84L61.35 94.68H62.55L54.06 114H50.97ZM55.02 108.75L55.83 106.35H67.65L68.52 108.75H55.02ZM75.7027 114V91.74H78.5827V114H75.7027ZM93.9516 114V110.64L93.8016 110.01V104.28C93.8016 103.06 93.4416 102.12 92.7216 101.46C92.0216 100.78 90.9616 100.44 89.5416 100.44C88.6016 100.44 87.6816 100.6 86.7816 100.92C85.8816 101.22 85.1216 101.63 84.5016 102.15L83.3016 99.99C84.1216 99.33 85.1016 98.83 86.2416 98.49C87.4016 98.13 88.6116 97.95 89.8716 97.95C92.0516 97.95 93.7316 98.48 94.9116 99.54C96.0916 100.6 96.6816 102.22 96.6816 104.4V114H93.9516ZM88.7316 114.18C87.5516 114.18 86.5116 113.98 85.6116 113.58C84.7316 113.18 84.0516 112.63 83.5716 111.93C83.0916 111.21 82.8516 110.4 82.8516 109.5C82.8516 108.64 83.0516 107.86 83.4516 107.16C83.8716 106.46 84.5416 105.9 85.4616 105.48C86.4016 105.06 87.6616 104.85 89.2416 104.85H94.2816V106.92H89.3616C87.9216 106.92 86.9516 107.16 86.4516 107.64C85.9516 108.12 85.7016 108.7 85.7016 109.38C85.7016 110.16 86.0116 110.79 86.6316 111.27C87.2516 111.73 88.1116 111.96 89.2116 111.96C90.2916 111.96 91.2316 111.72 92.0316 111.24C92.8516 110.76 93.4416 110.06 93.8016 109.14L94.3716 111.12C93.9916 112.06 93.3216 112.81 92.3616 113.37C91.4016 113.91 90.1916 114.18 88.7316 114.18ZM102.011 114V98.1H104.771V102.42L104.501 101.34C104.941 100.24 105.681 99.4 106.721 98.82C107.761 98.24 109.041 97.95 110.561 97.95V100.74C110.441 100.72 110.321 100.71 110.201 100.71C110.101 100.71 110.001 100.71 109.901 100.71C108.361 100.71 107.141 101.17 106.241 102.09C105.341 103.01 104.891 104.34 104.891 106.08V114H102.011ZM134.001 97.95C135.281 97.95 136.411 98.2 137.391 98.7C138.371 99.2 139.131 99.96 139.671 100.98C140.231 102 140.511 103.29 140.511 104.85V114H137.631V105.18C137.631 103.64 137.271 102.48 136.551 101.7C135.831 100.92 134.821 100.53 133.521 100.53C132.561 100.53 131.721 100.73 131.001 101.13C130.281 101.53 129.721 102.12 129.321 102.9C128.941 103.68 128.751 104.65 128.751 105.81V114H125.871V105.18C125.871 103.64 125.511 102.48 124.791 101.7C124.091 100.92 123.081 100.53 121.761 100.53C120.821 100.53 119.991 100.73 119.271 101.13C118.551 101.53 117.991 102.12 117.591 102.9C117.191 103.68 116.991 104.65 116.991 105.81V114H114.111V98.1H116.871V102.33L116.421 101.25C116.921 100.21 117.691 99.4 118.731 98.82C119.771 98.24 120.981 97.95 122.361 97.95C123.881 97.95 125.191 98.33 126.291 99.09C127.391 99.83 128.111 100.96 128.451 102.48L127.281 102C127.761 100.78 128.601 99.8 129.801 99.06C131.001 98.32 132.401 97.95 134.001 97.95Z" fill="#1D3B49"/>
<g filter="url(#filter0_dd_10_1145)">
<circle cx="364.5" cy="102.5" r="22.5" fill="#DEEEE6" fill-opacity="0.8" shape-rendering="crispEdges"/>
</g>
<path d="M364.5 94.5C359.011 94.5 354.375 99.1361 354.375 104.625C354.375 110.114 359.011 114.75 364.5 114.75C369.989 114.75 374.625 110.114 374.625 104.625C374.625 99.1361 369.989 94.5 364.5 94.5ZM364.5 112.5C360.232 112.5 356.625 108.893 356.625 104.625C356.625 100.357 360.232 96.75 364.5 96.75C368.768 96.75 372.375 100.357 372.375 104.625C372.375 108.893 368.768 112.5 364.5 112.5Z" fill="#159A9C"/>
<path d="M365.625 99H363.375V103.5H358.875V105.75H363.375V110.25H365.625V105.75H370.125V103.5H365.625V99ZM373.828 97.5465L370.442 94.1715L372.031 92.5774L375.417 95.9524L373.828 97.5465ZM356.942 92.5808L358.537 94.1693L355.174 97.5443L353.58 95.9546L356.942 92.5808Z" fill="#159A9C"/>
<g filter="url(#filter1_dd_10_1145)">
<rect x="136" y="803" width="56.3228" height="56" rx="15.5556" fill="#EBEBEB"/>
</g>
<path d="M164.713 826.176H162.827V833.719L168.798 837.301L169.741 835.755L164.713 832.776V826.176ZM170.793 818.395L176.585 823.228L174.976 825.158L169.181 820.327L170.793 818.395ZM157.375 818.395L158.987 820.326L153.194 825.158L151.585 823.227L157.375 818.395ZM164.084 821.148C157.837 821.148 152.771 826.214 152.771 832.461C152.771 838.709 157.837 843.775 164.084 843.775C170.332 843.775 175.398 838.709 175.398 832.461C175.398 826.214 170.332 821.148 164.084 821.148ZM164.084 841.261C159.232 841.261 155.285 837.314 155.285 832.461C155.285 827.609 159.232 823.662 164.084 823.662C168.937 823.662 172.884 827.609 172.884 832.461C172.884 837.314 168.937 841.261 164.084 841.261Z" fill="#117B7D"/>
<g filter="url(#filter2_ii_10_1145)">
<rect x="234" y="803" width="56.3228" height="56" rx="15.5556" fill="#EBEBEB"/>
</g>
<path d="M276 843C276 843 278 843 278 841C278 839 276 833 268 833C260 833 258 839 258 841C258 843 260 843 260 843H276ZM260.044 841C260.029 840.998 260.015 840.995 260 840.992C260.002 840.464 260.334 838.932 261.52 837.552C262.624 836.258 264.564 835 268 835C271.434 835 273.374 836.26 274.48 837.552C275.666 838.932 275.996 840.466 276 840.992L275.984 840.996C275.975 840.998 275.965 840.999 275.956 841H260.044ZM268 829C269.061 829 270.078 828.579 270.828 827.828C271.579 827.078 272 826.061 272 825C272 823.939 271.579 822.922 270.828 822.172C270.078 821.421 269.061 821 268 821C266.939 821 265.922 821.421 265.172 822.172C264.421 822.922 264 823.939 264 825C264 826.061 264.421 827.078 265.172 827.828C265.922 828.579 266.939 829 268 829ZM274 825C274 825.788 273.845 826.568 273.543 827.296C273.242 828.024 272.8 828.685 272.243 829.243C271.685 829.8 271.024 830.242 270.296 830.543C269.568 830.845 268.788 831 268 831C267.212 831 266.432 830.845 265.704 830.543C264.976 830.242 264.315 829.8 263.757 829.243C263.2 828.685 262.758 828.024 262.457 827.296C262.155 826.568 262 825.788 262 825C262 823.409 262.632 821.883 263.757 820.757C264.883 819.632 266.409 819 268 819C269.591 819 271.117 819.632 272.243 820.757C273.368 821.883 274 823.409 274 825ZM259.872 833.56C259.072 833.308 258.247 833.142 257.412 833.066C256.943 833.021 256.471 832.999 256 833C248 833 246 839 246 841C246 842.334 246.666 843 248 843H256.432C256.136 842.376 255.988 841.691 256 841C256 838.98 256.754 836.916 258.18 835.192C258.666 834.604 259.232 834.054 259.872 833.56ZM255.84 835C254.656 836.779 254.017 838.864 254 841H248C248 840.48 248.328 838.94 249.52 837.552C250.61 836.28 252.504 835.04 255.84 835.002V835ZM249 826C249 824.409 249.632 822.883 250.757 821.757C251.883 820.632 253.409 820 255 820C256.591 820 258.117 820.632 259.243 821.757C260.368 822.883 261 824.409 261 826C261 827.591 260.368 829.117 259.243 830.243C258.117 831.368 256.591 832 255 832C253.409 832 251.883 831.368 250.757 830.243C249.632 829.117 249 827.591 249 826ZM255 822C253.939 822 252.922 822.421 252.172 823.172C251.421 823.922 251 824.939 251 826C251 827.061 251.421 828.078 252.172 828.828C252.922 829.579 253.939 830 255 830C256.061 830 257.078 829.579 257.828 828.828C258.579 828.078 259 827.061 259 826C259 824.939 258.579 823.922 257.828 823.172C257.078 822.421 256.061 822 255 822Z" fill="#117B7D"/>
<g filter="url(#filter3_dd_10_1145)">
<rect x="39" y="803" width="56.3228" height="56" rx="15.5556" fill="#EBEBEB"/>
</g>
<path d="M68.2788 829.551L68.0001 829.826L67.7201 829.551C67.1998 829.038 66.4981 828.75 65.7669 828.75C65.0358 828.75 64.3341 829.038 63.8138 829.551C63.5556 829.8 63.3502 830.098 63.2098 830.427C63.0695 830.757 62.9972 831.112 62.9972 831.47C62.9972 831.828 63.0695 832.183 63.2098 832.513C63.3502 832.842 63.5556 833.14 63.8138 833.389L68.0001 837.5L72.1863 833.389C72.4445 833.14 72.65 832.842 72.7903 832.513C72.9306 832.183 73.0029 831.828 73.0029 831.47C73.0029 831.112 72.9306 830.757 72.7903 830.427C72.65 830.098 72.4445 829.8 72.1863 829.551C71.6658 829.038 70.9639 828.749 70.2326 828.749C69.5012 828.749 68.7993 829.038 68.2788 829.551Z" fill="#117B7D"/>
<path d="M80.1337 829.116L68.8837 817.866C68.7677 817.75 68.63 817.658 68.4783 817.595C68.3267 817.532 68.1641 817.5 68 817.5C67.8358 817.5 67.6733 817.532 67.5216 817.595C67.37 817.658 67.2322 817.75 67.1162 817.866L55.8662 829.116C55.6915 829.291 55.5725 829.514 55.5242 829.756C55.476 829.999 55.5008 830.25 55.5954 830.478C55.69 830.707 55.8501 830.902 56.0557 831.039C56.2612 831.177 56.5028 831.25 56.75 831.25H58V840C58 841.379 59.1212 842.5 60.5 842.5H75.5C76.8787 842.5 78 841.379 78 840V831.25H79.25C79.4972 831.25 79.7388 831.177 79.9443 831.039C80.1498 830.902 80.31 830.707 80.4046 830.478C80.4992 830.25 80.5239 829.999 80.4757 829.756C80.4275 829.514 80.3085 829.291 80.1337 829.116ZM75.5012 840H60.5V828.019L68 820.519L75.5 828.019V833.75L75.5012 840Z" fill="#117B7D"/>
<g filter="url(#filter4_dd_10_1145)">
<rect x="331" y="803" width="56.3228" height="56" rx="15.5556" fill="#EBEBEB"/>
</g>
<path d="M351.542 818.514V826.057H351.555L351.542 826.069L356.571 831.085L351.542 836.113L351.555 836.126H351.542V843.656H366.627V836.126H366.615L366.627 836.113L361.599 831.085L366.627 826.069L366.615 826.057H366.627V818.514H351.542ZM364.113 836.742V841.142H354.057V836.742L359.085 831.714L364.113 836.742ZM359.085 830.456L354.057 825.428V821.028H364.113V825.428L359.085 830.456Z" fill="#117B7D"/>
<g filter="url(#filter5_dd_10_1145)">
<circle cx="214" cy="316" r="113" fill="#EBEBEB"/>
<circle cx="214" cy="316" r="113" stroke="#EBEBEB" stroke-width="24"/>
</g>
<g filter="url(#filter6_dd_10_1145)">
<circle cx="214" cy="316" r="66" fill="#EBEBEB"/>
<circle cx="214" cy="316" r="66" stroke="#EBEBEB" stroke-width="14.0177"/>
</g>
<line x1="215" y1="191" x2="215" y2="206" stroke="black" stroke-width="2"/>
<line x1="215" y1="221" x2="215" y2="327" stroke="#1E8384" stroke-width="2"/>
<line x1="215" y1="426" x2="215" y2="441" stroke="black" stroke-width="2"/>
<line x1="339" y1="319" x2="324" y2="319" stroke="black" stroke-width="2"/>
<line x1="104" y1="319" x2="89" y2="319" stroke="black" stroke-width="2"/>
<line x1="226" y1="319" x2="153" y2="319" stroke="black" stroke-width="2"/>
<g clip-path="url(#clip0_10_1145)">
<g filter="url(#filter7_dd_10_1145)">
<rect x="72" y="504" width="283" height="40" rx="10" fill="#EBEBEB"/>
</g>
<path d="M85.752 524.752L86.688 516.04H94.824V518.56H88.92L88.56 522.352C88.896 522.256 89.248 522.192 89.616 522.16C89.984 522.112 90.32 522.088 90.624 522.088C91.36 522.088 92.032 522.2 92.64 522.424C93.248 522.632 93.776 522.944 94.224 523.36C94.672 523.776 95.016 524.288 95.256 524.896C95.512 525.488 95.64 526.168 95.64 526.936C95.64 527.672 95.52 528.368 95.28 529.024C95.04 529.664 94.672 530.232 94.176 530.728C93.696 531.208 93.088 531.592 92.352 531.88C91.616 532.152 90.752 532.288 89.76 532.288C88.784 532.288 87.88 532.152 87.048 531.88C86.232 531.592 85.512 531.192 84.888 530.68L85.584 528.4C85.824 528.624 86.096 528.832 86.4 529.024C86.72 529.2 87.056 529.36 87.408 529.504C87.776 529.632 88.144 529.736 88.512 529.816C88.896 529.896 89.272 529.936 89.64 529.936C90.04 529.936 90.424 529.888 90.792 529.792C91.176 529.68 91.504 529.512 91.776 529.288C92.064 529.064 92.288 528.776 92.448 528.424C92.624 528.056 92.712 527.616 92.712 527.104C92.712 526.72 92.664 526.368 92.568 526.048C92.472 525.728 92.312 525.456 92.088 525.232C91.864 525.008 91.56 524.832 91.176 524.704C90.808 524.576 90.336 524.512 89.76 524.512C89.264 524.512 88.72 524.56 88.128 524.656C87.536 524.752 86.976 524.904 86.448 525.112L85.752 524.752ZM98.31 530.584C98.31 530.36 98.35 530.144 98.43 529.936C98.526 529.728 98.654 529.544 98.814 529.384C98.974 529.208 99.15 529.072 99.342 528.976C99.55 528.88 99.774 528.832 100.014 528.832C100.238 528.832 100.454 528.88 100.662 528.976C100.87 529.072 101.054 529.208 101.214 529.384C101.39 529.544 101.526 529.728 101.622 529.936C101.718 530.144 101.766 530.36 101.766 530.584C101.766 530.824 101.718 531.048 101.622 531.256C101.526 531.448 101.39 531.624 101.214 531.784C101.054 531.944 100.87 532.064 100.662 532.144C100.454 532.24 100.238 532.288 100.014 532.288C99.55 532.288 99.15 532.12 98.814 531.784C98.478 531.448 98.31 531.048 98.31 530.584ZM98.31 522.832C98.31 522.608 98.35 522.392 98.43 522.184C98.526 521.976 98.654 521.792 98.814 521.632C98.974 521.456 99.15 521.32 99.342 521.224C99.55 521.128 99.774 521.08 100.014 521.08C100.238 521.08 100.454 521.128 100.662 521.224C100.87 521.32 101.054 521.456 101.214 521.632C101.39 521.792 101.526 521.976 101.622 522.184C101.718 522.392 101.766 522.608 101.766 522.832C101.766 523.072 101.718 523.296 101.622 523.504C101.526 523.696 101.39 523.872 101.214 524.032C101.054 524.192 100.87 524.32 100.662 524.416C100.454 524.496 100.238 524.536 100.014 524.536C99.55 524.536 99.15 524.368 98.814 524.032C98.478 523.696 98.31 523.296 98.31 522.832ZM110.968 516.04C111.992 516.04 112.896 516.264 113.68 516.712C114.48 517.144 115.152 517.728 115.696 518.464C116.24 519.2 116.648 520.056 116.92 521.032C117.208 521.992 117.352 523.008 117.352 524.08C117.352 525.152 117.208 526.184 116.92 527.176C116.632 528.152 116.208 529.024 115.648 529.792C115.104 530.544 114.424 531.152 113.608 531.616C112.792 532.064 111.856 532.288 110.8 532.288C109.76 532.288 108.848 532.072 108.064 531.64C107.296 531.208 106.656 530.624 106.144 529.888C105.632 529.152 105.24 528.304 104.968 527.344C104.712 526.368 104.584 525.344 104.584 524.272C104.584 523.136 104.728 522.072 105.016 521.08C105.304 520.072 105.72 519.2 106.264 518.464C106.808 517.712 107.472 517.12 108.256 516.688C109.056 516.256 109.96 516.04 110.968 516.04ZM110.896 529.984C111.504 529.984 112.024 529.84 112.456 529.552C112.904 529.248 113.272 528.832 113.56 528.304C113.848 527.776 114.064 527.152 114.208 526.432C114.352 525.712 114.424 524.936 114.424 524.104C114.424 523.256 114.352 522.48 114.208 521.776C114.064 521.072 113.84 520.464 113.536 519.952C113.248 519.44 112.88 519.048 112.432 518.776C111.984 518.488 111.464 518.344 110.872 518.344C110.28 518.344 109.768 518.488 109.336 518.776C108.92 519.048 108.576 519.44 108.304 519.952C108.048 520.448 107.856 521.056 107.728 521.776C107.6 522.48 107.536 523.256 107.536 524.104C107.536 526.04 107.824 527.504 108.4 528.496C108.992 529.488 109.824 529.984 110.896 529.984ZM126.202 516.04C127.226 516.04 128.13 516.264 128.914 516.712C129.714 517.144 130.386 517.728 130.93 518.464C131.474 519.2 131.882 520.056 132.154 521.032C132.442 521.992 132.586 523.008 132.586 524.08C132.586 525.152 132.442 526.184 132.154 527.176C131.866 528.152 131.442 529.024 130.882 529.792C130.338 530.544 129.658 531.152 128.842 531.616C128.026 532.064 127.09 532.288 126.034 532.288C124.994 532.288 124.082 532.072 123.298 531.64C122.53 531.208 121.89 530.624 121.378 529.888C120.866 529.152 120.474 528.304 120.202 527.344C119.946 526.368 119.818 525.344 119.818 524.272C119.818 523.136 119.962 522.072 120.25 521.08C120.538 520.072 120.954 519.2 121.498 518.464C122.042 517.712 122.706 517.12 123.49 516.688C124.29 516.256 125.194 516.04 126.202 516.04ZM126.13 529.984C126.738 529.984 127.258 529.84 127.69 529.552C128.138 529.248 128.506 528.832 128.794 528.304C129.082 527.776 129.298 527.152 129.442 526.432C129.586 525.712 129.658 524.936 129.658 524.104C129.658 523.256 129.586 522.48 129.442 521.776C129.298 521.072 129.074 520.464 128.77 519.952C128.482 519.44 128.114 519.048 127.666 518.776C127.218 518.488 126.698 518.344 126.106 518.344C125.514 518.344 125.002 518.488 124.57 518.776C124.154 519.048 123.81 519.44 123.538 519.952C123.282 520.448 123.09 521.056 122.962 521.776C122.834 522.48 122.77 523.256 122.77 524.104C122.77 526.04 123.058 527.504 123.634 528.496C124.226 529.488 125.058 529.984 126.13 529.984Z" fill="#024959"/>
<g filter="url(#filter8_dd_10_1145)">
<rect x="307" y="518" width="39" height="13" rx="6.5" fill="url(#paint0_linear_10_1145)"/>
</g>
<circle cx="311.5" cy="524.5" r="8.5" fill="#159A9C"/>
<path d="M142.282 529L142.138 527.866H142.066C141.742 528.274 141.298 528.604 140.734 528.856C140.182 529.096 139.618 529.216 139.042 529.216C138.286 529.216 137.692 529 137.26 528.568C136.828 528.124 136.612 527.542 136.612 526.822C136.612 526.33 136.714 525.892 136.918 525.508C137.134 525.112 137.44 524.782 137.836 524.518C138.232 524.242 138.706 524.032 139.258 523.888C139.81 523.744 140.428 523.672 141.112 523.672H141.886V523.402C141.886 522.934 141.736 522.592 141.436 522.376C141.124 522.16 140.638 522.052 139.978 522.052C139.09 522.052 138.298 522.25 137.602 522.646L137.224 521.152C138.028 520.684 139 520.45 140.14 520.45C141.34 520.45 142.252 520.696 142.876 521.188C143.164 521.416 143.398 521.71 143.578 522.07C143.77 522.43 143.866 522.862 143.866 523.366V529H142.282ZM139.816 527.614C140.2 527.614 140.584 527.524 140.968 527.344C141.352 527.152 141.658 526.9 141.886 526.588V524.95H141.544C140.56 524.95 139.84 525.076 139.384 525.328C138.94 525.58 138.718 525.982 138.718 526.534C138.718 527.254 139.084 527.614 139.816 527.614ZM151.624 529V523.528C151.624 522.544 151.234 522.052 150.454 522.052C150.262 522.052 150.052 522.088 149.824 522.16C149.608 522.232 149.392 522.34 149.176 522.484C148.972 522.616 148.78 522.784 148.6 522.988C148.432 523.192 148.312 523.426 148.24 523.69V529H146.26V520.72H147.808L147.898 521.944H147.97C148.21 521.44 148.588 521.068 149.104 520.828C149.632 520.576 150.19 520.45 150.778 520.45C151.342 520.45 151.852 520.564 152.308 520.792C152.776 521.008 153.124 521.386 153.352 521.926C153.592 521.434 153.97 521.068 154.486 520.828C155.002 520.576 155.554 520.45 156.142 520.45C156.526 520.45 156.886 520.504 157.222 520.612C157.57 520.708 157.87 520.87 158.122 521.098C158.386 521.326 158.59 521.626 158.734 521.998C158.89 522.37 158.968 522.826 158.968 523.366V529H156.988V523.528C156.988 522.544 156.598 522.052 155.818 522.052C155.626 522.052 155.416 522.088 155.188 522.16C154.972 522.232 154.756 522.34 154.54 522.484C154.336 522.616 154.144 522.784 153.964 522.988C153.796 523.192 153.676 523.426 153.604 523.69V529H151.624Z" fill="#3CA7A7"/>
<g filter="url(#filter9_dd_10_1145)">
<rect x="72" y="570" width="283" height="40" rx="10" fill="#EBEBEB"/>
</g>
<path d="M83.984 589.056C84.256 588.48 84.672 588.056 85.232 587.784C85.808 587.512 86.48 587.376 87.248 587.376C88.16 587.376 88.912 587.544 89.504 587.88C90.096 588.216 90.568 588.632 90.92 589.128C91.272 589.624 91.512 590.16 91.64 590.736C91.784 591.296 91.856 591.816 91.856 592.296C91.856 592.872 91.76 593.456 91.568 594.048C91.392 594.64 91.096 595.176 90.68 595.656C90.28 596.136 89.752 596.528 89.096 596.832C88.44 597.136 87.648 597.288 86.72 597.288C85.728 597.288 84.888 597.112 84.2 596.76C83.528 596.392 82.976 595.88 82.544 595.224C82.128 594.568 81.824 593.784 81.632 592.872C81.44 591.944 81.344 590.92 81.344 589.8C81.344 588.712 81.432 587.648 81.608 586.608C81.8 585.552 82.12 584.616 82.568 583.8C83.032 582.984 83.64 582.328 84.392 581.832C85.16 581.32 86.112 581.064 87.248 581.064C87.536 581.064 87.856 581.088 88.208 581.136C88.56 581.168 88.912 581.232 89.264 581.328C89.632 581.424 89.984 581.552 90.32 581.712C90.656 581.872 90.944 582.072 91.184 582.312L90.584 584.424C90.056 584.024 89.496 583.744 88.904 583.584C88.312 583.424 87.792 583.344 87.344 583.344C86.672 583.344 86.112 583.496 85.664 583.8C85.216 584.088 84.856 584.472 84.584 584.952C84.328 585.432 84.144 585.968 84.032 586.56C83.936 587.152 83.888 587.744 83.888 588.336C83.888 588.464 83.888 588.584 83.888 588.696C83.888 588.792 83.896 588.904 83.912 589.032L83.984 589.056ZM89.024 592.2C89.024 591.864 88.992 591.536 88.928 591.216C88.864 590.896 88.744 590.616 88.568 590.376C88.408 590.12 88.184 589.92 87.896 589.776C87.624 589.632 87.28 589.56 86.864 589.56C86.048 589.56 85.432 589.824 85.016 590.352C84.616 590.88 84.416 591.552 84.416 592.368C84.416 593.2 84.624 593.864 85.04 594.36C85.456 594.856 86.024 595.104 86.744 595.104C87.464 595.104 88.024 594.848 88.424 594.336C88.824 593.824 89.024 593.112 89.024 592.2ZM94.4975 595.584C94.4975 595.36 94.5375 595.144 94.6175 594.936C94.7135 594.728 94.8415 594.544 95.0015 594.384C95.1615 594.208 95.3375 594.072 95.5295 593.976C95.7375 593.88 95.9615 593.832 96.2015 593.832C96.4255 593.832 96.6415 593.88 96.8495 593.976C97.0575 594.072 97.2415 594.208 97.4015 594.384C97.5775 594.544 97.7135 594.728 97.8095 594.936C97.9055 595.144 97.9535 595.36 97.9535 595.584C97.9535 595.824 97.9055 596.048 97.8095 596.256C97.7135 596.448 97.5775 596.624 97.4015 596.784C97.2415 596.944 97.0575 597.064 96.8495 597.144C96.6415 597.24 96.4255 597.288 96.2015 597.288C95.7375 597.288 95.3375 597.12 95.0015 596.784C94.6655 596.448 94.4975 596.048 94.4975 595.584ZM94.4975 587.832C94.4975 587.608 94.5375 587.392 94.6175 587.184C94.7135 586.976 94.8415 586.792 95.0015 586.632C95.1615 586.456 95.3375 586.32 95.5295 586.224C95.7375 586.128 95.9615 586.08 96.2015 586.08C96.4255 586.08 96.6415 586.128 96.8495 586.224C97.0575 586.32 97.2415 586.456 97.4015 586.632C97.5775 586.792 97.7135 586.976 97.8095 587.184C97.9055 587.392 97.9535 587.608 97.9535 587.832C97.9535 588.072 97.9055 588.296 97.8095 588.504C97.7135 588.696 97.5775 588.872 97.4015 589.032C97.2415 589.192 97.0575 589.32 96.8495 589.416C96.6415 589.496 96.4255 589.536 96.2015 589.536C95.7375 589.536 95.3375 589.368 95.0015 589.032C94.6655 588.696 94.4975 588.296 94.4975 587.832ZM111.379 592.44H109.723V597H106.963V592.44H100.147V590.28L106.843 581.16H109.723V590.28H111.379V592.44ZM106.963 590.28V584.472L102.859 590.28H106.963ZM114.19 589.752L115.126 581.04H123.262V583.56H117.358L116.998 587.352C117.334 587.256 117.686 587.192 118.054 587.16C118.422 587.112 118.758 587.088 119.062 587.088C119.798 587.088 120.47 587.2 121.078 587.424C121.686 587.632 122.214 587.944 122.662 588.36C123.11 588.776 123.454 589.288 123.694 589.896C123.95 590.488 124.078 591.168 124.078 591.936C124.078 592.672 123.958 593.368 123.718 594.024C123.478 594.664 123.11 595.232 122.614 595.728C122.134 596.208 121.526 596.592 120.79 596.88C120.054 597.152 119.19 597.288 118.198 597.288C117.222 597.288 116.318 597.152 115.486 596.88C114.67 596.592 113.95 596.192 113.326 595.68L114.021 593.4C114.262 593.624 114.534 593.832 114.838 594.024C115.158 594.2 115.494 594.36 115.846 594.504C116.214 594.632 116.582 594.736 116.95 594.816C117.334 594.896 117.71 594.936 118.078 594.936C118.478 594.936 118.862 594.888 119.23 594.792C119.614 594.68 119.942 594.512 120.214 594.288C120.502 594.064 120.726 593.776 120.886 593.424C121.062 593.056 121.15 592.616 121.15 592.104C121.15 591.72 121.102 591.368 121.006 591.048C120.91 590.728 120.75 590.456 120.526 590.232C120.302 590.008 119.998 589.832 119.614 589.704C119.246 589.576 118.774 589.512 118.198 589.512C117.702 589.512 117.158 589.56 116.566 589.656C115.974 589.752 115.414 589.904 114.886 590.112L114.19 589.752Z" fill="#024959"/>
<path d="M141.85 586.45C142.498 586.45 143.056 586.576 143.524 586.828C143.992 587.068 144.376 587.392 144.676 587.8C144.988 588.208 145.216 588.682 145.36 589.222C145.504 589.75 145.576 590.302 145.576 590.878C145.576 591.466 145.498 592.024 145.342 592.552C145.198 593.08 144.97 593.542 144.658 593.938C144.346 594.334 143.956 594.646 143.488 594.874C143.02 595.102 142.462 595.216 141.814 595.216C141.274 595.216 140.77 595.138 140.302 594.982C139.846 594.826 139.48 594.574 139.204 594.226V599.68H137.242V586.72H138.826L138.97 587.854H139.042C139.198 587.662 139.384 587.482 139.6 587.314C139.816 587.134 140.05 586.984 140.302 586.864C140.554 586.732 140.812 586.63 141.076 586.558C141.34 586.486 141.598 586.45 141.85 586.45ZM141.526 587.962C141.346 587.962 141.148 587.992 140.932 588.052C140.716 588.1 140.5 588.178 140.284 588.286C140.08 588.382 139.882 588.502 139.69 588.646C139.498 588.79 139.336 588.952 139.204 589.132V592.642C139.564 593.086 139.93 593.368 140.302 593.488C140.686 593.596 141.034 593.65 141.346 593.65C141.742 593.65 142.078 593.578 142.354 593.434C142.642 593.29 142.876 593.098 143.056 592.858C143.248 592.606 143.386 592.318 143.47 591.994C143.566 591.658 143.614 591.298 143.614 590.914C143.614 590.554 143.572 590.2 143.488 589.852C143.416 589.492 143.29 589.174 143.11 588.898C142.942 588.622 142.726 588.4 142.462 588.232C142.198 588.052 141.886 587.962 141.526 587.962ZM152.96 595V589.528C152.96 588.544 152.57 588.052 151.79 588.052C151.598 588.052 151.388 588.088 151.16 588.16C150.944 588.232 150.728 588.34 150.512 588.484C150.308 588.616 150.116 588.784 149.936 588.988C149.768 589.192 149.648 589.426 149.576 589.69V595H147.596V586.72H149.144L149.234 587.944H149.306C149.546 587.44 149.924 587.068 150.44 586.828C150.968 586.576 151.526 586.45 152.114 586.45C152.678 586.45 153.188 586.564 153.644 586.792C154.112 587.008 154.46 587.386 154.688 587.926C154.928 587.434 155.306 587.068 155.822 586.828C156.338 586.576 156.89 586.45 157.478 586.45C157.862 586.45 158.222 586.504 158.558 586.612C158.906 586.708 159.206 586.87 159.458 587.098C159.722 587.326 159.926 587.626 160.07 587.998C160.226 588.37 160.304 588.826 160.304 589.366V595H158.324V589.528C158.324 588.544 157.934 588.052 157.154 588.052C156.962 588.052 156.752 588.088 156.524 588.16C156.308 588.232 156.092 588.34 155.876 588.484C155.672 588.616 155.48 588.784 155.3 588.988C155.132 589.192 155.012 589.426 154.94 589.69V595H152.96Z" fill="#3CA7A7"/>
<g filter="url(#filter10_dd_10_1145)">
<rect x="307" y="583" width="39" height="13" rx="6.5" fill="url(#paint1_linear_10_1145)"/>
</g>
<circle cx="311.5" cy="589.5" r="8.5" fill="#159A9C"/>
<g filter="url(#filter11_dd_10_1145)">
<rect x="72" y="636" width="283" height="40" rx="10" fill="#EBEBEB"/>
</g>
<path d="M88.928 654.312C89.856 654.52 90.568 655 91.064 655.752C91.576 656.504 91.832 657.416 91.832 658.488C91.832 659.16 91.728 659.792 91.52 660.384C91.312 660.96 90.984 661.464 90.536 661.896C90.104 662.328 89.552 662.672 88.88 662.928C88.208 663.168 87.416 663.288 86.504 663.288C85.544 663.288 84.728 663.16 84.056 662.904C83.384 662.632 82.84 662.28 82.424 661.848C82.008 661.4 81.704 660.888 81.512 660.312C81.32 659.736 81.224 659.144 81.224 658.536C81.224 657.48 81.48 656.584 81.992 655.848C82.504 655.112 83.216 654.608 84.128 654.336V654.24C83.568 654.032 83.072 653.64 82.64 653.064C82.224 652.488 82.016 651.76 82.016 650.88C82.016 649.728 82.408 648.8 83.192 648.096C83.976 647.392 85.088 647.04 86.528 647.04C87.936 647.04 89.04 647.384 89.84 648.072C90.64 648.744 91.04 649.656 91.04 650.808C91.04 651.656 90.832 652.376 90.416 652.968C90.016 653.544 89.52 653.96 88.928 654.216V654.312ZM89.072 658.56C89.072 658.192 89.024 657.824 88.928 657.456C88.832 657.088 88.68 656.76 88.472 656.472C88.264 656.184 87.992 655.952 87.656 655.776C87.336 655.584 86.952 655.488 86.504 655.488C86.04 655.488 85.648 655.584 85.328 655.776C85.008 655.952 84.744 656.192 84.536 656.496C84.328 656.784 84.176 657.112 84.08 657.48C83.984 657.848 83.936 658.208 83.936 658.56C83.936 659.424 84.168 660.08 84.632 660.528C85.112 660.976 85.736 661.2 86.504 661.2C87.272 661.2 87.888 660.976 88.352 660.528C88.832 660.08 89.072 659.424 89.072 658.56ZM88.352 651.192C88.352 650.568 88.192 650.08 87.872 649.728C87.568 649.36 87.112 649.176 86.504 649.176C85.912 649.176 85.456 649.352 85.136 649.704C84.816 650.04 84.656 650.528 84.656 651.168C84.656 651.84 84.824 652.368 85.16 652.752C85.496 653.136 85.944 653.328 86.504 653.328C87.064 653.328 87.512 653.136 87.848 652.752C88.184 652.368 88.352 651.848 88.352 651.192ZM94.6147 661.584C94.6147 661.36 94.6547 661.144 94.7347 660.936C94.8307 660.728 94.9587 660.544 95.1187 660.384C95.2787 660.208 95.4547 660.072 95.6467 659.976C95.8547 659.88 96.0787 659.832 96.3187 659.832C96.5427 659.832 96.7587 659.88 96.9667 659.976C97.1747 660.072 97.3587 660.208 97.5187 660.384C97.6947 660.544 97.8307 660.728 97.9267 660.936C98.0227 661.144 98.0707 661.36 98.0707 661.584C98.0707 661.824 98.0227 662.048 97.9267 662.256C97.8307 662.448 97.6947 662.624 97.5187 662.784C97.3587 662.944 97.1747 663.064 96.9667 663.144C96.7587 663.24 96.5427 663.288 96.3187 663.288C95.8547 663.288 95.4547 663.12 95.1187 662.784C94.7827 662.448 94.6147 662.048 94.6147 661.584ZM94.6147 653.832C94.6147 653.608 94.6547 653.392 94.7347 653.184C94.8307 652.976 94.9587 652.792 95.1187 652.632C95.2787 652.456 95.4547 652.32 95.6467 652.224C95.8547 652.128 96.0787 652.08 96.3187 652.08C96.5427 652.08 96.7587 652.128 96.9667 652.224C97.1747 652.32 97.3587 652.456 97.5187 652.632C97.6947 652.792 97.8307 652.976 97.9267 653.184C98.0227 653.392 98.0707 653.608 98.0707 653.832C98.0707 654.072 98.0227 654.296 97.9267 654.504C97.8307 654.696 97.6947 654.872 97.5187 655.032C97.3587 655.192 97.1747 655.32 96.9667 655.416C96.7587 655.496 96.5427 655.536 96.3187 655.536C95.8547 655.536 95.4547 655.368 95.1187 655.032C94.7827 654.696 94.6147 654.296 94.6147 653.832ZM107.273 647.04C108.297 647.04 109.201 647.264 109.985 647.712C110.785 648.144 111.457 648.728 112.001 649.464C112.545 650.2 112.953 651.056 113.225 652.032C113.513 652.992 113.657 654.008 113.657 655.08C113.657 656.152 113.513 657.184 113.225 658.176C112.937 659.152 112.513 660.024 111.953 660.792C111.409 661.544 110.729 662.152 109.913 662.616C109.097 663.064 108.161 663.288 107.105 663.288C106.065 663.288 105.153 663.072 104.369 662.64C103.601 662.208 102.961 661.624 102.449 660.888C101.937 660.152 101.545 659.304 101.273 658.344C101.017 657.368 100.889 656.344 100.889 655.272C100.889 654.136 101.033 653.072 101.321 652.08C101.609 651.072 102.025 650.2 102.569 649.464C103.113 648.712 103.777 648.12 104.561 647.688C105.361 647.256 106.265 647.04 107.273 647.04ZM107.201 660.984C107.809 660.984 108.329 660.84 108.761 660.552C109.209 660.248 109.577 659.832 109.865 659.304C110.153 658.776 110.369 658.152 110.513 657.432C110.657 656.712 110.729 655.936 110.729 655.104C110.729 654.256 110.657 653.48 110.513 652.776C110.369 652.072 110.145 651.464 109.841 650.952C109.553 650.44 109.185 650.048 108.737 649.776C108.289 649.488 107.769 649.344 107.177 649.344C106.585 649.344 106.073 649.488 105.641 649.776C105.225 650.048 104.881 650.44 104.609 650.952C104.353 651.448 104.161 652.056 104.033 652.776C103.905 653.48 103.841 654.256 103.841 655.104C103.841 657.04 104.129 658.504 104.705 659.496C105.297 660.488 106.129 660.984 107.201 660.984ZM122.507 647.04C123.531 647.04 124.435 647.264 125.219 647.712C126.019 648.144 126.691 648.728 127.235 649.464C127.779 650.2 128.187 651.056 128.459 652.032C128.747 652.992 128.891 654.008 128.891 655.08C128.891 656.152 128.747 657.184 128.459 658.176C128.171 659.152 127.747 660.024 127.187 660.792C126.643 661.544 125.963 662.152 125.147 662.616C124.331 663.064 123.395 663.288 122.339 663.288C121.299 663.288 120.387 663.072 119.603 662.64C118.835 662.208 118.195 661.624 117.683 660.888C117.171 660.152 116.779 659.304 116.507 658.344C116.251 657.368 116.123 656.344 116.123 655.272C116.123 654.136 116.267 653.072 116.555 652.08C116.843 651.072 117.259 650.2 117.803 649.464C118.347 648.712 119.011 648.12 119.795 647.688C120.595 647.256 121.499 647.04 122.507 647.04ZM122.435 660.984C123.043 660.984 123.563 660.84 123.995 660.552C124.443 660.248 124.811 659.832 125.099 659.304C125.387 658.776 125.603 658.152 125.747 657.432C125.891 656.712 125.963 655.936 125.963 655.104C125.963 654.256 125.891 653.48 125.747 652.776C125.603 652.072 125.379 651.464 125.075 650.952C124.787 650.44 124.419 650.048 123.971 649.776C123.523 649.488 123.003 649.344 122.411 649.344C121.819 649.344 121.307 649.488 120.875 649.776C120.459 650.048 120.115 650.44 119.843 650.952C119.587 651.448 119.395 652.056 119.267 652.776C119.139 653.48 119.075 654.256 119.075 655.104C119.075 657.04 119.363 658.504 119.939 659.496C120.531 660.488 121.363 660.984 122.435 660.984Z" fill="#024959"/>
<path d="M141.85 652.45C142.498 652.45 143.056 652.576 143.524 652.828C143.992 653.068 144.376 653.392 144.676 653.8C144.988 654.208 145.216 654.682 145.36 655.222C145.504 655.75 145.576 656.302 145.576 656.878C145.576 657.466 145.498 658.024 145.342 658.552C145.198 659.08 144.97 659.542 144.658 659.938C144.346 660.334 143.956 660.646 143.488 660.874C143.02 661.102 142.462 661.216 141.814 661.216C141.274 661.216 140.77 661.138 140.302 660.982C139.846 660.826 139.48 660.574 139.204 660.226V665.68H137.242V652.72H138.826L138.97 653.854H139.042C139.198 653.662 139.384 653.482 139.6 653.314C139.816 653.134 140.05 652.984 140.302 652.864C140.554 652.732 140.812 652.63 141.076 652.558C141.34 652.486 141.598 652.45 141.85 652.45ZM141.526 653.962C141.346 653.962 141.148 653.992 140.932 654.052C140.716 654.1 140.5 654.178 140.284 654.286C140.08 654.382 139.882 654.502 139.69 654.646C139.498 654.79 139.336 654.952 139.204 655.132V658.642C139.564 659.086 139.93 659.368 140.302 659.488C140.686 659.596 141.034 659.65 141.346 659.65C141.742 659.65 142.078 659.578 142.354 659.434C142.642 659.29 142.876 659.098 143.056 658.858C143.248 658.606 143.386 658.318 143.47 657.994C143.566 657.658 143.614 657.298 143.614 656.914C143.614 656.554 143.572 656.2 143.488 655.852C143.416 655.492 143.29 655.174 143.11 654.898C142.942 654.622 142.726 654.4 142.462 654.232C142.198 654.052 141.886 653.962 141.526 653.962ZM152.96 661V655.528C152.96 654.544 152.57 654.052 151.79 654.052C151.598 654.052 151.388 654.088 151.16 654.16C150.944 654.232 150.728 654.34 150.512 654.484C150.308 654.616 150.116 654.784 149.936 654.988C149.768 655.192 149.648 655.426 149.576 655.69V661H147.596V652.72H149.144L149.234 653.944H149.306C149.546 653.44 149.924 653.068 150.44 652.828C150.968 652.576 151.526 652.45 152.114 652.45C152.678 652.45 153.188 652.564 153.644 652.792C154.112 653.008 154.46 653.386 154.688 653.926C154.928 653.434 155.306 653.068 155.822 652.828C156.338 652.576 156.89 652.45 157.478 652.45C157.862 652.45 158.222 652.504 158.558 652.612C158.906 652.708 159.206 652.87 159.458 653.098C159.722 653.326 159.926 653.626 160.07 653.998C160.226 654.37 160.304 654.826 160.304 655.366V661H158.324V655.528C158.324 654.544 157.934 654.052 157.154 654.052C156.962 654.052 156.752 654.088 156.524 654.16C156.308 654.232 156.092 654.34 155.876 654.484C155.672 654.616 155.48 654.784 155.3 654.988C155.132 655.192 155.012 655.426 154.94 655.69V661H152.96Z" fill="#3CA7A7"/>
<g filter="url(#filter12_dd_10_1145)">
<rect x="307" y="649" width="39" height="13" rx="6.5" fill="url(#paint2_linear_10_1145)"/>
</g>
<circle cx="311.5" cy="655.5" r="8.5" fill="#159A9C"/>
<g filter="url(#filter13_dd_10_1145)">
<rect x="72" y="702" width="283" height="40" rx="10" fill="#EBEBEB"/>
</g>
<path d="M92.952 722.296C92.68 722.872 92.256 723.296 91.68 723.568C91.12 723.84 90.456 723.976 89.688 723.976C88.776 723.976 88.024 723.808 87.432 723.472C86.84 723.136 86.368 722.72 86.016 722.224C85.664 721.728 85.416 721.2 85.272 720.64C85.144 720.064 85.08 719.536 85.08 719.056C85.08 718.48 85.168 717.896 85.344 717.304C85.536 716.712 85.832 716.176 86.232 715.696C86.648 715.216 87.176 714.824 87.816 714.52C88.472 714.216 89.272 714.064 90.216 714.064C91.208 714.064 92.04 714.248 92.712 714.616C93.4 714.968 93.952 715.472 94.368 716.128C94.8 716.784 95.112 717.576 95.304 718.504C95.496 719.416 95.592 720.432 95.592 721.552C95.592 722.64 95.496 723.712 95.304 724.768C95.128 725.808 94.808 726.736 94.344 727.552C93.896 728.368 93.288 729.032 92.52 729.544C91.768 730.04 90.824 730.288 89.688 730.288C89.4 730.288 89.08 730.264 88.728 730.216C88.376 730.184 88.016 730.12 87.648 730.024C87.296 729.928 86.952 729.8 86.616 729.64C86.28 729.48 85.992 729.28 85.752 729.04L86.352 726.928C86.88 727.328 87.44 727.608 88.032 727.768C88.624 727.928 89.144 728.008 89.592 728.008C90.264 728.008 90.816 727.864 91.248 727.576C91.696 727.272 92.048 726.88 92.304 726.4C92.576 725.92 92.768 725.384 92.88 724.792C92.992 724.2 93.048 723.608 93.048 723.016C93.048 722.888 93.048 722.776 93.048 722.68C93.048 722.568 93.04 722.448 93.024 722.32L92.952 722.296ZM87.912 719.152C87.912 719.488 87.944 719.816 88.008 720.136C88.072 720.456 88.184 720.744 88.344 721C88.52 721.24 88.744 721.432 89.016 721.576C89.304 721.72 89.656 721.792 90.072 721.792C90.888 721.792 91.496 721.528 91.896 721C92.312 720.472 92.52 719.8 92.52 718.984C92.52 718.152 92.312 717.488 91.896 716.992C91.48 716.496 90.912 716.248 90.192 716.248C89.472 716.248 88.912 716.504 88.512 717.016C88.112 717.528 87.912 718.24 87.912 719.152ZM98.4975 728.584C98.4975 728.36 98.5375 728.144 98.6175 727.936C98.7135 727.728 98.8415 727.544 99.0015 727.384C99.1615 727.208 99.3375 727.072 99.5295 726.976C99.7375 726.88 99.9615 726.832 100.202 726.832C100.426 726.832 100.642 726.88 100.85 726.976C101.058 727.072 101.242 727.208 101.402 727.384C101.578 727.544 101.714 727.728 101.81 727.936C101.906 728.144 101.954 728.36 101.954 728.584C101.954 728.824 101.906 729.048 101.81 729.256C101.714 729.448 101.578 729.624 101.402 729.784C101.242 729.944 101.058 730.064 100.85 730.144C100.642 730.24 100.426 730.288 100.202 730.288C99.7375 730.288 99.3375 730.12 99.0015 729.784C98.6655 729.448 98.4975 729.048 98.4975 728.584ZM98.4975 720.832C98.4975 720.608 98.5375 720.392 98.6175 720.184C98.7135 719.976 98.8415 719.792 99.0015 719.632C99.1615 719.456 99.3375 719.32 99.5295 719.224C99.7375 719.128 99.9615 719.08 100.202 719.08C100.426 719.08 100.642 719.128 100.85 719.224C101.058 719.32 101.242 719.456 101.402 719.632C101.578 719.792 101.714 719.976 101.81 720.184C101.906 720.392 101.954 720.608 101.954 720.832C101.954 721.072 101.906 721.296 101.81 721.504C101.714 721.696 101.578 721.872 101.402 722.032C101.242 722.192 101.058 722.32 100.85 722.416C100.642 722.496 100.426 722.536 100.202 722.536C99.7375 722.536 99.3375 722.368 99.0015 722.032C98.6655 721.696 98.4975 721.296 98.4975 720.832ZM111.155 714.04C112.179 714.04 113.083 714.264 113.867 714.712C114.667 715.144 115.339 715.728 115.883 716.464C116.427 717.2 116.835 718.056 117.107 719.032C117.395 719.992 117.539 721.008 117.539 722.08C117.539 723.152 117.395 724.184 117.107 725.176C116.819 726.152 116.395 727.024 115.835 727.792C115.291 728.544 114.611 729.152 113.795 729.616C112.979 730.064 112.043 730.288 110.987 730.288C109.947 730.288 109.035 730.072 108.251 729.64C107.483 729.208 106.843 728.624 106.331 727.888C105.819 727.152 105.427 726.304 105.155 725.344C104.899 724.368 104.771 723.344 104.771 722.272C104.771 721.136 104.915 720.072 105.203 719.08C105.491 718.072 105.907 717.2 106.451 716.464C106.995 715.712 107.659 715.12 108.443 714.688C109.243 714.256 110.147 714.04 111.155 714.04ZM111.083 727.984C111.691 727.984 112.211 727.84 112.643 727.552C113.091 727.248 113.459 726.832 113.747 726.304C114.035 725.776 114.251 725.152 114.395 724.432C114.539 723.712 114.611 722.936 114.611 722.104C114.611 721.256 114.539 720.48 114.395 719.776C114.251 719.072 114.027 718.464 113.723 717.952C113.435 717.44 113.067 717.048 112.619 716.776C112.171 716.488 111.651 716.344 111.059 716.344C110.467 716.344 109.955 716.488 109.523 716.776C109.107 717.048 108.763 717.44 108.491 717.952C108.235 718.448 108.043 719.056 107.915 719.776C107.787 720.48 107.723 721.256 107.723 722.104C107.723 724.04 108.011 725.504 108.587 726.496C109.179 727.488 110.011 727.984 111.083 727.984ZM126.39 714.04C127.414 714.04 128.318 714.264 129.102 714.712C129.902 715.144 130.574 715.728 131.118 716.464C131.662 717.2 132.07 718.056 132.342 719.032C132.63 719.992 132.774 721.008 132.774 722.08C132.774 723.152 132.63 724.184 132.342 725.176C132.054 726.152 131.63 727.024 131.07 727.792C130.526 728.544 129.846 729.152 129.03 729.616C128.214 730.064 127.278 730.288 126.222 730.288C125.182 730.288 124.27 730.072 123.486 729.64C122.718 729.208 122.078 728.624 121.566 727.888C121.054 727.152 120.662 726.304 120.39 725.344C120.134 724.368 120.006 723.344 120.006 722.272C120.006 721.136 120.15 720.072 120.438 719.08C120.726 718.072 121.142 717.2 121.686 716.464C122.23 715.712 122.894 715.12 123.678 714.688C124.478 714.256 125.382 714.04 126.39 714.04ZM126.318 727.984C126.926 727.984 127.446 727.84 127.878 727.552C128.326 727.248 128.694 726.832 128.982 726.304C129.27 725.776 129.486 725.152 129.63 724.432C129.774 723.712 129.846 722.936 129.846 722.104C129.846 721.256 129.774 720.48 129.63 719.776C129.486 719.072 129.262 718.464 128.958 717.952C128.67 717.44 128.302 717.048 127.854 716.776C127.406 716.488 126.886 716.344 126.294 716.344C125.702 716.344 125.19 716.488 124.758 716.776C124.342 717.048 123.998 717.44 123.726 717.952C123.47 718.448 123.278 719.056 123.15 719.776C123.022 720.48 122.958 721.256 122.958 722.104C122.958 724.04 123.246 725.504 123.822 726.496C124.414 727.488 125.246 727.984 126.318 727.984Z" fill="#024959"/>
<g filter="url(#filter14_dd_10_1145)">
<rect x="307" y="716" width="39" height="13" rx="6.5" fill="url(#paint3_linear_10_1145)"/>
</g>
<circle cx="311.5" cy="722.5" r="8.5" fill="#159A9C"/>
<path d="M141.85 718.45C142.498 718.45 143.056 718.576 143.524 718.828C143.992 719.068 144.376 719.392 144.676 719.8C144.988 720.208 145.216 720.682 145.36 721.222C145.504 721.75 145.576 722.302 145.576 722.878C145.576 723.466 145.498 724.024 145.342 724.552C145.198 725.08 144.97 725.542 144.658 725.938C144.346 726.334 143.956 726.646 143.488 726.874C143.02 727.102 142.462 727.216 141.814 727.216C141.274 727.216 140.77 727.138 140.302 726.982C139.846 726.826 139.48 726.574 139.204 726.226V731.68H137.242V718.72H138.826L138.97 719.854H139.042C139.198 719.662 139.384 719.482 139.6 719.314C139.816 719.134 140.05 718.984 140.302 718.864C140.554 718.732 140.812 718.63 141.076 718.558C141.34 718.486 141.598 718.45 141.85 718.45ZM141.526 719.962C141.346 719.962 141.148 719.992 140.932 720.052C140.716 720.1 140.5 720.178 140.284 720.286C140.08 720.382 139.882 720.502 139.69 720.646C139.498 720.79 139.336 720.952 139.204 721.132V724.642C139.564 725.086 139.93 725.368 140.302 725.488C140.686 725.596 141.034 725.65 141.346 725.65C141.742 725.65 142.078 725.578 142.354 725.434C142.642 725.29 142.876 725.098 143.056 724.858C143.248 724.606 143.386 724.318 143.47 723.994C143.566 723.658 143.614 723.298 143.614 722.914C143.614 722.554 143.572 722.2 143.488 721.852C143.416 721.492 143.29 721.174 143.11 720.898C142.942 720.622 142.726 720.4 142.462 720.232C142.198 720.052 141.886 719.962 141.526 719.962ZM152.96 727V721.528C152.96 720.544 152.57 720.052 151.79 720.052C151.598 720.052 151.388 720.088 151.16 720.16C150.944 720.232 150.728 720.34 150.512 720.484C150.308 720.616 150.116 720.784 149.936 720.988C149.768 721.192 149.648 721.426 149.576 721.69V727H147.596V718.72H149.144L149.234 719.944H149.306C149.546 719.44 149.924 719.068 150.44 718.828C150.968 718.576 151.526 718.45 152.114 718.45C152.678 718.45 153.188 718.564 153.644 718.792C154.112 719.008 154.46 719.386 154.688 719.926C154.928 719.434 155.306 719.068 155.822 718.828C156.338 718.576 156.89 718.45 157.478 718.45C157.862 718.45 158.222 718.504 158.558 718.612C158.906 718.708 159.206 718.87 159.458 719.098C159.722 719.326 159.926 719.626 160.07 719.998C160.226 720.37 160.304 720.826 160.304 721.366V727H158.324V721.528C158.324 720.544 157.934 720.052 157.154 720.052C156.962 720.052 156.752 720.088 156.524 720.16C156.308 720.232 156.092 720.34 155.876 720.484C155.672 720.616 155.48 720.784 155.3 720.988C155.132 721.192 155.012 721.426 154.94 721.69V727H152.96Z" fill="#3CA7A7"/>
<g filter="url(#filter15_dd_10_1145)">
<rect x="72" y="768" width="283" height="40" rx="10" fill="#EBEBEB"/>
</g>
<g filter="url(#filter16_d_10_1145)">
<rect x="307" y="782" width="39" height="13" rx="6.5" fill="url(#paint4_linear_10_1145)"/>
</g>
</g>
<defs>
<filter id="filter0_dd_10_1145" x="312" y="50" width="105.044" height="105.044" filterUnits="userSpaceOnUse" color-interpolation-filters="sRGB">
<feFlood flood-opacity="0" result="BackgroundImageFix"/>
<feColorMatrix in="SourceAlpha" type="matrix" values="0 0 0 0 0 0 0 0 0 0 0 0 0 0 0 0 0 0 127 0" result="hardAlpha"/>
<feOffset dx="10.0444" dy="10.0444"/>
<feGaussianBlur stdDeviation="10"/>
<feComposite in2="hardAlpha" operator="out"/>
<feColorMatrix type="matrix" values="0 0 0 0 0 0 0 0 0 0 0 0 0 0 0 0 0 0 0.04 0"/>
<feBlend mode="normal" in2="BackgroundImageFix" result="effect1_dropShadow_10_1145"/>
<feColorMatrix in="SourceAlpha" type="matrix" values="0 0 0 0 0 0 0 0 0 0 0 0 0 0 0 0 0 0 127 0" result="hardAlpha"/>
<feOffset dx="-10" dy="-10"/>
<feGaussianBlur stdDeviation="10"/>
<feComposite in2="hardAlpha" operator="out"/>
<feColorMatrix type="matrix" values="0 0 0 0 1 0 0 0 0 1 0 0 0 0 1 0 0 0 0.38 0"/>
<feBlend mode="normal" in2="effect1_dropShadow_10_1145" result="effect2_dropShadow_10_1145"/>
<feBlend mode="normal" in="SourceGraphic" in2="effect2_dropShadow_10_1145" result="shape"/>
</filter>
<filter id="filter1_dd_10_1145" x="111.111" y="778.111" width="106.101" height="105.778" filterUnits="userSpaceOnUse" color-interpolation-filters="sRGB">
<feFlood flood-opacity="0" result="BackgroundImageFix"/>
<feColorMatrix in="SourceAlpha" type="matrix" values="0 0 0 0 0 0 0 0 0 0 0 0 0 0 0 0 0 0 127 0" result="hardAlpha"/>
<feOffset dx="6.22222" dy="6.22222"/>
<feGaussianBlur stdDeviation="9.33333"/>
<feComposite in2="hardAlpha" operator="out"/>
<feColorMatrix type="matrix" values="0 0 0 0 0 0 0 0 0 0 0 0 0 0 0 0 0 0 0.09 0"/>
<feBlend mode="normal" in2="BackgroundImageFix" result="effect1_dropShadow_10_1145"/>
<feColorMatrix in="SourceAlpha" type="matrix" values="0 0 0 0 0 0 0 0 0 0 0 0 0 0 0 0 0 0 127 0" result="hardAlpha"/>
<feOffset dx="-6.22222" dy="-6.22222"/>
<feGaussianBlur stdDeviation="9.33333"/>
<feComposite in2="hardAlpha" operator="out"/>
<feColorMatrix type="matrix" values="0 0 0 0 1 0 0 0 0 1 0 0 0 0 1 0 0 0 0.68 0"/>
<feBlend mode="normal" in2="effect1_dropShadow_10_1145" result="effect2_dropShadow_10_1145"/>
<feBlend mode="normal" in="SourceGraphic" in2="effect2_dropShadow_10_1145" result="shape"/>
</filter>
<filter id="filter2_ii_10_1145" x="227.778" y="796.778" width="68.7672" height="68.4444" filterUnits="userSpaceOnUse" color-interpolation-filters="sRGB">
<feFlood flood-opacity="0" result="BackgroundImageFix"/>
<feBlend mode="normal" in="SourceGraphic" in2="BackgroundImageFix" result="shape"/>
<feColorMatrix in="SourceAlpha" type="matrix" values="0 0 0 0 0 0 0 0 0 0 0 0 0 0 0 0 0 0 127 0" result="hardAlpha"/>
<feOffset dx="6.22222" dy="6.22222"/>
<feGaussianBlur stdDeviation="9.33333"/>
<feComposite in2="hardAlpha" operator="arithmetic" k2="-1" k3="1"/>
<feColorMatrix type="matrix" values="0 0 0 0 0 0 0 0 0 0 0 0 0 0 0 0 0 0 0.09 0"/>
<feBlend mode="normal" in2="shape" result="effect1_innerShadow_10_1145"/>
<feColorMatrix in="SourceAlpha" type="matrix" values="0 0 0 0 0 0 0 0 0 0 0 0 0 0 0 0 0 0 127 0" result="hardAlpha"/>
<feOffset dx="-6.22222" dy="-6.22222"/>
<feGaussianBlur stdDeviation="9.33333"/>
<feComposite in2="hardAlpha" operator="arithmetic" k2="-1" k3="1"/>
<feColorMatrix type="matrix" values="0 0 0 0 1 0 0 0 0 1 0 0 0 0 1 0 0 0 0.68 0"/>
<feBlend mode="normal" in2="effect1_innerShadow_10_1145" result="effect2_innerShadow_10_1145"/>
</filter>
<filter id="filter3_dd_10_1145" x="14.1111" y="778.111" width="106.101" height="105.778" filterUnits="userSpaceOnUse" color-interpolation-filters="sRGB">
<feFlood flood-opacity="0" result="BackgroundImageFix"/>
<feColorMatrix in="SourceAlpha" type="matrix" values="0 0 0 0 0 0 0 0 0 0 0 0 0 0 0 0 0 0 127 0" result="hardAlpha"/>
<feOffset dx="6.22222" dy="6.22222"/>
<feGaussianBlur stdDeviation="9.33333"/>
<feComposite in2="hardAlpha" operator="out"/>
<feColorMatrix type="matrix" values="0 0 0 0 0 0 0 0 0 0 0 0 0 0 0 0 0 0 0.09 0"/>
<feBlend mode="normal" in2="BackgroundImageFix" result="effect1_dropShadow_10_1145"/>
<feColorMatrix in="SourceAlpha" type="matrix" values="0 0 0 0 0 0 0 0 0 0 0 0 0 0 0 0 0 0 127 0" result="hardAlpha"/>
<feOffset dx="-6.22222" dy="-6.22222"/>
<feGaussianBlur stdDeviation="9.33333"/>
<feComposite in2="hardAlpha" operator="out"/>
<feColorMatrix type="matrix" values="0 0 0 0 1 0 0 0 0 1 0 0 0 0 1 0 0 0 0.68 0"/>
<feBlend mode="normal" in2="effect1_dropShadow_10_1145" result="effect2_dropShadow_10_1145"/>
<feBlend mode="normal" in="SourceGraphic" in2="effect2_dropShadow_10_1145" result="shape"/>
</filter>
<filter id="filter4_dd_10_1145" x="306.111" y="778.111" width="106.101" height="105.778" filterUnits="userSpaceOnUse" color-interpolation-filters="sRGB">
<feFlood flood-opacity="0" result="BackgroundImageFix"/>
<feColorMatrix in="SourceAlpha" type="matrix" values="0 0 0 0 0 0 0 0 0 0 0 0 0 0 0 0 0 0 127 0" result="hardAlpha"/>
<feOffset dx="6.22222" dy="6.22222"/>
<feGaussianBlur stdDeviation="9.33333"/>
<feComposite in2="hardAlpha" operator="out"/>
<feColorMatrix type="matrix" values="0 0 0 0 0 0 0 0 0 0 0 0 0 0 0 0 0 0 0.09 0"/>
<feBlend mode="normal" in2="BackgroundImageFix" result="effect1_dropShadow_10_1145"/>
<feColorMatrix in="SourceAlpha" type="matrix" values="0 0 0 0 0 0 0 0 0 0 0 0 0 0 0 0 0 0 127 0" result="hardAlpha"/>
<feOffset dx="-6.22222" dy="-6.22222"/>
<feGaussianBlur stdDeviation="9.33333"/>
<feComposite in2="hardAlpha" operator="out"/>
<feColorMatrix type="matrix" values="0 0 0 0 1 0 0 0 0 1 0 0 0 0 1 0 0 0 0.68 0"/>
<feBlend mode="normal" in2="effect1_dropShadow_10_1145" result="effect2_dropShadow_10_1145"/>
<feBlend mode="normal" in="SourceGraphic" in2="effect2_dropShadow_10_1145" result="shape"/>
</filter>
<filter id="filter5_dd_10_1145" x="59" y="161" width="310.044" height="310.044" filterUnits="userSpaceOnUse" color-interpolation-filters="sRGB">
<feFlood flood-opacity="0" result="BackgroundImageFix"/>
<feColorMatrix in="SourceAlpha" type="matrix" values="0 0 0 0 0 0 0 0 0 0 0 0 0 0 0 0 0 0 127 0" result="hardAlpha"/>
<feOffset dx="10.0444" dy="10.0444"/>
<feGaussianBlur stdDeviation="10"/>
<feComposite in2="hardAlpha" operator="out"/>
<feColorMatrix type="matrix" values="0 0 0 0 0 0 0 0 0 0 0 0 0 0 0 0 0 0 0.07 0"/>
<feBlend mode="normal" in2="BackgroundImageFix" result="effect1_dropShadow_10_1145"/>
<feColorMatrix in="SourceAlpha" type="matrix" values="0 0 0 0 0 0 0 0 0 0 0 0 0 0 0 0 0 0 127 0" result="hardAlpha"/>
<feOffset dx="-10" dy="-10"/>
<feGaussianBlur stdDeviation="10"/>
<feComposite in2="hardAlpha" operator="out"/>
<feColorMatrix type="matrix" values="0 0 0 0 1 0 0 0 0 1 0 0 0 0 1 0 0 0 0.48 0"/>
<feBlend mode="normal" in2="effect1_dropShadow_10_1145" result="effect2_dropShadow_10_1145"/>
<feBlend mode="normal" in="SourceGraphic" in2="effect2_dropShadow_10_1145" result="shape"/>
</filter>
<filter id="filter6_dd_10_1145" x="123.469" y="225.469" width="181.088" height="181.088" filterUnits="userSpaceOnUse" color-interpolation-filters="sRGB">
<feFlood flood-opacity="0" result="BackgroundImageFix"/>
<feColorMatrix in="SourceAlpha" type="matrix" values="0 0 0 0 0 0 0 0 0 0 0 0 0 0 0 0 0 0 127 0" result="hardAlpha"/>
<feOffset dx="5.86667" dy="5.86667"/>
<feGaussianBlur stdDeviation="5.84071"/>
<feComposite in2="hardAlpha" operator="out"/>
<feColorMatrix type="matrix" values="0 0 0 0 0 0 0 0 0 0 0 0 0 0 0 0 0 0 0.07 0"/>
<feBlend mode="normal" in2="BackgroundImageFix" result="effect1_dropShadow_10_1145"/>
<feColorMatrix in="SourceAlpha" type="matrix" values="0 0 0 0 0 0 0 0 0 0 0 0 0 0 0 0 0 0 127 0" result="hardAlpha"/>
<feOffset dx="-5.84071" dy="-5.84071"/>
<feGaussianBlur stdDeviation="5.84071"/>
<feComposite in2="hardAlpha" operator="out"/>
<feColorMatrix type="matrix" values="0 0 0 0 1 0 0 0 0 1 0 0 0 0 1 0 0 0 0.48 0"/>
<feBlend mode="normal" in2="effect1_dropShadow_10_1145" result="effect2_dropShadow_10_1145"/>
<feBlend mode="normal" in="SourceGraphic" in2="effect2_dropShadow_10_1145" result="shape"/>
</filter>
<filter id="filter7_dd_10_1145" x="56" y="488" width="315" height="72" filterUnits="userSpaceOnUse" color-interpolation-filters="sRGB">
<feFlood flood-opacity="0" result="BackgroundImageFix"/>
<feColorMatrix in="SourceAlpha" type="matrix" values="0 0 0 0 0 0 0 0 0 0 0 0 0 0 0 0 0 0 127 0" result="hardAlpha"/>
<feOffset dx="4" dy="4"/>
<feGaussianBlur stdDeviation="6"/>
<feComposite in2="hardAlpha" operator="out"/>
<feColorMatrix type="matrix" values="0 0 0 0 0 0 0 0 0 0 0 0 0 0 0 0 0 0 0.11 0"/>
<feBlend mode="normal" in2="BackgroundImageFix" result="effect1_dropShadow_10_1145"/>
<feColorMatrix in="SourceAlpha" type="matrix" values="0 0 0 0 0 0 0 0 0 0 0 0 0 0 0 0 0 0 127 0" result="hardAlpha"/>
<feOffset dx="-4" dy="-4"/>
<feGaussianBlur stdDeviation="6"/>
<feComposite in2="hardAlpha" operator="out"/>
<feColorMatrix type="matrix" values="0 0 0 0 1 0 0 0 0 1 0 0 0 0 1 0 0 0 0.5 0"/>
<feBlend mode="normal" in2="effect1_dropShadow_10_1145" result="effect2_dropShadow_10_1145"/>
<feBlend mode="normal" in="SourceGraphic" in2="effect2_dropShadow_10_1145" result="shape"/>
</filter>
<filter id="filter8_dd_10_1145" x="291" y="502" width="71" height="45" filterUnits="userSpaceOnUse" color-interpolation-filters="sRGB">
<feFlood flood-opacity="0" result="BackgroundImageFix"/>
<feColorMatrix in="SourceAlpha" type="matrix" values="0 0 0 0 0 0 0 0 0 0 0 0 0 0 0 0 0 0 127 0" result="hardAlpha"/>
<feOffset dx="4" dy="4"/>
<feGaussianBlur stdDeviation="6"/>
<feComposite in2="hardAlpha" operator="out"/>
<feColorMatrix type="matrix" values="0 0 0 0 0 0 0 0 0 0 0 0 0 0 0 0 0 0 0.11 0"/>
<feBlend mode="normal" in2="BackgroundImageFix" result="effect1_dropShadow_10_1145"/>
<feColorMatrix in="SourceAlpha" type="matrix" values="0 0 0 0 0 0 0 0 0 0 0 0 0 0 0 0 0 0 127 0" result="hardAlpha"/>
<feOffset dx="-4" dy="-4"/>
<feGaussianBlur stdDeviation="6"/>
<feComposite in2="hardAlpha" operator="out"/>
<feColorMatrix type="matrix" values="0 0 0 0 1 0 0 0 0 1 0 0 0 0 1 0 0 0 0.5 0"/>
<feBlend mode="normal" in2="effect1_dropShadow_10_1145" result="effect2_dropShadow_10_1145"/>
<feBlend mode="normal" in="SourceGraphic" in2="effect2_dropShadow_10_1145" result="shape"/>
</filter>
<filter id="filter9_dd_10_1145" x="56" y="554" width="315" height="72" filterUnits="userSpaceOnUse" color-interpolation-filters="sRGB">
<feFlood flood-opacity="0" result="BackgroundImageFix"/>
<feColorMatrix in="SourceAlpha" type="matrix" values="0 0 0 0 0 0 0 0 0 0 0 0 0 0 0 0 0 0 127 0" result="hardAlpha"/>
<feOffset dx="4" dy="4"/>
<feGaussianBlur stdDeviation="6"/>
<feComposite in2="hardAlpha" operator="out"/>
<feColorMatrix type="matrix" values="0 0 0 0 0 0 0 0 0 0 0 0 0 0 0 0 0 0 0.11 0"/>
<feBlend mode="normal" in2="BackgroundImageFix" result="effect1_dropShadow_10_1145"/>
<feColorMatrix in="SourceAlpha" type="matrix" values="0 0 0 0 0 0 0 0 0 0 0 0 0 0 0 0 0 0 127 0" result="hardAlpha"/>
<feOffset dx="-4" dy="-4"/>
<feGaussianBlur stdDeviation="6"/>
<feComposite in2="hardAlpha" operator="out"/>
<feColorMatrix type="matrix" values="0 0 0 0 1 0 0 0 0 1 0 0 0 0 1 0 0 0 0.5 0"/>
<feBlend mode="normal" in2="effect1_dropShadow_10_1145" result="effect2_dropShadow_10_1145"/>
<feBlend mode="normal" in="SourceGraphic" in2="effect2_dropShadow_10_1145" result="shape"/>
</filter>
<filter id="filter10_dd_10_1145" x="291" y="567" width="71" height="45" filterUnits="userSpaceOnUse" color-interpolation-filters="sRGB">
<feFlood flood-opacity="0" result="BackgroundImageFix"/>
<feColorMatrix in="SourceAlpha" type="matrix" values="0 0 0 0 0 0 0 0 0 0 0 0 0 0 0 0 0 0 127 0" result="hardAlpha"/>
<feOffset dx="4" dy="4"/>
<feGaussianBlur stdDeviation="6"/>
<feComposite in2="hardAlpha" operator="out"/>
<feColorMatrix type="matrix" values="0 0 0 0 0 0 0 0 0 0 0 0 0 0 0 0 0 0 0.11 0"/>
<feBlend mode="normal" in2="BackgroundImageFix" result="effect1_dropShadow_10_1145"/>
<feColorMatrix in="SourceAlpha" type="matrix" values="0 0 0 0 0 0 0 0 0 0 0 0 0 0 0 0 0 0 127 0" result="hardAlpha"/>
<feOffset dx="-4" dy="-4"/>
<feGaussianBlur stdDeviation="6"/>
<feComposite in2="hardAlpha" operator="out"/>
<feColorMatrix type="matrix" values="0 0 0 0 1 0 0 0 0 1 0 0 0 0 1 0 0 0 0.5 0"/>
<feBlend mode="normal" in2="effect1_dropShadow_10_1145" result="effect2_dropShadow_10_1145"/>
<feBlend mode="normal" in="SourceGraphic" in2="effect2_dropShadow_10_1145" result="shape"/>
</filter>
<filter id="filter11_dd_10_1145" x="56" y="620" width="315" height="72" filterUnits="userSpaceOnUse" color-interpolation-filters="sRGB">
<feFlood flood-opacity="0" result="BackgroundImageFix"/>
<feColorMatrix in="SourceAlpha" type="matrix" values="0 0 0 0 0 0 0 0 0 0 0 0 0 0 0 0 0 0 127 0" result="hardAlpha"/>
<feOffset dx="4" dy="4"/>
<feGaussianBlur stdDeviation="6"/>
<feComposite in2="hardAlpha" operator="out"/>
<feColorMatrix type="matrix" values="0 0 0 0 0 0 0 0 0 0 0 0 0 0 0 0 0 0 0.11 0"/>
<feBlend mode="normal" in2="BackgroundImageFix" result="effect1_dropShadow_10_1145"/>
<feColorMatrix in="SourceAlpha" type="matrix" values="0 0 0 0 0 0 0 0 0 0 0 0 0 0 0 0 0 0 127 0" result="hardAlpha"/>
<feOffset dx="-4" dy="-4"/>
<feGaussianBlur stdDeviation="6"/>
<feComposite in2="hardAlpha" operator="out"/>
<feColorMatrix type="matrix" values="0 0 0 0 1 0 0 0 0 1 0 0 0 0 1 0 0 0 0.5 0"/>
<feBlend mode="normal" in2="effect1_dropShadow_10_1145" result="effect2_dropShadow_10_1145"/>
<feBlend mode="normal" in="SourceGraphic" in2="effect2_dropShadow_10_1145" result="shape"/>
</filter>
<filter id="filter12_dd_10_1145" x="291" y="633" width="71" height="45" filterUnits="userSpaceOnUse" color-interpolation-filters="sRGB">
<feFlood flood-opacity="0" result="BackgroundImageFix"/>
<feColorMatrix in="SourceAlpha" type="matrix" values="0 0 0 0 0 0 0 0 0 0 0 0 0 0 0 0 0 0 127 0" result="hardAlpha"/>
<feOffset dx="4" dy="4"/>
<feGaussianBlur stdDeviation="6"/>
<feComposite in2="hardAlpha" operator="out"/>
<feColorMatrix type="matrix" values="0 0 0 0 0 0 0 0 0 0 0 0 0 0 0 0 0 0 0.11 0"/>
<feBlend mode="normal" in2="BackgroundImageFix" result="effect1_dropShadow_10_1145"/>
<feColorMatrix in="SourceAlpha" type="matrix" values="0 0 0 0 0 0 0 0 0 0 0 0 0 0 0 0 0 0 127 0" result="hardAlpha"/>
<feOffset dx="-4" dy="-4"/>
<feGaussianBlur stdDeviation="6"/>
<feComposite in2="hardAlpha" operator="out"/>
<feColorMatrix type="matrix" values="0 0 0 0 1 0 0 0 0 1 0 0 0 0 1 0 0 0 0.5 0"/>
<feBlend mode="normal" in2="effect1_dropShadow_10_1145" result="effect2_dropShadow_10_1145"/>
<feBlend mode="normal" in="SourceGraphic" in2="effect2_dropShadow_10_1145" result="shape"/>
</filter>
<filter id="filter13_dd_10_1145" x="56" y="686" width="315" height="72" filterUnits="userSpaceOnUse" color-interpolation-filters="sRGB">
<feFlood flood-opacity="0" result="BackgroundImageFix"/>
<feColorMatrix in="SourceAlpha" type="matrix" values="0 0 0 0 0 0 0 0 0 0 0 0 0 0 0 0 0 0 127 0" result="hardAlpha"/>
<feOffset dx="4" dy="4"/>
<feGaussianBlur stdDeviation="6"/>
<feComposite in2="hardAlpha" operator="out"/>
<feColorMatrix type="matrix" values="0 0 0 0 0 0 0 0 0 0 0 0 0 0 0 0 0 0 0.11 0"/>
<feBlend mode="normal" in2="BackgroundImageFix" result="effect1_dropShadow_10_1145"/>
<feColorMatrix in="SourceAlpha" type="matrix" values="0 0 0 0 0 0 0 0 0 0 0 0 0 0 0 0 0 0 127 0" result="hardAlpha"/>
<feOffset dx="-4" dy="-4"/>
<feGaussianBlur stdDeviation="6"/>
<feComposite in2="hardAlpha" operator="out"/>
<feColorMatrix type="matrix" values="0 0 0 0 1 0 0 0 0 1 0 0 0 0 1 0 0 0 0.5 0"/>
<feBlend mode="normal" in2="effect1_dropShadow_10_1145" result="effect2_dropShadow_10_1145"/>
<feBlend mode="normal" in="SourceGraphic" in2="effect2_dropShadow_10_1145" result="shape"/>
</filter>
<filter id="filter14_dd_10_1145" x="291" y="700" width="71" height="45" filterUnits="userSpaceOnUse" color-interpolation-filters="sRGB">
<feFlood flood-opacity="0" result="BackgroundImageFix"/>
<feColorMatrix in="SourceAlpha" type="matrix" values="0 0 0 0 0 0 0 0 0 0 0 0 0 0 0 0 0 0 127 0" result="hardAlpha"/>
<feOffset dx="4" dy="4"/>
<feGaussianBlur stdDeviation="6"/>
<feComposite in2="hardAlpha" operator="out"/>
<feColorMatrix type="matrix" values="0 0 0 0 0 0 0 0 0 0 0 0 0 0 0 0 0 0 0.11 0"/>
<feBlend mode="normal" in2="BackgroundImageFix" result="effect1_dropShadow_10_1145"/>
<feColorMatrix in="SourceAlpha" type="matrix" values="0 0 0 0 0 0 0 0 0 0 0 0 0 0 0 0 0 0 127 0" result="hardAlpha"/>
<feOffset dx="-4" dy="-4"/>
<feGaussianBlur stdDeviation="6"/>
<feComposite in2="hardAlpha" operator="out"/>
<feColorMatrix type="matrix" values="0 0 0 0 1 0 0 0 0 1 0 0 0 0 1 0 0 0 0.5 0"/>
<feBlend mode="normal" in2="effect1_dropShadow_10_1145" result="effect2_dropShadow_10_1145"/>
<feBlend mode="normal" in="SourceGraphic" in2="effect2_dropShadow_10_1145" result="shape"/>
</filter>
<filter id="filter15_dd_10_1145" x="56" y="752" width="315" height="72" filterUnits="userSpaceOnUse" color-interpolation-filters="sRGB">
<feFlood flood-opacity="0" result="BackgroundImageFix"/>
<feColorMatrix in="SourceAlpha" type="matrix" values="0 0 0 0 0 0 0 0 0 0 0 0 0 0 0 0 0 0 127 0" result="hardAlpha"/>
<feOffset dx="4" dy="4"/>
<feGaussianBlur stdDeviation="6"/>
<feComposite in2="hardAlpha" operator="out"/>
<feColorMatrix type="matrix" values="0 0 0 0 0 0 0 0 0 0 0 0 0 0 0 0 0 0 0.11 0"/>
<feBlend mode="normal" in2="BackgroundImageFix" result="effect1_dropShadow_10_1145"/>
<feColorMatrix in="SourceAlpha" type="matrix" values="0 0 0 0 0 0 0 0 0 0 0 0 0 0 0 0 0 0 127 0" result="hardAlpha"/>
<feOffset dx="-4" dy="-4"/>
<feGaussianBlur stdDeviation="6"/>
<feComposite in2="hardAlpha" operator="out"/>
<feColorMatrix type="matrix" values="0 0 0 0 1 0 0 0 0 1 0 0 0 0 1 0 0 0 0.5 0"/>
<feBlend mode="normal" in2="effect1_dropShadow_10_1145" result="effect2_dropShadow_10_1145"/>
<feBlend mode="normal" in="SourceGraphic" in2="effect2_dropShadow_10_1145" result="shape"/>
</filter>
<filter id="filter16_d_10_1145" x="291" y="766" width="63" height="37" filterUnits="userSpaceOnUse" color-interpolation-filters="sRGB">
<feFlood flood-opacity="0" result="BackgroundImageFix"/>
<feColorMatrix in="SourceAlpha" type="matrix" values="0 0 0 0 0 0 0 0 0 0 0 0 0 0 0 0 0 0 127 0" result="hardAlpha"/>
<feOffset dx="-4" dy="-4"/>
<feGaussianBlur stdDeviation="6"/>
<feComposite in2="hardAlpha" operator="out"/>
<feColorMatrix type="matrix" values="0 0 0 0 1 0 0 0 0 1 0 0 0 0 1 0 0 0 0.5 0"/>
<feBlend mode="normal" in2="BackgroundImageFix" result="effect1_dropShadow_10_1145"/>
<feBlend mode="normal" in="SourceGraphic" in2="effect1_dropShadow_10_1145" result="shape"/>
</filter>
<linearGradient id="paint0_linear_10_1145" x1="265.5" y1="510.5" x2="346" y2="528" gradientUnits="userSpaceOnUse">
<stop stop-color="#598690"/>
<stop offset="0.637715" stop-color="white"/>
<stop offset="1" stop-color="white"/>
</linearGradient>
<linearGradient id="paint1_linear_10_1145" x1="265.5" y1="575.5" x2="346" y2="593" gradientUnits="userSpaceOnUse">
<stop stop-color="#598690"/>
<stop offset="0.637715" stop-color="white"/>
<stop offset="1" stop-color="white"/>
</linearGradient>
<linearGradient id="paint2_linear_10_1145" x1="265.5" y1="641.5" x2="346" y2="659" gradientUnits="userSpaceOnUse">
<stop stop-color="#598690"/>
<stop offset="0.637715" stop-color="white"/>
<stop offset="1" stop-color="white"/>
</linearGradient>
<linearGradient id="paint3_linear_10_1145" x1="265.5" y1="708.5" x2="346" y2="726" gradientUnits="userSpaceOnUse">
<stop stop-color="#598690"/>
<stop offset="0.637715" stop-color="white"/>
<stop offset="1" stop-color="white"/>
</linearGradient>
<linearGradient id="paint4_linear_10_1145" x1="265.5" y1="774.5" x2="346" y2="792" gradientUnits="userSpaceOnUse">
<stop stop-color="#598690"/>
<stop offset="0.637715" stop-color="white"/>
<stop offset="1" stop-color="white"/>
</linearGradient>
<clipPath id="clip0_10_1145">
<rect width="427" height="287" fill="white" transform="translate(0 481)"/>
</clipPath>
</defs>
</svg>
