<svg width="428" height="926" viewBox="0 0 428 926" fill="none" xmlns="http://www.w3.org/2000/svg">
<rect width="428" height="926" fill="#EBEBEB"/>
<path d="M156.549 102.424C156.42 102.295 156.348 102.12 156.348 101.938C156.348 101.756 156.42 101.581 156.549 101.452L162.938 95.0625L163.034 94.9814C163.166 94.8904 163.326 94.8487 163.486 94.8635C163.646 94.8783 163.796 94.9487 163.91 95.0625L163.989 95.1587C164.081 95.2913 164.123 95.4515 164.108 95.6118C164.093 95.772 164.023 95.9221 163.91 96.036L158.696 101.25H173.938C174.12 101.25 174.295 101.322 174.424 101.451C174.553 101.58 174.625 101.755 174.625 101.937C174.625 102.12 174.553 102.295 174.424 102.424C174.295 102.553 174.12 102.625 173.938 102.625H157.035C156.853 102.625 156.678 102.553 156.549 102.424ZM155.375 106.062C155.375 105.88 155.447 105.705 155.576 105.576C155.705 105.447 155.88 105.375 156.062 105.375H172.965C173.101 105.375 173.234 105.415 173.347 105.491C173.46 105.566 173.548 105.673 173.6 105.799C173.652 105.924 173.666 106.063 173.64 106.196C173.613 106.329 173.548 106.452 173.452 106.548L167.062 112.938L166.966 113.019C166.825 113.114 166.653 113.154 166.484 113.13C166.315 113.105 166.161 113.02 166.052 112.888C165.942 112.757 165.886 112.59 165.893 112.42C165.9 112.249 165.97 112.087 166.089 111.965L171.309 106.75H156.062C155.88 106.75 155.705 106.678 155.576 106.549C155.447 106.42 155.375 106.245 155.375 106.062Z" fill="#0D4F5E"/>
<path d="M58.32 114V95.61H51.12V93H68.49V95.61H61.29V114H58.32ZM71.3374 114V98.1H74.2174V114H71.3374ZM72.7774 95.04C72.2174 95.04 71.7474 94.86 71.3674 94.5C71.0074 94.14 70.8274 93.7 70.8274 93.18C70.8274 92.64 71.0074 92.19 71.3674 91.83C71.7474 91.47 72.2174 91.29 72.7774 91.29C73.3374 91.29 73.7974 91.47 74.1574 91.83C74.5374 92.17 74.7274 92.6 74.7274 93.12C74.7274 93.66 74.5474 94.12 74.1874 94.5C73.8274 94.86 73.3574 95.04 72.7774 95.04ZM99.6063 97.95C100.886 97.95 102.016 98.2 102.996 98.7C103.976 99.2 104.736 99.96 105.276 100.98C105.836 102 106.116 103.29 106.116 104.85V114H103.236V105.18C103.236 103.64 102.876 102.48 102.156 101.7C101.436 100.92 100.426 100.53 99.1263 100.53C98.1663 100.53 97.3263 100.73 96.6063 101.13C95.8863 101.53 95.3263 102.12 94.9263 102.9C94.5463 103.68 94.3563 104.65 94.3563 105.81V114H91.4763V105.18C91.4763 103.64 91.1163 102.48 90.3963 101.7C89.6963 100.92 88.6863 100.53 87.3663 100.53C86.4263 100.53 85.5963 100.73 84.8763 101.13C84.1563 101.53 83.5963 102.12 83.1963 102.9C82.7963 103.68 82.5963 104.65 82.5963 105.81V114H79.7163V98.1H82.4763V102.33L82.0263 101.25C82.5263 100.21 83.2963 99.4 84.3363 98.82C85.3763 98.24 86.5863 97.95 87.9663 97.95C89.4863 97.95 90.7963 98.33 91.8963 99.09C92.9963 99.83 93.7163 100.96 94.0563 102.48L92.8863 102C93.3663 100.78 94.2063 99.8 95.4063 99.06C96.6063 98.32 98.0063 97.95 99.6063 97.95ZM118.496 114.18C116.796 114.18 115.296 113.83 113.996 113.13C112.716 112.43 111.716 111.47 110.996 110.25C110.296 109.03 109.946 107.63 109.946 106.05C109.946 104.47 110.286 103.07 110.966 101.85C111.666 100.63 112.616 99.68 113.816 99C115.036 98.3 116.406 97.95 117.926 97.95C119.466 97.95 120.826 98.29 122.006 98.97C123.186 99.65 124.106 100.61 124.766 101.85C125.446 103.07 125.786 104.5 125.786 106.14C125.786 106.26 125.776 106.4 125.756 106.56C125.756 106.72 125.746 106.87 125.726 107.01H112.196V104.94H124.226L123.056 105.66C123.076 104.64 122.866 103.73 122.426 102.93C121.986 102.13 121.376 101.51 120.596 101.07C119.836 100.61 118.946 100.38 117.926 100.38C116.926 100.38 116.036 100.61 115.256 101.07C114.476 101.51 113.866 102.14 113.426 102.96C112.986 103.76 112.766 104.68 112.766 105.72V106.2C112.766 107.26 113.006 108.21 113.486 109.05C113.986 109.87 114.676 110.51 115.556 110.97C116.436 111.43 117.446 111.66 118.586 111.66C119.526 111.66 120.376 111.5 121.136 111.18C121.916 110.86 122.596 110.38 123.176 109.74L124.766 111.6C124.046 112.44 123.146 113.08 122.066 113.52C121.006 113.96 119.816 114.18 118.496 114.18ZM129.785 114V98.1H132.545V102.42L132.275 101.34C132.715 100.24 133.455 99.4 134.495 98.82C135.535 98.24 136.815 97.95 138.335 97.95V100.74C138.215 100.72 138.095 100.71 137.975 100.71C137.875 100.71 137.775 100.71 137.675 100.71C136.135 100.71 134.915 101.17 134.015 102.09C133.115 103.01 132.665 104.34 132.665 106.08V114H129.785Z" fill="#002232"/>
<g filter="url(#filter0_dd_10_1365)">
<rect x="136" y="803" width="56.3228" height="56" rx="15.5556" fill="#EBEBEB"/>
</g>
<path d="M164.713 826.176H162.827V833.719L168.798 837.301L169.741 835.755L164.713 832.776V826.176ZM170.793 818.395L176.585 823.228L174.976 825.158L169.181 820.327L170.793 818.395ZM157.375 818.395L158.987 820.326L153.194 825.158L151.585 823.227L157.375 818.395ZM164.084 821.148C157.837 821.148 152.771 826.214 152.771 832.461C152.771 838.709 157.837 843.775 164.084 843.775C170.332 843.775 175.398 838.709 175.398 832.461C175.398 826.214 170.332 821.148 164.084 821.148ZM164.084 841.261C159.232 841.261 155.285 837.314 155.285 832.461C155.285 827.609 159.232 823.662 164.084 823.662C168.937 823.662 172.884 827.609 172.884 832.461C172.884 837.314 168.937 841.261 164.084 841.261Z" fill="#117B7D"/>
<g filter="url(#filter1_ii_10_1365)">
<rect x="234" y="803" width="56.3228" height="56" rx="15.5556" fill="#EBEBEB"/>
</g>
<path d="M276 843C276 843 278 843 278 841C278 839 276 833 268 833C260 833 258 839 258 841C258 843 260 843 260 843H276ZM260.044 841C260.029 840.998 260.015 840.995 260 840.992C260.002 840.464 260.334 838.932 261.52 837.552C262.624 836.258 264.564 835 268 835C271.434 835 273.374 836.26 274.48 837.552C275.666 838.932 275.996 840.466 276 840.992L275.984 840.996C275.975 840.998 275.965 840.999 275.956 841H260.044ZM268 829C269.061 829 270.078 828.579 270.828 827.828C271.579 827.078 272 826.061 272 825C272 823.939 271.579 822.922 270.828 822.172C270.078 821.421 269.061 821 268 821C266.939 821 265.922 821.421 265.172 822.172C264.421 822.922 264 823.939 264 825C264 826.061 264.421 827.078 265.172 827.828C265.922 828.579 266.939 829 268 829ZM274 825C274 825.788 273.845 826.568 273.543 827.296C273.242 828.024 272.8 828.685 272.243 829.243C271.685 829.8 271.024 830.242 270.296 830.543C269.568 830.845 268.788 831 268 831C267.212 831 266.432 830.845 265.704 830.543C264.976 830.242 264.315 829.8 263.757 829.243C263.2 828.685 262.758 828.024 262.457 827.296C262.155 826.568 262 825.788 262 825C262 823.409 262.632 821.883 263.757 820.757C264.883 819.632 266.409 819 268 819C269.591 819 271.117 819.632 272.243 820.757C273.368 821.883 274 823.409 274 825ZM259.872 833.56C259.072 833.308 258.247 833.142 257.412 833.066C256.943 833.021 256.471 832.999 256 833C248 833 246 839 246 841C246 842.334 246.666 843 248 843H256.432C256.136 842.376 255.988 841.691 256 841C256 838.98 256.754 836.916 258.18 835.192C258.666 834.604 259.232 834.054 259.872 833.56ZM255.84 835C254.656 836.779 254.017 838.864 254 841H248C248 840.48 248.328 838.94 249.52 837.552C250.61 836.28 252.504 835.04 255.84 835.002V835ZM249 826C249 824.409 249.632 822.883 250.757 821.757C251.883 820.632 253.409 820 255 820C256.591 820 258.117 820.632 259.243 821.757C260.368 822.883 261 824.409 261 826C261 827.591 260.368 829.117 259.243 830.243C258.117 831.368 256.591 832 255 832C253.409 832 251.883 831.368 250.757 830.243C249.632 829.117 249 827.591 249 826ZM255 822C253.939 822 252.922 822.421 252.172 823.172C251.421 823.922 251 824.939 251 826C251 827.061 251.421 828.078 252.172 828.828C252.922 829.579 253.939 830 255 830C256.061 830 257.078 829.579 257.828 828.828C258.579 828.078 259 827.061 259 826C259 824.939 258.579 823.922 257.828 823.172C257.078 822.421 256.061 822 255 822Z" fill="#117B7D"/>
<g filter="url(#filter2_dd_10_1365)">
<rect x="39" y="803" width="56.3228" height="56" rx="15.5556" fill="#EBEBEB"/>
</g>
<path d="M68.2787 829.551L67.9999 829.826L67.7199 829.551C67.1996 829.038 66.4979 828.75 65.7668 828.75C65.0357 828.75 64.334 829.038 63.8137 829.551C63.5555 829.8 63.35 830.098 63.2097 830.427C63.0694 830.757 62.9971 831.112 62.9971 831.47C62.9971 831.828 63.0694 832.183 63.2097 832.513C63.35 832.842 63.5555 833.14 63.8137 833.389L67.9999 837.5L72.1862 833.389C72.4444 833.14 72.6498 832.842 72.7901 832.513C72.9305 832.183 73.0028 831.828 73.0028 831.47C73.0028 831.112 72.9305 830.757 72.7901 830.427C72.6498 830.098 72.4444 829.8 72.1862 829.551C71.6657 829.038 70.9638 828.749 70.2324 828.749C69.5011 828.749 68.7992 829.038 68.2787 829.551Z" fill="#117B7D"/>
<path d="M80.1337 829.116L68.8837 817.866C68.7677 817.75 68.63 817.658 68.4783 817.595C68.3267 817.532 68.1641 817.5 68 817.5C67.8358 817.5 67.6733 817.532 67.5216 817.595C67.37 817.658 67.2322 817.75 67.1162 817.866L55.8662 829.116C55.6915 829.291 55.5725 829.514 55.5242 829.756C55.476 829.999 55.5008 830.25 55.5954 830.478C55.69 830.707 55.8501 830.902 56.0557 831.039C56.2612 831.177 56.5028 831.25 56.75 831.25H58V840C58 841.379 59.1212 842.5 60.5 842.5H75.5C76.8787 842.5 78 841.379 78 840V831.25H79.25C79.4972 831.25 79.7388 831.177 79.9443 831.039C80.1498 830.902 80.31 830.707 80.4046 830.478C80.4992 830.25 80.5239 829.999 80.4757 829.756C80.4275 829.514 80.3085 829.291 80.1337 829.116ZM75.5012 840H60.5V828.019L68 820.519L75.5 828.019V833.75L75.5012 840Z" fill="#117B7D"/>
<g filter="url(#filter3_dd_10_1365)">
<rect x="331" y="803" width="56.3228" height="56" rx="15.5556" fill="#EBEBEB"/>
</g>
<path d="M351.542 818.514V826.057H351.555L351.542 826.069L356.571 831.085L351.542 836.113L351.555 836.126H351.542V843.656H366.627V836.126H366.615L366.627 836.113L361.599 831.085L366.627 826.069L366.615 826.057H366.627V818.514H351.542ZM364.113 836.742V841.142H354.057V836.742L359.085 831.714L364.113 836.742ZM359.085 830.456L354.057 825.428V821.028H364.113V825.428L359.085 830.456Z" fill="#117B7D"/>
<g filter="url(#filter4_dd_10_1365)">
<rect x="72" y="478" width="129" height="40" rx="10" fill="#EBEBEB"/>
</g>
<path d="M108.5 498.54C108.28 498.54 108.05 498.54 107.81 498.54C107.59 498.54 107.35 498.53 107.09 498.51V507H103.64V487.2C103.96 487.18 104.32 487.16 104.72 487.14C105.14 487.12 105.56 487.11 105.98 487.11C106.4 487.09 106.79 487.08 107.15 487.08C107.53 487.06 107.83 487.05 108.05 487.05C110.61 487.05 112.56 487.54 113.9 488.52C115.24 489.48 115.91 490.89 115.91 492.75C115.91 493.93 115.62 494.99 115.04 495.93C114.46 496.87 113.49 497.57 112.13 498.03L119.39 507H115.4L108.5 498.54ZM108.35 489.93C108.19 489.93 108 489.93 107.78 489.93C107.56 489.93 107.33 489.94 107.09 489.96V495.66H108.95C110.03 495.66 110.85 495.39 111.41 494.85C111.97 494.31 112.25 493.54 112.25 492.54C112.25 491.64 111.97 490.98 111.41 490.56C110.87 490.14 109.85 489.93 108.35 489.93ZM127.006 492.75C128.766 492.75 130.126 493.2 131.086 494.1C132.046 494.98 132.526 496.23 132.526 497.85C132.526 498.07 132.506 498.31 132.466 498.57C132.446 498.81 132.406 499.05 132.346 499.29C132.306 499.53 132.246 499.75 132.166 499.95C132.106 500.13 132.036 500.28 131.956 500.4H123.226C123.266 501 123.376 501.57 123.556 502.11C123.736 502.63 123.996 503.09 124.336 503.49C124.676 503.87 125.086 504.18 125.566 504.42C126.066 504.64 126.646 504.75 127.306 504.75C128.046 504.75 128.826 504.61 129.646 504.33C130.486 504.05 131.196 503.7 131.776 503.28L132.316 505.74C132.056 505.9 131.736 506.08 131.356 506.28C130.976 506.46 130.546 506.63 130.066 506.79C129.586 506.95 129.066 507.08 128.506 507.18C127.966 507.3 127.396 507.36 126.796 507.36C125.676 507.36 124.686 507.17 123.826 506.79C122.966 506.39 122.246 505.86 121.666 505.2C121.086 504.52 120.646 503.74 120.346 502.86C120.046 501.98 119.896 501.06 119.896 500.1C119.896 499.12 120.046 498.19 120.346 497.31C120.666 496.41 121.126 495.62 121.726 494.94C122.326 494.26 123.066 493.73 123.946 493.35C124.846 492.95 125.866 492.75 127.006 492.75ZM126.916 495.33C126.076 495.33 125.356 495.58 124.756 496.08C124.176 496.56 123.756 497.22 123.496 498.06H129.226C129.246 498 129.256 497.93 129.256 497.85C129.276 497.77 129.286 497.67 129.286 497.55C129.286 496.91 129.066 496.38 128.626 495.96C128.186 495.54 127.616 495.33 126.916 495.33ZM140.083 495.21C139.423 495.21 138.903 495.34 138.523 495.6C138.163 495.84 137.983 496.19 137.983 496.65C137.983 496.95 138.083 497.23 138.283 497.49C138.503 497.73 138.953 497.93 139.633 498.09L141.763 498.57C142.603 498.75 143.273 499.01 143.773 499.35C144.293 499.69 144.693 500.06 144.973 500.46C145.273 500.86 145.473 501.27 145.573 501.69C145.673 502.11 145.723 502.5 145.723 502.86C145.723 503.5 145.593 504.1 145.333 504.66C145.073 505.2 144.703 505.67 144.223 506.07C143.743 506.47 143.163 506.78 142.483 507C141.803 507.24 141.043 507.36 140.203 507.36C139.143 507.36 138.163 507.21 137.263 506.91C136.363 506.59 135.643 506.24 135.103 505.86L135.883 503.01C136.563 503.67 137.323 504.16 138.163 504.48C139.023 504.8 139.813 504.96 140.533 504.96C141.293 504.96 141.873 504.8 142.273 504.48C142.673 504.14 142.873 503.68 142.873 503.1C142.873 502.76 142.773 502.48 142.573 502.26C142.373 502.02 141.973 501.82 141.373 501.66L138.493 500.94C137.813 500.78 137.253 500.55 136.813 500.25C136.393 499.95 136.053 499.62 135.792 499.26C135.553 498.88 135.383 498.49 135.283 498.09C135.203 497.69 135.163 497.31 135.163 496.95C135.163 495.61 135.633 494.58 136.573 493.86C137.513 493.12 138.733 492.75 140.233 492.75C141.013 492.75 141.853 492.86 142.753 493.08C143.653 493.28 144.413 493.58 145.033 493.98L144.163 496.68C143.763 496.36 143.203 496.04 142.483 495.72C141.763 495.38 140.963 495.21 140.083 495.21ZM155.131 492.75C156.891 492.75 158.251 493.2 159.211 494.1C160.171 494.98 160.651 496.23 160.651 497.85C160.651 498.07 160.631 498.31 160.591 498.57C160.571 498.81 160.531 499.05 160.471 499.29C160.431 499.53 160.371 499.75 160.291 499.95C160.231 500.13 160.161 500.28 160.081 500.4H151.351C151.391 501 151.501 501.57 151.681 502.11C151.861 502.63 152.121 503.09 152.461 503.49C152.801 503.87 153.211 504.18 153.691 504.42C154.191 504.64 154.771 504.75 155.431 504.75C156.171 504.75 156.951 504.61 157.771 504.33C158.611 504.05 159.321 503.7 159.901 503.28L160.441 505.74C160.181 505.9 159.861 506.08 159.481 506.28C159.101 506.46 158.671 506.63 158.191 506.79C157.711 506.95 157.191 507.08 156.631 507.18C156.091 507.3 155.521 507.36 154.921 507.36C153.801 507.36 152.811 507.17 151.951 506.79C151.091 506.39 150.371 505.86 149.791 505.2C149.211 504.52 148.771 503.74 148.471 502.86C148.171 501.98 148.021 501.06 148.021 500.1C148.021 499.12 148.171 498.19 148.471 497.31C148.791 496.41 149.251 495.62 149.851 494.94C150.451 494.26 151.191 493.73 152.071 493.35C152.971 492.95 153.991 492.75 155.131 492.75ZM155.041 495.33C154.201 495.33 153.481 495.58 152.881 496.08C152.301 496.56 151.881 497.22 151.621 498.06H157.351C157.371 498 157.381 497.93 157.381 497.85C157.401 497.77 157.411 497.67 157.411 497.55C157.411 496.91 157.191 496.38 156.751 495.96C156.311 495.54 155.741 495.33 155.041 495.33ZM164.638 495.21H162.927V493.41L164.878 493.11L165.418 489.03H167.938V493.2H170.578V495.21H167.938V503.13C167.938 503.73 167.998 504.14 168.118 504.36C168.238 504.56 168.468 504.66 168.808 504.66C169.068 504.66 169.328 504.61 169.588 504.51C169.848 504.41 170.228 504.22 170.728 503.94L171.268 506.31C170.888 506.63 170.348 506.88 169.647 507.06C168.968 507.26 168.288 507.36 167.608 507.36C167.008 507.36 166.508 507.28 166.108 507.12C165.728 506.96 165.428 506.73 165.208 506.43C164.988 506.11 164.838 505.73 164.758 505.29C164.678 504.85 164.638 504.36 164.638 503.82V495.21Z" fill="url(#paint0_linear_10_1365)"/>
<g filter="url(#filter5_dd_10_1365)">
<rect x="72" y="563" width="283" height="40" rx="10" fill="#EBEBEB"/>
</g>
<path d="M333 589L339 583L333 577" stroke="#0E505F" stroke-width="2" stroke-linecap="round" stroke-linejoin="round"/>
<path d="M98.328 588H96.618L93.378 578.964L90.156 588H88.446L84.018 576.12H86.268L89.31 585.336L92.37 576.12H94.404L97.446 585.336L100.488 576.12H102.738L98.328 588ZM105.978 580.944C106.314 580.416 106.704 580.038 107.148 579.81C107.604 579.57 108.138 579.45 108.75 579.45C109.11 579.45 109.458 579.504 109.794 579.612C110.13 579.708 110.424 579.87 110.676 580.098C110.94 580.326 111.144 580.626 111.288 580.998C111.444 581.37 111.522 581.826 111.522 582.366V588H109.542V582.528C109.542 582.036 109.434 581.67 109.218 581.43C109.002 581.178 108.708 581.052 108.336 581.052C108.108 581.052 107.868 581.088 107.616 581.16C107.376 581.232 107.148 581.34 106.932 581.484C106.716 581.628 106.524 581.802 106.356 582.006C106.188 582.21 106.062 582.438 105.978 582.69V588H103.998V574.68H105.978V580.944ZM117.692 579.45C118.748 579.45 119.564 579.72 120.14 580.26C120.716 580.788 121.004 581.538 121.004 582.51C121.004 582.642 120.992 582.786 120.968 582.942C120.956 583.086 120.932 583.23 120.896 583.374C120.872 583.518 120.836 583.65 120.788 583.77C120.752 583.878 120.71 583.968 120.662 584.04H115.424C115.448 584.4 115.514 584.742 115.622 585.066C115.73 585.378 115.886 585.654 116.09 585.894C116.294 586.122 116.54 586.308 116.828 586.452C117.128 586.584 117.476 586.65 117.872 586.65C118.316 586.65 118.784 586.566 119.276 586.398C119.78 586.23 120.206 586.02 120.554 585.768L120.878 587.244C120.722 587.34 120.53 587.448 120.302 587.568C120.074 587.676 119.816 587.778 119.528 587.874C119.24 587.97 118.928 588.048 118.592 588.108C118.268 588.18 117.926 588.216 117.566 588.216C116.894 588.216 116.3 588.102 115.784 587.874C115.268 587.634 114.836 587.316 114.488 586.92C114.14 586.512 113.876 586.044 113.696 585.516C113.516 584.988 113.426 584.436 113.426 583.86C113.426 583.272 113.516 582.714 113.696 582.186C113.888 581.646 114.164 581.172 114.524 580.764C114.884 580.356 115.328 580.038 115.856 579.81C116.396 579.57 117.008 579.45 117.692 579.45ZM117.638 580.998C117.134 580.998 116.702 581.148 116.342 581.448C115.994 581.736 115.742 582.132 115.586 582.636H119.024C119.036 582.6 119.042 582.558 119.042 582.51C119.054 582.462 119.06 582.402 119.06 582.33C119.06 581.946 118.928 581.628 118.664 581.376C118.4 581.124 118.058 580.998 117.638 580.998ZM128.561 588V582.528C128.561 581.544 128.141 581.052 127.301 581.052C127.097 581.052 126.875 581.088 126.635 581.16C126.407 581.232 126.185 581.34 125.969 581.484C125.753 581.616 125.555 581.784 125.375 581.988C125.207 582.192 125.081 582.426 124.997 582.69V588H123.017V579.72H124.565L124.655 580.944H124.727C124.979 580.44 125.369 580.068 125.897 579.828C126.437 579.576 127.013 579.45 127.625 579.45C128.021 579.45 128.393 579.504 128.741 579.612C129.089 579.708 129.395 579.87 129.659 580.098C129.935 580.326 130.151 580.626 130.307 580.998C130.463 581.37 130.541 581.826 130.541 582.366V588H128.561ZM137.651 580.926H136.625V579.846L137.795 579.666L138.119 577.218H139.631V579.72H141.215V580.926H139.631V585.678C139.631 586.038 139.667 586.284 139.739 586.416C139.811 586.536 139.949 586.596 140.153 586.596C140.309 586.596 140.465 586.566 140.621 586.506C140.777 586.446 141.005 586.332 141.305 586.164L141.629 587.586C141.401 587.778 141.077 587.928 140.657 588.036C140.249 588.156 139.841 588.216 139.433 588.216C139.073 588.216 138.773 588.168 138.533 588.072C138.305 587.976 138.125 587.838 137.993 587.658C137.861 587.466 137.771 587.238 137.723 586.974C137.675 586.71 137.651 586.416 137.651 586.092V580.926ZM145.23 588H143.25V579.72H145.23V588ZM142.962 577.056C142.962 576.888 142.992 576.726 143.052 576.57C143.124 576.414 143.22 576.276 143.34 576.156C143.46 576.024 143.592 575.922 143.736 575.85C143.892 575.778 144.06 575.742 144.24 575.742C144.408 575.742 144.57 575.778 144.726 575.85C144.882 575.922 145.02 576.024 145.14 576.156C145.272 576.276 145.374 576.414 145.446 576.57C145.518 576.726 145.554 576.888 145.554 577.056C145.554 577.236 145.518 577.404 145.446 577.56C145.374 577.704 145.272 577.836 145.14 577.956C145.02 578.076 144.882 578.172 144.726 578.244C144.57 578.304 144.408 578.334 144.24 578.334C143.892 578.334 143.592 578.208 143.34 577.956C143.088 577.704 142.962 577.404 142.962 577.056ZM153.079 588V582.528C153.079 581.544 152.689 581.052 151.909 581.052C151.717 581.052 151.507 581.088 151.279 581.16C151.063 581.232 150.847 581.34 150.631 581.484C150.427 581.616 150.235 581.784 150.055 581.988C149.887 582.192 149.767 582.426 149.695 582.69V588H147.715V579.72H149.263L149.353 580.944H149.425C149.665 580.44 150.043 580.068 150.559 579.828C151.087 579.576 151.645 579.45 152.233 579.45C152.797 579.45 153.307 579.564 153.763 579.792C154.231 580.008 154.579 580.386 154.807 580.926C155.047 580.434 155.425 580.068 155.941 579.828C156.457 579.576 157.009 579.45 157.597 579.45C157.981 579.45 158.341 579.504 158.677 579.612C159.025 579.708 159.325 579.87 159.577 580.098C159.841 580.326 160.045 580.626 160.189 580.998C160.345 581.37 160.423 581.826 160.423 582.366V588H158.443V582.528C158.443 581.544 158.053 581.052 157.273 581.052C157.081 581.052 156.871 581.088 156.643 581.16C156.427 581.232 156.211 581.34 155.995 581.484C155.791 581.616 155.599 581.784 155.419 581.988C155.251 582.192 155.131 582.426 155.059 582.69V588H153.079ZM166.506 579.45C167.562 579.45 168.378 579.72 168.954 580.26C169.53 580.788 169.818 581.538 169.818 582.51C169.818 582.642 169.806 582.786 169.782 582.942C169.77 583.086 169.746 583.23 169.71 583.374C169.686 583.518 169.65 583.65 169.602 583.77C169.566 583.878 169.524 583.968 169.476 584.04H164.238C164.262 584.4 164.328 584.742 164.436 585.066C164.544 585.378 164.7 585.654 164.904 585.894C165.108 586.122 165.354 586.308 165.642 586.452C165.942 586.584 166.29 586.65 166.686 586.65C167.13 586.65 167.598 586.566 168.09 586.398C168.594 586.23 169.02 586.02 169.368 585.768L169.692 587.244C169.536 587.34 169.344 587.448 169.116 587.568C168.888 587.676 168.63 587.778 168.342 587.874C168.054 587.97 167.742 588.048 167.406 588.108C167.082 588.18 166.74 588.216 166.38 588.216C165.708 588.216 165.114 588.102 164.598 587.874C164.082 587.634 163.65 587.316 163.302 586.92C162.954 586.512 162.69 586.044 162.51 585.516C162.33 584.988 162.24 584.436 162.24 583.86C162.24 583.272 162.33 582.714 162.51 582.186C162.702 581.646 162.978 581.172 163.338 580.764C163.698 580.356 164.142 580.038 164.67 579.81C165.21 579.57 165.822 579.45 166.506 579.45ZM166.452 580.998C165.948 580.998 165.516 581.148 165.156 581.448C164.808 581.736 164.556 582.132 164.4 582.636H167.838C167.85 582.6 167.856 582.558 167.856 582.51C167.868 582.462 167.874 582.402 167.874 582.33C167.874 581.946 167.742 581.628 167.478 581.376C167.214 581.124 166.872 580.998 166.452 580.998ZM176.566 581.52C176.446 581.424 176.26 581.346 176.008 581.286C175.756 581.226 175.54 581.196 175.36 581.196C175.12 581.196 174.922 581.256 174.766 581.376C174.61 581.484 174.472 581.634 174.352 581.826C174.232 582.006 174.13 582.216 174.046 582.456C173.962 582.696 173.884 582.942 173.812 583.194V588H171.832V579.72H173.38L173.47 581.448H173.542C173.662 581.196 173.788 580.95 173.92 580.71C174.052 580.47 174.202 580.26 174.37 580.08C174.538 579.888 174.73 579.738 174.946 579.63C175.174 579.51 175.438 579.45 175.738 579.45C176.218 579.45 176.668 579.606 177.088 579.918L176.566 581.52ZM186.334 579.45C187.39 579.45 188.206 579.72 188.782 580.26C189.358 580.788 189.646 581.538 189.646 582.51C189.646 582.642 189.634 582.786 189.61 582.942C189.598 583.086 189.574 583.23 189.538 583.374C189.514 583.518 189.478 583.65 189.43 583.77C189.394 583.878 189.352 583.968 189.304 584.04H184.066C184.09 584.4 184.156 584.742 184.264 585.066C184.372 585.378 184.528 585.654 184.732 585.894C184.936 586.122 185.182 586.308 185.47 586.452C185.77 586.584 186.118 586.65 186.514 586.65C186.958 586.65 187.426 586.566 187.918 586.398C188.422 586.23 188.848 586.02 189.196 585.768L189.52 587.244C189.364 587.34 189.172 587.448 188.944 587.568C188.716 587.676 188.458 587.778 188.17 587.874C187.882 587.97 187.57 588.048 187.234 588.108C186.91 588.18 186.568 588.216 186.208 588.216C185.536 588.216 184.942 588.102 184.426 587.874C183.91 587.634 183.478 587.316 183.13 586.92C182.782 586.512 182.518 586.044 182.338 585.516C182.158 584.988 182.068 584.436 182.068 583.86C182.068 583.272 182.158 582.714 182.338 582.186C182.53 581.646 182.806 581.172 183.166 580.764C183.526 580.356 183.97 580.038 184.498 579.81C185.038 579.57 185.65 579.45 186.334 579.45ZM186.28 580.998C185.776 580.998 185.344 581.148 184.984 581.448C184.636 581.736 184.384 582.132 184.228 582.636H187.666C187.678 582.6 187.684 582.558 187.684 582.51C187.696 582.462 187.702 582.402 187.702 582.33C187.702 581.946 187.57 581.628 187.306 581.376C187.042 581.124 186.7 580.998 186.28 580.998ZM197.204 588V582.528C197.204 581.544 196.784 581.052 195.944 581.052C195.74 581.052 195.518 581.088 195.278 581.16C195.05 581.232 194.828 581.34 194.612 581.484C194.396 581.616 194.198 581.784 194.018 581.988C193.85 582.192 193.724 582.426 193.64 582.69V588H191.66V579.72H193.208L193.298 580.944H193.37C193.622 580.44 194.012 580.068 194.54 579.828C195.08 579.576 195.656 579.45 196.268 579.45C196.664 579.45 197.036 579.504 197.384 579.612C197.732 579.708 198.038 579.87 198.302 580.098C198.578 580.326 198.794 580.626 198.95 580.998C199.106 581.37 199.184 581.826 199.184 582.366V588H197.204ZM204.798 588.216C204.234 588.216 203.718 588.102 203.25 587.874C202.782 587.646 202.38 587.334 202.044 586.938C201.72 586.542 201.468 586.074 201.288 585.534C201.108 584.994 201.018 584.406 201.018 583.77C201.018 583.206 201.09 582.666 201.234 582.15C201.39 581.622 201.624 581.16 201.936 580.764C202.248 580.368 202.632 580.05 203.088 579.81C203.556 579.57 204.108 579.45 204.744 579.45C205.32 579.45 205.836 579.546 206.292 579.738C206.748 579.93 207.114 580.2 207.39 580.548V574.68H209.352V588H207.768L207.624 586.866H207.552C207.216 587.238 206.832 587.556 206.4 587.82C205.98 588.084 205.446 588.216 204.798 588.216ZM205.05 586.722C205.242 586.722 205.446 586.698 205.662 586.65C205.878 586.59 206.088 586.512 206.292 586.416C206.508 586.32 206.712 586.206 206.904 586.074C207.096 585.93 207.258 585.768 207.39 585.588V582.132C207.03 581.688 206.664 581.388 206.292 581.232C205.92 581.064 205.56 580.98 205.212 580.98C204.828 580.98 204.498 581.058 204.222 581.214C203.946 581.358 203.712 581.562 203.52 581.826C203.34 582.09 203.202 582.396 203.106 582.744C203.022 583.08 202.98 583.434 202.98 583.806C202.98 584.166 203.022 584.526 203.106 584.886C203.19 585.234 203.316 585.546 203.484 585.822C203.652 586.086 203.868 586.302 204.132 586.47C204.396 586.638 204.702 586.722 205.05 586.722ZM214.36 580.926C213.964 580.926 213.652 581.004 213.424 581.16C213.208 581.304 213.1 581.514 213.1 581.79C213.1 581.97 213.16 582.138 213.28 582.294C213.412 582.438 213.682 582.558 214.09 582.654L215.368 582.942C215.872 583.05 216.274 583.206 216.574 583.41C216.886 583.614 217.126 583.836 217.294 584.076C217.474 584.316 217.594 584.562 217.654 584.814C217.714 585.066 217.744 585.3 217.744 585.516C217.744 585.9 217.666 586.26 217.51 586.596C217.354 586.92 217.132 587.202 216.844 587.442C216.556 587.682 216.208 587.868 215.8 588C215.392 588.144 214.936 588.216 214.432 588.216C213.796 588.216 213.208 588.126 212.668 587.946C212.128 587.754 211.696 587.544 211.372 587.316L211.84 585.606C212.248 586.002 212.704 586.296 213.208 586.488C213.724 586.68 214.198 586.776 214.63 586.776C215.086 586.776 215.434 586.68 215.674 586.488C215.914 586.284 216.034 586.008 216.034 585.66C216.034 585.456 215.974 585.288 215.854 585.156C215.734 585.012 215.494 584.892 215.134 584.796L213.406 584.364C212.998 584.268 212.662 584.13 212.398 583.95C212.146 583.77 211.942 583.572 211.786 583.356C211.642 583.128 211.54 582.894 211.48 582.654C211.432 582.414 211.408 582.186 211.408 581.97C211.408 581.166 211.69 580.548 212.254 580.116C212.818 579.672 213.55 579.45 214.45 579.45C214.918 579.45 215.422 579.516 215.962 579.648C216.502 579.768 216.958 579.948 217.33 580.188L216.808 581.808C216.568 581.616 216.232 581.424 215.8 581.232C215.368 581.028 214.888 580.926 214.36 580.926Z" fill="#0E505F"/>
<path d="M287.632 581.772C287.5 581.676 287.332 581.58 287.128 581.484C286.936 581.388 286.726 581.304 286.498 581.232C286.27 581.16 286.03 581.106 285.778 581.07C285.538 581.022 285.31 580.998 285.094 580.998C284.686 580.998 284.338 581.076 284.05 581.232C283.774 581.376 283.546 581.574 283.366 581.826C283.198 582.066 283.072 582.348 282.988 582.672C282.916 582.996 282.88 583.332 282.88 583.68C282.88 584.088 282.928 584.472 283.024 584.832C283.12 585.18 283.264 585.486 283.456 585.75C283.648 586.014 283.888 586.224 284.176 586.38C284.476 586.536 284.818 586.614 285.202 586.614C285.634 586.614 286.09 586.53 286.57 586.362C287.062 586.182 287.47 585.936 287.794 585.624L288.154 587.316C287.818 587.532 287.356 587.736 286.768 587.928C286.192 588.12 285.574 588.216 284.914 588.216C284.218 588.216 283.606 588.096 283.078 587.856C282.562 587.616 282.13 587.298 281.782 586.902C281.446 586.494 281.188 586.026 281.008 585.498C280.84 584.958 280.756 584.388 280.756 583.788C280.756 583.212 280.834 582.666 280.99 582.15C281.158 581.622 281.416 581.16 281.764 580.764C282.112 580.356 282.556 580.038 283.096 579.81C283.636 579.57 284.284 579.45 285.04 579.45C285.616 579.45 286.18 579.516 286.732 579.648C287.284 579.78 287.728 579.954 288.064 580.17L287.632 581.772ZM292.029 588H290.049V579.72H292.029V588ZM289.761 577.056C289.761 576.888 289.791 576.726 289.851 576.57C289.923 576.414 290.019 576.276 290.139 576.156C290.259 576.024 290.391 575.922 290.535 575.85C290.691 575.778 290.859 575.742 291.039 575.742C291.207 575.742 291.369 575.778 291.525 575.85C291.681 575.922 291.819 576.024 291.939 576.156C292.071 576.276 292.173 576.414 292.245 576.57C292.317 576.726 292.353 576.888 292.353 577.056C292.353 577.236 292.317 577.404 292.245 577.56C292.173 577.704 292.071 577.836 291.939 577.956C291.819 578.076 291.681 578.172 291.525 578.244C291.369 578.304 291.207 578.334 291.039 578.334C290.691 578.334 290.391 578.208 290.139 577.956C289.887 577.704 289.761 577.404 289.761 577.056ZM299.247 581.52C299.127 581.424 298.941 581.346 298.689 581.286C298.437 581.226 298.221 581.196 298.041 581.196C297.801 581.196 297.603 581.256 297.447 581.376C297.291 581.484 297.153 581.634 297.033 581.826C296.913 582.006 296.811 582.216 296.727 582.456C296.643 582.696 296.565 582.942 296.493 583.194V588H294.513V579.72H296.061L296.151 581.448H296.223C296.343 581.196 296.469 580.95 296.601 580.71C296.733 580.47 296.883 580.26 297.051 580.08C297.219 579.888 297.411 579.738 297.627 579.63C297.855 579.51 298.119 579.45 298.419 579.45C298.899 579.45 299.349 579.606 299.769 579.918L299.247 581.52ZM307.478 581.772C307.346 581.676 307.178 581.58 306.974 581.484C306.782 581.388 306.572 581.304 306.344 581.232C306.116 581.16 305.876 581.106 305.624 581.07C305.384 581.022 305.156 580.998 304.94 580.998C304.532 580.998 304.184 581.076 303.896 581.232C303.62 581.376 303.392 581.574 303.212 581.826C303.044 582.066 302.918 582.348 302.834 582.672C302.762 582.996 302.726 583.332 302.726 583.68C302.726 584.088 302.774 584.472 302.87 584.832C302.966 585.18 303.11 585.486 303.302 585.75C303.494 586.014 303.734 586.224 304.022 586.38C304.322 586.536 304.664 586.614 305.048 586.614C305.48 586.614 305.936 586.53 306.416 586.362C306.908 586.182 307.316 585.936 307.64 585.624L308 587.316C307.664 587.532 307.202 587.736 306.614 587.928C306.038 588.12 305.42 588.216 304.76 588.216C304.064 588.216 303.452 588.096 302.924 587.856C302.408 587.616 301.976 587.298 301.628 586.902C301.292 586.494 301.034 586.026 300.854 585.498C300.686 584.958 300.602 584.388 300.602 583.788C300.602 583.212 300.68 582.666 300.836 582.15C301.004 581.622 301.262 581.16 301.61 580.764C301.958 580.356 302.402 580.038 302.942 579.81C303.482 579.57 304.13 579.45 304.886 579.45C305.462 579.45 306.026 579.516 306.578 579.648C307.13 579.78 307.574 579.954 307.91 580.17L307.478 581.772ZM311.802 579.72V585.102C311.802 585.594 311.928 585.972 312.18 586.236C312.444 586.488 312.78 586.614 313.188 586.614C313.608 586.614 313.992 586.476 314.34 586.2C314.688 585.912 314.946 585.504 315.114 584.976V579.72H317.112V588H315.564L315.456 586.848H315.384C315.252 587.124 315.084 587.352 314.88 587.532C314.676 587.7 314.448 587.838 314.196 587.946C313.956 588.042 313.704 588.108 313.44 588.144C313.176 588.192 312.918 588.216 312.666 588.216C312.27 588.216 311.898 588.168 311.55 588.072C311.214 587.976 310.914 587.82 310.65 587.604C310.398 587.376 310.194 587.082 310.038 586.722C309.894 586.35 309.822 585.894 309.822 585.354V579.72H311.802ZM321.577 588H319.597V579.72H321.577V588ZM319.309 577.056C319.309 576.888 319.339 576.726 319.399 576.57C319.471 576.414 319.567 576.276 319.687 576.156C319.807 576.024 319.939 575.922 320.083 575.85C320.239 575.778 320.407 575.742 320.587 575.742C320.755 575.742 320.917 575.778 321.073 575.85C321.229 575.922 321.367 576.024 321.487 576.156C321.619 576.276 321.721 576.414 321.793 576.57C321.865 576.726 321.901 576.888 321.901 577.056C321.901 577.236 321.865 577.404 321.793 577.56C321.721 577.704 321.619 577.836 321.487 577.956C321.367 578.076 321.229 578.172 321.073 578.244C320.917 578.304 320.755 578.334 320.587 578.334C320.239 578.334 319.939 578.208 319.687 577.956C319.435 577.704 319.309 577.404 319.309 577.056ZM324.44 580.926H323.414V579.846L324.584 579.666L324.908 577.218H326.42V579.72H328.004V580.926H326.42V585.678C326.42 586.038 326.456 586.284 326.528 586.416C326.6 586.536 326.738 586.596 326.942 586.596C327.098 586.596 327.254 586.566 327.41 586.506C327.566 586.446 327.794 586.332 328.094 586.164L328.418 587.586C328.19 587.778 327.866 587.928 327.446 588.036C327.038 588.156 326.63 588.216 326.222 588.216C325.862 588.216 325.562 588.168 325.322 588.072C325.094 587.976 324.914 587.838 324.782 587.658C324.65 587.466 324.56 587.238 324.512 586.974C324.464 586.71 324.44 586.416 324.44 586.092V580.926Z" fill="#3CA7A7"/>
<g filter="url(#filter6_dd_10_1365)">
<rect x="226" y="479" width="129" height="40" rx="10" fill="#EBEBEB"/>
</g>
<path d="M264.16 492.97C264.16 493.39 264.25 493.75 264.43 494.05C264.63 494.35 264.9 494.61 265.24 494.83C265.58 495.05 265.98 495.26 266.44 495.46C266.92 495.64 267.45 495.83 268.03 496.03C268.75 496.29 269.46 496.59 270.16 496.93C270.88 497.25 271.52 497.66 272.08 498.16C272.66 498.64 273.13 499.24 273.49 499.96C273.85 500.68 274.03 501.55 274.03 502.57C274.03 503.65 273.83 504.56 273.43 505.3C273.05 506.04 272.53 506.64 271.87 507.1C271.21 507.54 270.45 507.86 269.59 508.06C268.73 508.26 267.84 508.36 266.92 508.36C265.6 508.36 264.36 508.2 263.2 507.88C262.06 507.56 261.08 507.17 260.26 506.71L261.16 503.47C261.92 504.05 262.76 504.53 263.68 504.91C264.62 505.29 265.69 505.48 266.89 505.48C268.17 505.48 269.1 505.26 269.68 504.82C270.26 504.36 270.55 503.75 270.55 502.99C270.55 502.41 270.41 501.92 270.13 501.52C269.85 501.1 269.5 500.75 269.08 500.47C268.66 500.17 268.21 499.93 267.73 499.75C267.27 499.57 266.86 499.42 266.5 499.3C265.86 499.1 265.21 498.86 264.55 498.58C263.89 498.3 263.28 497.94 262.72 497.5C262.16 497.04 261.7 496.47 261.34 495.79C261 495.11 260.83 494.26 260.83 493.24C260.83 492.28 260.99 491.47 261.31 490.81C261.65 490.15 262.1 489.62 262.66 489.22C263.24 488.8 263.91 488.5 264.67 488.32C265.45 488.14 266.29 488.05 267.19 488.05C268.29 488.05 269.35 488.16 270.37 488.38C271.41 488.6 272.28 488.87 272.98 489.19L272.17 492.37C271.81 492.13 271.42 491.92 271 491.74C270.58 491.56 270.14 491.41 269.68 491.29C269.24 491.17 268.79 491.08 268.33 491.02C267.89 490.94 267.47 490.9 267.07 490.9C266.17 490.9 265.46 491.07 264.94 491.41C264.42 491.75 264.16 492.27 264.16 492.97ZM277.579 496.21H275.869V494.41L277.819 494.11L278.359 490.03H280.879V494.2H283.519V496.21H280.879V504.13C280.879 504.73 280.939 505.14 281.059 505.36C281.179 505.56 281.409 505.66 281.749 505.66C282.009 505.66 282.269 505.61 282.529 505.51C282.789 505.41 283.169 505.22 283.669 504.94L284.209 507.31C283.829 507.63 283.289 507.88 282.589 508.06C281.909 508.26 281.229 508.36 280.549 508.36C279.949 508.36 279.449 508.28 279.049 508.12C278.669 507.96 278.369 507.73 278.149 507.43C277.929 507.11 277.779 506.73 277.699 506.29C277.619 505.85 277.579 505.36 277.579 504.82V496.21ZM295.31 508L295.07 506.11H294.95C294.41 506.79 293.67 507.34 292.73 507.76C291.81 508.16 290.87 508.36 289.91 508.36C288.65 508.36 287.66 508 286.94 507.28C286.22 506.54 285.86 505.57 285.86 504.37C285.86 503.55 286.03 502.82 286.37 502.18C286.73 501.52 287.24 500.97 287.9 500.53C288.56 500.07 289.35 499.72 290.27 499.48C291.19 499.24 292.22 499.12 293.36 499.12H294.65V498.67C294.65 497.89 294.4 497.32 293.9 496.96C293.38 496.6 292.57 496.42 291.47 496.42C289.99 496.42 288.67 496.75 287.51 497.41L286.88 494.92C288.22 494.14 289.84 493.75 291.74 493.75C293.74 493.75 295.26 494.16 296.3 494.98C296.78 495.36 297.17 495.85 297.47 496.45C297.79 497.05 297.95 497.77 297.95 498.61V508H295.31ZM291.2 505.69C291.84 505.69 292.48 505.54 293.12 505.24C293.76 504.92 294.27 504.5 294.65 503.98V501.25H294.08C292.44 501.25 291.24 501.46 290.48 501.88C289.74 502.3 289.37 502.97 289.37 503.89C289.37 505.09 289.98 505.69 291.2 505.69ZM309.829 497.2C309.629 497.04 309.319 496.91 308.899 496.81C308.479 496.71 308.119 496.66 307.819 496.66C307.419 496.66 307.089 496.76 306.829 496.96C306.569 497.14 306.339 497.39 306.139 497.71C305.939 498.01 305.769 498.36 305.629 498.76C305.489 499.16 305.359 499.57 305.239 499.99V508H301.939V494.2H304.519L304.669 497.08H304.789C304.989 496.66 305.199 496.25 305.419 495.85C305.639 495.45 305.889 495.1 306.169 494.8C306.449 494.48 306.769 494.23 307.129 494.05C307.509 493.85 307.949 493.75 308.449 493.75C309.249 493.75 309.999 494.01 310.699 494.53L309.829 497.2ZM313.79 496.21H312.08V494.41L314.03 494.11L314.57 490.03H317.09V494.2H319.73V496.21H317.09V504.13C317.09 504.73 317.15 505.14 317.27 505.36C317.39 505.56 317.62 505.66 317.96 505.66C318.22 505.66 318.48 505.61 318.74 505.51C319 505.41 319.38 505.22 319.88 504.94L320.42 507.31C320.04 507.63 319.5 507.88 318.8 508.06C318.12 508.26 317.44 508.36 316.76 508.36C316.16 508.36 315.66 508.28 315.26 508.12C314.88 507.96 314.58 507.73 314.36 507.43C314.14 507.11 313.99 506.73 313.91 506.29C313.83 505.85 313.79 505.36 313.79 504.82V496.21Z" fill="url(#paint1_linear_10_1365)"/>
<g filter="url(#filter7_dd_10_1365)">
<circle cx="209" cy="310" r="113" fill="#EBEBEB"/>
<circle cx="209" cy="310" r="113" stroke="#EBEBEB" stroke-width="24"/>
</g>
<path d="M144.82 321H140.68V303.504L137.764 304.8L136.972 301.2L144.82 297.24V321ZM159.436 297.06C160.972 297.06 162.328 297.396 163.504 298.068C164.704 298.716 165.712 299.592 166.528 300.696C167.344 301.8 167.956 303.084 168.364 304.548C168.796 305.988 169.012 307.512 169.012 309.12C169.012 310.728 168.796 312.276 168.364 313.764C167.932 315.228 167.296 316.536 166.456 317.688C165.64 318.816 164.62 319.728 163.396 320.424C162.172 321.096 160.768 321.432 159.184 321.432C157.624 321.432 156.256 321.108 155.08 320.46C153.928 319.812 152.968 318.936 152.2 317.832C151.432 316.728 150.844 315.456 150.436 314.016C150.052 312.552 149.86 311.016 149.86 309.408C149.86 307.704 150.076 306.108 150.508 304.62C150.94 303.108 151.564 301.8 152.38 300.696C153.196 299.568 154.192 298.68 155.368 298.032C156.568 297.384 157.924 297.06 159.436 297.06ZM159.328 317.976C160.24 317.976 161.02 317.76 161.668 317.328C162.34 316.872 162.892 316.248 163.324 315.456C163.756 314.664 164.08 313.728 164.296 312.648C164.512 311.568 164.62 310.404 164.62 309.156C164.62 307.884 164.512 306.72 164.296 305.664C164.08 304.608 163.744 303.696 163.288 302.928C162.856 302.16 162.304 301.572 161.632 301.164C160.96 300.732 160.18 300.516 159.292 300.516C158.404 300.516 157.636 300.732 156.988 301.164C156.364 301.572 155.848 302.16 155.44 302.928C155.056 303.672 154.768 304.584 154.576 305.664C154.384 306.72 154.288 307.884 154.288 309.156C154.288 312.06 154.72 314.256 155.584 315.744C156.472 317.232 157.72 317.976 159.328 317.976ZM173.18 318.876C173.18 318.54 173.24 318.216 173.36 317.904C173.504 317.592 173.696 317.316 173.936 317.076C174.176 316.812 174.44 316.608 174.728 316.464C175.04 316.32 175.376 316.248 175.736 316.248C176.072 316.248 176.396 316.32 176.708 316.464C177.02 316.608 177.296 316.812 177.536 317.076C177.8 317.316 178.004 317.592 178.148 317.904C178.292 318.216 178.364 318.54 178.364 318.876C178.364 319.236 178.292 319.572 178.148 319.884C178.004 320.172 177.8 320.436 177.536 320.676C177.296 320.916 177.02 321.096 176.708 321.216C176.396 321.36 176.072 321.432 175.736 321.432C175.04 321.432 174.44 321.18 173.936 320.676C173.432 320.172 173.18 319.572 173.18 318.876ZM173.18 307.248C173.18 306.912 173.24 306.588 173.36 306.276C173.504 305.964 173.696 305.688 173.936 305.448C174.176 305.184 174.44 304.98 174.728 304.836C175.04 304.692 175.376 304.62 175.736 304.62C176.072 304.62 176.396 304.692 176.708 304.836C177.02 304.98 177.296 305.184 177.536 305.448C177.8 305.688 178.004 305.964 178.148 306.276C178.292 306.588 178.364 306.912 178.364 307.248C178.364 307.608 178.292 307.944 178.148 308.256C178.004 308.544 177.8 308.808 177.536 309.048C177.296 309.288 177.02 309.48 176.708 309.624C176.396 309.744 176.072 309.804 175.736 309.804C175.04 309.804 174.44 309.552 173.936 309.048C173.432 308.544 173.18 307.944 173.18 307.248ZM192.167 297.06C193.703 297.06 195.059 297.396 196.235 298.068C197.435 298.716 198.443 299.592 199.259 300.696C200.075 301.8 200.687 303.084 201.095 304.548C201.527 305.988 201.743 307.512 201.743 309.12C201.743 310.728 201.527 312.276 201.095 313.764C200.663 315.228 200.027 316.536 199.187 317.688C198.371 318.816 197.351 319.728 196.127 320.424C194.903 321.096 193.499 321.432 191.915 321.432C190.355 321.432 188.987 321.108 187.811 320.46C186.659 319.812 185.699 318.936 184.931 317.832C184.163 316.728 183.575 315.456 183.167 314.016C182.783 312.552 182.591 311.016 182.591 309.408C182.591 307.704 182.807 306.108 183.239 304.62C183.671 303.108 184.295 301.8 185.111 300.696C185.927 299.568 186.923 298.68 188.099 298.032C189.299 297.384 190.655 297.06 192.167 297.06ZM192.059 317.976C192.971 317.976 193.751 317.76 194.399 317.328C195.071 316.872 195.623 316.248 196.055 315.456C196.487 314.664 196.811 313.728 197.027 312.648C197.243 311.568 197.351 310.404 197.351 309.156C197.351 307.884 197.243 306.72 197.027 305.664C196.811 304.608 196.475 303.696 196.019 302.928C195.587 302.16 195.035 301.572 194.363 301.164C193.691 300.732 192.911 300.516 192.023 300.516C191.135 300.516 190.367 300.732 189.719 301.164C189.095 301.572 188.579 302.16 188.171 302.928C187.787 303.672 187.499 304.584 187.307 305.664C187.115 306.72 187.019 307.884 187.019 309.156C187.019 312.06 187.451 314.256 188.315 315.744C189.203 317.232 190.451 317.976 192.059 317.976ZM215.018 297.06C216.554 297.06 217.91 297.396 219.086 298.068C220.286 298.716 221.294 299.592 222.11 300.696C222.926 301.8 223.538 303.084 223.946 304.548C224.378 305.988 224.594 307.512 224.594 309.12C224.594 310.728 224.378 312.276 223.946 313.764C223.514 315.228 222.878 316.536 222.038 317.688C221.222 318.816 220.202 319.728 218.978 320.424C217.754 321.096 216.35 321.432 214.766 321.432C213.206 321.432 211.838 321.108 210.662 320.46C209.51 319.812 208.55 318.936 207.782 317.832C207.014 316.728 206.426 315.456 206.018 314.016C205.634 312.552 205.442 311.016 205.442 309.408C205.442 307.704 205.658 306.108 206.09 304.62C206.522 303.108 207.146 301.8 207.962 300.696C208.778 299.568 209.774 298.68 210.95 298.032C212.15 297.384 213.506 297.06 215.018 297.06ZM214.91 317.976C215.822 317.976 216.602 317.76 217.25 317.328C217.922 316.872 218.474 316.248 218.906 315.456C219.338 314.664 219.662 313.728 219.878 312.648C220.094 311.568 220.202 310.404 220.202 309.156C220.202 307.884 220.094 306.72 219.878 305.664C219.662 304.608 219.326 303.696 218.87 302.928C218.438 302.16 217.886 301.572 217.214 301.164C216.542 300.732 215.762 300.516 214.874 300.516C213.986 300.516 213.218 300.732 212.57 301.164C211.946 301.572 211.43 302.16 211.022 302.928C210.638 303.672 210.35 304.584 210.158 305.664C209.966 306.72 209.87 307.884 209.87 309.156C209.87 312.06 210.302 314.256 211.166 315.744C212.054 317.232 213.302 317.976 214.91 317.976ZM228.762 318.876C228.762 318.54 228.822 318.216 228.942 317.904C229.086 317.592 229.278 317.316 229.518 317.076C229.758 316.812 230.022 316.608 230.31 316.464C230.622 316.32 230.958 316.248 231.318 316.248C231.654 316.248 231.978 316.32 232.29 316.464C232.602 316.608 232.878 316.812 233.118 317.076C233.382 317.316 233.586 317.592 233.73 317.904C233.874 318.216 233.946 318.54 233.946 318.876C233.946 319.236 233.874 319.572 233.73 319.884C233.586 320.172 233.382 320.436 233.118 320.676C232.878 320.916 232.602 321.096 232.29 321.216C231.978 321.36 231.654 321.432 231.318 321.432C230.622 321.432 230.022 321.18 229.518 320.676C229.014 320.172 228.762 319.572 228.762 318.876ZM228.762 307.248C228.762 306.912 228.822 306.588 228.942 306.276C229.086 305.964 229.278 305.688 229.518 305.448C229.758 305.184 230.022 304.98 230.31 304.836C230.622 304.692 230.958 304.62 231.318 304.62C231.654 304.62 231.978 304.692 232.29 304.836C232.602 304.98 232.878 305.184 233.118 305.448C233.382 305.688 233.586 305.964 233.73 306.276C233.874 306.588 233.946 306.912 233.946 307.248C233.946 307.608 233.874 307.944 233.73 308.256C233.586 308.544 233.382 308.808 233.118 309.048C232.878 309.288 232.602 309.48 232.29 309.624C231.978 309.744 231.654 309.804 231.318 309.804C230.622 309.804 230.022 309.552 229.518 309.048C229.014 308.544 228.762 307.944 228.762 307.248ZM247.749 297.06C249.285 297.06 250.641 297.396 251.817 298.068C253.017 298.716 254.025 299.592 254.841 300.696C255.657 301.8 256.269 303.084 256.677 304.548C257.109 305.988 257.325 307.512 257.325 309.12C257.325 310.728 257.109 312.276 256.677 313.764C256.245 315.228 255.609 316.536 254.769 317.688C253.953 318.816 252.933 319.728 251.709 320.424C250.485 321.096 249.081 321.432 247.497 321.432C245.937 321.432 244.569 321.108 243.393 320.46C242.241 319.812 241.281 318.936 240.513 317.832C239.745 316.728 239.157 315.456 238.749 314.016C238.365 312.552 238.173 311.016 238.173 309.408C238.173 307.704 238.389 306.108 238.821 304.62C239.253 303.108 239.877 301.8 240.693 300.696C241.509 299.568 242.505 298.68 243.681 298.032C244.881 297.384 246.237 297.06 247.749 297.06ZM247.641 317.976C248.553 317.976 249.333 317.76 249.981 317.328C250.653 316.872 251.205 316.248 251.637 315.456C252.069 314.664 252.393 313.728 252.609 312.648C252.825 311.568 252.933 310.404 252.933 309.156C252.933 307.884 252.825 306.72 252.609 305.664C252.393 304.608 252.057 303.696 251.601 302.928C251.169 302.16 250.617 301.572 249.945 301.164C249.273 300.732 248.493 300.516 247.605 300.516C246.717 300.516 245.949 300.732 245.301 301.164C244.677 301.572 244.161 302.16 243.753 302.928C243.369 303.672 243.081 304.584 242.889 305.664C242.697 306.72 242.601 307.884 242.601 309.156C242.601 312.06 243.033 314.256 243.897 315.744C244.785 317.232 246.033 317.976 247.641 317.976ZM270.6 297.06C272.136 297.06 273.492 297.396 274.668 298.068C275.868 298.716 276.876 299.592 277.692 300.696C278.508 301.8 279.12 303.084 279.528 304.548C279.96 305.988 280.176 307.512 280.176 309.12C280.176 310.728 279.96 312.276 279.528 313.764C279.096 315.228 278.46 316.536 277.62 317.688C276.804 318.816 275.784 319.728 274.56 320.424C273.336 321.096 271.932 321.432 270.348 321.432C268.788 321.432 267.42 321.108 266.244 320.46C265.092 319.812 264.132 318.936 263.364 317.832C262.596 316.728 262.008 315.456 261.6 314.016C261.216 312.552 261.024 311.016 261.024 309.408C261.024 307.704 261.24 306.108 261.672 304.62C262.104 303.108 262.728 301.8 263.544 300.696C264.36 299.568 265.356 298.68 266.532 298.032C267.732 297.384 269.088 297.06 270.6 297.06ZM270.492 317.976C271.404 317.976 272.184 317.76 272.832 317.328C273.504 316.872 274.056 316.248 274.488 315.456C274.92 314.664 275.244 313.728 275.46 312.648C275.676 311.568 275.784 310.404 275.784 309.156C275.784 307.884 275.676 306.72 275.46 305.664C275.244 304.608 274.908 303.696 274.452 302.928C274.02 302.16 273.468 301.572 272.796 301.164C272.124 300.732 271.344 300.516 270.456 300.516C269.568 300.516 268.8 300.732 268.152 301.164C267.528 301.572 267.012 302.16 266.604 302.928C266.22 303.672 265.932 304.584 265.74 305.664C265.548 306.72 265.452 307.884 265.452 309.156C265.452 312.06 265.884 314.256 266.748 315.744C267.636 317.232 268.884 317.976 270.492 317.976Z" fill="#024959"/>
<circle cx="209.5" cy="310.5" r="99.5" stroke="black" stroke-width="1.12429" stroke-linecap="round" stroke-linejoin="round" stroke-dasharray="1.12 8.99"/>
<defs>
<filter id="filter0_dd_10_1365" x="111.111" y="778.111" width="106.101" height="105.778" filterUnits="userSpaceOnUse" color-interpolation-filters="sRGB">
<feFlood flood-opacity="0" result="BackgroundImageFix"/>
<feColorMatrix in="SourceAlpha" type="matrix" values="0 0 0 0 0 0 0 0 0 0 0 0 0 0 0 0 0 0 127 0" result="hardAlpha"/>
<feOffset dx="6.22222" dy="6.22222"/>
<feGaussianBlur stdDeviation="9.33333"/>
<feComposite in2="hardAlpha" operator="out"/>
<feColorMatrix type="matrix" values="0 0 0 0 0 0 0 0 0 0 0 0 0 0 0 0 0 0 0.09 0"/>
<feBlend mode="normal" in2="BackgroundImageFix" result="effect1_dropShadow_10_1365"/>
<feColorMatrix in="SourceAlpha" type="matrix" values="0 0 0 0 0 0 0 0 0 0 0 0 0 0 0 0 0 0 127 0" result="hardAlpha"/>
<feOffset dx="-6.22222" dy="-6.22222"/>
<feGaussianBlur stdDeviation="9.33333"/>
<feComposite in2="hardAlpha" operator="out"/>
<feColorMatrix type="matrix" values="0 0 0 0 1 0 0 0 0 1 0 0 0 0 1 0 0 0 0.68 0"/>
<feBlend mode="normal" in2="effect1_dropShadow_10_1365" result="effect2_dropShadow_10_1365"/>
<feBlend mode="normal" in="SourceGraphic" in2="effect2_dropShadow_10_1365" result="shape"/>
</filter>
<filter id="filter1_ii_10_1365" x="227.778" y="796.778" width="68.7672" height="68.4444" filterUnits="userSpaceOnUse" color-interpolation-filters="sRGB">
<feFlood flood-opacity="0" result="BackgroundImageFix"/>
<feBlend mode="normal" in="SourceGraphic" in2="BackgroundImageFix" result="shape"/>
<feColorMatrix in="SourceAlpha" type="matrix" values="0 0 0 0 0 0 0 0 0 0 0 0 0 0 0 0 0 0 127 0" result="hardAlpha"/>
<feOffset dx="6.22222" dy="6.22222"/>
<feGaussianBlur stdDeviation="9.33333"/>
<feComposite in2="hardAlpha" operator="arithmetic" k2="-1" k3="1"/>
<feColorMatrix type="matrix" values="0 0 0 0 0 0 0 0 0 0 0 0 0 0 0 0 0 0 0.09 0"/>
<feBlend mode="normal" in2="shape" result="effect1_innerShadow_10_1365"/>
<feColorMatrix in="SourceAlpha" type="matrix" values="0 0 0 0 0 0 0 0 0 0 0 0 0 0 0 0 0 0 127 0" result="hardAlpha"/>
<feOffset dx="-6.22222" dy="-6.22222"/>
<feGaussianBlur stdDeviation="9.33333"/>
<feComposite in2="hardAlpha" operator="arithmetic" k2="-1" k3="1"/>
<feColorMatrix type="matrix" values="0 0 0 0 1 0 0 0 0 1 0 0 0 0 1 0 0 0 0.68 0"/>
<feBlend mode="normal" in2="effect1_innerShadow_10_1365" result="effect2_innerShadow_10_1365"/>
</filter>
<filter id="filter2_dd_10_1365" x="14.1111" y="778.111" width="106.101" height="105.778" filterUnits="userSpaceOnUse" color-interpolation-filters="sRGB">
<feFlood flood-opacity="0" result="BackgroundImageFix"/>
<feColorMatrix in="SourceAlpha" type="matrix" values="0 0 0 0 0 0 0 0 0 0 0 0 0 0 0 0 0 0 127 0" result="hardAlpha"/>
<feOffset dx="6.22222" dy="6.22222"/>
<feGaussianBlur stdDeviation="9.33333"/>
<feComposite in2="hardAlpha" operator="out"/>
<feColorMatrix type="matrix" values="0 0 0 0 0 0 0 0 0 0 0 0 0 0 0 0 0 0 0.09 0"/>
<feBlend mode="normal" in2="BackgroundImageFix" result="effect1_dropShadow_10_1365"/>
<feColorMatrix in="SourceAlpha" type="matrix" values="0 0 0 0 0 0 0 0 0 0 0 0 0 0 0 0 0 0 127 0" result="hardAlpha"/>
<feOffset dx="-6.22222" dy="-6.22222"/>
<feGaussianBlur stdDeviation="9.33333"/>
<feComposite in2="hardAlpha" operator="out"/>
<feColorMatrix type="matrix" values="0 0 0 0 1 0 0 0 0 1 0 0 0 0 1 0 0 0 0.68 0"/>
<feBlend mode="normal" in2="effect1_dropShadow_10_1365" result="effect2_dropShadow_10_1365"/>
<feBlend mode="normal" in="SourceGraphic" in2="effect2_dropShadow_10_1365" result="shape"/>
</filter>
<filter id="filter3_dd_10_1365" x="306.111" y="778.111" width="106.101" height="105.778" filterUnits="userSpaceOnUse" color-interpolation-filters="sRGB">
<feFlood flood-opacity="0" result="BackgroundImageFix"/>
<feColorMatrix in="SourceAlpha" type="matrix" values="0 0 0 0 0 0 0 0 0 0 0 0 0 0 0 0 0 0 127 0" result="hardAlpha"/>
<feOffset dx="6.22222" dy="6.22222"/>
<feGaussianBlur stdDeviation="9.33333"/>
<feComposite in2="hardAlpha" operator="out"/>
<feColorMatrix type="matrix" values="0 0 0 0 0 0 0 0 0 0 0 0 0 0 0 0 0 0 0.09 0"/>
<feBlend mode="normal" in2="BackgroundImageFix" result="effect1_dropShadow_10_1365"/>
<feColorMatrix in="SourceAlpha" type="matrix" values="0 0 0 0 0 0 0 0 0 0 0 0 0 0 0 0 0 0 127 0" result="hardAlpha"/>
<feOffset dx="-6.22222" dy="-6.22222"/>
<feGaussianBlur stdDeviation="9.33333"/>
<feComposite in2="hardAlpha" operator="out"/>
<feColorMatrix type="matrix" values="0 0 0 0 1 0 0 0 0 1 0 0 0 0 1 0 0 0 0.68 0"/>
<feBlend mode="normal" in2="effect1_dropShadow_10_1365" result="effect2_dropShadow_10_1365"/>
<feBlend mode="normal" in="SourceGraphic" in2="effect2_dropShadow_10_1365" result="shape"/>
</filter>
<filter id="filter4_dd_10_1365" x="56" y="462" width="161" height="72" filterUnits="userSpaceOnUse" color-interpolation-filters="sRGB">
<feFlood flood-opacity="0" result="BackgroundImageFix"/>
<feColorMatrix in="SourceAlpha" type="matrix" values="0 0 0 0 0 0 0 0 0 0 0 0 0 0 0 0 0 0 127 0" result="hardAlpha"/>
<feOffset dx="4" dy="4"/>
<feGaussianBlur stdDeviation="6"/>
<feComposite in2="hardAlpha" operator="out"/>
<feColorMatrix type="matrix" values="0 0 0 0 0 0 0 0 0 0 0 0 0 0 0 0 0 0 0.11 0"/>
<feBlend mode="normal" in2="BackgroundImageFix" result="effect1_dropShadow_10_1365"/>
<feColorMatrix in="SourceAlpha" type="matrix" values="0 0 0 0 0 0 0 0 0 0 0 0 0 0 0 0 0 0 127 0" result="hardAlpha"/>
<feOffset dx="-4" dy="-4"/>
<feGaussianBlur stdDeviation="6"/>
<feComposite in2="hardAlpha" operator="out"/>
<feColorMatrix type="matrix" values="0 0 0 0 1 0 0 0 0 1 0 0 0 0 1 0 0 0 0.5 0"/>
<feBlend mode="normal" in2="effect1_dropShadow_10_1365" result="effect2_dropShadow_10_1365"/>
<feBlend mode="normal" in="SourceGraphic" in2="effect2_dropShadow_10_1365" result="shape"/>
</filter>
<filter id="filter5_dd_10_1365" x="56" y="547" width="315" height="72" filterUnits="userSpaceOnUse" color-interpolation-filters="sRGB">
<feFlood flood-opacity="0" result="BackgroundImageFix"/>
<feColorMatrix in="SourceAlpha" type="matrix" values="0 0 0 0 0 0 0 0 0 0 0 0 0 0 0 0 0 0 127 0" result="hardAlpha"/>
<feOffset dx="4" dy="4"/>
<feGaussianBlur stdDeviation="6"/>
<feComposite in2="hardAlpha" operator="out"/>
<feColorMatrix type="matrix" values="0 0 0 0 0 0 0 0 0 0 0 0 0 0 0 0 0 0 0.11 0"/>
<feBlend mode="normal" in2="BackgroundImageFix" result="effect1_dropShadow_10_1365"/>
<feColorMatrix in="SourceAlpha" type="matrix" values="0 0 0 0 0 0 0 0 0 0 0 0 0 0 0 0 0 0 127 0" result="hardAlpha"/>
<feOffset dx="-4" dy="-4"/>
<feGaussianBlur stdDeviation="6"/>
<feComposite in2="hardAlpha" operator="out"/>
<feColorMatrix type="matrix" values="0 0 0 0 1 0 0 0 0 1 0 0 0 0 1 0 0 0 0.5 0"/>
<feBlend mode="normal" in2="effect1_dropShadow_10_1365" result="effect2_dropShadow_10_1365"/>
<feBlend mode="normal" in="SourceGraphic" in2="effect2_dropShadow_10_1365" result="shape"/>
</filter>
<filter id="filter6_dd_10_1365" x="210" y="463" width="161" height="72" filterUnits="userSpaceOnUse" color-interpolation-filters="sRGB">
<feFlood flood-opacity="0" result="BackgroundImageFix"/>
<feColorMatrix in="SourceAlpha" type="matrix" values="0 0 0 0 0 0 0 0 0 0 0 0 0 0 0 0 0 0 127 0" result="hardAlpha"/>
<feOffset dx="4" dy="4"/>
<feGaussianBlur stdDeviation="6"/>
<feComposite in2="hardAlpha" operator="out"/>
<feColorMatrix type="matrix" values="0 0 0 0 0 0 0 0 0 0 0 0 0 0 0 0 0 0 0.11 0"/>
<feBlend mode="normal" in2="BackgroundImageFix" result="effect1_dropShadow_10_1365"/>
<feColorMatrix in="SourceAlpha" type="matrix" values="0 0 0 0 0 0 0 0 0 0 0 0 0 0 0 0 0 0 127 0" result="hardAlpha"/>
<feOffset dx="-4" dy="-4"/>
<feGaussianBlur stdDeviation="6"/>
<feComposite in2="hardAlpha" operator="out"/>
<feColorMatrix type="matrix" values="0 0 0 0 1 0 0 0 0 1 0 0 0 0 1 0 0 0 0.5 0"/>
<feBlend mode="normal" in2="effect1_dropShadow_10_1365" result="effect2_dropShadow_10_1365"/>
<feBlend mode="normal" in="SourceGraphic" in2="effect2_dropShadow_10_1365" result="shape"/>
</filter>
<filter id="filter7_dd_10_1365" x="54" y="155" width="310.044" height="310.044" filterUnits="userSpaceOnUse" color-interpolation-filters="sRGB">
<feFlood flood-opacity="0" result="BackgroundImageFix"/>
<feColorMatrix in="SourceAlpha" type="matrix" values="0 0 0 0 0 0 0 0 0 0 0 0 0 0 0 0 0 0 127 0" result="hardAlpha"/>
<feOffset dx="10.0444" dy="10.0444"/>
<feGaussianBlur stdDeviation="10"/>
<feComposite in2="hardAlpha" operator="out"/>
<feColorMatrix type="matrix" values="0 0 0 0 0 0 0 0 0 0 0 0 0 0 0 0 0 0 0.07 0"/>
<feBlend mode="normal" in2="BackgroundImageFix" result="effect1_dropShadow_10_1365"/>
<feColorMatrix in="SourceAlpha" type="matrix" values="0 0 0 0 0 0 0 0 0 0 0 0 0 0 0 0 0 0 127 0" result="hardAlpha"/>
<feOffset dx="-10" dy="-10"/>
<feGaussianBlur stdDeviation="10"/>
<feComposite in2="hardAlpha" operator="out"/>
<feColorMatrix type="matrix" values="0 0 0 0 1 0 0 0 0 1 0 0 0 0 1 0 0 0 0.48 0"/>
<feBlend mode="normal" in2="effect1_dropShadow_10_1365" result="effect2_dropShadow_10_1365"/>
<feBlend mode="normal" in="SourceGraphic" in2="effect2_dropShadow_10_1365" result="shape"/>
</filter>
<linearGradient id="paint0_linear_10_1365" x1="41.0291" y1="469" x2="174.698" y2="487.428" gradientUnits="userSpaceOnUse">
<stop stop-color="#012F41"/>
<stop offset="0.258333" stop-color="#024959"/>
<stop offset="0.628125" stop-color="#036673"/>
<stop offset="1" stop-color="#3CA7A7"/>
<stop offset="1" stop-color="#3CA7A7"/>
</linearGradient>
<linearGradient id="paint1_linear_10_1365" x1="240.1" y1="488" x2="539.174" y2="531.194" gradientUnits="userSpaceOnUse">
<stop stop-color="#03733D"/>
<stop offset="0.343908" stop-color="#3CA780"/>
<stop offset="0.628125" stop-color="#3CA774"/>
<stop offset="1" stop-color="#DEEEE4"/>
</linearGradient>
</defs>
</svg>
