<svg width="339" height="61" viewBox="0 0 339 61" fill="none" xmlns="http://www.w3.org/2000/svg">
<path d="M1.08154 59.2572L23.8623 8.01715H35.5448L58.3986 59.2572H45.986L27.2941 14.0195H31.9671L13.2021 59.2572H1.08154ZM12.4719 48.2771L15.6116 39.2735H41.8971L45.1098 48.2771H12.4719ZM62.8983 59.2572V4.94275H74.2887V59.2572H62.8983ZM103.847 59.8428C99.2224 59.8428 95.6203 58.6716 93.0404 56.3292C90.4605 53.938 89.1706 50.3999 89.1706 45.7151V11.1647H100.561V45.5687C100.561 47.228 100.999 48.5211 101.875 49.4483C102.751 50.3267 103.944 50.7659 105.453 50.7659C107.254 50.7659 108.787 50.278 110.053 49.3019L113.12 57.354C111.951 58.1836 110.54 58.818 108.885 59.2572C107.278 59.6476 105.599 59.8428 103.847 59.8428ZM83.1103 29.5379V20.7539H110.345V29.5379H83.1103ZM119.514 59.2572V19.8755H130.393V31.0019L128.86 27.7811C130.028 24.9995 131.902 22.9011 134.482 21.4859C137.062 20.0219 140.201 19.2899 143.901 19.2899V29.8307C143.414 29.7819 142.976 29.7575 142.587 29.7575C142.197 29.7087 141.783 29.6843 141.345 29.6843C138.23 29.6843 135.699 30.5871 133.752 32.3927C131.853 34.1496 130.904 36.9067 130.904 40.6643V59.2572H119.514ZM167.533 59.8428C164.272 59.8428 161.351 59.2084 158.771 57.9396C156.24 56.6708 154.269 54.7432 152.857 52.1567C151.445 49.5215 150.74 46.1787 150.74 42.1283V19.8755H162.13V40.4447C162.13 43.7143 162.811 46.13 164.174 47.6916C165.586 49.2043 167.557 49.9608 170.089 49.9608C171.841 49.9608 173.399 49.5947 174.763 48.8627C176.126 48.0819 177.196 46.9108 177.975 45.3492C178.754 43.7388 179.143 41.7379 179.143 39.3467V19.8755H190.534V59.2572H179.728V48.4235L181.699 51.5712C180.385 54.304 178.438 56.378 175.858 57.7932C173.326 59.1596 170.551 59.8428 167.533 59.8428ZM213.156 59.2572L196.436 8.01715H208.703L223.233 53.4011H217.099L232.287 8.01715H243.239L257.842 53.4011H251.928L266.823 8.01715H278.14L261.42 59.2572H248.715L235.791 19.4363H239.15L225.861 59.2572H213.156ZM284.583 59.2572V19.8755H295.973V59.2572H284.583ZM290.278 14.3855C288.185 14.3855 286.481 13.7755 285.167 12.5555C283.853 11.3355 283.196 9.82275 283.196 8.01715C283.196 6.21155 283.853 4.69875 285.167 3.47875C286.481 2.25875 288.185 1.64874 290.278 1.64874C292.371 1.64874 294.075 2.23435 295.389 3.40555C296.703 4.52795 297.361 5.99195 297.361 7.79755C297.361 9.70075 296.703 11.2867 295.389 12.5555C294.124 13.7755 292.42 14.3855 290.278 14.3855ZM303.843 59.2572V52.3764L327.062 24.8531L329.034 28.6595H304.354V19.8755H338.234V26.7563L315.015 54.2795L312.97 50.4731H338.891V59.2572H303.843Z" fill="white"/>
</svg>
