<svg width="401" height="353" viewBox="0 0 401 353" fill="none" xmlns="http://www.w3.org/2000/svg">
<g filter="url(#filter0_d_460_3)">
<path fill-rule="evenodd" clip-rule="evenodd" d="M203.902 189.625C205.21 191.47 205.331 193.723 204.422 195.53C204.407 195.563 204.392 195.595 204.377 195.627C202.955 198.625 199.375 199.911 196.382 198.5C185.682 193.455 179.049 191.306 174.136 191.174C169.858 191.058 166.39 192.466 161.882 196.675C159.918 198.509 157.057 198.777 154.84 197.531C153.581 196.975 152.534 195.992 151.948 194.67C148.681 187.304 150.316 179.51 154.205 171.307C157.931 163.448 164.24 154.15 172.291 142.874C172.888 141.085 174.391 139.646 176.439 139.166C177.005 139.033 177.576 138.983 178.138 139.006C179.36 138.956 180.594 139.255 181.667 139.939C183.245 140.945 184.135 142.564 184.242 144.276C190.792 166.34 194.659 176.591 203.902 189.625ZM174.502 179.179C170.293 179.065 166.573 179.849 163.131 181.396C163.591 179.767 164.302 177.918 165.311 175.789C167.595 170.971 171.137 165.29 175.928 158.301C178.763 167.155 181.428 174.247 184.785 180.948C181.127 179.883 177.727 179.266 174.502 179.179Z" fill="#7339AB"/>
<path fill-rule="evenodd" clip-rule="evenodd" d="M296.469 272.485C298.15 274.092 299.149 276.145 299.456 278.281C300.262 281.023 299.893 284.089 298.184 286.652C295.12 291.248 288.912 292.489 284.316 289.426C236.426 257.499 204.463 242.692 179.41 242.039C155.842 241.425 136.172 253.453 112.744 283.464C109.386 287.766 103.211 288.573 98.8643 285.313C96.6849 284.021 94.9924 281.904 94.2954 279.261C86.5619 249.929 93.8299 218.14 110.422 180.47C126.867 143.134 153.36 98.148 186.623 41.6661L187.439 40.2813C188.696 37.9415 190.866 36.1303 193.539 35.3802C196.075 34.6622 198.888 34.9417 201.339 36.3848C204.262 38.1063 205.988 41.0833 206.235 44.2267C214.789 110.886 224.388 155.396 238.238 189.476C251.979 223.289 270.078 247.256 296.469 272.485ZM179.931 222.046C153.226 221.35 131.716 233.024 111.202 254.548C111.24 236.228 117.074 214.985 128.725 188.532C142.373 157.548 163.348 120.795 190.266 74.9219C197.996 127.288 207.033 165.812 219.709 197.005C226.479 213.665 234.25 228.143 243.302 241.469C219.474 229.272 198.82 222.538 179.931 222.046Z" fill="#7339AB"/>
<path fill-rule="evenodd" clip-rule="evenodd" d="M308.507 184.898C312.937 178.539 322.916 181.564 323.069 189.312L323.421 207.033L340.383 212.175C347.799 214.424 348.006 224.849 340.684 227.389L337.2 228.598C351.189 235.824 362.202 242.845 370.394 249.713C379.42 257.28 385.885 265.378 388.321 274.18C390.944 283.654 388.487 292.399 382.837 299.563C377.513 306.315 369.437 311.642 360.274 315.952C341.857 324.616 315.542 330.773 286.176 334.729C256.617 338.711 223.22 340.558 190.199 340.241C157.186 339.924 124.33 337.442 95.8693 332.685C67.7054 327.978 42.7647 320.876 26.3771 310.706C18.1546 305.603 11.1051 299.129 7.49477 290.838C3.67318 282.061 4.32226 272.682 8.8923 263.569C13.2731 254.834 21.2217 246.32 32.1912 237.865C43.2582 229.335 57.9928 220.415 76.732 211.055C81.6728 208.587 87.6787 210.592 90.1466 215.532C92.6144 220.473 90.6098 226.479 85.669 228.947C67.627 237.959 54.1078 246.224 44.4009 253.706C34.5964 261.263 29.2509 267.588 26.77 272.535C24.4782 277.105 24.6979 280.249 25.8318 282.853C27.177 285.943 30.4679 289.706 36.9231 293.712C49.8911 301.76 71.6555 308.361 99.1663 312.959C126.38 317.507 158.169 319.932 190.391 320.242C222.603 320.551 255.031 318.744 283.506 314.908C312.174 311.046 336.103 305.22 351.76 297.855C359.634 294.151 364.553 290.451 367.133 287.179C369.388 284.32 369.746 282.044 369.046 279.515C368.16 276.313 365.164 271.426 357.545 265.039C350.2 258.882 339.333 251.978 324.161 244.409L324.29 250.92C324.444 258.668 314.593 262.087 309.914 255.908L299.214 241.778L282.469 247.588C275.147 250.129 268.852 241.816 273.282 235.457L283.414 220.914L272.714 206.784C268.036 200.606 273.996 192.05 281.413 194.298L298.375 199.441L308.507 184.898ZM311.316 201.858L306.56 208.685C304.579 211.528 300.992 212.773 297.675 211.768L289.713 209.354L294.735 215.987C296.828 218.75 296.903 222.546 294.922 225.389L290.166 232.216L298.026 229.489C301.3 228.352 304.934 229.454 307.026 232.217L312.049 238.85L311.884 230.531C311.815 227.066 313.986 223.951 317.26 222.815L325.12 220.088L317.158 217.674C313.841 216.668 311.549 213.642 311.481 210.176L311.316 201.858Z" fill="#7339AB"/>
</g>
<defs>
<filter id="filter0_d_460_3" x="0" y="31" width="400.372" height="321.276" filterUnits="userSpaceOnUse" color-interpolation-filters="sRGB">
<feFlood flood-opacity="0" result="BackgroundImageFix"/>
<feColorMatrix in="SourceAlpha" type="matrix" values="0 0 0 0 0 0 0 0 0 0 0 0 0 0 0 0 0 0 127 0" result="hardAlpha"/>
<feOffset dx="3" dy="4"/>
<feGaussianBlur stdDeviation="4"/>
<feComposite in2="hardAlpha" operator="out"/>
<feColorMatrix type="matrix" values="0 0 0 0 0 0 0 0 0 0 0 0 0 0 0 0 0 0 0.3 0"/>
<feBlend mode="normal" in2="BackgroundImageFix" result="effect1_dropShadow_460_3"/>
<feBlend mode="normal" in="SourceGraphic" in2="effect1_dropShadow_460_3" result="shape"/>
</filter>
</defs>
</svg>
