<svg width="534" height="96" viewBox="0 0 534 96" fill="none" xmlns="http://www.w3.org/2000/svg">
<path d="M1.70312 93.2571L37.5879 12.6171H55.9904L91.9902 93.2571H72.4376L42.9937 22.0635H50.3546L20.7957 93.2571H1.70312ZM19.6455 75.9771L24.5912 61.8075H65.9967L71.0574 75.9771H19.6455ZM99.0782 93.2571V7.77873H117.021V93.2571H99.0782ZM163.581 94.1787C156.297 94.1787 150.623 92.3355 146.559 88.6491C142.495 84.8859 140.463 79.3179 140.463 71.9451V17.5707H158.405V71.7147C158.405 74.3259 159.095 76.3611 160.476 77.8203C161.856 79.2027 163.734 79.8939 166.111 79.8939C168.948 79.8939 171.364 79.1259 173.357 77.5899L178.188 90.2619C176.348 91.5675 174.124 92.5659 171.517 93.2571C168.987 93.8715 166.341 94.1787 163.581 94.1787ZM130.917 46.4859V32.6619H173.817V46.4859H130.917ZM188.26 93.2571V31.2795H205.397V48.7899L202.982 43.7211C204.822 39.3435 207.774 36.0411 211.838 33.8139C215.902 31.5099 220.848 30.3579 226.675 30.3579V46.9467C225.908 46.8699 225.218 46.8315 224.605 46.8315C223.991 46.7547 223.34 46.7163 222.65 46.7163C217.742 46.7163 213.755 48.1371 210.688 50.9787C207.698 53.7435 206.202 58.0827 206.202 63.9963V93.2571H188.26ZM263.901 94.1787C258.764 94.1787 254.163 93.1803 250.099 91.1835C246.112 89.1867 243.007 86.1531 240.783 82.0827C238.56 77.9355 237.448 72.6747 237.448 66.3003V31.2795H255.39V63.6507C255.39 68.7963 256.464 72.5979 258.611 75.0555C260.834 77.4363 263.94 78.6267 267.927 78.6267C270.687 78.6267 273.141 78.0507 275.289 76.8987C277.436 75.6699 279.123 73.8267 280.35 71.3691C281.577 68.8347 282.19 65.6859 282.19 61.9227V31.2795H300.132V93.2571H283.11V76.2075L286.216 81.1611C284.145 85.4619 281.078 88.7259 277.014 90.9531C273.026 93.1035 268.655 94.1787 263.901 94.1787ZM335.768 93.2571L309.43 12.6171H328.752L351.64 84.0411H341.979L365.902 12.6171H383.154L406.157 84.0411H396.841L420.304 12.6171H438.132L411.793 93.2571H391.781L371.423 30.5883H376.714L355.781 93.2571H335.768ZM448.281 93.2571V31.2795H466.223V93.2571H448.281ZM457.252 22.6395C453.955 22.6395 451.271 21.6795 449.201 19.7595C447.13 17.8395 446.095 15.4587 446.095 12.6171C446.095 9.77553 447.13 7.39474 449.201 5.47474C451.271 3.55473 453.955 2.59473 457.252 2.59473C460.549 2.59473 463.233 3.51633 465.303 5.35953C467.373 7.12593 468.408 9.42993 468.408 12.2715C468.408 15.2667 467.373 17.7627 465.303 19.7595C463.309 21.6795 460.626 22.6395 457.252 22.6395ZM478.62 93.2571V82.4283L515.195 39.1131L518.3 45.1035H479.425V31.2795H532.792V42.1083L496.217 85.4235L492.997 79.4331H533.827V93.2571H478.62Z" fill="#6D4A9B"/>
</svg>
