<svg width="629" height="86" viewBox="0 0 629 86" fill="none" xmlns="http://www.w3.org/2000/svg">
<path d="M27.562 83.6438H1.13672V1.39227H28.399C36.397 1.39227 43.2658 3.0389 49.0052 6.33218C54.7447 9.59868 59.1423 14.2977 62.198 20.429C65.2803 26.5336 66.8215 33.8564 66.8215 42.3975C66.8215 50.9655 65.267 58.3285 62.1581 64.4866C59.0759 70.6447 54.6118 75.3838 48.7661 78.7039C42.9204 81.9972 35.8523 83.6438 27.562 83.6438ZM13.4526 72.8002H26.8845C33.1022 72.8002 38.2704 71.6221 42.3889 69.2659C46.5076 66.8829 49.5898 63.4424 51.6358 58.9443C53.6818 54.4194 54.7048 48.9038 54.7048 42.3975C54.7048 35.9449 53.6818 30.4694 51.6358 25.9714C49.6163 21.4732 46.6005 18.0594 42.5882 15.7301C38.576 13.4007 33.5938 12.236 27.6418 12.236H13.4526V72.8002ZM99.417 85.0093C95.5377 85.0093 92.0302 84.2865 88.8947 82.8406C85.7593 81.368 83.2748 79.2394 81.4414 76.4548C79.6346 73.6703 78.7312 70.2566 78.7312 66.2135C78.7312 62.7329 79.3954 59.868 80.724 57.6189C82.0526 55.3699 83.8462 53.5893 86.1048 52.2774C88.3633 50.9655 90.8876 49.9748 93.6775 49.3054C96.4676 48.636 99.3107 48.1274 102.207 47.7792C105.874 47.3509 108.85 47.0028 111.135 46.7351C113.42 46.4406 115.081 45.9719 116.117 45.3294C117.153 44.6868 117.672 43.6426 117.672 42.1968V41.9156C117.672 38.4082 116.689 35.6906 114.722 33.7628C112.783 31.835 109.886 30.871 106.033 30.871C102.021 30.871 98.8591 31.768 96.5473 33.5619C94.2621 35.329 92.6812 37.297 91.8043 39.4657L80.6044 36.8954C81.933 33.147 83.8727 30.1214 86.4236 27.8188C89.001 25.4894 91.9637 23.8026 95.3118 22.7584C98.6597 21.6874 102.181 21.1519 105.874 21.1519C108.319 21.1519 110.909 21.4464 113.646 22.0354C116.409 22.5977 118.987 23.642 121.378 25.1681C123.796 26.6943 125.775 28.8764 127.317 31.7146C128.858 34.5258 129.629 38.1806 129.629 42.6787V83.6438H117.99V75.2098H117.512C116.742 76.7628 115.586 78.2888 114.045 79.7883C112.503 81.2877 110.524 82.5327 108.106 83.5233C105.688 84.5139 102.792 85.0093 99.417 85.0093ZM102.008 75.3705C105.303 75.3705 108.119 74.7145 110.457 73.4025C112.822 72.0906 114.616 70.377 115.838 68.2618C117.087 66.1199 117.712 63.8306 117.712 61.3941V53.442C117.286 53.8705 116.463 54.2721 115.24 54.647C114.045 54.995 112.676 55.3029 111.135 55.5707C109.594 55.8116 108.093 56.0392 106.631 56.2534C105.17 56.4408 103.947 56.6015 102.964 56.7354C100.653 57.0299 98.5401 57.5252 96.6271 58.2214C94.7404 58.9175 93.2259 59.9215 92.0833 61.2335C90.9673 62.5187 90.4093 64.2322 90.4093 66.3742C90.4093 69.3461 91.4987 71.5952 93.6775 73.1214C95.8565 74.6208 98.6332 75.3705 102.008 75.3705ZM174.501 21.9552V31.594H141.061V21.9552H174.501ZM150.028 7.17558H161.945V65.5308C161.945 67.8602 162.291 69.6139 162.982 70.792C163.672 71.9433 164.563 72.7331 165.653 73.1616C166.768 73.5632 167.977 73.764 169.279 73.764C170.236 73.764 171.073 73.697 171.791 73.5632C172.507 73.4293 173.066 73.3222 173.464 73.242L175.616 83.1619C174.925 83.4296 173.943 83.6974 172.667 83.9651C171.392 84.2596 169.797 84.4203 167.884 84.447C164.749 84.5006 161.826 83.9383 159.116 82.7603C156.406 81.5822 154.214 79.7614 152.539 77.2982C150.865 74.8349 150.028 71.7425 150.028 68.0208V7.17558ZM205.92 85.0093C202.041 85.0093 198.534 84.2865 195.398 82.8406C192.262 81.368 189.778 79.2394 187.945 76.4548C186.138 73.6703 185.235 70.2566 185.235 66.2135C185.235 62.7329 185.899 59.868 187.227 57.6189C188.556 55.3699 190.35 53.5893 192.608 52.2774C194.866 50.9655 197.391 49.9748 200.181 49.3054C202.971 48.636 205.814 48.1274 208.71 47.7792C212.377 47.3509 215.353 47.0028 217.639 46.7351C219.923 46.4406 221.584 45.9719 222.62 45.3294C223.656 44.6868 224.175 43.6426 224.175 42.1968V41.9156C224.175 38.4082 223.192 35.6906 221.226 33.7628C219.286 31.835 216.39 30.871 212.536 30.871C208.524 30.871 205.363 31.768 203.05 33.5619C200.766 35.329 199.185 37.297 198.308 39.4657L187.108 36.8954C188.436 33.147 190.376 30.1214 192.926 27.8188C195.504 25.4894 198.467 23.8026 201.815 22.7584C205.163 21.6874 208.684 21.1519 212.377 21.1519C214.822 21.1519 217.413 21.4464 220.149 22.0354C222.913 22.5977 225.491 23.642 227.881 25.1681C230.299 26.6943 232.279 28.8764 233.821 31.7146C235.362 34.5258 236.132 38.1806 236.132 42.6787V83.6438H224.493V75.2098H224.015C223.245 76.7628 222.09 78.2888 220.547 79.7883C219.007 81.2877 217.027 82.5327 214.609 83.5233C212.192 84.5139 209.294 85.0093 205.92 85.0093ZM208.511 75.3705C211.806 75.3705 214.622 74.7145 216.961 73.4025C219.326 72.0906 221.119 70.377 222.341 68.2618C223.591 66.1199 224.215 63.8306 224.215 61.3941V53.442C223.789 53.8705 222.966 54.2721 221.743 54.647C220.547 54.995 219.18 55.3029 217.639 55.5707C216.098 55.8116 214.595 56.0392 213.134 56.2534C211.672 56.4408 210.451 56.6015 209.467 56.7354C207.156 57.0299 205.043 57.5252 203.131 58.2214C201.244 58.9175 199.73 59.9215 198.586 61.2335C197.471 62.5187 196.912 64.2322 196.912 66.3742C196.912 69.3461 198.002 71.5952 200.181 73.1214C202.36 74.6208 205.137 75.3705 208.511 75.3705Z" fill="#323459"/>
<path d="M308.625 27.377C307.854 24.9406 306.817 22.7584 305.516 20.8306C304.24 18.876 302.712 17.216 300.932 15.8505C299.152 14.4582 297.119 13.4007 294.833 12.6778C292.576 11.9548 290.091 11.5934 287.38 11.5934C282.784 11.5934 278.638 12.7849 274.945 15.1678C271.252 17.5507 268.329 21.0448 266.176 25.65C264.051 30.2285 262.988 35.8378 262.988 42.4779C262.988 49.1447 264.064 54.7808 266.216 59.386C268.369 63.9913 271.318 67.4854 275.064 69.8683C278.811 72.2512 283.076 73.4427 287.858 73.4427C292.296 73.4427 296.163 72.5324 299.457 70.7117C302.779 68.8911 305.343 66.3207 307.149 63.0006C308.984 59.6538 309.9 55.718 309.9 51.193L313.088 51.7954H289.732V41.5541H321.817V50.9119C321.817 57.8197 320.356 63.8173 317.433 68.9044C314.537 73.9648 310.524 77.8739 305.395 80.6317C300.294 83.3895 294.449 84.7683 287.858 84.7683C280.472 84.7683 273.989 83.0548 268.408 79.6276C262.855 76.2005 258.524 71.3409 255.414 65.0489C252.306 58.7301 250.752 51.2331 250.752 42.5582C250.752 35.9984 251.656 30.108 253.462 24.887C255.268 19.6659 257.807 15.2347 261.074 11.5934C264.37 7.92526 268.235 5.12732 272.673 3.19955C277.137 1.24501 282.013 0.267731 287.301 0.267731C291.712 0.267731 295.817 0.923708 299.616 2.23566C303.443 3.54762 306.844 5.40846 309.821 7.81817C312.823 10.2279 315.307 13.0927 317.274 16.4128C319.239 19.7061 320.569 23.3608 321.26 27.377H308.625ZM336.916 83.6438V21.9552H348.434V31.7546H349.072C350.188 28.4346 352.154 25.8241 354.971 23.9231C357.814 21.9954 361.029 21.0315 364.616 21.0315C365.36 21.0315 366.237 21.0582 367.247 21.1118C368.283 21.1653 369.094 21.2322 369.679 21.3126V32.7989C369.2 32.665 368.349 32.5178 367.127 32.3571C365.905 32.1696 364.683 32.076 363.46 32.076C360.643 32.076 358.133 32.6783 355.927 33.8833C353.749 35.0614 352.021 36.708 350.745 38.8231C349.471 40.9116 348.833 43.2945 348.833 45.9719V83.6438H336.916ZM397.681 85.0093C393.8 85.0093 390.293 84.2865 387.158 82.8406C384.023 81.368 381.538 79.2394 379.705 76.4548C377.898 73.6703 376.994 70.2566 376.994 66.2135C376.994 62.7329 377.659 59.868 378.987 57.6189C380.315 55.3698 382.109 53.5893 384.368 52.2774C386.626 50.9655 389.151 49.9748 391.94 49.3054C394.731 48.636 397.574 48.1274 400.47 47.7792C404.137 47.3509 407.113 47.0028 409.398 46.7351C411.684 46.4406 413.344 45.9719 414.381 45.3294C415.417 44.6868 415.935 43.6426 415.935 42.1968V41.9156C415.935 38.4082 414.951 35.6906 412.985 33.7628C411.045 31.8349 408.149 30.871 404.297 30.871C400.284 30.871 397.122 31.768 394.81 33.5619C392.525 35.329 390.944 37.297 390.067 39.4657L378.868 36.8954C380.196 33.147 382.136 30.1214 384.687 27.8187C387.264 25.4894 390.227 23.8025 393.575 22.7584C396.923 21.6874 400.443 21.1519 404.137 21.1519C406.581 21.1519 409.172 21.4464 411.909 22.0354C414.673 22.5977 417.25 23.642 419.642 25.1681C422.06 26.6943 424.039 28.8764 425.58 31.7145C427.121 34.5258 427.891 38.1806 427.891 42.6787V83.6438H416.254V75.2098H415.776C415.005 76.7628 413.849 78.2888 412.308 79.7883C410.767 81.2877 408.788 82.5326 406.369 83.5233C403.951 84.5139 401.055 85.0093 397.681 85.0093ZM400.27 75.3705C403.566 75.3705 406.383 74.7145 408.721 73.4025C411.085 72.0906 412.88 70.377 414.101 68.2618C415.35 66.1198 415.974 63.8306 415.974 61.3941V53.442C415.55 53.8705 414.726 54.2721 413.504 54.647C412.308 54.995 410.939 55.3029 409.398 55.5707C407.857 55.8116 406.356 56.0392 404.894 56.2534C403.433 56.4408 402.211 56.6015 401.228 56.7354C398.915 57.0299 396.804 57.5252 394.89 58.2214C393.004 58.9175 391.489 59.9215 390.347 61.2335C389.23 62.5187 388.672 64.2322 388.672 66.3742C388.672 69.3461 389.762 71.5952 391.94 73.1214C394.12 74.6208 396.896 75.3705 400.27 75.3705ZM467.103 84.8486C462.161 84.8486 457.75 83.5769 453.871 81.0333C450.019 78.463 446.989 74.8082 444.784 70.0691C442.605 65.3032 441.516 59.5868 441.516 52.92C441.516 46.2531 442.618 40.5502 444.824 35.811C447.056 31.0719 450.111 27.444 453.991 24.9271C457.871 22.4103 462.268 21.1519 467.184 21.1519C470.984 21.1519 474.039 21.7945 476.351 23.0797C478.69 24.3381 480.496 25.8107 481.771 27.4975C483.074 29.1843 484.083 30.6703 484.801 31.9555H485.517V1.39227H497.436V83.6438H485.797V74.0452H484.801C484.083 75.3571 483.047 76.8564 481.692 78.5433C480.363 80.2301 478.529 81.7027 476.191 82.9611C473.853 84.2194 470.824 84.8486 467.103 84.8486ZM469.734 74.6073C473.162 74.6073 476.059 73.697 478.423 71.8764C480.815 70.029 482.621 67.4719 483.844 64.2055C485.093 60.939 485.717 57.137 485.717 52.7995C485.717 48.5155 485.106 44.7671 483.884 41.5541C482.661 38.3413 480.868 35.8378 478.503 34.0439C476.139 32.25 473.216 31.353 469.734 31.353C466.147 31.353 463.158 32.2902 460.767 34.1644C458.376 36.0386 456.568 38.5956 455.346 41.8353C454.15 45.0751 453.553 48.7297 453.553 52.7995C453.553 56.9228 454.163 60.631 455.386 63.9244C456.608 67.2176 458.415 69.8281 460.806 71.7559C463.224 73.6569 466.201 74.6073 469.734 74.6073ZM541.251 84.8888C535.219 84.8888 530.024 83.5902 525.667 80.9931C521.335 78.3692 517.987 74.6877 515.623 69.9486C513.285 65.1827 512.115 59.6002 512.115 53.2011C512.115 46.8824 513.285 41.3132 515.623 36.4938C517.987 31.6744 521.283 27.9125 525.507 25.2082C529.759 22.5041 534.728 21.1519 540.413 21.1519C543.868 21.1519 547.216 21.7276 550.458 22.8789C553.7 24.0302 556.608 25.8374 559.186 28.3007C561.764 30.764 563.796 33.9635 565.285 37.8995C566.773 41.8085 567.517 46.561 567.517 52.1569V56.4141H518.851V47.4178H555.838C555.838 44.2584 555.201 41.4605 553.925 39.024C552.65 36.5607 550.856 34.6196 548.545 33.2005C546.259 31.7815 543.576 31.0719 540.493 31.0719C537.146 31.0719 534.223 31.9019 531.724 33.5619C529.254 35.1952 527.34 37.3372 525.985 39.9879C524.657 42.6118 523.993 45.4632 523.993 48.5423V55.5707C523.993 59.694 524.71 63.2014 526.145 66.0931C527.607 68.9847 529.639 71.1936 532.243 72.7198C534.847 74.2192 537.889 74.9689 541.37 74.9689C543.629 74.9689 545.689 74.6475 547.548 74.005C549.408 73.3356 551.015 72.345 552.37 71.033C553.727 69.721 554.762 68.1011 555.48 66.1735L566.759 68.2217C565.856 71.5685 564.235 74.5002 561.897 77.0171C559.585 79.5071 556.675 81.4483 553.168 82.8406C549.687 84.2061 545.714 84.8888 541.251 84.8888ZM627.035 37.0159L616.235 38.9436C615.782 37.5514 615.066 36.226 614.082 34.9676C613.126 33.7092 611.824 32.6783 610.176 31.8751C608.529 31.0719 606.469 30.6703 603.999 30.6703C600.623 30.6703 597.807 31.4333 595.548 32.9595C593.29 34.4589 592.161 36.4 592.161 38.783C592.161 40.8447 592.917 42.5046 594.433 43.763C595.947 45.0215 598.391 46.0523 601.767 46.8555L611.492 49.1046C617.125 50.4166 621.323 52.4381 624.087 55.169C626.849 57.9 628.231 61.4477 628.231 65.8119C628.231 69.5068 627.169 72.8002 625.043 75.6918C622.943 78.5566 620.008 80.8057 616.235 82.439C612.488 84.0722 608.143 84.8888 603.201 84.8888C596.345 84.8888 590.752 83.4162 586.422 80.471C582.09 77.4991 579.433 73.282 578.449 67.8201L589.969 66.0529C590.686 69.0785 592.161 71.3676 594.393 72.9206C596.625 74.4468 599.535 75.2098 603.122 75.2098C607.028 75.2098 610.149 74.3932 612.488 72.76C614.826 71.1 615.995 69.0785 615.995 66.6955C615.995 64.7678 615.277 63.1479 613.843 61.8359C612.435 60.524 610.269 59.5333 607.346 58.8639L596.984 56.5747C591.27 55.2628 587.046 53.1744 584.309 50.3094C581.599 47.4445 580.244 43.8166 580.244 39.4256C580.244 35.7842 581.253 32.5981 583.272 29.8671C585.292 27.136 588.082 25.0075 591.643 23.4813C595.203 21.9283 599.282 21.1519 603.878 21.1519C610.496 21.1519 615.703 22.5977 619.503 25.4894C623.302 28.3543 625.814 32.1964 627.035 37.0159Z" fill="#4B4B4B"/>
</svg>
