<svg width="157" height="156" viewBox="0 0 157 156" fill="none" xmlns="http://www.w3.org/2000/svg">
<path d="M150.171 0.592773H6.82894C3.38172 0.592773 0.59668 3.36008 0.59668 6.78534V149.214C0.59668 152.64 3.38172 155.407 6.82894 155.407H150.171C153.618 155.407 156.403 152.64 156.403 149.214V6.78534C156.403 3.36008 153.618 0.592773 150.171 0.592773ZM132.175 45.7792H119.73C109.973 45.7792 108.084 50.3849 108.084 57.158V72.0782H131.377L128.339 95.4358H108.084V155.407H83.7974V95.4552H63.4841V72.0782H83.7974V54.8551C83.7974 34.8648 96.0866 23.9697 114.043 23.9697C122.652 23.9697 130.033 24.6083 132.195 24.8986V45.7792H132.175Z" fill="#F8F8F8"/>
</svg>
