<svg width="390" height="390" viewBox="0 0 390 390" fill="none" xmlns="http://www.w3.org/2000/svg">
<path d="M203.379 134.062V51.7969H88.3594V338.203H301.641V150.059H219.375C215.133 150.059 211.064 148.373 208.064 145.373C205.064 142.374 203.379 138.305 203.379 134.062V134.062ZM195 256.699C195 258.375 193.629 259.746 191.953 259.746H121.875C120.199 259.746 118.828 258.375 118.828 256.699V238.418C118.828 236.742 120.199 235.371 121.875 235.371H191.953C193.629 235.371 195 236.742 195 238.418V256.699ZM271.172 186.621V204.902C271.172 206.578 269.801 207.949 268.125 207.949H121.875C120.199 207.949 118.828 206.578 118.828 204.902V186.621C118.828 184.945 120.199 183.574 121.875 183.574H268.125C269.801 183.574 271.172 184.945 271.172 186.621Z" fill="#F8F8F8" fill-opacity="0.15"/>
<path d="M325.482 109.916L243.521 27.9551C241.236 25.6699 238.151 24.375 234.914 24.375H73.125C66.3838 24.375 60.9375 29.8213 60.9375 36.5625V353.438C60.9375 360.179 66.3838 365.625 73.125 365.625H316.875C323.616 365.625 329.062 360.179 329.062 353.438V118.562C329.062 115.324 327.768 112.201 325.482 109.916ZM229.277 52.4824L300.955 124.16H229.277V52.4824ZM301.641 338.203H88.3594V51.7969H203.379V134.062C203.379 138.305 205.064 142.374 208.064 145.373C211.064 148.373 215.133 150.059 219.375 150.059H301.641V338.203Z" fill="#F8F8F8"/>
<path d="M118.828 186.621V204.902C118.828 206.578 120.199 207.949 121.875 207.949H268.125C269.801 207.949 271.172 206.578 271.172 204.902V186.621C271.172 184.945 269.801 183.574 268.125 183.574H121.875C120.199 183.574 118.828 184.945 118.828 186.621ZM191.953 235.371H121.875C120.199 235.371 118.828 236.742 118.828 238.418V256.699C118.828 258.375 120.199 259.746 121.875 259.746H191.953C193.629 259.746 195 258.375 195 256.699V238.418C195 236.742 193.629 235.371 191.953 235.371Z" fill="#F8F8F8"/>
</svg>
