<svg width="356" height="356" viewBox="0 0 356 356" fill="none" xmlns="http://www.w3.org/2000/svg">
<g clip-path="url(#clip0_475_16)">
<path d="M349.281 162.136L193.842 6.71956C191.714 4.59027 189.187 2.90117 186.406 1.74875C183.624 0.596328 180.643 0.00317383 177.633 0.00317383C174.622 0.00317383 171.641 0.596328 168.86 1.74875C166.079 2.90117 163.552 4.59027 161.424 6.71956L129.161 38.9821L170.101 79.9221C174.93 78.2735 180.124 78.0156 185.092 79.1778C190.06 80.3399 194.601 82.8753 198.197 86.4945C201.793 90.1138 204.299 94.6711 205.429 99.6464C206.56 104.622 206.268 109.814 204.589 114.632L244.038 154.104C249.874 152.049 256.237 152.042 262.077 154.086C267.918 156.129 272.888 160.101 276.17 165.346C279.452 170.592 280.85 176.799 280.134 182.945C279.417 189.091 276.629 194.81 272.229 199.16C267.774 203.642 261.901 206.438 255.614 207.071C249.326 207.704 243.014 206.135 237.755 202.631C232.496 199.127 228.617 193.905 226.78 187.859C224.943 181.812 225.263 175.315 227.684 169.478L190.905 132.677V229.531C196.496 232.298 200.969 236.898 203.579 242.564C206.189 248.229 206.779 254.618 205.25 260.666C203.721 266.713 200.165 272.054 195.175 275.798C190.186 279.541 184.064 281.462 177.83 281.239C171.596 281.017 165.627 278.664 160.917 274.574C156.207 270.484 153.042 264.903 151.948 258.762C150.854 252.621 151.898 246.29 154.906 240.825C157.913 235.36 162.703 231.091 168.477 228.73V130.986C165.146 129.621 162.118 127.61 159.568 125.069C157.017 122.529 154.995 119.508 153.618 116.182C152.24 112.857 151.535 109.291 151.542 105.691C151.549 102.091 152.268 98.5283 153.659 95.2078L113.319 54.8463L6.74178 161.424C4.61249 163.552 2.92339 166.079 1.77097 168.86C0.618545 171.641 0.0253906 174.622 0.0253906 177.633C0.0253906 180.643 0.618545 183.624 1.77097 186.406C2.92339 189.187 4.61249 191.714 6.74178 193.842L162.18 349.281C164.309 351.41 166.835 353.099 169.617 354.251C172.398 355.404 175.379 355.997 178.389 355.997C181.4 355.997 184.381 355.404 187.162 354.251C189.943 353.099 192.47 351.41 194.599 349.281L349.303 194.576C353.598 190.275 356.01 184.445 356.01 178.367C356.01 172.289 353.598 166.459 349.303 162.158" fill="#F8F8F8"/>
</g>
<defs>
<clipPath id="clip0_475_16">
<rect width="356" height="356" fill="white"/>
</clipPath>
</defs>
</svg>
