<svg width="565" height="83" viewBox="0 0 565 83" fill="none" xmlns="http://www.w3.org/2000/svg">
<path d="M19.4905 7.44379V81.2526H0.353516V7.44379H19.4905Z" fill="url(#paint0_linear_408_31)"/>
<path d="M34.4395 81.2526V25.3368H51.3512L52.3526 44.5719L50.2386 42.4471C50.9803 38.4211 52.2784 35.0662 54.1327 32.3822C56.0613 29.6983 58.4348 27.6853 61.2535 26.3433C64.1463 24.9268 67.3729 24.2185 70.9332 24.2185C74.7903 24.2185 78.1281 24.964 80.9468 26.4552C83.8396 27.9463 86.1019 30.1456 87.7342 33.0532C89.3657 35.9608 90.1819 39.614 90.1819 44.0127V81.2526H71.267V49.0451C71.267 45.1683 70.5253 42.4844 69.0418 40.9933C67.5583 39.5021 65.6668 38.7566 63.3675 38.7566C61.5873 38.7566 59.9183 39.204 58.3607 40.0986C56.803 40.9187 55.5791 42.2607 54.6891 44.1245C53.799 45.9884 53.3539 48.486 53.3539 51.6173V81.2526H34.4395ZM203.272 82.3709C197.116 82.3709 191.775 81.2153 187.251 78.9042C182.8 76.593 179.351 73.2753 176.903 68.9512C174.456 64.627 173.232 59.4082 173.232 53.2947C173.232 47.1813 174.456 41.9624 176.903 37.6383C179.351 33.3142 182.763 29.9965 187.139 27.6853C191.59 25.3741 196.671 24.2185 202.382 24.2185C208.242 24.2185 213.211 25.3741 217.291 27.6853C221.444 29.9219 224.597 33.0532 226.748 37.0792C228.899 41.0306 229.975 45.5784 229.975 50.7226C229.975 52.0646 229.938 53.4066 229.864 54.7485C229.789 56.0905 229.678 57.2088 229.53 58.1035H185.47V47.9268H221.185L212.173 51.3936C212.173 46.9203 211.357 43.4909 209.725 41.1051C208.168 38.7193 205.72 37.5265 202.382 37.5265C200.008 37.5265 197.968 38.0856 196.263 39.204C194.63 40.3223 193.37 42.0743 192.48 44.46C191.664 46.8458 191.256 49.9025 191.256 53.6302C191.256 57.2834 191.738 60.2656 192.702 62.5768C193.666 64.8134 195.039 66.4535 196.819 67.4973C198.599 68.4665 200.75 68.9512 203.272 68.9512C206.09 68.9512 208.316 68.392 209.948 67.2737C211.653 66.1554 212.915 64.5897 213.731 62.5768L228.862 67.6092C227.824 70.815 226.006 73.5362 223.411 75.7729C220.888 77.935 217.848 79.5752 214.287 80.6935C210.801 81.8118 207.129 82.3709 203.272 82.3709ZM259.248 1.62854V62.2413C259.248 64.7015 259.656 66.4535 260.472 67.4973C261.287 68.5411 262.66 69.063 264.589 69.063C265.701 69.063 266.628 68.9885 267.37 68.8393C268.112 68.6902 269.002 68.4665 270.041 68.1683L268.817 79.5752C267.482 80.3953 265.738 81.0663 263.587 81.5881C261.436 82.11 259.322 82.3709 257.245 82.3709C251.311 82.3709 247.009 80.9917 244.339 78.2332C241.669 75.4747 240.334 70.9641 240.334 64.7016V1.62854H259.248ZM304.103 82.3709C297.946 82.3709 292.606 81.2153 288.081 78.9042C283.631 76.593 280.182 73.2753 277.734 68.9512C275.286 64.627 274.062 59.4082 274.062 53.2947C274.062 47.1813 275.286 41.9624 277.734 37.6383C280.182 33.3142 283.594 29.9965 287.97 27.6853C292.421 25.3741 297.501 24.2185 303.213 24.2185C309.072 24.2185 314.042 25.3741 318.122 27.6853C322.275 29.9219 325.428 33.0532 327.579 37.0792C329.73 41.0306 330.806 45.5784 330.806 50.7226C330.806 52.0646 330.768 53.4066 330.695 54.7485C330.62 56.0905 330.509 57.2088 330.361 58.1035H286.301V47.9268H322.016L313.004 51.3936C313.004 46.9203 312.188 43.4909 310.556 41.1051C308.999 38.7193 306.551 37.5265 303.213 37.5265C300.839 37.5265 298.799 38.0856 297.094 39.204C295.461 40.3223 294.201 42.0743 293.311 44.46C292.495 46.8458 292.087 49.9025 292.087 53.6302C292.087 57.2834 292.568 60.2656 293.533 62.5768C294.497 64.8134 295.87 66.4535 297.65 67.4973C299.43 68.4665 301.581 68.9512 304.103 68.9512C306.921 68.9512 309.146 68.392 310.779 67.2737C312.484 66.1554 313.745 64.5897 314.562 62.5768L329.693 67.6092C328.654 70.815 326.837 73.5362 324.241 75.7729C321.719 77.935 318.678 79.5752 315.118 80.6935C311.631 81.8118 307.96 82.3709 304.103 82.3709ZM414.076 81.2526V25.3368H430.766L431.544 37.4146C432.953 33.2396 435.03 29.9965 437.775 27.6853C440.593 25.3741 444.154 24.2185 448.456 24.2185C449.865 24.2185 451.052 24.3304 452.017 24.554C453.054 24.7777 453.871 25.0759 454.464 25.4487L452.573 41.1051C451.831 40.8069 450.867 40.5832 449.68 40.4341C448.568 40.2104 447.195 40.0986 445.563 40.0986C443.338 40.0986 441.261 40.5832 439.333 41.5524C437.404 42.5216 435.846 43.9754 434.66 45.9138C433.547 47.7777 432.991 50.1634 432.991 53.0711V81.2526H414.076ZM492.383 45.802C492.383 43.1926 491.641 41.1424 490.158 39.6513C488.748 38.0856 486.82 37.3028 484.372 37.3028C481.924 37.3028 479.81 37.9365 478.03 39.204C476.324 40.3968 475.137 42.5589 474.47 45.6902L458.448 41.8879C459.486 36.52 462.231 32.2331 466.681 29.0273C471.132 25.8215 477.399 24.2185 485.485 24.2185C490.899 24.2185 495.498 25.0386 499.281 26.6788C503.138 28.2445 506.068 30.6302 508.071 33.836C510.147 36.9673 511.186 40.8441 511.186 45.4665V65.9317C511.186 68.8393 512.484 70.2931 515.08 70.2931C516.415 70.2931 517.491 70.144 518.307 69.8458L517.194 80.6935C514.969 81.7373 512.261 82.2591 509.072 82.2591C506.179 82.2591 503.62 81.8118 501.395 80.9171C499.17 79.948 497.426 78.5314 496.166 76.6675C494.904 74.7291 494.274 72.3061 494.274 69.3985V68.7275L496.388 67.9447C496.388 71.1505 495.423 73.8344 493.495 75.9965C491.64 78.1586 489.193 79.7615 486.152 80.8053C483.185 81.8491 480.069 82.3709 476.806 82.3709C473.023 82.3709 469.722 81.7745 466.904 80.5816C464.085 79.3888 461.897 77.674 460.339 75.4374C458.856 73.1262 458.114 70.2931 458.114 66.9382C458.114 62.9122 459.301 59.5946 461.675 56.9852C464.122 54.3012 467.942 52.4374 473.135 51.3936L494.163 47.0322L494.052 57.097L483.371 59.3336C481.145 59.781 479.476 60.452 478.364 61.3466C477.325 62.1667 476.806 63.4341 476.806 65.1489C476.806 66.789 477.399 68.0192 478.586 68.8393C479.773 69.6594 481.182 70.0695 482.814 70.0695C484.075 70.0695 485.262 69.8831 486.375 69.5103C487.561 69.1375 488.6 68.5784 489.49 67.8328C490.38 67.0127 491.084 66.0062 491.604 64.8134C492.123 63.6205 492.383 62.204 492.383 60.5638V45.802ZM551.478 0.0628967C554.52 0.0628967 557.19 0.398392 559.49 1.06938C561.789 1.66581 563.495 2.37408 564.608 3.19418L562.717 15.0483C561.9 14.5265 560.973 14.1164 559.935 13.8182C558.896 13.52 557.599 13.3709 556.041 13.3709C553.445 13.3709 551.293 13.9673 549.588 15.1602C547.955 16.353 547.14 18.4406 547.14 21.4227V28.6918L548.253 31.8231V81.2526H529.338V20.1926C529.338 16.614 529.894 13.5572 531.007 11.0224C532.194 8.48754 533.825 6.40002 535.903 4.75982C537.979 3.11962 540.353 1.92675 543.023 1.18121C545.694 0.435668 548.512 0.0628967 551.478 0.0628967ZM564.052 25.3368V38.8685H520.437V25.3368H564.052Z" fill="#242424"/>
<path d="M166.52 7.44379V22.3174H142.599V81.2526H123.462V22.3174H99.4297V7.44379H166.52Z" fill="url(#paint1_linear_408_31)"/>
<path d="M404.473 7.44379V22.3174H380.551V81.2526H361.414V22.3174H337.382V7.44379H404.473Z" fill="url(#paint2_linear_408_31)"/>
<defs>
<linearGradient id="paint0_linear_408_31" x1="278.589" y1="-22.7158" x2="278.589" y2="108.337" gradientUnits="userSpaceOnUse">
<stop stop-color="#0F6C00"/>
<stop offset="1" stop-color="#0F6C00" stop-opacity="0"/>
</linearGradient>
<linearGradient id="paint1_linear_408_31" x1="278.589" y1="-22.7158" x2="278.589" y2="108.337" gradientUnits="userSpaceOnUse">
<stop stop-color="#FF5C00"/>
<stop offset="0.640625" stop-color="#FF5C00" stop-opacity="0.819923"/>
<stop offset="0.90625" stop-color="#FF5C00" stop-opacity="0.510417"/>
<stop offset="1" stop-color="#FF5C00" stop-opacity="0"/>
</linearGradient>
<linearGradient id="paint2_linear_408_31" x1="278.589" y1="-22.7158" x2="278.589" y2="108.337" gradientUnits="userSpaceOnUse">
<stop stop-color="#FF0000"/>
<stop offset="0.692708" stop-color="#FF0000" stop-opacity="0.699346"/>
<stop offset="0.796875" stop-color="#FF0000" stop-opacity="0.5"/>
<stop offset="1" stop-color="#FF0000" stop-opacity="0"/>
</linearGradient>
</defs>
</svg>
