<svg width="615" height="615" viewBox="0 0 615 615" fill="none" xmlns="http://www.w3.org/2000/svg">
<g clip-path="url(#clip0_482_10)">
<path d="M499.726 615H76.9131C56.5246 615 36.9711 606.901 22.5542 592.484C8.13739 578.067 0.0380859 558.514 0.0380859 538.125V115.312C0.0380859 94.924 8.13739 75.3705 22.5542 60.9537C36.9711 46.5368 56.5246 38.4375 76.9131 38.4375H230.663V115.312H76.9131V538.125H499.726V384.375H576.601V538.125C576.601 558.514 568.501 578.067 554.084 592.484C539.668 606.901 520.114 615 499.726 615ZM296.007 373.113L241.81 318.762L483.697 76.875H345.976V0H615.038V269.062H538.163V131.264L296.007 373.113V373.113Z" fill="#222222"/>
</g>
<defs>
<clipPath id="clip0_482_10">
<rect width="615" height="615" fill="white"/>
</clipPath>
</defs>
</svg>
