<svg width="156" height="156" viewBox="0 0 156 156" fill="none" xmlns="http://www.w3.org/2000/svg">
<path d="M149.452 0.334473H6.54783C3.11113 0.334473 0.334595 3.11101 0.334595 6.54771V149.452C0.334595 152.889 3.11113 155.665 6.54783 155.665H149.452C152.889 155.665 155.665 152.889 155.665 149.452V6.54771C155.665 3.11101 152.889 0.334473 149.452 0.334473ZM46.4096 132.696H23.3624V58.5641H46.4096V132.696ZM34.8957 48.4288C32.2537 48.4288 29.6709 47.6453 27.4742 46.1775C25.2774 44.7096 23.5652 42.6233 22.5541 40.1824C21.543 37.7415 21.2785 35.0555 21.7939 32.4642C22.3094 29.8729 23.5816 27.4927 25.4499 25.6245C27.3181 23.7563 29.6983 22.484 32.2896 21.9686C34.8809 21.4531 37.5668 21.7177 40.0078 22.7287C42.4487 23.7398 44.535 25.452 46.0029 27.6488C47.4707 29.8456 48.2542 32.4283 48.2542 35.0703C48.2348 42.4486 42.2545 48.4288 34.8957 48.4288ZM132.696 132.696H109.668V96.6396C109.668 88.0382 109.513 76.9903 97.6882 76.9903C85.7083 76.9903 83.8638 86.3489 83.8638 96.0183V132.696H60.8554V58.5641H82.9512V68.6995H83.2619C86.3297 62.8746 93.8438 56.7196 105.066 56.7196C128.405 56.7196 132.696 72.0779 132.696 92.0379V132.696V132.696Z" fill="#F8F8F8"/>
</svg>
