<svg width="85" height="85" viewBox="0 0 85 85" fill="none" xmlns="http://www.w3.org/2000/svg">
<g clip-path="url(#clip0_51_125)">
<path d="M84.5352 10.0273C84.5352 4.78125 80.2852 0.53125 75.0391 0.53125C69.793 0.53125 65.4766 4.71484 65.4766 10.0273C65.4766 15.3398 69.7266 19.5234 75.0391 19.5234C80.3516 19.5234 84.5352 15.2734 84.5352 10.0273Z" fill="#111A26"/>
<path d="M42.5 10.0273C24.5703 10.0273 9.96094 24.5703 9.96094 42.5664C9.96094 60.5625 24.5039 75.1055 42.5 75.1055C60.4961 75.1055 75.0391 60.5625 75.0391 42.5664C75.0391 24.5703 60.4297 10.0273 42.5 10.0273ZM46.4844 29.0195C46.4844 23.7734 50.7344 19.5234 55.9805 19.5234C61.2266 19.5234 65.4766 23.7734 65.4766 29.0195C65.4766 34.2656 61.2266 38.5156 55.9805 38.5156C50.7344 38.5156 46.4844 34.2656 46.4844 29.0195ZM44.0273 85L43.9609 84.0039C45.1562 83.9375 46.3516 83.8711 47.5469 83.7383L47.6797 84.7344C46.4844 84.8672 45.2227 84.9336 44.0273 85ZM40.3086 85C39.0469 84.9336 37.8516 84.8008 36.5898 84.668L36.7227 83.6719C37.918 83.8047 39.1133 83.9375 40.3086 84.0039V85ZM51.332 84.0703L51.1328 83.1406C52.3281 82.875 53.457 82.6094 54.6523 82.2109L54.918 83.1406C53.7891 83.5391 52.5938 83.8711 51.332 84.0703ZM32.9375 83.9375C31.7422 83.6719 30.5469 83.3398 29.3516 82.9414L29.6836 82.0117C30.8125 82.4102 32.0078 82.6758 33.2031 83.0078L32.9375 83.9375ZM58.4375 81.9453L58.0391 81.0156C59.168 80.5508 60.2305 80.0859 61.3594 79.4883L61.8242 80.3516C60.6953 80.9492 59.5664 81.4805 58.4375 81.9453ZM25.8984 81.6797C24.7695 81.2148 23.6406 80.6836 22.5781 80.0859L23.043 79.2227C24.1055 79.8203 25.2344 80.2852 26.2969 80.8164L25.8984 81.6797ZM65.0781 78.5586L64.5469 77.7617C65.543 77.0977 66.5391 76.4336 67.5352 75.7031L68.1328 76.5C67.1367 77.2305 66.0742 77.8945 65.0781 78.5586ZM19.3906 78.1602C18.3281 77.4961 17.332 76.7656 16.4023 76.0352L17 75.2383C17.9297 75.9688 18.9258 76.6992 19.9219 77.3633L19.3906 78.1602ZM70.9883 74.1094L70.3242 73.3789C71.1875 72.582 72.1172 71.7188 72.9141 70.8555L73.6445 71.5195C72.7812 72.3828 71.8516 73.2461 70.9883 74.1094ZM13.5469 73.6445C12.6172 72.7812 11.7539 71.918 10.957 70.9883L11.6875 70.3242C12.4844 71.1875 13.3477 72.1172 14.2109 72.9141L13.5469 73.6445ZM76.0352 68.6641L75.2383 68.0664C75.9688 67.1367 76.6992 66.1406 77.3633 65.1445L78.1602 65.6758C77.4961 66.6719 76.7656 67.7344 76.0352 68.6641ZM8.56641 68.1328C7.83594 67.1367 7.10547 66.1406 6.44141 65.0781L7.23828 64.5469C7.90234 65.543 8.56641 66.5391 9.29688 67.5352L8.56641 68.1328ZM80.0859 62.4883L79.2227 62.0234C79.8203 60.9609 80.2852 59.832 80.8164 58.7695L81.6797 59.1016L80.0859 62.4883ZM4.64844 61.8242C4.11719 60.6953 3.58594 59.5664 3.12109 58.4375L3.98438 58.1055C4.44922 59.2344 4.91406 60.2969 5.51172 61.4258L4.64844 61.8242ZM82.9414 55.6484L82.0117 55.3164C82.4102 54.1875 82.6758 52.9922 83.0078 51.7969L83.9375 51.9961C83.6719 53.2578 83.3398 54.4531 82.9414 55.6484ZM1.85938 54.9844C1.52734 53.7891 1.19531 52.5938 0.929688 51.3984L1.85938 51.1992C2.125 52.3945 2.39062 53.5234 2.78906 54.7188L1.85938 54.9844ZM84.6016 48.4102L83.6055 48.2773C83.7383 47.082 83.8711 45.8867 83.9375 44.6914L84.9336 44.7578C84.9336 45.9531 84.8008 47.2148 84.6016 48.4102ZM0.332031 47.7461C0.132812 46.4844 0.0664062 45.2891 0 44.0273L0.996094 43.9609C1.0625 45.1562 1.12891 46.3516 1.26172 47.5469L0.332031 47.7461ZM84.0039 41.0391C83.9375 39.8438 83.8711 38.6484 83.7383 37.4531L84.7344 37.3203C84.8672 38.5156 85 39.7773 85 41.0391H84.0039ZM0.996094 40.375L0 40.3086C0.0664062 39.0469 0.199219 37.8516 0.332031 36.5898L1.32812 36.7891C1.19531 37.9844 1.0625 39.1797 0.996094 40.375ZM83.1406 33.8672C82.875 32.6719 82.6094 31.4766 82.2109 30.3477L83.1406 30.082C83.4727 31.2773 83.8047 32.4727 84.0703 33.668L83.1406 33.8672ZM1.99219 33.2031L1.0625 33.0039C1.32812 31.8086 1.66016 30.6133 2.05859 29.418L2.98828 29.75C2.58984 30.8789 2.25781 32.0078 1.99219 33.2031ZM81.0156 26.9609C80.5508 25.832 80.0859 24.7031 79.4883 23.6406L80.3516 23.1758C80.8828 24.3047 81.4141 25.4336 81.8789 26.5625L81.0156 26.9609ZM4.25 26.2969L3.32031 25.9648C3.78516 24.8359 4.31641 23.707 4.91406 22.6445L5.77734 23.1094C5.24609 24.1055 4.71484 25.2344 4.25 26.2969ZM7.63672 19.9219L6.83984 19.3906C7.50391 18.3281 8.23438 17.332 8.96484 16.4023L9.76172 17C8.96484 17.9297 8.30078 18.9258 7.63672 19.9219ZM12.0859 14.2109L11.3555 13.5469C12.2188 12.6172 13.082 11.7539 14.0117 10.957L14.6758 11.6875C13.7461 12.4844 12.8828 13.3477 12.0859 14.2109ZM17.4648 9.36328L16.8672 8.56641C17.8633 7.83594 18.8594 7.10547 19.9219 6.44141L20.4531 7.23828C19.3906 7.96875 18.3945 8.63281 17.4648 9.36328ZM61.957 5.77734C60.8945 5.24609 59.7656 4.71484 58.7031 4.25L59.0352 3.32031C60.1641 3.78516 61.293 4.31641 62.3555 4.91406L61.957 5.77734ZM23.5742 5.51172L23.1094 4.64844C24.2383 4.11719 25.3672 3.58594 26.4961 3.12109L26.8945 3.98438C25.7656 4.44922 24.6367 4.98047 23.5742 5.51172ZM55.25 2.98828C54.1211 2.58984 52.9258 2.32422 51.7305 2.05859L51.9297 1.12891C53.125 1.39453 54.3203 1.72656 55.5156 2.125L55.25 2.98828ZM30.2812 2.78906L30.0156 1.85938C31.2109 1.52734 32.4062 1.19531 33.6016 0.929688L33.8008 1.85938C32.6055 2.125 31.4102 2.45703 30.2812 2.78906ZM48.2109 1.32812C47.0156 1.19531 45.8203 1.0625 44.625 0.996094L44.6914 0C45.9531 0.0664062 47.1484 0.199219 48.4102 0.332031L48.2109 1.32812ZM37.3867 1.26172L37.2539 0.265625C38.4492 0.132812 39.7109 0 40.9727 0L41.0391 0.996094C39.7773 0.996094 38.582 1.12891 37.3867 1.26172Z" fill="#111A26"/>
</g>
<defs>
<clipPath id="clip0_51_125">
<rect width="85" height="85" fill="white"/>
</clipPath>
</defs>
</svg>
