<svg width="156" height="156" viewBox="0 0 156 156" fill="none" xmlns="http://www.w3.org/2000/svg">
<path d="M104.007 110.868L117.44 97.4296C119.249 95.6421 121.538 94.4184 124.029 93.9072C126.52 93.3961 129.106 93.6193 131.473 94.5499L147.844 101.089C150.236 102.06 152.287 103.718 153.738 105.853C155.189 107.989 155.976 110.506 156 113.088V143.085C155.986 144.841 155.617 146.577 154.915 148.187C154.213 149.797 153.192 151.248 151.915 152.453C150.638 153.658 149.13 154.592 147.482 155.199C145.834 155.805 144.081 156.072 142.327 155.983C27.6058 148.844 4.45762 51.6546 0.0798639 14.4587C-0.123355 12.6321 0.0623207 10.7832 0.624674 9.03352C1.18703 7.28388 2.11331 5.67318 3.3426 4.30739C4.57188 2.9416 6.0763 1.85167 7.75688 1.10931C9.43746 0.366942 11.2561 -0.0110338 13.0932 0.000245187H42.0584C44.6431 0.00789907 47.1664 0.788964 49.3038 2.24298C51.4412 3.69699 53.0949 5.75746 54.0522 8.15936L60.5889 24.5376C61.5499 26.8957 61.7951 29.4849 61.2938 31.9816C60.7925 34.4784 59.567 36.772 57.7703 38.576L44.3372 52.0146C44.3372 52.0146 52.0732 104.389 104.007 110.868Z" fill="#F8F8F8"/>
</svg>
