<svg width="86" height="86" viewBox="0 0 86 86" fill="none" xmlns="http://www.w3.org/2000/svg">
<path d="M43 50.6594C47.2302 50.6594 50.6594 47.2302 50.6594 43C50.6594 38.7699 47.2302 35.3406 43 35.3406C38.7699 35.3406 35.3406 38.7699 35.3406 43C35.3406 47.2302 38.7699 50.6594 43 50.6594Z" fill="#F8F8F8"/>
<path d="M72.0922 30.3688C70.6141 29.8313 69.0687 29.2938 67.4562 28.8235C67.8594 27.2109 68.1953 25.5984 68.4641 24.0531C69.875 15.1844 68.3297 8.93595 64.0297 6.5172C62.7531 5.77814 61.3422 5.4422 59.7297 5.4422C55.0266 5.4422 49.0469 8.93595 43 14.7813C36.9531 8.93595 30.9734 5.4422 26.2703 5.4422C24.6578 5.4422 23.2469 5.77814 21.9703 6.5172C17.6703 9.00314 16.125 15.2516 17.5359 24.0531C17.8047 25.5984 18.1406 27.2109 18.5437 28.8235C16.9312 29.2938 15.3859 29.7641 13.9078 30.3688C5.50936 33.5938 0.940613 38.0281 0.940613 43C0.940613 47.9719 5.57655 52.4063 13.9078 55.6313C15.3859 56.1688 16.9312 56.7063 18.5437 57.1766C18.1406 58.7891 17.8047 60.4016 17.5359 61.9469C16.125 70.8156 17.6703 77.0641 21.9703 79.4828C23.2469 80.2219 24.6578 80.5578 26.2703 80.5578C31.0406 80.5578 37.0203 77.0641 43 71.2188C49.0469 77.0641 55.0266 80.5578 59.7297 80.5578C61.3422 80.5578 62.7531 80.2219 64.0297 79.4828C68.3297 76.9969 69.875 70.7484 68.4641 61.9469C68.1953 60.4016 67.8594 58.7891 67.4562 57.1766C69.0687 56.7063 70.6141 56.2359 72.0922 55.6313C80.4906 52.4063 85.0594 47.9719 85.0594 43C85.0594 38.0281 80.4906 33.5938 72.0922 30.3688ZM62.1484 9.87657C64.9031 11.4891 65.8437 16.4609 64.7015 23.5156C64.5 24.9266 64.1641 26.4047 63.7609 27.95C60.2672 27.1438 56.5719 26.6063 52.675 26.2703C50.3906 23.0453 48.0391 20.1563 45.6875 17.5359C50.6594 12.6313 55.6984 9.27189 59.7969 9.27189C60.6703 9.27189 61.4766 9.47345 62.1484 9.87657ZM54.6234 49.7188C53.4141 51.8688 52.0031 54.0188 50.525 56.1688C48.039 56.3703 45.5531 56.4375 43 56.4375C40.3797 56.4375 37.8937 56.3703 35.475 56.1688C33.9969 54.0188 32.6531 51.8688 31.4437 49.7188C30.1672 47.5016 28.9578 45.2172 27.8828 43C28.9578 40.7828 30.1672 38.4984 31.4437 36.2813C32.6531 34.1313 34.064 31.9813 35.5422 29.8313C38.0281 29.6297 40.514 29.5625 43.0672 29.5625C45.6875 29.5625 48.1734 29.6297 50.5922 29.8313C52.0703 31.9813 53.4141 34.1313 54.6234 36.2813C55.9 38.4984 57.1094 40.7828 58.1844 43C57.0422 45.2172 55.9 47.4344 54.6234 49.7188ZM60.2 47.5016C61.2078 49.8531 62.014 52.1375 62.7531 54.4219C60.4687 54.9594 58.05 55.3625 55.4969 55.6984C56.3031 54.4219 57.1765 53.0781 57.9156 51.6672C58.7219 50.2563 59.4609 48.8453 60.2 47.5016ZM43 65.7094C41.3875 63.9625 39.8422 62.0813 38.364 60.1328C39.9094 60.2 41.4547 60.2672 43 60.2672C44.5453 60.2672 46.0906 60.2 47.6359 60.1328C46.1578 62.0813 44.6125 63.9625 43 65.7094ZM30.5031 55.6313C27.95 55.2953 25.5312 54.8922 23.2469 54.3547C23.9859 52.1375 24.7922 49.7859 25.8 47.4344C26.5391 48.7781 27.2781 50.1891 28.0844 51.5328C28.8906 53.0109 29.6969 54.2875 30.5031 55.6313ZM25.8 38.4984C24.7922 36.1469 23.9859 33.8625 23.2469 31.5781C25.5312 31.0406 27.95 30.6375 30.5031 30.3016C29.6969 31.5781 28.8234 32.9219 28.0844 34.3328C27.2781 35.7438 26.5391 37.1547 25.8 38.4984ZM43 20.2906C44.6125 22.0375 46.1578 23.9188 47.6359 25.8672C46.0906 25.8 44.5453 25.7328 43 25.7328C41.4547 25.7328 39.9094 25.8 38.364 25.8672C39.8422 23.9188 41.3875 22.0375 43 20.2906ZM57.9156 34.4L55.4969 30.3688C58.05 30.7047 60.4687 31.1078 62.7531 31.6453C62.014 33.8625 61.2078 36.2141 60.2 38.5656C59.4609 37.1547 58.7219 35.7438 57.9156 34.4ZM21.2984 23.5156C20.1562 16.4609 21.0969 11.4891 23.8515 9.87657C24.5234 9.47345 25.3297 9.27189 26.2031 9.27189C30.2344 9.27189 35.2734 12.5641 40.3125 17.5359C37.9609 20.0891 35.6094 23.0453 33.325 26.2703C29.4281 26.6063 25.7328 27.2109 22.239 27.95C21.8359 26.4047 21.5672 24.9266 21.2984 23.5156ZM4.70311 43C4.70311 39.8422 8.5328 36.4828 15.2516 33.9969C16.5953 33.4594 18.0734 32.9891 19.5515 32.5859C20.6266 35.9453 21.9703 39.5063 23.5828 43.0672C21.9703 46.6281 20.5594 50.1219 19.5515 53.4813C10.2797 50.7938 4.70311 46.7625 4.70311 43ZM23.8515 76.1234C21.0969 74.5109 20.1562 69.5391 21.2984 62.4844C21.5 61.0734 21.8359 59.5953 22.239 58.05C25.7328 58.8563 29.4281 59.3938 33.325 59.7297C35.6094 62.9547 37.9609 65.8438 40.3125 68.4641C35.3406 73.3688 30.3015 76.7281 26.2031 76.7281C25.3297 76.7281 24.5234 76.5266 23.8515 76.1234ZM64.7015 62.4844C65.8437 69.5391 64.9031 74.5109 62.1484 76.1234C61.4766 76.5266 60.6703 76.7281 59.7969 76.7281C55.7656 76.7281 50.7266 73.4359 45.6875 68.4641C48.0391 65.9109 50.3906 62.9547 52.675 59.7297C56.5719 59.3938 60.2672 58.7891 63.7609 58.05C64.1641 59.5953 64.4328 61.0734 64.7015 62.4844ZM70.7484 52.0031C69.4047 52.5406 67.9266 53.0109 66.4484 53.4141C65.3734 50.0547 64.0297 46.4938 62.4172 42.9328C64.0297 39.3719 65.4406 35.8781 66.4484 32.5188C75.7203 35.2063 81.2969 39.2375 81.2969 43C81.2969 46.1578 77.4 49.5172 70.7484 52.0031Z" fill="#F8F8F8"/>
</svg>
