<svg width="100" height="92" viewBox="0 0 100 92" fill="none" xmlns="http://www.w3.org/2000/svg">
<path fill-rule="evenodd" clip-rule="evenodd" d="M0.952332 38.8719C0.952332 39.4211 1.11405 39.7836 1.20468 40.1359C1.7953 42.4273 3.06483 44.3937 4.57108 46.1875C6.71639 48.7437 9.34374 50.8016 12.0351 52.7367C14.3695 54.4148 16.7515 56.0555 19.0953 57.7211C19.4976 58.007 19.8781 58.3359 20.3148 58.6867C19.9391 58.8898 19.6265 59.0688 19.3015 59.2336C16.2086 60.8023 13.2328 62.5609 10.4898 64.6914C8.83671 65.9758 7.23827 67.3406 6.10936 69.1242C4.29296 71.993 3.64999 75.0492 5.00389 78.3125C5.39921 79.2656 6.00233 80.0891 6.85311 80.6977C7.12889 80.8945 7.43827 81.0898 7.76093 81.1664C8.58749 81.3609 9.42968 81.4883 10.2664 81.6422L12.6359 81.6406C15.2562 81.407 17.6414 80.5094 19.7969 79.0219C23.1656 76.6969 25.4351 73.5797 26.4109 69.5789C27.1203 66.6711 27.1492 63.7602 26.3133 60.8656C26.2333 60.5975 26.141 60.3331 26.0367 60.0734C25.9351 59.8133 25.8156 59.5602 25.675 59.2359L31.0469 56.1469L31.1273 56.2156C31.0297 56.5352 30.9258 56.8539 30.8375 57.1766C30.1992 59.5078 29.775 61.8797 29.9273 64.2992C30.0898 66.8773 30.8094 69.2906 32.3187 71.4445C33.539 73.1867 36.4469 73.2516 37.7437 71.5031C38.2039 70.882 38.65 70.2328 38.9851 69.5398C39.8609 67.7313 40.6719 65.8906 41.5086 64.0625L41.6547 63.7281C41.5945 64.5938 41.5242 65.3539 41.4922 66.1148C41.4422 67.3031 41.5117 68.4844 41.918 69.6148C42.2656 70.582 42.857 71.3047 43.9648 71.432C44.7226 71.5188 45.3265 71.1719 45.8836 70.732C46.7465 70.0501 47.4618 69.1998 47.9859 68.2328C49.4711 65.5055 50.9961 62.7945 52.3422 59.9984C53.7984 56.9742 55.0719 53.8617 56.4242 50.7859L56.6476 50.2406C56.9672 51.4961 57.1898 52.7258 57.6 53.8898C58.0765 55.2406 58.6664 56.5594 59.3086 57.8414C59.6125 58.4469 59.5773 58.8398 59.1562 59.3477C57.3937 61.4727 55.6617 63.6234 53.9281 65.7719C53.5445 66.2461 53.1625 66.7289 52.843 67.2469C52.6491 67.574 52.5217 67.9361 52.468 68.3125C52.4142 68.659 52.4967 69.0129 52.6981 69.3C52.8995 69.5871 53.2043 69.785 53.5484 69.8523C54.243 70.0019 54.9553 70.0527 55.664 70.0031C58.0836 69.825 60.2805 68.9758 62.2226 67.5367C64.739 65.6727 65.5469 63.1289 64.9375 60.1141C64.7726 59.2961 64.4812 58.5008 64.1976 57.7125C64.0703 57.357 64.0617 57.1078 64.2937 56.7766C66.3055 53.9039 68.0242 50.8562 69.6226 47.7383C69.6859 47.6156 69.7508 47.493 69.8617 47.3617C70.3797 50.057 71.1594 52.6547 72.5562 55.0117C71.8437 55.6984 71.1383 56.3211 70.5 57.007C69.0945 58.518 67.8758 60.1586 67.2398 62.1594C66.9664 63.0219 66.7562 63.8984 66.8781 64.8195C67.0672 66.25 68.2391 67.1797 69.6461 66.8539C72.657 66.157 75.2562 64.7383 77.1555 62.225C78.4336 60.5328 78.55 58.6453 78.0148 56.668C77.868 56.1305 77.6937 55.6016 77.5062 54.9852C78.2492 54.7547 78.9734 54.4781 79.7226 54.307C83.6125 53.4195 87.4601 53.5742 91.2086 54.9789C93.3969 55.7992 95.1648 57.1719 96.2133 59.3313C97.4937 61.9711 96.7859 64.4758 94.2976 66.1445C94.0656 66.3 93.8 66.4227 93.6078 66.6172C93.5462 66.6885 93.5002 66.7719 93.4726 66.862C93.4451 66.9522 93.4365 67.047 93.4476 67.1406C93.464 67.2367 93.718 67.357 93.8641 67.3555C94.682 67.3492 95.3453 66.9203 95.982 66.4797C97.5773 65.3758 98.7414 63.8906 98.9922 61.9352L99.0414 61.7883L98.9812 60.5148C98.957 60.4414 98.9992 60.3687 98.9937 60.3133C98.6547 57.4656 97.1336 55.257 94.9211 53.5258C92.3586 51.5219 89.3328 50.6969 86.1328 50.5664C83.5375 50.4547 80.9455 50.8537 78.5039 51.7406C77.8031 51.9945 77.1086 52.2953 76.4039 52.5789C76.3094 52.4078 76.2078 52.2438 76.1242 52.0742C75.4008 50.593 74.5242 49.1773 74.3305 47.4789C74.193 46.2727 74.0242 45.068 74.3109 43.875C74.5867 42.7273 74.9461 41.5992 75.2844 40.4672C75.4586 39.8844 75.3359 39.5578 74.7797 39.2953C74.5859 39.1987 74.379 39.1308 74.1656 39.0937C72.7984 38.8953 71.45 39.0086 70.1258 39.3938C69.657 39.5305 69.3164 39.793 69.2125 40.3117C69.1531 40.6094 69.032 40.8945 68.9476 41.1883C68.6015 42.4094 68.3562 43.6539 67.7969 44.8172C66.3953 47.7352 64.7953 50.543 63.1578 53.3305C62.9805 53.6313 62.7937 53.9266 62.5703 54.2914C61.9953 53.0883 61.382 52.0086 61.1961 50.743C60.9859 49.3117 60.8203 47.8828 61.1765 46.4625C61.4414 45.4031 61.7875 44.3633 62.1062 43.318C62.257 42.8211 62.1875 42.5602 61.7375 42.2984C61.5101 42.1664 61.2531 42.0492 60.9969 42.0109C59.595 41.7974 58.1626 41.9146 56.814 42.3531C56.3898 42.4906 56.1672 42.7648 56.0375 43.2023C55.6562 44.493 55.3312 45.8148 54.7961 47.0422C52.6289 52.0109 50.3992 56.9539 48.1719 61.8961C47.707 62.9281 47.1625 63.9242 46.6383 64.9289C46.5055 65.1836 46.3117 65.4078 46.1461 65.6469C46.0133 65.4898 45.9617 65.382 45.9625 65.2742C45.9664 64.6391 45.8906 63.9852 46.0117 63.3711C46.3836 61.5139 46.7946 59.6648 47.2445 57.825C47.6117 56.3047 48.0391 54.7984 48.4461 53.2883C48.5828 52.7828 48.5851 52.3102 48.2219 51.8852C47.6117 51.1734 46.3367 51.0172 45.5805 51.5656L45.2461 51.7547L45.3109 51.2156C45.4703 50.0602 45.5023 48.9086 45.1851 47.7703C44.7898 46.3516 43.7773 45.5352 42.3055 45.5805C41.6195 45.6016 40.8992 45.7187 40.264 45.9687C37.593 47.0156 35.539 48.8695 33.7906 51.1C33.6285 51.3071 33.4276 51.4806 33.1992 51.6109C30.939 52.8641 28.6719 54.1016 26.4055 55.3437L23.8828 56.7258C23.2062 56.0805 22.5914 55.4109 21.8937 54.843C19.7633 53.1055 17.5984 51.4109 15.4531 49.693C13.5516 48.1703 11.7094 46.5844 10.3 44.568C9.25155 43.068 8.57577 41.4266 8.51093 39.5719C8.42889 37.2086 9.09921 35.0492 10.3023 33.0391C11.8414 30.4672 13.9406 28.4031 16.2484 26.5336C18.6898 24.557 21.3305 22.8789 24.0672 21.3469C27.8961 19.2039 31.8344 17.307 36.057 16.0547C40.3867 14.7703 44.7797 14.0352 49.3109 14.5477C51.0922 14.7492 52.8219 15.157 54.4101 16.0281C55.6265 16.6945 56.6242 17.5672 57.0883 18.9312C57.5461 20.2734 57.532 21.6336 57.2148 22.9969C56.5703 25.7578 55.0586 28.0336 53.1562 30.0672C50.0359 33.4008 46.2297 35.6703 41.9445 37.1695C39.4807 38.0327 36.9172 38.5795 34.3156 38.7969C32.1836 38.9758 30.0961 38.7867 28.0773 38.0453C26.7406 37.5539 25.5766 36.8023 24.6406 35.7117C24.4734 35.5164 24.2594 35.3047 23.9476 35.4875C23.6422 35.6672 23.5883 35.9578 23.6906 36.2523C23.8617 36.7414 24.0195 37.2508 24.2859 37.6883C24.9555 38.7859 25.932 39.582 27.007 40.2648C29.0719 41.5781 31.3797 42.0195 33.7726 42.1219C37.4039 42.2789 40.9469 41.7367 44.4398 40.7625C49.4265 39.3719 53.7625 36.9156 57.2398 33.0406C60.1351 29.8141 62.2031 26.1727 62.6461 21.7758C62.8625 19.6297 62.632 17.5273 61.6273 15.5695C60.5375 13.4484 58.8047 11.8711 56.7328 10.7844C53.7156 9.20234 50.4594 8.28125 47.0984 8.28125H43.7312C39.6609 8.28125 35.7258 9.44766 31.9008 10.8391C29.0055 11.893 26.1664 13.1367 23.4101 14.5133C17.4078 17.5125 11.818 21.1289 7.22655 26.1016C4.93905 28.5789 3.00233 31.3125 1.88827 34.5312C1.55202 35.4922 1.26236 36.4689 1.0203 37.4578L0.952332 38.8719ZM22.7695 65.593C22.5094 69.0766 20.9305 71.9008 18.35 74.1883C16.8984 75.4742 15.2336 76.3898 13.2945 76.7117C12.5914 76.8281 11.8719 76.8562 11.1898 76.5648C10.2172 76.1492 9.99921 75.2859 9.98046 74.3664C9.95155 72.9008 10.4648 71.5758 11.1687 70.3148C12.0875 68.6711 13.4344 67.418 14.8726 66.2477C17.1383 64.4031 19.5961 62.8422 22.1133 61.3688L22.3031 61.2906C22.6922 62.7281 22.8773 64.1477 22.7695 65.593V65.593ZM42.4242 50.4531C42.2406 51.5656 42.0109 52.6789 41.6859 53.757C40.5625 57.4891 39.1195 61.1055 37.5594 64.6734C37.2711 65.3336 36.8515 65.9359 36.4867 66.5617C36.4246 66.6579 36.3503 66.7456 36.2656 66.8227C35.814 67.2687 35.3859 67.2453 35.1578 66.6617C34.8922 65.9836 34.7289 65.2578 34.5883 64.5398C34.4937 64.0578 34.5164 63.5516 34.4867 63.0578C34.5172 59.5469 35.5883 56.3563 37.4055 53.3859C38.1547 52.1609 38.9703 50.9938 40.2164 50.2188C40.604 49.9777 41.0235 49.7921 41.4625 49.6672C42.1265 49.4805 42.5344 49.7875 42.4242 50.4531V50.4531ZM55.8336 67.5375L60.6531 61.9102C60.8539 64 57.3016 68.1719 55.8336 67.5375ZM71.2265 63.7508C70.8859 63.9461 70.5148 64.0867 70.1656 64.2672C69.8461 64.4328 69.7406 64.2656 69.7312 63.9906C69.7265 63.8003 69.751 63.6103 69.8039 63.4273C70.4547 61.132 71.6523 59.1727 73.4344 57.5789L73.5594 57.5148C74.407 59.8859 73.4273 62.4898 71.2265 63.7508Z" fill="#F8F8F8"/>
</svg>
