<svg width="518" height="688" viewBox="0 0 518 688" fill="none" xmlns="http://www.w3.org/2000/svg">
<g clip-path="url(#clip0_1016_6329)">
<g filter="url(#filter0_d_1016_6329)">
<path d="M5.77034 63.8571C6.36854 15.898 57.826 -14.15 99.8781 8.90361L427.619 188.576C448.226 199.871 460.918 221.616 460.626 245.116L455.962 618.891C455.365 666.85 403.908 696.899 361.855 673.845L34.1132 494.173C13.5081 482.877 0.814886 461.132 1.108 437.633L5.77034 63.8571Z" fill="#4A4A4A"/>
</g>
<g filter="url(#filter1_d_1016_6329)">
<path d="M264.197 232.61L212.771 448.411H207.885L158.901 242.381L109.772 448.411H104.889L53.46 232.61L58.2005 231.462L107.329 438.067L156.459 232.037H161.342L210.328 438.067L259.457 231.462L264.197 232.61Z" fill="#D8D8D8"/>
</g>
<g filter="url(#filter2_d_1016_6329)">
<path d="M511.275 439.697L459.943 522.966C448.366 520.922 437.64 519.133 427.766 517.602C418.061 516.069 408.442 514.622 398.907 513.259C389.544 512.067 379.924 510.79 370.048 509.428C360.175 508.066 349.533 506.448 338.127 504.575C333.7 503.723 329.273 503.127 324.848 502.786C320.591 502.276 316.249 502.02 311.823 502.02C302.459 502.02 293.435 503.298 284.753 505.852C276.24 508.406 268.067 512.407 260.236 517.856L252.318 509.428C255.894 506.362 258.957 502.701 261.513 498.445C264.066 494.188 266.195 489.675 267.897 484.908C269.77 479.97 271.133 475.031 271.982 470.092C272.834 465.155 273.259 460.471 273.259 456.045V305.346C273.259 281.506 277.431 259.285 285.773 238.681C294.116 218.077 305.608 200.198 320.249 185.042C335.063 169.716 352.428 157.712 372.348 149.028C392.437 140.174 414.146 135.746 437.47 135.746C444.961 135.746 452.198 136.597 459.177 138.299C466.157 140.003 472.287 142.727 477.564 146.473C483.012 150.22 487.355 155.073 490.589 161.033C493.825 166.991 495.441 174.315 495.441 183C495.441 190.663 493.994 198.069 491.101 205.22C488.206 212.373 484.205 219.184 479.097 225.654C474.159 232.126 468.371 238.17 461.732 243.79C455.262 249.239 448.451 254.176 441.301 258.604C434.15 263.031 426.829 266.778 419.338 269.842C411.847 272.908 404.781 275.291 398.141 276.994L394.055 267.288C399.845 263.882 405.803 259.967 411.932 255.538C418.232 251.112 423.934 246.258 429.043 240.98C434.15 235.531 438.321 229.655 441.555 223.357C444.791 216.885 446.408 209.903 446.408 202.41C446.408 196.451 445.302 191.002 443.088 186.064C440.875 180.956 437.811 176.613 433.896 173.037C430.149 169.462 425.723 166.652 420.615 164.609C415.677 162.566 410.314 161.543 404.526 161.543C391.756 161.543 380.52 164.267 370.815 169.716C361.11 175.165 352.938 182.318 346.298 191.172C339.659 200.027 334.636 210.073 331.231 221.313C327.826 232.551 326.124 243.959 326.124 255.538V420.03C326.124 426.5 325.187 432.801 323.315 438.931C321.442 444.891 318.887 450.681 315.653 456.301C312.589 461.75 308.928 466.943 304.671 471.882C300.416 476.818 295.903 481.331 291.136 485.418C296.584 481.503 301.862 477.926 306.97 474.691C312.077 471.285 317.271 468.39 322.548 466.005C327.996 463.622 333.616 461.833 339.403 460.642C345.193 459.28 351.576 458.598 358.557 458.598C367.07 458.598 374.647 459.025 381.287 459.875C387.926 460.727 394.396 461.664 400.694 462.685C407.165 463.537 413.719 464.389 420.359 465.239C427 466.091 434.576 466.518 443.088 466.518C449.046 466.518 454.751 465.666 460.199 463.962C465.818 462.089 471.095 459.621 476.033 456.555C480.969 453.49 485.568 450 489.823 446.084C494.25 441.997 498.25 437.655 501.826 433.057L511.275 439.697Z" fill="#ECECFD"/>
</g>
</g>
<defs>
<filter id="filter0_d_1016_6329" x="-3.89697" y="-4.0083" width="475.527" height="696.765" filterUnits="userSpaceOnUse" color-interpolation-filters="sRGB">
<feFlood flood-opacity="0" result="BackgroundImageFix"/>
<feColorMatrix in="SourceAlpha" type="matrix" values="0 0 0 0 0 0 0 0 0 0 0 0 0 0 0 0 0 0 127 0" result="hardAlpha"/>
<feOffset dx="3" dy="3"/>
<feGaussianBlur stdDeviation="4"/>
<feColorMatrix type="matrix" values="0 0 0 0 0 0 0 0 0 0 0 0 0 0 0 0 0 0 0.3 0"/>
<feBlend mode="normal" in2="BackgroundImageFix" result="effect1_dropShadow_1016_6329"/>
<feBlend mode="normal" in="SourceGraphic" in2="effect1_dropShadow_1016_6329" result="shape"/>
</filter>
<filter id="filter1_d_1016_6329" x="48.46" y="226.462" width="226.737" height="232.948" filterUnits="userSpaceOnUse" color-interpolation-filters="sRGB">
<feFlood flood-opacity="0" result="BackgroundImageFix"/>
<feColorMatrix in="SourceAlpha" type="matrix" values="0 0 0 0 0 0 0 0 0 0 0 0 0 0 0 0 0 0 127 0" result="hardAlpha"/>
<feOffset dx="3" dy="3"/>
<feGaussianBlur stdDeviation="4"/>
<feColorMatrix type="matrix" values="0 0 0 0 0 0 0 0 0 0 0 0 0 0 0 0 0 0 0.3 0"/>
<feBlend mode="normal" in2="BackgroundImageFix" result="effect1_dropShadow_1016_6329"/>
<feBlend mode="normal" in="SourceGraphic" in2="effect1_dropShadow_1016_6329" result="shape"/>
</filter>
<filter id="filter2_d_1016_6329" x="247.318" y="130.746" width="274.957" height="403.22" filterUnits="userSpaceOnUse" color-interpolation-filters="sRGB">
<feFlood flood-opacity="0" result="BackgroundImageFix"/>
<feColorMatrix in="SourceAlpha" type="matrix" values="0 0 0 0 0 0 0 0 0 0 0 0 0 0 0 0 0 0 127 0" result="hardAlpha"/>
<feOffset dx="3" dy="3"/>
<feGaussianBlur stdDeviation="4"/>
<feColorMatrix type="matrix" values="0 0 0 0 0 0 0 0 0 0 0 0 0 0 0 0 0 0 0.3 0"/>
<feBlend mode="normal" in2="BackgroundImageFix" result="effect1_dropShadow_1016_6329"/>
<feBlend mode="normal" in="SourceGraphic" in2="effect1_dropShadow_1016_6329" result="shape"/>
</filter>
<clipPath id="clip0_1016_6329">
<rect width="518" height="688" fill="white"/>
</clipPath>
</defs>
</svg>
