<svg width="599" height="124" viewBox="0 0 599 124" fill="none" xmlns="http://www.w3.org/2000/svg">
<path d="M79.5918 37.8005L60.4616 118.05H58.6448L40.4232 41.4337L22.148 118.05H20.3312L1.20117 37.8005L2.96456 37.3733L21.2397 114.203L39.515 37.587H41.3318L59.5534 114.203L77.8284 37.3733L79.5918 37.8005ZM102.623 118.05V37.587H104.333V75.0404H160.067V37.587H161.83V118.05H160.067V76.8034H104.333V118.05H102.623ZM192.502 118.05V37.587H194.212V118.05H192.502ZM240.166 118.05V38.4953H214.25V36.7322H267.9V38.4953H241.93V118.05H240.166ZM319.467 76.8034H289.648V117.142H338.596V118.798H287.938V36.7322H338.596V38.4953H289.648V75.0404H319.467V76.8034Z" fill="#18273A"/>
<path d="M463.311 107.403L451.556 111.603V30.3119L463.311 26.1111V107.403ZM534.506 39.849L524.967 51.3729C524.136 48.8749 523.058 46.4907 521.734 44.2203C520.407 41.9492 518.836 39.9625 517.02 38.2596C515.203 36.5566 513.141 35.1941 510.832 34.1724C508.523 33.1503 505.947 32.6396 503.109 32.6396C501.064 32.6396 499.173 33.0179 497.431 33.7748C495.69 34.4939 494.156 35.5157 492.832 36.8403C491.547 38.1269 490.523 39.6596 489.766 41.4385C489.048 43.2172 488.688 45.1282 488.688 47.172C488.688 49.2914 489.087 51.2784 489.88 53.1327C490.676 54.987 491.736 56.6713 493.06 58.1848C494.387 59.6608 495.897 60.9477 497.603 62.045C499.344 63.1427 501.14 63.9942 502.995 64.5998C504.851 65.2432 506.799 65.9623 508.844 66.7567C510.889 67.5518 512.894 68.4789 514.864 69.5385C516.831 70.5984 518.704 71.7903 520.482 73.115C522.262 74.4015 523.832 75.8586 525.196 77.4862C526.556 79.1135 527.637 80.93 528.432 82.9356C529.225 84.9037 529.624 87.0609 529.624 89.4073C529.624 92.8133 528.868 95.8787 527.351 98.6037C525.877 101.291 523.926 103.561 521.506 105.416C519.083 107.27 516.299 108.689 513.159 109.673C510.057 110.657 506.895 111.149 503.677 111.149C501.482 111.149 499.248 110.828 496.978 110.184C494.744 109.541 492.585 108.671 490.505 107.573C488.46 106.438 486.529 105.132 484.713 103.656C482.935 102.18 481.383 100.59 480.059 98.8875L489.256 88.3286C489.823 90.1453 490.808 92.0753 492.21 94.119C493.648 96.1628 495.312 98.0549 497.206 99.7957C499.098 101.537 501.121 102.994 503.28 104.167C505.475 105.302 507.595 105.87 509.64 105.87C510.811 105.87 512.024 105.567 513.273 104.962C514.522 104.356 515.657 103.58 516.68 102.634C517.737 101.65 518.608 100.59 519.29 99.4552C519.971 98.3197 520.314 97.2034 520.314 96.106C520.314 94.4406 519.971 92.87 519.29 91.394C518.608 89.8805 517.701 88.4613 516.566 87.1366C515.467 85.8119 514.182 84.601 512.705 83.5034C511.267 82.3681 509.751 81.3653 508.162 80.4946C506.61 79.5864 505.04 78.8106 503.448 78.1671C501.899 77.4862 500.458 76.9563 499.134 76.5777C496.525 75.7829 493.97 74.6477 491.471 73.1717C489.009 71.6957 486.815 69.9171 484.884 67.8355C482.953 65.7539 481.401 63.4265 480.227 60.8531C479.056 58.2416 478.471 55.4601 478.471 52.5082C478.471 49.9726 478.867 47.5695 479.66 45.2987C480.455 43.028 481.554 40.9275 482.953 38.9976C484.356 37.0673 486.001 35.3265 487.892 33.7748C489.787 32.1854 491.829 30.8607 494.027 29.8011C496.221 28.7036 498.509 27.871 500.896 27.3033C503.28 26.6978 505.682 26.3951 508.105 26.3951C513.405 26.3951 518.326 27.5871 522.869 29.9714C527.408 32.3178 531.288 35.6102 534.506 39.849ZM597.64 26.5086C596.43 28.3252 594.992 30.0281 593.325 31.6176C591.662 33.2071 589.825 34.6074 587.819 35.8186C585.849 37.0295 583.768 37.9944 581.574 38.7135C579.379 39.3948 577.184 39.7356 574.986 39.7356L573.683 39.849C572.242 41.6655 571.146 43.4252 570.389 45.1282C569.633 46.8315 569.251 48.8371 569.251 51.146V87.4206C569.251 92.4539 568.173 96.9386 566.018 100.874C563.898 104.773 560.757 108.141 556.593 110.979L554.719 108.822C555.362 108.103 555.872 107.289 556.251 106.381C556.632 105.435 556.914 104.47 557.103 103.486C557.292 102.502 557.406 101.518 557.446 100.534C557.521 99.512 557.557 98.547 557.557 97.6388V57.7309C557.557 55.9522 557.917 54.23 558.635 52.5649C559.391 50.8619 560.34 49.2535 561.475 47.7397C562.61 46.2259 563.859 44.8066 565.222 43.482C566.621 42.1576 567.966 40.9464 569.251 39.849L550.462 39.7356C549.02 39.7356 547.735 39.8869 546.6 40.1895C545.502 40.4546 544.481 40.8519 543.535 41.3818C542.586 41.9117 541.679 42.5737 540.809 43.3685C539.938 44.1632 539.049 45.0907 538.139 46.1502L536.494 44.3905C537.743 42.6875 539.142 40.8897 540.695 38.9976C542.286 37.1051 543.988 35.3832 545.805 33.8316C547.66 32.2799 549.627 30.9934 551.711 29.9714C553.828 28.9495 556.043 28.4387 558.352 28.4387H582.88C583.865 28.4387 584.961 28.3819 586.171 28.2684C587.423 28.1549 588.672 27.9656 589.921 27.7006C591.17 27.4358 592.344 27.0951 593.44 26.6789C594.575 26.2247 595.52 25.6571 596.277 24.9759L597.64 26.5086Z" fill="#18273A"/>
<path d="M435.871 95.3698L419.76 121.496C416.127 120.855 412.758 120.294 409.659 119.813C406.615 119.332 403.594 118.878 400.604 118.451C397.664 118.077 394.644 117.676 391.545 117.249C388.446 116.822 385.108 116.314 381.526 115.726C380.138 115.459 378.748 115.272 377.358 115.165C376.022 115.005 374.659 114.925 373.269 114.925C370.332 114.925 367.498 115.325 364.775 116.127C362.102 116.928 359.538 118.184 357.079 119.894L354.596 117.249C355.716 116.287 356.677 115.138 357.479 113.803C358.28 112.467 358.95 111.051 359.484 109.555C360.073 108.006 360.499 106.456 360.766 104.907C361.034 103.357 361.169 101.888 361.169 100.499V53.2149C361.169 45.7347 362.478 38.7625 365.096 32.2976C367.714 25.8327 371.32 20.2227 375.917 15.4675C380.565 10.659 386.014 6.89227 392.266 4.16742C398.571 1.38914 405.387 0 412.707 0C415.058 0 417.328 0.267143 419.519 0.801424C421.708 1.33571 423.636 2.19057 425.29 3.36598C427.002 4.54143 428.365 6.06414 429.38 7.93414C430.394 9.80414 430.902 12.1016 430.902 14.8263C430.902 17.2307 430.445 19.5549 429.539 21.7988C428.629 24.0428 427.374 26.1799 425.771 28.2102C424.221 30.2407 422.405 32.1373 420.321 33.9003C418.288 35.6102 416.154 37.1595 413.908 38.5487C411.665 39.9379 409.368 41.1134 407.014 42.075C404.663 43.0367 402.447 43.7846 400.363 44.319L399.078 41.2734C400.898 40.2048 402.768 38.9762 404.69 37.587C406.669 36.1978 408.458 34.6753 410.061 33.0188C411.665 31.3089 412.974 29.4659 413.989 27.489C415.004 25.4587 415.511 23.2681 415.511 20.9173C415.511 19.0473 415.163 17.3376 414.469 15.7881C413.776 14.1853 412.812 12.8228 411.584 11.7008C410.41 10.5789 409.02 9.69728 407.416 9.05614C405.867 8.41498 404.183 8.09444 402.366 8.09444C398.358 8.09444 394.833 8.94929 391.785 10.659C388.741 12.3687 386.177 14.6127 384.09 17.3909C382.006 20.1693 380.433 23.3215 379.361 26.8478C378.292 30.374 377.758 33.9538 377.758 37.587V89.1989C377.758 91.2292 377.466 93.206 376.878 95.1293C376.289 96.9995 375.488 98.816 374.473 100.579C373.512 102.289 372.362 103.919 371.026 105.468C369.69 107.017 368.276 108.433 366.777 109.715C368.489 108.486 370.143 107.364 371.747 106.349C373.35 105.281 374.98 104.373 376.638 103.625C378.346 102.876 380.108 102.316 381.928 101.942C383.745 101.514 385.747 101.3 387.939 101.3C390.611 101.3 392.989 101.434 395.073 101.701C397.157 101.968 399.186 102.262 401.165 102.583C403.195 102.85 405.251 103.117 407.335 103.384C409.419 103.651 411.797 103.785 414.469 103.785C416.34 103.785 418.129 103.518 419.841 102.983C421.603 102.396 423.26 101.621 424.81 100.659C426.359 99.6975 427.803 98.6022 429.136 97.3733C430.527 96.091 431.785 94.7288 432.905 93.2861L435.871 95.3698Z" fill="#18273A"/>
</svg>
