<svg width="86" height="85" viewBox="0 0 86 85" fill="none" xmlns="http://www.w3.org/2000/svg">
<path d="M76.8828 20.3867L44.8086 1.92578C44.2773 1.59375 43.5469 1.46094 42.75 1.46094C41.9531 1.46094 41.2227 1.66016 40.6914 1.92578L8.81641 20.4531C7.6875 21.1172 6.89062 22.7773 6.89062 24.0391V61.0273C6.89062 61.7578 7.02344 62.6211 7.55469 63.3516L78.4766 22.1797C78.0781 21.3828 77.4805 20.7852 76.8828 20.3867Z" fill="#233039"/>
<path d="M7.35547 63.2852C7.6875 63.8164 8.15234 64.2812 8.61719 64.5469L40.625 83.0742C41.1562 83.4063 41.8867 83.5391 42.6836 83.5391C43.4805 83.5391 44.2109 83.3398 44.7422 83.0742L76.6172 64.5469C77.7461 63.8828 78.543 62.2227 78.543 60.9609V23.9727C78.543 23.375 78.4766 22.7109 78.1445 22.1133L7.35547 63.2852Z" fill="#111A26"/>
<path d="M56.8945 50.5352C54.1055 55.4492 48.793 58.7695 42.75 58.7695C33.7852 58.7695 26.4805 51.4648 26.4805 42.5C26.4805 33.5352 33.7852 26.2305 42.75 26.2305C48.793 26.2305 54.1055 29.5508 56.8945 34.5312L65.5273 29.5508C61.0117 21.6484 52.5117 16.2695 42.75 16.2695C28.2734 16.2695 16.5195 28.0234 16.5195 42.5C16.5195 56.9766 28.2734 68.7305 42.75 68.7305C52.4453 68.7305 60.9453 63.418 65.4609 55.582L56.8945 50.5352ZM64.6641 43.9609L65.2617 41.1055H62.4727V37.9844H65.8594L66.6562 33.8672H69.9102L69.1133 37.918H71.6367L72.4336 33.8672H75.6211L74.8242 37.918H76.418V41.0391H74.2266L73.6289 43.8945H76.418V47.0156H73.0312L72.2344 51H68.9805L69.7773 47.0156H67.2539L66.457 51H63.2695L64.0664 47.0156H62.4727V43.8945H64.6641V43.9609ZM67.8516 43.9609H70.375L70.9727 41.1055H68.4492L67.8516 43.9609Z" fill="white"/>
</svg>
