<svg width="86" height="85" viewBox="0 0 86 85" fill="none" xmlns="http://www.w3.org/2000/svg">
<g clip-path="url(#clip0_51_128)">
<path d="M24.125 23.1758L18.6133 17.6641V57.3086L18.6797 59.168C18.6797 60.0312 18.8125 61.0273 19.1445 62.0234L62.707 77.3633L73.5312 72.582L24.125 23.1758Z" fill="#3A485D"/>
<path d="M73.5312 72.582L62.707 77.3633L19.2773 62.0234C20.1406 65.2109 21.9336 68.7305 23.9258 70.7891L38.0703 84.8672L69.6797 84.9336L73.5312 72.582Z" fill="#4E5B66"/>
<path d="M1.87891 43.2305C0.484375 44.6914 1.21484 47.8125 3.40625 50.1367L13.168 59.9648L19.2773 62.1562C19.0781 61.1602 18.8125 60.1641 18.8125 59.3008L18.7461 57.4414L18.6133 17.7305L1.87891 43.2305ZM73.5312 72.582L78.3125 61.6914L63.0391 18.1289C62.043 17.9297 61.0469 17.7305 60.1836 17.6641L58.2578 17.5977L18.6797 17.6641" fill="#18273A"/>
<path d="M62.9062 18.1289C63.0391 18.1289 63.0391 18.1289 62.9062 18.1289C63.0391 18.1289 63.0391 18.1289 62.9062 18.1289ZM73.5313 72.582L85.2852 68.7305V36.3906L71.7383 22.7773C69.7461 20.7852 66.2266 18.9258 62.9727 18.1289L78.3125 61.6914" fill="#233039"/>
<path d="M60.8477 12.0859L51.0195 2.32419C48.7617 0.066382 45.707 -0.59768 44.1133 0.796851L18.6133 17.664H58.125L60.0508 17.7304C60.9141 17.7304 61.9102 17.8633 62.9063 18.1953L60.8477 12.0859Z" fill="#3A485D"/>
</g>
<defs>
<clipPath id="clip0_51_128">
<rect width="85" height="85" fill="white" transform="translate(0.75)"/>
</clipPath>
</defs>
</svg>
