<svg width="282" height="349" viewBox="0 0 282 349" fill="none" xmlns="http://www.w3.org/2000/svg">
<g filter="url(#filter0_d_30_3829)">
<path fill-rule="evenodd" clip-rule="evenodd" d="M225.758 145.852C227.568 139.813 232.845 129.545 235.259 129.545C237.973 129.545 242.649 131.508 249.284 135.434L262.856 133.169C265.27 133.169 266.476 134.075 266.476 135.887C266.476 137.397 261.499 139.058 251.546 140.87C229.83 195.828 205.55 242.18 178.706 279.927C152.164 317.977 130.146 337 112.653 337C107.224 337 104.509 335.641 104.509 332.924C104.509 332.019 106.47 330.81 110.391 329.298C123.963 324.167 131.805 320.845 133.917 319.336C158.046 298.197 182.627 256.374 207.661 193.865C166.039 237.954 123.058 259.997 78.7212 259.997C54.8937 259.997 35.7411 253.504 21.2638 240.52C7.08793 227.536 0 210.625 0 189.789C0 168.953 5.27824 148.419 15.8347 128.187C26.6928 107.955 40.7178 89.5344 57.9098 72.9261C75.1019 56.3178 95.6117 42.7288 119.439 32.1599C143.267 21.2889 165.435 15.8534 185.945 15.8534C206.455 15.8534 222.591 18.5711 234.354 24.0066C238.274 17.0613 240.989 12.3807 242.497 9.96494C247.626 3.32156 253.657 -0.00012207 260.594 -0.00012207C267.532 -0.00012207 271 1.50973 271 4.52942C271 5.43538 267.532 9.21001 260.594 15.8534C253.657 22.1947 248.831 27.0262 246.117 30.3481C250.037 32.7638 253.356 35.4816 256.07 38.5013C259.085 41.2189 260.594 42.8797 260.594 43.4837C260.594 43.7858 258.484 46.5033 254.26 51.6369C250.34 56.4684 246.418 61.3001 242.497 66.1316C231.94 79.7203 226.362 88.6283 225.758 92.8562L227.115 94.2149C227.115 95.7249 226.362 96.4798 224.853 96.4798C220.329 96.4798 218.067 91.9501 218.067 82.8911C218.067 65.9804 222.289 48.7682 230.735 31.2538C219.575 25.5166 207.209 22.6477 193.636 22.6477C166.491 22.6477 139.044 31.2538 111.295 48.4663C83.5468 65.3768 60.926 86.3635 43.4323 111.427C25.9389 136.491 17.192 159.743 17.192 181.183C17.192 202.623 23.9783 219.231 37.5508 231.008C51.4251 242.785 69.6728 248.673 92.2939 248.673C126.979 248.673 164.832 225.12 205.851 178.012C213.693 169.557 218.821 163.215 221.234 158.988L225.758 145.852ZM244.759 39.4071L249.736 43.9367C238.274 61.7532 230.282 73.53 225.758 79.2672C229.076 68.0946 235.41 54.8078 244.759 39.4071Z" fill="#000237"/>
</g>
<g filter="url(#filter1_d_30_3829)">
<path d="M71.6577 144.162C70.9195 144.07 70.1813 143.608 69.4432 142.777C68.7971 141.946 68.1973 141.022 67.6437 140.007C66.9977 138.898 66.3978 137.606 65.8442 136.128C65.1985 134.281 64.7832 132.712 64.5986 131.419C64.5062 130.034 64.5986 128.834 64.8753 127.818C65.1523 126.802 65.6137 125.879 66.2595 125.047C66.9055 124.217 67.6899 123.385 68.6126 122.554C69.7198 121.539 71.7501 120.246 74.7027 118.676C77.6557 117.106 81.0698 115.767 84.9455 114.659V113.274C84.9455 112.812 84.9455 112.397 84.9455 112.027C85.0379 111.658 85.0838 111.289 85.0838 110.919L96.0188 107.318C96.7569 107.041 97.5413 107.041 98.3716 107.318C99.2022 107.503 99.525 108.334 99.3405 109.811C99.3405 110.273 99.2946 110.735 99.2022 111.196C99.2022 111.658 99.1559 112.166 99.0638 112.72C104.969 112.905 110.321 114.105 115.12 116.321C120.01 118.537 124.163 121.585 127.577 125.463C131.084 129.249 133.806 133.774 135.743 139.037C137.681 144.3 138.65 150.026 138.65 156.212C138.65 165.354 137.358 173.295 134.775 180.036C132.191 186.777 128.823 192.502 124.67 197.212C120.518 201.921 115.812 205.707 110.552 208.569C105.293 211.432 100.033 213.51 94.7729 214.803C94.1269 215.449 93.2504 216.095 92.1431 216.741C91.0359 217.388 89.8362 217.942 88.5441 218.404C87.2524 218.865 85.9144 219.189 84.5302 219.373C83.2384 219.65 82.0849 219.696 81.0698 219.512C81.0698 219.327 81.0698 219.05 81.0698 218.681C81.1622 218.311 81.2084 217.988 81.2084 217.711C81.2084 217.342 81.2544 216.972 81.3468 216.603C77.7481 216.788 74.6106 216.603 71.9346 216.049C71.2886 215.68 70.6888 214.987 70.1351 213.971C69.8585 213.602 69.6277 213.14 69.4432 212.586C69.1662 212.124 68.9817 211.663 68.8896 211.201C68.6126 210.37 68.6126 209.354 68.8896 208.154C73.4109 208.708 77.7481 208.708 81.9004 208.154C82.1773 204.183 82.454 199.382 82.731 193.749C83.0076 188.024 83.2846 181.837 83.5613 175.188C83.7458 171.31 83.8844 167.201 83.9765 162.861C84.1611 158.429 84.2997 154.042 84.3918 149.702C84.4842 145.27 84.5764 140.976 84.6688 136.821C84.7609 132.666 84.8071 128.834 84.8071 125.325C80.3779 127.079 76.9175 129.618 74.4261 132.942C72.0267 136.175 71.104 139.914 71.6577 144.162ZM96.434 144.993C96.0647 151.18 95.788 157.228 95.6035 163.138C95.4189 169.048 95.2803 174.634 95.1882 179.898C95.1882 185.161 95.2344 189.963 95.3265 194.303C95.4189 198.551 95.5111 202.152 95.6035 205.107C104.462 201.782 111.521 196.196 116.781 188.347C122.133 180.498 124.809 170.664 124.809 158.844C124.809 153.673 124.163 148.964 122.871 144.716C121.671 140.376 119.918 136.682 117.611 133.635C115.305 130.496 112.536 128.049 109.307 126.294C106.077 124.54 102.524 123.57 98.6485 123.385H98.0949C97.818 126.156 97.5413 129.341 97.2643 132.942C96.9877 136.451 96.7107 140.468 96.434 144.993Z" fill="#000237"/>
</g>
<g filter="url(#filter2_d_30_3829)">
<path d="M188.975 106.93C187.867 106.561 186.206 106.284 183.991 106.099C181.869 105.822 179.701 105.638 177.486 105.545C174.902 105.453 172.134 105.407 169.181 105.407C169.089 107.808 169.043 110.162 169.043 112.471C169.043 114.41 168.997 116.441 168.904 118.565C168.904 120.689 168.996 122.536 169.181 124.106C167.705 124.844 166.274 125.352 164.89 125.629C163.598 125.814 162.445 125.906 161.43 125.906C160.23 125.906 159.077 125.814 157.97 125.629C158.062 123.321 158.108 120.966 158.108 118.565C158.2 116.164 158.293 113.994 158.385 112.055C158.477 109.747 158.523 107.577 158.523 105.545C155.939 105.638 153.494 105.822 151.187 106.099C149.25 106.284 147.265 106.607 145.236 107.069C143.205 107.438 141.683 107.854 140.668 108.315C139.745 107.577 139.145 106.238 138.868 104.299C138.684 102.267 139.007 100.051 139.837 97.6501C141.498 97.1885 143.39 96.8192 145.512 96.542C147.727 96.2649 149.803 96.0343 151.741 95.8496C154.048 95.5724 156.355 95.3415 158.662 95.1569C158.754 89.6165 158.8 85.4151 158.8 82.5526C158.892 79.6898 159.031 78.0277 159.215 77.5662C159.308 77.3813 159.723 77.1044 160.461 76.7351C161.199 76.2732 162.122 75.9039 163.229 75.627C164.337 75.3499 165.536 75.3037 166.828 75.4883C168.212 75.5808 169.596 76.0886 170.981 77.0119C170.796 78.6742 170.611 80.5209 170.427 82.5526C170.334 84.5839 170.196 86.4769 170.012 88.2314C169.827 90.3552 169.689 92.4328 169.596 94.4644C174.395 94.1873 178.363 94.141 181.5 94.326C184.637 94.5107 186.944 95.1569 188.421 96.2649C189.251 96.9114 189.759 97.7425 189.943 98.7583C190.128 99.6817 190.128 100.651 189.943 101.667C189.851 102.683 189.666 103.698 189.39 104.714C189.113 105.638 188.975 106.376 188.975 106.93Z" fill="#000237"/>
</g>
<defs>
<filter id="filter0_d_30_3829" x="-5" y="-4.00012" width="287" height="353" filterUnits="userSpaceOnUse" color-interpolation-filters="sRGB">
<feFlood flood-opacity="0" result="BackgroundImageFix"/>
<feColorMatrix in="SourceAlpha" type="matrix" values="0 0 0 0 0 0 0 0 0 0 0 0 0 0 0 0 0 0 127 0" result="hardAlpha"/>
<feOffset dx="3" dy="4"/>
<feGaussianBlur stdDeviation="4"/>
<feComposite in2="hardAlpha" operator="out"/>
<feColorMatrix type="matrix" values="0 0 0 0 0 0 0 0 0 0 0 0 0 0 0 0 0 0 0.3 0"/>
<feBlend mode="normal" in2="BackgroundImageFix" result="effect1_dropShadow_30_3829"/>
<feBlend mode="normal" in="SourceGraphic" in2="effect1_dropShadow_30_3829" result="shape"/>
</filter>
<filter id="filter1_d_30_3829" x="59.564" y="103.11" width="90.0863" height="128.512" filterUnits="userSpaceOnUse" color-interpolation-filters="sRGB">
<feFlood flood-opacity="0" result="BackgroundImageFix"/>
<feColorMatrix in="SourceAlpha" type="matrix" values="0 0 0 0 0 0 0 0 0 0 0 0 0 0 0 0 0 0 127 0" result="hardAlpha"/>
<feOffset dx="3" dy="4"/>
<feGaussianBlur stdDeviation="4"/>
<feComposite in2="hardAlpha" operator="out"/>
<feColorMatrix type="matrix" values="0 0 0 0 0 0 0 0 0 0 0 0 0 0 0 0 0 0 0.3 0"/>
<feBlend mode="normal" in2="BackgroundImageFix" result="effect1_dropShadow_30_3829"/>
<feBlend mode="normal" in="SourceGraphic" in2="effect1_dropShadow_30_3829" result="shape"/>
</filter>
<filter id="filter2_d_30_3829" x="133.818" y="71.3776" width="67.2638" height="66.5288" filterUnits="userSpaceOnUse" color-interpolation-filters="sRGB">
<feFlood flood-opacity="0" result="BackgroundImageFix"/>
<feColorMatrix in="SourceAlpha" type="matrix" values="0 0 0 0 0 0 0 0 0 0 0 0 0 0 0 0 0 0 127 0" result="hardAlpha"/>
<feOffset dx="3" dy="4"/>
<feGaussianBlur stdDeviation="4"/>
<feComposite in2="hardAlpha" operator="out"/>
<feColorMatrix type="matrix" values="0 0 0 0 0 0 0 0 0 0 0 0 0 0 0 0 0 0 0.3 0"/>
<feBlend mode="normal" in2="BackgroundImageFix" result="effect1_dropShadow_30_3829"/>
<feBlend mode="normal" in="SourceGraphic" in2="effect1_dropShadow_30_3829" result="shape"/>
</filter>
</defs>
</svg>
