<svg width="405" height="56" viewBox="0 0 405 56" fill="none" xmlns="http://www.w3.org/2000/svg">
<path d="M17.7471 54.4658H0.732422V0.906616H18.2861C23.4358 0.906616 27.8584 1.97884 31.554 4.1233C35.2495 6.25032 38.081 9.31013 40.0485 13.3026C42.0331 17.2777 43.0255 22.0461 43.0255 27.6077C43.0255 33.1868 42.0246 37.9814 40.0228 41.9913C38.0382 46.0013 35.1639 49.0872 31.4 51.2491C27.6361 53.3936 23.0851 54.4658 17.7471 54.4658ZM8.66234 47.4048H17.3109C21.3143 47.4048 24.642 46.6377 27.2938 45.1034C29.9458 43.5517 31.9303 41.3114 33.2477 38.3823C34.5651 35.4359 35.2238 31.8444 35.2238 27.6077C35.2238 23.406 34.5651 19.8406 33.2477 16.9116C31.9474 13.9826 30.0056 11.7596 27.4222 10.2429C24.8388 8.72604 21.6308 7.96766 17.7985 7.96766H8.66234V47.4048ZM64.013 55.3549C61.5152 55.3549 59.2569 54.8842 57.238 53.9427C55.2191 52.9838 53.6194 51.5978 52.4389 49.7845C51.2756 47.9714 50.6939 45.7485 50.6939 43.1158C50.6939 40.8493 51.1216 38.9838 51.977 37.5193C52.8325 36.0548 53.9873 34.8954 55.4416 34.0411C56.8958 33.1868 58.5212 32.5418 60.3175 32.1059C62.114 31.67 63.9446 31.3388 65.8095 31.1121C68.1706 30.8332 70.0867 30.6065 71.5581 30.4322C73.0294 30.2404 74.0988 29.9352 74.7659 29.5168C75.4328 29.0984 75.7671 28.4185 75.7671 27.477V27.2939C75.7671 25.01 75.1338 23.2404 73.8677 21.9851C72.6188 20.7298 70.754 20.1021 68.2732 20.1021C65.6897 20.1021 63.6538 20.6862 62.1653 21.8543C60.6939 23.005 59.676 24.2864 59.1114 25.6986L51.9 24.0249C52.7555 21.5841 54.0044 19.614 55.6469 18.1146C57.3064 16.5978 59.214 15.4994 61.3698 14.8195C63.5255 14.1221 65.7924 13.7733 68.1705 13.7733C69.7446 13.7733 71.4127 13.9651 73.1749 14.3487C74.9541 14.7148 76.614 15.3948 78.1534 16.3885C79.7102 17.3823 80.9847 18.8033 81.9776 20.6514C82.9698 22.4819 83.4658 24.8618 83.4658 27.7908V54.4658H75.9718V48.9739H75.664C75.168 49.9851 74.4238 50.9788 73.4315 51.9552C72.4392 52.9315 71.1645 53.7422 69.6077 54.3873C68.0508 55.0324 66.1859 55.3549 64.013 55.3549ZM65.6812 49.0785C67.8027 49.0785 69.6162 48.6514 71.1218 47.797C72.6445 46.9427 73.7993 45.8269 74.5863 44.4496C75.3907 43.0548 75.7927 41.5641 75.7927 39.9776V34.7995C75.5187 35.0785 74.9884 35.34 74.2014 35.5841C73.4315 35.8107 72.5504 36.0112 71.5581 36.1856C70.5658 36.3425 69.5991 36.4907 68.6581 36.6302C67.7171 36.7522 66.9301 36.8568 66.2971 36.944C64.8087 37.1358 63.4485 37.4583 62.2167 37.9116C61.0019 38.3649 60.0267 39.0187 59.291 39.873C58.5725 40.7099 58.2132 41.8256 58.2132 43.2204C58.2132 45.1557 58.9146 46.6202 60.3175 47.614C61.7205 48.5903 63.5084 49.0785 65.6812 49.0785ZM112.358 14.2964V20.5729H90.8266V14.2964H112.358ZM96.6005 4.67249H104.274V42.6712C104.274 44.1881 104.496 45.33 104.941 46.0971C105.386 46.8469 105.959 47.3611 106.661 47.6401C107.379 47.9016 108.157 48.0324 108.996 48.0324C109.612 48.0324 110.151 47.9888 110.613 47.9016C111.074 47.8144 111.434 47.7447 111.69 47.6925L113.076 54.1519C112.631 54.3263 111.999 54.5007 111.177 54.675C110.356 54.8667 109.329 54.9714 108.098 54.9888C106.079 55.0237 104.197 54.6575 102.452 53.8904C100.707 53.1233 99.2955 51.9377 98.2175 50.3337C97.1395 48.7298 96.6005 46.7161 96.6005 44.2926V4.67249ZM132.588 55.3549C130.091 55.3549 127.832 54.8842 125.813 53.9427C123.794 52.9838 122.195 51.5978 121.014 49.7845C119.851 47.9714 119.269 45.7485 119.269 43.1158C119.269 40.8493 119.697 38.9838 120.552 37.5193C121.408 36.0548 122.563 34.8954 124.017 34.0411C125.471 33.1868 127.097 32.5418 128.893 32.1059C130.689 31.67 132.52 31.3388 134.384 31.1121C136.746 30.8332 138.662 30.6065 140.133 30.4322C141.604 30.2404 142.674 29.9352 143.341 29.5168C144.008 29.0984 144.342 28.4185 144.342 27.477V27.2939C144.342 25.01 143.709 23.2404 142.443 21.9851C141.194 20.7298 139.33 20.1021 136.848 20.1021C134.265 20.1021 132.229 20.6862 130.74 21.8543C129.269 23.005 128.251 24.2864 127.687 25.6986L120.475 24.0249C121.33 21.5841 122.58 19.614 124.222 18.1146C125.882 16.5978 127.789 15.4994 129.945 14.8195C132.1 14.1221 134.368 13.7733 136.746 13.7733C138.32 13.7733 139.988 13.9651 141.75 14.3487C143.529 14.7148 145.189 15.3948 146.729 16.3885C148.285 17.3823 149.56 18.8033 150.553 20.6514C151.545 22.4819 152.041 24.8618 152.041 27.7908V54.4658H144.547V48.9739H144.239C143.743 49.9851 142.999 50.9788 142.006 51.9552C141.014 52.9315 139.74 53.7422 138.183 54.3873C136.626 55.0324 134.761 55.3549 132.588 55.3549ZM134.256 49.0785C136.378 49.0785 138.191 48.6514 139.697 47.797C141.22 46.9427 142.375 45.8269 143.161 44.4496C143.966 43.0548 144.368 41.5641 144.368 39.9776V34.7995C144.094 35.0785 143.564 35.34 142.777 35.5841C142.006 35.8107 141.126 36.0112 140.133 36.1856C139.141 36.3425 138.174 36.4907 137.233 36.6302C136.292 36.7522 135.505 36.8568 134.872 36.944C133.384 37.1358 132.024 37.4583 130.792 37.9116C129.577 38.3649 128.602 39.0187 127.866 39.873C127.148 40.7099 126.788 41.8256 126.788 43.2204C126.788 45.1557 127.49 46.6202 128.893 47.614C130.296 48.5903 132.084 49.0785 134.256 49.0785Z" fill="#C0C0C0"/>
<path d="M198.717 17.8268C198.221 16.2404 197.553 14.8194 196.715 13.5641C195.894 12.2914 194.91 11.2104 193.764 10.3212C192.618 9.41465 191.309 8.726 189.837 8.25529C188.384 7.78451 186.784 7.54916 185.038 7.54916C182.079 7.54916 179.41 8.32502 177.032 9.87668C174.653 11.4283 172.772 13.7036 171.386 16.7023C170.017 19.6837 169.333 23.3362 169.333 27.66C169.333 32.0012 170.025 35.6712 171.411 38.67C172.797 41.6687 174.696 43.9439 177.108 45.4956C179.521 47.0473 182.267 47.8231 185.346 47.8231C188.204 47.8231 190.693 47.2304 192.814 46.0448C194.953 44.8593 196.604 43.1856 197.767 41.0237C198.948 38.8443 199.538 36.2814 199.538 33.3349L201.591 33.7272H186.553V27.0585H207.212V33.1519C207.212 37.65 206.271 41.5554 204.389 44.8679C202.524 48.1631 199.94 50.7086 196.638 52.5043C193.354 54.3001 189.59 55.1979 185.346 55.1979C180.59 55.1979 176.416 54.0822 172.823 51.8505C169.247 49.6189 166.459 46.4545 164.456 42.3574C162.455 38.2428 161.454 33.3611 161.454 27.7123C161.454 23.4408 162.036 19.6052 163.199 16.2055C164.362 12.8057 165.996 9.92026 168.1 7.54916C170.223 5.16062 172.711 3.3387 175.569 2.08341C178.443 0.810683 181.582 0.174316 184.987 0.174316C187.827 0.174316 190.47 0.601464 192.917 1.45576C195.381 2.31006 197.571 3.52177 199.487 5.09088C201.42 6.66 203.02 8.52547 204.286 10.6874C205.552 12.8319 206.408 15.2116 206.852 17.8268H198.717ZM216.933 54.4657V14.2964H224.35V20.6774H224.761C225.479 18.5156 226.745 16.8157 228.558 15.5778C230.389 14.3225 232.459 13.6949 234.769 13.6949C235.248 13.6949 235.812 13.7123 236.463 13.7472C237.13 13.782 237.652 13.8256 238.028 13.8779V21.3574C237.721 21.2702 237.173 21.1743 236.386 21.0697C235.598 20.9477 234.812 20.8867 234.024 20.8867C232.211 20.8867 230.595 21.2789 229.174 22.0635C227.772 22.8306 226.659 23.9028 225.838 25.2801C225.017 26.6401 224.606 28.1918 224.606 29.9352V54.4657H216.933ZM256.058 55.3549C253.56 55.3549 251.302 54.8842 249.283 53.9427C247.264 52.9838 245.665 51.5978 244.484 49.7845C243.321 47.9713 242.739 45.7484 242.739 43.1157C242.739 40.8493 243.167 38.9838 244.022 37.5193C244.877 36.0548 246.032 34.8953 247.486 34.0411C248.941 33.1868 250.566 32.5417 252.362 32.1058C254.159 31.67 255.99 31.3387 257.855 31.112C260.215 30.8331 262.132 30.6064 263.603 30.4321C265.075 30.2404 266.144 29.9352 266.811 29.5168C267.478 29.0983 267.812 28.4184 267.812 27.4769V27.2938C267.812 25.01 267.179 23.2404 265.912 21.985C264.664 20.7297 262.799 20.1021 260.319 20.1021C257.735 20.1021 255.699 20.6861 254.21 21.8542C252.739 23.0049 251.721 24.2864 251.156 25.6986L243.945 24.0249C244.801 21.5841 246.049 19.6139 247.692 18.1145C249.351 16.5978 251.259 15.4993 253.415 14.8194C255.571 14.122 257.837 13.7733 260.215 13.7733C261.789 13.7733 263.458 13.9651 265.22 14.3486C266.999 14.7148 268.659 15.3948 270.199 16.3885C271.756 17.3823 273.03 18.8032 274.022 20.6513C275.014 22.4819 275.511 24.8617 275.511 27.7908V54.4657H268.017V48.9738H267.709C267.213 49.985 266.469 50.9788 265.477 51.9552C264.484 52.9315 263.21 53.7422 261.652 54.3872C260.096 55.0323 258.231 55.3549 256.058 55.3549ZM257.726 49.0784C259.848 49.0784 261.661 48.6513 263.167 47.797C264.689 46.9427 265.845 45.8268 266.631 44.4495C267.435 43.0548 267.837 41.5641 267.837 39.9775V34.7994C267.564 35.0784 267.033 35.34 266.247 35.5841C265.477 35.8107 264.595 36.0112 263.603 36.1856C262.611 36.3424 261.644 36.4906 260.703 36.6301C259.762 36.7522 258.976 36.8568 258.342 36.9439C256.853 37.1357 255.494 37.4582 254.262 37.9116C253.047 38.3649 252.072 39.0186 251.336 39.873C250.617 40.7098 250.258 41.8256 250.258 43.2204C250.258 45.1556 250.96 46.6201 252.362 47.6139C253.765 48.5902 255.553 49.0784 257.726 49.0784ZM300.758 55.2503C297.576 55.2503 294.736 54.4221 292.238 52.7659C289.758 51.0921 287.807 48.7123 286.388 45.6264C284.984 42.523 284.283 38.8007 284.283 34.4595C284.283 30.1183 284.993 26.4047 286.413 23.3188C287.85 20.2328 289.817 17.8705 292.316 16.2316C294.814 14.5927 297.645 13.7733 300.81 13.7733C303.257 13.7733 305.224 14.1918 306.713 15.0286C308.218 15.848 309.381 16.807 310.203 17.9053C311.041 19.0037 311.691 19.9713 312.153 20.8082H312.615V0.906574H320.289V54.4657H312.795V48.2154H312.153C311.691 49.0697 311.024 50.046 310.152 51.1445C309.296 52.2428 308.115 53.2017 306.61 54.0212C305.104 54.8405 303.154 55.2503 300.758 55.2503ZM302.452 48.5815C304.659 48.5815 306.525 47.9887 308.047 46.8032C309.587 45.6002 310.75 43.9352 311.537 41.8082C312.341 39.6812 312.743 37.2054 312.743 34.3811C312.743 31.5915 312.35 29.1507 311.563 27.0585C310.776 24.9664 309.621 23.3362 308.098 22.1681C306.576 21 304.694 20.4159 302.452 20.4159C300.143 20.4159 298.218 21.0261 296.678 22.2465C295.139 23.467 293.975 25.132 293.188 27.2416C292.418 29.3512 292.033 31.731 292.033 34.3811C292.033 37.066 292.426 39.4807 293.214 41.6252C294.001 43.7696 295.164 45.4694 296.704 46.7248C298.261 47.9626 300.177 48.5815 302.452 48.5815ZM348.5 55.2764C344.616 55.2764 341.272 54.4308 338.466 52.7397C335.677 51.0311 333.521 48.6338 331.999 45.5479C330.493 42.4445 329.741 38.8094 329.741 34.6426C329.741 30.528 330.493 26.9016 331.999 23.7634C333.521 20.6252 335.643 18.1756 338.363 16.4146C341.101 14.6538 344.3 13.7733 347.961 13.7733C350.186 13.7733 352.341 14.1482 354.428 14.8979C356.516 15.6475 358.389 16.8244 360.049 18.4283C361.709 20.0323 363.017 22.1158 363.975 24.6787C364.933 27.2241 365.412 30.3188 365.412 33.9626V36.7347H334.077V30.8767H357.893C357.893 28.8194 357.482 26.9975 356.661 25.4109C355.84 23.807 354.685 22.543 353.197 21.6189C351.725 20.6949 349.997 20.2328 348.012 20.2328C345.857 20.2328 343.975 20.7733 342.366 21.8542C340.776 22.9178 339.543 24.3126 338.671 26.0386C337.816 27.7472 337.388 29.6039 337.388 31.6089V36.1856C337.388 38.8705 337.85 41.1544 338.774 43.0373C339.715 44.9203 341.023 46.3586 342.701 47.3524C344.377 48.3287 346.336 48.8169 348.577 48.8169C350.031 48.8169 351.358 48.6077 352.555 48.1893C353.752 47.7534 354.787 47.1083 355.66 46.2541C356.533 45.3997 357.2 44.3449 357.662 43.0897L364.924 44.4234C364.343 46.6027 363.299 48.5118 361.794 50.1507C360.305 51.772 358.432 53.0361 356.173 53.9427C353.932 54.8319 351.374 55.2764 348.5 55.2764ZM403.735 24.1034L396.781 25.3586C396.49 24.452 396.028 23.589 395.395 22.7696C394.779 21.9501 393.941 21.2789 392.88 20.7559C391.819 20.2328 390.493 19.9713 388.902 19.9713C386.729 19.9713 384.915 20.4682 383.461 21.462C382.007 22.4383 381.28 23.7023 381.28 25.2541C381.28 26.5965 381.767 27.6774 382.743 28.4968C383.718 29.3163 385.292 29.9875 387.465 30.5105L393.727 31.9751C397.354 32.8294 400.057 34.1457 401.837 35.924C403.615 37.7023 404.505 40.0124 404.505 42.8542C404.505 45.2602 403.821 47.4047 402.452 49.2876C401.1 51.1531 399.21 52.6176 396.781 53.6812C394.368 54.7446 391.571 55.2764 388.389 55.2764C383.975 55.2764 380.373 54.3175 377.585 52.3997C374.796 50.4645 373.085 47.7185 372.452 44.1619L379.869 43.0112C380.33 44.9813 381.28 46.4719 382.717 47.4831C384.154 48.4769 386.028 48.9738 388.338 48.9738C390.853 48.9738 392.863 48.442 394.368 47.3786C395.874 46.2976 396.627 44.9813 396.627 43.4296C396.627 42.1743 396.164 41.1195 395.241 40.2652C394.334 39.4109 392.939 38.7659 391.057 38.33L384.386 36.8393C380.707 35.985 377.987 34.6252 376.225 32.7596C374.48 30.8941 373.607 28.5317 373.607 25.6724C373.607 23.3013 374.257 21.2267 375.557 19.4483C376.858 17.67 378.654 16.2839 380.947 15.2901C383.239 14.2789 385.865 13.7733 388.825 13.7733C393.085 13.7733 396.438 14.7148 398.885 16.5978C401.332 18.4632 402.949 20.9651 403.735 24.1034Z" fill="white"/>
</svg>
