<svg width="56" height="79" viewBox="0 0 56 79" fill="none" xmlns="http://www.w3.org/2000/svg">
<g clip-path="url(#clip0_51_54)">
<path d="M1.65782 51.8737L9.33407 2.68249C9.6 1.00781 11.8497 0.605307 12.6403 2.10749L20.8916 17.5462L1.65782 51.8737V51.8737ZM56.2397 63.8266L48.9156 18.5166C48.6928 17.1078 46.9319 16.5328 45.9184 17.5462L-0.239685 63.8266L25.3047 78.1656C26.0952 78.6006 26.9828 78.8286 27.885 78.8286C28.7872 78.8286 29.6748 78.6006 30.4653 78.1656L56.2397 63.8266V63.8266ZM35.5038 24.2953L29.5884 13.0469C28.9272 11.7675 27.1159 11.7675 26.4547 13.0469L0.471879 59.3703L35.5038 24.2953V24.2953Z" fill="#F8F8F8"/>
</g>
<defs>
<clipPath id="clip0_51_54">
<rect width="56" height="79" fill="white"/>
</clipPath>
</defs>
</svg>
