<svg width="86" height="85" viewBox="0 0 86 85" fill="none" xmlns="http://www.w3.org/2000/svg">
<path d="M42.3456 8.13346C39.5419 8.14674 36.8658 8.38514 34.5097 8.80217C27.5702 10.028 26.3111 12.594 26.3111 17.3267V23.5762H42.7088V25.6594H20.1566C15.3913 25.6594 11.2183 28.5235 9.91279 33.9741C8.40669 40.2196 8.34029 44.1177 9.91279 50.6394C11.0782 55.4944 13.862 58.9528 18.6279 58.9528H24.2665V51.4609C24.2665 46.0481 28.9488 41.2742 34.5103 41.2742H50.8894C55.4489 41.2742 59.0879 37.5196 59.0879 32.9415V17.3274C59.0879 12.8828 55.3386 9.5446 50.8894 8.80284C48.0712 8.33401 45.1486 8.12085 42.3456 8.13346ZM33.4777 13.1598C35.1711 13.1598 36.555 14.5656 36.555 16.2948C36.555 18.0167 35.1717 19.4092 33.4777 19.4092C31.7777 19.4092 30.4011 18.0167 30.4011 16.2948C30.4004 14.5656 31.7777 13.1598 33.4777 13.1598Z" fill="url(#paint0_linear_51_134)"/>
<path d="M61.1326 25.6594V32.9415C61.1326 38.586 56.346 43.3374 50.8887 43.3374H34.5096C30.0232 43.3374 26.3111 47.1776 26.3111 51.6707V67.2861C26.3111 71.7294 30.1746 74.3438 34.5096 75.6181C39.7 77.1435 44.6778 77.4197 50.8887 75.6181C55.0166 74.4221 59.0873 72.0169 59.0873 67.2861V61.036H42.7088V58.9521H67.2871C72.0524 58.9521 73.8294 55.6285 75.4869 50.6387C77.1989 45.5022 77.1252 40.5622 75.4869 33.9734C74.3089 29.2287 72.0597 25.6587 67.2871 25.6587H61.1326V25.6594ZM51.92 65.2023C53.6207 65.2023 54.9973 66.5948 54.9973 68.3181C54.9973 70.046 53.62 71.4518 51.92 71.4518C50.2267 71.4518 48.8434 70.046 48.8434 68.3181C48.8434 66.5948 50.2267 65.2023 51.92 65.2023Z" fill="url(#paint1_linear_51_134)"/>
<path opacity="0.444" d="M64.8693 79.4199C64.8693 81.7726 55.0305 83.6805 42.8948 83.6805C30.7584 83.6805 20.9196 81.7726 20.9196 79.4199C20.9196 77.0664 30.7577 75.1586 42.8948 75.1586C55.0305 75.1586 64.8693 77.0658 64.8693 79.4199Z" fill="url(#paint2_radial_51_134)"/>
<defs>
<linearGradient id="paint0_linear_51_134" x1="7.11434" y1="10.0876" x2="44.9352" y2="42.341" gradientUnits="userSpaceOnUse">
<stop stop-color="#233039"/>
<stop offset="1" stop-color="#18273A"/>
</linearGradient>
<linearGradient id="paint1_linear_51_134" x1="59.1649" y1="62.3902" x2="45.6017" y2="43.3701" gradientUnits="userSpaceOnUse">
<stop stop-color="#3A485D"/>
<stop offset="1" stop-color="#4E5B66"/>
</linearGradient>
<radialGradient id="paint2_radial_51_134" cx="0" cy="0" r="1" gradientUnits="userSpaceOnUse" gradientTransform="translate(42.806 79.2979) rotate(-90) scale(4.26217 18.7358)">
<stop stop-color="#B8B8B8" stop-opacity="0.498"/>
<stop offset="1" stop-color="#7F7F7F" stop-opacity="0"/>
</radialGradient>
</defs>
</svg>
