<svg width="99" height="85" viewBox="0 0 99 85" fill="none" xmlns="http://www.w3.org/2000/svg">
<g clip-path="url(#clip0_281_2)">
<path d="M49.5 9.5C36.4331 9.5 28.2692 15.9423 25 28.8321C29.8985 22.3891 35.6169 19.973 42.1485 21.584C45.8778 22.5008 48.543 25.1684 51.4945 28.1244C56.298 32.9331 61.858 38.5 74 38.5C87.0662 38.5 95.2308 32.057 98.5 19.1641C93.6008 25.6109 87.8831 28.027 81.3508 26.416C77.6222 25.4984 74.9601 22.8316 72.0048 19.8756C67.2043 15.0669 61.6459 9.5 49.5 9.5V9.5ZM25 38.5C11.9338 38.5 3.76922 44.943 0.5 57.8358C5.39847 51.3891 11.1162 48.973 17.6485 50.584C21.3778 51.5016 24.043 54.1684 26.9945 57.1244C31.798 61.9331 37.358 67.5 49.5 67.5C62.5662 67.5 70.7308 61.0577 74 48.1679C69.1008 54.6109 63.3831 57.027 56.8508 55.416C53.1222 54.4992 50.4601 51.8316 47.5048 48.8756C42.7043 44.0669 37.1459 38.5 25 38.5Z" fill="#111A26"/>
</g>
<defs>
<clipPath id="clip0_281_2">
<rect width="98" height="84" fill="white" transform="translate(0.5 0.5)"/>
</clipPath>
</defs>
</svg>
