<svg width="75" height="75" viewBox="0 0 75 75" fill="none" xmlns="http://www.w3.org/2000/svg">
<path d="M0.878906 37.4473V74.0684H74.1211V0.826172H0.878906V37.4473ZM59.9004 34.5176C61.6546 34.9247 63.249 35.8422 64.4824 37.1543C65.1614 37.8612 65.7517 38.6483 66.2402 39.498C66.2402 39.5918 63.0762 41.7305 61.1484 42.9258C61.0781 42.9727 60.7969 42.668 60.4863 42.2051C60.1344 41.5979 59.6344 41.0897 59.0329 40.728C58.4315 40.3663 57.7482 40.1629 57.0469 40.1367C54.8262 39.9844 53.3965 41.1504 53.4082 43.0664C53.3898 43.5434 53.4991 44.0167 53.7246 44.4375C54.2109 45.4512 55.1191 46.0547 57.9668 47.2852C63.2109 49.541 65.4551 51.0293 66.8496 53.1445C68.4082 55.4883 68.7539 59.2734 67.6992 62.0742C66.5273 65.1211 63.6562 67.1894 59.5957 67.875C57.7411 68.0874 55.8673 68.0677 54.0176 67.8164C51.1826 67.3491 48.5712 65.988 46.5645 63.9316C45.8906 63.1875 44.5781 61.248 44.6602 61.1074C44.8741 60.9486 45.0993 60.8057 45.334 60.6797L48.0469 59.1797L50.1504 57.9609L50.5898 58.6113C51.3315 59.6722 52.2753 60.5762 53.3672 61.2715C55.7109 62.5019 58.9102 62.332 60.4922 60.9082C61.0234 60.3865 61.3547 59.695 61.4286 58.9541C61.5025 58.2132 61.3142 57.4699 60.8965 56.8535C60.3105 56.0391 59.1387 55.3535 55.8633 53.9238C52.084 52.2949 50.4551 51.2871 48.9668 49.6816C48.0377 48.6222 47.3517 47.3723 46.957 46.0195C46.6626 44.4741 46.6191 42.8913 46.8281 41.332C47.6074 37.6816 50.3438 35.1328 54.3398 34.377C56.1905 34.148 58.0651 34.1993 59.9004 34.5293V34.5176ZM42.709 37.5879V40.5879H33.1992V67.6758H26.4551V40.582H16.9219V37.6523C16.8922 36.642 16.9157 35.6309 16.9922 34.623C17.0391 34.5703 22.8516 34.5703 29.8828 34.5703H42.6738L42.709 37.5879Z" fill="#F8F8F8"/>
</svg>
