<svg width="210" height="278" viewBox="0 0 210 278" fill="none" xmlns="http://www.w3.org/2000/svg">
<g clip-path="url(#clip0_266_70)">
<g filter="url(#filter0_d_266_70)">
<path d="M2.3393 25.8027C2.58181 6.42393 23.4429 -5.71754 40.4911 3.59772L173.359 76.1978C181.713 80.762 186.859 89.5483 186.74 99.0438L184.849 250.075C184.607 269.454 163.746 281.596 146.698 272.28L13.8296 199.681C5.47625 195.116 0.33033 186.33 0.449158 176.834L2.3393 25.8027Z" fill="#DEDCDC"/>
</g>
<g filter="url(#filter1_d_266_70)">
<path d="M107.107 93.9908L86.2585 181.189H84.2777L64.4195 97.9387L44.5021 181.189H42.5224L21.673 93.9908L23.5948 93.527L43.512 177.01L63.4293 93.759H65.409L85.2679 177.01L105.185 93.527L107.107 93.9908Z" fill="black"/>
</g>
<g filter="url(#filter2_d_266_70)">
<path d="M207.274 177.668L186.463 211.315C181.77 210.489 177.422 209.766 173.419 209.147C169.484 208.528 165.584 207.943 161.719 207.393C157.923 206.911 154.023 206.395 150.02 205.844C146.017 205.294 141.703 204.64 137.078 203.883C135.284 203.539 133.489 203.299 131.695 203.161C129.969 202.954 128.209 202.851 126.415 202.851C122.619 202.851 118.96 203.368 115.44 204.4C111.989 205.431 108.676 207.048 105.501 209.25L102.291 205.844C103.741 204.606 104.983 203.126 106.019 201.406C107.054 199.686 107.917 197.863 108.607 195.937C109.366 193.941 109.919 191.946 110.263 189.95C110.608 187.955 110.781 186.062 110.781 184.274V123.381C110.781 113.748 112.472 104.769 115.854 96.4438C119.236 88.1182 123.895 80.8939 129.831 74.77C135.836 68.5773 142.876 63.7268 150.952 60.2177C159.096 56.6401 167.897 54.8507 177.353 54.8507C180.39 54.8507 183.323 55.1949 186.153 55.8825C188.983 56.5712 191.468 57.6718 193.607 59.1852C195.816 60.6993 197.576 62.6604 198.887 65.0685C200.199 67.4762 200.854 70.4355 200.854 73.9446C200.854 77.041 200.268 80.0339 199.095 82.9232C197.921 85.8136 196.299 88.5658 194.229 91.1799C192.227 93.795 189.88 96.2374 187.189 98.508C184.566 100.71 181.805 102.705 178.906 104.494C176.007 106.283 173.039 107.797 170.002 109.035C166.965 110.274 164.1 111.237 161.408 111.925L159.752 108.003C162.099 106.627 164.515 105.045 166.999 103.255C169.553 101.467 171.865 99.5055 173.936 97.3727C176.007 95.171 177.698 92.7969 179.009 90.2517C180.321 87.6365 180.976 84.8154 180.976 81.7879C180.976 79.3798 180.528 77.1781 179.63 75.1828C178.733 73.1188 177.491 71.3641 175.904 69.9189C174.385 68.4744 172.59 67.3391 170.52 66.5133C168.518 65.6879 166.344 65.2745 163.997 65.2745C158.82 65.2745 154.265 66.3755 150.33 68.5773C146.396 70.779 143.083 73.6694 140.391 77.247C137.7 80.825 135.663 84.8843 134.283 89.4259C132.902 93.9668 132.213 98.5766 132.213 103.255V169.722C132.213 172.336 131.833 174.882 131.074 177.359C130.314 179.767 129.278 182.107 127.967 184.377C126.725 186.579 125.241 188.677 123.515 190.673C121.79 192.668 119.961 194.491 118.028 196.143C120.237 194.561 122.376 193.115 124.447 191.808C126.518 190.432 128.623 189.262 130.763 188.299C132.972 187.336 135.25 186.613 137.596 186.132C139.943 185.581 142.531 185.306 145.361 185.306C148.812 185.306 151.884 185.478 154.576 185.822C157.267 186.166 159.89 186.545 162.444 186.957C165.067 187.301 167.724 187.646 170.416 187.989C173.108 188.333 176.18 188.506 179.63 188.506C182.046 188.506 184.359 188.161 186.567 187.473C188.845 186.716 190.984 185.719 192.986 184.48C194.988 183.242 196.852 181.831 198.577 180.249C200.372 178.598 201.993 176.843 203.443 174.985L207.274 177.668Z" fill="#535353"/>
</g>
</g>
<defs>
<filter id="filter0_d_266_70" x="-4.55286" y="-3.59924" width="202.295" height="291.077" filterUnits="userSpaceOnUse" color-interpolation-filters="sRGB">
<feFlood flood-opacity="0" result="BackgroundImageFix"/>
<feColorMatrix in="SourceAlpha" type="matrix" values="0 0 0 0 0 0 0 0 0 0 0 0 0 0 0 0 0 0 127 0" result="hardAlpha"/>
<feOffset dx="3" dy="4"/>
<feGaussianBlur stdDeviation="4"/>
<feComposite in2="hardAlpha" operator="out"/>
<feColorMatrix type="matrix" values="0 0 0 0 0 0 0 0 0 0 0 0 0 0 0 0 0 0 0.25 0"/>
<feBlend mode="normal" in2="BackgroundImageFix" result="effect1_dropShadow_266_70"/>
<feBlend mode="normal" in="SourceGraphic" in2="effect1_dropShadow_266_70" result="shape"/>
</filter>
<filter id="filter1_d_266_70" x="16.673" y="89.527" width="101.434" height="103.662" filterUnits="userSpaceOnUse" color-interpolation-filters="sRGB">
<feFlood flood-opacity="0" result="BackgroundImageFix"/>
<feColorMatrix in="SourceAlpha" type="matrix" values="0 0 0 0 0 0 0 0 0 0 0 0 0 0 0 0 0 0 127 0" result="hardAlpha"/>
<feOffset dx="3" dy="4"/>
<feGaussianBlur stdDeviation="4"/>
<feComposite in2="hardAlpha" operator="out"/>
<feColorMatrix type="matrix" values="0 0 0 0 0 0 0 0 0 0 0 0 0 0 0 0 0 0 0.25 0"/>
<feBlend mode="normal" in2="BackgroundImageFix" result="effect1_dropShadow_266_70"/>
<feBlend mode="normal" in="SourceGraphic" in2="effect1_dropShadow_266_70" result="shape"/>
</filter>
<filter id="filter2_d_266_70" x="97.2913" y="50.8507" width="120.982" height="172.464" filterUnits="userSpaceOnUse" color-interpolation-filters="sRGB">
<feFlood flood-opacity="0" result="BackgroundImageFix"/>
<feColorMatrix in="SourceAlpha" type="matrix" values="0 0 0 0 0 0 0 0 0 0 0 0 0 0 0 0 0 0 127 0" result="hardAlpha"/>
<feOffset dx="3" dy="4"/>
<feGaussianBlur stdDeviation="4"/>
<feComposite in2="hardAlpha" operator="out"/>
<feColorMatrix type="matrix" values="0 0 0 0 0 0 0 0 0 0 0 0 0 0 0 0 0 0 0.25 0"/>
<feBlend mode="normal" in2="BackgroundImageFix" result="effect1_dropShadow_266_70"/>
<feBlend mode="normal" in="SourceGraphic" in2="effect1_dropShadow_266_70" result="shape"/>
</filter>
<clipPath id="clip0_266_70">
<rect width="210" height="278" fill="white"/>
</clipPath>
</defs>
</svg>
