<svg width="428" height="926" viewBox="0 0 428 926" fill="none" xmlns="http://www.w3.org/2000/svg">
<g clip-path="url(#clip0_6_4)">
<rect width="428" height="926" fill="white"/>
<rect x="1" y="53" width="428" height="877" fill="url(#paint0_linear_6_4)" fill-opacity="0.6"/>
<path d="M183.102 259.931C92.7662 221.17 23.4599 268.734 0 309.98V930H428V234C377.021 243.689 319.319 218.165 319.319 296.155C319.319 336.568 247.187 287.428 183.102 259.931Z" fill="white"/>
<path d="M28.5342 27H30.4238V16.4312H28.5415L25.7803 18.3647V20.1812L28.4097 18.3354H28.5342V27Z" fill="#111111"/>
<path d="M37.1182 27.2563C39.8062 27.2563 41.4028 25.1543 41.4028 21.5947C41.4028 20.2544 41.1465 19.1265 40.6558 18.2549C39.9453 16.8999 38.7222 16.1675 37.1768 16.1675C34.877 16.1675 33.251 17.7129 33.251 19.8809C33.251 21.917 34.7158 23.3965 36.73 23.3965C37.9678 23.3965 38.9712 22.8179 39.4692 21.8145H39.4912C39.4912 21.8145 39.5205 21.8145 39.5278 21.8145C39.5425 21.8145 39.5938 21.8145 39.5938 21.8145C39.5938 24.2314 38.6782 25.6743 37.1328 25.6743C36.2246 25.6743 35.5215 25.1763 35.2798 24.3779H33.3975C33.7124 26.1138 35.1846 27.2563 37.1182 27.2563ZM37.1841 21.895C35.9683 21.895 35.104 21.0308 35.104 19.8223C35.104 18.6431 36.0122 17.7422 37.1914 17.7422C38.3706 17.7422 39.2788 18.6577 39.2788 19.8516C39.2788 21.0308 38.3926 21.895 37.1841 21.895Z" fill="#111111"/>
<path d="M44.7207 25.8794C45.4165 25.8794 45.8926 25.3813 45.8926 24.7222C45.8926 24.0557 45.4165 23.5649 44.7207 23.5649C44.0322 23.5649 43.5488 24.0557 43.5488 24.7222C43.5488 25.3813 44.0322 25.8794 44.7207 25.8794ZM44.7207 20.3862C45.4165 20.3862 45.8926 19.8955 45.8926 19.2363C45.8926 18.5698 45.4165 18.0791 44.7207 18.0791C44.0322 18.0791 43.5488 18.5698 43.5488 19.2363C43.5488 19.8955 44.0322 20.3862 44.7207 20.3862Z" fill="#111111"/>
<path d="M52.1035 27.2637C54.6304 27.2637 56.1318 25.2129 56.1318 21.7192C56.1318 18.2109 54.6084 16.1675 52.1035 16.1675C49.5913 16.1675 48.0679 18.2109 48.0679 21.7046C48.0679 25.2129 49.5693 27.2637 52.1035 27.2637ZM52.1035 25.6963C50.7632 25.6963 49.9795 24.3047 49.9795 21.7046C49.9795 19.1265 50.7778 17.7422 52.1035 17.7422C53.4292 17.7422 54.2202 19.1191 54.2202 21.7046C54.2202 24.3047 53.4438 25.6963 52.1035 25.6963Z" fill="#111111"/>
<path d="M58.0947 19.522V19.5513H59.8672V19.522C59.8672 18.4453 60.6143 17.7202 61.7202 17.7202C62.7603 17.7202 63.522 18.394 63.522 19.3242C63.522 20.0713 63.1631 20.6206 61.7202 22.0854L58.1973 25.689V27H65.5361V25.396H60.79V25.2715L63.002 23.0522C64.7964 21.2798 65.375 20.3423 65.375 19.207C65.375 17.4419 63.8662 16.1675 61.7788 16.1675C59.6108 16.1675 58.0947 17.5444 58.0947 19.522Z" fill="#111111"/>
<path opacity="0.44" fill-rule="evenodd" clip-rule="evenodd" d="M412 20.5L412.46 20.8066C413.11 21.2398 413.5 21.9691 413.5 22.75C413.5 23.5309 413.11 24.2602 412.46 24.6934L412 25V20.5ZM390.833 17H409.167C410.179 17 411 17.8954 411 19V26.5C411 27.6046 410.179 28.5 409.167 28.5H390.833C389.821 28.5 389 27.6046 389 26.5V19C389 17.8954 389.821 17 390.833 17ZM390.909 18C390.407 18 390 18.4477 390 19V26.5C390 27.0523 390.407 27.5 390.909 27.5H409.091C409.593 27.5 410 27.0523 410 26.5V19C410 18.4477 409.593 18 409.091 18H390.909Z" fill="#111111"/>
<path fill-rule="evenodd" clip-rule="evenodd" d="M391.875 19H405V26.5H391.875C391.392 26.5 391 26.0523 391 25.5V20C391 19.4477 391.392 19 391.875 19Z" fill="#111111"/>
<path fill-rule="evenodd" clip-rule="evenodd" d="M361.5 18C360.948 18 360.5 18.4477 360.5 19V27C360.5 27.5523 360.948 28 361.5 28H362.5C363.052 28 363.5 27.5523 363.5 27V19C363.5 18.4477 363.052 18 362.5 18H361.5ZM356 21C356 20.4477 356.448 20 357 20H358C358.552 20 359 20.4477 359 21V27C359 27.5523 358.552 28 358 28H357C356.448 28 356 27.5523 356 27V21ZM352.5 22C351.948 22 351.5 22.4477 351.5 23V27C351.5 27.5523 351.948 28 352.5 28H353.5C354.052 28 354.5 27.5523 354.5 27V23C354.5 22.4477 354.052 22 353.5 22H352.5ZM348 28C347.448 28 347 27.5523 347 27V24.5C347 23.9477 347.448 23.5 348 23.5H349C349.552 23.5 350 23.9477 350 24.5V27C350 27.5523 349.552 28 349 28H348Z" fill="#111111"/>
<path d="M376.637 19.2773C378.852 19.2774 380.984 20.1289 382.59 21.6557C382.711 21.7735 382.904 21.772 383.023 21.6523L384.179 20.4857C384.239 20.4249 384.273 20.3427 384.272 20.2571C384.272 20.1715 384.237 20.0897 384.176 20.0297C379.961 15.9901 373.311 15.9901 369.096 20.0297C369.035 20.0896 369.001 20.1715 369 20.257C368.999 20.3426 369.033 20.4249 369.093 20.4857L370.25 21.6523C370.369 21.7722 370.562 21.7737 370.683 21.6557C372.289 20.1288 374.42 19.2773 376.637 19.2773ZM376.637 23.073C377.854 23.0729 379.028 23.5255 379.931 24.3427C380.053 24.4586 380.245 24.4561 380.364 24.337L381.519 23.1703C381.579 23.1091 381.613 23.0261 381.612 22.9399C381.611 22.8536 381.576 22.7713 381.514 22.7113C378.766 20.1549 374.51 20.1549 371.762 22.7113C371.7 22.7713 371.664 22.8536 371.663 22.9399C371.662 23.0262 371.696 23.1092 371.757 23.1703L372.912 24.337C373.031 24.4561 373.223 24.4586 373.345 24.3427C374.247 23.526 375.42 23.0735 376.637 23.073ZM378.856 25.8573C378.917 25.7967 378.951 25.7133 378.95 25.6268C378.948 25.5403 378.91 25.4584 378.846 25.4003C377.571 24.3214 375.703 24.3214 374.427 25.4003C374.363 25.4583 374.325 25.5402 374.323 25.6267C374.322 25.7132 374.356 25.7967 374.417 25.8573L376.415 27.873C376.473 27.9322 376.553 27.9656 376.637 27.9656C376.72 27.9656 376.8 27.9322 376.858 27.873L378.856 25.8573Z" fill="#111111"/>
<g clip-path="url(#clip1_6_4)">
<path d="M126.577 358.878V379H121.326V358.878H126.577Z" fill="url(#paint1_linear_6_4)"/>
<path d="M149.211 358.878V379H143.38L137.121 368.116L135.594 365.128H135.564L135.686 368.847V379H131.045V358.878H136.877L143.135 369.762L144.662 372.75H144.692L144.57 369.03V358.878H149.211ZM173.621 379V358.878H189.314V362.933H178.872V367.018H187.177V370.829H178.872V374.945H189.711V379H173.621ZM198.133 374.945H208.239V379H192.882V358.878H198.133V374.945ZM211.248 379V358.878H226.94V362.933H216.499V367.018H224.803V370.829H216.499V374.945H227.337V379H211.248ZM260.072 358.878C262.473 358.878 264.336 359.436 265.659 360.554C267.002 361.672 267.674 363.176 267.674 365.067C267.674 366.571 267.318 367.811 266.605 368.786C265.913 369.742 264.916 370.443 263.613 370.89L268.864 379H263.064L258.759 371.652H255.614V379H250.454V358.878H260.072ZM259.339 367.933C260.357 367.933 261.12 367.729 261.629 367.323C262.137 366.916 262.392 366.266 262.392 365.372C262.392 363.685 261.374 362.841 259.339 362.841H255.614V367.933H259.339ZM269.397 379L276.481 358.878H282.77L289.822 379H284.418L283.045 374.457H276.084L274.679 379H269.397ZM278.709 366.042L277.183 370.89H281.945L280.48 366.073L279.595 362.902H279.534L278.709 366.042ZM307.828 362.933H297.417V367.201H305.721V371.256H297.417V379H292.166V358.878H307.828V362.933Z" fill="black"/>
<path d="M170.619 358.878V362.933H164.055V379H158.804V362.933H152.209V358.878H170.619Z" fill="url(#paint2_linear_6_4)"/>
<path d="M247.453 358.878V362.933H240.889V379H235.637V362.933H229.043V358.878H247.453Z" fill="url(#paint3_linear_6_4)"/>
<g filter="url(#filter0_d_6_4)">
<path d="M255.154 119H172.573C166.572 119 161.707 123.858 161.707 129.851V315.186C161.707 321.178 166.572 326.037 172.573 326.037H255.154C261.155 326.037 266.02 321.178 266.02 315.186V129.851C266.02 123.858 261.155 119 255.154 119Z" fill="#242424"/>
<g filter="url(#filter1_d_6_4)">
<path d="M249.457 154.788V140.81H177.701V154.788H204.777V229.68H222.014V154.788H249.457Z" fill="url(#paint4_linear_6_4)"/>
</g>
<g filter="url(#filter2_d_6_4)">
<path d="M249.457 203.4V189.423H177.701V203.4H204.777V278.292H222.014V203.4H249.457Z" fill="url(#paint5_linear_6_4)"/>
</g>
<g filter="url(#filter3_d_6_4)">
<path d="M249.457 217.289V203.312H177.701V217.289H204.777V292.182H222.014V217.289H249.457Z" fill="url(#paint6_linear_6_4)"/>
</g>
<g filter="url(#filter4_d_6_4)">
<path d="M249.457 231.179V217.201H177.701V231.179H204.777V306.071H222.014V231.179H249.457Z" fill="url(#paint7_linear_6_4)"/>
</g>
</g>
</g>
<g filter="url(#filter5_dddddd_6_4)">
<rect x="87" y="794" width="263" height="45.0861" rx="22.5431" fill="#53B842"/>
<path d="M190.762 823.359H188.512L185.952 817.309H182.322V823.359H180.182V808.899H185.922C187.528 808.899 188.725 809.266 189.512 809.999C190.298 810.726 190.692 811.709 190.692 812.949C190.692 813.729 190.558 814.379 190.292 814.899C190.032 815.419 189.692 815.842 189.272 816.169C188.858 816.496 188.422 816.752 187.962 816.939L190.762 823.359ZM185.342 815.579C186.342 815.579 187.118 815.362 187.672 814.929C188.232 814.496 188.512 813.869 188.512 813.049C188.512 812.249 188.258 811.642 187.752 811.229C187.252 810.816 186.572 810.609 185.712 810.609H182.322V815.579H185.342ZM194.722 818.689C194.716 819.616 194.946 820.389 195.412 821.009C195.879 821.629 196.572 821.939 197.492 821.939C198.106 821.939 198.636 821.799 199.082 821.519C199.536 821.239 199.832 820.822 199.972 820.269H201.952C201.826 820.982 201.542 821.582 201.102 822.069C200.662 822.556 200.126 822.926 199.492 823.179C198.866 823.432 198.212 823.559 197.532 823.559C196.552 823.559 195.689 823.349 194.942 822.929C194.196 822.502 193.612 821.896 193.192 821.109C192.779 820.322 192.572 819.386 192.572 818.299C192.572 817.226 192.762 816.279 193.142 815.459C193.522 814.632 194.069 813.986 194.782 813.519C195.502 813.052 196.372 812.819 197.392 812.819C198.886 812.819 200.026 813.289 200.812 814.229C201.606 815.162 202.002 816.412 202.002 817.979V818.689H194.722ZM194.722 817.299H199.962C199.962 816.486 199.749 815.799 199.322 815.239C198.902 814.672 198.256 814.389 197.382 814.389C196.789 814.389 196.296 814.532 195.902 814.819C195.509 815.106 195.212 815.472 195.012 815.919C194.819 816.366 194.722 816.826 194.722 817.299ZM208.774 826.779C207.094 826.779 205.794 826.542 204.874 826.069C203.954 825.602 203.494 824.949 203.494 824.109C203.494 823.742 203.58 823.432 203.754 823.179C203.934 822.919 204.144 822.706 204.384 822.539C204.63 822.372 204.857 822.242 205.064 822.149C205.27 822.056 205.404 821.986 205.464 821.939C205.35 821.872 205.204 821.789 205.024 821.689C204.844 821.582 204.684 821.442 204.544 821.269C204.41 821.089 204.344 820.856 204.344 820.569C204.344 820.236 204.5 819.929 204.814 819.649C205.134 819.362 205.61 819.152 206.244 819.019C205.617 818.712 205.13 818.299 204.784 817.779C204.444 817.259 204.274 816.706 204.274 816.119C204.274 815.112 204.69 814.319 205.524 813.739C206.364 813.152 207.484 812.859 208.884 812.859C209.564 812.859 210.134 812.939 210.594 813.099C211.054 813.252 211.477 813.462 211.864 813.729C212.03 813.669 212.29 813.566 212.644 813.419C212.997 813.272 213.36 813.122 213.734 812.969C214.107 812.816 214.4 812.696 214.614 812.609L214.604 814.469L212.804 814.799C213.01 815.246 213.114 815.686 213.114 816.119C213.114 816.726 212.95 817.279 212.624 817.779C212.297 818.279 211.807 818.679 211.154 818.979C210.5 819.279 209.684 819.429 208.704 819.429C208.61 819.429 208.487 819.429 208.334 819.429C208.187 819.422 208.067 819.412 207.974 819.399C207.347 819.419 206.917 819.492 206.684 819.619C206.457 819.739 206.344 819.872 206.344 820.019C206.344 820.206 206.49 820.332 206.784 820.399C207.084 820.466 207.58 820.522 208.274 820.569C208.52 820.589 208.834 820.609 209.214 820.629C209.594 820.649 210.02 820.676 210.494 820.709C211.62 820.776 212.484 821.059 213.084 821.559C213.684 822.059 213.984 822.722 213.984 823.549C213.984 824.496 213.554 825.269 212.694 825.869C211.834 826.476 210.527 826.779 208.774 826.779ZM208.764 818.119C209.45 818.119 210.007 817.952 210.434 817.619C210.86 817.286 211.074 816.799 211.074 816.159C211.074 815.506 210.86 815.002 210.434 814.649C210.007 814.289 209.45 814.109 208.764 814.109C208.064 814.109 207.497 814.289 207.064 814.649C206.637 815.009 206.424 815.512 206.424 816.159C206.424 816.779 206.627 817.262 207.034 817.609C207.447 817.949 208.024 818.119 208.764 818.119ZM209.144 825.469C210.984 825.469 211.904 824.946 211.904 823.899C211.904 823.512 211.754 823.196 211.454 822.949C211.154 822.702 210.707 822.559 210.114 822.519L207.354 822.339C207.08 822.326 206.807 822.386 206.534 822.519C206.267 822.652 206.044 822.839 205.864 823.079C205.69 823.312 205.604 823.572 205.604 823.859C205.604 824.379 205.89 824.776 206.464 825.049C207.044 825.329 207.937 825.469 209.144 825.469ZM219.055 808.909V811.019H216.905V808.909H219.055ZM219.015 813.019V823.359H216.955V813.019H219.015ZM225.877 823.559C225.15 823.559 224.473 823.446 223.847 823.219C223.22 822.986 222.693 822.629 222.267 822.149C221.847 821.669 221.583 821.046 221.477 820.279H223.387C223.52 820.872 223.817 821.309 224.277 821.589C224.743 821.869 225.273 822.009 225.867 822.009C226.52 822.009 227.047 821.892 227.447 821.659C227.853 821.419 228.057 821.052 228.057 820.559C228.057 819.886 227.607 819.446 226.707 819.239L224.647 818.749C223.793 818.556 223.11 818.242 222.597 817.809C222.083 817.369 221.823 816.752 221.817 815.959C221.817 815.046 222.157 814.296 222.837 813.709C223.517 813.116 224.527 812.819 225.867 812.819C227.027 812.819 227.96 813.079 228.667 813.599C229.38 814.119 229.75 814.872 229.777 815.859H227.927C227.853 815.386 227.637 815.016 227.277 814.749C226.917 814.476 226.44 814.339 225.847 814.339C225.227 814.339 224.72 814.462 224.327 814.709C223.94 814.949 223.747 815.319 223.747 815.819C223.747 816.159 223.89 816.429 224.177 816.629C224.463 816.822 224.893 816.982 225.467 817.109L227.427 817.599C228.1 817.772 228.617 818.019 228.977 818.339C229.343 818.659 229.597 819.006 229.737 819.379C229.883 819.752 229.957 820.106 229.957 820.439C229.957 821.412 229.59 822.176 228.857 822.729C228.13 823.282 227.137 823.559 225.877 823.559ZM237.727 814.559H235.407L235.417 820.729C235.417 821.236 235.5 821.549 235.667 821.669C235.833 821.782 236.137 821.839 236.577 821.839H237.787V823.229C237.653 823.282 237.453 823.329 237.187 823.369C236.92 823.409 236.583 823.429 236.177 823.429C235.41 823.429 234.813 823.326 234.387 823.119C233.967 822.912 233.673 822.616 233.507 822.229C233.347 821.836 233.267 821.362 233.267 820.809V814.559H231.587V813.019H233.327L233.857 809.979H235.407V813.009H237.727V814.559ZM241.578 818.689C241.571 819.616 241.801 820.389 242.268 821.009C242.734 821.629 243.428 821.939 244.348 821.939C244.961 821.939 245.491 821.799 245.938 821.519C246.391 821.239 246.688 820.822 246.828 820.269H248.808C248.681 820.982 248.398 821.582 247.958 822.069C247.518 822.556 246.981 822.926 246.348 823.179C245.721 823.432 245.068 823.559 244.388 823.559C243.408 823.559 242.544 823.349 241.798 822.929C241.051 822.502 240.468 821.896 240.048 821.109C239.634 820.322 239.428 819.386 239.428 818.299C239.428 817.226 239.618 816.279 239.998 815.459C240.378 814.632 240.924 813.986 241.638 813.519C242.358 813.052 243.228 812.819 244.248 812.819C245.741 812.819 246.881 813.289 247.668 814.229C248.461 815.162 248.858 816.412 248.858 817.979V818.689H241.578ZM241.578 817.299H246.818C246.818 816.486 246.604 815.799 246.178 815.239C245.758 814.672 245.111 814.389 244.238 814.389C243.644 814.389 243.151 814.532 242.758 814.819C242.364 815.106 242.068 815.472 241.868 815.919C241.674 816.366 241.578 816.826 241.578 817.299ZM251.247 823.359V813.019H253.297V815.139C253.55 814.379 253.957 813.802 254.517 813.409C255.084 813.016 255.717 812.819 256.417 812.819C256.55 812.819 256.68 812.829 256.807 812.849C256.94 812.862 257.044 812.889 257.117 812.929V814.989C257.03 814.949 256.917 814.922 256.777 814.909C256.644 814.896 256.527 814.886 256.427 814.879C255.514 814.812 254.777 814.969 254.217 815.349C253.664 815.729 253.387 816.326 253.387 817.139V823.359H251.247Z" fill="white"/>
</g>
<g clip-path="url(#clip2_6_4)">
<rect x="53" y="470" width="332" height="2" fill="url(#paint8_linear_6_4)"/>
<g opacity="0.87">
<path d="M55.6641 461H54.2188V452.547H55.6641V461ZM54.1016 450.305C54.1016 450.07 54.1719 449.872 54.3125 449.711C54.4583 449.549 54.6719 449.469 54.9531 449.469C55.2344 449.469 55.4479 449.549 55.5938 449.711C55.7396 449.872 55.8125 450.07 55.8125 450.305C55.8125 450.539 55.7396 450.734 55.5938 450.891C55.4479 451.047 55.2344 451.125 54.9531 451.125C54.6719 451.125 54.4583 451.047 54.3125 450.891C54.1719 450.734 54.1016 450.539 54.1016 450.305ZM59.3516 452.547L59.3984 453.609C60.0443 452.797 60.888 452.391 61.9297 452.391C63.7161 452.391 64.6172 453.398 64.6328 455.414V461H63.1875V455.406C63.1823 454.797 63.0417 454.346 62.7656 454.055C62.4948 453.763 62.0703 453.617 61.4922 453.617C61.0234 453.617 60.612 453.742 60.2578 453.992C59.9036 454.242 59.6276 454.57 59.4297 454.977V461H57.9844V452.547H59.3516ZM68.7734 450.5V452.547H70.3516V453.664H68.7734V458.906C68.7734 459.245 68.8438 459.5 68.9844 459.672C69.125 459.839 69.3646 459.922 69.7031 459.922C69.8698 459.922 70.099 459.891 70.3906 459.828V461C70.0104 461.104 69.6406 461.156 69.2812 461.156C68.6354 461.156 68.1484 460.961 67.8203 460.57C67.4922 460.18 67.3281 459.625 67.3281 458.906V453.664H65.7891V452.547H67.3281V450.5H68.7734ZM75.5547 461.156C74.4089 461.156 73.4766 460.781 72.7578 460.031C72.0391 459.276 71.6797 458.268 71.6797 457.008V456.742C71.6797 455.904 71.8385 455.156 72.1562 454.5C72.4792 453.839 72.9271 453.323 73.5 452.953C74.0781 452.578 74.7031 452.391 75.375 452.391C76.474 452.391 77.3281 452.753 77.9375 453.477C78.5469 454.201 78.8516 455.237 78.8516 456.586V457.188H73.125C73.1458 458.021 73.388 458.695 73.8516 459.211C74.3203 459.721 74.9141 459.977 75.6328 459.977C76.1432 459.977 76.5755 459.872 76.9297 459.664C77.2839 459.456 77.5938 459.18 77.8594 458.836L78.7422 459.523C78.0339 460.612 76.9714 461.156 75.5547 461.156ZM75.375 453.578C74.7917 453.578 74.3021 453.792 73.9062 454.219C73.5104 454.641 73.2656 455.234 73.1719 456H77.4062V455.891C77.3646 455.156 77.1667 454.589 76.8125 454.188C76.4583 453.781 75.9792 453.578 75.375 453.578ZM82.1016 461H80.6562V449H82.1016V461ZM87.9297 461.156C86.7839 461.156 85.8516 460.781 85.1328 460.031C84.4141 459.276 84.0547 458.268 84.0547 457.008V456.742C84.0547 455.904 84.2135 455.156 84.5312 454.5C84.8542 453.839 85.3021 453.323 85.875 452.953C86.4531 452.578 87.0781 452.391 87.75 452.391C88.849 452.391 89.7031 452.753 90.3125 453.477C90.9219 454.201 91.2266 455.237 91.2266 456.586V457.188H85.5C85.5208 458.021 85.763 458.695 86.2266 459.211C86.6953 459.721 87.2891 459.977 88.0078 459.977C88.5182 459.977 88.9505 459.872 89.3047 459.664C89.6589 459.456 89.9688 459.18 90.2344 458.836L91.1172 459.523C90.4089 460.612 89.3464 461.156 87.9297 461.156ZM87.75 453.578C87.1667 453.578 86.6771 453.792 86.2812 454.219C85.8854 454.641 85.6406 455.234 85.5469 456H89.7812V455.891C89.7396 455.156 89.5417 454.589 89.1875 454.188C88.8333 453.781 88.3542 453.578 87.75 453.578ZM94.8672 450.5V452.547H96.4453V453.664H94.8672V458.906C94.8672 459.245 94.9375 459.5 95.0781 459.672C95.2188 459.839 95.4583 459.922 95.7969 459.922C95.9635 459.922 96.1927 459.891 96.4844 459.828V461C96.1042 461.104 95.7344 461.156 95.375 461.156C94.7292 461.156 94.2422 460.961 93.9141 460.57C93.5859 460.18 93.4219 459.625 93.4219 458.906V453.664H91.8828V452.547H93.4219V450.5H94.8672ZM102.227 453.844C102.008 453.807 101.771 453.789 101.516 453.789C100.568 453.789 99.9245 454.193 99.5859 455V461H98.1406V452.547H99.5469L99.5703 453.523C100.044 452.768 100.716 452.391 101.586 452.391C101.867 452.391 102.081 452.427 102.227 452.5V453.844ZM108.469 461C108.385 460.833 108.318 460.536 108.266 460.109C107.594 460.807 106.792 461.156 105.859 461.156C105.026 461.156 104.341 460.922 103.805 460.453C103.273 459.979 103.008 459.38 103.008 458.656C103.008 457.776 103.341 457.094 104.008 456.609C104.68 456.12 105.622 455.875 106.836 455.875H108.242V455.211C108.242 454.706 108.091 454.305 107.789 454.008C107.487 453.706 107.042 453.555 106.453 453.555C105.938 453.555 105.505 453.685 105.156 453.945C104.807 454.206 104.633 454.521 104.633 454.891H103.18C103.18 454.469 103.328 454.062 103.625 453.672C103.927 453.276 104.333 452.964 104.844 452.734C105.359 452.505 105.924 452.391 106.539 452.391C107.513 452.391 108.276 452.635 108.828 453.125C109.38 453.609 109.667 454.279 109.688 455.133V459.023C109.688 459.799 109.786 460.417 109.984 460.875V461H108.469ZM106.07 459.898C106.523 459.898 106.953 459.781 107.359 459.547C107.766 459.312 108.06 459.008 108.242 458.633V456.898H107.109C105.339 456.898 104.453 457.417 104.453 458.453C104.453 458.906 104.604 459.26 104.906 459.516C105.208 459.771 105.596 459.898 106.07 459.898ZM112.664 461V453.664H111.328V452.547H112.664V451.68C112.664 450.773 112.906 450.073 113.391 449.578C113.875 449.083 114.56 448.836 115.445 448.836C115.779 448.836 116.109 448.88 116.438 448.969L116.359 450.141C116.115 450.094 115.854 450.07 115.578 450.07C115.109 450.07 114.747 450.208 114.492 450.484C114.237 450.755 114.109 451.146 114.109 451.656V452.547H115.914V453.664H114.109V461H112.664ZM120.523 456.758H116.711V455.578H120.523V456.758ZM127.156 460.164C126.594 460.826 125.768 461.156 124.68 461.156C123.779 461.156 123.091 460.896 122.617 460.375C122.148 459.849 121.911 459.073 121.906 458.047V452.547H123.352V458.008C123.352 459.289 123.872 459.93 124.914 459.93C126.018 459.93 126.753 459.518 127.117 458.695V452.547H128.562V461H127.188L127.156 460.164ZM135.688 458.758C135.688 458.367 135.539 458.065 135.242 457.852C134.951 457.633 134.438 457.445 133.703 457.289C132.974 457.133 132.393 456.945 131.961 456.727C131.534 456.508 131.216 456.247 131.008 455.945C130.805 455.643 130.703 455.284 130.703 454.867C130.703 454.174 130.995 453.589 131.578 453.109C132.167 452.63 132.917 452.391 133.828 452.391C134.786 452.391 135.562 452.638 136.156 453.133C136.755 453.628 137.055 454.26 137.055 455.031H135.602C135.602 454.635 135.432 454.294 135.094 454.008C134.76 453.721 134.339 453.578 133.828 453.578C133.302 453.578 132.891 453.693 132.594 453.922C132.297 454.151 132.148 454.451 132.148 454.82C132.148 455.169 132.286 455.432 132.562 455.609C132.839 455.786 133.336 455.956 134.055 456.117C134.779 456.279 135.365 456.471 135.812 456.695C136.26 456.919 136.591 457.19 136.805 457.508C137.023 457.82 137.133 458.203 137.133 458.656C137.133 459.411 136.831 460.018 136.227 460.477C135.622 460.93 134.839 461.156 133.875 461.156C133.198 461.156 132.599 461.036 132.078 460.797C131.557 460.557 131.148 460.224 130.852 459.797C130.56 459.365 130.414 458.898 130.414 458.398H131.859C131.885 458.883 132.078 459.268 132.438 459.555C132.802 459.836 133.281 459.977 133.875 459.977C134.422 459.977 134.859 459.867 135.188 459.648C135.521 459.424 135.688 459.128 135.688 458.758ZM142.523 461.156C141.378 461.156 140.445 460.781 139.727 460.031C139.008 459.276 138.648 458.268 138.648 457.008V456.742C138.648 455.904 138.807 455.156 139.125 454.5C139.448 453.839 139.896 453.323 140.469 452.953C141.047 452.578 141.672 452.391 142.344 452.391C143.443 452.391 144.297 452.753 144.906 453.477C145.516 454.201 145.82 455.237 145.82 456.586V457.188H140.094C140.115 458.021 140.357 458.695 140.82 459.211C141.289 459.721 141.883 459.977 142.602 459.977C143.112 459.977 143.544 459.872 143.898 459.664C144.253 459.456 144.562 459.18 144.828 458.836L145.711 459.523C145.003 460.612 143.94 461.156 142.523 461.156ZM142.344 453.578C141.76 453.578 141.271 453.792 140.875 454.219C140.479 454.641 140.234 455.234 140.141 456H144.375V455.891C144.333 455.156 144.135 454.589 143.781 454.188C143.427 453.781 142.948 453.578 142.344 453.578ZM151.586 453.844C151.367 453.807 151.13 453.789 150.875 453.789C149.927 453.789 149.284 454.193 148.945 455V461H147.5V452.547H148.906L148.93 453.523C149.404 452.768 150.076 452.391 150.945 452.391C151.227 452.391 151.44 452.427 151.586 452.5V453.844ZM165.406 457.078C165.344 458.339 165.031 459.333 164.469 460.062C163.906 460.792 163.154 461.156 162.211 461.156C161.237 461.156 160.612 460.719 160.336 459.844C160.055 460.286 159.732 460.617 159.367 460.836C159.008 461.049 158.635 461.156 158.25 461.156C157.51 461.156 156.951 460.854 156.57 460.25C156.19 459.646 156.049 458.81 156.148 457.742C156.227 456.883 156.422 456.117 156.734 455.445C157.052 454.768 157.458 454.237 157.953 453.852C158.453 453.466 158.977 453.273 159.523 453.273C159.945 453.273 160.323 453.331 160.656 453.445C160.99 453.555 161.365 453.773 161.781 454.102L161.375 458.43C161.276 459.633 161.609 460.234 162.375 460.234C162.964 460.234 163.44 459.943 163.805 459.359C164.169 458.776 164.367 458.016 164.398 457.078C164.497 455.052 164.12 453.508 163.266 452.445C162.417 451.383 161.122 450.852 159.383 450.852C158.336 450.852 157.406 451.112 156.594 451.633C155.781 452.148 155.141 452.896 154.672 453.875C154.203 454.854 153.94 455.984 153.883 457.266C153.82 458.557 153.977 459.68 154.352 460.633C154.727 461.581 155.297 462.305 156.062 462.805C156.833 463.31 157.763 463.562 158.852 463.562C159.32 463.562 159.789 463.505 160.258 463.391C160.732 463.276 161.125 463.128 161.438 462.945L161.727 463.844C161.404 464.047 160.974 464.214 160.438 464.344C159.906 464.474 159.367 464.539 158.82 464.539C157.518 464.539 156.398 464.245 155.461 463.656C154.523 463.073 153.82 462.229 153.352 461.125C152.888 460.026 152.688 458.74 152.75 457.266C152.812 455.833 153.133 454.547 153.711 453.406C154.289 452.26 155.073 451.378 156.062 450.758C157.052 450.133 158.169 449.82 159.414 449.82C160.711 449.82 161.823 450.112 162.75 450.695C163.677 451.279 164.367 452.12 164.82 453.219C165.273 454.318 165.469 455.604 165.406 457.078ZM157.391 457.742C157.318 458.482 157.385 459.049 157.594 459.445C157.807 459.841 158.143 460.039 158.602 460.039C158.914 460.039 159.214 459.906 159.5 459.641C159.792 459.375 160.031 458.995 160.219 458.5L160.227 458.43L160.586 454.5C160.294 454.349 159.982 454.273 159.648 454.273C159.039 454.273 158.534 454.583 158.133 455.203C157.737 455.823 157.49 456.669 157.391 457.742ZM166.953 456.703C166.953 455.385 167.258 454.339 167.867 453.562C168.477 452.781 169.284 452.391 170.289 452.391C171.32 452.391 172.125 452.755 172.703 453.484L172.773 452.547H174.094V460.797C174.094 461.891 173.768 462.753 173.117 463.383C172.471 464.013 171.602 464.328 170.508 464.328C169.898 464.328 169.302 464.198 168.719 463.938C168.135 463.677 167.69 463.32 167.383 462.867L168.133 462C168.753 462.766 169.51 463.148 170.406 463.148C171.109 463.148 171.656 462.951 172.047 462.555C172.443 462.159 172.641 461.602 172.641 460.883V460.156C172.062 460.823 171.273 461.156 170.273 461.156C169.284 461.156 168.482 460.758 167.867 459.961C167.258 459.164 166.953 458.078 166.953 456.703ZM168.406 456.867C168.406 457.82 168.602 458.57 168.992 459.117C169.383 459.659 169.93 459.93 170.633 459.93C171.544 459.93 172.214 459.516 172.641 458.688V454.828C172.198 454.021 171.534 453.617 170.648 453.617C169.945 453.617 169.396 453.891 169 454.438C168.604 454.984 168.406 455.794 168.406 456.867ZM177.641 452.547L177.68 453.484C178.299 452.755 179.135 452.391 180.188 452.391C181.37 452.391 182.174 452.844 182.602 453.75C182.883 453.344 183.247 453.016 183.695 452.766C184.148 452.516 184.682 452.391 185.297 452.391C187.151 452.391 188.094 453.372 188.125 455.336V461H186.68V455.422C186.68 454.818 186.542 454.367 186.266 454.07C185.99 453.768 185.526 453.617 184.875 453.617C184.339 453.617 183.893 453.779 183.539 454.102C183.185 454.419 182.979 454.849 182.922 455.391V461H181.469V455.461C181.469 454.232 180.867 453.617 179.664 453.617C178.716 453.617 178.068 454.021 177.719 454.828V461H176.273V452.547H177.641ZM195.531 461C195.448 460.833 195.38 460.536 195.328 460.109C194.656 460.807 193.854 461.156 192.922 461.156C192.089 461.156 191.404 460.922 190.867 460.453C190.336 459.979 190.07 459.38 190.07 458.656C190.07 457.776 190.404 457.094 191.07 456.609C191.742 456.12 192.685 455.875 193.898 455.875H195.305V455.211C195.305 454.706 195.154 454.305 194.852 454.008C194.549 453.706 194.104 453.555 193.516 453.555C193 453.555 192.568 453.685 192.219 453.945C191.87 454.206 191.695 454.521 191.695 454.891H190.242C190.242 454.469 190.391 454.062 190.688 453.672C190.99 453.276 191.396 452.964 191.906 452.734C192.422 452.505 192.987 452.391 193.602 452.391C194.576 452.391 195.339 452.635 195.891 453.125C196.443 453.609 196.729 454.279 196.75 455.133V459.023C196.75 459.799 196.849 460.417 197.047 460.875V461H195.531ZM193.133 459.898C193.586 459.898 194.016 459.781 194.422 459.547C194.828 459.312 195.122 459.008 195.305 458.633V456.898H194.172C192.401 456.898 191.516 457.417 191.516 458.453C191.516 458.906 191.667 459.26 191.969 459.516C192.271 459.771 192.659 459.898 193.133 459.898ZM200.586 461H199.141V452.547H200.586V461ZM199.023 450.305C199.023 450.07 199.094 449.872 199.234 449.711C199.38 449.549 199.594 449.469 199.875 449.469C200.156 449.469 200.37 449.549 200.516 449.711C200.661 449.872 200.734 450.07 200.734 450.305C200.734 450.539 200.661 450.734 200.516 450.891C200.37 451.047 200.156 451.125 199.875 451.125C199.594 451.125 199.38 451.047 199.234 450.891C199.094 450.734 199.023 450.539 199.023 450.305ZM204.477 461H203.031V449H204.477V461ZM206.828 460.242C206.828 459.992 206.901 459.784 207.047 459.617C207.198 459.451 207.422 459.367 207.719 459.367C208.016 459.367 208.24 459.451 208.391 459.617C208.547 459.784 208.625 459.992 208.625 460.242C208.625 460.482 208.547 460.682 208.391 460.844C208.24 461.005 208.016 461.086 207.719 461.086C207.422 461.086 207.198 461.005 207.047 460.844C206.901 460.682 206.828 460.482 206.828 460.242ZM214.406 459.977C214.922 459.977 215.372 459.82 215.758 459.508C216.143 459.195 216.357 458.805 216.398 458.336H217.766C217.74 458.82 217.573 459.281 217.266 459.719C216.958 460.156 216.547 460.505 216.031 460.766C215.521 461.026 214.979 461.156 214.406 461.156C213.255 461.156 212.339 460.773 211.656 460.008C210.979 459.237 210.641 458.185 210.641 456.852V456.609C210.641 455.786 210.792 455.055 211.094 454.414C211.396 453.773 211.828 453.276 212.391 452.922C212.958 452.568 213.628 452.391 214.398 452.391C215.346 452.391 216.133 452.674 216.758 453.242C217.388 453.81 217.724 454.547 217.766 455.453H216.398C216.357 454.906 216.148 454.458 215.773 454.109C215.404 453.755 214.945 453.578 214.398 453.578C213.664 453.578 213.094 453.844 212.688 454.375C212.286 454.901 212.086 455.664 212.086 456.664V456.938C212.086 457.911 212.286 458.661 212.688 459.188C213.089 459.714 213.661 459.977 214.406 459.977ZM219.008 456.695C219.008 455.867 219.169 455.122 219.492 454.461C219.82 453.799 220.273 453.289 220.852 452.93C221.435 452.57 222.099 452.391 222.844 452.391C223.995 452.391 224.924 452.789 225.633 453.586C226.346 454.383 226.703 455.443 226.703 456.766V456.867C226.703 457.69 226.544 458.43 226.227 459.086C225.914 459.737 225.464 460.245 224.875 460.609C224.292 460.974 223.62 461.156 222.859 461.156C221.714 461.156 220.784 460.758 220.07 459.961C219.362 459.164 219.008 458.109 219.008 456.797V456.695ZM220.461 456.867C220.461 457.805 220.677 458.557 221.109 459.125C221.547 459.693 222.13 459.977 222.859 459.977C223.594 459.977 224.177 459.69 224.609 459.117C225.042 458.539 225.258 457.732 225.258 456.695C225.258 455.768 225.036 455.018 224.594 454.445C224.156 453.867 223.573 453.578 222.844 453.578C222.13 453.578 221.555 453.862 221.117 454.43C220.68 454.997 220.461 455.81 220.461 456.867ZM229.875 452.547L229.914 453.484C230.534 452.755 231.37 452.391 232.422 452.391C233.604 452.391 234.409 452.844 234.836 453.75C235.117 453.344 235.482 453.016 235.93 452.766C236.383 452.516 236.917 452.391 237.531 452.391C239.385 452.391 240.328 453.372 240.359 455.336V461H238.914V455.422C238.914 454.818 238.776 454.367 238.5 454.07C238.224 453.768 237.76 453.617 237.109 453.617C236.573 453.617 236.128 453.779 235.773 454.102C235.419 454.419 235.214 454.849 235.156 455.391V461H233.703V455.461C233.703 454.232 233.102 453.617 231.898 453.617C230.951 453.617 230.302 454.021 229.953 454.828V461H228.508V452.547H229.875Z" fill="black" fill-opacity="0.87"/>
</g>
<mask id="mask0_6_4" style="mask-type:alpha" maskUnits="userSpaceOnUse" x="359" y="446" width="20" height="16">
<path d="M377 450L369 455L361 450V448L369 453L377 448V450ZM377 446H361C359.89 446 359 446.89 359 448V460C359 460.53 359.211 461.039 359.586 461.414C359.961 461.789 360.47 462 361 462H377C377.53 462 378.039 461.789 378.414 461.414C378.789 461.039 379 460.53 379 460V448C379 446.89 378.1 446 377 446Z" fill="#5F5F5F"/>
</mask>
<g mask="url(#mask0_6_4)">
<rect x="353" y="438" width="32" height="32" fill="#828282"/>
</g>
<path d="M58.8125 431.057H55.1152V434.08H59.4102V435H53.9902V426.469H59.3516V427.395H55.1152V430.137H58.8125V431.057ZM62.8965 431.818H60.0371V430.934H62.8965V431.818ZM64.9766 428.66L65.0059 429.363C65.4707 428.816 66.0977 428.543 66.8867 428.543C67.7734 428.543 68.377 428.883 68.6973 429.562C68.9082 429.258 69.1816 429.012 69.5176 428.824C69.8574 428.637 70.2578 428.543 70.7188 428.543C72.1094 428.543 72.8164 429.279 72.8398 430.752V435H71.7559V430.816C71.7559 430.363 71.6523 430.025 71.4453 429.803C71.2383 429.576 70.8906 429.463 70.4023 429.463C70 429.463 69.666 429.584 69.4004 429.826C69.1348 430.064 68.9805 430.387 68.9375 430.793V435H67.8477V430.846C67.8477 429.924 67.3965 429.463 66.4941 429.463C65.7832 429.463 65.2969 429.766 65.0352 430.371V435H63.9512V428.66H64.9766ZM78.3945 435C78.332 434.875 78.2812 434.652 78.2422 434.332C77.7383 434.855 77.1367 435.117 76.4375 435.117C75.8125 435.117 75.2988 434.941 74.8965 434.59C74.498 434.234 74.2988 433.785 74.2988 433.242C74.2988 432.582 74.5488 432.07 75.0488 431.707C75.5527 431.34 76.2598 431.156 77.1699 431.156H78.2246V430.658C78.2246 430.279 78.1113 429.979 77.8848 429.756C77.6582 429.529 77.3242 429.416 76.8828 429.416C76.4961 429.416 76.1719 429.514 75.9102 429.709C75.6484 429.904 75.5176 430.141 75.5176 430.418H74.4277C74.4277 430.102 74.5391 429.797 74.7617 429.504C74.9883 429.207 75.293 428.973 75.6758 428.801C76.0625 428.629 76.4863 428.543 76.9473 428.543C77.6777 428.543 78.25 428.727 78.6641 429.094C79.0781 429.457 79.293 429.959 79.3086 430.6V433.518C79.3086 434.1 79.3828 434.562 79.5312 434.906V435H78.3945ZM76.5957 434.174C76.9355 434.174 77.2578 434.086 77.5625 433.91C77.8672 433.734 78.0879 433.506 78.2246 433.225V431.924H77.375C76.0469 431.924 75.3828 432.312 75.3828 433.09C75.3828 433.43 75.4961 433.695 75.7227 433.887C75.9492 434.078 76.2402 434.174 76.5957 434.174ZM82.1855 435H81.1016V428.66H82.1855V435ZM81.0137 426.979C81.0137 426.803 81.0664 426.654 81.1719 426.533C81.2812 426.412 81.4414 426.352 81.6523 426.352C81.8633 426.352 82.0234 426.412 82.1328 426.533C82.2422 426.654 82.2969 426.803 82.2969 426.979C82.2969 427.154 82.2422 427.301 82.1328 427.418C82.0234 427.535 81.8633 427.594 81.6523 427.594C81.4414 427.594 81.2812 427.535 81.1719 427.418C81.0664 427.301 81.0137 427.154 81.0137 426.979ZM85.1035 435H84.0195V426H85.1035V435ZM93.7344 435C93.6719 434.875 93.6211 434.652 93.582 434.332C93.0781 434.855 92.4766 435.117 91.7773 435.117C91.1523 435.117 90.6387 434.941 90.2363 434.59C89.8379 434.234 89.6387 433.785 89.6387 433.242C89.6387 432.582 89.8887 432.07 90.3887 431.707C90.8926 431.34 91.5996 431.156 92.5098 431.156H93.5645V430.658C93.5645 430.279 93.4512 429.979 93.2246 429.756C92.998 429.529 92.6641 429.416 92.2227 429.416C91.8359 429.416 91.5117 429.514 91.25 429.709C90.9883 429.904 90.8574 430.141 90.8574 430.418H89.7676C89.7676 430.102 89.8789 429.797 90.1016 429.504C90.3281 429.207 90.6328 428.973 91.0156 428.801C91.4023 428.629 91.8262 428.543 92.2871 428.543C93.0176 428.543 93.5898 428.727 94.0039 429.094C94.418 429.457 94.6328 429.959 94.6484 430.6V433.518C94.6484 434.1 94.7227 434.562 94.8711 434.906V435H93.7344ZM91.9355 434.174C92.2754 434.174 92.5977 434.086 92.9023 433.91C93.207 433.734 93.4277 433.506 93.5645 433.225V431.924H92.7148C91.3867 431.924 90.7227 432.312 90.7227 433.09C90.7227 433.43 90.8359 433.695 91.0625 433.887C91.2891 434.078 91.5801 434.174 91.9355 434.174ZM96.084 431.777C96.084 430.805 96.3145 430.023 96.7754 429.434C97.2363 428.84 97.8398 428.543 98.5859 428.543C99.3281 428.543 99.916 428.797 100.35 429.305V426H101.434V435H100.438L100.385 434.32C99.9512 434.852 99.3477 435.117 98.5742 435.117C97.8398 435.117 97.2402 434.816 96.7754 434.215C96.3145 433.613 96.084 432.828 96.084 431.859V431.777ZM97.168 431.9C97.168 432.619 97.3164 433.182 97.6133 433.588C97.9102 433.994 98.3203 434.197 98.8438 434.197C99.5312 434.197 100.033 433.889 100.35 433.271V430.359C100.025 429.762 99.5273 429.463 98.8555 429.463C98.3242 429.463 97.9102 429.668 97.6133 430.078C97.3164 430.488 97.168 431.096 97.168 431.9ZM102.857 431.777C102.857 430.805 103.088 430.023 103.549 429.434C104.01 428.84 104.613 428.543 105.359 428.543C106.102 428.543 106.689 428.797 107.123 429.305V426H108.207V435H107.211L107.158 434.32C106.725 434.852 106.121 435.117 105.348 435.117C104.613 435.117 104.014 434.816 103.549 434.215C103.088 433.613 102.857 432.828 102.857 431.859V431.777ZM103.941 431.9C103.941 432.619 104.09 433.182 104.387 433.588C104.684 433.994 105.094 434.197 105.617 434.197C106.305 434.197 106.807 433.889 107.123 433.271V430.359C106.799 429.762 106.301 429.463 105.629 429.463C105.098 429.463 104.684 429.668 104.387 430.078C104.09 430.488 103.941 431.096 103.941 431.9ZM112.959 429.633C112.795 429.605 112.617 429.592 112.426 429.592C111.715 429.592 111.232 429.895 110.979 430.5V435H109.895V428.66H110.949L110.967 429.393C111.322 428.826 111.826 428.543 112.479 428.543C112.689 428.543 112.85 428.57 112.959 428.625V429.633ZM116.475 435.117C115.615 435.117 114.916 434.836 114.377 434.273C113.838 433.707 113.568 432.951 113.568 432.006V431.807C113.568 431.178 113.688 430.617 113.926 430.125C114.168 429.629 114.504 429.242 114.934 428.965C115.367 428.684 115.836 428.543 116.34 428.543C117.164 428.543 117.805 428.814 118.262 429.357C118.719 429.9 118.947 430.678 118.947 431.689V432.141H114.652C114.668 432.766 114.85 433.271 115.197 433.658C115.549 434.041 115.994 434.232 116.533 434.232C116.916 434.232 117.24 434.154 117.506 433.998C117.771 433.842 118.004 433.635 118.203 433.377L118.865 433.893C118.334 434.709 117.537 435.117 116.475 435.117ZM116.34 429.434C115.902 429.434 115.535 429.594 115.238 429.914C114.941 430.23 114.758 430.676 114.688 431.25H117.863V431.168C117.832 430.617 117.684 430.191 117.418 429.891C117.152 429.586 116.793 429.434 116.34 429.434ZM123.898 433.318C123.898 433.025 123.787 432.799 123.564 432.639C123.346 432.475 122.961 432.334 122.41 432.217C121.863 432.1 121.428 431.959 121.104 431.795C120.783 431.631 120.545 431.436 120.389 431.209C120.236 430.982 120.16 430.713 120.16 430.4C120.16 429.881 120.379 429.441 120.816 429.082C121.258 428.723 121.82 428.543 122.504 428.543C123.223 428.543 123.805 428.729 124.25 429.1C124.699 429.471 124.924 429.945 124.924 430.523H123.834C123.834 430.227 123.707 429.971 123.453 429.756C123.203 429.541 122.887 429.434 122.504 429.434C122.109 429.434 121.801 429.52 121.578 429.691C121.355 429.863 121.244 430.088 121.244 430.365C121.244 430.627 121.348 430.824 121.555 430.957C121.762 431.09 122.135 431.217 122.674 431.338C123.217 431.459 123.656 431.604 123.992 431.771C124.328 431.939 124.576 432.143 124.736 432.381C124.9 432.615 124.982 432.902 124.982 433.242C124.982 433.809 124.756 434.264 124.303 434.607C123.85 434.947 123.262 435.117 122.539 435.117C122.031 435.117 121.582 435.027 121.191 434.848C120.801 434.668 120.494 434.418 120.271 434.098C120.053 433.773 119.943 433.424 119.943 433.049H121.027C121.047 433.412 121.191 433.701 121.461 433.916C121.734 434.127 122.094 434.232 122.539 434.232C122.949 434.232 123.277 434.15 123.523 433.986C123.773 433.818 123.898 433.596 123.898 433.318ZM130.086 433.318C130.086 433.025 129.975 432.799 129.752 432.639C129.533 432.475 129.148 432.334 128.598 432.217C128.051 432.1 127.615 431.959 127.291 431.795C126.971 431.631 126.732 431.436 126.576 431.209C126.424 430.982 126.348 430.713 126.348 430.4C126.348 429.881 126.566 429.441 127.004 429.082C127.445 428.723 128.008 428.543 128.691 428.543C129.41 428.543 129.992 428.729 130.438 429.1C130.887 429.471 131.111 429.945 131.111 430.523H130.021C130.021 430.227 129.895 429.971 129.641 429.756C129.391 429.541 129.074 429.434 128.691 429.434C128.297 429.434 127.988 429.52 127.766 429.691C127.543 429.863 127.432 430.088 127.432 430.365C127.432 430.627 127.535 430.824 127.742 430.957C127.949 431.09 128.322 431.217 128.861 431.338C129.404 431.459 129.844 431.604 130.18 431.771C130.516 431.939 130.764 432.143 130.924 432.381C131.088 432.615 131.17 432.902 131.17 433.242C131.17 433.809 130.943 434.264 130.49 434.607C130.037 434.947 129.449 435.117 128.727 435.117C128.219 435.117 127.77 435.027 127.379 434.848C126.988 434.668 126.682 434.418 126.459 434.098C126.24 433.773 126.131 433.424 126.131 433.049H127.215C127.234 433.412 127.379 433.701 127.648 433.916C127.922 434.127 128.281 434.232 128.727 434.232C129.137 434.232 129.465 434.15 129.711 433.986C129.961 433.818 130.086 433.596 130.086 433.318Z" fill="black" fill-opacity="0.87"/>
<g opacity="0.4">
<rect x="53" y="534" width="332" height="1" fill="black" fill-opacity="0.87"/>
</g>
<g opacity="0.54">
<path d="M60.5938 518.977H55.8203V524H54.3203V512.625H61.3672V513.859H55.8203V517.75H60.5938V518.977ZM64.5078 524H63.0625V515.547H64.5078V524ZM62.9453 513.305C62.9453 513.07 63.0156 512.872 63.1562 512.711C63.3021 512.549 63.5156 512.469 63.7969 512.469C64.0781 512.469 64.2917 512.549 64.4375 512.711C64.5833 512.872 64.6562 513.07 64.6562 513.305C64.6562 513.539 64.5833 513.734 64.4375 513.891C64.2917 514.047 64.0781 514.125 63.7969 514.125C63.5156 514.125 63.3021 514.047 63.1562 513.891C63.0156 513.734 62.9453 513.539 62.9453 513.305ZM70.9141 516.844C70.6953 516.807 70.4583 516.789 70.2031 516.789C69.2552 516.789 68.612 517.193 68.2734 518V524H66.8281V515.547H68.2344L68.2578 516.523C68.7318 515.768 69.4036 515.391 70.2734 515.391C70.5547 515.391 70.7682 515.427 70.9141 515.5V516.844ZM77.1719 521.758C77.1719 521.367 77.0234 521.065 76.7266 520.852C76.4349 520.633 75.9219 520.445 75.1875 520.289C74.4583 520.133 73.8776 519.945 73.4453 519.727C73.0182 519.508 72.7005 519.247 72.4922 518.945C72.2891 518.643 72.1875 518.284 72.1875 517.867C72.1875 517.174 72.4792 516.589 73.0625 516.109C73.651 515.63 74.401 515.391 75.3125 515.391C76.2708 515.391 77.0469 515.638 77.6406 516.133C78.2396 516.628 78.5391 517.26 78.5391 518.031H77.0859C77.0859 517.635 76.9167 517.294 76.5781 517.008C76.2448 516.721 75.8229 516.578 75.3125 516.578C74.7865 516.578 74.375 516.693 74.0781 516.922C73.7812 517.151 73.6328 517.451 73.6328 517.82C73.6328 518.169 73.7708 518.432 74.0469 518.609C74.3229 518.786 74.8203 518.956 75.5391 519.117C76.263 519.279 76.849 519.471 77.2969 519.695C77.7448 519.919 78.0755 520.19 78.2891 520.508C78.5078 520.82 78.6172 521.203 78.6172 521.656C78.6172 522.411 78.3151 523.018 77.7109 523.477C77.1068 523.93 76.3229 524.156 75.3594 524.156C74.6823 524.156 74.0833 524.036 73.5625 523.797C73.0417 523.557 72.6328 523.224 72.3359 522.797C72.0443 522.365 71.8984 521.898 71.8984 521.398H73.3438C73.3698 521.883 73.5625 522.268 73.9219 522.555C74.2865 522.836 74.7656 522.977 75.3594 522.977C75.9062 522.977 76.3438 522.867 76.6719 522.648C77.0052 522.424 77.1719 522.128 77.1719 521.758ZM82.4609 513.5V515.547H84.0391V516.664H82.4609V521.906C82.4609 522.245 82.5312 522.5 82.6719 522.672C82.8125 522.839 83.0521 522.922 83.3906 522.922C83.5573 522.922 83.7865 522.891 84.0781 522.828V524C83.6979 524.104 83.3281 524.156 82.9688 524.156C82.3229 524.156 81.8359 523.961 81.5078 523.57C81.1797 523.18 81.0156 522.625 81.0156 521.906V516.664H79.4766V515.547H81.0156V513.5H82.4609ZM91.0703 515.547L91.1172 516.609C91.763 515.797 92.6068 515.391 93.6484 515.391C95.4349 515.391 96.3359 516.398 96.3516 518.414V524H94.9062V518.406C94.901 517.797 94.7604 517.346 94.4844 517.055C94.2135 516.763 93.7891 516.617 93.2109 516.617C92.7422 516.617 92.3307 516.742 91.9766 516.992C91.6224 517.242 91.3464 517.57 91.1484 517.977V524H89.7031V515.547H91.0703ZM103.75 524C103.667 523.833 103.599 523.536 103.547 523.109C102.875 523.807 102.073 524.156 101.141 524.156C100.307 524.156 99.6224 523.922 99.0859 523.453C98.5547 522.979 98.2891 522.38 98.2891 521.656C98.2891 520.776 98.6224 520.094 99.2891 519.609C99.9609 519.12 100.904 518.875 102.117 518.875H103.523V518.211C103.523 517.706 103.372 517.305 103.07 517.008C102.768 516.706 102.323 516.555 101.734 516.555C101.219 516.555 100.786 516.685 100.438 516.945C100.089 517.206 99.9141 517.521 99.9141 517.891H98.4609C98.4609 517.469 98.6094 517.062 98.9062 516.672C99.2083 516.276 99.6146 515.964 100.125 515.734C100.641 515.505 101.206 515.391 101.82 515.391C102.794 515.391 103.557 515.635 104.109 516.125C104.661 516.609 104.948 517.279 104.969 518.133V522.023C104.969 522.799 105.068 523.417 105.266 523.875V524H103.75ZM101.352 522.898C101.805 522.898 102.234 522.781 102.641 522.547C103.047 522.312 103.341 522.008 103.523 521.633V519.898H102.391C100.62 519.898 99.7344 520.417 99.7344 521.453C99.7344 521.906 99.8854 522.26 100.188 522.516C100.49 522.771 100.878 522.898 101.352 522.898ZM108.594 515.547L108.633 516.484C109.253 515.755 110.089 515.391 111.141 515.391C112.323 515.391 113.128 515.844 113.555 516.75C113.836 516.344 114.201 516.016 114.648 515.766C115.102 515.516 115.635 515.391 116.25 515.391C118.104 515.391 119.047 516.372 119.078 518.336V524H117.633V518.422C117.633 517.818 117.495 517.367 117.219 517.07C116.943 516.768 116.479 516.617 115.828 516.617C115.292 516.617 114.846 516.779 114.492 517.102C114.138 517.419 113.932 517.849 113.875 518.391V524H112.422V518.461C112.422 517.232 111.82 516.617 110.617 516.617C109.669 516.617 109.021 517.021 108.672 517.828V524H107.227V515.547H108.594ZM124.773 524.156C123.628 524.156 122.695 523.781 121.977 523.031C121.258 522.276 120.898 521.268 120.898 520.008V519.742C120.898 518.904 121.057 518.156 121.375 517.5C121.698 516.839 122.146 516.323 122.719 515.953C123.297 515.578 123.922 515.391 124.594 515.391C125.693 515.391 126.547 515.753 127.156 516.477C127.766 517.201 128.07 518.237 128.07 519.586V520.188H122.344C122.365 521.021 122.607 521.695 123.07 522.211C123.539 522.721 124.133 522.977 124.852 522.977C125.362 522.977 125.794 522.872 126.148 522.664C126.503 522.456 126.812 522.18 127.078 521.836L127.961 522.523C127.253 523.612 126.19 524.156 124.773 524.156ZM124.594 516.578C124.01 516.578 123.521 516.792 123.125 517.219C122.729 517.641 122.484 518.234 122.391 519H126.625V518.891C126.583 518.156 126.385 517.589 126.031 517.188C125.677 516.781 125.198 516.578 124.594 516.578Z" fill="black" fill-opacity="0.87"/>
</g>
<g opacity="0.4">
<mask id="mask1_6_4" style="mask-type:alpha" maskUnits="userSpaceOnUse" x="361" y="510" width="16" height="16">
<path d="M369 511.9C370.16 511.9 371.1 512.84 371.1 514C371.1 515.16 370.16 516.1 369 516.1C367.84 516.1 366.9 515.16 366.9 514C366.9 512.84 367.84 511.9 369 511.9ZM369 520.9C371.97 520.9 375.1 522.36 375.1 523V524.1H362.9V523C362.9 522.36 366.03 520.9 369 520.9ZM369 510C366.79 510 365 511.79 365 514C365 516.21 366.79 518 369 518C371.21 518 373 516.21 373 514C373 511.79 371.21 510 369 510ZM369 519C366.33 519 361 520.34 361 523V526H377V523C377 520.34 371.67 519 369 519Z" fill="#5F5F5F"/>
</mask>
<g mask="url(#mask1_6_4)">
<rect x="353" y="502" width="32" height="32" fill="#5F5F5F"/>
</g>
</g>
<g opacity="0.4">
<rect x="53" y="662" width="332" height="1" fill="black" fill-opacity="0.87"/>
</g>
<g opacity="0.54">
<path d="M55.8203 647.547V652H54.3203V640.625H58.5156C59.7604 640.625 60.7344 640.943 61.4375 641.578C62.1458 642.214 62.5 643.055 62.5 644.102C62.5 645.206 62.1536 646.057 61.4609 646.656C60.7734 647.25 59.7865 647.547 58.5 647.547H55.8203ZM55.8203 646.32H58.5156C59.3177 646.32 59.9323 646.133 60.3594 645.758C60.7865 645.378 61 644.831 61 644.117C61 643.44 60.7865 642.898 60.3594 642.492C59.9323 642.086 59.3464 641.875 58.6016 641.859H55.8203V646.32ZM69.3125 652C69.2292 651.833 69.1615 651.536 69.1094 651.109C68.4375 651.807 67.6354 652.156 66.7031 652.156C65.8698 652.156 65.1849 651.922 64.6484 651.453C64.1172 650.979 63.8516 650.38 63.8516 649.656C63.8516 648.776 64.1849 648.094 64.8516 647.609C65.5234 647.12 66.4661 646.875 67.6797 646.875H69.0859V646.211C69.0859 645.706 68.9349 645.305 68.6328 645.008C68.3307 644.706 67.8854 644.555 67.2969 644.555C66.7812 644.555 66.349 644.685 66 644.945C65.651 645.206 65.4766 645.521 65.4766 645.891H64.0234C64.0234 645.469 64.1719 645.062 64.4688 644.672C64.7708 644.276 65.1771 643.964 65.6875 643.734C66.2031 643.505 66.7682 643.391 67.3828 643.391C68.3568 643.391 69.1198 643.635 69.6719 644.125C70.224 644.609 70.5104 645.279 70.5312 646.133V650.023C70.5312 650.799 70.6302 651.417 70.8281 651.875V652H69.3125ZM66.9141 650.898C67.3672 650.898 67.7969 650.781 68.2031 650.547C68.6094 650.312 68.9036 650.008 69.0859 649.633V647.898H67.9531C66.1823 647.898 65.2969 648.417 65.2969 649.453C65.2969 649.906 65.4479 650.26 65.75 650.516C66.0521 650.771 66.4401 650.898 66.9141 650.898ZM77.7188 649.758C77.7188 649.367 77.5703 649.065 77.2734 648.852C76.9818 648.633 76.4688 648.445 75.7344 648.289C75.0052 648.133 74.4245 647.945 73.9922 647.727C73.5651 647.508 73.2474 647.247 73.0391 646.945C72.8359 646.643 72.7344 646.284 72.7344 645.867C72.7344 645.174 73.026 644.589 73.6094 644.109C74.1979 643.63 74.9479 643.391 75.8594 643.391C76.8177 643.391 77.5938 643.638 78.1875 644.133C78.7865 644.628 79.0859 645.26 79.0859 646.031H77.6328C77.6328 645.635 77.4635 645.294 77.125 645.008C76.7917 644.721 76.3698 644.578 75.8594 644.578C75.3333 644.578 74.9219 644.693 74.625 644.922C74.3281 645.151 74.1797 645.451 74.1797 645.82C74.1797 646.169 74.3177 646.432 74.5938 646.609C74.8698 646.786 75.3672 646.956 76.0859 647.117C76.8099 647.279 77.3958 647.471 77.8438 647.695C78.2917 647.919 78.6224 648.19 78.8359 648.508C79.0547 648.82 79.1641 649.203 79.1641 649.656C79.1641 650.411 78.862 651.018 78.2578 651.477C77.6536 651.93 76.8698 652.156 75.9062 652.156C75.2292 652.156 74.6302 652.036 74.1094 651.797C73.5885 651.557 73.1797 651.224 72.8828 650.797C72.5911 650.365 72.4453 649.898 72.4453 649.398H73.8906C73.9167 649.883 74.1094 650.268 74.4688 650.555C74.8333 650.836 75.3125 650.977 75.9062 650.977C76.4531 650.977 76.8906 650.867 77.2188 650.648C77.5521 650.424 77.7188 650.128 77.7188 649.758ZM85.9688 649.758C85.9688 649.367 85.8203 649.065 85.5234 648.852C85.2318 648.633 84.7188 648.445 83.9844 648.289C83.2552 648.133 82.6745 647.945 82.2422 647.727C81.8151 647.508 81.4974 647.247 81.2891 646.945C81.0859 646.643 80.9844 646.284 80.9844 645.867C80.9844 645.174 81.276 644.589 81.8594 644.109C82.4479 643.63 83.1979 643.391 84.1094 643.391C85.0677 643.391 85.8438 643.638 86.4375 644.133C87.0365 644.628 87.3359 645.26 87.3359 646.031H85.8828C85.8828 645.635 85.7135 645.294 85.375 645.008C85.0417 644.721 84.6198 644.578 84.1094 644.578C83.5833 644.578 83.1719 644.693 82.875 644.922C82.5781 645.151 82.4297 645.451 82.4297 645.82C82.4297 646.169 82.5677 646.432 82.8438 646.609C83.1198 646.786 83.6172 646.956 84.3359 647.117C85.0599 647.279 85.6458 647.471 86.0938 647.695C86.5417 647.919 86.8724 648.19 87.0859 648.508C87.3047 648.82 87.4141 649.203 87.4141 649.656C87.4141 650.411 87.112 651.018 86.5078 651.477C85.9036 651.93 85.1198 652.156 84.1562 652.156C83.4792 652.156 82.8802 652.036 82.3594 651.797C81.8385 651.557 81.4297 651.224 81.1328 650.797C80.8411 650.365 80.6953 649.898 80.6953 649.398H82.1406C82.1667 649.883 82.3594 650.268 82.7188 650.555C83.0833 650.836 83.5625 650.977 84.1562 650.977C84.7031 650.977 85.1406 650.867 85.4688 650.648C85.8021 650.424 85.9688 650.128 85.9688 649.758ZM96.7812 650.008L98.4062 643.547H99.8516L97.3906 652H96.2188L94.1641 645.594L92.1641 652H90.9922L88.5391 643.547H89.9766L91.6406 649.875L93.6094 643.547H94.7734L96.7812 650.008ZM100.945 647.695C100.945 646.867 101.107 646.122 101.43 645.461C101.758 644.799 102.211 644.289 102.789 643.93C103.372 643.57 104.036 643.391 104.781 643.391C105.932 643.391 106.862 643.789 107.57 644.586C108.284 645.383 108.641 646.443 108.641 647.766V647.867C108.641 648.69 108.482 649.43 108.164 650.086C107.852 650.737 107.401 651.245 106.812 651.609C106.229 651.974 105.557 652.156 104.797 652.156C103.651 652.156 102.721 651.758 102.008 650.961C101.299 650.164 100.945 649.109 100.945 647.797V647.695ZM102.398 647.867C102.398 648.805 102.615 649.557 103.047 650.125C103.484 650.693 104.068 650.977 104.797 650.977C105.531 650.977 106.115 650.69 106.547 650.117C106.979 649.539 107.195 648.732 107.195 647.695C107.195 646.768 106.974 646.018 106.531 645.445C106.094 644.867 105.51 644.578 104.781 644.578C104.068 644.578 103.492 644.862 103.055 645.43C102.617 645.997 102.398 646.81 102.398 647.867ZM114.539 644.844C114.32 644.807 114.083 644.789 113.828 644.789C112.88 644.789 112.237 645.193 111.898 646V652H110.453V643.547H111.859L111.883 644.523C112.357 643.768 113.029 643.391 113.898 643.391C114.18 643.391 114.393 643.427 114.539 643.5V644.844ZM115.367 647.703C115.367 646.406 115.674 645.365 116.289 644.578C116.904 643.786 117.708 643.391 118.703 643.391C119.693 643.391 120.477 643.729 121.055 644.406V640H122.5V652H121.172L121.102 651.094C120.523 651.802 119.719 652.156 118.688 652.156C117.708 652.156 116.909 651.755 116.289 650.953C115.674 650.151 115.367 649.104 115.367 647.812V647.703ZM116.812 647.867C116.812 648.826 117.01 649.576 117.406 650.117C117.802 650.659 118.349 650.93 119.047 650.93C119.964 650.93 120.633 650.518 121.055 649.695V645.812C120.622 645.016 119.958 644.617 119.062 644.617C118.354 644.617 117.802 644.891 117.406 645.438C117.01 645.984 116.812 646.794 116.812 647.867Z" fill="black" fill-opacity="0.87"/>
</g>
<g opacity="0.4">
<mask id="mask2_6_4" style="mask-type:alpha" maskUnits="userSpaceOnUse" x="361" y="636" width="16" height="21">
<path d="M369 652C369.53 652 370.039 651.789 370.414 651.414C370.789 651.039 371 650.53 371 650C371 648.89 370.1 648 369 648C368.47 648 367.961 648.211 367.586 648.586C367.211 648.961 367 649.47 367 650C367 650.53 367.211 651.039 367.586 651.414C367.961 651.789 368.47 652 369 652ZM375 643C375.53 643 376.039 643.211 376.414 643.586C376.789 643.961 377 644.47 377 645V655C377 655.53 376.789 656.039 376.414 656.414C376.039 656.789 375.53 657 375 657H363C362.47 657 361.961 656.789 361.586 656.414C361.211 656.039 361 655.53 361 655V645C361 643.89 361.9 643 363 643H364V641C364 639.674 364.527 638.402 365.464 637.464C366.402 636.527 367.674 636 369 636C369.657 636 370.307 636.129 370.913 636.381C371.52 636.632 372.071 637 372.536 637.464C373 637.929 373.368 638.48 373.619 639.087C373.871 639.693 374 640.343 374 641V643H375ZM369 638C368.204 638 367.441 638.316 366.879 638.879C366.316 639.441 366 640.204 366 641V643H372V641C372 640.204 371.684 639.441 371.121 638.879C370.559 638.316 369.796 638 369 638Z" fill="#5F5F5F"/>
</mask>
<g mask="url(#mask2_6_4)">
<rect x="353" y="630" width="32" height="32" fill="#5F5F5F"/>
</g>
</g>
<g opacity="0.4">
<rect x="53" y="726" width="332" height="1" fill="black" fill-opacity="0.87"/>
</g>
<g opacity="0.54">
<path d="M62.6875 712.391C62.5469 713.594 62.1016 714.523 61.3516 715.18C60.6068 715.831 59.6146 716.156 58.375 716.156C57.0312 716.156 55.9531 715.674 55.1406 714.711C54.3333 713.747 53.9297 712.458 53.9297 710.844V709.75C53.9297 708.693 54.1172 707.763 54.4922 706.961C54.8724 706.159 55.4089 705.544 56.1016 705.117C56.7943 704.685 57.5964 704.469 58.5078 704.469C59.7161 704.469 60.6849 704.807 61.4141 705.484C62.1432 706.156 62.5677 707.089 62.6875 708.281H61.1797C61.0495 707.375 60.7656 706.719 60.3281 706.312C59.8958 705.906 59.2891 705.703 58.5078 705.703C57.5495 705.703 56.7969 706.057 56.25 706.766C55.7083 707.474 55.4375 708.482 55.4375 709.789V710.891C55.4375 712.125 55.6953 713.107 56.2109 713.836C56.7266 714.565 57.4479 714.93 58.375 714.93C59.2083 714.93 59.8464 714.742 60.2891 714.367C60.737 713.987 61.0339 713.328 61.1797 712.391H62.6875ZM64.1328 711.695C64.1328 710.867 64.2943 710.122 64.6172 709.461C64.9453 708.799 65.3984 708.289 65.9766 707.93C66.5599 707.57 67.224 707.391 67.9688 707.391C69.1198 707.391 70.0495 707.789 70.7578 708.586C71.4714 709.383 71.8281 710.443 71.8281 711.766V711.867C71.8281 712.69 71.6693 713.43 71.3516 714.086C71.0391 714.737 70.5885 715.245 70 715.609C69.4167 715.974 68.7448 716.156 67.9844 716.156C66.8385 716.156 65.9089 715.758 65.1953 714.961C64.487 714.164 64.1328 713.109 64.1328 711.797V711.695ZM65.5859 711.867C65.5859 712.805 65.8021 713.557 66.2344 714.125C66.6719 714.693 67.2552 714.977 67.9844 714.977C68.7188 714.977 69.3021 714.69 69.7344 714.117C70.1667 713.539 70.3828 712.732 70.3828 711.695C70.3828 710.768 70.1615 710.018 69.7188 709.445C69.2812 708.867 68.6979 708.578 67.9688 708.578C67.2552 708.578 66.6797 708.862 66.2422 709.43C65.8047 709.997 65.5859 710.81 65.5859 711.867ZM75.0078 707.547L75.0547 708.609C75.7005 707.797 76.5443 707.391 77.5859 707.391C79.3724 707.391 80.2734 708.398 80.2891 710.414V716H78.8438V710.406C78.8385 709.797 78.6979 709.346 78.4219 709.055C78.151 708.763 77.7266 708.617 77.1484 708.617C76.6797 708.617 76.2682 708.742 75.9141 708.992C75.5599 709.242 75.2839 709.57 75.0859 709.977V716H73.6406V707.547H75.0078ZM82.9531 716V708.664H81.6172V707.547H82.9531V706.828C82.9531 705.885 83.2214 705.151 83.7578 704.625C84.2995 704.099 85.0625 703.836 86.0469 703.836C86.6302 703.836 87.3672 703.995 88.2578 704.312L88.0156 705.531C87.3646 705.271 86.7448 705.141 86.1562 705.141C85.5365 705.141 85.0885 705.281 84.8125 705.562C84.5417 705.839 84.4062 706.255 84.4062 706.812V707.547H86.1328V708.664H84.4062V716H82.9531ZM88.9766 716H87.5234V707.547H88.9766V716ZM95.4141 708.844C95.1953 708.807 94.9583 708.789 94.7031 708.789C93.7552 708.789 93.112 709.193 92.7734 710V716H91.3281V707.547H92.7344L92.7578 708.523C93.2318 707.768 93.9036 707.391 94.7734 707.391C95.0547 707.391 95.2682 707.427 95.4141 707.5V708.844ZM98.1094 707.547L98.1484 708.484C98.7682 707.755 99.6042 707.391 100.656 707.391C101.839 707.391 102.643 707.844 103.07 708.75C103.352 708.344 103.716 708.016 104.164 707.766C104.617 707.516 105.151 707.391 105.766 707.391C107.62 707.391 108.562 708.372 108.594 710.336V716H107.148V710.422C107.148 709.818 107.01 709.367 106.734 709.07C106.458 708.768 105.995 708.617 105.344 708.617C104.807 708.617 104.362 708.779 104.008 709.102C103.654 709.419 103.448 709.849 103.391 710.391V716H101.938V710.461C101.938 709.232 101.336 708.617 100.133 708.617C99.1849 708.617 98.5365 709.021 98.1875 709.828V716H96.7422V707.547H98.1094ZM121.891 711.867C121.891 713.154 121.596 714.19 121.008 714.977C120.419 715.763 119.622 716.156 118.617 716.156C117.591 716.156 116.784 715.831 116.195 715.18V719.25H114.75V707.547H116.07L116.141 708.484C116.729 707.755 117.547 707.391 118.594 707.391C119.609 707.391 120.411 707.773 121 708.539C121.594 709.305 121.891 710.37 121.891 711.734V711.867ZM120.445 711.703C120.445 710.75 120.242 709.997 119.836 709.445C119.43 708.893 118.872 708.617 118.164 708.617C117.289 708.617 116.633 709.005 116.195 709.781V713.82C116.628 714.591 117.289 714.977 118.18 714.977C118.872 714.977 119.422 714.703 119.828 714.156C120.24 713.604 120.445 712.786 120.445 711.703ZM128.953 716C128.87 715.833 128.802 715.536 128.75 715.109C128.078 715.807 127.276 716.156 126.344 716.156C125.51 716.156 124.826 715.922 124.289 715.453C123.758 714.979 123.492 714.38 123.492 713.656C123.492 712.776 123.826 712.094 124.492 711.609C125.164 711.12 126.107 710.875 127.32 710.875H128.727V710.211C128.727 709.706 128.576 709.305 128.273 709.008C127.971 708.706 127.526 708.555 126.938 708.555C126.422 708.555 125.99 708.685 125.641 708.945C125.292 709.206 125.117 709.521 125.117 709.891H123.664C123.664 709.469 123.812 709.062 124.109 708.672C124.411 708.276 124.818 707.964 125.328 707.734C125.844 707.505 126.409 707.391 127.023 707.391C127.997 707.391 128.76 707.635 129.312 708.125C129.865 708.609 130.151 709.279 130.172 710.133V714.023C130.172 714.799 130.271 715.417 130.469 715.875V716H128.953ZM126.555 714.898C127.008 714.898 127.438 714.781 127.844 714.547C128.25 714.312 128.544 714.008 128.727 713.633V711.898H127.594C125.823 711.898 124.938 712.417 124.938 713.453C124.938 713.906 125.089 714.26 125.391 714.516C125.693 714.771 126.081 714.898 126.555 714.898ZM137.359 713.758C137.359 713.367 137.211 713.065 136.914 712.852C136.622 712.633 136.109 712.445 135.375 712.289C134.646 712.133 134.065 711.945 133.633 711.727C133.206 711.508 132.888 711.247 132.68 710.945C132.477 710.643 132.375 710.284 132.375 709.867C132.375 709.174 132.667 708.589 133.25 708.109C133.839 707.63 134.589 707.391 135.5 707.391C136.458 707.391 137.234 707.638 137.828 708.133C138.427 708.628 138.727 709.26 138.727 710.031H137.273C137.273 709.635 137.104 709.294 136.766 709.008C136.432 708.721 136.01 708.578 135.5 708.578C134.974 708.578 134.562 708.693 134.266 708.922C133.969 709.151 133.82 709.451 133.82 709.82C133.82 710.169 133.958 710.432 134.234 710.609C134.51 710.786 135.008 710.956 135.727 711.117C136.451 711.279 137.036 711.471 137.484 711.695C137.932 711.919 138.263 712.19 138.477 712.508C138.695 712.82 138.805 713.203 138.805 713.656C138.805 714.411 138.503 715.018 137.898 715.477C137.294 715.93 136.51 716.156 135.547 716.156C134.87 716.156 134.271 716.036 133.75 715.797C133.229 715.557 132.82 715.224 132.523 714.797C132.232 714.365 132.086 713.898 132.086 713.398H133.531C133.557 713.883 133.75 714.268 134.109 714.555C134.474 714.836 134.953 714.977 135.547 714.977C136.094 714.977 136.531 714.867 136.859 714.648C137.193 714.424 137.359 714.128 137.359 713.758ZM145.609 713.758C145.609 713.367 145.461 713.065 145.164 712.852C144.872 712.633 144.359 712.445 143.625 712.289C142.896 712.133 142.315 711.945 141.883 711.727C141.456 711.508 141.138 711.247 140.93 710.945C140.727 710.643 140.625 710.284 140.625 709.867C140.625 709.174 140.917 708.589 141.5 708.109C142.089 707.63 142.839 707.391 143.75 707.391C144.708 707.391 145.484 707.638 146.078 708.133C146.677 708.628 146.977 709.26 146.977 710.031H145.523C145.523 709.635 145.354 709.294 145.016 709.008C144.682 708.721 144.26 708.578 143.75 708.578C143.224 708.578 142.812 708.693 142.516 708.922C142.219 709.151 142.07 709.451 142.07 709.82C142.07 710.169 142.208 710.432 142.484 710.609C142.76 710.786 143.258 710.956 143.977 711.117C144.701 711.279 145.286 711.471 145.734 711.695C146.182 711.919 146.513 712.19 146.727 712.508C146.945 712.82 147.055 713.203 147.055 713.656C147.055 714.411 146.753 715.018 146.148 715.477C145.544 715.93 144.76 716.156 143.797 716.156C143.12 716.156 142.521 716.036 142 715.797C141.479 715.557 141.07 715.224 140.773 714.797C140.482 714.365 140.336 713.898 140.336 713.398H141.781C141.807 713.883 142 714.268 142.359 714.555C142.724 714.836 143.203 714.977 143.797 714.977C144.344 714.977 144.781 714.867 145.109 714.648C145.443 714.424 145.609 714.128 145.609 713.758ZM156.422 714.008L158.047 707.547H159.492L157.031 716H155.859L153.805 709.594L151.805 716H150.633L148.18 707.547H149.617L151.281 713.875L153.25 707.547H154.414L156.422 714.008ZM160.586 711.695C160.586 710.867 160.747 710.122 161.07 709.461C161.398 708.799 161.852 708.289 162.43 707.93C163.013 707.57 163.677 707.391 164.422 707.391C165.573 707.391 166.503 707.789 167.211 708.586C167.924 709.383 168.281 710.443 168.281 711.766V711.867C168.281 712.69 168.122 713.43 167.805 714.086C167.492 714.737 167.042 715.245 166.453 715.609C165.87 715.974 165.198 716.156 164.438 716.156C163.292 716.156 162.362 715.758 161.648 714.961C160.94 714.164 160.586 713.109 160.586 711.797V711.695ZM162.039 711.867C162.039 712.805 162.255 713.557 162.688 714.125C163.125 714.693 163.708 714.977 164.438 714.977C165.172 714.977 165.755 714.69 166.188 714.117C166.62 713.539 166.836 712.732 166.836 711.695C166.836 710.768 166.615 710.018 166.172 709.445C165.734 708.867 165.151 708.578 164.422 708.578C163.708 708.578 163.133 708.862 162.695 709.43C162.258 709.997 162.039 710.81 162.039 711.867ZM174.18 708.844C173.961 708.807 173.724 708.789 173.469 708.789C172.521 708.789 171.878 709.193 171.539 710V716H170.094V707.547H171.5L171.523 708.523C171.997 707.768 172.669 707.391 173.539 707.391C173.82 707.391 174.034 707.427 174.18 707.5V708.844ZM175.008 711.703C175.008 710.406 175.315 709.365 175.93 708.578C176.544 707.786 177.349 707.391 178.344 707.391C179.333 707.391 180.117 707.729 180.695 708.406V704H182.141V716H180.812L180.742 715.094C180.164 715.802 179.359 716.156 178.328 716.156C177.349 716.156 176.549 715.755 175.93 714.953C175.315 714.151 175.008 713.104 175.008 711.812V711.703ZM176.453 711.867C176.453 712.826 176.651 713.576 177.047 714.117C177.443 714.659 177.99 714.93 178.688 714.93C179.604 714.93 180.273 714.518 180.695 713.695V709.812C180.263 709.016 179.599 708.617 178.703 708.617C177.995 708.617 177.443 708.891 177.047 709.438C176.651 709.984 176.453 710.794 176.453 711.867Z" fill="black" fill-opacity="0.87"/>
</g>
<g opacity="0.4">
<mask id="mask3_6_4" style="mask-type:alpha" maskUnits="userSpaceOnUse" x="361" y="700" width="16" height="21">
<path d="M375 707C375.53 707 376.039 707.211 376.414 707.586C376.789 707.961 377 708.47 377 709V719C377 719.53 376.789 720.039 376.414 720.414C376.039 720.789 375.53 721 375 721H363C361.89 721 361 720.1 361 719V709C361 708.47 361.211 707.961 361.586 707.586C361.961 707.211 362.47 707 363 707H372V705C372 704.204 371.684 703.441 371.121 702.879C370.559 702.316 369.796 702 369 702C368.204 702 367.441 702.316 366.879 702.879C366.316 703.441 366 704.204 366 705H364C364 703.674 364.527 702.402 365.464 701.464C366.402 700.527 367.674 700 369 700C369.657 700 370.307 700.129 370.913 700.381C371.52 700.632 372.071 701 372.536 701.464C373 701.929 373.368 702.48 373.619 703.087C373.871 703.693 374 704.343 374 705V707H375ZM369 716C369.53 716 370.039 715.789 370.414 715.414C370.789 715.039 371 714.53 371 714C371 713.47 370.789 712.961 370.414 712.586C370.039 712.211 369.53 712 369 712C368.47 712 367.961 712.211 367.586 712.586C367.211 712.961 367 713.47 367 714C367 714.53 367.211 715.039 367.586 715.414C367.961 715.789 368.47 716 369 716Z" fill="#5F5F5F"/>
</mask>
<g mask="url(#mask3_6_4)">
<rect x="353" y="694" width="32" height="32" fill="#5F5F5F"/>
</g>
</g>
<g opacity="0.4">
<rect x="53" y="598" width="332" height="1" fill="black" fill-opacity="0.87"/>
</g>
<g opacity="0.54">
<path d="M55.8281 586.773H61.2188V588H54.3203V576.625H55.8281V586.773ZM67.9219 588C67.8385 587.833 67.7708 587.536 67.7188 587.109C67.0469 587.807 66.2448 588.156 65.3125 588.156C64.4792 588.156 63.7943 587.922 63.2578 587.453C62.7266 586.979 62.4609 586.38 62.4609 585.656C62.4609 584.776 62.7943 584.094 63.4609 583.609C64.1328 583.12 65.0755 582.875 66.2891 582.875H67.6953V582.211C67.6953 581.706 67.5443 581.305 67.2422 581.008C66.9401 580.706 66.4948 580.555 65.9062 580.555C65.3906 580.555 64.9583 580.685 64.6094 580.945C64.2604 581.206 64.0859 581.521 64.0859 581.891H62.6328C62.6328 581.469 62.7812 581.062 63.0781 580.672C63.3802 580.276 63.7865 579.964 64.2969 579.734C64.8125 579.505 65.3776 579.391 65.9922 579.391C66.9661 579.391 67.7292 579.635 68.2812 580.125C68.8333 580.609 69.1198 581.279 69.1406 582.133V586.023C69.1406 586.799 69.2396 587.417 69.4375 587.875V588H67.9219ZM65.5234 586.898C65.9766 586.898 66.4062 586.781 66.8125 586.547C67.2188 586.312 67.513 586.008 67.6953 585.633V583.898H66.5625C64.7917 583.898 63.9062 584.417 63.9062 585.453C63.9062 585.906 64.0573 586.26 64.3594 586.516C64.6615 586.771 65.0495 586.898 65.5234 586.898ZM76.3281 585.758C76.3281 585.367 76.1797 585.065 75.8828 584.852C75.5911 584.633 75.0781 584.445 74.3438 584.289C73.6146 584.133 73.0339 583.945 72.6016 583.727C72.1745 583.508 71.8568 583.247 71.6484 582.945C71.4453 582.643 71.3438 582.284 71.3438 581.867C71.3438 581.174 71.6354 580.589 72.2188 580.109C72.8073 579.63 73.5573 579.391 74.4688 579.391C75.4271 579.391 76.2031 579.638 76.7969 580.133C77.3958 580.628 77.6953 581.26 77.6953 582.031H76.2422C76.2422 581.635 76.0729 581.294 75.7344 581.008C75.401 580.721 74.9792 580.578 74.4688 580.578C73.9427 580.578 73.5312 580.693 73.2344 580.922C72.9375 581.151 72.7891 581.451 72.7891 581.82C72.7891 582.169 72.9271 582.432 73.2031 582.609C73.4792 582.786 73.9766 582.956 74.6953 583.117C75.4193 583.279 76.0052 583.471 76.4531 583.695C76.901 583.919 77.2318 584.19 77.4453 584.508C77.6641 584.82 77.7734 585.203 77.7734 585.656C77.7734 586.411 77.4714 587.018 76.8672 587.477C76.263 587.93 75.4792 588.156 74.5156 588.156C73.8385 588.156 73.2396 588.036 72.7188 587.797C72.1979 587.557 71.7891 587.224 71.4922 586.797C71.2005 586.365 71.0547 585.898 71.0547 585.398H72.5C72.526 585.883 72.7188 586.268 73.0781 586.555C73.4427 586.836 73.9219 586.977 74.5156 586.977C75.0625 586.977 75.5 586.867 75.8281 586.648C76.1615 586.424 76.3281 586.128 76.3281 585.758ZM81.6172 577.5V579.547H83.1953V580.664H81.6172V585.906C81.6172 586.245 81.6875 586.5 81.8281 586.672C81.9688 586.839 82.2083 586.922 82.5469 586.922C82.7135 586.922 82.9427 586.891 83.2344 586.828V588C82.8542 588.104 82.4844 588.156 82.125 588.156C81.4792 588.156 80.9922 587.961 80.6641 587.57C80.3359 587.18 80.1719 586.625 80.1719 585.906V580.664H78.6328V579.547H80.1719V577.5H81.6172ZM90.2266 579.547L90.2734 580.609C90.9193 579.797 91.763 579.391 92.8047 579.391C94.5911 579.391 95.4922 580.398 95.5078 582.414V588H94.0625V582.406C94.0573 581.797 93.9167 581.346 93.6406 581.055C93.3698 580.763 92.9453 580.617 92.3672 580.617C91.8984 580.617 91.487 580.742 91.1328 580.992C90.7786 581.242 90.5026 581.57 90.3047 581.977V588H88.8594V579.547H90.2266ZM102.906 588C102.823 587.833 102.755 587.536 102.703 587.109C102.031 587.807 101.229 588.156 100.297 588.156C99.4635 588.156 98.7786 587.922 98.2422 587.453C97.7109 586.979 97.4453 586.38 97.4453 585.656C97.4453 584.776 97.7786 584.094 98.4453 583.609C99.1172 583.12 100.06 582.875 101.273 582.875H102.68V582.211C102.68 581.706 102.529 581.305 102.227 581.008C101.924 580.706 101.479 580.555 100.891 580.555C100.375 580.555 99.9427 580.685 99.5938 580.945C99.2448 581.206 99.0703 581.521 99.0703 581.891H97.6172C97.6172 581.469 97.7656 581.062 98.0625 580.672C98.3646 580.276 98.7708 579.964 99.2812 579.734C99.7969 579.505 100.362 579.391 100.977 579.391C101.951 579.391 102.714 579.635 103.266 580.125C103.818 580.609 104.104 581.279 104.125 582.133V586.023C104.125 586.799 104.224 587.417 104.422 587.875V588H102.906ZM100.508 586.898C100.961 586.898 101.391 586.781 101.797 586.547C102.203 586.312 102.497 586.008 102.68 585.633V583.898H101.547C99.776 583.898 98.8906 584.417 98.8906 585.453C98.8906 585.906 99.0417 586.26 99.3438 586.516C99.6458 586.771 100.034 586.898 100.508 586.898ZM107.75 579.547L107.789 580.484C108.409 579.755 109.245 579.391 110.297 579.391C111.479 579.391 112.284 579.844 112.711 580.75C112.992 580.344 113.357 580.016 113.805 579.766C114.258 579.516 114.792 579.391 115.406 579.391C117.26 579.391 118.203 580.372 118.234 582.336V588H116.789V582.422C116.789 581.818 116.651 581.367 116.375 581.07C116.099 580.768 115.635 580.617 114.984 580.617C114.448 580.617 114.003 580.779 113.648 581.102C113.294 581.419 113.089 581.849 113.031 582.391V588H111.578V582.461C111.578 581.232 110.977 580.617 109.773 580.617C108.826 580.617 108.177 581.021 107.828 581.828V588H106.383V579.547H107.75ZM123.93 588.156C122.784 588.156 121.852 587.781 121.133 587.031C120.414 586.276 120.055 585.268 120.055 584.008V583.742C120.055 582.904 120.214 582.156 120.531 581.5C120.854 580.839 121.302 580.323 121.875 579.953C122.453 579.578 123.078 579.391 123.75 579.391C124.849 579.391 125.703 579.753 126.312 580.477C126.922 581.201 127.227 582.237 127.227 583.586V584.188H121.5C121.521 585.021 121.763 585.695 122.227 586.211C122.695 586.721 123.289 586.977 124.008 586.977C124.518 586.977 124.951 586.872 125.305 586.664C125.659 586.456 125.969 586.18 126.234 585.836L127.117 586.523C126.409 587.612 125.346 588.156 123.93 588.156ZM123.75 580.578C123.167 580.578 122.677 580.792 122.281 581.219C121.885 581.641 121.641 582.234 121.547 583H125.781V582.891C125.74 582.156 125.542 581.589 125.188 581.188C124.833 580.781 124.354 580.578 123.75 580.578Z" fill="black" fill-opacity="0.87"/>
</g>
<g opacity="0.4">
<mask id="mask4_6_4" style="mask-type:alpha" maskUnits="userSpaceOnUse" x="361" y="574" width="16" height="16">
<path d="M369 574C370.061 574 371.078 574.421 371.828 575.172C372.579 575.922 373 576.939 373 578C373 579.061 372.579 580.078 371.828 580.828C371.078 581.579 370.061 582 369 582C367.939 582 366.922 581.579 366.172 580.828C365.421 580.078 365 579.061 365 578C365 576.939 365.421 575.922 366.172 575.172C366.922 574.421 367.939 574 369 574ZM369 584C373.42 584 377 585.79 377 588V590H361V588C361 585.79 364.58 584 369 584Z" fill="#5F5F5F"/>
</mask>
<g mask="url(#mask4_6_4)">
<rect x="353" y="566" width="32" height="32" fill="#5F5F5F"/>
</g>
</g>
</g>
<path d="M85.2949 83.3711C85.1517 84.888 84.5918 86.0729 83.6152 86.9258C82.6387 87.7721 81.3398 88.1953 79.7188 88.1953C78.5859 88.1953 77.5866 87.9284 76.7207 87.3945C75.8613 86.8542 75.1973 86.0892 74.7285 85.0996C74.2598 84.11 74.0156 82.9609 73.9961 81.6523V80.3242C73.9961 78.9831 74.2337 77.8014 74.709 76.7793C75.1842 75.7572 75.8646 74.9694 76.75 74.416C77.6419 73.8626 78.6706 73.5859 79.8359 73.5859C81.4049 73.5859 82.668 74.0124 83.625 74.8652C84.582 75.7181 85.1387 76.9225 85.2949 78.4785H82.834C82.7168 77.4564 82.4173 76.7207 81.9355 76.2715C81.4603 75.8158 80.7604 75.5879 79.8359 75.5879C78.7617 75.5879 77.9349 75.9818 77.3555 76.7695C76.7826 77.5508 76.4896 78.6999 76.4766 80.2168V81.4766C76.4766 83.013 76.75 84.1849 77.2969 84.9922C77.8503 85.7995 78.6576 86.2031 79.7188 86.2031C80.6888 86.2031 81.418 85.985 81.9062 85.5488C82.3945 85.1126 82.7038 84.3867 82.834 83.3711H85.2949ZM92.8145 79.6016C92.502 79.5495 92.1797 79.5234 91.8477 79.5234C90.7604 79.5234 90.028 79.9401 89.6504 80.7734V88H87.2773V77.4336H89.543L89.6016 78.6152C90.1745 77.6973 90.9688 77.2383 91.9844 77.2383C92.3229 77.2383 92.6029 77.2839 92.8242 77.375L92.8145 79.6016ZM98.7715 88.1953C97.2676 88.1953 96.0469 87.7233 95.1094 86.7793C94.1784 85.8288 93.7129 84.5658 93.7129 82.9902V82.6973C93.7129 81.6426 93.9147 80.7018 94.3184 79.875C94.7285 79.0417 95.3014 78.3939 96.0371 77.9316C96.7728 77.4694 97.5931 77.2383 98.498 77.2383C99.9368 77.2383 101.047 77.6973 101.828 78.6152C102.616 79.5332 103.01 80.832 103.01 82.5117V83.4688H96.1055C96.1771 84.3411 96.4668 85.0312 96.9746 85.5391C97.4889 86.0469 98.1335 86.3008 98.9082 86.3008C99.9954 86.3008 100.881 85.8613 101.564 84.9824L102.844 86.2031C102.421 86.8346 101.854 87.3262 101.145 87.6777C100.441 88.0228 99.6504 88.1953 98.7715 88.1953ZM98.4883 79.1426C97.8372 79.1426 97.3099 79.3704 96.9062 79.8262C96.5091 80.2819 96.2552 80.9167 96.1445 81.7305H100.666V81.5547C100.614 80.7604 100.402 80.1615 100.031 79.7578C99.6602 79.3477 99.1458 79.1426 98.4883 79.1426ZM111.174 88C111.07 87.7982 110.979 87.4694 110.9 87.0137C110.145 87.8014 109.221 88.1953 108.127 88.1953C107.066 88.1953 106.2 87.8926 105.529 87.2871C104.859 86.6816 104.523 85.9329 104.523 85.041C104.523 83.9147 104.94 83.0521 105.773 82.4531C106.613 81.8477 107.811 81.5449 109.367 81.5449H110.822V80.8516C110.822 80.3047 110.669 79.8685 110.363 79.543C110.057 79.2109 109.592 79.0449 108.967 79.0449C108.426 79.0449 107.984 79.1816 107.639 79.4551C107.294 79.722 107.121 80.0638 107.121 80.4805H104.748C104.748 79.901 104.94 79.3607 105.324 78.8594C105.708 78.3516 106.229 77.9544 106.887 77.668C107.551 77.3815 108.29 77.2383 109.104 77.2383C110.34 77.2383 111.327 77.5508 112.062 78.1758C112.798 78.7943 113.176 79.6667 113.195 80.793V85.5586C113.195 86.5091 113.329 87.2676 113.596 87.834V88H111.174ZM108.566 86.291C109.035 86.291 109.475 86.1771 109.885 85.9492C110.301 85.7214 110.614 85.4154 110.822 85.0312V83.0391H109.543C108.664 83.0391 108.003 83.1921 107.561 83.498C107.118 83.804 106.896 84.237 106.896 84.7969C106.896 85.2526 107.046 85.6172 107.346 85.8906C107.652 86.1576 108.059 86.291 108.566 86.291ZM118.654 74.8652V77.4336H120.52V79.1914H118.654V85.0898C118.654 85.4935 118.732 85.7865 118.889 85.9688C119.051 86.1445 119.338 86.2324 119.748 86.2324C120.021 86.2324 120.298 86.1999 120.578 86.1348V87.9707C120.038 88.1204 119.517 88.1953 119.016 88.1953C117.193 88.1953 116.281 87.1895 116.281 85.1777V79.1914H114.543V77.4336H116.281V74.8652H118.654ZM126.994 88.1953C125.49 88.1953 124.27 87.7233 123.332 86.7793C122.401 85.8288 121.936 84.5658 121.936 82.9902V82.6973C121.936 81.6426 122.137 80.7018 122.541 79.875C122.951 79.0417 123.524 78.3939 124.26 77.9316C124.995 77.4694 125.816 77.2383 126.721 77.2383C128.16 77.2383 129.27 77.6973 130.051 78.6152C130.839 79.5332 131.232 80.832 131.232 82.5117V83.4688H124.328C124.4 84.3411 124.689 85.0312 125.197 85.5391C125.712 86.0469 126.356 86.3008 127.131 86.3008C128.218 86.3008 129.104 85.8613 129.787 84.9824L131.066 86.2031C130.643 86.8346 130.077 87.3262 129.367 87.6777C128.664 88.0228 127.873 88.1953 126.994 88.1953ZM126.711 79.1426C126.06 79.1426 125.533 79.3704 125.129 79.8262C124.732 80.2819 124.478 80.9167 124.367 81.7305H128.889V81.5547C128.837 80.7604 128.625 80.1615 128.254 79.7578C127.883 79.3477 127.368 79.1426 126.711 79.1426ZM144.377 88C144.273 87.7982 144.182 87.4694 144.104 87.0137C143.348 87.8014 142.424 88.1953 141.33 88.1953C140.269 88.1953 139.403 87.8926 138.732 87.2871C138.062 86.6816 137.727 85.9329 137.727 85.041C137.727 83.9147 138.143 83.0521 138.977 82.4531C139.816 81.8477 141.014 81.5449 142.57 81.5449H144.025V80.8516C144.025 80.3047 143.872 79.8685 143.566 79.543C143.26 79.2109 142.795 79.0449 142.17 79.0449C141.63 79.0449 141.187 79.1816 140.842 79.4551C140.497 79.722 140.324 80.0638 140.324 80.4805H137.951C137.951 79.901 138.143 79.3607 138.527 78.8594C138.911 78.3516 139.432 77.9544 140.09 77.668C140.754 77.3815 141.493 77.2383 142.307 77.2383C143.544 77.2383 144.53 77.5508 145.266 78.1758C146.001 78.7943 146.379 79.6667 146.398 80.793V85.5586C146.398 86.5091 146.532 87.2676 146.799 87.834V88H144.377ZM141.77 86.291C142.238 86.291 142.678 86.1771 143.088 85.9492C143.505 85.7214 143.817 85.4154 144.025 85.0312V83.0391H142.746C141.867 83.0391 141.206 83.1921 140.764 83.498C140.321 83.804 140.1 84.237 140.1 84.7969C140.1 85.2526 140.249 85.6172 140.549 85.8906C140.855 86.1576 141.262 86.291 141.77 86.291ZM153.225 86.3008C153.817 86.3008 154.309 86.1283 154.699 85.7832C155.09 85.4382 155.298 85.0117 155.324 84.5039H157.561C157.535 85.1615 157.329 85.7767 156.945 86.3496C156.561 86.916 156.04 87.3652 155.383 87.6973C154.725 88.0293 154.016 88.1953 153.254 88.1953C151.776 88.1953 150.604 87.7168 149.738 86.7598C148.872 85.8027 148.439 84.4811 148.439 82.7949V82.5508C148.439 80.9427 148.869 79.6569 149.729 78.6934C150.588 77.7233 151.76 77.2383 153.244 77.2383C154.501 77.2383 155.523 77.6061 156.311 78.3418C157.105 79.071 157.521 80.0312 157.561 81.2227H155.324C155.298 80.6172 155.09 80.1191 154.699 79.7285C154.315 79.3379 153.824 79.1426 153.225 79.1426C152.456 79.1426 151.864 79.4225 151.447 79.9824C151.031 80.5358 150.819 81.3789 150.812 82.5117V82.8926C150.812 84.0384 151.018 84.8945 151.428 85.4609C151.844 86.0208 152.443 86.3008 153.225 86.3008ZM163.693 86.3008C164.286 86.3008 164.777 86.1283 165.168 85.7832C165.559 85.4382 165.767 85.0117 165.793 84.5039H168.029C168.003 85.1615 167.798 85.7767 167.414 86.3496C167.03 86.916 166.509 87.3652 165.852 87.6973C165.194 88.0293 164.484 88.1953 163.723 88.1953C162.245 88.1953 161.073 87.7168 160.207 86.7598C159.341 85.8027 158.908 84.4811 158.908 82.7949V82.5508C158.908 80.9427 159.338 79.6569 160.197 78.6934C161.057 77.7233 162.229 77.2383 163.713 77.2383C164.969 77.2383 165.992 77.6061 166.779 78.3418C167.574 79.071 167.99 80.0312 168.029 81.2227H165.793C165.767 80.6172 165.559 80.1191 165.168 79.7285C164.784 79.3379 164.292 79.1426 163.693 79.1426C162.925 79.1426 162.333 79.4225 161.916 79.9824C161.499 80.5358 161.288 81.3789 161.281 82.5117V82.8926C161.281 84.0384 161.486 84.8945 161.896 85.4609C162.313 86.0208 162.912 86.3008 163.693 86.3008ZM169.377 82.6191C169.377 81.584 169.582 80.653 169.992 79.8262C170.402 78.9928 170.979 78.3548 171.721 77.9121C172.463 77.4629 173.316 77.2383 174.279 77.2383C175.705 77.2383 176.861 77.6973 177.746 78.6152C178.638 79.5332 179.12 80.7507 179.191 82.2676L179.201 82.8242C179.201 83.8659 178.999 84.7969 178.596 85.6172C178.199 86.4375 177.626 87.0723 176.877 87.5215C176.135 87.9707 175.275 88.1953 174.299 88.1953C172.808 88.1953 171.613 87.7005 170.715 86.7109C169.823 85.7148 169.377 84.39 169.377 82.7363V82.6191ZM171.75 82.8242C171.75 83.9115 171.975 84.7643 172.424 85.3828C172.873 85.9948 173.498 86.3008 174.299 86.3008C175.1 86.3008 175.721 85.9883 176.164 85.3633C176.613 84.7383 176.838 83.8236 176.838 82.6191C176.838 81.5514 176.607 80.7051 176.145 80.0801C175.689 79.4551 175.067 79.1426 174.279 79.1426C173.505 79.1426 172.889 79.4518 172.434 80.0703C171.978 80.6823 171.75 81.6003 171.75 82.8242ZM187.609 86.9648C186.913 87.7852 185.923 88.1953 184.641 88.1953C183.495 88.1953 182.626 87.86 182.033 87.1895C181.447 86.5189 181.154 85.5488 181.154 84.2793V77.4336H183.527V84.25C183.527 85.5911 184.084 86.2617 185.197 86.2617C186.35 86.2617 187.128 85.8483 187.531 85.0215V77.4336H189.904V88H187.668L187.609 86.9648ZM194.523 77.4336L194.592 78.6543C195.373 77.7103 196.398 77.2383 197.668 77.2383C199.868 77.2383 200.988 78.498 201.027 81.0176V88H198.654V81.1543C198.654 80.4837 198.508 79.9889 198.215 79.6699C197.928 79.3444 197.456 79.1816 196.799 79.1816C195.842 79.1816 195.129 79.6146 194.66 80.4805V88H192.287V77.4336H194.523ZM206.428 74.8652V77.4336H208.293V79.1914H206.428V85.0898C206.428 85.4935 206.506 85.7865 206.662 85.9688C206.825 86.1445 207.111 86.2324 207.521 86.2324C207.795 86.2324 208.072 86.1999 208.352 86.1348V87.9707C207.811 88.1204 207.29 88.1953 206.789 88.1953C204.966 88.1953 204.055 87.1895 204.055 85.1777V79.1914H202.316V77.4336H204.055V74.8652H206.428Z" fill="black" fill-opacity="0.87"/>
<mask id="mask5_6_4" style="mask-type:alpha" maskUnits="userSpaceOnUse" x="21" y="73" width="16" height="16">
<path d="M36.84 79.92V81.92H24.84L30.34 87.42L28.92 88.84L21 80.92L28.92 73L30.34 74.42L24.84 79.92H36.84Z" fill="#5F5F5F"/>
</mask>
<g mask="url(#mask5_6_4)">
<rect x="9" y="61" width="40" height="40" fill="#5F5F5F"/>
</g>
</g>
<defs>
<filter id="filter0_d_6_4" x="151.707" y="109" width="144.313" height="247.037" filterUnits="userSpaceOnUse" color-interpolation-filters="sRGB">
<feFlood flood-opacity="0" result="BackgroundImageFix"/>
<feColorMatrix in="SourceAlpha" type="matrix" values="0 0 0 0 0 0 0 0 0 0 0 0 0 0 0 0 0 0 127 0" result="hardAlpha"/>
<feOffset dx="10" dy="10"/>
<feGaussianBlur stdDeviation="10"/>
<feColorMatrix type="matrix" values="0 0 0 0 0 0 0 0 0 0 0 0 0 0 0 0 0 0 0.25 0"/>
<feBlend mode="normal" in2="BackgroundImageFix" result="effect1_dropShadow_6_4"/>
<feBlend mode="normal" in="SourceGraphic" in2="effect1_dropShadow_6_4" result="shape"/>
</filter>
<filter id="filter1_d_6_4" x="173.701" y="140.81" width="79.7559" height="96.8695" filterUnits="userSpaceOnUse" color-interpolation-filters="sRGB">
<feFlood flood-opacity="0" result="BackgroundImageFix"/>
<feColorMatrix in="SourceAlpha" type="matrix" values="0 0 0 0 0 0 0 0 0 0 0 0 0 0 0 0 0 0 127 0" result="hardAlpha"/>
<feOffset dy="4"/>
<feGaussianBlur stdDeviation="2"/>
<feComposite in2="hardAlpha" operator="out"/>
<feColorMatrix type="matrix" values="0 0 0 0 0 0 0 0 0 0 0 0 0 0 0 0 0 0 0.25 0"/>
<feBlend mode="normal" in2="BackgroundImageFix" result="effect1_dropShadow_6_4"/>
<feBlend mode="normal" in="SourceGraphic" in2="effect1_dropShadow_6_4" result="shape"/>
</filter>
<filter id="filter2_d_6_4" x="173.701" y="189.423" width="79.7559" height="96.8696" filterUnits="userSpaceOnUse" color-interpolation-filters="sRGB">
<feFlood flood-opacity="0" result="BackgroundImageFix"/>
<feColorMatrix in="SourceAlpha" type="matrix" values="0 0 0 0 0 0 0 0 0 0 0 0 0 0 0 0 0 0 127 0" result="hardAlpha"/>
<feOffset dy="4"/>
<feGaussianBlur stdDeviation="2"/>
<feComposite in2="hardAlpha" operator="out"/>
<feColorMatrix type="matrix" values="0 0 0 0 0 0 0 0 0 0 0 0 0 0 0 0 0 0 0.25 0"/>
<feBlend mode="normal" in2="BackgroundImageFix" result="effect1_dropShadow_6_4"/>
<feBlend mode="normal" in="SourceGraphic" in2="effect1_dropShadow_6_4" result="shape"/>
</filter>
<filter id="filter3_d_6_4" x="173.701" y="203.312" width="79.7559" height="96.8696" filterUnits="userSpaceOnUse" color-interpolation-filters="sRGB">
<feFlood flood-opacity="0" result="BackgroundImageFix"/>
<feColorMatrix in="SourceAlpha" type="matrix" values="0 0 0 0 0 0 0 0 0 0 0 0 0 0 0 0 0 0 127 0" result="hardAlpha"/>
<feOffset dy="4"/>
<feGaussianBlur stdDeviation="2"/>
<feComposite in2="hardAlpha" operator="out"/>
<feColorMatrix type="matrix" values="0 0 0 0 0 0 0 0 0 0 0 0 0 0 0 0 0 0 0.25 0"/>
<feBlend mode="normal" in2="BackgroundImageFix" result="effect1_dropShadow_6_4"/>
<feBlend mode="normal" in="SourceGraphic" in2="effect1_dropShadow_6_4" result="shape"/>
</filter>
<filter id="filter4_d_6_4" x="173.701" y="217.201" width="79.7559" height="96.8696" filterUnits="userSpaceOnUse" color-interpolation-filters="sRGB">
<feFlood flood-opacity="0" result="BackgroundImageFix"/>
<feColorMatrix in="SourceAlpha" type="matrix" values="0 0 0 0 0 0 0 0 0 0 0 0 0 0 0 0 0 0 127 0" result="hardAlpha"/>
<feOffset dy="4"/>
<feGaussianBlur stdDeviation="2"/>
<feComposite in2="hardAlpha" operator="out"/>
<feColorMatrix type="matrix" values="0 0 0 0 0 0 0 0 0 0 0 0 0 0 0 0 0 0 0.25 0"/>
<feBlend mode="normal" in2="BackgroundImageFix" result="effect1_dropShadow_6_4"/>
<feBlend mode="normal" in="SourceGraphic" in2="effect1_dropShadow_6_4" result="shape"/>
</filter>
<filter id="filter5_dddddd_6_4" x="7" y="794" width="423" height="225.086" filterUnits="userSpaceOnUse" color-interpolation-filters="sRGB">
<feFlood flood-opacity="0" result="BackgroundImageFix"/>
<feColorMatrix in="SourceAlpha" type="matrix" values="0 0 0 0 0 0 0 0 0 0 0 0 0 0 0 0 0 0 127 0" result="hardAlpha"/>
<feOffset dy="2.76726"/>
<feGaussianBlur stdDeviation="1.1069"/>
<feColorMatrix type="matrix" values="0 0 0 0 0.576471 0 0 0 0 0.470588 0 0 0 0 1 0 0 0 0.0196802 0"/>
<feBlend mode="normal" in2="BackgroundImageFix" result="effect1_dropShadow_6_4"/>
<feColorMatrix in="SourceAlpha" type="matrix" values="0 0 0 0 0 0 0 0 0 0 0 0 0 0 0 0 0 0 127 0" result="hardAlpha"/>
<feOffset dy="6.6501"/>
<feGaussianBlur stdDeviation="2.66004"/>
<feColorMatrix type="matrix" values="0 0 0 0 0.576471 0 0 0 0 0.470588 0 0 0 0 1 0 0 0 0.0282725 0"/>
<feBlend mode="normal" in2="effect1_dropShadow_6_4" result="effect2_dropShadow_6_4"/>
<feColorMatrix in="SourceAlpha" type="matrix" values="0 0 0 0 0 0 0 0 0 0 0 0 0 0 0 0 0 0 127 0" result="hardAlpha"/>
<feOffset dy="12.5216"/>
<feGaussianBlur stdDeviation="5.00862"/>
<feColorMatrix type="matrix" values="0 0 0 0 0.576471 0 0 0 0 0.470588 0 0 0 0 1 0 0 0 0.035 0"/>
<feBlend mode="normal" in2="effect2_dropShadow_6_4" result="effect3_dropShadow_6_4"/>
<feColorMatrix in="SourceAlpha" type="matrix" values="0 0 0 0 0 0 0 0 0 0 0 0 0 0 0 0 0 0 127 0" result="hardAlpha"/>
<feOffset dy="22.3363"/>
<feGaussianBlur stdDeviation="8.93452"/>
<feColorMatrix type="matrix" values="0 0 0 0 0.576471 0 0 0 0 0.470588 0 0 0 0 1 0 0 0 0.0417275 0"/>
<feBlend mode="normal" in2="effect3_dropShadow_6_4" result="effect4_dropShadow_6_4"/>
<feColorMatrix in="SourceAlpha" type="matrix" values="0 0 0 0 0 0 0 0 0 0 0 0 0 0 0 0 0 0 127 0" result="hardAlpha"/>
<feOffset dy="41.7776"/>
<feGaussianBlur stdDeviation="16.711"/>
<feColorMatrix type="matrix" values="0 0 0 0 0.576471 0 0 0 0 0.470588 0 0 0 0 1 0 0 0 0.0503198 0"/>
<feBlend mode="normal" in2="effect4_dropShadow_6_4" result="effect5_dropShadow_6_4"/>
<feColorMatrix in="SourceAlpha" type="matrix" values="0 0 0 0 0 0 0 0 0 0 0 0 0 0 0 0 0 0 127 0" result="hardAlpha"/>
<feOffset dy="100"/>
<feGaussianBlur stdDeviation="40"/>
<feColorMatrix type="matrix" values="0 0 0 0 0.576471 0 0 0 0 0.470588 0 0 0 0 1 0 0 0 0.07 0"/>
<feBlend mode="normal" in2="effect5_dropShadow_6_4" result="effect6_dropShadow_6_4"/>
<feBlend mode="normal" in="SourceGraphic" in2="effect6_dropShadow_6_4" result="shape"/>
</filter>
<linearGradient id="paint0_linear_6_4" x1="429" y1="53" x2="-308.662" y2="956.204" gradientUnits="userSpaceOnUse">
<stop stop-color="#92D288"/>
<stop offset="0.4375" stop-color="#FF8C4C"/>
<stop offset="0.718253" stop-color="#FF6060"/>
<stop offset="1" stop-color="white"/>
</linearGradient>
<linearGradient id="paint1_linear_6_4" x1="213.864" y1="350.629" x2="213.864" y2="386.199" gradientUnits="userSpaceOnUse">
<stop stop-color="#0F6C00"/>
<stop offset="0.682292" stop-color="#0F6C00" stop-opacity="0.578125"/>
<stop offset="1" stop-color="#0F6C00" stop-opacity="0"/>
</linearGradient>
<linearGradient id="paint2_linear_6_4" x1="213.864" y1="350.629" x2="213.864" y2="386.199" gradientUnits="userSpaceOnUse">
<stop stop-color="#FF5C00"/>
<stop offset="0.734375" stop-color="#FF5C00" stop-opacity="0.630208"/>
<stop offset="1" stop-color="#FF5C00" stop-opacity="0"/>
</linearGradient>
<linearGradient id="paint3_linear_6_4" x1="213.864" y1="350.629" x2="213.864" y2="386.199" gradientUnits="userSpaceOnUse">
<stop stop-color="#FF0000"/>
<stop offset="0.713542" stop-color="#FF0000" stop-opacity="0.630208"/>
<stop offset="1" stop-color="#FF0000" stop-opacity="0"/>
</linearGradient>
<linearGradient id="paint4_linear_6_4" x1="213.646" y1="98.6002" x2="213.646" y2="263.535" gradientUnits="userSpaceOnUse">
<stop stop-color="#169F00"/>
<stop offset="1" stop-color="white"/>
</linearGradient>
<linearGradient id="paint5_linear_6_4" x1="213.646" y1="147.213" x2="213.646" y2="312.147" gradientUnits="userSpaceOnUse">
<stop stop-color="#93D289"/>
<stop offset="0.536458" stop-color="#92D288"/>
<stop offset="1" stop-color="white"/>
</linearGradient>
<linearGradient id="paint6_linear_6_4" x1="213.646" y1="161.102" x2="213.646" y2="326.037" gradientUnits="userSpaceOnUse">
<stop stop-color="#FF5C00"/>
<stop offset="1" stop-color="white"/>
</linearGradient>
<linearGradient id="paint7_linear_6_4" x1="213.646" y1="174.991" x2="213.646" y2="339.926" gradientUnits="userSpaceOnUse">
<stop stop-color="#FF0000"/>
<stop offset="1" stop-color="#FF7B7B"/>
</linearGradient>
<linearGradient id="paint8_linear_6_4" x1="385" y1="471" x2="53" y2="471" gradientUnits="userSpaceOnUse">
<stop stop-color="#1A73E9"/>
<stop offset="1" stop-color="#6C92F4"/>
</linearGradient>
<clipPath id="clip0_6_4">
<rect width="428" height="926" fill="white"/>
</clipPath>
<clipPath id="clip1_6_4">
<rect width="187" height="260" fill="white" transform="translate(121 119)"/>
</clipPath>
<clipPath id="clip2_6_4">
<rect width="332" height="333" fill="white" transform="translate(53 416)"/>
</clipPath>
</defs>
</svg>
