<svg width="428" height="926" viewBox="0 0 428 926" fill="none" xmlns="http://www.w3.org/2000/svg">
<rect width="428" height="926" fill="white"/>
<g filter="url(#filter0_d_6_2)">
<path d="M276.438 188H150.562C141.415 188 134 195.415 134 204.562V487.45C134 496.597 141.415 504.013 150.562 504.013H276.438C285.585 504.013 293 496.597 293 487.45V204.562C293 195.415 285.585 188 276.438 188Z" fill="#242424"/>
<g filter="url(#filter1_d_6_2)">
<path d="M267.753 242.625V221.291H158.378V242.625H199.65V356.938H225.922V242.625H267.753Z" fill="url(#paint0_linear_6_2)"/>
</g>
<g filter="url(#filter2_d_6_2)">
<path d="M267.753 316.825V295.491H158.378V316.825H199.65V431.137H225.922V316.825H267.753Z" fill="url(#paint1_linear_6_2)"/>
</g>
<g filter="url(#filter3_d_6_2)">
<path d="M267.753 338.025V316.691H158.378V338.025H199.65V452.337H225.922V338.025H267.753Z" fill="url(#paint2_linear_6_2)"/>
</g>
<g filter="url(#filter4_d_6_2)">
<path d="M267.753 359.225V337.891H158.378V359.225H199.65V473.538H225.922V359.225H267.753Z" fill="url(#paint3_linear_6_2)"/>
</g>
</g>
<path d="M110.979 590.32V622H102.723V590.32H110.979Z" fill="url(#paint4_linear_6_2)"/>
<path d="M117.428 622V598H124.724L125.156 606.256L124.244 605.344C124.564 603.616 125.124 602.176 125.924 601.024C126.756 599.872 127.78 599.008 128.996 598.432C130.244 597.824 131.636 597.52 133.172 597.52C134.836 597.52 136.276 597.84 137.492 598.48C138.74 599.12 139.716 600.064 140.42 601.312C141.124 602.56 141.476 604.128 141.476 606.016V622H133.316V608.176C133.316 606.512 132.996 605.36 132.356 604.72C131.716 604.08 130.9 603.76 129.908 603.76C129.14 603.76 128.42 603.952 127.748 604.336C127.076 604.688 126.548 605.264 126.164 606.064C125.78 606.864 125.588 607.936 125.588 609.28V622H117.428ZM157.085 590.368V613.456C157.085 614.608 157.357 615.44 157.901 615.952C158.477 616.432 159.261 616.672 160.253 616.672C161.021 616.672 161.677 616.592 162.221 616.432C162.797 616.24 163.309 615.968 163.757 615.616L164.621 620.656C163.821 621.232 162.813 621.68 161.597 622C160.381 622.32 159.133 622.48 157.853 622.48C156.029 622.48 154.445 622.224 153.101 621.712C151.789 621.2 150.765 620.384 150.029 619.264C149.325 618.144 148.957 616.656 148.925 614.8V592.624L157.085 590.368ZM164.237 598V603.808H144.797V598H164.237ZM179.718 622.48C177.062 622.48 174.758 621.984 172.806 620.992C170.886 620 169.398 618.576 168.342 616.72C167.286 614.864 166.758 612.624 166.758 610C166.758 607.376 167.286 605.136 168.342 603.28C169.398 601.424 170.87 600 172.758 599.008C174.678 598.016 176.87 597.52 179.334 597.52C181.862 597.52 184.006 598.016 185.766 599.008C187.558 599.968 188.918 601.312 189.846 603.04C190.774 604.736 191.238 606.688 191.238 608.896C191.238 609.472 191.222 610.048 191.19 610.624C191.158 611.2 191.11 611.68 191.046 612.064H172.038V607.696H187.446L183.558 609.184C183.558 607.264 183.206 605.792 182.502 604.768C181.83 603.744 180.774 603.232 179.334 603.232C178.31 603.232 177.43 603.472 176.694 603.952C175.99 604.432 175.446 605.184 175.062 606.208C174.71 607.232 174.534 608.544 174.534 610.144C174.534 611.712 174.742 612.992 175.158 613.984C175.574 614.944 176.166 615.648 176.934 616.096C177.702 616.512 178.63 616.72 179.718 616.72C180.934 616.72 181.894 616.48 182.598 616C183.334 615.52 183.878 614.848 184.23 613.984L190.758 616.144C190.31 617.52 189.526 618.688 188.406 619.648C187.318 620.576 186.006 621.28 184.47 621.76C182.966 622.24 181.382 622.48 179.718 622.48ZM203.867 587.824V613.84C203.867 614.896 204.043 615.648 204.395 616.096C204.747 616.544 205.339 616.768 206.171 616.768C206.651 616.768 207.051 616.736 207.371 616.672C207.691 616.608 208.075 616.512 208.523 616.384L207.995 621.28C207.419 621.632 206.667 621.92 205.739 622.144C204.811 622.368 203.899 622.48 203.003 622.48C200.443 622.48 198.587 621.888 197.435 620.704C196.283 619.52 195.707 617.584 195.707 614.896V587.824H203.867ZM215.586 595.216C213.922 595.216 212.706 594.912 211.938 594.304C211.202 593.664 210.834 592.672 210.834 591.328C210.834 589.952 211.202 588.96 211.938 588.352C212.706 587.712 213.922 587.392 215.586 587.392C217.218 587.392 218.418 587.712 219.186 588.352C219.954 588.96 220.338 589.952 220.338 591.328C220.338 592.672 219.954 593.664 219.186 594.304C218.418 594.912 217.218 595.216 215.586 595.216ZM219.666 598V622H211.506V598H219.666ZM248.707 591.568L249.379 597.04C249.187 596.976 248.995 596.944 248.803 596.944C248.611 596.912 248.419 596.896 248.227 596.896C246.819 596.896 245.763 597.248 245.059 597.952C244.387 598.624 244.051 599.472 244.051 600.496L241.171 599.44C241.171 598.128 241.411 596.864 241.891 595.648C242.371 594.432 243.107 593.44 244.099 592.672C245.123 591.904 246.403 591.52 247.939 591.52C248.035 591.52 248.147 591.52 248.275 591.52C248.435 591.52 248.579 591.536 248.707 591.568ZM240.451 616.672C243.235 616.672 245.363 617.264 246.835 618.448C248.339 619.6 249.091 621.264 249.091 623.44C249.091 625.424 248.547 627.072 247.459 628.384C246.371 629.696 244.835 630.672 242.851 631.312C240.899 631.984 238.579 632.32 235.891 632.32C231.539 632.32 228.403 631.776 226.483 630.688C224.563 629.6 223.603 628.128 223.603 626.272C223.603 624.928 224.147 623.84 225.235 623.008C226.323 622.176 228.131 621.728 230.659 621.664L230.467 622.432C228.515 622.176 227.059 621.6 226.099 620.704C225.139 619.808 224.659 618.592 224.659 617.056C224.659 615.52 225.267 614.272 226.483 613.312C227.699 612.352 229.315 611.824 231.331 611.728L234.307 613.12H233.539C232.291 613.184 231.411 613.392 230.899 613.744C230.387 614.096 230.131 614.528 230.131 615.04C230.131 615.584 230.355 616 230.803 616.288C231.251 616.544 231.923 616.672 232.819 616.672H240.451ZM235.939 627.04C237.475 627.04 238.739 626.928 239.731 626.704C240.755 626.512 241.523 626.224 242.035 625.84C242.547 625.488 242.803 625.072 242.803 624.592C242.803 624.112 242.627 623.728 242.275 623.44C241.923 623.184 241.283 623.056 240.355 623.056H231.763C231.155 623.056 230.659 623.216 230.275 623.536C229.923 623.856 229.747 624.256 229.747 624.736C229.747 625.472 230.291 626.032 231.379 626.416C232.467 626.832 233.987 627.04 235.939 627.04ZM236.227 597.52C238.659 597.52 240.739 597.84 242.467 598.48C244.195 599.12 245.507 600.048 246.403 601.264C247.331 602.448 247.795 603.92 247.795 605.68C247.795 607.408 247.331 608.88 246.403 610.096C245.507 611.312 244.195 612.24 242.467 612.88C240.739 613.488 238.659 613.792 236.227 613.792C232.419 613.792 229.523 613.088 227.539 611.68C225.587 610.272 224.611 608.272 224.611 605.68C224.611 603.92 225.059 602.448 225.955 601.264C226.883 600.048 228.211 599.12 229.939 598.48C231.667 597.84 233.763 597.52 236.227 597.52ZM236.227 602.176C235.171 602.176 234.307 602.48 233.635 603.088C232.995 603.696 232.675 604.56 232.675 605.68C232.675 606.768 232.995 607.616 233.635 608.224C234.307 608.832 235.171 609.136 236.227 609.136C237.251 609.136 238.099 608.832 238.771 608.224C239.443 607.616 239.779 606.768 239.779 605.68C239.779 604.56 239.443 603.696 238.771 603.088C238.099 602.48 237.251 602.176 236.227 602.176ZM264.046 622.48C261.39 622.48 259.086 621.984 257.134 620.992C255.214 620 253.726 618.576 252.67 616.72C251.614 614.864 251.086 612.624 251.086 610C251.086 607.376 251.614 605.136 252.67 603.28C253.726 601.424 255.198 600 257.086 599.008C259.006 598.016 261.198 597.52 263.662 597.52C266.19 597.52 268.334 598.016 270.094 599.008C271.886 599.968 273.246 601.312 274.174 603.04C275.102 604.736 275.566 606.688 275.566 608.896C275.566 609.472 275.55 610.048 275.518 610.624C275.486 611.2 275.438 611.68 275.374 612.064H256.366V607.696H271.774L267.886 609.184C267.886 607.264 267.534 605.792 266.83 604.768C266.158 603.744 265.102 603.232 263.662 603.232C262.638 603.232 261.758 603.472 261.022 603.952C260.318 604.432 259.774 605.184 259.39 606.208C259.038 607.232 258.862 608.544 258.862 610.144C258.862 611.712 259.07 612.992 259.486 613.984C259.902 614.944 260.494 615.648 261.262 616.096C262.03 616.512 262.958 616.72 264.046 616.72C265.262 616.72 266.222 616.48 266.926 616C267.662 615.52 268.206 614.848 268.558 613.984L275.086 616.144C274.638 617.52 273.854 618.688 272.734 619.648C271.646 620.576 270.334 621.28 268.798 621.76C267.294 622.24 265.71 622.48 264.046 622.48ZM280.131 622V598H287.427L287.859 606.256L286.947 605.344C287.267 603.616 287.827 602.176 288.627 601.024C289.459 599.872 290.483 599.008 291.699 598.432C292.947 597.824 294.339 597.52 295.875 597.52C297.539 597.52 298.979 597.84 300.195 598.48C301.443 599.12 302.419 600.064 303.123 601.312C303.827 602.56 304.179 604.128 304.179 606.016V622H296.019V608.176C296.019 606.512 295.699 605.36 295.059 604.72C294.419 604.08 293.603 603.76 292.611 603.76C291.843 603.76 291.123 603.952 290.451 604.336C289.779 604.688 289.251 605.264 288.867 606.064C288.483 606.864 288.291 607.936 288.291 609.28V622H280.131ZM319.788 590.368V613.456C319.788 614.608 320.06 615.44 320.604 615.952C321.18 616.432 321.964 616.672 322.956 616.672C323.724 616.672 324.38 616.592 324.924 616.432C325.5 616.24 326.012 615.968 326.46 615.616L327.324 620.656C326.524 621.232 325.516 621.68 324.3 622C323.084 622.32 321.836 622.48 320.556 622.48C318.732 622.48 317.148 622.224 315.804 621.712C314.492 621.2 313.468 620.384 312.732 619.264C312.028 618.144 311.66 616.656 311.628 614.8V592.624L319.788 590.368ZM326.94 598V603.808H307.5V598H326.94ZM128.226 678.48C125.57 678.48 123.266 677.984 121.314 676.992C119.394 676 117.906 674.576 116.85 672.72C115.794 670.864 115.266 668.624 115.266 666C115.266 663.376 115.794 661.136 116.85 659.28C117.906 657.424 119.378 656 121.266 655.008C123.186 654.016 125.378 653.52 127.842 653.52C130.37 653.52 132.514 654.016 134.274 655.008C136.066 655.968 137.426 657.312 138.354 659.04C139.282 660.736 139.746 662.688 139.746 664.896C139.746 665.472 139.73 666.048 139.698 666.624C139.666 667.2 139.618 667.68 139.554 668.064H120.546V663.696H135.954L132.066 665.184C132.066 663.264 131.714 661.792 131.01 660.768C130.338 659.744 129.282 659.232 127.842 659.232C126.818 659.232 125.938 659.472 125.202 659.952C124.498 660.432 123.954 661.184 123.57 662.208C123.218 663.232 123.042 664.544 123.042 666.144C123.042 667.712 123.25 668.992 123.666 669.984C124.082 670.944 124.674 671.648 125.442 672.096C126.21 672.512 127.138 672.72 128.226 672.72C129.442 672.72 130.402 672.48 131.106 672C131.842 671.52 132.386 670.848 132.738 669.984L139.266 672.144C138.818 673.52 138.034 674.688 136.914 675.648C135.826 676.576 134.514 677.28 132.978 677.76C131.474 678.24 129.89 678.48 128.226 678.48ZM152.375 643.824V669.84C152.375 670.896 152.551 671.648 152.903 672.096C153.255 672.544 153.847 672.768 154.679 672.768C155.159 672.768 155.559 672.736 155.879 672.672C156.199 672.608 156.583 672.512 157.031 672.384L156.503 677.28C155.927 677.632 155.175 677.92 154.247 678.144C153.319 678.368 152.407 678.48 151.511 678.48C148.951 678.48 147.095 677.888 145.943 676.704C144.791 675.52 144.215 673.584 144.215 670.896V643.824H152.375ZM171.726 678.48C169.07 678.48 166.766 677.984 164.814 676.992C162.894 676 161.406 674.576 160.35 672.72C159.294 670.864 158.766 668.624 158.766 666C158.766 663.376 159.294 661.136 160.35 659.28C161.406 657.424 162.878 656 164.766 655.008C166.686 654.016 168.878 653.52 171.342 653.52C173.87 653.52 176.014 654.016 177.774 655.008C179.566 655.968 180.926 657.312 181.854 659.04C182.782 660.736 183.246 662.688 183.246 664.896C183.246 665.472 183.23 666.048 183.198 666.624C183.166 667.2 183.118 667.68 183.054 668.064H164.046V663.696H179.454L175.566 665.184C175.566 663.264 175.214 661.792 174.51 660.768C173.838 659.744 172.782 659.232 171.342 659.232C170.318 659.232 169.438 659.472 168.702 659.952C167.998 660.432 167.454 661.184 167.07 662.208C166.718 663.232 166.542 664.544 166.542 666.144C166.542 667.712 166.75 668.992 167.166 669.984C167.582 670.944 168.174 671.648 168.942 672.096C169.71 672.512 170.638 672.72 171.726 672.72C172.942 672.72 173.902 672.48 174.606 672C175.342 671.52 175.886 670.848 176.238 669.984L182.766 672.144C182.318 673.52 181.534 674.688 180.414 675.648C179.326 676.576 178.014 677.28 176.478 677.76C174.974 678.24 173.39 678.48 171.726 678.48ZM219.17 678V654H226.37L226.706 659.184C227.314 657.392 228.21 656 229.394 655.008C230.61 654.016 232.146 653.52 234.002 653.52C234.61 653.52 235.122 653.568 235.538 653.664C235.986 653.76 236.338 653.888 236.594 654.048L235.778 660.768C235.458 660.64 235.042 660.544 234.53 660.48C234.05 660.384 233.458 660.336 232.754 660.336C231.794 660.336 230.898 660.544 230.066 660.96C229.234 661.376 228.562 662 228.05 662.832C227.57 663.632 227.33 664.656 227.33 665.904V678H219.17ZM252.953 662.784C252.953 661.664 252.633 660.784 251.993 660.144C251.385 659.472 250.553 659.136 249.497 659.136C248.441 659.136 247.529 659.408 246.761 659.952C246.025 660.464 245.513 661.392 245.225 662.736L238.313 661.104C238.761 658.8 239.945 656.96 241.865 655.584C243.785 654.208 246.489 653.52 249.977 653.52C252.313 653.52 254.297 653.872 255.929 654.576C257.593 655.248 258.857 656.272 259.721 657.648C260.617 658.992 261.065 660.656 261.065 662.64V671.424C261.065 672.672 261.625 673.296 262.745 673.296C263.321 673.296 263.785 673.232 264.137 673.104L263.657 677.76C262.697 678.208 261.529 678.432 260.153 678.432C258.905 678.432 257.801 678.24 256.841 677.856C255.881 677.44 255.129 676.832 254.585 676.032C254.041 675.2 253.769 674.16 253.769 672.912V672.624L254.681 672.288C254.681 673.664 254.265 674.816 253.433 675.744C252.633 676.672 251.577 677.36 250.265 677.808C248.985 678.256 247.641 678.48 246.233 678.48C244.601 678.48 243.177 678.224 241.961 677.712C240.745 677.2 239.801 676.464 239.129 675.504C238.489 674.512 238.169 673.296 238.169 671.856C238.169 670.128 238.681 668.704 239.705 667.584C240.761 666.432 242.409 665.632 244.649 665.184L253.721 663.312L253.673 667.632L249.065 668.592C248.105 668.784 247.385 669.072 246.905 669.456C246.457 669.808 246.233 670.352 246.233 671.088C246.233 671.792 246.489 672.32 247.001 672.672C247.513 673.024 248.121 673.2 248.825 673.2C249.369 673.2 249.881 673.12 250.361 672.96C250.873 672.8 251.321 672.56 251.705 672.24C252.089 671.888 252.393 671.456 252.617 670.944C252.841 670.432 252.953 669.824 252.953 669.12V662.784ZM278.448 643.152C279.76 643.152 280.912 643.296 281.904 643.584C282.896 643.84 283.632 644.144 284.112 644.496L283.296 649.584C282.944 649.36 282.544 649.184 282.096 649.056C281.648 648.928 281.088 648.864 280.416 648.864C279.296 648.864 278.368 649.12 277.632 649.632C276.928 650.144 276.576 651.04 276.576 652.32V655.44L277.056 656.784V678H268.896V651.792C268.896 650.256 269.136 648.944 269.616 647.856C270.128 646.768 270.832 645.872 271.728 645.168C272.624 644.464 273.648 643.952 274.8 643.632C275.952 643.312 277.168 643.152 278.448 643.152ZM283.872 654V659.808H265.056V654H283.872ZM297.744 643.152C299.056 643.152 300.208 643.296 301.2 643.584C302.192 643.84 302.928 644.144 303.408 644.496L302.592 649.584C302.24 649.36 301.84 649.184 301.392 649.056C300.944 648.928 300.384 648.864 299.712 648.864C298.592 648.864 297.664 649.12 296.928 649.632C296.224 650.144 295.872 651.04 295.872 652.32V655.44L296.352 656.784V678H288.192V651.792C288.192 650.256 288.432 648.944 288.912 647.856C289.424 646.768 290.128 645.872 291.024 645.168C291.92 644.464 292.944 643.952 294.096 643.632C295.248 643.312 296.464 643.152 297.744 643.152ZM303.168 654V659.808H284.352V654H303.168ZM310.56 651.216C308.896 651.216 307.68 650.912 306.912 650.304C306.176 649.664 305.808 648.672 305.808 647.328C305.808 645.952 306.176 644.96 306.912 644.352C307.68 643.712 308.896 643.392 310.56 643.392C312.192 643.392 313.392 643.712 314.16 644.352C314.928 644.96 315.312 645.952 315.312 647.328C315.312 648.672 314.928 649.664 314.16 650.304C313.392 650.912 312.192 651.216 310.56 651.216ZM314.64 654V678H306.48V654H314.64ZM331.843 653.52C334.275 653.52 336.291 653.872 337.891 654.576C339.523 655.248 340.787 656.16 341.683 657.312C342.611 658.432 343.187 659.648 343.411 660.96L335.875 663.456C335.651 662.08 335.235 661.056 334.627 660.384C334.051 659.68 333.203 659.328 332.083 659.328C331.059 659.328 330.195 659.568 329.491 660.048C328.819 660.496 328.307 661.232 327.955 662.256C327.603 663.248 327.427 664.528 327.427 666.096C327.427 667.664 327.619 668.944 328.003 669.936C328.387 670.896 328.931 671.6 329.635 672.048C330.339 672.464 331.171 672.672 332.131 672.672C332.931 672.672 333.587 672.528 334.099 672.24C334.643 671.92 335.091 671.472 335.443 670.896C335.795 670.32 336.019 669.616 336.115 668.784L343.459 671.136C343.235 672.544 342.627 673.808 341.635 674.928C340.675 676.016 339.395 676.88 337.795 677.52C336.195 678.16 334.323 678.48 332.179 678.48C329.555 678.48 327.267 678 325.315 677.04C323.363 676.048 321.859 674.624 320.803 672.768C319.747 670.88 319.219 668.624 319.219 666C319.219 663.376 319.747 661.136 320.803 659.28C321.859 657.392 323.331 655.968 325.219 655.008C327.139 654.016 329.347 653.52 331.843 653.52Z" fill="#242424"/>
<path d="M112.371 646.32V652.704H102.051V678H93.7946V652.704H83.4266V646.32H112.371Z" fill="url(#paint5_linear_6_2)"/>
<path d="M215.027 646.32V652.704H204.707V678H196.451V652.704H186.083V646.32H215.027Z" fill="url(#paint6_linear_6_2)"/>
<path d="M28.5342 27H30.4238V16.4312H28.5415L25.7803 18.3647V20.1812L28.4097 18.3354H28.5342V27Z" fill="#111111"/>
<path d="M37.1182 27.2563C39.8062 27.2563 41.4028 25.1543 41.4028 21.5947C41.4028 20.2544 41.1465 19.1265 40.6558 18.2549C39.9453 16.8999 38.7222 16.1675 37.1768 16.1675C34.877 16.1675 33.251 17.7129 33.251 19.8809C33.251 21.917 34.7158 23.3965 36.73 23.3965C37.9678 23.3965 38.9712 22.8179 39.4692 21.8145H39.4912C39.4912 21.8145 39.5205 21.8145 39.5278 21.8145C39.5425 21.8145 39.5938 21.8145 39.5938 21.8145C39.5938 24.2314 38.6782 25.6743 37.1328 25.6743C36.2246 25.6743 35.5215 25.1763 35.2798 24.3779H33.3975C33.7124 26.1138 35.1846 27.2563 37.1182 27.2563ZM37.1841 21.895C35.9683 21.895 35.104 21.0308 35.104 19.8223C35.104 18.6431 36.0122 17.7422 37.1914 17.7422C38.3706 17.7422 39.2788 18.6577 39.2788 19.8516C39.2788 21.0308 38.3926 21.895 37.1841 21.895Z" fill="#111111"/>
<path d="M44.7207 25.8794C45.4165 25.8794 45.8926 25.3813 45.8926 24.7222C45.8926 24.0557 45.4165 23.5649 44.7207 23.5649C44.0322 23.5649 43.5488 24.0557 43.5488 24.7222C43.5488 25.3813 44.0322 25.8794 44.7207 25.8794ZM44.7207 20.3862C45.4165 20.3862 45.8926 19.8955 45.8926 19.2363C45.8926 18.5698 45.4165 18.0791 44.7207 18.0791C44.0322 18.0791 43.5488 18.5698 43.5488 19.2363C43.5488 19.8955 44.0322 20.3862 44.7207 20.3862Z" fill="#111111"/>
<path d="M52.1035 27.2637C54.6304 27.2637 56.1318 25.2129 56.1318 21.7192C56.1318 18.2109 54.6084 16.1675 52.1035 16.1675C49.5913 16.1675 48.0679 18.2109 48.0679 21.7046C48.0679 25.2129 49.5693 27.2637 52.1035 27.2637ZM52.1035 25.6963C50.7632 25.6963 49.9795 24.3047 49.9795 21.7046C49.9795 19.1265 50.7778 17.7422 52.1035 17.7422C53.4292 17.7422 54.2202 19.1191 54.2202 21.7046C54.2202 24.3047 53.4438 25.6963 52.1035 25.6963Z" fill="#111111"/>
<path d="M58.0947 19.522V19.5513H59.8672V19.522C59.8672 18.4453 60.6143 17.7202 61.7202 17.7202C62.7603 17.7202 63.522 18.394 63.522 19.3242C63.522 20.0713 63.1631 20.6206 61.7202 22.0854L58.1973 25.689V27H65.5361V25.396H60.79V25.2715L63.002 23.0522C64.7964 21.2798 65.375 20.3423 65.375 19.207C65.375 17.4419 63.8662 16.1675 61.7788 16.1675C59.6108 16.1675 58.0947 17.5444 58.0947 19.522Z" fill="#111111"/>
<path opacity="0.44" fill-rule="evenodd" clip-rule="evenodd" d="M412 20.5L412.46 20.8066C413.11 21.2398 413.5 21.9691 413.5 22.75C413.5 23.5309 413.11 24.2602 412.46 24.6934L412 25V20.5ZM390.833 17H409.167C410.179 17 411 17.8954 411 19V26.5C411 27.6046 410.179 28.5 409.167 28.5H390.833C389.821 28.5 389 27.6046 389 26.5V19C389 17.8954 389.821 17 390.833 17ZM390.909 18C390.407 18 390 18.4477 390 19V26.5C390 27.0523 390.407 27.5 390.909 27.5H409.091C409.593 27.5 410 27.0523 410 26.5V19C410 18.4477 409.593 18 409.091 18H390.909Z" fill="#111111"/>
<path fill-rule="evenodd" clip-rule="evenodd" d="M391.875 19H405V26.5H391.875C391.392 26.5 391 26.0523 391 25.5V20C391 19.4477 391.392 19 391.875 19Z" fill="#111111"/>
<path fill-rule="evenodd" clip-rule="evenodd" d="M361.5 18C360.948 18 360.5 18.4477 360.5 19V27C360.5 27.5523 360.948 28 361.5 28H362.5C363.052 28 363.5 27.5523 363.5 27V19C363.5 18.4477 363.052 18 362.5 18H361.5ZM356 21C356 20.4477 356.448 20 357 20H358C358.552 20 359 20.4477 359 21V27C359 27.5523 358.552 28 358 28H357C356.448 28 356 27.5523 356 27V21ZM352.5 22C351.948 22 351.5 22.4477 351.5 23V27C351.5 27.5523 351.948 28 352.5 28H353.5C354.052 28 354.5 27.5523 354.5 27V23C354.5 22.4477 354.052 22 353.5 22H352.5ZM348 28C347.448 28 347 27.5523 347 27V24.5C347 23.9477 347.448 23.5 348 23.5H349C349.552 23.5 350 23.9477 350 24.5V27C350 27.5523 349.552 28 349 28H348Z" fill="#111111"/>
<path d="M376.637 19.2773C378.852 19.2774 380.984 20.1289 382.59 21.6557C382.711 21.7735 382.904 21.772 383.023 21.6523L384.179 20.4857C384.239 20.4249 384.273 20.3427 384.272 20.2571C384.272 20.1715 384.237 20.0897 384.176 20.0297C379.961 15.9901 373.311 15.9901 369.096 20.0297C369.035 20.0896 369.001 20.1715 369 20.257C368.999 20.3426 369.033 20.4249 369.093 20.4857L370.25 21.6523C370.369 21.7722 370.562 21.7737 370.683 21.6557C372.289 20.1288 374.42 19.2773 376.637 19.2773ZM376.637 23.073C377.854 23.0729 379.028 23.5255 379.931 24.3427C380.053 24.4586 380.245 24.4561 380.364 24.337L381.519 23.1703C381.579 23.1091 381.613 23.0261 381.612 22.9399C381.611 22.8536 381.576 22.7713 381.514 22.7113C378.766 20.1549 374.51 20.1549 371.762 22.7113C371.7 22.7713 371.664 22.8536 371.663 22.9399C371.662 23.0262 371.696 23.1092 371.757 23.1703L372.912 24.337C373.031 24.4561 373.223 24.4586 373.345 24.3427C374.247 23.526 375.42 23.0735 376.637 23.073ZM378.856 25.8573C378.917 25.7967 378.951 25.7133 378.95 25.6268C378.948 25.5403 378.91 25.4584 378.846 25.4003C377.571 24.3214 375.703 24.3214 374.427 25.4003C374.363 25.4583 374.325 25.5402 374.323 25.6267C374.322 25.7132 374.356 25.7967 374.417 25.8573L376.415 27.873C376.473 27.9322 376.553 27.9656 376.637 27.9656C376.72 27.9656 376.8 27.9322 376.858 27.873L378.856 25.8573Z" fill="#111111"/>
<g filter="url(#filter5_d_6_2)">
<path d="M61.754 728V727.496L63.896 727.19L63.698 727.442V715.994L63.914 716.192H60.17L60.422 715.976L60.098 718.28H59.54V715.49H68.738V718.28H68.162L67.856 715.994L68.09 716.192H64.364L64.58 715.994V727.442L64.382 727.19L66.524 727.496V728H61.754ZM69.6118 728V727.496L71.3038 727.19L71.1418 727.388V714.878L71.3038 715.076L69.6118 714.788V714.284L72.0058 714.176V720.278L71.8078 720.224C72.4078 719.6 73.0318 719.144 73.6798 718.856C74.3398 718.568 74.9638 718.424 75.5518 718.424C76.0798 718.424 76.5478 718.532 76.9558 718.748C77.3758 718.952 77.6998 719.27 77.9278 719.702C78.1558 720.134 78.2638 720.68 78.2518 721.34V727.388L78.1078 727.19L79.7818 727.496V728H75.8938V727.496L77.5678 727.208L77.3878 727.406V721.538C77.4118 720.71 77.2258 720.104 76.8298 719.72C76.4458 719.324 75.9298 719.126 75.2818 719.126C74.7898 719.126 74.2438 719.264 73.6438 719.54C73.0438 719.816 72.4618 720.248 71.8978 720.836L72.0058 720.602V727.406L71.8438 727.208L73.4998 727.496V728H69.6118ZM83.3141 727.37L83.1701 727.208L84.8261 727.496V728H80.9201V727.496L82.5761 727.208L82.4501 727.37V719.234L82.5761 719.378L80.9201 719.108V718.604L83.3141 718.496V727.37ZM82.7381 716.264C82.5341 716.264 82.3661 716.198 82.2341 716.066C82.1141 715.934 82.0541 715.754 82.0541 715.526C82.0541 715.274 82.1201 715.082 82.2521 714.95C82.3841 714.818 82.5521 714.752 82.7561 714.752C82.9721 714.752 83.1401 714.818 83.2601 714.95C83.3921 715.082 83.4581 715.274 83.4581 715.526C83.4581 715.766 83.3861 715.952 83.2421 716.084C83.1101 716.204 82.9421 716.264 82.7381 716.264ZM86.088 728V727.496L87.78 727.19L87.618 727.388V719.198L87.78 719.396L86.088 719.108V718.604L88.284 718.496L88.428 720.278L88.284 720.224C88.884 719.6 89.514 719.144 90.174 718.856C90.834 718.568 91.458 718.424 92.046 718.424C92.838 718.424 93.486 718.664 93.99 719.144C94.506 719.612 94.758 720.344 94.746 721.34V727.388L94.584 727.19L96.258 727.496V728H92.388V727.496L94.044 727.208L93.882 727.406V721.538C93.882 720.71 93.69 720.104 93.306 719.72C92.922 719.324 92.412 719.126 91.776 719.126C91.272 719.126 90.72 719.264 90.12 719.54C89.532 719.816 88.95 720.248 88.374 720.836L88.482 720.602V727.406L88.32 727.208L89.976 727.496V728H86.088ZM97.1568 728V727.496L98.8488 727.19L98.6868 727.406V714.896L98.8128 715.076L97.1568 714.788V714.284L99.5508 714.176V722.6L99.3528 722.402H101.927L101.675 722.564L103.745 719.144L103.835 719.306L102.251 719.09V718.604L105.977 718.496V718.982L104.303 719.288L104.591 719.108L102.377 722.762L102.341 722.456L105.185 727.352L104.969 727.19L106.517 727.514V728H104.609L101.729 722.942L101.963 723.068H99.3528L99.5508 722.924V727.406L99.3888 727.19L101.045 727.496V728H97.1568ZM109.418 727.37L109.274 727.208L110.93 727.496V728H107.024V727.496L108.68 727.208L108.554 727.37V719.234L108.68 719.378L107.024 719.108V718.604L109.418 718.496V727.37ZM108.842 716.264C108.638 716.264 108.47 716.198 108.338 716.066C108.218 715.934 108.158 715.754 108.158 715.526C108.158 715.274 108.224 715.082 108.356 714.95C108.488 714.818 108.656 714.752 108.86 714.752C109.076 714.752 109.244 714.818 109.364 714.95C109.496 715.082 109.562 715.274 109.562 715.526C109.562 715.766 109.49 715.952 109.346 716.084C109.214 716.204 109.046 716.264 108.842 716.264ZM112.192 728V727.496L113.884 727.19L113.722 727.388V719.198L113.884 719.396L112.192 719.108V718.604L114.388 718.496L114.532 720.278L114.388 720.224C114.988 719.6 115.618 719.144 116.278 718.856C116.938 718.568 117.562 718.424 118.15 718.424C118.942 718.424 119.59 718.664 120.094 719.144C120.61 719.612 120.862 720.344 120.85 721.34V727.388L120.688 727.19L122.362 727.496V728H118.492V727.496L120.148 727.208L119.986 727.406V721.538C119.986 720.71 119.794 720.104 119.41 719.72C119.026 719.324 118.516 719.126 117.88 719.126C117.376 719.126 116.824 719.264 116.224 719.54C115.636 719.816 115.054 720.248 114.478 720.836L114.586 720.602V727.406L114.424 727.208L116.08 727.496V728H112.192ZM127.544 732.266C126.188 732.266 125.168 732.062 124.484 731.654C123.8 731.246 123.458 730.658 123.458 729.89C123.458 729.386 123.626 728.918 123.962 728.486C124.298 728.066 124.79 727.682 125.438 727.334L125.474 727.496C125.126 727.484 124.868 727.43 124.7 727.334C124.532 727.226 124.448 727.064 124.448 726.848C124.448 726.764 124.46 726.68 124.484 726.596C124.508 726.512 124.544 726.386 124.592 726.218C124.652 726.05 124.736 725.816 124.844 725.516C124.964 725.216 125.12 724.808 125.312 724.292L125.366 724.454C124.886 724.19 124.52 723.83 124.268 723.374C124.016 722.906 123.89 722.366 123.89 721.754C123.89 720.722 124.214 719.912 124.862 719.324C125.522 718.724 126.422 718.424 127.562 718.424C128.282 718.424 128.912 718.55 129.452 718.802L129.164 718.748L131.882 718.586L131.9 719.162L130.118 719.504L130.208 719.36C130.496 719.624 130.712 719.942 130.856 720.314C131.012 720.686 131.09 721.112 131.09 721.592C131.09 722.624 130.76 723.44 130.1 724.04C129.44 724.64 128.552 724.94 127.436 724.94C126.74 724.94 126.116 724.808 125.564 724.544L125.762 724.418L125.204 726.992L125.006 726.848H128.48C129.608 726.848 130.466 727.064 131.054 727.496C131.654 727.928 131.954 728.558 131.954 729.386C131.954 730.322 131.576 731.036 130.82 731.528C130.076 732.02 128.984 732.266 127.544 732.266ZM127.598 731.582C128.762 731.582 129.632 731.402 130.208 731.042C130.796 730.682 131.09 730.148 131.09 729.44C131.09 728.816 130.856 728.342 130.388 728.018C129.932 727.706 129.248 727.55 128.336 727.55H125.636L125.942 727.478C124.814 728.198 124.25 728.954 124.25 729.746C124.25 730.346 124.526 730.802 125.078 731.114C125.642 731.426 126.482 731.582 127.598 731.582ZM127.436 724.274C128.312 724.274 128.99 724.046 129.47 723.59C129.962 723.122 130.208 722.468 130.208 721.628C130.208 720.8 129.974 720.17 129.506 719.738C129.05 719.294 128.39 719.072 127.526 719.072C126.662 719.072 125.99 719.3 125.51 719.756C125.03 720.212 124.79 720.866 124.79 721.718C124.79 722.534 125.018 723.164 125.474 723.608C125.942 724.052 126.596 724.274 127.436 724.274ZM140.247 728.126C139.719 728.126 139.293 727.964 138.969 727.64C138.645 727.304 138.483 726.794 138.483 726.11V719.036L138.663 719.198H136.737V718.694L138.663 718.532L138.483 718.73V716.408L139.347 716.282V718.73L139.185 718.55H142.047L142.011 719.198H139.185L139.347 719.036V725.984C139.347 726.488 139.455 726.854 139.671 727.082C139.887 727.31 140.175 727.424 140.535 727.424C140.763 727.424 141.009 727.388 141.273 727.316C141.549 727.232 141.831 727.118 142.119 726.974L142.335 727.514C141.567 727.922 140.871 728.126 140.247 728.126ZM142.93 728V727.496L144.622 727.19L144.46 727.388V714.878L144.622 715.076L142.93 714.788V714.284L145.324 714.176V720.278L145.126 720.224C145.726 719.6 146.35 719.144 146.998 718.856C147.658 718.568 148.282 718.424 148.87 718.424C149.398 718.424 149.866 718.532 150.274 718.748C150.694 718.952 151.018 719.27 151.246 719.702C151.474 720.134 151.582 720.68 151.57 721.34V727.388L151.426 727.19L153.1 727.496V728H149.212V727.496L150.886 727.208L150.706 727.406V721.538C150.73 720.71 150.544 720.104 150.148 719.72C149.764 719.324 149.248 719.126 148.6 719.126C148.108 719.126 147.562 719.264 146.962 719.54C146.362 719.816 145.78 720.248 145.216 720.836L145.324 720.602V727.406L145.162 727.208L146.818 727.496V728H142.93ZM158.45 728.126C157.682 728.126 156.998 727.946 156.398 727.586C155.81 727.226 155.348 726.692 155.012 725.984C154.676 725.276 154.508 724.418 154.508 723.41C154.508 722.402 154.676 721.526 155.012 720.782C155.36 720.026 155.846 719.444 156.47 719.036C157.106 718.628 157.85 718.424 158.702 718.424C159.494 718.424 160.154 718.598 160.682 718.946C161.21 719.294 161.606 719.774 161.87 720.386C162.134 720.998 162.266 721.7 162.266 722.492C162.266 722.588 162.26 722.69 162.248 722.798C162.248 722.894 162.242 723.02 162.23 723.176H155.102V722.51H161.528L161.366 722.618C161.378 721.994 161.3 721.418 161.132 720.89C160.964 720.35 160.676 719.918 160.268 719.594C159.872 719.27 159.332 719.108 158.648 719.108C157.964 719.108 157.376 719.288 156.884 719.648C156.404 719.996 156.032 720.488 155.768 721.124C155.516 721.748 155.39 722.474 155.39 723.302C155.39 724.166 155.522 724.91 155.786 725.534C156.062 726.146 156.44 726.614 156.92 726.938C157.412 727.262 157.982 727.424 158.63 727.424C159.122 727.424 159.644 727.334 160.196 727.154C160.76 726.962 161.33 726.668 161.906 726.272L162.248 726.794C161.6 727.25 160.952 727.586 160.304 727.802C159.656 728.018 159.038 728.126 158.45 728.126ZM177.761 718.604L181.271 718.496V719L179.939 719.288L180.155 719.09L177.581 728.036H176.609L174.071 719.144H174.251L171.605 728.036H170.633L168.149 719.108L168.329 719.306L167.015 719.108V718.604L170.687 718.496V719L168.887 719.27L169.013 719.108L171.245 727.496H171.101L173.675 718.568L174.683 718.478L177.203 727.514H177.041L179.381 719.126L179.507 719.288L177.761 719.108V718.604ZM188.628 727.442L188.448 727.208L190.158 727.46V727.964L187.962 728.054L187.836 726.326L187.926 726.38C187.386 726.944 186.798 727.376 186.162 727.676C185.526 727.976 184.914 728.126 184.326 728.126C183.63 728.126 183.054 727.91 182.598 727.478C182.154 727.046 181.932 726.392 181.932 725.516C181.932 724.808 182.076 724.268 182.364 723.896C182.664 723.524 183.066 723.272 183.57 723.14C184.074 723.008 184.644 722.942 185.28 722.942H187.908L187.764 723.086V721.106C187.764 720.398 187.566 719.888 187.17 719.576C186.774 719.264 186.24 719.108 185.568 719.108C185.208 719.108 184.824 719.15 184.416 719.234C184.008 719.318 183.576 719.438 183.12 719.594L183.3 719.378L183.156 721.088H182.526L182.382 719.09C183.006 718.874 183.6 718.712 184.164 718.604C184.728 718.484 185.256 718.424 185.748 718.424C186.636 718.424 187.338 718.622 187.854 719.018C188.37 719.414 188.628 720.062 188.628 720.962V727.442ZM182.814 725.426C182.814 726.11 182.976 726.62 183.3 726.956C183.636 727.28 184.062 727.442 184.578 727.442C185.058 727.442 185.586 727.298 186.162 727.01C186.75 726.722 187.314 726.326 187.854 725.822L187.764 726.11V723.41L187.908 723.554H185.406C184.47 723.554 183.804 723.698 183.408 723.986C183.012 724.274 182.814 724.754 182.814 725.426ZM190.334 732.194L190.424 731.528C190.544 731.552 190.652 731.564 190.748 731.564C190.856 731.576 190.958 731.582 191.054 731.582C191.678 731.582 192.176 731.432 192.548 731.132C192.932 730.832 193.256 730.382 193.52 729.782C193.784 729.194 194.042 728.474 194.294 727.622L194.276 728L190.964 719.144L191.144 719.27L189.902 719.108V718.604L193.574 718.496V719L191.756 719.252L191.846 719.126L194.744 727.244L194.546 727.208L197.408 719.144L197.516 719.27L195.752 719.108V718.604L199.352 718.496V719L198.038 719.27L198.236 719.126L194.96 728.054C194.756 728.63 194.552 729.164 194.348 729.656C194.144 730.16 193.904 730.61 193.628 731.006C193.364 731.402 193.034 731.708 192.638 731.924C192.242 732.152 191.75 732.266 191.162 732.266C190.946 732.266 190.67 732.242 190.334 732.194ZM206.868 728.126C206.34 728.126 205.914 727.964 205.59 727.64C205.266 727.304 205.104 726.794 205.104 726.11V719.036L205.284 719.198H203.358V718.694L205.284 718.532L205.104 718.73V716.408L205.968 716.282V718.73L205.806 718.55H208.668L208.632 719.198H205.806L205.968 719.036V725.984C205.968 726.488 206.076 726.854 206.292 727.082C206.508 727.31 206.796 727.424 207.156 727.424C207.384 727.424 207.63 727.388 207.894 727.316C208.17 727.232 208.452 727.118 208.74 726.974L208.956 727.514C208.188 727.922 207.492 728.126 206.868 728.126ZM214.339 718.424C215.587 718.424 216.571 718.838 217.291 719.666C218.023 720.482 218.389 721.628 218.389 723.104C218.389 724.112 218.215 724.994 217.867 725.75C217.519 726.494 217.021 727.076 216.373 727.496C215.725 727.916 214.945 728.126 214.033 728.126C212.797 728.126 211.825 727.73 211.117 726.938C210.409 726.134 210.055 724.982 210.055 723.482C210.055 722.45 210.223 721.556 210.559 720.8C210.907 720.044 211.399 719.462 212.035 719.054C212.683 718.634 213.451 718.424 214.339 718.424ZM214.285 719.108C213.229 719.108 212.407 719.498 211.819 720.278C211.243 721.046 210.955 722.096 210.955 723.428C210.955 724.748 211.231 725.75 211.783 726.434C212.335 727.118 213.103 727.46 214.087 727.46C214.819 727.46 215.437 727.286 215.941 726.938C216.445 726.578 216.829 726.08 217.093 725.444C217.357 724.796 217.489 724.04 217.489 723.176C217.489 721.88 217.201 720.878 216.625 720.17C216.061 719.462 215.281 719.108 214.285 719.108ZM223.521 732.194L223.611 731.528C223.731 731.552 223.839 731.564 223.935 731.564C224.043 731.576 224.145 731.582 224.241 731.582C224.865 731.582 225.363 731.432 225.735 731.132C226.119 730.832 226.443 730.382 226.707 729.782C226.971 729.194 227.229 728.474 227.481 727.622L227.463 728L224.151 719.144L224.331 719.27L223.089 719.108V718.604L226.761 718.496V719L224.943 719.252L225.033 719.126L227.931 727.244L227.733 727.208L230.595 719.144L230.703 719.27L228.939 719.108V718.604L232.539 718.496V719L231.225 719.27L231.423 719.126L228.147 728.054C227.943 728.63 227.739 729.164 227.535 729.656C227.331 730.16 227.091 730.61 226.815 731.006C226.551 731.402 226.221 731.708 225.825 731.924C225.429 732.152 224.937 732.266 224.349 732.266C224.133 732.266 223.857 732.242 223.521 732.194ZM237.331 718.424C238.579 718.424 239.563 718.838 240.283 719.666C241.015 720.482 241.381 721.628 241.381 723.104C241.381 724.112 241.207 724.994 240.859 725.75C240.511 726.494 240.013 727.076 239.365 727.496C238.717 727.916 237.937 728.126 237.025 728.126C235.789 728.126 234.817 727.73 234.109 726.938C233.401 726.134 233.047 724.982 233.047 723.482C233.047 722.45 233.215 721.556 233.551 720.8C233.899 720.044 234.391 719.462 235.027 719.054C235.675 718.634 236.443 718.424 237.331 718.424ZM237.277 719.108C236.221 719.108 235.399 719.498 234.811 720.278C234.235 721.046 233.947 722.096 233.947 723.428C233.947 724.748 234.223 725.75 234.775 726.434C235.327 727.118 236.095 727.46 237.079 727.46C237.811 727.46 238.429 727.286 238.933 726.938C239.437 726.578 239.821 726.08 240.085 725.444C240.349 724.796 240.481 724.04 240.481 723.176C240.481 721.88 240.193 720.878 239.617 720.17C239.053 719.462 238.273 719.108 237.277 719.108ZM246.965 728.126C246.173 728.126 245.525 727.886 245.021 727.406C244.517 726.926 244.265 726.188 244.265 725.192V719.198L244.427 719.396L242.753 719.108V718.604L245.129 718.496V725.03C245.129 725.846 245.321 726.452 245.705 726.848C246.089 727.232 246.599 727.424 247.235 727.424C247.751 727.424 248.303 727.286 248.891 727.01C249.479 726.734 250.061 726.302 250.637 725.714L250.529 725.966V719.18L250.691 719.396L249.017 719.108V718.604L251.393 718.496V727.37L251.231 727.226L252.923 727.46V727.964L250.727 728.054L250.583 726.272L250.727 726.326C250.127 726.95 249.497 727.406 248.837 727.694C248.177 727.982 247.553 728.126 246.965 728.126ZM254.188 728V727.496L255.862 727.208L255.718 727.406V719.198L255.88 719.396L254.188 719.108V718.604L256.384 718.496L256.528 720.278L256.384 720.224C256.912 719.66 257.434 719.222 257.95 718.91C258.466 718.586 259.036 718.424 259.66 718.424C260.044 718.424 260.44 718.484 260.848 718.604L260.74 720.854H260.164L259.966 719L260.092 719.234C259.996 719.21 259.894 719.192 259.786 719.18C259.678 719.168 259.576 719.162 259.48 719.162C258.94 719.162 258.418 719.318 257.914 719.63C257.422 719.942 256.942 720.362 256.474 720.89L256.582 720.584V727.406L256.402 727.208L258.436 727.496V728H254.188ZM269.482 728.126C268.822 728.126 268.222 727.946 267.682 727.586C267.142 727.214 266.716 726.674 266.404 725.966C266.092 725.258 265.936 724.4 265.936 723.392C265.936 721.772 266.344 720.542 267.16 719.702C267.988 718.85 269.104 718.424 270.508 718.424C270.868 718.424 271.234 718.454 271.606 718.514C271.99 718.562 272.386 718.646 272.794 718.766L272.578 718.874V714.914L272.722 715.094L270.976 714.77V714.284L273.442 714.176V727.406L273.28 727.208L274.972 727.46V727.964L272.794 728.054L272.632 726.524L272.758 726.578C272.206 727.094 271.654 727.484 271.102 727.748C270.562 728 270.022 728.126 269.482 728.126ZM269.734 727.442C270.202 727.442 270.688 727.322 271.192 727.082C271.708 726.83 272.212 726.452 272.704 725.948L272.578 726.29V719.27L272.722 719.504C271.906 719.24 271.156 719.108 270.472 719.108C269.308 719.108 268.408 719.48 267.772 720.224C267.148 720.956 266.836 721.988 266.836 723.32C266.836 724.184 266.962 724.928 267.214 725.552C267.466 726.164 267.814 726.632 268.258 726.956C268.702 727.28 269.194 727.442 269.734 727.442ZM280.443 728.126C279.675 728.126 278.991 727.946 278.391 727.586C277.803 727.226 277.341 726.692 277.005 725.984C276.669 725.276 276.501 724.418 276.501 723.41C276.501 722.402 276.669 721.526 277.005 720.782C277.353 720.026 277.839 719.444 278.463 719.036C279.099 718.628 279.843 718.424 280.695 718.424C281.487 718.424 282.147 718.598 282.675 718.946C283.203 719.294 283.599 719.774 283.863 720.386C284.127 720.998 284.259 721.7 284.259 722.492C284.259 722.588 284.253 722.69 284.241 722.798C284.241 722.894 284.235 723.02 284.223 723.176H277.095V722.51H283.521L283.359 722.618C283.371 721.994 283.293 721.418 283.125 720.89C282.957 720.35 282.669 719.918 282.261 719.594C281.865 719.27 281.325 719.108 280.641 719.108C279.957 719.108 279.369 719.288 278.877 719.648C278.397 719.996 278.025 720.488 277.761 721.124C277.509 721.748 277.383 722.474 277.383 723.302C277.383 724.166 277.515 724.91 277.779 725.534C278.055 726.146 278.433 726.614 278.913 726.938C279.405 727.262 279.975 727.424 280.623 727.424C281.115 727.424 281.637 727.334 282.189 727.154C282.753 726.962 283.323 726.668 283.899 726.272L284.241 726.794C283.593 727.25 282.945 727.586 282.297 727.802C281.649 728.018 281.031 728.126 280.443 728.126ZM287.389 720.8C287.389 721.244 287.521 721.592 287.785 721.844C288.049 722.084 288.385 722.276 288.793 722.42C289.213 722.564 289.651 722.702 290.107 722.834C290.575 722.954 291.013 723.11 291.421 723.302C291.841 723.482 292.177 723.734 292.429 724.058C292.693 724.37 292.825 724.808 292.825 725.372C292.825 725.984 292.657 726.494 292.321 726.902C291.985 727.31 291.529 727.622 290.953 727.838C290.389 728.042 289.759 728.144 289.063 728.144C288.619 728.144 288.181 728.108 287.749 728.036C287.329 727.964 286.891 727.868 286.435 727.748L286.561 725.534H287.119L287.299 727.406L287.155 727.226C287.455 727.298 287.779 727.364 288.127 727.424C288.475 727.472 288.805 727.496 289.117 727.496C289.645 727.496 290.125 727.424 290.557 727.28C290.989 727.136 291.331 726.914 291.583 726.614C291.847 726.314 291.979 725.942 291.979 725.498C291.979 725.042 291.847 724.688 291.583 724.436C291.331 724.172 290.995 723.968 290.575 723.824C290.155 723.668 289.717 723.53 289.261 723.41C288.805 723.278 288.367 723.122 287.947 722.942C287.539 722.762 287.203 722.516 286.939 722.204C286.687 721.892 286.561 721.46 286.561 720.908C286.561 720.344 286.711 719.876 287.011 719.504C287.311 719.132 287.713 718.862 288.217 718.694C288.721 718.514 289.261 718.424 289.837 718.424C290.209 718.424 290.623 718.466 291.079 718.55C291.547 718.622 292.021 718.748 292.501 718.928L292.429 720.728H291.853L291.601 719.18L291.763 719.396C291.103 719.18 290.461 719.072 289.837 719.072C289.141 719.072 288.559 719.216 288.091 719.504C287.623 719.78 287.389 720.212 287.389 720.8ZM297.677 728.126C297.149 728.126 296.723 727.964 296.399 727.64C296.075 727.304 295.913 726.794 295.913 726.11V719.036L296.093 719.198H294.167V718.694L296.093 718.532L295.913 718.73V716.408L296.777 716.282V718.73L296.615 718.55H299.477L299.441 719.198H296.615L296.777 719.036V725.984C296.777 726.488 296.885 726.854 297.101 727.082C297.317 727.31 297.605 727.424 297.965 727.424C298.193 727.424 298.439 727.388 298.703 727.316C298.979 727.232 299.261 727.118 299.549 726.974L299.765 727.514C298.997 727.922 298.301 728.126 297.677 728.126ZM303.216 727.37L303.072 727.208L304.728 727.496V728H300.822V727.496L302.478 727.208L302.352 727.37V719.234L302.478 719.378L300.822 719.108V718.604L303.216 718.496V727.37ZM302.64 716.264C302.436 716.264 302.268 716.198 302.136 716.066C302.016 715.934 301.956 715.754 301.956 715.526C301.956 715.274 302.022 715.082 302.154 714.95C302.286 714.818 302.454 714.752 302.658 714.752C302.874 714.752 303.042 714.818 303.162 714.95C303.294 715.082 303.36 715.274 303.36 715.526C303.36 715.766 303.288 715.952 303.144 716.084C303.012 716.204 302.844 716.264 302.64 716.264ZM305.99 728V727.496L307.682 727.19L307.52 727.388V719.198L307.682 719.396L305.99 719.108V718.604L308.186 718.496L308.33 720.278L308.186 720.224C308.786 719.6 309.416 719.144 310.076 718.856C310.736 718.568 311.36 718.424 311.948 718.424C312.74 718.424 313.388 718.664 313.892 719.144C314.408 719.612 314.66 720.344 314.648 721.34V727.388L314.486 727.19L316.16 727.496V728H312.29V727.496L313.946 727.208L313.784 727.406V721.538C313.784 720.71 313.592 720.104 313.208 719.72C312.824 719.324 312.314 719.126 311.678 719.126C311.174 719.126 310.622 719.264 310.022 719.54C309.434 719.816 308.852 720.248 308.276 720.836L308.384 720.602V727.406L308.222 727.208L309.878 727.496V728H305.99ZM324.331 727.442L324.151 727.208L325.861 727.46V727.964L323.665 728.054L323.539 726.326L323.629 726.38C323.089 726.944 322.501 727.376 321.865 727.676C321.229 727.976 320.617 728.126 320.029 728.126C319.333 728.126 318.757 727.91 318.301 727.478C317.857 727.046 317.635 726.392 317.635 725.516C317.635 724.808 317.779 724.268 318.067 723.896C318.367 723.524 318.769 723.272 319.273 723.14C319.777 723.008 320.347 722.942 320.983 722.942H323.611L323.467 723.086V721.106C323.467 720.398 323.269 719.888 322.873 719.576C322.477 719.264 321.943 719.108 321.271 719.108C320.911 719.108 320.527 719.15 320.119 719.234C319.711 719.318 319.279 719.438 318.823 719.594L319.003 719.378L318.859 721.088H318.229L318.085 719.09C318.709 718.874 319.303 718.712 319.867 718.604C320.431 718.484 320.959 718.424 321.451 718.424C322.339 718.424 323.041 718.622 323.557 719.018C324.073 719.414 324.331 720.062 324.331 720.962V727.442ZM318.517 725.426C318.517 726.11 318.679 726.62 319.003 726.956C319.339 727.28 319.765 727.442 320.281 727.442C320.761 727.442 321.289 727.298 321.865 727.01C322.453 726.722 323.017 726.326 323.557 725.822L323.467 726.11V723.41L323.611 723.554H321.109C320.173 723.554 319.507 723.698 319.111 723.986C318.715 724.274 318.517 724.754 318.517 725.426ZM330.056 728.126C329.528 728.126 329.102 727.964 328.778 727.64C328.454 727.304 328.292 726.794 328.292 726.11V719.036L328.472 719.198H326.546V718.694L328.472 718.532L328.292 718.73V716.408L329.156 716.282V718.73L328.994 718.55H331.856L331.82 719.198H328.994L329.156 719.036V725.984C329.156 726.488 329.264 726.854 329.48 727.082C329.696 727.31 329.984 727.424 330.344 727.424C330.572 727.424 330.818 727.388 331.082 727.316C331.358 727.232 331.64 727.118 331.928 726.974L332.144 727.514C331.376 727.922 330.68 728.126 330.056 728.126ZM335.595 727.37L335.451 727.208L337.107 727.496V728H333.201V727.496L334.857 727.208L334.731 727.37V719.234L334.857 719.378L333.201 719.108V718.604L335.595 718.496V727.37ZM335.019 716.264C334.815 716.264 334.647 716.198 334.515 716.066C334.395 715.934 334.335 715.754 334.335 715.526C334.335 715.274 334.401 715.082 334.533 714.95C334.665 714.818 334.833 714.752 335.037 714.752C335.253 714.752 335.421 714.818 335.541 714.95C335.673 715.082 335.739 715.274 335.739 715.526C335.739 715.766 335.667 715.952 335.523 716.084C335.391 716.204 335.223 716.264 335.019 716.264ZM342.905 718.424C344.153 718.424 345.137 718.838 345.857 719.666C346.589 720.482 346.955 721.628 346.955 723.104C346.955 724.112 346.781 724.994 346.433 725.75C346.085 726.494 345.587 727.076 344.939 727.496C344.291 727.916 343.511 728.126 342.599 728.126C341.363 728.126 340.391 727.73 339.683 726.938C338.975 726.134 338.621 724.982 338.621 723.482C338.621 722.45 338.789 721.556 339.125 720.8C339.473 720.044 339.965 719.462 340.601 719.054C341.249 718.634 342.017 718.424 342.905 718.424ZM342.851 719.108C341.795 719.108 340.973 719.498 340.385 720.278C339.809 721.046 339.521 722.096 339.521 723.428C339.521 724.748 339.797 725.75 340.349 726.434C340.901 727.118 341.669 727.46 342.653 727.46C343.385 727.46 344.003 727.286 344.507 726.938C345.011 726.578 345.395 726.08 345.659 725.444C345.923 724.796 346.055 724.04 346.055 723.176C346.055 721.88 345.767 720.878 345.191 720.17C344.627 719.462 343.847 719.108 342.851 719.108ZM348.723 728V727.496L350.415 727.19L350.253 727.388V719.198L350.415 719.396L348.723 719.108V718.604L350.919 718.496L351.063 720.278L350.919 720.224C351.519 719.6 352.149 719.144 352.809 718.856C353.469 718.568 354.093 718.424 354.681 718.424C355.473 718.424 356.121 718.664 356.625 719.144C357.141 719.612 357.393 720.344 357.381 721.34V727.388L357.219 727.19L358.893 727.496V728H355.023V727.496L356.679 727.208L356.517 727.406V721.538C356.517 720.71 356.325 720.104 355.941 719.72C355.557 719.324 355.047 719.126 354.411 719.126C353.907 719.126 353.355 719.264 352.755 719.54C352.167 719.816 351.585 720.248 351.009 720.836L351.117 720.602V727.406L350.955 727.208L352.611 727.496V728H348.723ZM360.438 727.352C360.438 727.148 360.504 726.986 360.636 726.866C360.78 726.734 360.942 726.668 361.122 726.668C361.326 726.668 361.488 726.734 361.608 726.866C361.74 726.986 361.806 727.148 361.806 727.352C361.806 727.568 361.734 727.736 361.59 727.856C361.458 727.976 361.302 728.036 361.122 728.036C360.918 728.036 360.75 727.976 360.618 727.856C360.498 727.736 360.438 727.568 360.438 727.352Z" fill="black"/>
</g>
<defs>
<filter id="filter0_d_6_2" x="124" y="178" width="199" height="356.013" filterUnits="userSpaceOnUse" color-interpolation-filters="sRGB">
<feFlood flood-opacity="0" result="BackgroundImageFix"/>
<feColorMatrix in="SourceAlpha" type="matrix" values="0 0 0 0 0 0 0 0 0 0 0 0 0 0 0 0 0 0 127 0" result="hardAlpha"/>
<feOffset dx="10" dy="10"/>
<feGaussianBlur stdDeviation="10"/>
<feColorMatrix type="matrix" values="0 0 0 0 0 0 0 0 0 0 0 0 0 0 0 0 0 0 0.25 0"/>
<feBlend mode="normal" in2="BackgroundImageFix" result="effect1_dropShadow_6_2"/>
<feBlend mode="normal" in="SourceGraphic" in2="effect1_dropShadow_6_2" result="shape"/>
</filter>
<filter id="filter1_d_6_2" x="154.378" y="221.291" width="117.375" height="143.647" filterUnits="userSpaceOnUse" color-interpolation-filters="sRGB">
<feFlood flood-opacity="0" result="BackgroundImageFix"/>
<feColorMatrix in="SourceAlpha" type="matrix" values="0 0 0 0 0 0 0 0 0 0 0 0 0 0 0 0 0 0 127 0" result="hardAlpha"/>
<feOffset dy="4"/>
<feGaussianBlur stdDeviation="2"/>
<feComposite in2="hardAlpha" operator="out"/>
<feColorMatrix type="matrix" values="0 0 0 0 0 0 0 0 0 0 0 0 0 0 0 0 0 0 0.25 0"/>
<feBlend mode="normal" in2="BackgroundImageFix" result="effect1_dropShadow_6_2"/>
<feBlend mode="normal" in="SourceGraphic" in2="effect1_dropShadow_6_2" result="shape"/>
</filter>
<filter id="filter2_d_6_2" x="154.378" y="295.491" width="117.375" height="143.647" filterUnits="userSpaceOnUse" color-interpolation-filters="sRGB">
<feFlood flood-opacity="0" result="BackgroundImageFix"/>
<feColorMatrix in="SourceAlpha" type="matrix" values="0 0 0 0 0 0 0 0 0 0 0 0 0 0 0 0 0 0 127 0" result="hardAlpha"/>
<feOffset dy="4"/>
<feGaussianBlur stdDeviation="2"/>
<feComposite in2="hardAlpha" operator="out"/>
<feColorMatrix type="matrix" values="0 0 0 0 0 0 0 0 0 0 0 0 0 0 0 0 0 0 0.25 0"/>
<feBlend mode="normal" in2="BackgroundImageFix" result="effect1_dropShadow_6_2"/>
<feBlend mode="normal" in="SourceGraphic" in2="effect1_dropShadow_6_2" result="shape"/>
</filter>
<filter id="filter3_d_6_2" x="154.378" y="316.691" width="117.375" height="143.647" filterUnits="userSpaceOnUse" color-interpolation-filters="sRGB">
<feFlood flood-opacity="0" result="BackgroundImageFix"/>
<feColorMatrix in="SourceAlpha" type="matrix" values="0 0 0 0 0 0 0 0 0 0 0 0 0 0 0 0 0 0 127 0" result="hardAlpha"/>
<feOffset dy="4"/>
<feGaussianBlur stdDeviation="2"/>
<feComposite in2="hardAlpha" operator="out"/>
<feColorMatrix type="matrix" values="0 0 0 0 0 0 0 0 0 0 0 0 0 0 0 0 0 0 0.25 0"/>
<feBlend mode="normal" in2="BackgroundImageFix" result="effect1_dropShadow_6_2"/>
<feBlend mode="normal" in="SourceGraphic" in2="effect1_dropShadow_6_2" result="shape"/>
</filter>
<filter id="filter4_d_6_2" x="154.378" y="337.891" width="117.375" height="143.647" filterUnits="userSpaceOnUse" color-interpolation-filters="sRGB">
<feFlood flood-opacity="0" result="BackgroundImageFix"/>
<feColorMatrix in="SourceAlpha" type="matrix" values="0 0 0 0 0 0 0 0 0 0 0 0 0 0 0 0 0 0 127 0" result="hardAlpha"/>
<feOffset dy="4"/>
<feGaussianBlur stdDeviation="2"/>
<feComposite in2="hardAlpha" operator="out"/>
<feColorMatrix type="matrix" values="0 0 0 0 0 0 0 0 0 0 0 0 0 0 0 0 0 0 0.25 0"/>
<feBlend mode="normal" in2="BackgroundImageFix" result="effect1_dropShadow_6_2"/>
<feBlend mode="normal" in="SourceGraphic" in2="effect1_dropShadow_6_2" result="shape"/>
</filter>
<filter id="filter5_d_6_2" x="55.54" y="714.176" width="310.266" height="26.09" filterUnits="userSpaceOnUse" color-interpolation-filters="sRGB">
<feFlood flood-opacity="0" result="BackgroundImageFix"/>
<feColorMatrix in="SourceAlpha" type="matrix" values="0 0 0 0 0 0 0 0 0 0 0 0 0 0 0 0 0 0 127 0" result="hardAlpha"/>
<feOffset dy="4"/>
<feGaussianBlur stdDeviation="2"/>
<feComposite in2="hardAlpha" operator="out"/>
<feColorMatrix type="matrix" values="0 0 0 0 0 0 0 0 0 0 0 0 0 0 0 0 0 0 0.25 0"/>
<feBlend mode="normal" in2="BackgroundImageFix" result="effect1_dropShadow_6_2"/>
<feBlend mode="normal" in="SourceGraphic" in2="effect1_dropShadow_6_2" result="shape"/>
</filter>
<linearGradient id="paint0_linear_6_2" x1="213.169" y1="156.863" x2="213.169" y2="408.613" gradientUnits="userSpaceOnUse">
<stop stop-color="#169F00"/>
<stop offset="1" stop-color="white"/>
</linearGradient>
<linearGradient id="paint1_linear_6_2" x1="213.169" y1="231.062" x2="213.169" y2="482.812" gradientUnits="userSpaceOnUse">
<stop stop-color="#93D289"/>
<stop offset="0.536458" stop-color="#92D288"/>
<stop offset="1" stop-color="white"/>
</linearGradient>
<linearGradient id="paint2_linear_6_2" x1="213.169" y1="252.262" x2="213.169" y2="504.012" gradientUnits="userSpaceOnUse">
<stop stop-color="#FF5C00"/>
<stop offset="1" stop-color="white"/>
</linearGradient>
<linearGradient id="paint3_linear_6_2" x1="213.169" y1="273.462" x2="213.169" y2="525.213" gradientUnits="userSpaceOnUse">
<stop stop-color="#FF0000"/>
<stop offset="1" stop-color="#FF7B7B"/>
</linearGradient>
<linearGradient id="paint4_linear_6_2" x1="213.5" y1="578" x2="213.5" y2="690" gradientUnits="userSpaceOnUse">
<stop stop-color="#0F6C00"/>
<stop offset="1" stop-color="#0F6C00" stop-opacity="0"/>
</linearGradient>
<linearGradient id="paint5_linear_6_2" x1="213.5" y1="578" x2="213.5" y2="690" gradientUnits="userSpaceOnUse">
<stop stop-color="#FF5C00"/>
<stop offset="0.640625" stop-color="#FF5C00" stop-opacity="0.819923"/>
<stop offset="0.90625" stop-color="#FF5C00" stop-opacity="0.510417"/>
<stop offset="1" stop-color="#FF5C00" stop-opacity="0"/>
</linearGradient>
<linearGradient id="paint6_linear_6_2" x1="213.5" y1="578" x2="213.5" y2="690" gradientUnits="userSpaceOnUse">
<stop stop-color="#FF0000"/>
<stop offset="0.692708" stop-color="#FF0000" stop-opacity="0.699346"/>
<stop offset="0.796875" stop-color="#FF0000" stop-opacity="0.5"/>
<stop offset="1" stop-color="#FF0000" stop-opacity="0"/>
</linearGradient>
</defs>
</svg>
