<svg width="428" height="926" viewBox="0 0 428 926" fill="none" xmlns="http://www.w3.org/2000/svg">
<rect width="428" height="926" fill="#EBEBEB"/>
<path d="M69.21 93H72.21V114H69.21V93ZM57.15 114H54.15V93H57.15V114ZM69.48 104.64H56.85V102.03H69.48V104.64ZM85.1557 114.18C83.4557 114.18 81.9557 113.83 80.6557 113.13C79.3757 112.43 78.3757 111.47 77.6557 110.25C76.9557 109.03 76.6057 107.63 76.6057 106.05C76.6057 104.47 76.9457 103.07 77.6257 101.85C78.3257 100.63 79.2757 99.68 80.4757 99C81.6957 98.3 83.0657 97.95 84.5857 97.95C86.1257 97.95 87.4857 98.29 88.6657 98.97C89.8457 99.65 90.7657 100.61 91.4257 101.85C92.1057 103.07 92.4457 104.5 92.4457 106.14C92.4457 106.26 92.4357 106.4 92.4157 106.56C92.4157 106.72 92.4057 106.87 92.3857 107.01H78.8557V104.94H90.8857L89.7157 105.66C89.7357 104.64 89.5257 103.73 89.0857 102.93C88.6457 102.13 88.0357 101.51 87.2557 101.07C86.4957 100.61 85.6057 100.38 84.5857 100.38C83.5857 100.38 82.6957 100.61 81.9157 101.07C81.1357 101.51 80.5257 102.14 80.0857 102.96C79.6457 103.76 79.4257 104.68 79.4257 105.72V106.2C79.4257 107.26 79.6657 108.21 80.1457 109.05C80.6457 109.87 81.3357 110.51 82.2157 110.97C83.0957 111.43 84.1057 111.66 85.2457 111.66C86.1857 111.66 87.0357 111.5 87.7957 111.18C88.5757 110.86 89.2557 110.38 89.8357 109.74L91.4257 111.6C90.7057 112.44 89.8057 113.08 88.7257 113.52C87.6657 113.96 86.4757 114.18 85.1557 114.18ZM96.4448 114V91.74H99.3248V114H96.4448ZM104.824 114V91.74H107.704V114H104.824ZM120.013 114.18C118.413 114.18 116.993 113.83 115.753 113.13C114.513 112.43 113.533 111.47 112.813 110.25C112.093 109.01 111.733 107.61 111.733 106.05C111.733 104.47 112.093 103.07 112.813 101.85C113.533 100.63 114.513 99.68 115.753 99C116.993 98.3 118.413 97.95 120.013 97.95C121.593 97.95 123.003 98.3 124.243 99C125.503 99.68 126.483 100.63 127.183 101.85C127.903 103.05 128.263 104.45 128.263 106.05C128.263 107.63 127.903 109.03 127.183 110.25C126.483 111.47 125.503 112.43 124.243 113.13C123.003 113.83 121.593 114.18 120.013 114.18ZM120.013 111.66C121.033 111.66 121.943 111.43 122.743 110.97C123.563 110.51 124.203 109.86 124.663 109.02C125.123 108.16 125.353 107.17 125.353 106.05C125.353 104.91 125.123 103.93 124.663 103.11C124.203 102.27 123.563 101.62 122.743 101.16C121.943 100.7 121.033 100.47 120.013 100.47C118.993 100.47 118.083 100.7 117.283 101.16C116.483 101.62 115.843 102.27 115.363 103.11C114.883 103.93 114.643 104.91 114.643 106.05C114.643 107.17 114.883 108.16 115.363 109.02C115.843 109.86 116.483 110.51 117.283 110.97C118.083 111.43 118.993 111.66 120.013 111.66ZM132.396 107.37L131.856 93H135.246L134.676 107.37H132.396ZM133.566 114.18C133.006 114.18 132.536 113.99 132.156 113.61C131.776 113.23 131.586 112.78 131.586 112.26C131.586 111.7 131.776 111.24 132.156 110.88C132.536 110.52 133.006 110.34 133.566 110.34C134.126 110.34 134.586 110.52 134.946 110.88C135.306 111.24 135.486 111.7 135.486 112.26C135.486 112.78 135.306 113.23 134.946 113.61C134.586 113.99 134.126 114.18 133.566 114.18ZM151.45 114.24C150.21 114.24 149.05 113.98 147.97 113.46C146.89 112.94 146.01 112.19 145.33 111.21L147.07 109.17C147.65 109.97 148.3 110.59 149.02 111.03C149.76 111.45 150.57 111.66 151.45 111.66C153.85 111.66 155.05 110.24 155.05 107.4V95.61H147.46V93H158.02V107.25C158.02 109.59 157.46 111.34 156.34 112.5C155.24 113.66 153.61 114.24 151.45 114.24ZM170.4 114.18C169.04 114.18 167.84 113.93 166.8 113.43C165.78 112.93 164.98 112.17 164.4 111.15C163.84 110.11 163.56 108.81 163.56 107.25V98.1H166.44V106.92C166.44 108.48 166.81 109.65 167.55 110.43C168.31 111.21 169.37 111.6 170.73 111.6C171.73 111.6 172.6 111.4 173.34 111C174.08 110.58 174.65 109.98 175.05 109.2C175.45 108.4 175.65 107.44 175.65 106.32V98.1H178.53V114H175.8V109.71L176.25 110.85C175.73 111.91 174.95 112.73 173.91 113.31C172.87 113.89 171.7 114.18 170.4 114.18ZM188.573 114.18C187.253 114.18 185.993 114 184.793 113.64C183.613 113.28 182.683 112.84 182.003 112.32L183.203 110.04C183.883 110.5 184.723 110.89 185.723 111.21C186.723 111.53 187.743 111.69 188.783 111.69C190.123 111.69 191.083 111.5 191.663 111.12C192.263 110.74 192.563 110.21 192.563 109.53C192.563 109.03 192.383 108.64 192.023 108.36C191.663 108.08 191.183 107.87 190.583 107.73C190.003 107.59 189.353 107.47 188.633 107.37C187.913 107.25 187.193 107.11 186.473 106.95C185.753 106.77 185.093 106.53 184.493 106.23C183.893 105.91 183.413 105.48 183.053 104.94C182.693 104.38 182.513 103.64 182.513 102.72C182.513 101.76 182.783 100.92 183.323 100.2C183.863 99.48 184.623 98.93 185.603 98.55C186.603 98.15 187.783 97.95 189.143 97.95C190.183 97.95 191.233 98.08 192.293 98.34C193.373 98.58 194.253 98.93 194.933 99.39L193.703 101.67C192.983 101.19 192.233 100.86 191.453 100.68C190.673 100.5 189.893 100.41 189.113 100.41C187.853 100.41 186.913 100.62 186.293 101.04C185.673 101.44 185.363 101.96 185.363 102.6C185.363 103.14 185.543 103.56 185.903 103.86C186.283 104.14 186.763 104.36 187.343 104.52C187.943 104.68 188.603 104.82 189.323 104.94C190.043 105.04 190.763 105.18 191.483 105.36C192.203 105.52 192.853 105.75 193.433 106.05C194.033 106.35 194.513 106.77 194.873 107.31C195.253 107.85 195.443 108.57 195.443 109.47C195.443 110.43 195.163 111.26 194.603 111.96C194.043 112.66 193.253 113.21 192.233 113.61C191.213 113.99 189.993 114.18 188.573 114.18ZM204.503 114.18C202.903 114.18 201.663 113.75 200.783 112.89C199.903 112.03 199.463 110.8 199.463 109.2V94.62H202.343V109.08C202.343 109.94 202.553 110.6 202.973 111.06C203.413 111.52 204.033 111.75 204.833 111.75C205.733 111.75 206.483 111.5 207.083 111L207.983 113.07C207.543 113.45 207.013 113.73 206.393 113.91C205.793 114.09 205.163 114.18 204.503 114.18ZM196.763 100.47V98.1H206.903V100.47H196.763ZM211.464 114V98.1H214.344V114H211.464ZM212.904 95.04C212.344 95.04 211.874 94.86 211.494 94.5C211.134 94.14 210.954 93.7 210.954 93.18C210.954 92.64 211.134 92.19 211.494 91.83C211.874 91.47 212.344 91.29 212.904 91.29C213.464 91.29 213.924 91.47 214.284 91.83C214.664 92.17 214.854 92.6 214.854 93.12C214.854 93.66 214.674 94.12 214.314 94.5C213.954 94.86 213.484 95.04 212.904 95.04ZM228.333 97.95C229.633 97.95 230.773 98.2 231.753 98.7C232.753 99.2 233.533 99.96 234.093 100.98C234.653 102 234.933 103.29 234.933 104.85V114H232.053V105.18C232.053 103.64 231.673 102.48 230.913 101.7C230.173 100.92 229.123 100.53 227.763 100.53C226.743 100.53 225.853 100.73 225.093 101.13C224.333 101.53 223.743 102.12 223.323 102.9C222.923 103.68 222.723 104.65 222.723 105.81V114H219.843V98.1H222.603V102.39L222.153 101.25C222.673 100.21 223.473 99.4 224.553 98.82C225.633 98.24 226.893 97.95 228.333 97.95ZM247.343 114.18C245.643 114.18 244.143 113.83 242.843 113.13C241.563 112.43 240.563 111.47 239.843 110.25C239.143 109.03 238.793 107.63 238.793 106.05C238.793 104.47 239.133 103.07 239.813 101.85C240.513 100.63 241.463 99.68 242.663 99C243.883 98.3 245.253 97.95 246.773 97.95C248.313 97.95 249.673 98.29 250.853 98.97C252.033 99.65 252.953 100.61 253.613 101.85C254.293 103.07 254.633 104.5 254.633 106.14C254.633 106.26 254.623 106.4 254.603 106.56C254.603 106.72 254.593 106.87 254.573 107.01H241.043V104.94H253.073L251.903 105.66C251.923 104.64 251.713 103.73 251.273 102.93C250.833 102.13 250.223 101.51 249.443 101.07C248.683 100.61 247.793 100.38 246.773 100.38C245.773 100.38 244.883 100.61 244.103 101.07C243.323 101.51 242.713 102.14 242.273 102.96C241.833 103.76 241.613 104.68 241.613 105.72V106.2C241.613 107.26 241.853 108.21 242.333 109.05C242.833 109.87 243.523 110.51 244.403 110.97C245.283 111.43 246.293 111.66 247.433 111.66C248.373 111.66 249.223 111.5 249.983 111.18C250.763 110.86 251.443 110.38 252.023 109.74L253.613 111.6C252.893 112.44 251.993 113.08 250.913 113.52C249.853 113.96 248.663 114.18 247.343 114.18Z" fill="#002232"/>
<g filter="url(#filter0_dd_10_517)">
<circle cx="364.5" cy="102.5" r="22.5" fill="#DEEEE6" fill-opacity="0.8" shape-rendering="crispEdges"/>
</g>
<path d="M365 106.5C366.933 106.5 368.5 104.933 368.5 103C368.5 101.067 366.933 99.5 365 99.5C363.067 99.5 361.5 101.067 361.5 103C361.5 104.933 363.067 106.5 365 106.5Z" stroke="#159A9C" stroke-width="2.33333" stroke-linecap="round" stroke-linejoin="round"/>
<path d="M373.633 106.5C373.478 106.852 373.432 107.242 373.5 107.621C373.569 107.999 373.749 108.348 374.018 108.623L374.088 108.693C374.305 108.91 374.477 109.167 374.595 109.451C374.712 109.734 374.773 110.038 374.773 110.344C374.773 110.651 374.712 110.954 374.595 111.238C374.477 111.521 374.305 111.778 374.088 111.995C373.872 112.212 373.614 112.384 373.331 112.501C373.048 112.619 372.744 112.679 372.437 112.679C372.131 112.679 371.827 112.619 371.544 112.501C371.261 112.384 371.003 112.212 370.787 111.995L370.717 111.925C370.442 111.656 370.092 111.476 369.714 111.407C369.336 111.338 368.945 111.385 368.593 111.54C368.248 111.688 367.954 111.933 367.747 112.246C367.539 112.559 367.428 112.926 367.427 113.302V113.5C367.427 114.119 367.181 114.712 366.743 115.15C366.306 115.588 365.712 115.833 365.093 115.833C364.474 115.833 363.881 115.588 363.443 115.15C363.006 114.712 362.76 114.119 362.76 113.5V113.395C362.751 113.009 362.626 112.634 362.401 112.32C362.177 112.006 361.862 111.767 361.5 111.633C361.148 111.478 360.758 111.432 360.379 111.5C360.001 111.569 359.652 111.749 359.377 112.018L359.307 112.088C359.09 112.305 358.833 112.477 358.549 112.595C358.266 112.712 357.962 112.773 357.656 112.773C357.349 112.773 357.046 112.712 356.762 112.595C356.479 112.477 356.222 112.305 356.005 112.088C355.788 111.872 355.616 111.614 355.498 111.331C355.381 111.048 355.321 110.744 355.321 110.438C355.321 110.131 355.381 109.827 355.498 109.544C355.616 109.261 355.788 109.003 356.005 108.787L356.075 108.717C356.344 108.442 356.524 108.093 356.593 107.714C356.662 107.336 356.615 106.945 356.46 106.593C356.312 106.248 356.067 105.954 355.754 105.747C355.44 105.539 355.074 105.428 354.698 105.427H354.5C353.881 105.427 353.288 105.181 352.85 104.743C352.412 104.306 352.167 103.712 352.167 103.093C352.167 102.475 352.412 101.881 352.85 101.443C353.288 101.006 353.881 100.76 354.5 100.76H354.605C354.991 100.751 355.366 100.626 355.68 100.401C355.994 100.177 356.233 99.8625 356.367 99.5C356.522 99.1481 356.568 98.7578 356.5 98.3793C356.431 98.0009 356.251 97.6516 355.982 97.3767L355.912 97.3067C355.695 97.09 355.523 96.8326 355.405 96.5494C355.288 96.2661 355.227 95.9625 355.227 95.6559C355.227 95.3492 355.288 95.0456 355.405 94.7623C355.523 94.4791 355.695 94.2217 355.912 94.005C356.128 93.7881 356.386 93.616 356.669 93.4985C356.952 93.3811 357.256 93.3207 357.562 93.3207C357.869 93.3207 358.173 93.3811 358.456 93.4985C358.739 93.616 358.997 93.7881 359.213 94.005L359.283 94.075C359.558 94.344 359.907 94.5244 360.286 94.593C360.664 94.6616 361.055 94.6153 361.407 94.46H361.5C361.845 94.3121 362.139 94.0666 362.347 93.7536C362.554 93.4406 362.665 93.0738 362.667 92.6984V92.5C362.667 91.8812 362.912 91.2877 363.35 90.8501C363.788 90.4125 364.381 90.1667 365 90.1667C365.619 90.1667 366.212 90.4125 366.65 90.8501C367.087 91.2877 367.333 91.8812 367.333 92.5V92.605C367.335 92.9804 367.446 93.3472 367.653 93.6602C367.861 93.9732 368.155 94.2188 368.5 94.3667C368.852 94.522 369.242 94.5683 369.621 94.4997C369.999 94.4311 370.348 94.2506 370.623 93.9817L370.693 93.9117C370.91 93.6947 371.167 93.5226 371.451 93.4052C371.734 93.2878 372.037 93.2274 372.344 93.2274C372.651 93.2274 372.954 93.2878 373.238 93.4052C373.521 93.5226 373.778 93.6947 373.995 93.9117C374.212 94.1284 374.384 94.3857 374.501 94.669C374.619 94.9523 374.679 95.2559 374.679 95.5625C374.679 95.8692 374.619 96.1728 374.501 96.456C374.384 96.7393 374.212 96.9967 373.995 97.2134L373.925 97.2834C373.656 97.5583 373.476 97.9075 373.407 98.286C373.338 98.6645 373.385 99.0548 373.54 99.4067V99.5C373.688 99.8451 373.933 100.139 374.246 100.347C374.559 100.554 374.926 100.665 375.302 100.667H375.5C376.119 100.667 376.712 100.913 377.15 101.35C377.587 101.788 377.833 102.381 377.833 103C377.833 103.619 377.587 104.212 377.15 104.65C376.712 105.088 376.119 105.333 375.5 105.333H375.395C375.02 105.335 374.653 105.446 374.34 105.653C374.027 105.861 373.781 106.155 373.633 106.5V106.5Z" stroke="#159A9C" stroke-width="2.33333" stroke-linecap="round" stroke-linejoin="round"/>
<g filter="url(#filter1_dd_10_517)">
<rect x="87" y="532" width="253" height="184" rx="10" fill="#EBEBEB"/>
</g>
<path d="M176.275 560.568C175.763 560.216 175.147 559.936 174.427 559.728C173.723 559.504 172.915 559.392 172.003 559.392C171.139 559.392 170.395 559.528 169.771 559.8C169.163 560.072 168.667 560.456 168.283 560.952C167.899 561.448 167.611 562.048 167.419 562.752C167.243 563.44 167.155 564.208 167.155 565.056C167.155 566.992 167.563 568.456 168.379 569.448C169.211 570.44 170.403 570.936 171.955 570.936C172.915 570.936 173.787 570.792 174.571 570.504C175.371 570.216 176.027 569.864 176.539 569.448L177.259 571.824C176.619 572.208 175.843 572.552 174.931 572.856C174.035 573.144 173.019 573.288 171.883 573.288C170.571 573.288 169.435 573.072 168.475 572.64C167.515 572.208 166.715 571.624 166.075 570.888C165.451 570.152 164.987 569.304 164.683 568.344C164.379 567.368 164.227 566.336 164.227 565.248C164.227 564.112 164.395 563.048 164.731 562.056C165.067 561.064 165.563 560.2 166.219 559.464C166.891 558.712 167.715 558.12 168.691 557.688C169.683 557.256 170.835 557.04 172.147 557.04C173.011 557.04 173.875 557.136 174.739 557.328C175.603 557.504 176.347 557.752 176.971 558.072L176.275 560.568ZM184.488 561.6C185.896 561.6 186.984 561.96 187.752 562.68C188.52 563.384 188.904 564.384 188.904 565.68C188.904 565.856 188.888 566.048 188.856 566.256C188.84 566.448 188.808 566.64 188.76 566.832C188.728 567.024 188.68 567.2 188.616 567.36C188.568 567.504 188.512 567.624 188.448 567.72H181.464C181.496 568.2 181.584 568.656 181.728 569.088C181.872 569.504 182.08 569.872 182.352 570.192C182.624 570.496 182.952 570.744 183.336 570.936C183.736 571.112 184.2 571.2 184.728 571.2C185.32 571.2 185.944 571.088 186.6 570.864C187.272 570.64 187.84 570.36 188.304 570.024L188.736 571.992C188.528 572.12 188.272 572.264 187.968 572.424C187.664 572.568 187.32 572.704 186.936 572.832C186.552 572.96 186.136 573.064 185.688 573.144C185.256 573.24 184.8 573.288 184.32 573.288C183.424 573.288 182.632 573.136 181.944 572.832C181.256 572.512 180.68 572.088 180.216 571.56C179.752 571.016 179.4 570.392 179.16 569.688C178.92 568.984 178.8 568.248 178.8 567.48C178.8 566.696 178.92 565.952 179.16 565.248C179.416 564.528 179.784 563.896 180.264 563.352C180.744 562.808 181.336 562.384 182.04 562.08C182.76 561.76 183.576 561.6 184.488 561.6ZM184.416 563.664C183.744 563.664 183.168 563.864 182.688 564.264C182.224 564.648 181.888 565.176 181.68 565.848H186.264C186.28 565.8 186.288 565.744 186.288 565.68C186.304 565.616 186.312 565.536 186.312 565.44C186.312 564.928 186.136 564.504 185.784 564.168C185.432 563.832 184.976 563.664 184.416 563.664ZM197.662 573.288C196.798 573.288 196.078 573.112 195.502 572.76C194.942 572.408 194.438 571.984 193.99 571.488H193.894L193.702 573H191.59V555.24H194.206V563.064C194.574 562.6 195.062 562.24 195.67 561.984C196.278 561.728 196.966 561.6 197.734 561.6C198.566 561.6 199.294 561.76 199.918 562.08C200.542 562.4 201.062 562.824 201.478 563.352C201.894 563.88 202.198 564.496 202.39 565.2C202.598 565.888 202.702 566.608 202.702 567.36C202.702 568.208 202.582 568.992 202.342 569.712C202.102 570.432 201.758 571.056 201.31 571.584C200.878 572.112 200.35 572.528 199.726 572.832C199.102 573.136 198.414 573.288 197.662 573.288ZM197.326 571.296C197.79 571.296 198.19 571.184 198.526 570.96C198.878 570.736 199.166 570.448 199.39 570.096C199.63 569.728 199.806 569.312 199.918 568.848C200.03 568.368 200.086 567.888 200.086 567.408C200.086 566.912 200.022 566.44 199.894 565.992C199.782 565.528 199.598 565.12 199.342 564.768C199.102 564.416 198.79 564.144 198.406 563.952C198.038 563.744 197.606 563.64 197.11 563.64C196.646 563.64 196.166 563.752 195.67 563.976C195.174 564.184 194.686 564.584 194.206 565.176V569.784C194.382 570.024 194.598 570.24 194.854 570.432C195.11 570.608 195.374 570.76 195.646 570.888C195.934 571.016 196.222 571.12 196.51 571.2C196.798 571.264 197.07 571.296 197.326 571.296ZM207.915 561.96V569.136C207.915 569.792 208.083 570.296 208.419 570.648C208.771 570.984 209.219 571.152 209.763 571.152C210.323 571.152 210.835 570.968 211.299 570.6C211.763 570.216 212.107 569.672 212.331 568.968V561.96H214.995V573H212.931L212.787 571.464H212.691C212.515 571.832 212.291 572.136 212.019 572.376C211.747 572.6 211.443 572.784 211.107 572.928C210.787 573.056 210.451 573.144 210.099 573.192C209.747 573.256 209.403 573.288 209.067 573.288C208.539 573.288 208.043 573.224 207.579 573.096C207.131 572.968 206.731 572.76 206.379 572.472C206.043 572.168 205.771 571.776 205.563 571.296C205.371 570.8 205.275 570.192 205.275 569.472V561.96H207.915ZM235.783 560.568C235.271 560.216 234.655 559.936 233.935 559.728C233.231 559.504 232.423 559.392 231.511 559.392C230.647 559.392 229.903 559.528 229.279 559.8C228.671 560.072 228.175 560.456 227.791 560.952C227.407 561.448 227.119 562.048 226.927 562.752C226.751 563.44 226.663 564.208 226.663 565.056C226.663 566.992 227.071 568.456 227.887 569.448C228.719 570.44 229.911 570.936 231.463 570.936C232.423 570.936 233.295 570.792 234.079 570.504C234.879 570.216 235.535 569.864 236.047 569.448L236.767 571.824C236.127 572.208 235.351 572.552 234.439 572.856C233.543 573.144 232.527 573.288 231.391 573.288C230.079 573.288 228.943 573.072 227.983 572.64C227.023 572.208 226.223 571.624 225.583 570.888C224.959 570.152 224.495 569.304 224.191 568.344C223.887 567.368 223.735 566.336 223.735 565.248C223.735 564.112 223.903 563.048 224.239 562.056C224.575 561.064 225.071 560.2 225.727 559.464C226.399 558.712 227.223 558.12 228.199 557.688C229.191 557.256 230.343 557.04 231.655 557.04C232.519 557.04 233.383 557.136 234.247 557.328C235.111 557.504 235.855 557.752 236.479 558.072L235.783 560.568ZM241.901 573H239.261V561.96H241.901V573ZM238.877 558.408C238.877 558.184 238.917 557.968 238.997 557.76C239.093 557.552 239.221 557.368 239.381 557.208C239.541 557.032 239.717 556.896 239.909 556.8C240.117 556.704 240.341 556.656 240.581 556.656C240.805 556.656 241.021 556.704 241.229 556.8C241.437 556.896 241.621 557.032 241.781 557.208C241.957 557.368 242.093 557.552 242.189 557.76C242.285 557.968 242.333 558.184 242.333 558.408C242.333 558.648 242.285 558.872 242.189 559.08C242.093 559.272 241.957 559.448 241.781 559.608C241.621 559.768 241.437 559.896 241.229 559.992C241.021 560.072 240.805 560.112 240.581 560.112C240.117 560.112 239.717 559.944 239.381 559.608C239.045 559.272 238.877 558.872 238.877 558.408ZM245.719 563.568H244.351V562.128L245.911 561.888L246.343 558.624H248.359V561.96H250.471V563.568H248.359V569.904C248.359 570.384 248.407 570.712 248.503 570.888C248.599 571.048 248.783 571.128 249.055 571.128C249.263 571.128 249.471 571.088 249.679 571.008C249.887 570.928 250.191 570.776 250.591 570.552L251.023 572.448C250.719 572.704 250.287 572.904 249.727 573.048C249.183 573.208 248.639 573.288 248.095 573.288C247.615 573.288 247.215 573.224 246.895 573.096C246.591 572.968 246.351 572.784 246.175 572.544C245.999 572.288 245.879 571.984 245.815 571.632C245.751 571.28 245.719 570.888 245.719 570.456V563.568ZM257.959 569.808L261.031 561.96H263.575L259.015 573.096C258.791 573.656 258.479 574.28 258.079 574.968C257.695 575.672 257.231 576.328 256.687 576.936C256.159 577.56 255.559 578.08 254.887 578.496C254.215 578.928 253.487 579.144 252.703 579.144C252.575 579.144 252.479 579.136 252.415 579.12C252.351 579.12 252.279 579.104 252.199 579.072L251.743 577.008C251.791 577.024 251.847 577.04 251.911 577.056C251.975 577.072 252.111 577.08 252.319 577.08C252.623 577.08 252.919 577.048 253.207 576.984C253.511 576.92 253.815 576.792 254.119 576.6C254.695 576.232 255.191 575.72 255.607 575.064C256.039 574.408 256.455 573.6 256.855 572.64L251.359 561.96H254.119L257.959 569.808Z" fill="#117B7D"/>
<path d="M164.448 593.06C165.984 593.06 167.34 593.396 168.516 594.068C169.716 594.716 170.724 595.592 171.54 596.696C172.356 597.8 172.968 599.084 173.376 600.548C173.808 601.988 174.024 603.512 174.024 605.12C174.024 606.728 173.808 608.276 173.376 609.764C172.944 611.228 172.308 612.536 171.468 613.688C170.652 614.816 169.632 615.728 168.408 616.424C167.184 617.096 165.78 617.432 164.196 617.432C162.636 617.432 161.268 617.108 160.092 616.46C158.94 615.812 157.98 614.936 157.212 613.832C156.444 612.728 155.856 611.456 155.448 610.016C155.064 608.552 154.872 607.016 154.872 605.408C154.872 603.704 155.088 602.108 155.52 600.62C155.952 599.108 156.576 597.8 157.392 596.696C158.208 595.568 159.204 594.68 160.38 594.032C161.58 593.384 162.936 593.06 164.448 593.06ZM164.34 613.976C165.252 613.976 166.032 613.76 166.68 613.328C167.352 612.872 167.904 612.248 168.336 611.456C168.768 610.664 169.092 609.728 169.308 608.648C169.524 607.568 169.632 606.404 169.632 605.156C169.632 603.884 169.524 602.72 169.308 601.664C169.092 600.608 168.756 599.696 168.3 598.928C167.868 598.16 167.316 597.572 166.644 597.164C165.972 596.732 165.192 596.516 164.304 596.516C163.416 596.516 162.648 596.732 162 597.164C161.376 597.572 160.86 598.16 160.452 598.928C160.068 599.672 159.78 600.584 159.588 601.664C159.396 602.72 159.3 603.884 159.3 605.156C159.3 608.06 159.732 610.256 160.596 611.744C161.484 613.232 162.732 613.976 164.34 613.976ZM193.636 610.16H191.152V617H187.012V610.16H176.788V606.92L186.832 593.24H191.152V606.92H193.636V610.16ZM187.012 606.92V598.208L180.856 606.92H187.012ZM197.563 614.876C197.563 614.54 197.623 614.216 197.743 613.904C197.887 613.592 198.079 613.316 198.319 613.076C198.559 612.812 198.823 612.608 199.111 612.464C199.423 612.32 199.759 612.248 200.119 612.248C200.455 612.248 200.779 612.32 201.091 612.464C201.403 612.608 201.679 612.812 201.919 613.076C202.183 613.316 202.387 613.592 202.531 613.904C202.675 614.216 202.747 614.54 202.747 614.876C202.747 615.236 202.675 615.572 202.531 615.884C202.387 616.172 202.183 616.436 201.919 616.676C201.679 616.916 201.403 617.096 201.091 617.216C200.779 617.36 200.455 617.432 200.119 617.432C199.423 617.432 198.823 617.18 198.319 616.676C197.815 616.172 197.563 615.572 197.563 614.876ZM197.563 603.248C197.563 602.912 197.623 602.588 197.743 602.276C197.887 601.964 198.079 601.688 198.319 601.448C198.559 601.184 198.823 600.98 199.111 600.836C199.423 600.692 199.759 600.62 200.119 600.62C200.455 600.62 200.779 600.692 201.091 600.836C201.403 600.98 201.679 601.184 201.919 601.448C202.183 601.688 202.387 601.964 202.531 602.276C202.675 602.588 202.747 602.912 202.747 603.248C202.747 603.608 202.675 603.944 202.531 604.256C202.387 604.544 202.183 604.808 201.919 605.048C201.679 605.288 201.403 605.48 201.091 605.624C200.779 605.744 200.455 605.804 200.119 605.804C199.423 605.804 198.823 605.552 198.319 605.048C197.815 604.544 197.563 603.944 197.563 603.248ZM207.622 594.968C208.534 594.416 209.578 593.96 210.754 593.6C211.954 593.24 213.142 593.06 214.318 593.06C215.326 593.06 216.25 593.204 217.09 593.492C217.93 593.78 218.65 594.188 219.25 594.716C219.874 595.22 220.354 595.832 220.69 596.552C221.026 597.272 221.194 598.064 221.194 598.928C221.194 600.2 220.87 601.244 220.222 602.06C219.574 602.852 218.758 603.524 217.774 604.076C219.214 604.556 220.33 605.276 221.122 606.236C221.938 607.196 222.346 608.456 222.346 610.016C222.346 611.024 222.166 611.984 221.806 612.896C221.446 613.784 220.894 614.564 220.15 615.236C219.406 615.908 218.482 616.448 217.378 616.856C216.274 617.24 214.99 617.432 213.526 617.432C210.55 617.432 208.102 616.616 206.182 614.984L207.19 611.708C208.03 612.404 208.966 612.956 209.998 613.364C211.03 613.772 212.134 613.976 213.31 613.976C214.822 613.976 215.962 613.628 216.73 612.932C217.522 612.212 217.918 611.168 217.918 609.8C217.918 608.576 217.558 607.616 216.838 606.92C216.142 606.2 214.966 605.84 213.31 605.84H212.338V602.708H213.454C214.51 602.708 215.326 602.372 215.902 601.7C216.478 601.028 216.766 600.14 216.766 599.036C216.766 598.052 216.466 597.368 215.866 596.984C215.266 596.576 214.546 596.372 213.706 596.372C213.25 596.372 212.77 596.42 212.266 596.516C211.786 596.612 211.318 596.756 210.862 596.948C210.406 597.116 209.974 597.32 209.566 597.56C209.182 597.776 208.846 598.016 208.558 598.28L207.622 594.968ZM235.604 593.06C237.14 593.06 238.496 593.396 239.672 594.068C240.872 594.716 241.88 595.592 242.696 596.696C243.512 597.8 244.124 599.084 244.532 600.548C244.964 601.988 245.18 603.512 245.18 605.12C245.18 606.728 244.964 608.276 244.532 609.764C244.1 611.228 243.464 612.536 242.624 613.688C241.808 614.816 240.788 615.728 239.564 616.424C238.34 617.096 236.936 617.432 235.352 617.432C233.792 617.432 232.424 617.108 231.248 616.46C230.096 615.812 229.136 614.936 228.368 613.832C227.6 612.728 227.012 611.456 226.604 610.016C226.22 608.552 226.028 607.016 226.028 605.408C226.028 603.704 226.244 602.108 226.676 600.62C227.108 599.108 227.732 597.8 228.548 596.696C229.364 595.568 230.36 594.68 231.536 594.032C232.736 593.384 234.092 593.06 235.604 593.06ZM235.496 613.976C236.408 613.976 237.188 613.76 237.836 613.328C238.508 612.872 239.06 612.248 239.492 611.456C239.924 610.664 240.248 609.728 240.464 608.648C240.68 607.568 240.788 606.404 240.788 605.156C240.788 603.884 240.68 602.72 240.464 601.664C240.248 600.608 239.912 599.696 239.456 598.928C239.024 598.16 238.472 597.572 237.8 597.164C237.128 596.732 236.348 596.516 235.46 596.516C234.572 596.516 233.804 596.732 233.156 597.164C232.532 597.572 232.016 598.16 231.608 598.928C231.224 599.672 230.936 600.584 230.744 601.664C230.552 602.72 230.456 603.884 230.456 605.156C230.456 608.06 230.888 610.256 231.752 611.744C232.64 613.232 233.888 613.976 235.496 613.976Z" fill="#117B7D"/>
<path d="M252.858 608.45C253.506 608.45 254.064 608.576 254.532 608.828C255 609.068 255.384 609.392 255.684 609.8C255.996 610.208 256.224 610.682 256.368 611.222C256.512 611.75 256.584 612.302 256.584 612.878C256.584 613.466 256.506 614.024 256.35 614.552C256.206 615.08 255.978 615.542 255.666 615.938C255.354 616.334 254.964 616.646 254.496 616.874C254.028 617.102 253.47 617.216 252.822 617.216C252.282 617.216 251.778 617.138 251.31 616.982C250.854 616.826 250.488 616.574 250.212 616.226V621.68H248.25V608.72H249.834L249.978 609.854H250.05C250.206 609.662 250.392 609.482 250.608 609.314C250.824 609.134 251.058 608.984 251.31 608.864C251.562 608.732 251.82 608.63 252.084 608.558C252.348 608.486 252.606 608.45 252.858 608.45ZM252.534 609.962C252.354 609.962 252.156 609.992 251.94 610.052C251.724 610.1 251.508 610.178 251.292 610.286C251.088 610.382 250.89 610.502 250.698 610.646C250.506 610.79 250.344 610.952 250.212 611.132V614.642C250.572 615.086 250.938 615.368 251.31 615.488C251.694 615.596 252.042 615.65 252.354 615.65C252.75 615.65 253.086 615.578 253.362 615.434C253.65 615.29 253.884 615.098 254.064 614.858C254.256 614.606 254.394 614.318 254.478 613.994C254.574 613.658 254.622 613.298 254.622 612.914C254.622 612.554 254.58 612.2 254.496 611.852C254.424 611.492 254.298 611.174 254.118 610.898C253.95 610.622 253.734 610.4 253.47 610.232C253.206 610.052 252.894 609.962 252.534 609.962ZM263.967 617V611.528C263.967 610.544 263.577 610.052 262.797 610.052C262.605 610.052 262.395 610.088 262.167 610.16C261.951 610.232 261.735 610.34 261.519 610.484C261.315 610.616 261.123 610.784 260.943 610.988C260.775 611.192 260.655 611.426 260.583 611.69V617H258.603V608.72H260.151L260.241 609.944H260.313C260.553 609.44 260.931 609.068 261.447 608.828C261.975 608.576 262.533 608.45 263.121 608.45C263.685 608.45 264.195 608.564 264.651 608.792C265.119 609.008 265.467 609.386 265.695 609.926C265.935 609.434 266.313 609.068 266.829 608.828C267.345 608.576 267.897 608.45 268.485 608.45C268.869 608.45 269.229 608.504 269.565 608.612C269.913 608.708 270.213 608.87 270.465 609.098C270.729 609.326 270.933 609.626 271.077 609.998C271.233 610.37 271.311 610.826 271.311 611.366V617H269.331V611.528C269.331 610.544 268.941 610.052 268.161 610.052C267.969 610.052 267.759 610.088 267.531 610.16C267.315 610.232 267.099 610.34 266.883 610.484C266.679 610.616 266.487 610.784 266.307 610.988C266.139 611.192 266.019 611.426 265.947 611.69V617H263.967Z" fill="#3CA7A7"/>
<path d="M175.873 651.536C175.669 651.536 175.465 651.536 175.261 651.536C175.069 651.536 174.883 651.53 174.703 651.518V656H172.633V644.12C172.813 644.108 173.017 644.096 173.245 644.084C173.485 644.072 173.731 644.066 173.983 644.066C174.247 644.054 174.505 644.048 174.757 644.048C175.021 644.036 175.267 644.03 175.495 644.03C176.167 644.03 176.779 644.114 177.331 644.282C177.883 644.438 178.357 644.678 178.753 645.002C179.149 645.326 179.455 645.728 179.671 646.208C179.887 646.676 179.995 647.222 179.995 647.846C179.995 648.35 179.911 648.824 179.743 649.268C179.575 649.712 179.323 650.102 178.987 650.438C178.651 650.774 178.219 651.044 177.691 651.248C177.175 651.44 176.569 651.536 175.873 651.536ZM175.783 645.758C175.591 645.758 175.405 645.758 175.225 645.758C175.045 645.758 174.871 645.764 174.703 645.776V649.79C174.871 649.802 175.045 649.808 175.225 649.808C175.417 649.808 175.615 649.808 175.819 649.808C176.467 649.808 176.953 649.628 177.277 649.268C177.613 648.908 177.781 648.386 177.781 647.702C177.781 647.126 177.631 646.658 177.331 646.298C177.043 645.938 176.527 645.758 175.783 645.758ZM183.745 648.944C184.081 648.416 184.471 648.038 184.915 647.81C185.371 647.57 185.905 647.45 186.517 647.45C186.877 647.45 187.225 647.504 187.561 647.612C187.897 647.708 188.191 647.87 188.443 648.098C188.707 648.326 188.911 648.626 189.055 648.998C189.211 649.37 189.289 649.826 189.289 650.366V656H187.309V650.528C187.309 650.036 187.201 649.67 186.985 649.43C186.769 649.178 186.475 649.052 186.103 649.052C185.875 649.052 185.635 649.088 185.383 649.16C185.143 649.232 184.915 649.34 184.699 649.484C184.483 649.628 184.291 649.802 184.123 650.006C183.955 650.21 183.829 650.438 183.745 650.69V656H181.765V642.68H183.745V648.944ZM193.677 656H191.697V647.72H193.677V656ZM191.409 645.056C191.409 644.888 191.439 644.726 191.499 644.57C191.571 644.414 191.667 644.276 191.787 644.156C191.907 644.024 192.039 643.922 192.183 643.85C192.339 643.778 192.507 643.742 192.687 643.742C192.855 643.742 193.017 643.778 193.173 643.85C193.329 643.922 193.467 644.024 193.587 644.156C193.719 644.276 193.821 644.414 193.893 644.57C193.965 644.726 194.001 644.888 194.001 645.056C194.001 645.236 193.965 645.404 193.893 645.56C193.821 645.704 193.719 645.836 193.587 645.956C193.467 646.076 193.329 646.172 193.173 646.244C193.017 646.304 192.855 646.334 192.687 646.334C192.339 646.334 192.039 646.208 191.787 645.956C191.535 645.704 191.409 645.404 191.409 645.056ZM198.25 656H196.27V642.68H198.25V656ZM202.818 656H200.838V647.72H202.818V656ZM200.55 645.056C200.55 644.888 200.58 644.726 200.64 644.57C200.712 644.414 200.808 644.276 200.928 644.156C201.048 644.024 201.18 643.922 201.324 643.85C201.48 643.778 201.648 643.742 201.828 643.742C201.996 643.742 202.158 643.778 202.314 643.85C202.47 643.922 202.608 644.024 202.728 644.156C202.86 644.276 202.962 644.414 203.034 644.57C203.106 644.726 203.142 644.888 203.142 645.056C203.142 645.236 203.106 645.404 203.034 645.56C202.962 645.704 202.86 645.836 202.728 645.956C202.608 646.076 202.47 646.172 202.314 646.244C202.158 646.304 201.996 646.334 201.828 646.334C201.48 646.334 201.18 646.208 200.928 645.956C200.676 645.704 200.55 645.404 200.55 645.056ZM209.911 647.45C210.559 647.45 211.117 647.576 211.585 647.828C212.053 648.068 212.437 648.392 212.737 648.8C213.049 649.208 213.277 649.682 213.421 650.222C213.565 650.75 213.637 651.302 213.637 651.878C213.637 652.466 213.559 653.024 213.403 653.552C213.259 654.08 213.031 654.542 212.719 654.938C212.407 655.334 212.017 655.646 211.549 655.874C211.081 656.102 210.523 656.216 209.875 656.216C209.335 656.216 208.831 656.138 208.363 655.982C207.907 655.826 207.541 655.574 207.265 655.226V660.68H205.303V647.72H206.887L207.031 648.854H207.103C207.259 648.662 207.445 648.482 207.661 648.314C207.877 648.134 208.111 647.984 208.363 647.864C208.615 647.732 208.873 647.63 209.137 647.558C209.401 647.486 209.659 647.45 209.911 647.45ZM209.587 648.962C209.407 648.962 209.209 648.992 208.993 649.052C208.777 649.1 208.561 649.178 208.345 649.286C208.141 649.382 207.943 649.502 207.751 649.646C207.559 649.79 207.397 649.952 207.265 650.132V653.642C207.625 654.086 207.991 654.368 208.363 654.488C208.747 654.596 209.095 654.65 209.407 654.65C209.803 654.65 210.139 654.578 210.415 654.434C210.703 654.29 210.937 654.098 211.117 653.858C211.309 653.606 211.447 653.318 211.531 652.994C211.627 652.658 211.675 652.298 211.675 651.914C211.675 651.554 211.633 651.2 211.549 650.852C211.477 650.492 211.351 650.174 211.171 649.898C211.003 649.622 210.787 649.4 210.523 649.232C210.259 649.052 209.947 648.962 209.587 648.962ZM220.264 647.45C220.912 647.45 221.47 647.576 221.938 647.828C222.406 648.068 222.79 648.392 223.09 648.8C223.402 649.208 223.63 649.682 223.774 650.222C223.918 650.75 223.99 651.302 223.99 651.878C223.99 652.466 223.912 653.024 223.756 653.552C223.612 654.08 223.384 654.542 223.072 654.938C222.76 655.334 222.37 655.646 221.902 655.874C221.434 656.102 220.876 656.216 220.228 656.216C219.688 656.216 219.184 656.138 218.716 655.982C218.26 655.826 217.894 655.574 217.618 655.226V660.68H215.656V647.72H217.24L217.384 648.854H217.456C217.612 648.662 217.798 648.482 218.014 648.314C218.23 648.134 218.464 647.984 218.716 647.864C218.968 647.732 219.226 647.63 219.49 647.558C219.754 647.486 220.012 647.45 220.264 647.45ZM219.94 648.962C219.76 648.962 219.562 648.992 219.346 649.052C219.13 649.1 218.914 649.178 218.698 649.286C218.494 649.382 218.296 649.502 218.104 649.646C217.912 649.79 217.75 649.952 217.618 650.132V653.642C217.978 654.086 218.344 654.368 218.716 654.488C219.1 654.596 219.448 654.65 219.76 654.65C220.156 654.65 220.492 654.578 220.768 654.434C221.056 654.29 221.29 654.098 221.47 653.858C221.662 653.606 221.8 653.318 221.884 652.994C221.98 652.658 222.028 652.298 222.028 651.914C222.028 651.554 221.986 651.2 221.902 650.852C221.83 650.492 221.704 650.174 221.524 649.898C221.356 649.622 221.14 649.4 220.876 649.232C220.612 649.052 220.3 648.962 219.94 648.962ZM227.99 656H226.01V647.72H227.99V656ZM225.722 645.056C225.722 644.888 225.752 644.726 225.812 644.57C225.884 644.414 225.98 644.276 226.1 644.156C226.22 644.024 226.352 643.922 226.496 643.85C226.652 643.778 226.82 643.742 227 643.742C227.168 643.742 227.33 643.778 227.486 643.85C227.642 643.922 227.78 644.024 227.9 644.156C228.032 644.276 228.134 644.414 228.206 644.57C228.278 644.726 228.314 644.888 228.314 645.056C228.314 645.236 228.278 645.404 228.206 645.56C228.134 645.704 228.032 645.836 227.9 645.956C227.78 646.076 227.642 646.172 227.486 646.244C227.33 646.304 227.168 646.334 227 646.334C226.652 646.334 226.352 646.208 226.1 645.956C225.848 645.704 225.722 645.404 225.722 645.056ZM236.018 656V650.528C236.018 649.544 235.598 649.052 234.758 649.052C234.554 649.052 234.332 649.088 234.092 649.16C233.864 649.232 233.642 649.34 233.426 649.484C233.21 649.616 233.012 649.784 232.832 649.988C232.664 650.192 232.538 650.426 232.454 650.69V656H230.474V647.72H232.022L232.112 648.944H232.184C232.436 648.44 232.826 648.068 233.354 647.828C233.894 647.576 234.47 647.45 235.082 647.45C235.478 647.45 235.85 647.504 236.198 647.612C236.546 647.708 236.852 647.87 237.116 648.098C237.392 648.326 237.608 648.626 237.764 648.998C237.92 649.37 237.998 649.826 237.998 650.366V656H236.018ZM244.08 647.45C245.136 647.45 245.952 647.72 246.528 648.26C247.104 648.788 247.392 649.538 247.392 650.51C247.392 650.642 247.38 650.786 247.356 650.942C247.344 651.086 247.32 651.23 247.284 651.374C247.26 651.518 247.224 651.65 247.176 651.77C247.14 651.878 247.098 651.968 247.05 652.04H241.812C241.836 652.4 241.902 652.742 242.01 653.066C242.118 653.378 242.274 653.654 242.478 653.894C242.682 654.122 242.928 654.308 243.216 654.452C243.516 654.584 243.864 654.65 244.26 654.65C244.704 654.65 245.172 654.566 245.664 654.398C246.168 654.23 246.594 654.02 246.942 653.768L247.266 655.244C247.11 655.34 246.918 655.448 246.69 655.568C246.462 655.676 246.204 655.778 245.916 655.874C245.628 655.97 245.316 656.048 244.98 656.108C244.656 656.18 244.314 656.216 243.954 656.216C243.282 656.216 242.688 656.102 242.172 655.874C241.656 655.634 241.224 655.316 240.876 654.92C240.528 654.512 240.264 654.044 240.084 653.516C239.904 652.988 239.814 652.436 239.814 651.86C239.814 651.272 239.904 650.714 240.084 650.186C240.276 649.646 240.552 649.172 240.912 648.764C241.272 648.356 241.716 648.038 242.244 647.81C242.784 647.57 243.396 647.45 244.08 647.45ZM244.026 648.998C243.522 648.998 243.09 649.148 242.73 649.448C242.382 649.736 242.13 650.132 241.974 650.636H245.412C245.424 650.6 245.43 650.558 245.43 650.51C245.442 650.462 245.448 650.402 245.448 650.33C245.448 649.946 245.316 649.628 245.052 649.376C244.788 649.124 244.446 648.998 244.026 648.998ZM251.926 648.926C251.53 648.926 251.218 649.004 250.99 649.16C250.774 649.304 250.666 649.514 250.666 649.79C250.666 649.97 250.726 650.138 250.846 650.294C250.978 650.438 251.248 650.558 251.656 650.654L252.934 650.942C253.438 651.05 253.84 651.206 254.14 651.41C254.452 651.614 254.692 651.836 254.86 652.076C255.04 652.316 255.16 652.562 255.22 652.814C255.28 653.066 255.31 653.3 255.31 653.516C255.31 653.9 255.232 654.26 255.076 654.596C254.92 654.92 254.698 655.202 254.41 655.442C254.122 655.682 253.774 655.868 253.366 656C252.958 656.144 252.502 656.216 251.998 656.216C251.362 656.216 250.774 656.126 250.234 655.946C249.694 655.754 249.262 655.544 248.938 655.316L249.406 653.606C249.814 654.002 250.27 654.296 250.774 654.488C251.29 654.68 251.764 654.776 252.196 654.776C252.652 654.776 253 654.68 253.24 654.488C253.48 654.284 253.6 654.008 253.6 653.66C253.6 653.456 253.54 653.288 253.42 653.156C253.3 653.012 253.06 652.892 252.7 652.796L250.972 652.364C250.564 652.268 250.228 652.13 249.964 651.95C249.712 651.77 249.508 651.572 249.352 651.356C249.208 651.128 249.106 650.894 249.046 650.654C248.998 650.414 248.974 650.186 248.974 649.97C248.974 649.166 249.256 648.548 249.82 648.116C250.384 647.672 251.116 647.45 252.016 647.45C252.484 647.45 252.988 647.516 253.528 647.648C254.068 647.768 254.524 647.948 254.896 648.188L254.374 649.808C254.134 649.616 253.798 649.424 253.366 649.232C252.934 649.028 252.454 648.926 251.926 648.926Z" fill="#3CA7A7"/>
<path d="M197.43 633H195.82V626.196L194.686 626.7L194.378 625.3L197.43 623.76V633ZM202.092 633H200.482V626.196L199.348 626.7L199.04 625.3L202.092 623.76V633ZM212.972 630.816L216.038 623.76H217.872V633H216.276V626.91L213.616 633H212.328L209.598 626.91V633H207.988V623.76H209.822L212.972 630.816ZM223.865 633L223.753 632.118H223.697C223.445 632.435 223.099 632.692 222.661 632.888C222.231 633.075 221.793 633.168 221.345 633.168C220.757 633.168 220.295 633 219.959 632.664C219.623 632.319 219.455 631.866 219.455 631.306C219.455 630.923 219.534 630.583 219.693 630.284C219.861 629.976 220.099 629.719 220.407 629.514C220.715 629.299 221.083 629.136 221.513 629.024C221.942 628.912 222.423 628.856 222.955 628.856H223.557V628.646C223.557 628.282 223.44 628.016 223.207 627.848C222.964 627.68 222.586 627.596 222.073 627.596C221.382 627.596 220.766 627.75 220.225 628.058L219.931 626.896C220.556 626.532 221.312 626.35 222.199 626.35C223.132 626.35 223.841 626.541 224.327 626.924C224.551 627.101 224.733 627.33 224.873 627.61C225.022 627.89 225.097 628.226 225.097 628.618V633H223.865ZM221.947 631.922C222.245 631.922 222.544 631.852 222.843 631.712C223.141 631.563 223.379 631.367 223.557 631.124V629.85H223.291C222.525 629.85 221.965 629.948 221.611 630.144C221.265 630.34 221.093 630.653 221.093 631.082C221.093 631.642 221.377 631.922 221.947 631.922ZM229.676 631.138L231.468 626.56H232.952L230.292 633.056C230.161 633.383 229.979 633.747 229.746 634.148C229.522 634.559 229.251 634.941 228.934 635.296C228.626 635.66 228.276 635.963 227.884 636.206C227.492 636.458 227.067 636.584 226.61 636.584C226.535 636.584 226.479 636.579 226.442 636.57C226.404 636.57 226.362 636.561 226.316 636.542L226.05 635.338C226.078 635.347 226.11 635.357 226.148 635.366C226.185 635.375 226.264 635.38 226.386 635.38C226.563 635.38 226.736 635.361 226.904 635.324C227.081 635.287 227.258 635.212 227.436 635.1C227.772 634.885 228.061 634.587 228.304 634.204C228.556 633.821 228.798 633.35 229.032 632.79L225.826 626.56H227.436L229.676 631.138Z" fill="#3CA7A7"/>
<path d="M213.907 687.805C214.097 687.705 214.312 687.61 214.552 687.52C214.802 687.42 215.057 687.335 215.317 687.265C215.587 687.185 215.857 687.125 216.127 687.085C216.397 687.045 216.662 687.025 216.922 687.025C217.342 687.025 217.732 687.085 218.092 687.205C218.452 687.315 218.757 687.48 219.007 687.7C219.267 687.91 219.467 688.17 219.607 688.48C219.757 688.78 219.832 689.115 219.832 689.485C219.832 689.995 219.702 690.505 219.442 691.015C219.192 691.515 218.872 692.02 218.482 692.53C218.102 693.03 217.682 693.53 217.222 694.03C216.762 694.52 216.332 695.01 215.932 695.5H219.937V697H213.862V695.5C214.252 694.97 214.692 694.45 215.182 693.94C215.682 693.42 216.147 692.915 216.577 692.425C217.017 691.935 217.387 691.455 217.687 690.985C217.987 690.515 218.137 690.055 218.137 689.605C218.137 689.175 217.997 688.87 217.717 688.69C217.437 688.51 217.072 688.42 216.622 688.42C216.192 688.42 215.767 688.49 215.347 688.63C214.937 688.76 214.572 688.915 214.252 689.095L213.907 687.805ZM221.466 687.805C221.656 687.705 221.871 687.61 222.111 687.52C222.361 687.42 222.616 687.335 222.876 687.265C223.146 687.185 223.416 687.125 223.686 687.085C223.956 687.045 224.221 687.025 224.481 687.025C224.901 687.025 225.291 687.085 225.651 687.205C226.011 687.315 226.316 687.48 226.566 687.7C226.826 687.91 227.026 688.17 227.166 688.48C227.316 688.78 227.391 689.115 227.391 689.485C227.391 689.995 227.261 690.505 227.001 691.015C226.751 691.515 226.431 692.02 226.041 692.53C225.661 693.03 225.241 693.53 224.781 694.03C224.321 694.52 223.891 695.01 223.491 695.5H227.496V697H221.421V695.5C221.811 694.97 222.251 694.45 222.741 693.94C223.241 693.42 223.706 692.915 224.136 692.425C224.576 691.935 224.946 691.455 225.246 690.985C225.546 690.515 225.696 690.055 225.696 689.605C225.696 689.175 225.556 688.87 225.276 688.69C224.996 688.51 224.631 688.42 224.181 688.42C223.751 688.42 223.326 688.49 222.906 688.63C222.496 688.76 222.131 688.915 221.811 689.095L221.466 687.805ZM231.739 697.36H230.389L237.334 686.635H238.684L231.739 697.36ZM231.169 687.025C231.539 687.025 231.869 687.1 232.159 687.25C232.449 687.4 232.694 687.6 232.894 687.85C233.104 688.1 233.259 688.395 233.359 688.735C233.469 689.065 233.524 689.415 233.524 689.785C233.524 690.145 233.469 690.495 233.359 690.835C233.259 691.175 233.104 691.475 232.894 691.735C232.694 691.995 232.444 692.205 232.144 692.365C231.844 692.515 231.499 692.59 231.109 692.59C230.729 692.59 230.394 692.52 230.104 692.38C229.824 692.23 229.584 692.03 229.384 691.78C229.194 691.53 229.049 691.24 228.949 690.91C228.859 690.57 228.814 690.215 228.814 689.845C228.814 689.455 228.864 689.09 228.964 688.75C229.074 688.4 229.229 688.1 229.429 687.85C229.639 687.59 229.889 687.39 230.179 687.25C230.469 687.1 230.799 687.025 231.169 687.025ZM231.124 691.615C231.324 691.615 231.494 691.57 231.634 691.48C231.774 691.38 231.889 691.25 231.979 691.09C232.069 690.92 232.134 690.73 232.174 690.52C232.224 690.3 232.249 690.065 232.249 689.815C232.249 689.275 232.159 688.84 231.979 688.51C231.799 688.17 231.519 688 231.139 688C230.759 688 230.489 688.165 230.329 688.495C230.179 688.825 230.104 689.245 230.104 689.755C230.104 690.375 230.194 690.84 230.374 691.15C230.554 691.46 230.804 691.615 231.124 691.615ZM237.964 691.51C238.334 691.51 238.664 691.585 238.954 691.735C239.244 691.885 239.489 692.085 239.689 692.335C239.899 692.585 240.054 692.88 240.154 693.22C240.264 693.55 240.319 693.9 240.319 694.27C240.319 694.63 240.264 694.98 240.154 695.32C240.054 695.66 239.899 695.96 239.689 696.22C239.489 696.48 239.239 696.69 238.939 696.85C238.639 697 238.294 697.075 237.904 697.075C237.524 697.075 237.189 697.005 236.899 696.865C236.619 696.715 236.379 696.515 236.179 696.265C235.989 696.015 235.844 695.725 235.744 695.395C235.654 695.055 235.609 694.7 235.609 694.33C235.609 693.94 235.659 693.575 235.759 693.235C235.869 692.885 236.024 692.585 236.224 692.335C236.434 692.075 236.684 691.875 236.974 691.735C237.264 691.585 237.594 691.51 237.964 691.51ZM237.919 696.1C238.119 696.1 238.289 696.055 238.429 695.965C238.569 695.865 238.684 695.735 238.774 695.575C238.864 695.405 238.929 695.215 238.969 695.005C239.019 694.785 239.044 694.55 239.044 694.3C239.044 693.76 238.954 693.325 238.774 692.995C238.594 692.655 238.314 692.485 237.934 692.485C237.554 692.485 237.284 692.65 237.124 692.98C236.974 693.31 236.899 693.73 236.899 694.24C236.899 694.86 236.989 695.325 237.169 695.635C237.349 695.945 237.599 696.1 237.919 696.1Z" fill="#3CA7A7"/>
<path d="M193.56 693.19C193.56 692.31 193.8 691.3 194.28 690.16C194.76 689.02 195.38 687.91 196.14 686.85C197.7 684.79 199.06 683.23 200.2 682.18L200.95 681.46C201.2 681.72 201.48 681.96 201.78 682.18C202.19 682.6 202.82 683.29 203.66 684.27C204.5 685.25 205.23 686.12 205.83 686.92C206.54 687.93 207.15 689.02 207.64 690.17C208.13 691.32 208.38 692.33 208.38 693.2C208.38 694.2 208.19 695.15 207.8 696.06C207.41 696.97 206.89 697.76 206.23 698.42C205.57 699.08 204.78 699.61 203.86 700C202.94 700.39 201.97 700.59 200.95 700.59C199.95 700.59 199 700.4 198.09 700.02C197.18 699.64 196.39 699.13 195.73 698.47C195.07 697.82 194.54 697.03 194.15 696.12C193.76 695.21 193.56 694.23 193.56 693.19ZM195.82 690.26C195.82 691.09 195.99 691.75 196.34 692.25C196.69 692.74 197.22 692.99 197.93 692.99C198.65 692.99 199.18 692.74 199.54 692.25C199.89 691.76 200.07 691.1 200.08 690.26C200.07 689.42 199.89 688.76 199.54 688.26C199.19 687.77 198.65 687.52 197.93 687.52C197.22 687.52 196.69 687.77 196.34 688.26C195.99 688.76 195.82 689.42 195.82 690.26ZM197.39 690.26V689.91C197.39 689.83 197.4 689.72 197.41 689.58C197.42 689.44 197.43 689.33 197.46 689.26C197.49 689.19 197.51 689.1 197.55 689.02C197.59 688.94 197.64 688.87 197.7 688.84C197.77 688.8 197.84 688.78 197.93 688.78C198.07 688.78 198.18 688.82 198.26 688.9C198.34 688.98 198.4 689.11 198.43 689.28C198.46 689.46 198.48 689.6 198.49 689.73C198.5 689.86 198.5 690.03 198.5 690.25C198.5 690.48 198.5 690.65 198.49 690.77C198.48 690.89 198.46 691.04 198.43 691.22C198.4 691.39 198.34 691.52 198.26 691.6C198.18 691.68 198.07 691.72 197.93 691.72C197.84 691.72 197.77 691.7 197.7 691.66C197.63 691.62 197.577 691.556 197.55 691.48C197.51 691.4 197.48 691.31 197.46 691.24C197.44 691.16 197.42 691.05 197.41 690.92C197.4 690.78 197.39 690.67 197.39 690.6V690.26ZM197.98 698.01H199.3L204.29 687.27H202.94L197.98 698.01ZM202.28 695.02C202.29 695.86 202.48 696.52 202.83 697.02C203.18 697.51 203.72 697.76 204.43 697.76C205.15 697.76 205.68 697.51 206.03 697.02C206.38 696.53 206.55 695.86 206.56 695.02C206.55 694.18 206.38 693.52 206.03 693.03C205.68 692.54 205.15 692.29 204.43 692.29C203.72 692.29 203.18 692.54 202.83 693.03C202.47 693.52 202.29 694.18 202.28 695.02ZM203.85 695.02C203.85 694.79 203.85 694.62 203.86 694.5C203.87 694.38 203.89 694.23 203.92 694.05C203.95 693.87 204.01 693.75 204.09 693.67C204.17 693.59 204.28 693.55 204.42 693.55C204.51 693.55 204.59 693.57 204.66 693.61C204.73 693.65 204.78 693.71 204.82 693.8C204.86 693.89 204.89 693.97 204.92 694.04C204.95 694.11 204.96 694.22 204.97 694.36L204.98 694.68V695.37L204.97 695.69L204.92 696.01L204.82 696.25L204.66 696.44L204.42 696.5C204.28 696.5 204.17 696.46 204.09 696.38C204.01 696.3 203.95 696.17 203.92 696C203.89 695.82 203.87 695.67 203.86 695.55C203.85 695.43 203.85 695.25 203.85 695.02Z" fill="#117B7D"/>
<path d="M130.752 688.805C130.942 688.705 131.157 688.61 131.397 688.52C131.647 688.42 131.902 688.335 132.162 688.265C132.432 688.185 132.702 688.125 132.972 688.085C133.242 688.045 133.507 688.025 133.767 688.025C134.187 688.025 134.577 688.085 134.937 688.205C135.297 688.315 135.602 688.48 135.852 688.7C136.112 688.91 136.312 689.17 136.452 689.48C136.602 689.78 136.677 690.115 136.677 690.485C136.677 690.995 136.547 691.505 136.287 692.015C136.037 692.515 135.717 693.02 135.327 693.53C134.947 694.03 134.527 694.53 134.067 695.03C133.607 695.52 133.177 696.01 132.777 696.5H136.782V698H130.707V696.5C131.097 695.97 131.537 695.45 132.027 694.94C132.527 694.42 132.992 693.915 133.422 693.425C133.862 692.935 134.232 692.455 134.532 691.985C134.832 691.515 134.982 691.055 134.982 690.605C134.982 690.175 134.842 689.87 134.562 689.69C134.282 689.51 133.917 689.42 133.467 689.42C133.037 689.42 132.612 689.49 132.192 689.63C131.782 689.76 131.417 689.915 131.097 690.095L130.752 688.805ZM138.716 698C138.706 697.91 138.701 697.815 138.701 697.715C138.701 697.605 138.701 697.505 138.701 697.415C138.701 696.825 138.816 696.18 139.046 695.48C139.286 694.77 139.591 694.065 139.961 693.365C140.331 692.655 140.736 691.975 141.176 691.325C141.626 690.665 142.061 690.09 142.481 689.6H138.116V688.025H144.191V689.6C143.761 690.07 143.331 690.645 142.901 691.325C142.471 691.995 142.086 692.695 141.746 693.425C141.406 694.155 141.131 694.87 140.921 695.57C140.711 696.27 140.606 696.88 140.606 697.4C140.606 697.51 140.606 697.615 140.606 697.715C140.606 697.815 140.611 697.91 140.621 698H138.716ZM144.304 697.115C144.304 696.975 144.329 696.84 144.379 696.71C144.439 696.58 144.519 696.465 144.619 696.365C144.719 696.255 144.829 696.17 144.949 696.11C145.079 696.05 145.219 696.02 145.369 696.02C145.509 696.02 145.644 696.05 145.774 696.11C145.904 696.17 146.019 696.255 146.119 696.365C146.229 696.465 146.314 696.58 146.374 696.71C146.434 696.84 146.464 696.975 146.464 697.115C146.464 697.265 146.434 697.405 146.374 697.535C146.314 697.655 146.229 697.765 146.119 697.865C146.019 697.965 145.904 698.04 145.774 698.09C145.644 698.15 145.509 698.18 145.369 698.18C145.079 698.18 144.829 698.075 144.619 697.865C144.409 697.655 144.304 697.405 144.304 697.115ZM152.867 692.57C153.447 692.7 153.892 693 154.202 693.47C154.522 693.94 154.682 694.51 154.682 695.18C154.682 695.6 154.617 695.995 154.487 696.365C154.357 696.725 154.152 697.04 153.872 697.31C153.602 697.58 153.257 697.795 152.837 697.955C152.417 698.105 151.922 698.18 151.352 698.18C150.752 698.18 150.242 698.1 149.822 697.94C149.402 697.77 149.062 697.55 148.802 697.28C148.542 697 148.352 696.68 148.232 696.32C148.112 695.96 148.052 695.59 148.052 695.21C148.052 694.55 148.212 693.99 148.532 693.53C148.852 693.07 149.297 692.755 149.867 692.585V692.525C149.517 692.395 149.207 692.15 148.937 691.79C148.677 691.43 148.547 690.975 148.547 690.425C148.547 689.705 148.792 689.125 149.282 688.685C149.772 688.245 150.467 688.025 151.367 688.025C152.247 688.025 152.937 688.24 153.437 688.67C153.937 689.09 154.187 689.66 154.187 690.38C154.187 690.91 154.057 691.36 153.797 691.73C153.547 692.09 153.237 692.35 152.867 692.51V692.57ZM152.957 695.225C152.957 694.995 152.927 694.765 152.867 694.535C152.807 694.305 152.712 694.1 152.582 693.92C152.452 693.74 152.282 693.595 152.072 693.485C151.872 693.365 151.632 693.305 151.352 693.305C151.062 693.305 150.817 693.365 150.617 693.485C150.417 693.595 150.252 693.745 150.122 693.935C149.992 694.115 149.897 694.32 149.837 694.55C149.777 694.78 149.747 695.005 149.747 695.225C149.747 695.765 149.892 696.175 150.182 696.455C150.482 696.735 150.872 696.875 151.352 696.875C151.832 696.875 152.217 696.735 152.507 696.455C152.807 696.175 152.957 695.765 152.957 695.225ZM152.507 690.62C152.507 690.23 152.407 689.925 152.207 689.705C152.017 689.475 151.732 689.36 151.352 689.36C150.982 689.36 150.697 689.47 150.497 689.69C150.297 689.9 150.197 690.205 150.197 690.605C150.197 691.025 150.302 691.355 150.512 691.595C150.722 691.835 151.002 691.955 151.352 691.955C151.702 691.955 151.982 691.835 152.192 691.595C152.402 691.355 152.507 691.03 152.507 690.62ZM158.206 688.13C158.546 688.13 158.846 688.185 159.106 688.295C159.366 688.395 159.581 688.535 159.751 688.715C159.931 688.895 160.061 689.11 160.141 689.36C160.231 689.6 160.276 689.855 160.276 690.125C160.276 690.385 160.236 690.63 160.156 690.86C160.076 691.09 159.951 691.29 159.781 691.46C159.611 691.63 159.396 691.765 159.136 691.865C158.876 691.965 158.566 692.015 158.206 692.015C157.846 692.015 157.536 691.965 157.276 691.865C157.016 691.755 156.801 691.615 156.631 691.445C156.471 691.265 156.351 691.06 156.271 690.83C156.201 690.6 156.166 690.355 156.166 690.095C156.166 689.825 156.211 689.57 156.301 689.33C156.391 689.09 156.521 688.885 156.691 688.715C156.861 688.535 157.071 688.395 157.321 688.295C157.581 688.185 157.876 688.13 158.206 688.13ZM158.206 691.1C158.556 691.1 158.801 691 158.941 690.8C159.091 690.6 159.166 690.365 159.166 690.095C159.166 689.835 159.091 689.605 158.941 689.405C158.801 689.195 158.556 689.09 158.206 689.09C157.856 689.09 157.601 689.19 157.441 689.39C157.291 689.58 157.216 689.8 157.216 690.05C157.216 690.32 157.296 690.565 157.456 690.785C157.626 690.995 157.876 691.1 158.206 691.1Z" fill="#3CA7A7"/>
<path d="M124.625 693.375H120.5C120.135 693.375 119.786 693.23 119.528 692.972C119.27 692.714 119.125 692.365 119.125 692V685.125C119.125 684.76 119.27 684.411 119.528 684.153C119.786 683.895 120.135 683.75 120.5 683.75H124.625V685.125H120.5V692H124.625V693.375Z" fill="#117B7D"/>
<path d="M116.375 685.125C117.134 685.125 117.75 684.509 117.75 683.75C117.75 682.991 117.134 682.375 116.375 682.375C115.616 682.375 115 682.991 115 683.75C115 684.509 115.616 685.125 116.375 685.125Z" fill="#117B7D"/>
<path d="M110.875 694.877V689.25H109.5V694.877C109.041 695.039 108.655 695.358 108.409 695.777C108.162 696.197 108.072 696.69 108.155 697.17C108.237 697.649 108.486 698.084 108.858 698.398C109.23 698.712 109.701 698.884 110.188 698.884C110.674 698.884 111.145 698.712 111.517 698.398C111.889 698.084 112.138 697.649 112.22 697.17C112.303 696.69 112.213 696.197 111.967 695.777C111.72 695.358 111.334 695.039 110.875 694.877Z" fill="#117B7D"/>
<path d="M110.187 701.625C109.24 701.626 108.314 701.347 107.524 700.823C106.735 700.3 106.118 699.554 105.75 698.681C105.383 697.808 105.282 696.845 105.46 695.915C105.638 694.984 106.087 694.127 106.75 693.451V685.812C106.75 684.901 107.112 684.026 107.757 683.382C108.401 682.737 109.276 682.375 110.187 682.375C111.099 682.375 111.974 682.737 112.618 683.382C113.263 684.026 113.625 684.901 113.625 685.812V693.451C114.288 694.127 114.737 694.984 114.915 695.915C115.093 696.845 114.992 697.808 114.625 698.681C114.257 699.554 113.64 700.3 112.851 700.823C112.061 701.347 111.135 701.626 110.187 701.625ZM110.187 683.75C109.641 683.751 109.116 683.968 108.73 684.355C108.343 684.741 108.126 685.266 108.125 685.812V694.051L107.897 694.256C107.378 694.72 107.012 695.331 106.847 696.008C106.683 696.684 106.728 697.395 106.976 698.045C107.224 698.696 107.664 699.256 108.238 699.651C108.811 700.045 109.491 700.257 110.187 700.257C110.884 700.257 111.564 700.045 112.137 699.651C112.711 699.256 113.151 698.696 113.399 698.045C113.647 697.395 113.692 696.684 113.528 696.008C113.363 695.331 112.997 694.72 112.478 694.256L112.25 694.051V685.812C112.249 685.266 112.032 684.741 111.645 684.355C111.259 683.968 110.734 683.751 110.187 683.75Z" fill="#117B7D"/>
<path d="M291.96 690.485C291.96 690.695 292.005 690.875 292.095 691.025C292.195 691.175 292.33 691.305 292.5 691.415C292.67 691.525 292.87 691.63 293.1 691.73C293.34 691.82 293.605 691.915 293.895 692.015C294.255 692.145 294.61 692.295 294.96 692.465C295.32 692.625 295.64 692.83 295.92 693.08C296.21 693.32 296.445 693.62 296.625 693.98C296.805 694.34 296.895 694.775 296.895 695.285C296.895 695.825 296.795 696.28 296.595 696.65C296.405 697.02 296.145 697.32 295.815 697.55C295.485 697.77 295.105 697.93 294.675 698.03C294.245 698.13 293.8 698.18 293.34 698.18C292.68 698.18 292.06 698.1 291.48 697.94C290.91 697.78 290.42 697.585 290.01 697.355L290.46 695.735C290.84 696.025 291.26 696.265 291.72 696.455C292.19 696.645 292.725 696.74 293.325 696.74C293.965 696.74 294.43 696.63 294.72 696.41C295.01 696.18 295.155 695.875 295.155 695.495C295.155 695.205 295.085 694.96 294.945 694.76C294.805 694.55 294.63 694.375 294.42 694.235C294.21 694.085 293.985 693.965 293.745 693.875C293.515 693.785 293.31 693.71 293.13 693.65C292.81 693.55 292.485 693.43 292.155 693.29C291.825 693.15 291.52 692.97 291.24 692.75C290.96 692.52 290.73 692.235 290.55 691.895C290.38 691.555 290.295 691.13 290.295 690.62C290.295 690.14 290.375 689.735 290.535 689.405C290.705 689.075 290.93 688.81 291.21 688.61C291.5 688.4 291.835 688.25 292.215 688.16C292.605 688.07 293.025 688.025 293.475 688.025C294.025 688.025 294.555 688.08 295.065 688.19C295.585 688.3 296.02 688.435 296.37 688.595L295.965 690.185C295.785 690.065 295.59 689.96 295.38 689.87C295.17 689.78 294.95 689.705 294.72 689.645C294.5 689.585 294.275 689.54 294.045 689.51C293.825 689.47 293.615 689.45 293.415 689.45C292.965 689.45 292.61 689.535 292.35 689.705C292.09 689.875 291.96 690.135 291.96 690.485ZM300.047 691.1V695.585C300.047 695.995 300.152 696.31 300.362 696.53C300.582 696.74 300.862 696.845 301.202 696.845C301.552 696.845 301.872 696.73 302.162 696.5C302.452 696.26 302.667 695.92 302.807 695.48V691.1H304.472V698H303.182L303.092 697.04H303.032C302.922 697.27 302.782 697.46 302.612 697.61C302.442 697.75 302.252 697.865 302.042 697.955C301.842 698.035 301.632 698.09 301.412 698.12C301.192 698.16 300.977 698.18 300.767 698.18C300.437 698.18 300.127 698.14 299.837 698.06C299.557 697.98 299.307 697.85 299.087 697.67C298.877 697.48 298.707 697.235 298.577 696.935C298.457 696.625 298.397 696.245 298.397 695.795V691.1H300.047ZM311.163 698V693.44C311.163 692.62 310.813 692.21 310.113 692.21C309.943 692.21 309.758 692.24 309.558 692.3C309.368 692.36 309.183 692.45 309.003 692.57C308.823 692.68 308.658 692.82 308.508 692.99C308.368 693.16 308.263 693.355 308.193 693.575V698H306.543V691.1H307.833L307.908 692.12H307.968C308.178 691.7 308.503 691.39 308.943 691.19C309.393 690.98 309.873 690.875 310.383 690.875C310.713 690.875 311.023 690.92 311.313 691.01C311.603 691.09 311.858 691.225 312.078 691.415C312.308 691.605 312.488 691.855 312.618 692.165C312.748 692.475 312.813 692.855 312.813 693.305V698H311.163ZM319.366 698V693.44C319.366 692.62 319.016 692.21 318.316 692.21C318.146 692.21 317.961 692.24 317.761 692.3C317.571 692.36 317.386 692.45 317.206 692.57C317.026 692.68 316.861 692.82 316.711 692.99C316.571 693.16 316.466 693.355 316.396 693.575V698H314.746V691.1H316.036L316.111 692.12H316.171C316.381 691.7 316.706 691.39 317.146 691.19C317.596 690.98 318.076 690.875 318.586 690.875C318.916 690.875 319.226 690.92 319.516 691.01C319.806 691.09 320.061 691.225 320.281 691.415C320.511 691.605 320.691 691.855 320.821 692.165C320.951 692.475 321.016 692.855 321.016 693.305V698H319.366ZM325.861 696.005L327.781 691.1H329.371L326.521 698.06C326.381 698.41 326.186 698.8 325.936 699.23C325.696 699.67 325.406 700.08 325.066 700.46C324.736 700.85 324.361 701.175 323.941 701.435C323.521 701.705 323.066 701.84 322.576 701.84C322.496 701.84 322.436 701.835 322.396 701.825C322.356 701.825 322.311 701.815 322.261 701.795L321.976 700.505C322.006 700.515 322.041 700.525 322.081 700.535C322.121 700.545 322.206 700.55 322.336 700.55C322.526 700.55 322.711 700.53 322.891 700.49C323.081 700.45 323.271 700.37 323.461 700.25C323.821 700.02 324.131 699.7 324.391 699.29C324.661 698.88 324.921 698.375 325.171 697.775L321.736 691.1H323.461L325.861 696.005Z" fill="#3CA7A7"/>
<path d="M275.1 699.333C275.295 699.333 275.481 699.41 275.619 699.548C275.756 699.685 275.834 699.872 275.834 700.066C275.834 700.261 275.756 700.448 275.619 700.585C275.481 700.723 275.295 700.8 275.1 700.8C274.905 700.8 274.719 700.723 274.581 700.585C274.444 700.448 274.366 700.261 274.366 700.066C274.366 699.872 274.444 699.685 274.581 699.548C274.719 699.41 274.905 699.333 275.1 699.333ZM272.534 698.6C272.632 698.596 272.731 698.612 272.823 698.647C272.915 698.683 273 698.736 273.071 698.804C273.142 698.873 273.198 698.955 273.237 699.046C273.276 699.137 273.296 699.234 273.296 699.333C273.296 699.432 273.276 699.53 273.237 699.62C273.198 699.711 273.142 699.793 273.071 699.862C273 699.93 272.915 699.984 272.823 700.019C272.731 700.054 272.632 700.07 272.534 700.066C272.344 700.059 272.165 699.979 272.033 699.842C271.902 699.705 271.828 699.523 271.828 699.333C271.828 699.143 271.902 698.961 272.033 698.824C272.165 698.688 272.344 698.607 272.534 698.6ZM277.666 698.6C277.765 698.596 277.863 698.612 277.956 698.647C278.048 698.683 278.132 698.736 278.203 698.804C278.274 698.873 278.331 698.955 278.37 699.046C278.408 699.137 278.428 699.234 278.428 699.333C278.428 699.432 278.408 699.53 278.37 699.62C278.331 699.711 278.274 699.793 278.203 699.862C278.132 699.93 278.048 699.984 277.956 700.019C277.863 700.054 277.765 700.07 277.666 700.066C277.477 700.059 277.297 699.979 277.166 699.842C277.034 699.705 276.961 699.523 276.961 699.333C276.961 699.143 277.034 698.961 277.166 698.824C277.297 698.688 277.477 698.607 277.666 698.6ZM275.1 687.6C277.811 687.6 279.349 689.33 279.573 691.421H279.641C281.385 691.421 282.8 692.782 282.8 694.461C282.8 696.139 281.385 697.5 279.641 697.5H270.559C268.815 697.5 267.4 696.139 267.4 694.461C267.4 692.782 268.815 691.421 270.559 691.421H270.627C270.853 689.316 272.388 687.6 275.1 687.6ZM275.1 688.7C273.285 688.7 271.704 690.097 271.704 692.028C271.704 692.333 271.425 692.573 271.105 692.573H270.5C269.395 692.572 268.5 693.43 268.5 694.486C268.5 695.542 269.395 696.4 270.5 696.4H279.7C280.805 696.4 281.7 695.542 281.7 694.486C281.7 693.43 280.805 692.572 279.7 692.572H279.095C278.776 692.573 278.496 692.333 278.496 692.028C278.496 690.073 276.915 688.7 275.1 688.7ZM267.183 690.57C267.226 690.692 267.224 690.825 267.178 690.945C267.133 691.066 267.046 691.167 266.934 691.23L266.842 691.27L265.961 691.573C265.831 691.619 265.689 691.614 265.562 691.559C265.436 691.505 265.334 691.405 265.278 691.279C265.221 691.154 265.214 691.011 265.258 690.881C265.301 690.75 265.392 690.64 265.512 690.573L265.603 690.534L266.485 690.23C266.623 690.183 266.774 690.192 266.905 690.256C267.036 690.32 267.136 690.433 267.183 690.571V690.57ZM272.812 685.95C273.178 686.128 273.501 686.36 273.773 686.632C273.327 686.723 272.909 686.863 272.524 687.045C272.027 686.745 271.442 686.628 270.868 686.712C270.294 686.795 269.767 687.075 269.377 687.504C268.986 687.933 268.756 688.483 268.726 689.062C268.696 689.641 268.867 690.213 269.211 690.68C268.848 690.788 268.507 690.945 268.193 691.142C267.767 690.479 267.57 689.696 267.632 688.911C267.693 688.126 268.01 687.382 268.533 686.794C269.056 686.206 269.758 685.805 270.531 685.652C271.303 685.5 272.104 685.604 272.812 685.95ZM266.209 686.137L266.3 686.172L267.138 686.58C267.262 686.64 267.358 686.745 267.409 686.872C267.46 687 267.461 687.142 267.412 687.27C267.363 687.399 267.268 687.504 267.145 687.566C267.022 687.628 266.881 687.642 266.749 687.604L266.656 687.569L265.818 687.161C265.695 687.101 265.598 686.997 265.547 686.869C265.497 686.741 265.496 686.599 265.545 686.471C265.593 686.343 265.688 686.237 265.811 686.175C265.934 686.113 266.075 686.1 266.208 686.137H266.209ZM273.989 683.525C274.105 683.581 274.197 683.676 274.25 683.794C274.302 683.912 274.312 684.044 274.277 684.168L274.242 684.26L273.834 685.099C273.774 685.222 273.67 685.319 273.542 685.369C273.414 685.42 273.272 685.421 273.144 685.372C273.015 685.323 272.91 685.228 272.848 685.106C272.786 684.983 272.773 684.841 272.81 684.709L272.845 684.616L273.254 683.778C273.318 683.647 273.431 683.546 273.569 683.499C273.707 683.452 273.858 683.461 273.989 683.525ZM269.82 683.489L269.861 683.58L270.164 684.462C270.209 684.592 270.203 684.733 270.149 684.859C270.094 684.985 269.994 685.086 269.869 685.142C269.744 685.199 269.602 685.206 269.471 685.163C269.341 685.12 269.231 685.029 269.164 684.909L269.125 684.819L268.821 683.938C268.777 683.809 268.783 683.667 268.838 683.542C268.892 683.416 268.992 683.316 269.117 683.26C269.241 683.204 269.383 683.196 269.513 683.239C269.643 683.281 269.752 683.37 269.82 683.489Z" fill="#117B7D"/>
<g filter="url(#filter2_dd_10_517)">
<rect x="137" y="803" width="56.3228" height="56" rx="15.5556" fill="#EBEBEB"/>
</g>
<path d="M165.713 826.176H163.827V833.719L169.798 837.301L170.741 835.755L165.713 832.776V826.176ZM171.793 818.395L177.585 823.228L175.976 825.158L170.181 820.327L171.793 818.395ZM158.375 818.395L159.987 820.326L154.194 825.158L152.585 823.227L158.375 818.395ZM165.084 821.148C158.837 821.148 153.771 826.214 153.771 832.462C153.771 838.709 158.837 843.775 165.084 843.775C171.332 843.775 176.398 838.709 176.398 832.462C176.398 826.214 171.332 821.148 165.084 821.148ZM165.084 841.261C160.232 841.261 156.285 837.314 156.285 832.462C156.285 827.609 160.232 823.662 165.084 823.662C169.937 823.662 173.884 827.609 173.884 832.462C173.884 837.314 169.937 841.261 165.084 841.261Z" fill="#117B7D"/>
<g filter="url(#filter3_ii_10_517)">
<rect x="235" y="803" width="56.3228" height="56" rx="15.5556" fill="#EBEBEB"/>
</g>
<path d="M277 843C277 843 279 843 279 841C279 839 277 833 269 833C261 833 259 839 259 841C259 843 261 843 261 843H277ZM261.044 841C261.029 840.998 261.015 840.995 261 840.992C261.002 840.464 261.334 838.932 262.52 837.552C263.624 836.258 265.564 835 269 835C272.434 835 274.374 836.26 275.48 837.552C276.666 838.932 276.996 840.466 277 840.992L276.984 840.996C276.975 840.998 276.965 840.999 276.956 841H261.044ZM269 829C270.061 829 271.078 828.579 271.828 827.828C272.579 827.078 273 826.061 273 825C273 823.939 272.579 822.922 271.828 822.172C271.078 821.421 270.061 821 269 821C267.939 821 266.922 821.421 266.172 822.172C265.421 822.922 265 823.939 265 825C265 826.061 265.421 827.078 266.172 827.828C266.922 828.579 267.939 829 269 829ZM275 825C275 825.788 274.845 826.568 274.543 827.296C274.242 828.024 273.8 828.685 273.243 829.243C272.685 829.8 272.024 830.242 271.296 830.543C270.568 830.845 269.788 831 269 831C268.212 831 267.432 830.845 266.704 830.543C265.976 830.242 265.315 829.8 264.757 829.243C264.2 828.685 263.758 828.024 263.457 827.296C263.155 826.568 263 825.788 263 825C263 823.409 263.632 821.883 264.757 820.757C265.883 819.632 267.409 819 269 819C270.591 819 272.117 819.632 273.243 820.757C274.368 821.883 275 823.409 275 825ZM260.872 833.56C260.072 833.308 259.247 833.142 258.412 833.066C257.943 833.021 257.471 832.999 257 833C249 833 247 839 247 841C247 842.334 247.666 843 249 843H257.432C257.136 842.376 256.988 841.691 257 841C257 838.98 257.754 836.916 259.18 835.192C259.666 834.604 260.232 834.054 260.872 833.56ZM256.84 835C255.656 836.779 255.017 838.864 255 841H249C249 840.48 249.328 838.94 250.52 837.552C251.61 836.28 253.504 835.04 256.84 835.002V835ZM250 826C250 824.409 250.632 822.883 251.757 821.757C252.883 820.632 254.409 820 256 820C257.591 820 259.117 820.632 260.243 821.757C261.368 822.883 262 824.409 262 826C262 827.591 261.368 829.117 260.243 830.243C259.117 831.368 257.591 832 256 832C254.409 832 252.883 831.368 251.757 830.243C250.632 829.117 250 827.591 250 826ZM256 822C254.939 822 253.922 822.421 253.172 823.172C252.421 823.922 252 824.939 252 826C252 827.061 252.421 828.078 253.172 828.828C253.922 829.579 254.939 830 256 830C257.061 830 258.078 829.579 258.828 828.828C259.579 828.078 260 827.061 260 826C260 824.939 259.579 823.922 258.828 823.172C258.078 822.421 257.061 822 256 822Z" fill="#117B7D"/>
<g filter="url(#filter4_dd_10_517)">
<rect x="40" y="803" width="56.3228" height="56" rx="15.5556" fill="#EBEBEB"/>
</g>
<path d="M69.2788 829.551L69.0001 829.826L68.7201 829.551C68.1998 829.038 67.4981 828.75 66.7669 828.75C66.0358 828.75 65.3341 829.038 64.8138 829.551C64.5556 829.8 64.3502 830.098 64.2098 830.427C64.0695 830.757 63.9972 831.112 63.9972 831.47C63.9972 831.828 64.0695 832.183 64.2098 832.513C64.3502 832.842 64.5556 833.14 64.8138 833.389L69.0001 837.5L73.1863 833.389C73.4445 833.14 73.65 832.842 73.7903 832.513C73.9306 832.183 74.0029 831.828 74.0029 831.47C74.0029 831.112 73.9306 830.757 73.7903 830.427C73.65 830.098 73.4445 829.8 73.1863 829.551C72.6658 829.038 71.9639 828.749 71.2326 828.749C70.5012 828.749 69.7993 829.038 69.2788 829.551Z" fill="#117B7D"/>
<path d="M81.1337 829.116L69.8837 817.866C69.7677 817.75 69.63 817.658 69.4783 817.595C69.3267 817.532 69.1641 817.5 69 817.5C68.8358 817.5 68.6733 817.532 68.5216 817.595C68.37 817.658 68.2322 817.75 68.1162 817.866L56.8662 829.116C56.6915 829.291 56.5725 829.514 56.5242 829.756C56.476 829.999 56.5008 830.25 56.5954 830.478C56.69 830.707 56.8501 830.902 57.0557 831.039C57.2612 831.177 57.5028 831.25 57.75 831.25H59V840C59 841.379 60.1212 842.5 61.5 842.5H76.5C77.8787 842.5 79 841.379 79 840V831.25H80.25C80.4972 831.25 80.7388 831.177 80.9443 831.039C81.1498 830.902 81.31 830.707 81.4046 830.478C81.4992 830.25 81.5239 829.999 81.4757 829.756C81.4275 829.514 81.3085 829.291 81.1337 829.116ZM76.5012 840H61.5V828.019L69 820.519L76.5 828.019V833.75L76.5012 840Z" fill="#117B7D"/>
<g filter="url(#filter5_dd_10_517)">
<rect x="332" y="803" width="56.3228" height="56" rx="15.5556" fill="#EBEBEB"/>
</g>
<path d="M352.542 818.514V826.057H352.555L352.542 826.069L357.571 831.085L352.542 836.113L352.555 836.126H352.542V843.656H367.627V836.126H367.615L367.627 836.113L362.599 831.085L367.627 826.069L367.615 826.057H367.627V818.514H352.542ZM365.113 836.742V841.142H355.057V836.742L360.085 831.714L365.113 836.742ZM360.085 830.456L355.057 825.428V821.028H365.113V825.428L360.085 830.456Z" fill="#117B7D"/>
<circle cx="153.5" cy="760.5" r="7.5" fill="#3CA7A7"/>
<circle cx="183.5" cy="760.5" r="7.5" fill="#C4C4C4"/>
<circle cx="213.5" cy="760.5" r="7.5" fill="#C4C4C4"/>
<circle cx="243.5" cy="760.5" r="7.5" fill="#C4C4C4"/>
<circle cx="273.5" cy="760.5" r="7.5" fill="#C4C4C4"/>
<g filter="url(#filter6_dd_10_517)">
<circle cx="214" cy="314" r="113" fill="#DEEEE6"/>
<circle cx="214" cy="314" r="113" stroke="#DEEEE6" stroke-width="24"/>
</g>
<g filter="url(#filter7_dd_10_517)">
<circle cx="214" cy="314" r="66" fill="#DEEEE6"/>
<circle cx="214" cy="314" r="66" stroke="#DEEEE6" stroke-width="14.0177"/>
</g>
<line x1="215" y1="189" x2="215" y2="204" stroke="#002232" stroke-width="2"/>
<line x1="215" y1="303" x2="215" y2="409" stroke="#159A9C" stroke-width="2"/>
<line x1="215" y1="424" x2="215" y2="439" stroke="#002232" stroke-width="2"/>
<line x1="339" y1="317" x2="324" y2="317" stroke="#002232" stroke-width="2"/>
<line x1="104" y1="317" x2="89" y2="317" stroke="#002232" stroke-width="2"/>
<line x1="204.56" y1="303.172" x2="265.032" y2="344.064" stroke="#002232" stroke-width="2"/>
<g filter="url(#filter8_dd_10_517)">
<rect x="156" y="472" width="116" height="26" rx="13" fill="#DEEEE6" shape-rendering="crispEdges"/>
<rect x="155.5" y="471.5" width="117" height="27" rx="13.5" stroke="#C4C4C4" stroke-opacity="0.15" shape-rendering="crispEdges"/>
</g>
<path d="M173.26 490V481.6H176.8C177.696 481.6 178.484 481.776 179.164 482.128C179.852 482.48 180.384 482.972 180.76 483.604C181.144 484.236 181.336 484.968 181.336 485.8C181.336 486.632 181.144 487.364 180.76 487.996C180.384 488.628 179.852 489.12 179.164 489.472C178.484 489.824 177.696 490 176.8 490H173.26ZM174.46 488.956H176.728C177.424 488.956 178.024 488.824 178.528 488.56C179.04 488.296 179.436 487.928 179.716 487.456C179.996 486.976 180.136 486.424 180.136 485.8C180.136 485.168 179.996 484.616 179.716 484.144C179.436 483.672 179.04 483.304 178.528 483.04C178.024 482.776 177.424 482.644 176.728 482.644H174.46V488.956ZM185.838 490.072C185.158 490.072 184.558 489.932 184.038 489.652C183.526 489.372 183.126 488.988 182.838 488.5C182.558 488.012 182.418 487.452 182.418 486.82C182.418 486.188 182.554 485.628 182.826 485.14C183.106 484.652 183.486 484.272 183.966 484C184.454 483.72 185.002 483.58 185.61 483.58C186.226 483.58 186.77 483.716 187.242 483.988C187.714 484.26 188.082 484.644 188.346 485.14C188.618 485.628 188.754 486.2 188.754 486.856C188.754 486.904 188.75 486.96 188.742 487.024C188.742 487.088 188.738 487.148 188.73 487.204H183.318V486.376H188.13L187.662 486.664C187.67 486.256 187.586 485.892 187.41 485.572C187.234 485.252 186.99 485.004 186.678 484.828C186.374 484.644 186.018 484.552 185.61 484.552C185.21 484.552 184.854 484.644 184.542 484.828C184.23 485.004 183.986 485.256 183.81 485.584C183.634 485.904 183.546 486.272 183.546 486.688V486.88C183.546 487.304 183.642 487.684 183.834 488.02C184.034 488.348 184.31 488.604 184.662 488.788C185.014 488.972 185.418 489.064 185.874 489.064C186.25 489.064 186.59 489 186.894 488.872C187.206 488.744 187.478 488.552 187.71 488.296L188.346 489.04C188.058 489.376 187.698 489.632 187.266 489.808C186.842 489.984 186.366 490.072 185.838 490.072ZM190.522 490V483.076C190.522 482.452 190.702 481.956 191.062 481.588C191.43 481.212 191.95 481.024 192.622 481.024C192.87 481.024 193.106 481.056 193.33 481.12C193.562 481.176 193.758 481.268 193.918 481.396L193.57 482.272C193.45 482.176 193.314 482.104 193.162 482.056C193.01 482 192.85 481.972 192.682 481.972C192.346 481.972 192.09 482.068 191.914 482.26C191.738 482.444 191.65 482.72 191.65 483.088V483.94L191.674 484.468V490H190.522ZM189.442 484.588V483.64H193.498V484.588H189.442ZM198.415 490V488.656L198.355 488.404V486.112C198.355 485.624 198.211 485.248 197.923 484.984C197.643 484.712 197.219 484.576 196.651 484.576C196.275 484.576 195.907 484.64 195.547 484.768C195.187 484.888 194.883 485.052 194.635 485.26L194.155 484.396C194.483 484.132 194.875 483.932 195.331 483.796C195.795 483.652 196.279 483.58 196.783 483.58C197.655 483.58 198.327 483.792 198.799 484.216C199.271 484.64 199.507 485.288 199.507 486.16V490H198.415ZM196.327 490.072C195.855 490.072 195.439 489.992 195.079 489.832C194.727 489.672 194.455 489.452 194.263 489.172C194.071 488.884 193.975 488.56 193.975 488.2C193.975 487.856 194.055 487.544 194.215 487.264C194.383 486.984 194.651 486.76 195.019 486.592C195.395 486.424 195.899 486.34 196.531 486.34H198.547V487.168H196.579C196.003 487.168 195.615 487.264 195.415 487.456C195.215 487.648 195.115 487.88 195.115 488.152C195.115 488.464 195.239 488.716 195.487 488.908C195.735 489.092 196.079 489.184 196.519 489.184C196.951 489.184 197.327 489.088 197.647 488.896C197.975 488.704 198.211 488.424 198.355 488.056L198.583 488.848C198.431 489.224 198.163 489.524 197.779 489.748C197.395 489.964 196.911 490.072 196.327 490.072ZM204.315 490.072C203.771 490.072 203.291 489.972 202.875 489.772C202.467 489.572 202.147 489.268 201.915 488.86C201.691 488.444 201.579 487.924 201.579 487.3V483.64H202.731V487.168C202.731 487.792 202.879 488.26 203.175 488.572C203.479 488.884 203.903 489.04 204.447 489.04C204.847 489.04 205.195 488.96 205.491 488.8C205.787 488.632 206.015 488.392 206.175 488.08C206.335 487.76 206.415 487.376 206.415 486.928V483.64H207.567V490H206.475V488.284L206.655 488.74C206.447 489.164 206.135 489.492 205.719 489.724C205.303 489.956 204.835 490.072 204.315 490.072ZM209.76 490V481.096H210.912V490H209.76ZM215.46 490.072C214.82 490.072 214.324 489.9 213.972 489.556C213.62 489.212 213.444 488.72 213.444 488.08V482.248H214.596V488.032C214.596 488.376 214.68 488.64 214.848 488.824C215.024 489.008 215.272 489.1 215.592 489.1C215.952 489.1 216.252 489 216.492 488.8L216.852 489.628C216.676 489.78 216.464 489.892 216.216 489.964C215.976 490.036 215.724 490.072 215.46 490.072ZM212.364 484.588V483.64H216.42V484.588H212.364ZM225.391 490.096C224.751 490.096 224.159 489.992 223.615 489.784C223.079 489.568 222.611 489.268 222.211 488.884C221.819 488.492 221.511 488.036 221.287 487.516C221.063 486.996 220.951 486.424 220.951 485.8C220.951 485.176 221.063 484.604 221.287 484.084C221.511 483.564 221.823 483.112 222.223 482.728C222.623 482.336 223.091 482.036 223.627 481.828C224.171 481.612 224.763 481.504 225.403 481.504C226.051 481.504 226.647 481.616 227.191 481.84C227.743 482.056 228.211 482.38 228.595 482.812L227.815 483.568C227.495 483.232 227.135 482.984 226.735 482.824C226.335 482.656 225.907 482.572 225.451 482.572C224.979 482.572 224.539 482.652 224.131 482.812C223.731 482.972 223.383 483.196 223.087 483.484C222.791 483.772 222.559 484.116 222.391 484.516C222.231 484.908 222.151 485.336 222.151 485.8C222.151 486.264 222.231 486.696 222.391 487.096C222.559 487.488 222.791 487.828 223.087 488.116C223.383 488.404 223.731 488.628 224.131 488.788C224.539 488.948 224.979 489.028 225.451 489.028C225.907 489.028 226.335 488.948 226.735 488.788C227.135 488.62 227.495 488.364 227.815 488.02L228.595 488.776C228.211 489.208 227.743 489.536 227.191 489.76C226.647 489.984 226.047 490.096 225.391 490.096ZM230.139 490V481.096H231.291V490H230.139ZM236.214 490.072C235.574 490.072 235.006 489.932 234.51 489.652C234.014 489.372 233.622 488.988 233.334 488.5C233.046 488.004 232.902 487.444 232.902 486.82C232.902 486.188 233.046 485.628 233.334 485.14C233.622 484.652 234.014 484.272 234.51 484C235.006 483.72 235.574 483.58 236.214 483.58C236.846 483.58 237.41 483.72 237.906 484C238.41 484.272 238.802 484.652 239.082 485.14C239.37 485.62 239.514 486.18 239.514 486.82C239.514 487.452 239.37 488.012 239.082 488.5C238.802 488.988 238.41 489.372 237.906 489.652C237.41 489.932 236.846 490.072 236.214 490.072ZM236.214 489.064C236.622 489.064 236.986 488.972 237.306 488.788C237.634 488.604 237.89 488.344 238.074 488.008C238.258 487.664 238.35 487.268 238.35 486.82C238.35 486.364 238.258 485.972 238.074 485.644C237.89 485.308 237.634 485.048 237.306 484.864C236.986 484.68 236.622 484.588 236.214 484.588C235.806 484.588 235.442 484.68 235.122 484.864C234.802 485.048 234.546 485.308 234.354 485.644C234.162 485.972 234.066 486.364 234.066 486.82C234.066 487.268 234.162 487.664 234.354 488.008C234.546 488.344 234.802 488.604 235.122 488.788C235.442 488.972 235.806 489.064 236.214 489.064ZM243.88 490.072C243.232 490.072 242.652 489.932 242.14 489.652C241.636 489.372 241.24 488.988 240.952 488.5C240.664 488.012 240.52 487.452 240.52 486.82C240.52 486.188 240.664 485.628 240.952 485.14C241.24 484.652 241.636 484.272 242.14 484C242.652 483.72 243.232 483.58 243.88 483.58C244.456 483.58 244.968 483.696 245.416 483.928C245.872 484.152 246.224 484.488 246.472 484.936L245.596 485.5C245.388 485.188 245.132 484.96 244.828 484.816C244.532 484.664 244.212 484.588 243.868 484.588C243.452 484.588 243.08 484.68 242.752 484.864C242.424 485.048 242.164 485.308 241.972 485.644C241.78 485.972 241.684 486.364 241.684 486.82C241.684 487.276 241.78 487.672 241.972 488.008C242.164 488.344 242.424 488.604 242.752 488.788C243.08 488.972 243.452 489.064 243.868 489.064C244.212 489.064 244.532 488.992 244.828 488.848C245.132 488.696 245.388 488.464 245.596 488.152L246.472 488.704C246.224 489.144 245.872 489.484 245.416 489.724C244.968 489.956 244.456 490.072 243.88 490.072ZM248.817 488.464L248.841 486.988L252.501 483.64H253.893L251.085 486.4L250.461 486.928L248.817 488.464ZM247.881 490V481.096H249.033V490H247.881ZM252.741 490L250.245 486.904L250.989 485.98L254.157 490H252.741Z" fill="#002232"/>
<defs>
<filter id="filter0_dd_10_517" x="312" y="50" width="105.044" height="105.044" filterUnits="userSpaceOnUse" color-interpolation-filters="sRGB">
<feFlood flood-opacity="0" result="BackgroundImageFix"/>
<feColorMatrix in="SourceAlpha" type="matrix" values="0 0 0 0 0 0 0 0 0 0 0 0 0 0 0 0 0 0 127 0" result="hardAlpha"/>
<feOffset dx="10.0444" dy="10.0444"/>
<feGaussianBlur stdDeviation="10"/>
<feComposite in2="hardAlpha" operator="out"/>
<feColorMatrix type="matrix" values="0 0 0 0 0 0 0 0 0 0 0 0 0 0 0 0 0 0 0.04 0"/>
<feBlend mode="normal" in2="BackgroundImageFix" result="effect1_dropShadow_10_517"/>
<feColorMatrix in="SourceAlpha" type="matrix" values="0 0 0 0 0 0 0 0 0 0 0 0 0 0 0 0 0 0 127 0" result="hardAlpha"/>
<feOffset dx="-10" dy="-10"/>
<feGaussianBlur stdDeviation="10"/>
<feComposite in2="hardAlpha" operator="out"/>
<feColorMatrix type="matrix" values="0 0 0 0 1 0 0 0 0 1 0 0 0 0 1 0 0 0 0.38 0"/>
<feBlend mode="normal" in2="effect1_dropShadow_10_517" result="effect2_dropShadow_10_517"/>
<feBlend mode="normal" in="SourceGraphic" in2="effect2_dropShadow_10_517" result="shape"/>
</filter>
<filter id="filter1_dd_10_517" x="71" y="516" width="285" height="216" filterUnits="userSpaceOnUse" color-interpolation-filters="sRGB">
<feFlood flood-opacity="0" result="BackgroundImageFix"/>
<feColorMatrix in="SourceAlpha" type="matrix" values="0 0 0 0 0 0 0 0 0 0 0 0 0 0 0 0 0 0 127 0" result="hardAlpha"/>
<feOffset dx="4" dy="4"/>
<feGaussianBlur stdDeviation="6"/>
<feComposite in2="hardAlpha" operator="out"/>
<feColorMatrix type="matrix" values="0 0 0 0 0 0 0 0 0 0 0 0 0 0 0 0 0 0 0.11 0"/>
<feBlend mode="normal" in2="BackgroundImageFix" result="effect1_dropShadow_10_517"/>
<feColorMatrix in="SourceAlpha" type="matrix" values="0 0 0 0 0 0 0 0 0 0 0 0 0 0 0 0 0 0 127 0" result="hardAlpha"/>
<feOffset dx="-4" dy="-4"/>
<feGaussianBlur stdDeviation="6"/>
<feComposite in2="hardAlpha" operator="out"/>
<feColorMatrix type="matrix" values="0 0 0 0 1 0 0 0 0 1 0 0 0 0 1 0 0 0 0.5 0"/>
<feBlend mode="normal" in2="effect1_dropShadow_10_517" result="effect2_dropShadow_10_517"/>
<feBlend mode="normal" in="SourceGraphic" in2="effect2_dropShadow_10_517" result="shape"/>
</filter>
<filter id="filter2_dd_10_517" x="112.111" y="778.111" width="106.101" height="105.778" filterUnits="userSpaceOnUse" color-interpolation-filters="sRGB">
<feFlood flood-opacity="0" result="BackgroundImageFix"/>
<feColorMatrix in="SourceAlpha" type="matrix" values="0 0 0 0 0 0 0 0 0 0 0 0 0 0 0 0 0 0 127 0" result="hardAlpha"/>
<feOffset dx="6.22222" dy="6.22222"/>
<feGaussianBlur stdDeviation="9.33333"/>
<feComposite in2="hardAlpha" operator="out"/>
<feColorMatrix type="matrix" values="0 0 0 0 0 0 0 0 0 0 0 0 0 0 0 0 0 0 0.09 0"/>
<feBlend mode="normal" in2="BackgroundImageFix" result="effect1_dropShadow_10_517"/>
<feColorMatrix in="SourceAlpha" type="matrix" values="0 0 0 0 0 0 0 0 0 0 0 0 0 0 0 0 0 0 127 0" result="hardAlpha"/>
<feOffset dx="-6.22222" dy="-6.22222"/>
<feGaussianBlur stdDeviation="9.33333"/>
<feComposite in2="hardAlpha" operator="out"/>
<feColorMatrix type="matrix" values="0 0 0 0 1 0 0 0 0 1 0 0 0 0 1 0 0 0 0.68 0"/>
<feBlend mode="normal" in2="effect1_dropShadow_10_517" result="effect2_dropShadow_10_517"/>
<feBlend mode="normal" in="SourceGraphic" in2="effect2_dropShadow_10_517" result="shape"/>
</filter>
<filter id="filter3_ii_10_517" x="228.778" y="796.778" width="68.7672" height="68.4444" filterUnits="userSpaceOnUse" color-interpolation-filters="sRGB">
<feFlood flood-opacity="0" result="BackgroundImageFix"/>
<feBlend mode="normal" in="SourceGraphic" in2="BackgroundImageFix" result="shape"/>
<feColorMatrix in="SourceAlpha" type="matrix" values="0 0 0 0 0 0 0 0 0 0 0 0 0 0 0 0 0 0 127 0" result="hardAlpha"/>
<feOffset dx="6.22222" dy="6.22222"/>
<feGaussianBlur stdDeviation="9.33333"/>
<feComposite in2="hardAlpha" operator="arithmetic" k2="-1" k3="1"/>
<feColorMatrix type="matrix" values="0 0 0 0 0 0 0 0 0 0 0 0 0 0 0 0 0 0 0.09 0"/>
<feBlend mode="normal" in2="shape" result="effect1_innerShadow_10_517"/>
<feColorMatrix in="SourceAlpha" type="matrix" values="0 0 0 0 0 0 0 0 0 0 0 0 0 0 0 0 0 0 127 0" result="hardAlpha"/>
<feOffset dx="-6.22222" dy="-6.22222"/>
<feGaussianBlur stdDeviation="9.33333"/>
<feComposite in2="hardAlpha" operator="arithmetic" k2="-1" k3="1"/>
<feColorMatrix type="matrix" values="0 0 0 0 1 0 0 0 0 1 0 0 0 0 1 0 0 0 0.68 0"/>
<feBlend mode="normal" in2="effect1_innerShadow_10_517" result="effect2_innerShadow_10_517"/>
</filter>
<filter id="filter4_dd_10_517" x="15.1111" y="778.111" width="106.101" height="105.778" filterUnits="userSpaceOnUse" color-interpolation-filters="sRGB">
<feFlood flood-opacity="0" result="BackgroundImageFix"/>
<feColorMatrix in="SourceAlpha" type="matrix" values="0 0 0 0 0 0 0 0 0 0 0 0 0 0 0 0 0 0 127 0" result="hardAlpha"/>
<feOffset dx="6.22222" dy="6.22222"/>
<feGaussianBlur stdDeviation="9.33333"/>
<feComposite in2="hardAlpha" operator="out"/>
<feColorMatrix type="matrix" values="0 0 0 0 0 0 0 0 0 0 0 0 0 0 0 0 0 0 0.09 0"/>
<feBlend mode="normal" in2="BackgroundImageFix" result="effect1_dropShadow_10_517"/>
<feColorMatrix in="SourceAlpha" type="matrix" values="0 0 0 0 0 0 0 0 0 0 0 0 0 0 0 0 0 0 127 0" result="hardAlpha"/>
<feOffset dx="-6.22222" dy="-6.22222"/>
<feGaussianBlur stdDeviation="9.33333"/>
<feComposite in2="hardAlpha" operator="out"/>
<feColorMatrix type="matrix" values="0 0 0 0 1 0 0 0 0 1 0 0 0 0 1 0 0 0 0.68 0"/>
<feBlend mode="normal" in2="effect1_dropShadow_10_517" result="effect2_dropShadow_10_517"/>
<feBlend mode="normal" in="SourceGraphic" in2="effect2_dropShadow_10_517" result="shape"/>
</filter>
<filter id="filter5_dd_10_517" x="307.111" y="778.111" width="106.101" height="105.778" filterUnits="userSpaceOnUse" color-interpolation-filters="sRGB">
<feFlood flood-opacity="0" result="BackgroundImageFix"/>
<feColorMatrix in="SourceAlpha" type="matrix" values="0 0 0 0 0 0 0 0 0 0 0 0 0 0 0 0 0 0 127 0" result="hardAlpha"/>
<feOffset dx="6.22222" dy="6.22222"/>
<feGaussianBlur stdDeviation="9.33333"/>
<feComposite in2="hardAlpha" operator="out"/>
<feColorMatrix type="matrix" values="0 0 0 0 0 0 0 0 0 0 0 0 0 0 0 0 0 0 0.09 0"/>
<feBlend mode="normal" in2="BackgroundImageFix" result="effect1_dropShadow_10_517"/>
<feColorMatrix in="SourceAlpha" type="matrix" values="0 0 0 0 0 0 0 0 0 0 0 0 0 0 0 0 0 0 127 0" result="hardAlpha"/>
<feOffset dx="-6.22222" dy="-6.22222"/>
<feGaussianBlur stdDeviation="9.33333"/>
<feComposite in2="hardAlpha" operator="out"/>
<feColorMatrix type="matrix" values="0 0 0 0 1 0 0 0 0 1 0 0 0 0 1 0 0 0 0.68 0"/>
<feBlend mode="normal" in2="effect1_dropShadow_10_517" result="effect2_dropShadow_10_517"/>
<feBlend mode="normal" in="SourceGraphic" in2="effect2_dropShadow_10_517" result="shape"/>
</filter>
<filter id="filter6_dd_10_517" x="59" y="159" width="310.044" height="310.044" filterUnits="userSpaceOnUse" color-interpolation-filters="sRGB">
<feFlood flood-opacity="0" result="BackgroundImageFix"/>
<feColorMatrix in="SourceAlpha" type="matrix" values="0 0 0 0 0 0 0 0 0 0 0 0 0 0 0 0 0 0 127 0" result="hardAlpha"/>
<feOffset dx="10.0444" dy="10.0444"/>
<feGaussianBlur stdDeviation="10"/>
<feComposite in2="hardAlpha" operator="out"/>
<feColorMatrix type="matrix" values="0 0 0 0 0 0 0 0 0 0 0 0 0 0 0 0 0 0 0.07 0"/>
<feBlend mode="normal" in2="BackgroundImageFix" result="effect1_dropShadow_10_517"/>
<feColorMatrix in="SourceAlpha" type="matrix" values="0 0 0 0 0 0 0 0 0 0 0 0 0 0 0 0 0 0 127 0" result="hardAlpha"/>
<feOffset dx="-10" dy="-10"/>
<feGaussianBlur stdDeviation="10"/>
<feComposite in2="hardAlpha" operator="out"/>
<feColorMatrix type="matrix" values="0 0 0 0 1 0 0 0 0 1 0 0 0 0 1 0 0 0 0.48 0"/>
<feBlend mode="normal" in2="effect1_dropShadow_10_517" result="effect2_dropShadow_10_517"/>
<feBlend mode="normal" in="SourceGraphic" in2="effect2_dropShadow_10_517" result="shape"/>
</filter>
<filter id="filter7_dd_10_517" x="123.469" y="223.469" width="181.088" height="181.088" filterUnits="userSpaceOnUse" color-interpolation-filters="sRGB">
<feFlood flood-opacity="0" result="BackgroundImageFix"/>
<feColorMatrix in="SourceAlpha" type="matrix" values="0 0 0 0 0 0 0 0 0 0 0 0 0 0 0 0 0 0 127 0" result="hardAlpha"/>
<feOffset dx="5.86667" dy="5.86667"/>
<feGaussianBlur stdDeviation="5.84071"/>
<feComposite in2="hardAlpha" operator="out"/>
<feColorMatrix type="matrix" values="0 0 0 0 0 0 0 0 0 0 0 0 0 0 0 0 0 0 0.07 0"/>
<feBlend mode="normal" in2="BackgroundImageFix" result="effect1_dropShadow_10_517"/>
<feColorMatrix in="SourceAlpha" type="matrix" values="0 0 0 0 0 0 0 0 0 0 0 0 0 0 0 0 0 0 127 0" result="hardAlpha"/>
<feOffset dx="-5.84071" dy="-5.84071"/>
<feGaussianBlur stdDeviation="5.84071"/>
<feComposite in2="hardAlpha" operator="out"/>
<feColorMatrix type="matrix" values="0 0 0 0 1 0 0 0 0 1 0 0 0 0 1 0 0 0 0.48 0"/>
<feBlend mode="normal" in2="effect1_dropShadow_10_517" result="effect2_dropShadow_10_517"/>
<feBlend mode="normal" in="SourceGraphic" in2="effect2_dropShadow_10_517" result="shape"/>
</filter>
<filter id="filter8_dd_10_517" x="125" y="441" width="178.044" height="88.0444" filterUnits="userSpaceOnUse" color-interpolation-filters="sRGB">
<feFlood flood-opacity="0" result="BackgroundImageFix"/>
<feColorMatrix in="SourceAlpha" type="matrix" values="0 0 0 0 0 0 0 0 0 0 0 0 0 0 0 0 0 0 127 0" result="hardAlpha"/>
<feOffset dx="10.0444" dy="10.0444"/>
<feGaussianBlur stdDeviation="10"/>
<feComposite in2="hardAlpha" operator="out"/>
<feColorMatrix type="matrix" values="0 0 0 0 0 0 0 0 0 0 0 0 0 0 0 0 0 0 0.07 0"/>
<feBlend mode="normal" in2="BackgroundImageFix" result="effect1_dropShadow_10_517"/>
<feColorMatrix in="SourceAlpha" type="matrix" values="0 0 0 0 0 0 0 0 0 0 0 0 0 0 0 0 0 0 127 0" result="hardAlpha"/>
<feOffset dx="-10" dy="-10"/>
<feGaussianBlur stdDeviation="10"/>
<feComposite in2="hardAlpha" operator="out"/>
<feColorMatrix type="matrix" values="0 0 0 0 1 0 0 0 0 1 0 0 0 0 1 0 0 0 0.48 0"/>
<feBlend mode="normal" in2="effect1_dropShadow_10_517" result="effect2_dropShadow_10_517"/>
<feBlend mode="normal" in="SourceGraphic" in2="effect2_dropShadow_10_517" result="shape"/>
</filter>
</defs>
</svg>
