<svg width="428" height="926" viewBox="0 0 428 926" fill="none" xmlns="http://www.w3.org/2000/svg">
<g clip-path="url(#clip0_4_76)">
<rect width="428" height="926" fill="white"/>
<path d="M47.92 124L38.48 96H41.52L50.36 122.36H48.84L57.96 96H60.68L69.68 122.36H68.24L77.16 96H80L70.56 124H67.44L58.84 99H59.64L51 124H47.92ZM92.1456 124.2C89.959 124.2 88.039 123.747 86.3856 122.84C84.7323 121.907 83.439 120.64 82.5056 119.04C81.5723 117.413 81.1056 115.56 81.1056 113.48C81.1056 111.4 81.5456 109.56 82.4256 107.96C83.3323 106.36 84.559 105.107 86.1056 104.2C87.679 103.267 89.439 102.8 91.3856 102.8C93.359 102.8 95.1056 103.253 96.6256 104.16C98.1723 105.04 99.3856 106.293 100.266 107.92C101.146 109.52 101.586 111.373 101.586 113.48C101.586 113.613 101.572 113.76 101.546 113.92C101.546 114.053 101.546 114.2 101.546 114.36H83.2656V112.24H100.026L98.9056 113.08C98.9056 111.56 98.5723 110.213 97.9056 109.04C97.2656 107.84 96.3856 106.907 95.2656 106.24C94.1456 105.573 92.8523 105.24 91.3856 105.24C89.9456 105.24 88.6523 105.573 87.5056 106.24C86.359 106.907 85.4656 107.84 84.8256 109.04C84.1856 110.24 83.8656 111.613 83.8656 113.16V113.6C83.8656 115.2 84.2123 116.613 84.9056 117.84C85.6256 119.04 86.6123 119.987 87.8656 120.68C89.1456 121.347 90.599 121.68 92.2256 121.68C93.5056 121.68 94.6923 121.453 95.7856 121C96.9056 120.547 97.8656 119.853 98.6656 118.92L100.266 120.76C99.3323 121.88 98.159 122.733 96.7456 123.32C95.359 123.907 93.8256 124.2 92.1456 124.2ZM107.366 124V94.32H110.206V124H107.366ZM126.828 124.2C124.748 124.2 122.882 123.747 121.228 122.84C119.602 121.907 118.322 120.64 117.388 119.04C116.455 117.413 115.988 115.56 115.988 113.48C115.988 111.373 116.455 109.52 117.388 107.92C118.322 106.32 119.602 105.067 121.228 104.16C122.882 103.253 124.748 102.8 126.828 102.8C128.615 102.8 130.228 103.147 131.668 103.84C133.108 104.533 134.242 105.573 135.068 106.96L132.948 108.4C132.228 107.333 131.335 106.547 130.268 106.04C129.202 105.533 128.042 105.28 126.788 105.28C125.295 105.28 123.948 105.627 122.748 106.32C121.548 106.987 120.602 107.933 119.908 109.16C119.215 110.387 118.868 111.827 118.868 113.48C118.868 115.133 119.215 116.573 119.908 117.8C120.602 119.027 121.548 119.987 122.748 120.68C123.948 121.347 125.295 121.68 126.788 121.68C128.042 121.68 129.202 121.427 130.268 120.92C131.335 120.413 132.228 119.64 132.948 118.6L135.068 120.04C134.242 121.4 133.108 122.44 131.668 123.16C130.228 123.853 128.615 124.2 126.828 124.2ZM148.856 124.2C146.829 124.2 145.003 123.747 143.376 122.84C141.776 121.907 140.509 120.64 139.576 119.04C138.643 117.413 138.176 115.56 138.176 113.48C138.176 111.373 138.643 109.52 139.576 107.92C140.509 106.32 141.776 105.067 143.376 104.16C144.976 103.253 146.803 102.8 148.856 102.8C150.936 102.8 152.776 103.253 154.376 104.16C156.003 105.067 157.269 106.32 158.176 107.92C159.109 109.52 159.576 111.373 159.576 113.48C159.576 115.56 159.109 117.413 158.176 119.04C157.269 120.64 156.003 121.907 154.376 122.84C152.749 123.747 150.909 124.2 148.856 124.2ZM148.856 121.68C150.376 121.68 151.723 121.347 152.896 120.68C154.069 119.987 154.989 119.027 155.656 117.8C156.349 116.547 156.696 115.107 156.696 113.48C156.696 111.827 156.349 110.387 155.656 109.16C154.989 107.933 154.069 106.987 152.896 106.32C151.723 105.627 150.389 105.28 148.896 105.28C147.403 105.28 146.069 105.627 144.896 106.32C143.723 106.987 142.789 107.933 142.096 109.16C141.403 110.387 141.056 111.827 141.056 113.48C141.056 115.107 141.403 116.547 142.096 117.8C142.789 119.027 143.723 119.987 144.896 120.68C146.069 121.347 147.389 121.68 148.856 121.68ZM191.614 102.8C193.321 102.8 194.801 103.133 196.054 103.8C197.334 104.44 198.321 105.427 199.014 106.76C199.734 108.093 200.094 109.773 200.094 111.8V124H197.254V112.08C197.254 109.867 196.721 108.2 195.654 107.08C194.614 105.933 193.134 105.36 191.214 105.36C189.774 105.36 188.521 105.667 187.454 106.28C186.414 106.867 185.601 107.733 185.014 108.88C184.454 110 184.174 111.36 184.174 112.96V124H181.334V112.08C181.334 109.867 180.801 108.2 179.734 107.08C178.667 105.933 177.174 105.36 175.254 105.36C173.841 105.36 172.601 105.667 171.534 106.28C170.467 106.867 169.641 107.733 169.054 108.88C168.494 110 168.214 111.36 168.214 112.96V124H165.374V103H168.094V108.68L167.654 107.68C168.294 106.16 169.321 104.973 170.734 104.12C172.174 103.24 173.867 102.8 175.814 102.8C177.867 102.8 179.614 103.32 181.054 104.36C182.494 105.373 183.427 106.907 183.854 108.96L182.734 108.52C183.347 106.813 184.427 105.44 185.974 104.4C187.547 103.333 189.427 102.8 191.614 102.8ZM216.716 124.2C214.529 124.2 212.609 123.747 210.956 122.84C209.303 121.907 208.009 120.64 207.076 119.04C206.143 117.413 205.676 115.56 205.676 113.48C205.676 111.4 206.116 109.56 206.996 107.96C207.903 106.36 209.129 105.107 210.676 104.2C212.249 103.267 214.009 102.8 215.956 102.8C217.929 102.8 219.676 103.253 221.196 104.16C222.743 105.04 223.956 106.293 224.836 107.92C225.716 109.52 226.156 111.373 226.156 113.48C226.156 113.613 226.143 113.76 226.116 113.92C226.116 114.053 226.116 114.2 226.116 114.36H207.836V112.24H224.596L223.476 113.08C223.476 111.56 223.143 110.213 222.476 109.04C221.836 107.84 220.956 106.907 219.836 106.24C218.716 105.573 217.423 105.24 215.956 105.24C214.516 105.24 213.223 105.573 212.076 106.24C210.929 106.907 210.036 107.84 209.396 109.04C208.756 110.24 208.436 111.613 208.436 113.16V113.6C208.436 115.2 208.783 116.613 209.476 117.84C210.196 119.04 211.183 119.987 212.436 120.68C213.716 121.347 215.169 121.68 216.796 121.68C218.076 121.68 219.263 121.453 220.356 121C221.476 120.547 222.436 119.853 223.236 118.92L224.836 120.76C223.903 121.88 222.729 122.733 221.316 123.32C219.929 123.907 218.396 124.2 216.716 124.2ZM248.445 124V98.56H238.605V96H261.245V98.56H251.405V124H248.445ZM271.747 124.2C269.72 124.2 267.893 123.747 266.267 122.84C264.667 121.907 263.4 120.64 262.467 119.04C261.533 117.413 261.067 115.56 261.067 113.48C261.067 111.373 261.533 109.52 262.467 107.92C263.4 106.32 264.667 105.067 266.267 104.16C267.867 103.253 269.693 102.8 271.747 102.8C273.827 102.8 275.667 103.253 277.267 104.16C278.893 105.067 280.16 106.32 281.067 107.92C282 109.52 282.467 111.373 282.467 113.48C282.467 115.56 282 117.413 281.067 119.04C280.16 120.64 278.893 121.907 277.267 122.84C275.64 123.747 273.8 124.2 271.747 124.2ZM271.747 121.68C273.267 121.68 274.613 121.347 275.787 120.68C276.96 119.987 277.88 119.027 278.547 117.8C279.24 116.547 279.587 115.107 279.587 113.48C279.587 111.827 279.24 110.387 278.547 109.16C277.88 107.933 276.96 106.987 275.787 106.32C274.613 105.627 273.28 105.28 271.787 105.28C270.293 105.28 268.96 105.627 267.787 106.32C266.613 106.987 265.68 107.933 264.987 109.16C264.293 110.387 263.947 111.827 263.947 113.48C263.947 115.107 264.293 116.547 264.987 117.8C265.68 119.027 266.613 119.987 267.787 120.68C268.96 121.347 270.28 121.68 271.747 121.68ZM53.72 173.24C51.6133 173.24 49.6667 172.893 47.88 172.2C46.0933 171.48 44.5467 170.48 43.24 169.2C41.9333 167.92 40.9067 166.413 40.16 164.68C39.44 162.947 39.08 161.053 39.08 159C39.08 156.947 39.44 155.053 40.16 153.32C40.9067 151.587 41.9333 150.08 43.24 148.8C44.5733 147.52 46.1333 146.533 47.92 145.84C49.7067 145.12 51.6533 144.76 53.76 144.76C55.7867 144.76 57.6933 145.107 59.48 145.8C61.2667 146.467 62.7733 147.48 64 148.84L62.12 150.72C60.9733 149.547 59.7067 148.707 58.32 148.2C56.9333 147.667 55.44 147.4 53.84 147.4C52.16 147.4 50.6 147.693 49.16 148.28C47.72 148.84 46.4667 149.653 45.4 150.72C44.3333 151.76 43.4933 152.987 42.88 154.4C42.2933 155.787 42 157.32 42 159C42 160.68 42.2933 162.227 42.88 163.64C43.4933 165.027 44.3333 166.253 45.4 167.32C46.4667 168.36 47.72 169.173 49.16 169.76C50.6 170.32 52.16 170.6 53.84 170.6C55.44 170.6 56.9333 170.333 58.32 169.8C59.7067 169.267 60.9733 168.413 62.12 167.24L64 169.12C62.7733 170.48 61.2667 171.507 59.48 172.2C57.6933 172.893 55.7733 173.24 53.72 173.24ZM69.87 180.96C68.8833 180.96 67.9367 180.8 67.03 180.48C66.15 180.16 65.39 179.68 64.75 179.04L66.07 176.92C66.6033 177.427 67.1767 177.813 67.79 178.08C68.43 178.373 69.1367 178.52 69.91 178.52C70.8433 178.52 71.6433 178.253 72.31 177.72C73.0033 177.213 73.6567 176.307 74.27 175L75.63 171.92L75.95 171.48L84.59 152H87.39L76.87 175.52C76.2833 176.88 75.63 177.96 74.91 178.76C74.2167 179.56 73.4567 180.12 72.63 180.44C71.8033 180.787 70.8833 180.96 69.87 180.96ZM75.47 173.6L65.79 152H68.75L77.31 171.28L75.47 173.6ZM102.23 173.2C100.39 173.2 98.7364 172.787 97.2697 171.96C95.803 171.107 94.643 169.88 93.7897 168.28C92.9364 166.68 92.5097 164.747 92.5097 162.48C92.5097 160.187 92.9364 158.253 93.7897 156.68C94.6697 155.08 95.843 153.867 97.3097 153.04C98.7764 152.213 100.416 151.8 102.23 151.8C104.23 151.8 106.016 152.253 107.59 153.16C109.19 154.04 110.443 155.28 111.35 156.88C112.256 158.48 112.71 160.347 112.71 162.48C112.71 164.587 112.256 166.453 111.35 168.08C110.443 169.68 109.19 170.933 107.59 171.84C106.016 172.747 104.23 173.2 102.23 173.2ZM91.3897 173V143.32H94.2297V158.2L93.8297 162.44L94.1097 166.68V173H91.3897ZM102.03 170.68C103.523 170.68 104.856 170.347 106.03 169.68C107.203 168.987 108.136 168.027 108.83 166.8C109.523 165.547 109.87 164.107 109.87 162.48C109.87 160.827 109.523 159.387 108.83 158.16C108.136 156.933 107.203 155.987 106.03 155.32C104.856 154.627 103.523 154.28 102.03 154.28C100.536 154.28 99.1897 154.627 97.9897 155.32C96.8164 155.987 95.883 156.933 95.1897 158.16C94.523 159.387 94.1897 160.827 94.1897 162.48C94.1897 164.107 94.523 165.547 95.1897 166.8C95.883 168.027 96.8164 168.987 97.9897 169.68C99.1897 170.347 100.536 170.68 102.03 170.68ZM127.419 173.2C125.232 173.2 123.312 172.747 121.659 171.84C120.006 170.907 118.712 169.64 117.779 168.04C116.846 166.413 116.379 164.56 116.379 162.48C116.379 160.4 116.819 158.56 117.699 156.96C118.606 155.36 119.832 154.107 121.379 153.2C122.952 152.267 124.712 151.8 126.659 151.8C128.632 151.8 130.379 152.253 131.899 153.16C133.446 154.04 134.659 155.293 135.539 156.92C136.419 158.52 136.859 160.373 136.859 162.48C136.859 162.613 136.846 162.76 136.819 162.92C136.819 163.053 136.819 163.2 136.819 163.36H118.539V161.24H135.299L134.179 162.08C134.179 160.56 133.846 159.213 133.179 158.04C132.539 156.84 131.659 155.907 130.539 155.24C129.419 154.573 128.126 154.24 126.659 154.24C125.219 154.24 123.926 154.573 122.779 155.24C121.632 155.907 120.739 156.84 120.099 158.04C119.459 159.24 119.139 160.613 119.139 162.16V162.6C119.139 164.2 119.486 165.613 120.179 166.84C120.899 168.04 121.886 168.987 123.139 169.68C124.419 170.347 125.872 170.68 127.499 170.68C128.779 170.68 129.966 170.453 131.059 170C132.179 169.547 133.139 168.853 133.939 167.92L135.539 169.76C134.606 170.88 133.432 171.733 132.019 172.32C130.632 172.907 129.099 173.2 127.419 173.2ZM142.64 173V152H145.36V157.72L145.08 156.72C145.666 155.12 146.653 153.907 148.04 153.08C149.426 152.227 151.146 151.8 153.2 151.8V154.56C153.093 154.56 152.986 154.56 152.88 154.56C152.773 154.533 152.666 154.52 152.56 154.52C150.346 154.52 148.613 155.2 147.36 156.56C146.106 157.893 145.48 159.8 145.48 162.28V173H142.64Z" fill="#002232"/>
<path d="M171.454 173.24C169.348 173.24 167.401 172.893 165.614 172.2C163.828 171.48 162.281 170.48 160.974 169.2C159.668 167.92 158.641 166.413 157.894 164.68C157.174 162.947 156.814 161.053 156.814 159C156.814 156.947 157.174 155.053 157.894 153.32C158.641 151.587 159.668 150.08 160.974 148.8C162.308 147.52 163.868 146.533 165.654 145.84C167.441 145.12 169.388 144.76 171.494 144.76C173.521 144.76 175.428 145.107 177.214 145.8C179.001 146.467 180.508 147.48 181.734 148.84L179.854 150.72C178.708 149.547 177.441 148.707 176.054 148.2C174.668 147.667 173.174 147.4 171.574 147.4C169.894 147.4 168.334 147.693 166.894 148.28C165.454 148.84 164.201 149.653 163.134 150.72C162.068 151.76 161.228 152.987 160.614 154.4C160.028 155.787 159.734 157.32 159.734 159C159.734 160.68 160.028 162.227 160.614 163.64C161.228 165.027 162.068 166.253 163.134 167.32C164.201 168.36 165.454 169.173 166.894 169.76C168.334 170.32 169.894 170.6 171.574 170.6C173.174 170.6 174.668 170.333 176.054 169.8C177.441 169.267 178.708 168.413 179.854 167.24L181.734 169.12C180.508 170.48 179.001 171.507 177.214 172.2C175.428 172.893 173.508 173.24 171.454 173.24ZM187.444 173V143.32H190.284V173H187.444ZM206.747 173.2C204.72 173.2 202.893 172.747 201.267 171.84C199.667 170.907 198.4 169.64 197.467 168.04C196.533 166.413 196.067 164.56 196.067 162.48C196.067 160.373 196.533 158.52 197.467 156.92C198.4 155.32 199.667 154.067 201.267 153.16C202.867 152.253 204.693 151.8 206.747 151.8C208.827 151.8 210.667 152.253 212.267 153.16C213.893 154.067 215.16 155.32 216.067 156.92C217 158.52 217.467 160.373 217.467 162.48C217.467 164.56 217 166.413 216.067 168.04C215.16 169.64 213.893 170.907 212.267 171.84C210.64 172.747 208.8 173.2 206.747 173.2ZM206.747 170.68C208.267 170.68 209.613 170.347 210.787 169.68C211.96 168.987 212.88 168.027 213.547 166.8C214.24 165.547 214.587 164.107 214.587 162.48C214.587 160.827 214.24 159.387 213.547 158.16C212.88 156.933 211.96 155.987 210.787 155.32C209.613 154.627 208.28 154.28 206.787 154.28C205.293 154.28 203.96 154.627 202.787 155.32C201.613 155.987 200.68 156.933 199.987 158.16C199.293 159.387 198.947 160.827 198.947 162.48C198.947 164.107 199.293 165.547 199.987 166.8C200.68 168.027 201.613 168.987 202.787 169.68C203.96 170.347 205.28 170.68 206.747 170.68ZM231.985 173.2C229.905 173.2 228.038 172.747 226.385 171.84C224.758 170.907 223.478 169.64 222.545 168.04C221.611 166.413 221.145 164.56 221.145 162.48C221.145 160.373 221.611 158.52 222.545 156.92C223.478 155.32 224.758 154.067 226.385 153.16C228.038 152.253 229.905 151.8 231.985 151.8C233.771 151.8 235.385 152.147 236.825 152.84C238.265 153.533 239.398 154.573 240.225 155.96L238.105 157.4C237.385 156.333 236.491 155.547 235.425 155.04C234.358 154.533 233.198 154.28 231.945 154.28C230.451 154.28 229.105 154.627 227.905 155.32C226.705 155.987 225.758 156.933 225.065 158.16C224.371 159.387 224.025 160.827 224.025 162.48C224.025 164.133 224.371 165.573 225.065 166.8C225.758 168.027 226.705 168.987 227.905 169.68C229.105 170.347 230.451 170.68 231.945 170.68C233.198 170.68 234.358 170.427 235.425 169.92C236.491 169.413 237.385 168.64 238.105 167.6L240.225 169.04C239.398 170.4 238.265 171.44 236.825 172.16C235.385 172.853 233.771 173.2 231.985 173.2ZM247.731 167.56L247.811 163.92L260.891 152H264.371L255.131 160.84L253.531 162.2L247.731 167.56ZM245.491 173V143.32H248.331V173H245.491ZM261.771 173L253.011 162.08L254.851 159.88L265.251 173H261.771Z" fill="#036673"/>
<g clip-path="url(#clip1_4_76)">
<path d="M368.558 516.11L384.843 518.659C390.355 511.975 394.155 504.045 395.912 495.557C384.005 505.318 365.897 500.131 351.458 505.46C346.968 507.156 342.916 509.843 339.603 513.321C336.29 516.799 333.802 520.979 332.321 525.551L324.363 534.126C331.567 536.982 339.304 538.24 347.04 537.814C354.776 537.387 362.328 535.286 369.175 531.655C372.997 529.58 376.542 527.032 379.727 524.07C374.029 520.477 368.558 516.11 368.558 516.11Z" fill="#F2F2F2"/>
<path d="M362.778 490.028L378.488 485.036C380.445 476.592 380.314 467.797 378.107 459.415C371.797 473.47 353.279 476.915 342.729 488.133C339.466 491.657 337.036 495.872 335.619 500.464C334.203 505.057 333.837 509.909 334.549 514.663L331.244 525.892C338.964 525.231 346.449 522.902 353.183 519.065C359.917 515.228 365.741 509.974 370.253 503.666C372.749 500.102 374.787 496.238 376.319 492.164C369.619 491.493 362.778 490.028 362.778 490.028Z" fill="#F2F2F2"/>
<path d="M396 539.32C396 539.404 395.984 539.488 395.952 539.566C395.92 539.643 395.873 539.714 395.813 539.774C395.754 539.833 395.683 539.88 395.606 539.912C395.528 539.944 395.445 539.961 395.361 539.961H33.6393C33.4698 539.961 33.3071 539.893 33.1873 539.773C33.0674 539.653 33 539.49 33 539.32C33 539.151 33.0674 538.988 33.1873 538.868C33.3071 538.747 33.4698 538.68 33.6393 538.68H395.361C395.445 538.68 395.528 538.696 395.606 538.728C395.683 538.76 395.754 538.808 395.813 538.867C395.873 538.927 395.92 538.997 395.952 539.075C395.984 539.153 396 539.236 396 539.32Z" fill="#CCCCCC"/>
<path d="M182.89 512.025C246.683 512.025 298.398 460.236 298.398 396.351C298.398 332.466 246.683 280.677 182.89 280.677C119.097 280.677 67.3824 332.466 67.3824 396.351C67.3824 460.236 119.097 512.025 182.89 512.025Z" fill="#E6E6E6"/>
<path d="M282.28 396.351C282.292 411.882 278.669 427.199 271.703 441.075C264.736 454.951 254.619 466.999 242.164 476.252C241.331 476.876 240.483 477.484 239.628 478.076C222.973 489.67 203.174 495.885 182.89 495.885C162.606 495.885 142.807 489.67 126.152 478.076C125.297 477.484 124.449 476.876 123.616 476.252C111.169 466.991 101.059 454.941 94.0933 441.067C87.1276 427.193 83.4998 411.88 83.4998 396.351C83.4998 380.822 87.1276 365.509 94.0933 351.635C101.059 337.761 111.169 325.711 123.616 316.45C124.449 315.826 125.297 315.218 126.152 314.626C142.807 303.032 162.606 296.817 182.89 296.817C203.174 296.817 222.973 303.032 239.628 314.626C240.483 315.218 241.331 315.826 242.164 316.45C254.619 325.703 264.736 337.751 271.703 351.627C278.669 365.503 282.292 380.82 282.28 396.351Z" fill="white"/>
<path d="M182.89 487.276C233.034 487.276 273.684 446.568 273.684 396.351C273.684 346.134 233.034 305.426 182.89 305.426C132.746 305.426 92.0956 346.134 92.0956 396.351C92.0956 446.568 132.746 487.276 182.89 487.276Z" fill="#159A9C"/>
<path opacity="0.2" d="M183.127 305.68C181.75 305.68 180.383 305.716 179.021 305.777C201.969 307.796 223.292 318.476 238.671 335.651C254.049 352.827 262.334 375.215 261.845 398.28C261.356 421.344 252.131 443.36 236.038 459.866C219.946 476.373 198.189 486.137 175.176 487.18C177.797 487.407 180.447 487.531 183.127 487.531C207.207 487.531 230.301 477.951 247.328 460.899C264.355 443.847 273.921 420.72 273.921 396.605C273.921 372.49 264.355 349.363 247.328 332.311C230.301 315.259 207.207 305.68 183.127 305.68V305.68Z" fill="black"/>
<path d="M183.159 298.969C182.375 298.971 181.625 299.283 181.071 299.838C180.517 300.392 180.205 301.144 180.204 301.929V314.841C180.204 315.626 180.515 316.378 181.069 316.933C181.623 317.488 182.375 317.8 183.159 317.8C183.942 317.8 184.694 317.488 185.248 316.933C185.802 316.378 186.113 315.626 186.113 314.841V301.929C186.112 301.144 185.8 300.392 185.246 299.838C184.693 299.283 183.942 298.971 183.159 298.969Z" fill="white"/>
<path d="M242.164 316.45C241.331 315.826 240.483 315.218 239.628 314.626C239.116 314.592 238.603 314.693 238.142 314.919C237.68 315.144 237.285 315.487 236.996 315.912L229.738 326.581C229.297 327.229 229.131 328.027 229.277 328.797C229.423 329.568 229.869 330.249 230.517 330.691C231.164 331.133 231.961 331.299 232.73 331.152C233.5 331.006 234.18 330.56 234.621 329.911L241.879 319.242C242.156 318.837 242.326 318.37 242.376 317.882C242.426 317.394 242.353 316.902 242.164 316.45Z" fill="white"/>
<path d="M275.14 365.097C274.994 364.738 274.779 364.41 274.507 364.134C274.234 363.858 273.91 363.638 273.553 363.487C273.196 363.336 272.812 363.257 272.425 363.255C272.037 363.252 271.653 363.326 271.294 363.473L259.345 368.331C258.62 368.627 258.042 369.199 257.737 369.922C257.433 370.644 257.428 371.458 257.723 372.185C258.017 372.911 258.588 373.491 259.309 373.796C260.031 374.102 260.844 374.108 261.569 373.813L273.518 368.955C274.243 368.658 274.82 368.085 275.125 367.362C275.429 366.639 275.434 365.825 275.14 365.097Z" fill="white"/>
<path d="M136.042 326.581L128.784 315.912C128.495 315.487 128.1 315.144 127.638 314.919C127.177 314.693 126.664 314.592 126.152 314.626C125.297 315.218 124.449 315.826 123.616 316.45C123.427 316.902 123.354 317.394 123.404 317.882C123.454 318.37 123.624 318.837 123.901 319.242L131.159 329.911C131.6 330.56 132.28 331.006 133.05 331.152C133.819 331.299 134.616 331.133 135.263 330.691C135.911 330.249 136.357 329.568 136.503 328.797C136.649 328.027 136.483 327.229 136.042 326.581Z" fill="white"/>
<path d="M106.435 368.331L94.4864 363.473C93.7605 363.177 92.9472 363.183 92.2254 363.488C91.5036 363.794 90.9325 364.373 90.6376 365.1C90.3427 365.827 90.3482 366.642 90.6528 367.365C90.9575 368.087 91.5364 368.66 92.2622 368.955L104.211 373.813C104.936 374.108 105.749 374.102 106.471 373.796C107.192 373.491 107.763 372.911 108.057 372.185C108.352 371.458 108.347 370.644 108.043 369.922C107.738 369.199 107.16 368.627 106.435 368.331V368.331Z" fill="white"/>
<path d="M183.159 474.902C182.375 474.903 181.625 475.215 181.071 475.77C180.517 476.325 180.205 477.077 180.204 477.861V490.774C180.204 491.558 180.515 492.311 181.069 492.866C181.623 493.421 182.375 493.733 183.159 493.733C183.942 493.733 184.694 493.421 185.248 492.866C185.802 492.311 186.113 491.558 186.113 490.774V477.861C186.112 477.077 185.8 476.325 185.246 475.77C184.693 475.215 183.942 474.903 183.159 474.902Z" fill="white"/>
<path d="M241.879 473.46L234.621 462.791C234.403 462.47 234.123 462.195 233.799 461.982C233.475 461.769 233.111 461.622 232.73 461.55C232.349 461.477 231.958 461.481 231.578 461.56C231.198 461.639 230.837 461.792 230.517 462.011C230.196 462.23 229.922 462.509 229.709 462.834C229.496 463.159 229.349 463.523 229.277 463.905C229.205 464.286 229.208 464.679 229.287 465.059C229.366 465.439 229.519 465.8 229.738 466.121L236.996 476.79C237.285 477.216 237.68 477.558 238.142 477.783C238.603 478.009 239.116 478.11 239.628 478.076C240.483 477.484 241.331 476.877 242.164 476.252C242.353 475.8 242.426 475.308 242.376 474.82C242.326 474.332 242.156 473.865 241.879 473.46Z" fill="white"/>
<path d="M273.518 423.747L261.569 418.889C260.844 418.593 260.03 418.599 259.309 418.904C258.587 419.21 258.016 419.789 257.721 420.516C257.426 421.243 257.431 422.058 257.736 422.781C258.041 423.504 258.619 424.076 259.345 424.371L271.294 429.229C272.019 429.524 272.832 429.518 273.554 429.212C274.275 428.907 274.846 428.327 275.14 427.601C275.435 426.874 275.43 426.06 275.126 425.338C274.821 424.615 274.243 424.043 273.518 423.747V423.747Z" fill="white"/>
<path d="M135.263 462.011C134.616 461.57 133.819 461.404 133.05 461.55C132.28 461.696 131.6 462.143 131.159 462.791L123.901 473.46C123.624 473.865 123.454 474.332 123.404 474.82C123.354 475.308 123.427 475.8 123.616 476.252C124.449 476.876 125.297 477.484 126.152 478.076C126.664 478.11 127.177 478.009 127.638 477.783C128.1 477.558 128.495 477.215 128.784 476.79L136.042 466.121C136.261 465.8 136.414 465.439 136.493 465.059C136.572 464.679 136.575 464.286 136.503 463.905C136.431 463.523 136.284 463.159 136.071 462.834C135.859 462.509 135.584 462.23 135.263 462.011Z" fill="white"/>
<path d="M108.057 420.513C107.911 420.154 107.696 419.826 107.424 419.55C107.151 419.274 106.827 419.054 106.47 418.903C106.113 418.752 105.729 418.673 105.342 418.671C104.954 418.668 104.57 418.742 104.211 418.889L92.2622 423.747C91.537 424.043 90.9587 424.615 90.6544 425.338C90.3501 426.06 90.3448 426.874 90.6396 427.601C90.9344 428.327 91.5051 428.907 92.2264 429.212C92.9478 429.518 93.7606 429.524 94.4864 429.229L106.435 424.371C107.16 424.074 107.737 423.501 108.042 422.778C108.346 422.055 108.351 421.241 108.057 420.513Z" fill="white"/>
<path d="M186.993 394.883C187.265 396.5 186.886 398.16 185.939 399.498C184.991 400.836 183.552 401.743 181.938 402.02L129.504 410.952C128.704 411.088 127.885 411.065 127.094 410.884C126.303 410.704 125.555 410.369 124.893 409.899C124.232 409.429 123.669 408.833 123.237 408.145C122.805 407.457 122.513 406.691 122.377 405.89C122.241 405.089 122.264 404.269 122.444 403.476C122.624 402.684 122.959 401.935 123.428 401.273C123.898 400.61 124.493 400.046 125.18 399.614C125.866 399.181 126.632 398.889 127.432 398.753L179.866 389.821C181.481 389.547 183.138 389.927 184.474 390.876C185.81 391.825 186.716 393.266 186.993 394.883Z" fill="#3F3D56"/>
<path d="M242.178 453.059C241.425 453.818 240.402 454.246 239.333 454.251C238.265 454.255 237.239 453.834 236.48 453.082L180.035 396.999C179.278 396.245 178.85 395.221 178.846 394.151C178.843 393.082 179.263 392.055 180.015 391.295C180.768 390.536 181.79 390.107 182.858 390.102C183.926 390.098 184.952 390.518 185.711 391.27L242.156 447.353C242.913 448.107 243.341 449.132 243.345 450.201C243.349 451.271 242.93 452.299 242.178 453.059Z" fill="#3F3D56"/>
<path d="M182.89 403.345C186.747 403.345 189.874 400.214 189.874 396.351C189.874 392.488 186.747 389.357 182.89 389.357C179.033 389.357 175.906 392.488 175.906 396.351C175.906 400.214 179.033 403.345 182.89 403.345Z" fill="#CCCCCC"/>
<path d="M134.783 275.07C124.062 291.949 107.705 303.151 87.5325 310.51C87.1339 310.809 86.6804 311.026 86.1979 311.149C85.7153 311.273 85.2133 311.3 84.7203 311.229C84.2273 311.158 83.7531 310.991 83.3248 310.736C82.8964 310.482 82.5223 310.146 82.2237 309.746C71.2661 295.095 73.7403 274.155 88.2021 262.959C91.6984 260.257 95.6959 258.278 99.9624 257.135C104.229 255.993 108.679 255.711 113.056 256.306C117.432 256.9 121.647 258.359 125.455 260.598C129.264 262.837 132.591 265.811 135.242 269.348L135.545 269.754C135.844 270.153 136.061 270.607 136.184 271.09C136.307 271.573 136.334 272.076 136.264 272.57C136.193 273.063 136.026 273.538 135.772 273.967C135.518 274.396 135.182 274.771 134.783 275.07Z" fill="#E6E6E6"/>
<path d="M230.538 269.348C233.189 265.811 236.516 262.837 240.325 260.598C244.133 258.359 248.348 256.9 252.724 256.306C257.1 255.711 261.551 255.993 265.818 257.135C270.084 258.278 274.082 260.257 277.578 262.959C292.04 274.155 294.514 295.095 283.556 309.746C283.258 310.146 282.884 310.482 282.455 310.736C282.027 310.991 281.553 311.158 281.06 311.229C280.567 311.3 280.065 311.273 279.582 311.149C279.1 311.026 278.646 310.809 278.247 310.51C259.521 303.329 244.164 290.904 230.997 275.07C230.192 274.466 229.659 273.567 229.516 272.57C229.374 271.573 229.632 270.56 230.235 269.753L230.538 269.348Z" fill="#E6E6E6"/>
<path d="M225.839 496.567C225.156 496.951 224.653 497.591 224.44 498.346C224.228 499.101 224.322 499.909 224.703 500.594L241.757 531.112C242.139 531.797 242.778 532.301 243.532 532.514C244.286 532.728 245.094 532.632 245.778 532.249C246.462 531.866 246.965 531.226 247.178 530.471C247.391 529.716 247.296 528.907 246.914 528.222L229.861 497.704C229.477 497.02 228.838 496.517 228.084 496.304C227.331 496.091 226.523 496.185 225.839 496.567Z" fill="#E6E6E6"/>
<path d="M135.919 497.704L118.866 528.222C118.484 528.907 118.389 529.716 118.602 530.471C118.815 531.226 119.318 531.866 120.002 532.249C120.686 532.632 121.494 532.728 122.248 532.514C123.002 532.301 123.641 531.797 124.023 531.112L141.077 500.594C141.266 500.255 141.387 499.882 141.433 499.496C141.478 499.11 141.447 498.719 141.342 498.345C141.237 497.971 141.059 497.621 140.818 497.316C140.578 497.011 140.28 496.756 139.941 496.566C139.603 496.377 139.23 496.256 138.844 496.21C138.459 496.164 138.068 496.195 137.695 496.301C137.322 496.407 136.972 496.585 136.668 496.826C136.363 497.067 136.109 497.365 135.919 497.704H135.919Z" fill="#E6E6E6"/>
<path d="M245.21 538.926C250.254 538.926 254.344 534.831 254.344 529.78C254.344 524.729 250.254 520.634 245.21 520.634C240.166 520.634 236.077 524.729 236.077 529.78C236.077 534.831 240.166 538.926 245.21 538.926Z" fill="#E6E6E6"/>
<path d="M251.657 304.888C256.701 304.888 260.79 300.793 260.79 295.741C260.79 290.69 256.701 286.595 251.657 286.595C246.613 286.595 242.524 290.69 242.524 295.741C242.524 300.793 246.613 304.888 251.657 304.888Z" fill="#E6E6E6"/>
<path d="M182.353 283.367C187.397 283.367 191.486 279.272 191.486 274.221C191.486 269.169 187.397 265.074 182.353 265.074C177.309 265.074 173.22 269.169 173.22 274.221C173.22 279.272 177.309 283.367 182.353 283.367Z" fill="#E6E6E6"/>
<path d="M116.272 303.812C121.316 303.812 125.405 299.717 125.405 294.665C125.405 289.614 121.316 285.519 116.272 285.519C111.228 285.519 107.139 289.614 107.139 294.665C107.139 299.717 111.228 303.812 116.272 303.812Z" fill="#E6E6E6"/>
<path d="M122.181 538.926C127.225 538.926 131.315 534.831 131.315 529.78C131.315 524.729 127.225 520.634 122.181 520.634C117.137 520.634 113.048 524.729 113.048 529.78C113.048 534.831 117.137 538.926 122.181 538.926Z" fill="#E6E6E6"/>
<path d="M238.046 447.915C238.406 448.48 238.886 448.958 239.45 449.317C240.015 449.676 240.651 449.907 241.315 449.993C241.978 450.079 242.652 450.018 243.29 449.815C243.927 449.612 244.512 449.272 245.004 448.817L259.335 456.508L258.566 448.081L245.075 442.071C244.259 441.294 243.186 440.844 242.061 440.807C240.935 440.769 239.835 441.146 238.968 441.866C238.102 442.587 237.53 443.601 237.36 444.715C237.19 445.83 237.434 446.969 238.046 447.915H238.046Z" fill="#FFB7B7"/>
<path d="M248.488 450.856L254.104 443.093L281.16 455.901L314.827 449.575C316.492 449.262 318.204 449.32 319.843 449.745C321.483 450.169 323.008 450.95 324.312 452.032C325.617 453.114 326.667 454.469 327.389 456.003C328.111 457.537 328.487 459.211 328.49 460.907C328.492 463.969 327.281 466.908 325.123 469.078C322.964 471.247 320.034 472.471 316.976 472.48L278.393 472.552L248.488 450.856Z" fill="#3F3D56"/>
<path d="M239.839 584.945L234.156 582.224L241.962 558.439L250.348 562.456L239.839 584.945Z" fill="#FFB7B7"/>
<path d="M277.932 581.11C277.519 581.37 277.106 581.625 276.689 581.88C275.858 582.389 275.019 582.891 274.18 583.384C273.759 583.631 273.333 583.877 272.911 584.12V584.132L272.886 584.137L272.878 584.141L272.235 584.3L271.313 581.859L270.887 580.734L270.286 579.142L269.184 576.229L263.383 560.889L272.402 558.661L272.74 560.045H272.745L272.911 560.73L276.063 573.528L276.705 576.145L276.726 576.224L277.114 577.788L277.448 579.142L277.82 580.655L277.932 581.11Z" fill="#FFB7B7"/>
<path d="M331.737 527.241C331.165 528.161 330.58 529.076 329.992 529.983C328.898 531.672 327.776 533.335 326.624 534.974C326.624 534.978 326.62 534.978 326.615 534.982C325.943 535.606 325.201 536.148 324.403 536.6C324.37 536.625 324.332 536.641 324.299 536.662C323.712 536.987 323.086 537.239 322.438 537.41C322.204 537.469 321.966 537.528 321.732 537.586C320.889 537.787 320.054 537.958 319.224 538.108C317.746 538.372 316.286 538.56 314.833 538.677C314.716 538.689 314.599 538.698 314.482 538.706C308.51 539.145 302.696 538.439 296.627 537.281C293.631 536.712 290.571 536.031 287.403 535.325C286.368 535.091 285.329 534.861 284.277 534.631C284.198 534.614 284.115 534.593 284.031 534.577C282.529 534.246 281.001 533.92 279.436 533.599C277.466 533.193 275.433 532.8 273.321 532.428L273.472 535.408C273.597 537.701 274.072 539.961 274.882 542.109C275.784 544.75 276.498 546.84 274.991 551.191L274.265 553.298C274.641 554.344 274.77 555.463 274.642 556.567C274.514 557.672 274.132 558.732 273.526 559.663L273.38 559.885L279.436 575.229L279.828 576.223H276.727L272.912 576.228H266.447L257.119 557.486L256.672 556.591V556.545L257.637 520.529C257.649 520.211 257.674 519.889 257.716 519.571C257.886 518.127 258.341 516.732 259.056 515.466C259.77 514.2 260.729 513.089 261.877 512.198C262.977 511.338 264.236 510.704 265.583 510.336C266.929 509.967 268.335 509.87 269.719 510.05L272.912 510.464L279.436 511.308L284.031 511.906L284.123 511.918L297.675 513.674L298.647 509.703L298.827 509.636L304.532 507.542L324.266 500.299L324.316 500.282L325.614 499.805L325.768 500.056C325.814 500.131 325.86 500.207 325.902 500.282C327.185 502.585 328.229 505.014 329.02 507.53C330.348 511.64 331.442 515.822 332.296 520.056C332.333 520.24 332.367 520.407 332.396 520.558L332.409 520.604C332.421 520.675 332.429 520.721 332.434 520.733C332.889 522.631 332.571 524.947 331.737 527.241Z" fill="#2F2E41"/>
<path d="M332.569 513.968C332.507 513.7 332.428 513.429 332.344 513.165C331.682 511.171 330.91 509.215 330.032 507.305C329.047 505.132 327.866 502.804 326.459 500.284C325.779 499.063 325.047 497.794 324.264 496.476C323.872 495.815 323.464 495.142 323.041 494.457C323.024 494.425 323.006 494.395 322.987 494.365L322.866 494.164L303.341 496.781L296.07 497.755L295.636 501.383L295.532 502.281C295.528 502.281 295.528 502.281 295.532 502.286L295.24 504.735V504.739L294.852 507.974L294.818 507.97L284.029 506.57L272.911 505.128L266.938 504.355C265.554 504.174 264.148 504.271 262.801 504.64C261.455 505.009 260.195 505.642 259.096 506.503C257.948 507.394 256.989 508.505 256.275 509.771C255.56 511.036 255.105 512.432 254.934 513.876C254.897 514.169 254.872 514.47 254.859 514.766L249.225 528.137C245.853 536.134 243.706 544.594 242.856 553.232L238.724 566.461L239.312 566.516L248.069 567.331L250.381 567.548L255.473 560.104C256.053 559.255 256.604 558.382 257.117 557.487C257.962 556.027 258.714 554.513 259.367 552.957L270.381 526.708C271.233 526.854 272.076 526.994 272.911 527.126C276.771 527.753 280.477 528.264 284.029 528.66C295.578 529.951 305.578 530.052 314.481 528.957C316.981 528.651 319.397 528.25 321.73 527.753C322.586 527.573 323.431 527.379 324.264 527.172C324.46 527.126 324.652 527.08 324.844 527.03C326.569 526.584 328.155 525.713 329.456 524.495C330.758 523.277 331.733 521.751 332.294 520.058C332.963 518.096 333.059 515.983 332.569 513.968Z" fill="#2F2E41"/>
<path d="M241.654 581.061L235.506 578.11L234.542 577.646L233.002 581.433L222.25 583.803C221.718 583.92 221.238 584.204 220.879 584.613C220.52 585.023 220.301 585.537 220.255 586.08C220.208 586.623 220.336 587.166 220.62 587.631C220.904 588.096 221.329 588.458 221.833 588.664L232.338 592.957L235.673 589.951L234.855 593.985L238.811 595.602L243.148 581.78L241.654 581.061Z" fill="#2F2E41"/>
<path d="M279.436 575.229L279.828 576.224H279.436V575.229Z" fill="#2F2E41"/>
<path d="M277.295 576.436L270.853 578.671L269.842 579.021L271.408 582.797L265.434 592.057C265.138 592.514 264.996 593.055 265.029 593.599C265.061 594.143 265.267 594.662 265.615 595.081C265.964 595.499 266.437 595.796 266.965 595.926C267.493 596.056 268.05 596.014 268.552 595.805L279.033 591.453L279.291 586.968L281.544 590.41L285.492 588.772L278.862 575.894L277.295 576.436Z" fill="#2F2E41"/>
<path d="M330.963 520.024C330.581 520.023 330.204 519.929 329.865 519.751L295.872 501.963L295.479 500.352L294.739 495.256L294.749 495.209L297.982 480.282C297.922 480.154 297.799 479.944 297.659 479.706C296.215 477.257 291.823 469.804 300.206 459.541L314.924 442.357L327.556 441.813L327.7 441.994C331.078 446.24 333.356 451.256 334.331 456.595C335.307 461.935 334.95 467.433 333.293 472.602L331.977 496.391L333.388 501.196C334.213 504.019 334.077 507.037 333.001 509.774L333.324 517.553C333.337 517.872 333.285 518.19 333.172 518.489C333.059 518.787 332.887 519.06 332.667 519.29C332.447 519.521 332.182 519.705 331.89 519.831C331.597 519.957 331.282 520.022 330.963 520.024L330.963 520.024Z" fill="#3F3D56"/>
<path d="M301.476 539.643C302.052 539.302 302.546 538.839 302.924 538.287C303.302 537.734 303.554 537.105 303.663 536.444C303.772 535.783 303.735 535.106 303.554 534.461C303.374 533.816 303.054 533.219 302.618 532.711L310.791 518.635L302.355 519.111L295.887 532.405C295.084 533.195 294.598 534.253 294.521 535.378C294.444 536.503 294.783 537.617 295.471 538.51C296.16 539.402 297.152 540.01 298.259 540.219C299.365 540.428 300.51 540.223 301.476 539.643L301.476 539.643Z" fill="#FFB7B7"/>
<path d="M304.774 529.294L297.221 523.404L310.945 496.771L305.803 462.855C305.548 461.179 305.666 459.467 306.147 457.841C306.628 456.215 307.46 454.715 308.585 453.448C309.709 452.18 311.099 451.176 312.655 450.507C314.211 449.838 315.894 449.52 317.587 449.576C320.643 449.68 323.534 450.994 325.624 453.23C327.714 455.466 328.833 458.44 328.736 461.502L327.465 500.119L304.774 529.294Z" fill="#3F3D56"/>
<path d="M306.821 435.217V422.699C306.819 418.25 308.58 413.982 311.72 410.835C314.859 407.687 319.118 405.917 323.56 405.914C328.003 405.911 332.264 407.676 335.407 410.819C338.55 413.963 340.318 418.228 340.321 422.677V422.699C343.273 428.859 341.426 431.788 340.321 435.217C340.32 435.814 340.082 436.386 339.661 436.808C339.239 437.23 338.668 437.468 338.072 437.469H309.071C308.475 437.468 307.903 437.231 307.482 436.809C307.06 436.386 306.822 435.814 306.821 435.217Z" fill="#2F2E41"/>
<path d="M318.079 436.655C325.004 436.655 330.617 431.034 330.617 424.1C330.617 417.165 325.004 411.544 318.079 411.544C311.155 411.544 305.541 417.165 305.541 424.1C305.541 431.034 311.155 436.655 318.079 436.655Z" fill="#FFB7B7"/>
<path d="M331.2 427.391C331.087 427.373 330.973 427.349 330.86 427.331C328.904 426.984 326.948 426.643 324.998 426.289L324.819 421.863L322.457 425.828C317.068 427.619 312.026 426.607 307.284 424.373C305.719 423.629 304.201 422.791 302.738 421.863C303.137 419.415 304.076 417.087 305.489 415.05C306.901 413.013 308.751 411.317 310.902 410.088C311.081 409.986 311.255 409.896 311.434 409.806C311.435 409.806 311.436 409.806 311.436 409.806C311.437 409.806 311.438 409.805 311.438 409.805C311.439 409.804 311.439 409.803 311.44 409.803C311.44 409.802 311.44 409.801 311.44 409.8C311.745 409.657 312.056 409.519 312.367 409.393C314.802 408.44 317.457 408.199 320.023 408.697C322.589 409.196 324.962 410.413 326.864 412.208C330.692 415.868 332.415 421.911 331.2 427.391Z" fill="#2F2E41"/>
</g>
<g filter="url(#filter0_dddddd_4_76)">
<rect x="245" y="815" width="111" height="50" rx="19" fill="#002232" fill-opacity="0.8"/>
</g>
<path d="M291.588 832.781V847H289.693L282.535 836.033V847H280.65V832.781H282.535L289.723 843.777V832.781H291.588ZM299.039 847.195C298.303 847.195 297.636 847.072 297.037 846.824C296.445 846.57 295.934 846.215 295.504 845.76C295.081 845.304 294.755 844.764 294.527 844.139C294.299 843.514 294.186 842.83 294.186 842.088V841.678C294.186 840.818 294.312 840.053 294.566 839.383C294.82 838.706 295.165 838.133 295.602 837.664C296.038 837.195 296.533 836.84 297.086 836.6C297.639 836.359 298.212 836.238 298.805 836.238C299.56 836.238 300.211 836.368 300.758 836.629C301.311 836.889 301.764 837.254 302.115 837.723C302.467 838.185 302.727 838.732 302.896 839.363C303.066 839.988 303.15 840.672 303.15 841.414V842.225H295.26V840.75H301.344V840.613C301.318 840.145 301.22 839.689 301.051 839.246C300.888 838.803 300.628 838.439 300.27 838.152C299.911 837.866 299.423 837.723 298.805 837.723C298.395 837.723 298.017 837.811 297.672 837.986C297.327 838.156 297.031 838.41 296.783 838.748C296.536 839.087 296.344 839.5 296.207 839.988C296.07 840.477 296.002 841.04 296.002 841.678V842.088C296.002 842.589 296.07 843.061 296.207 843.504C296.35 843.94 296.555 844.324 296.822 844.656C297.096 844.988 297.424 845.249 297.809 845.438C298.199 845.626 298.642 845.721 299.137 845.721C299.775 845.721 300.315 845.59 300.758 845.33C301.201 845.07 301.588 844.721 301.92 844.285L303.014 845.154C302.786 845.499 302.496 845.828 302.145 846.141C301.793 846.453 301.36 846.707 300.846 846.902C300.338 847.098 299.736 847.195 299.039 847.195ZM306.48 836.434L308.795 840.281L311.139 836.434H313.258L309.801 841.648L313.365 847H311.275L308.834 843.035L306.393 847H304.293L307.848 841.648L304.4 836.434H306.48ZM319.605 836.434V837.82H313.893V836.434H319.605ZM315.826 833.865H317.633V844.383C317.633 844.741 317.688 845.011 317.799 845.193C317.91 845.376 318.053 845.496 318.229 845.555C318.404 845.613 318.593 845.643 318.795 845.643C318.945 845.643 319.101 845.63 319.264 845.604C319.433 845.571 319.56 845.545 319.645 845.525L319.654 847C319.511 847.046 319.322 847.088 319.088 847.127C318.86 847.173 318.583 847.195 318.258 847.195C317.815 847.195 317.408 847.107 317.037 846.932C316.666 846.756 316.37 846.463 316.148 846.053C315.934 845.636 315.826 845.076 315.826 844.373V833.865Z" fill="white"/>
<path d="M65.3901 842.378C65.3901 842.085 65.3413 841.824 65.2437 841.594C65.146 841.365 64.9849 841.16 64.7603 840.979C64.5405 840.793 64.2427 840.623 63.8667 840.466C63.4956 840.305 63.0317 840.146 62.4751 839.99C61.9429 839.839 61.4619 839.673 61.0322 839.492C60.6025 839.312 60.2339 839.104 59.9263 838.87C59.6235 838.635 59.3916 838.362 59.2305 838.049C59.0693 837.732 58.9888 837.363 58.9888 836.943C58.9888 836.533 59.0767 836.16 59.2524 835.823C59.4282 835.486 59.6748 835.195 59.9922 834.951C60.3145 834.707 60.6929 834.519 61.1274 834.387C61.5669 834.255 62.0479 834.189 62.5703 834.189C63.3174 834.189 63.9619 834.331 64.5039 834.614C65.0508 834.897 65.4731 835.281 65.771 835.764C66.0737 836.243 66.2251 836.78 66.2251 837.375H65.3242C65.3242 836.912 65.2144 836.499 64.9946 836.138C64.7798 835.771 64.4673 835.486 64.0571 835.281C63.6519 835.071 63.1562 834.966 62.5703 834.966C61.9844 834.966 61.4912 835.056 61.0908 835.237C60.6953 835.413 60.395 835.649 60.1899 835.947C59.9897 836.24 59.8896 836.567 59.8896 836.929C59.8896 837.183 59.9385 837.417 60.0361 837.632C60.1338 837.842 60.2925 838.04 60.5122 838.225C60.7368 838.406 61.0322 838.577 61.3984 838.738C61.7646 838.894 62.2163 839.043 62.7534 839.185C63.3198 839.341 63.8228 839.514 64.2622 839.705C64.7017 839.895 65.0728 840.115 65.3755 840.364C65.6782 840.608 65.9077 840.894 66.064 841.221C66.2202 841.548 66.2983 841.929 66.2983 842.363C66.2983 842.798 66.2056 843.188 66.02 843.535C65.8394 843.877 65.583 844.167 65.251 844.407C64.9238 844.646 64.5356 844.829 64.0864 844.956C63.6421 845.083 63.1562 845.146 62.6289 845.146C62.1553 845.146 61.6841 845.085 61.2153 844.963C60.7466 844.841 60.3169 844.653 59.9263 844.399C59.5405 844.141 59.2305 843.809 58.9961 843.403C58.7666 842.998 58.6519 842.515 58.6519 841.953H59.5454C59.5454 842.402 59.6357 842.781 59.8164 843.088C59.9971 843.396 60.2363 843.645 60.5342 843.835C60.8369 844.026 61.1689 844.165 61.5303 844.253C61.8965 844.336 62.2627 844.377 62.6289 844.377C63.1904 844.377 63.6763 844.294 64.0864 844.128C64.5015 843.962 64.8213 843.73 65.0459 843.433C65.2754 843.13 65.3901 842.778 65.3901 842.378ZM68.9131 833.75V845H68.0415V833.75H68.9131ZM73.8862 837.075L70.1802 840.752L68.6055 842.275L68.4736 841.418L69.7407 840.049L72.7803 837.075H73.8862ZM73.1245 845L69.814 840.884L70.2974 840.129L74.1792 845H73.1245ZM76.3691 837.075V845H75.4976V837.075H76.3691ZM75.3438 834.783C75.3438 834.617 75.395 834.478 75.4976 834.365C75.605 834.248 75.7515 834.189 75.937 834.189C76.1226 834.189 76.269 834.248 76.3765 834.365C76.4888 834.478 76.5449 834.617 76.5449 834.783C76.5449 834.944 76.4888 835.083 76.3765 835.2C76.269 835.312 76.1226 835.369 75.937 835.369C75.7515 835.369 75.605 835.312 75.4976 835.2C75.395 835.083 75.3438 834.944 75.3438 834.783ZM79.6284 838.599V848.047H78.7495V837.075H79.5698L79.6284 838.599ZM85.1362 840.964V841.118C85.1362 841.709 85.0679 842.251 84.9312 842.744C84.7944 843.237 84.5967 843.665 84.3379 844.026C84.084 844.382 83.769 844.658 83.3931 844.854C83.0171 845.049 82.5898 845.146 82.1113 845.146C81.6377 845.146 81.2153 845.073 80.8442 844.927C80.4731 844.78 80.1533 844.573 79.8848 844.304C79.6211 844.031 79.4087 843.713 79.2476 843.352C79.0913 842.986 78.9814 842.585 78.918 842.151V840.122C78.9912 839.644 79.1108 839.209 79.2769 838.818C79.4429 838.428 79.6553 838.091 79.9141 837.808C80.1777 837.524 80.4902 837.307 80.8516 837.156C81.2129 837.004 81.6255 836.929 82.0894 836.929C82.5728 836.929 83.0024 837.024 83.3784 837.214C83.7593 837.4 84.0791 837.671 84.3379 838.027C84.6016 838.379 84.7993 838.804 84.9312 839.302C85.0679 839.795 85.1362 840.349 85.1362 840.964ZM84.2573 841.118V840.964C84.2573 840.5 84.2085 840.071 84.1108 839.675C84.0181 839.28 83.874 838.936 83.6787 838.643C83.4883 838.345 83.2441 838.113 82.9463 837.947C82.6533 837.781 82.3042 837.698 81.8989 837.698C81.479 837.698 81.1201 837.769 80.8223 837.91C80.5293 838.047 80.2852 838.23 80.0898 838.459C79.8945 838.684 79.7407 838.931 79.6284 839.199C79.5161 839.468 79.4331 839.731 79.3794 839.99V842.327C79.4722 842.698 79.6211 843.042 79.8262 843.359C80.0312 843.672 80.3047 843.923 80.6465 844.114C80.9932 844.299 81.4155 844.392 81.9136 844.392C82.314 844.392 82.6606 844.309 82.9536 844.143C83.2466 843.977 83.4883 843.745 83.6787 843.447C83.874 843.149 84.0181 842.803 84.1108 842.407C84.2085 842.012 84.2573 841.582 84.2573 841.118ZM92.0503 834.336V845H91.1494V834.336H92.0503ZM95.6172 838.767V845H94.7456V837.075H95.5806L95.6172 838.767ZM95.4194 840.547L95.0312 840.327C95.0605 839.858 95.1558 839.419 95.3169 839.009C95.478 838.599 95.6953 838.237 95.9688 837.925C96.2471 837.612 96.5718 837.368 96.9429 837.192C97.3188 837.017 97.7339 836.929 98.188 836.929C98.5835 836.929 98.9375 836.982 99.25 837.09C99.5625 837.197 99.8286 837.368 100.048 837.603C100.268 837.837 100.434 838.137 100.546 838.503C100.664 838.87 100.722 839.316 100.722 839.844V845H99.8433V839.836C99.8433 839.29 99.7676 838.862 99.6162 838.555C99.4648 838.242 99.25 838.02 98.9717 837.888C98.6934 837.756 98.3638 837.69 97.9829 837.69C97.563 837.69 97.1943 837.783 96.877 837.969C96.5645 838.149 96.3008 838.386 96.0859 838.679C95.876 838.967 95.7148 839.277 95.6025 839.609C95.4902 839.937 95.4292 840.249 95.4194 840.547ZM105.988 837.075V837.793H102.019V837.075H105.988ZM103.476 835.039H104.348V843.074C104.348 843.44 104.396 843.716 104.494 843.901C104.592 844.087 104.719 844.211 104.875 844.275C105.031 844.338 105.2 844.37 105.38 844.37C105.512 844.37 105.639 844.363 105.761 844.348C105.883 844.329 105.993 844.309 106.091 844.29L106.127 845.029C106.02 845.063 105.881 845.09 105.71 845.11C105.539 845.134 105.368 845.146 105.197 845.146C104.86 845.146 104.562 845.085 104.304 844.963C104.045 844.836 103.842 844.622 103.696 844.319C103.549 844.011 103.476 843.594 103.476 843.066V835.039ZM108.698 838.386V845H107.827V837.075H108.676L108.698 838.386ZM111.503 837.017L111.481 837.822C111.384 837.808 111.289 837.795 111.196 837.786C111.103 837.776 111.003 837.771 110.896 837.771C110.515 837.771 110.18 837.842 109.892 837.983C109.609 838.12 109.37 838.313 109.174 838.562C108.979 838.806 108.83 839.094 108.728 839.426C108.625 839.753 108.566 840.105 108.552 840.481L108.229 840.605C108.229 840.088 108.283 839.607 108.391 839.163C108.498 838.718 108.662 838.33 108.881 837.998C109.106 837.661 109.387 837.4 109.724 837.214C110.065 837.024 110.466 836.929 110.925 836.929C111.037 836.929 111.147 836.938 111.254 836.958C111.367 836.973 111.45 836.992 111.503 837.017ZM112.25 841.162V840.92C112.25 840.344 112.333 839.812 112.5 839.324C112.666 838.835 112.902 838.413 113.21 838.057C113.522 837.7 113.896 837.424 114.331 837.229C114.765 837.029 115.249 836.929 115.781 836.929C116.318 836.929 116.804 837.029 117.238 837.229C117.673 837.424 118.046 837.7 118.359 838.057C118.671 838.413 118.911 838.835 119.077 839.324C119.243 839.812 119.326 840.344 119.326 840.92V841.162C119.326 841.738 119.243 842.271 119.077 842.759C118.911 843.242 118.671 843.662 118.359 844.019C118.051 844.375 117.68 844.653 117.246 844.854C116.811 845.049 116.328 845.146 115.795 845.146C115.258 845.146 114.772 845.049 114.338 844.854C113.903 844.653 113.53 844.375 113.217 844.019C112.905 843.662 112.666 843.242 112.5 842.759C112.333 842.271 112.25 841.738 112.25 841.162ZM113.122 840.92V841.162C113.122 841.597 113.181 842.009 113.298 842.4C113.415 842.786 113.586 843.13 113.811 843.433C114.035 843.73 114.313 843.965 114.646 844.136C114.978 844.307 115.361 844.392 115.795 844.392C116.225 844.392 116.604 844.307 116.931 844.136C117.263 843.965 117.541 843.73 117.766 843.433C117.99 843.13 118.159 842.786 118.271 842.4C118.388 842.009 118.447 841.597 118.447 841.162V840.92C118.447 840.491 118.388 840.083 118.271 839.697C118.159 839.312 117.988 838.967 117.758 838.665C117.534 838.362 117.255 838.123 116.923 837.947C116.591 837.771 116.21 837.683 115.781 837.683C115.351 837.683 114.97 837.771 114.638 837.947C114.311 838.123 114.033 838.362 113.803 838.665C113.579 838.967 113.408 839.312 113.291 839.697C113.178 840.083 113.122 840.491 113.122 840.92Z" fill="#159A9C"/>
<circle cx="194.5" cy="780.883" r="6.5" fill="#002232" fill-opacity="0.8"/>
<circle cx="212.73" cy="780.47" r="6.46957" fill="#E5E5E5"/>
<circle cx="231.33" cy="780.47" r="6.46957" fill="#E5E5E5"/>
<path d="M134.557 672.508C134.557 672.093 134.492 671.727 134.362 671.409C134.24 671.084 134.02 670.791 133.703 670.53C133.393 670.27 132.962 670.022 132.409 669.786C131.863 669.55 131.172 669.31 130.333 669.065C129.455 668.805 128.661 668.516 127.953 668.199C127.245 667.873 126.639 667.503 126.134 667.088C125.63 666.673 125.243 666.197 124.975 665.66C124.706 665.123 124.572 664.508 124.572 663.816C124.572 663.125 124.714 662.486 124.999 661.9C125.284 661.314 125.691 660.805 126.22 660.374C126.757 659.935 127.396 659.593 128.136 659.349C128.877 659.104 129.703 658.982 130.614 658.982C131.949 658.982 133.08 659.239 134.008 659.751C134.944 660.256 135.656 660.919 136.144 661.741C136.632 662.555 136.876 663.426 136.876 664.354H134.533C134.533 663.686 134.39 663.096 134.105 662.583C133.821 662.063 133.389 661.656 132.812 661.363C132.234 661.062 131.501 660.911 130.614 660.911C129.776 660.911 129.084 661.037 128.539 661.29C127.994 661.542 127.587 661.884 127.318 662.315C127.058 662.746 126.928 663.239 126.928 663.792C126.928 664.166 127.005 664.508 127.16 664.817C127.322 665.118 127.571 665.399 127.904 665.66C128.246 665.92 128.677 666.16 129.198 666.38C129.727 666.6 130.358 666.811 131.09 667.015C132.099 667.299 132.97 667.617 133.703 667.967C134.435 668.317 135.037 668.711 135.509 669.151C135.989 669.582 136.343 670.075 136.571 670.628C136.807 671.173 136.925 671.792 136.925 672.483C136.925 673.208 136.779 673.863 136.486 674.449C136.193 675.035 135.774 675.535 135.229 675.95C134.683 676.365 134.028 676.687 133.263 676.915C132.506 677.134 131.66 677.244 130.724 677.244C129.902 677.244 129.092 677.13 128.295 676.902C127.506 676.674 126.785 676.333 126.134 675.877C125.491 675.421 124.975 674.86 124.584 674.192C124.201 673.517 124.01 672.736 124.01 671.849H126.354C126.354 672.459 126.472 672.984 126.708 673.423C126.944 673.855 127.265 674.213 127.672 674.498C128.087 674.782 128.555 674.994 129.076 675.132C129.605 675.263 130.154 675.328 130.724 675.328C131.546 675.328 132.242 675.214 132.812 674.986C133.381 674.758 133.812 674.432 134.105 674.009C134.407 673.586 134.557 673.086 134.557 672.508ZM142.04 663.792V677H139.77V663.792H142.04ZM139.599 660.289C139.599 659.922 139.708 659.613 139.928 659.361C140.156 659.109 140.49 658.982 140.929 658.982C141.361 658.982 141.69 659.109 141.918 659.361C142.154 659.613 142.272 659.922 142.272 660.289C142.272 660.639 142.154 660.94 141.918 661.192C141.69 661.436 141.361 661.558 140.929 661.558C140.49 661.558 140.156 661.436 139.928 661.192C139.708 660.94 139.599 660.639 139.599 660.289ZM147.912 666.417V677H145.641V663.792H147.79L147.912 666.417ZM147.448 669.896L146.398 669.859C146.406 668.956 146.524 668.121 146.752 667.356C146.98 666.583 147.318 665.912 147.765 665.342C148.213 664.773 148.77 664.333 149.438 664.024C150.105 663.707 150.878 663.548 151.757 663.548C152.375 663.548 152.945 663.637 153.466 663.816C153.987 663.987 154.438 664.26 154.821 664.634C155.203 665.009 155.5 665.489 155.712 666.075C155.924 666.661 156.029 667.369 156.029 668.199V677H153.771V668.309C153.771 667.617 153.653 667.063 153.417 666.648C153.189 666.233 152.864 665.932 152.44 665.745C152.017 665.55 151.521 665.452 150.951 665.452C150.284 665.452 149.726 665.57 149.279 665.806C148.831 666.042 148.473 666.368 148.205 666.783C147.936 667.198 147.741 667.674 147.619 668.211C147.505 668.74 147.448 669.301 147.448 669.896ZM156.005 668.65L154.491 669.114C154.499 668.39 154.617 667.694 154.845 667.027C155.081 666.36 155.419 665.765 155.858 665.245C156.306 664.724 156.855 664.313 157.506 664.012C158.157 663.702 158.902 663.548 159.74 663.548C160.448 663.548 161.075 663.641 161.62 663.829C162.174 664.016 162.637 664.305 163.012 664.695C163.394 665.078 163.683 665.57 163.878 666.172C164.074 666.775 164.171 667.491 164.171 668.321V677H161.901V668.296C161.901 667.556 161.783 666.982 161.547 666.575C161.319 666.16 160.993 665.871 160.57 665.708C160.155 665.538 159.659 665.452 159.081 665.452C158.585 665.452 158.145 665.538 157.763 665.708C157.38 665.879 157.059 666.115 156.798 666.417C156.538 666.709 156.339 667.047 156.2 667.43C156.07 667.812 156.005 668.219 156.005 668.65ZM169.848 666.331V682.078H167.577V663.792H169.652L169.848 666.331ZM178.747 670.286V670.542C178.747 671.503 178.633 672.394 178.405 673.216C178.177 674.03 177.843 674.738 177.404 675.34C176.972 675.942 176.439 676.41 175.805 676.744C175.17 677.077 174.442 677.244 173.62 677.244C172.781 677.244 172.041 677.106 171.398 676.829C170.755 676.552 170.21 676.15 169.762 675.621C169.315 675.092 168.957 674.457 168.688 673.716C168.428 672.976 168.249 672.142 168.151 671.214V669.847C168.249 668.87 168.432 667.995 168.7 667.222C168.969 666.449 169.323 665.79 169.762 665.245C170.21 664.691 170.751 664.272 171.386 663.987C172.021 663.694 172.753 663.548 173.583 663.548C174.413 663.548 175.15 663.711 175.792 664.036C176.435 664.354 176.977 664.809 177.416 665.403C177.855 665.997 178.185 666.709 178.405 667.54C178.633 668.361 178.747 669.277 178.747 670.286ZM176.476 670.542V670.286C176.476 669.627 176.407 669.008 176.269 668.431C176.13 667.845 175.915 667.332 175.622 666.893C175.337 666.445 174.971 666.095 174.523 665.843C174.075 665.582 173.542 665.452 172.924 665.452C172.354 665.452 171.858 665.55 171.435 665.745C171.02 665.94 170.666 666.205 170.373 666.539C170.08 666.864 169.84 667.238 169.652 667.662C169.473 668.077 169.339 668.508 169.25 668.956V672.117C169.412 672.687 169.64 673.224 169.933 673.729C170.226 674.225 170.617 674.628 171.105 674.937C171.593 675.238 172.208 675.389 172.948 675.389C173.559 675.389 174.083 675.263 174.523 675.01C174.971 674.75 175.337 674.396 175.622 673.948C175.915 673.501 176.13 672.988 176.269 672.41C176.407 671.824 176.476 671.202 176.476 670.542ZM184.081 658.25V677H181.811V658.25H184.081ZM193.188 677.244C192.268 677.244 191.434 677.09 190.685 676.78C189.944 676.463 189.306 676.019 188.769 675.45C188.24 674.88 187.833 674.205 187.548 673.423C187.263 672.642 187.121 671.788 187.121 670.86V670.347C187.121 669.273 187.279 668.317 187.597 667.479C187.914 666.632 188.345 665.916 188.891 665.33C189.436 664.744 190.054 664.301 190.746 664C191.438 663.698 192.154 663.548 192.895 663.548C193.839 663.548 194.652 663.711 195.336 664.036C196.028 664.362 196.593 664.817 197.033 665.403C197.472 665.981 197.798 666.665 198.009 667.454C198.221 668.235 198.327 669.09 198.327 670.018V671.031H188.463V669.188H196.068V669.017C196.036 668.431 195.914 667.861 195.702 667.308C195.499 666.754 195.173 666.299 194.726 665.94C194.278 665.582 193.668 665.403 192.895 665.403C192.382 665.403 191.91 665.513 191.479 665.733C191.047 665.944 190.677 666.262 190.368 666.685C190.058 667.108 189.818 667.625 189.647 668.235C189.477 668.846 189.391 669.55 189.391 670.347V670.86C189.391 671.486 189.477 672.076 189.647 672.63C189.826 673.175 190.083 673.655 190.417 674.07C190.758 674.485 191.169 674.811 191.649 675.047C192.138 675.283 192.691 675.401 193.31 675.401C194.107 675.401 194.783 675.238 195.336 674.913C195.889 674.587 196.374 674.152 196.789 673.606L198.156 674.693C197.871 675.124 197.509 675.535 197.069 675.926C196.63 676.316 196.089 676.634 195.446 676.878C194.811 677.122 194.058 677.244 193.188 677.244ZM214.086 660.801L208.202 677H205.797L212.572 659.227H214.123L214.086 660.801ZM219.018 677L213.122 660.801L213.085 659.227H214.635L221.435 677H219.018ZM218.712 670.42V672.349H208.727V670.42H218.712ZM225.731 666.612V677H223.473V663.792H225.609L225.731 666.612ZM225.194 669.896L224.254 669.859C224.263 668.956 224.397 668.121 224.657 667.356C224.918 666.583 225.284 665.912 225.756 665.342C226.228 664.773 226.789 664.333 227.44 664.024C228.1 663.707 228.828 663.548 229.625 663.548C230.277 663.548 230.862 663.637 231.383 663.816C231.904 663.987 232.348 664.264 232.714 664.646C233.088 665.029 233.373 665.525 233.568 666.136C233.764 666.738 233.861 667.474 233.861 668.345V677H231.591V668.321C231.591 667.629 231.489 667.076 231.286 666.661C231.082 666.237 230.785 665.932 230.395 665.745C230.004 665.55 229.524 665.452 228.954 665.452C228.393 665.452 227.88 665.57 227.416 665.806C226.96 666.042 226.566 666.368 226.232 666.783C225.906 667.198 225.65 667.674 225.463 668.211C225.284 668.74 225.194 669.301 225.194 669.896ZM245.617 674.437V658.25H247.887V677H245.812L245.617 674.437ZM236.73 670.542V670.286C236.73 669.277 236.852 668.361 237.096 667.54C237.348 666.709 237.702 665.997 238.158 665.403C238.622 664.809 239.171 664.354 239.806 664.036C240.449 663.711 241.165 663.548 241.955 663.548C242.785 663.548 243.509 663.694 244.127 663.987C244.754 664.272 245.283 664.691 245.714 665.245C246.154 665.79 246.5 666.449 246.752 667.222C247.004 667.995 247.179 668.87 247.277 669.847V670.97C247.187 671.938 247.012 672.809 246.752 673.582C246.5 674.355 246.154 675.014 245.714 675.56C245.283 676.105 244.754 676.524 244.127 676.817C243.501 677.102 242.768 677.244 241.93 677.244C241.157 677.244 240.449 677.077 239.806 676.744C239.171 676.41 238.622 675.942 238.158 675.34C237.702 674.738 237.348 674.03 237.096 673.216C236.852 672.394 236.73 671.503 236.73 670.542ZM239 670.286V670.542C239 671.202 239.066 671.82 239.196 672.398C239.334 672.976 239.546 673.484 239.831 673.924C240.115 674.363 240.478 674.709 240.917 674.961C241.356 675.206 241.881 675.328 242.492 675.328C243.24 675.328 243.855 675.169 244.335 674.852C244.823 674.534 245.214 674.115 245.507 673.594C245.8 673.073 246.028 672.508 246.19 671.897V668.956C246.093 668.508 245.95 668.077 245.763 667.662C245.584 667.238 245.348 666.864 245.055 666.539C244.77 666.205 244.416 665.94 243.993 665.745C243.578 665.55 243.086 665.452 242.516 665.452C241.898 665.452 241.365 665.582 240.917 665.843C240.478 666.095 240.115 666.445 239.831 666.893C239.546 667.332 239.334 667.845 239.196 668.431C239.066 669.008 239 669.627 239 670.286ZM260.302 659.227V677H257.946V659.227H260.302ZM267.748 667.222V669.151H259.789V667.222H267.748ZM268.957 659.227V661.155H259.789V659.227H268.957ZM278.795 674.742V667.942C278.795 667.422 278.69 666.97 278.478 666.587C278.275 666.197 277.965 665.896 277.55 665.684C277.135 665.472 276.623 665.367 276.012 665.367C275.443 665.367 274.942 665.464 274.511 665.66C274.088 665.855 273.754 666.111 273.51 666.429C273.274 666.746 273.156 667.088 273.156 667.454H270.897C270.897 666.982 271.02 666.514 271.264 666.05C271.508 665.586 271.858 665.167 272.313 664.793C272.777 664.41 273.331 664.109 273.974 663.89C274.625 663.662 275.349 663.548 276.146 663.548C277.107 663.548 277.953 663.711 278.686 664.036C279.426 664.362 280.004 664.854 280.419 665.513C280.842 666.164 281.054 666.982 281.054 667.967V674.119C281.054 674.559 281.09 675.027 281.164 675.523C281.245 676.019 281.363 676.447 281.518 676.805V677H279.162C279.048 676.74 278.958 676.394 278.893 675.962C278.828 675.523 278.795 675.116 278.795 674.742ZM279.186 668.992L279.21 670.579H276.928C276.285 670.579 275.711 670.632 275.207 670.738C274.702 670.835 274.279 670.986 273.937 671.189C273.595 671.393 273.335 671.649 273.156 671.958C272.977 672.26 272.887 672.614 272.887 673.021C272.887 673.436 272.981 673.814 273.168 674.156C273.355 674.498 273.636 674.77 274.01 674.974C274.393 675.169 274.861 675.267 275.414 675.267C276.106 675.267 276.716 675.12 277.245 674.827C277.774 674.534 278.193 674.176 278.502 673.753C278.82 673.33 278.991 672.919 279.015 672.52L279.979 673.606C279.923 673.948 279.768 674.327 279.516 674.742C279.263 675.157 278.926 675.556 278.502 675.938C278.087 676.312 277.591 676.626 277.013 676.878C276.444 677.122 275.801 677.244 275.084 677.244C274.189 677.244 273.404 677.069 272.729 676.719C272.061 676.369 271.54 675.901 271.166 675.315C270.8 674.721 270.617 674.058 270.617 673.326C270.617 672.618 270.755 671.995 271.032 671.458C271.308 670.913 271.707 670.461 272.228 670.103C272.749 669.737 273.375 669.46 274.108 669.273C274.84 669.086 275.658 668.992 276.562 668.992H279.186ZM292.296 673.497C292.296 673.171 292.223 672.87 292.077 672.593C291.938 672.308 291.649 672.052 291.21 671.824C290.779 671.588 290.128 671.385 289.257 671.214C288.524 671.059 287.861 670.876 287.267 670.665C286.681 670.453 286.181 670.197 285.766 669.896C285.359 669.594 285.045 669.24 284.826 668.833C284.606 668.427 284.496 667.951 284.496 667.405C284.496 666.884 284.61 666.392 284.838 665.928C285.074 665.464 285.403 665.053 285.827 664.695C286.258 664.337 286.775 664.056 287.377 663.853C287.979 663.65 288.651 663.548 289.391 663.548C290.449 663.548 291.352 663.735 292.101 664.109C292.85 664.484 293.424 664.984 293.822 665.611C294.221 666.229 294.42 666.917 294.42 667.674H292.162C292.162 667.308 292.052 666.954 291.833 666.612C291.621 666.262 291.308 665.973 290.893 665.745C290.486 665.517 289.985 665.403 289.391 665.403C288.764 665.403 288.256 665.501 287.865 665.696C287.483 665.883 287.202 666.124 287.023 666.417C286.852 666.709 286.767 667.019 286.767 667.344C286.767 667.588 286.807 667.808 286.889 668.003C286.978 668.191 287.133 668.366 287.353 668.528C287.572 668.683 287.882 668.829 288.28 668.968C288.679 669.106 289.188 669.244 289.806 669.383C290.889 669.627 291.78 669.92 292.479 670.262C293.179 670.604 293.7 671.023 294.042 671.519C294.384 672.015 294.555 672.618 294.555 673.326C294.555 673.903 294.433 674.432 294.188 674.913C293.952 675.393 293.607 675.808 293.151 676.158C292.703 676.5 292.166 676.768 291.54 676.963C290.921 677.151 290.225 677.244 289.452 677.244C288.288 677.244 287.304 677.037 286.498 676.622C285.692 676.207 285.082 675.669 284.667 675.01C284.252 674.351 284.044 673.655 284.044 672.923H286.315C286.347 673.541 286.527 674.034 286.852 674.4C287.178 674.758 287.576 675.014 288.048 675.169C288.52 675.315 288.988 675.389 289.452 675.389C290.071 675.389 290.587 675.307 291.002 675.145C291.426 674.982 291.747 674.758 291.967 674.473C292.187 674.188 292.296 673.863 292.296 673.497ZM303.051 663.792V665.525H295.91V663.792H303.051ZM298.327 660.582H300.585V673.729C300.585 674.176 300.654 674.514 300.792 674.742C300.931 674.97 301.11 675.12 301.33 675.193C301.549 675.267 301.785 675.303 302.038 675.303C302.225 675.303 302.42 675.287 302.624 675.254C302.835 675.214 302.994 675.181 303.1 675.157L303.112 677C302.933 677.057 302.697 677.11 302.404 677.159C302.119 677.216 301.773 677.244 301.366 677.244C300.813 677.244 300.304 677.134 299.84 676.915C299.376 676.695 299.006 676.329 298.729 675.816C298.461 675.295 298.327 674.595 298.327 673.716V660.582ZM169.811 700.348H172.155C172.033 701.471 171.711 702.476 171.19 703.363C170.67 704.25 169.933 704.954 168.981 705.475C168.029 705.988 166.841 706.244 165.417 706.244C164.375 706.244 163.427 706.049 162.572 705.658C161.726 705.268 160.998 704.714 160.387 703.998C159.777 703.274 159.305 702.407 158.971 701.398C158.646 700.381 158.483 699.25 158.483 698.004V696.234C158.483 694.989 158.646 693.862 158.971 692.853C159.305 691.836 159.781 690.965 160.399 690.241C161.026 689.516 161.779 688.959 162.658 688.568C163.537 688.178 164.525 687.982 165.624 687.982C166.967 687.982 168.102 688.235 169.03 688.739C169.958 689.244 170.678 689.944 171.19 690.839C171.711 691.726 172.033 692.755 172.155 693.927H169.811C169.697 693.097 169.486 692.385 169.176 691.791C168.867 691.189 168.428 690.725 167.858 690.399C167.288 690.074 166.544 689.911 165.624 689.911C164.835 689.911 164.139 690.062 163.537 690.363C162.943 690.664 162.442 691.091 162.035 691.645C161.636 692.198 161.335 692.861 161.132 693.634C160.928 694.407 160.827 695.266 160.827 696.21V698.004C160.827 698.875 160.916 699.693 161.095 700.458C161.282 701.223 161.563 701.894 161.938 702.472C162.312 703.05 162.788 703.506 163.366 703.839C163.944 704.165 164.627 704.328 165.417 704.328C166.417 704.328 167.215 704.169 167.809 703.852C168.403 703.534 168.851 703.078 169.152 702.484C169.461 701.89 169.681 701.178 169.811 700.348ZM177.477 687.25V706H175.207V687.25H177.477ZM180.504 699.542V699.262C180.504 698.31 180.643 697.427 180.919 696.613C181.196 695.791 181.595 695.079 182.116 694.477C182.637 693.866 183.267 693.394 184.008 693.061C184.748 692.719 185.578 692.548 186.498 692.548C187.426 692.548 188.26 692.719 189 693.061C189.749 693.394 190.384 693.866 190.905 694.477C191.434 695.079 191.837 695.791 192.113 696.613C192.39 697.427 192.528 698.31 192.528 699.262V699.542C192.528 700.495 192.39 701.378 192.113 702.191C191.837 703.005 191.434 703.717 190.905 704.328C190.384 704.93 189.753 705.402 189.013 705.744C188.28 706.077 187.45 706.244 186.522 706.244C185.595 706.244 184.761 706.077 184.02 705.744C183.279 705.402 182.645 704.93 182.116 704.328C181.595 703.717 181.196 703.005 180.919 702.191C180.643 701.378 180.504 700.495 180.504 699.542ZM182.763 699.262V699.542C182.763 700.202 182.84 700.824 182.995 701.41C183.149 701.988 183.381 702.501 183.69 702.948C184.008 703.396 184.403 703.75 184.875 704.01C185.347 704.263 185.896 704.389 186.522 704.389C187.141 704.389 187.682 704.263 188.146 704.01C188.618 703.75 189.009 703.396 189.318 702.948C189.627 702.501 189.859 701.988 190.014 701.41C190.176 700.824 190.258 700.202 190.258 699.542V699.262C190.258 698.611 190.176 697.996 190.014 697.418C189.859 696.833 189.623 696.316 189.306 695.868C188.996 695.412 188.606 695.054 188.134 694.794C187.67 694.534 187.125 694.403 186.498 694.403C185.88 694.403 185.334 694.534 184.862 694.794C184.398 695.054 184.008 695.412 183.69 695.868C183.381 696.316 183.149 696.833 182.995 697.418C182.84 697.996 182.763 698.611 182.763 699.262ZM200.646 704.389C201.183 704.389 201.68 704.279 202.135 704.059C202.591 703.839 202.965 703.538 203.258 703.156C203.551 702.765 203.718 702.322 203.759 701.825H205.907C205.867 702.606 205.602 703.335 205.114 704.01C204.634 704.678 204.003 705.219 203.222 705.634C202.44 706.041 201.582 706.244 200.646 706.244C199.653 706.244 198.786 706.069 198.046 705.719C197.313 705.369 196.703 704.889 196.215 704.279C195.735 703.668 195.373 702.969 195.128 702.179C194.892 701.382 194.774 700.539 194.774 699.652V699.14C194.774 698.253 194.892 697.414 195.128 696.625C195.373 695.827 195.735 695.124 196.215 694.513C196.703 693.903 197.313 693.423 198.046 693.073C198.786 692.723 199.653 692.548 200.646 692.548C201.68 692.548 202.583 692.759 203.356 693.183C204.129 693.598 204.735 694.167 205.175 694.892C205.622 695.608 205.867 696.422 205.907 697.333H203.759C203.718 696.788 203.563 696.295 203.295 695.856C203.035 695.417 202.676 695.067 202.221 694.806C201.773 694.538 201.248 694.403 200.646 694.403C199.954 694.403 199.372 694.542 198.9 694.818C198.437 695.087 198.066 695.453 197.79 695.917C197.521 696.373 197.326 696.881 197.204 697.443C197.09 697.996 197.033 698.562 197.033 699.14V699.652C197.033 700.23 197.09 700.8 197.204 701.361C197.318 701.923 197.509 702.431 197.777 702.887C198.054 703.343 198.424 703.709 198.888 703.986C199.36 704.254 199.946 704.389 200.646 704.389ZM210.717 687.25V706H208.446V687.25H210.717ZM218.786 692.792L213.024 698.957L209.801 702.301L209.618 699.896L211.925 697.138L216.027 692.792H218.786ZM216.723 706L212.011 699.701L213.183 697.687L219.384 706H216.723ZM234.24 689.801L228.356 706H225.951L232.726 688.227H234.276L234.24 689.801ZM239.171 706L233.275 689.801L233.239 688.227H234.789L241.588 706H239.171ZM238.866 699.42V701.349H228.881V699.42H238.866ZM245.885 695.331V711.078H243.615V692.792H245.69L245.885 695.331ZM254.784 699.286V699.542C254.784 700.503 254.67 701.394 254.442 702.216C254.215 703.03 253.881 703.738 253.441 704.34C253.01 704.942 252.477 705.41 251.842 705.744C251.208 706.077 250.479 706.244 249.657 706.244C248.819 706.244 248.078 706.106 247.436 705.829C246.793 705.552 246.247 705.15 245.8 704.621C245.352 704.092 244.994 703.457 244.726 702.716C244.465 701.976 244.286 701.142 244.188 700.214V698.847C244.286 697.87 244.469 696.995 244.738 696.222C245.006 695.449 245.36 694.79 245.8 694.245C246.247 693.691 246.789 693.272 247.423 692.987C248.058 692.694 248.791 692.548 249.621 692.548C250.451 692.548 251.187 692.711 251.83 693.036C252.473 693.354 253.014 693.809 253.454 694.403C253.893 694.997 254.223 695.709 254.442 696.54C254.67 697.361 254.784 698.277 254.784 699.286ZM252.514 699.542V699.286C252.514 698.627 252.444 698.008 252.306 697.431C252.168 696.845 251.952 696.332 251.659 695.893C251.374 695.445 251.008 695.095 250.561 694.843C250.113 694.582 249.58 694.452 248.961 694.452C248.392 694.452 247.895 694.55 247.472 694.745C247.057 694.94 246.703 695.205 246.41 695.539C246.117 695.864 245.877 696.238 245.69 696.662C245.511 697.077 245.377 697.508 245.287 697.956V701.117C245.45 701.687 245.678 702.224 245.971 702.729C246.264 703.225 246.654 703.628 247.143 703.937C247.631 704.238 248.245 704.389 248.986 704.389C249.596 704.389 250.121 704.263 250.561 704.01C251.008 703.75 251.374 703.396 251.659 702.948C251.952 702.501 252.168 701.988 252.306 701.41C252.444 700.824 252.514 700.202 252.514 699.542ZM259.923 695.331V711.078H257.653V692.792H259.728L259.923 695.331ZM268.822 699.286V699.542C268.822 700.503 268.708 701.394 268.48 702.216C268.253 703.03 267.919 703.738 267.479 704.34C267.048 704.942 266.515 705.41 265.88 705.744C265.246 706.077 264.517 706.244 263.695 706.244C262.857 706.244 262.117 706.106 261.474 705.829C260.831 705.552 260.285 705.15 259.838 704.621C259.39 704.092 259.032 703.457 258.764 702.716C258.503 701.976 258.324 701.142 258.227 700.214V698.847C258.324 697.87 258.507 696.995 258.776 696.222C259.044 695.449 259.398 694.79 259.838 694.245C260.285 693.691 260.827 693.272 261.461 692.987C262.096 692.694 262.829 692.548 263.659 692.548C264.489 692.548 265.225 692.711 265.868 693.036C266.511 693.354 267.052 693.809 267.492 694.403C267.931 694.997 268.261 695.709 268.48 696.54C268.708 697.361 268.822 698.277 268.822 699.286ZM266.552 699.542V699.286C266.552 698.627 266.483 698.008 266.344 697.431C266.206 696.845 265.99 696.332 265.697 695.893C265.412 695.445 265.046 695.095 264.599 694.843C264.151 694.582 263.618 694.452 263 694.452C262.43 694.452 261.933 694.55 261.51 694.745C261.095 694.94 260.741 695.205 260.448 695.539C260.155 695.864 259.915 696.238 259.728 696.662C259.549 697.077 259.415 697.508 259.325 697.956V701.117C259.488 701.687 259.716 702.224 260.009 702.729C260.302 703.225 260.692 703.628 261.181 703.937C261.669 704.238 262.283 704.389 263.024 704.389C263.634 704.389 264.159 704.263 264.599 704.01C265.046 703.75 265.412 703.396 265.697 702.948C265.99 702.501 266.206 701.988 266.344 701.41C266.483 700.824 266.552 700.202 266.552 699.542Z" fill="#002232"/>
</g>
<defs>
<filter id="filter0_dddddd_4_76" x="165" y="813.704" width="271" height="231.296" filterUnits="userSpaceOnUse" color-interpolation-filters="sRGB">
<feFlood flood-opacity="0" result="BackgroundImageFix"/>
<feColorMatrix in="SourceAlpha" type="matrix" values="0 0 0 0 0 0 0 0 0 0 0 0 0 0 0 0 0 0 127 0" result="hardAlpha"/>
<feOffset dy="1.85185"/>
<feGaussianBlur stdDeviation="1.57407"/>
<feColorMatrix type="matrix" values="0 0 0 0 0.054902 0 0 0 0 0.129412 0 0 0 0 1 0 0 0 0.0168519 0"/>
<feBlend mode="normal" in2="BackgroundImageFix" result="effect1_dropShadow_4_76"/>
<feColorMatrix in="SourceAlpha" type="matrix" values="0 0 0 0 0 0 0 0 0 0 0 0 0 0 0 0 0 0 127 0" result="hardAlpha"/>
<feOffset dy="8.14815"/>
<feGaussianBlur stdDeviation="3.25926"/>
<feColorMatrix type="matrix" values="0 0 0 0 0.054902 0 0 0 0 0.129412 0 0 0 0 1 0 0 0 0.0274815 0"/>
<feBlend mode="normal" in2="effect1_dropShadow_4_76" result="effect2_dropShadow_4_76"/>
<feColorMatrix in="SourceAlpha" type="matrix" values="0 0 0 0 0 0 0 0 0 0 0 0 0 0 0 0 0 0 127 0" result="hardAlpha"/>
<feOffset dy="20"/>
<feGaussianBlur stdDeviation="6.5"/>
<feColorMatrix type="matrix" values="0 0 0 0 0.054902 0 0 0 0 0.129412 0 0 0 0 1 0 0 0 0.035 0"/>
<feBlend mode="normal" in2="effect2_dropShadow_4_76" result="effect3_dropShadow_4_76"/>
<feColorMatrix in="SourceAlpha" type="matrix" values="0 0 0 0 0 0 0 0 0 0 0 0 0 0 0 0 0 0 127 0" result="hardAlpha"/>
<feOffset dy="38.5185"/>
<feGaussianBlur stdDeviation="12.7407"/>
<feColorMatrix type="matrix" values="0 0 0 0 0.054902 0 0 0 0 0.129412 0 0 0 0 1 0 0 0 0.0425185 0"/>
<feBlend mode="normal" in2="effect3_dropShadow_4_76" result="effect4_dropShadow_4_76"/>
<feColorMatrix in="SourceAlpha" type="matrix" values="0 0 0 0 0 0 0 0 0 0 0 0 0 0 0 0 0 0 127 0" result="hardAlpha"/>
<feOffset dy="64.8148"/>
<feGaussianBlur stdDeviation="23.4259"/>
<feColorMatrix type="matrix" values="0 0 0 0 0.054902 0 0 0 0 0.129412 0 0 0 0 1 0 0 0 0.0531481 0"/>
<feBlend mode="normal" in2="effect4_dropShadow_4_76" result="effect5_dropShadow_4_76"/>
<feColorMatrix in="SourceAlpha" type="matrix" values="0 0 0 0 0 0 0 0 0 0 0 0 0 0 0 0 0 0 127 0" result="hardAlpha"/>
<feOffset dy="100"/>
<feGaussianBlur stdDeviation="40"/>
<feColorMatrix type="matrix" values="0 0 0 0 0.054902 0 0 0 0 0.129412 0 0 0 0 1 0 0 0 0.07 0"/>
<feBlend mode="normal" in2="effect5_dropShadow_4_76" result="effect6_dropShadow_4_76"/>
<feBlend mode="normal" in="SourceGraphic" in2="effect6_dropShadow_4_76" result="shape"/>
</filter>
<clipPath id="clip0_4_76">
<rect width="428" height="926" fill="white"/>
</clipPath>
<clipPath id="clip1_4_76">
<rect width="363" height="340" fill="white" transform="translate(33 256)"/>
</clipPath>
</defs>
</svg>
