<svg width="428" height="926" viewBox="0 0 428 926" fill="none" xmlns="http://www.w3.org/2000/svg">
<rect width="428" height="926" fill="#EEEEEE"/>
<g filter="url(#filter0_d_10_2462)">
<path d="M352.064 273.999C379.06 309.287 381.085 362.553 368.712 410.935C356.113 459.54 329.343 503.262 289.074 524.568C248.58 545.874 194.588 544.543 147.345 524.124C100.103 503.706 59.6088 464.201 53.7597 421.589C47.9106 379.198 76.7062 333.923 110.226 297.303C143.971 260.461 182.215 232.497 227.658 226.948C272.876 221.622 325.068 238.933 352.064 273.999Z" fill="#67D3E8"/>
</g>
<path d="M171.097 150V138.8H175.289C176.239 138.8 177.055 138.955 177.737 139.264C178.42 139.563 178.943 140 179.305 140.576C179.679 141.141 179.865 141.829 179.865 142.64C179.865 143.429 179.679 144.112 179.305 144.688C178.943 145.253 178.42 145.691 177.737 146C177.055 146.309 176.239 146.464 175.289 146.464H171.753L172.281 145.904V150H171.097ZM172.281 146L171.753 145.424H175.257C176.377 145.424 177.225 145.184 177.801 144.704C178.388 144.213 178.681 143.525 178.681 142.64C178.681 141.744 178.388 141.051 177.801 140.56C177.225 140.069 176.377 139.824 175.257 139.824H171.753L172.281 139.264V146ZM186.63 141.52C187.312 141.52 187.91 141.653 188.422 141.92C188.944 142.176 189.35 142.571 189.638 143.104C189.936 143.637 190.086 144.309 190.086 145.12V150H188.95V145.232C188.95 144.347 188.726 143.68 188.278 143.232C187.84 142.773 187.222 142.544 186.422 142.544C185.824 142.544 185.302 142.667 184.854 142.912C184.416 143.147 184.075 143.493 183.83 143.952C183.595 144.4 183.478 144.944 183.478 145.584V150H182.342V138.128H183.478V143.904L183.254 143.472C183.52 142.864 183.947 142.389 184.534 142.048C185.12 141.696 185.819 141.52 186.63 141.52ZM193.154 150V141.6H194.29V150H193.154ZM193.73 139.744C193.496 139.744 193.298 139.664 193.138 139.504C192.978 139.344 192.898 139.152 192.898 138.928C192.898 138.704 192.978 138.517 193.138 138.368C193.298 138.208 193.496 138.128 193.73 138.128C193.965 138.128 194.162 138.203 194.322 138.352C194.482 138.501 194.562 138.688 194.562 138.912C194.562 139.147 194.482 139.344 194.322 139.504C194.173 139.664 193.976 139.744 193.73 139.744ZM197.451 150V138.128H198.587V150H197.451ZM201.748 150V141.6H202.884V150H201.748ZM202.324 139.744C202.089 139.744 201.892 139.664 201.732 139.504C201.572 139.344 201.492 139.152 201.492 138.928C201.492 138.704 201.572 138.517 201.732 138.368C201.892 138.208 202.089 138.128 202.324 138.128C202.559 138.128 202.756 138.203 202.916 138.352C203.076 138.501 203.156 138.688 203.156 138.912C203.156 139.147 203.076 139.344 202.916 139.504C202.767 139.664 202.569 139.744 202.324 139.744ZM210.381 150.08C209.656 150.08 209 149.915 208.413 149.584C207.826 149.243 207.357 148.757 207.005 148.128C206.664 147.488 206.493 146.709 206.493 145.792C206.493 144.875 206.664 144.101 207.005 143.472C207.346 142.832 207.81 142.347 208.397 142.016C208.984 141.685 209.645 141.52 210.381 141.52C211.181 141.52 211.896 141.701 212.525 142.064C213.165 142.416 213.666 142.917 214.029 143.568C214.392 144.208 214.573 144.949 214.573 145.792C214.573 146.645 214.392 147.392 214.029 148.032C213.666 148.672 213.165 149.173 212.525 149.536C211.896 149.899 211.181 150.08 210.381 150.08ZM206.045 153.104V141.6H207.133V144.128L207.021 145.808L207.181 147.504V153.104H206.045ZM210.301 149.072C210.898 149.072 211.432 148.939 211.901 148.672C212.37 148.395 212.744 148.011 213.021 147.52C213.298 147.019 213.437 146.443 213.437 145.792C213.437 145.141 213.298 144.571 213.021 144.08C212.744 143.589 212.37 143.205 211.901 142.928C211.432 142.651 210.898 142.512 210.301 142.512C209.704 142.512 209.165 142.651 208.685 142.928C208.216 143.205 207.842 143.589 207.565 144.08C207.298 144.571 207.165 145.141 207.165 145.792C207.165 146.443 207.298 147.019 207.565 147.52C207.842 148.011 208.216 148.395 208.685 148.672C209.165 148.939 209.704 149.072 210.301 149.072ZM221.225 150.08C220.499 150.08 219.843 149.915 219.257 149.584C218.67 149.243 218.201 148.757 217.849 148.128C217.507 147.488 217.337 146.709 217.337 145.792C217.337 144.875 217.507 144.101 217.849 143.472C218.19 142.832 218.654 142.347 219.241 142.016C219.827 141.685 220.489 141.52 221.225 141.52C222.025 141.52 222.739 141.701 223.369 142.064C224.009 142.416 224.51 142.917 224.873 143.568C225.235 144.208 225.417 144.949 225.417 145.792C225.417 146.645 225.235 147.392 224.873 148.032C224.51 148.672 224.009 149.173 223.369 149.536C222.739 149.899 222.025 150.08 221.225 150.08ZM216.889 153.104V141.6H217.977V144.128L217.865 145.808L218.025 147.504V153.104H216.889ZM221.145 149.072C221.742 149.072 222.275 148.939 222.745 148.672C223.214 148.395 223.587 148.011 223.865 147.52C224.142 147.019 224.281 146.443 224.281 145.792C224.281 145.141 224.142 144.571 223.865 144.08C223.587 143.589 223.214 143.205 222.745 142.928C222.275 142.651 221.742 142.512 221.145 142.512C220.547 142.512 220.009 142.651 219.529 142.928C219.059 143.205 218.686 143.589 218.409 144.08C218.142 144.571 218.009 145.141 218.009 145.792C218.009 146.443 218.142 147.019 218.409 147.52C218.686 148.011 219.059 148.395 219.529 148.672C220.009 148.939 220.547 149.072 221.145 149.072ZM227.732 150V141.6H228.868V150H227.732ZM228.308 139.744C228.074 139.744 227.876 139.664 227.716 139.504C227.556 139.344 227.476 139.152 227.476 138.928C227.476 138.704 227.556 138.517 227.716 138.368C227.876 138.208 228.074 138.128 228.308 138.128C228.543 138.128 228.74 138.203 228.9 138.352C229.06 138.501 229.14 138.688 229.14 138.912C229.14 139.147 229.06 139.344 228.9 139.504C228.751 139.664 228.554 139.744 228.308 139.744ZM236.317 141.52C237 141.52 237.597 141.653 238.109 141.92C238.632 142.176 239.037 142.571 239.325 143.104C239.624 143.637 239.773 144.309 239.773 145.12V150H238.637V145.232C238.637 144.347 238.413 143.68 237.965 143.232C237.528 142.773 236.909 142.544 236.109 142.544C235.512 142.544 234.989 142.667 234.541 142.912C234.104 143.147 233.763 143.493 233.517 143.952C233.283 144.4 233.165 144.944 233.165 145.584V150H232.029V141.6H233.117V143.904L232.941 143.472C233.208 142.864 233.635 142.389 234.221 142.048C234.808 141.696 235.507 141.52 236.317 141.52ZM246.41 150.08C245.535 150.08 244.767 149.899 244.106 149.536C243.444 149.163 242.927 148.656 242.554 148.016C242.18 147.365 241.994 146.624 241.994 145.792C241.994 144.96 242.17 144.224 242.522 143.584C242.884 142.944 243.375 142.443 243.994 142.08C244.623 141.707 245.327 141.52 246.106 141.52C246.895 141.52 247.594 141.701 248.202 142.064C248.82 142.416 249.306 142.917 249.658 143.568C250.01 144.208 250.186 144.949 250.186 145.792C250.186 145.845 250.18 145.904 250.17 145.968C250.17 146.021 250.17 146.08 250.17 146.144H242.858V145.296H249.562L249.114 145.632C249.114 145.024 248.98 144.485 248.714 144.016C248.458 143.536 248.106 143.163 247.658 142.896C247.21 142.629 246.692 142.496 246.106 142.496C245.53 142.496 245.012 142.629 244.554 142.896C244.095 143.163 243.738 143.536 243.482 144.016C243.226 144.496 243.098 145.045 243.098 145.664V145.84C243.098 146.48 243.236 147.045 243.514 147.536C243.802 148.016 244.196 148.395 244.698 148.672C245.21 148.939 245.791 149.072 246.442 149.072C246.954 149.072 247.428 148.981 247.866 148.8C248.314 148.619 248.698 148.341 249.018 147.968L249.658 148.704C249.284 149.152 248.815 149.493 248.25 149.728C247.695 149.963 247.082 150.08 246.41 150.08ZM254.754 150.08C254.061 150.08 253.405 149.984 252.786 149.792C252.167 149.589 251.682 149.339 251.33 149.04L251.842 148.144C252.183 148.4 252.621 148.624 253.154 148.816C253.687 148.997 254.247 149.088 254.834 149.088C255.634 149.088 256.21 148.965 256.562 148.72C256.914 148.464 257.09 148.128 257.09 147.712C257.09 147.403 256.989 147.163 256.786 146.992C256.594 146.811 256.338 146.677 256.018 146.592C255.698 146.496 255.341 146.416 254.946 146.352C254.551 146.288 254.157 146.213 253.762 146.128C253.378 146.043 253.026 145.92 252.706 145.76C252.386 145.589 252.125 145.36 251.922 145.072C251.73 144.784 251.634 144.4 251.634 143.92C251.634 143.461 251.762 143.051 252.018 142.688C252.274 142.325 252.647 142.043 253.138 141.84C253.639 141.627 254.247 141.52 254.962 141.52C255.506 141.52 256.05 141.595 256.594 141.744C257.138 141.883 257.586 142.069 257.938 142.304L257.442 143.216C257.069 142.96 256.669 142.779 256.242 142.672C255.815 142.555 255.389 142.496 254.962 142.496C254.205 142.496 253.645 142.629 253.282 142.896C252.93 143.152 252.754 143.483 252.754 143.888C252.754 144.208 252.85 144.459 253.042 144.64C253.245 144.821 253.506 144.965 253.826 145.072C254.157 145.168 254.514 145.248 254.898 145.312C255.293 145.376 255.682 145.456 256.066 145.552C256.461 145.637 256.818 145.76 257.138 145.92C257.469 146.069 257.73 146.288 257.922 146.576C258.125 146.853 258.226 147.221 258.226 147.68C258.226 148.171 258.087 148.597 257.81 148.96C257.543 149.312 257.149 149.589 256.626 149.792C256.114 149.984 255.49 150.08 254.754 150.08Z" fill="#0E4855"/>
<circle cx="165" cy="639" r="5" fill="#0E4855"/>
<circle cx="326.5" cy="636.5" r="2.5" fill="#0E4855"/>
<circle cx="362.5" cy="639.5" r="2.5" fill="#0E4B58"/>
<path d="M148.907 105.256C147.201 105.256 145.622 104.979 144.171 104.424C142.742 103.848 141.494 103.048 140.427 102.024C139.382 100.979 138.561 99.7627 137.963 98.376C137.366 96.9893 137.067 95.464 137.067 93.8C137.067 92.136 137.366 90.6107 137.963 89.224C138.561 87.8373 139.393 86.632 140.459 85.608C141.526 84.5627 142.774 83.7627 144.203 83.208C145.654 82.632 147.233 82.344 148.939 82.344C150.667 82.344 152.257 82.6427 153.707 83.24C155.179 83.816 156.427 84.68 157.451 85.832L155.371 87.848C154.518 86.952 153.558 86.2907 152.491 85.864C151.425 85.416 150.283 85.192 149.067 85.192C147.809 85.192 146.635 85.4053 145.547 85.832C144.481 86.2587 143.553 86.856 142.763 87.624C141.974 88.392 141.355 89.3093 140.907 90.376C140.481 91.4213 140.267 92.5627 140.267 93.8C140.267 95.0373 140.481 96.1893 140.907 97.256C141.355 98.3013 141.974 99.208 142.763 99.976C143.553 100.744 144.481 101.341 145.547 101.768C146.635 102.195 147.809 102.408 149.067 102.408C150.283 102.408 151.425 102.195 152.491 101.768C153.558 101.32 154.518 100.637 155.371 99.72L157.451 101.736C156.427 102.888 155.179 103.763 153.707 104.36C152.257 104.957 150.657 105.256 148.907 105.256ZM168.402 105.192C166.588 105.192 164.988 104.819 163.602 104.072C162.236 103.325 161.17 102.301 160.402 101C159.655 99.6987 159.282 98.2053 159.282 96.52C159.282 94.8347 159.644 93.3413 160.37 92.04C161.116 90.7387 162.13 89.7253 163.41 89C164.711 88.2533 166.172 87.88 167.794 87.88C169.436 87.88 170.887 88.2427 172.146 88.968C173.404 89.6933 174.386 90.7173 175.09 92.04C175.815 93.3413 176.178 94.8667 176.178 96.616C176.178 96.744 176.167 96.8933 176.146 97.064C176.146 97.2347 176.135 97.3947 176.114 97.544H161.682V95.336H174.514L173.266 96.104C173.287 95.016 173.063 94.0453 172.594 93.192C172.124 92.3387 171.474 91.6773 170.642 91.208C169.831 90.7173 168.882 90.472 167.794 90.472C166.727 90.472 165.778 90.7173 164.946 91.208C164.114 91.6773 163.463 92.3493 162.994 93.224C162.524 94.0773 162.29 95.0587 162.29 96.168V96.68C162.29 97.8107 162.546 98.824 163.058 99.72C163.591 100.595 164.327 101.277 165.266 101.768C166.204 102.259 167.282 102.504 168.498 102.504C169.5 102.504 170.407 102.333 171.218 101.992C172.05 101.651 172.775 101.139 173.394 100.456L175.09 102.44C174.322 103.336 173.362 104.019 172.21 104.488C171.079 104.957 169.81 105.192 168.402 105.192ZM189.435 105.192C187.985 105.192 186.673 104.872 185.499 104.232C184.347 103.571 183.43 102.6 182.747 101.32C182.086 100.04 181.755 98.44 181.755 96.52C181.755 94.6 182.097 93 182.779 91.72C183.483 90.44 184.411 89.48 185.563 88.84C186.737 88.2 188.027 87.88 189.435 87.88C191.099 87.88 192.571 88.2427 193.851 88.968C195.131 89.6933 196.145 90.7067 196.891 92.008C197.638 93.288 198.011 94.792 198.011 96.52C198.011 98.248 197.638 99.7627 196.891 101.064C196.145 102.365 195.131 103.379 193.851 104.104C192.571 104.829 191.099 105.192 189.435 105.192ZM180.443 105V81.256H183.515V92.552L183.195 96.488L183.387 100.424V105H180.443ZM189.179 102.504C190.267 102.504 191.238 102.259 192.091 101.768C192.966 101.277 193.649 100.584 194.139 99.688C194.651 98.7707 194.907 97.7147 194.907 96.52C194.907 95.304 194.651 94.2587 194.139 93.384C193.649 92.488 192.966 91.7947 192.091 91.304C191.238 90.8133 190.267 90.568 189.179 90.568C188.113 90.568 187.142 90.8133 186.267 91.304C185.414 91.7947 184.731 92.488 184.219 93.384C183.729 94.2587 183.483 95.304 183.483 96.52C183.483 97.7147 183.729 98.7707 184.219 99.688C184.731 100.584 185.414 101.277 186.267 101.768C187.142 102.259 188.113 102.504 189.179 102.504ZM209.392 105.192C207.941 105.192 206.661 104.925 205.552 104.392C204.464 103.859 203.61 103.048 202.992 101.96C202.394 100.851 202.096 99.464 202.096 97.8V88.04H205.168V97.448C205.168 99.112 205.562 100.36 206.352 101.192C207.162 102.024 208.293 102.44 209.744 102.44C210.81 102.44 211.738 102.227 212.528 101.8C213.317 101.352 213.925 100.712 214.352 99.88C214.778 99.0267 214.992 98.0027 214.992 96.808V88.04H218.064V105H215.152V100.424L215.632 101.64C215.077 102.771 214.245 103.645 213.136 104.264C212.026 104.883 210.778 105.192 209.392 105.192ZM242.97 105.256C241.263 105.256 239.684 104.979 238.234 104.424C236.804 103.848 235.556 103.048 234.49 102.024C233.444 100.979 232.623 99.7627 232.026 98.376C231.428 96.9893 231.13 95.464 231.13 93.8C231.13 92.136 231.428 90.6107 232.026 89.224C232.623 87.8373 233.455 86.632 234.522 85.608C235.588 84.5627 236.836 83.7627 238.266 83.208C239.716 82.632 241.295 82.344 243.002 82.344C244.73 82.344 246.319 82.6427 247.77 83.24C249.242 83.816 250.49 84.68 251.514 85.832L249.434 87.848C248.58 86.952 247.62 86.2907 246.554 85.864C245.487 85.416 244.346 85.192 243.13 85.192C241.871 85.192 240.698 85.4053 239.61 85.832C238.543 86.2587 237.615 86.856 236.826 87.624C236.036 88.392 235.418 89.3093 234.97 90.376C234.543 91.4213 234.33 92.5627 234.33 93.8C234.33 95.0373 234.543 96.1893 234.97 97.256C235.418 98.3013 236.036 99.208 236.826 99.976C237.615 100.744 238.543 101.341 239.61 101.768C240.698 102.195 241.871 102.408 243.13 102.408C244.346 102.408 245.487 102.195 246.554 101.768C247.62 101.32 248.58 100.637 249.434 99.72L251.514 101.736C250.49 102.888 249.242 103.763 247.77 104.36C246.319 104.957 244.719 105.256 242.97 105.256ZM255.631 105V88.04H258.703V105H255.631ZM257.167 84.776C256.569 84.776 256.068 84.584 255.663 84.2C255.279 83.816 255.087 83.3467 255.087 82.792C255.087 82.216 255.279 81.736 255.663 81.352C256.068 80.968 256.569 80.776 257.167 80.776C257.764 80.776 258.255 80.968 258.639 81.352C259.044 81.7147 259.247 82.1733 259.247 82.728C259.247 83.304 259.055 83.7947 258.671 84.2C258.287 84.584 257.785 84.776 257.167 84.776ZM270.392 105.192C268.686 105.192 267.363 104.733 266.424 103.816C265.486 102.899 265.016 101.587 265.016 99.88V84.328H268.088V99.752C268.088 100.669 268.312 101.373 268.76 101.864C269.23 102.355 269.891 102.6 270.744 102.6C271.704 102.6 272.504 102.333 273.144 101.8L274.104 104.008C273.635 104.413 273.07 104.712 272.408 104.904C271.768 105.096 271.096 105.192 270.392 105.192ZM262.136 90.568V88.04H272.952V90.568H262.136ZM278.242 111.4C277.431 111.4 276.642 111.261 275.874 110.984C275.106 110.728 274.444 110.344 273.89 109.832L275.202 107.528C275.628 107.933 276.098 108.243 276.61 108.456C277.122 108.669 277.666 108.776 278.242 108.776C278.988 108.776 279.607 108.584 280.098 108.2C280.588 107.816 281.047 107.133 281.474 106.152L282.53 103.816L282.85 103.432L289.506 88.04H292.514L284.29 106.696C283.799 107.891 283.244 108.829 282.626 109.512C282.028 110.195 281.367 110.675 280.642 110.952C279.916 111.251 279.116 111.4 278.242 111.4ZM282.274 105.544L274.53 88.04H277.73L284.322 103.144L282.274 105.544Z" fill="#0E4855"/>
<path d="M65.872 684V681.552L79.84 667.872C81.12 666.624 82.08 665.536 82.72 664.608C83.36 663.648 83.792 662.752 84.016 661.92C84.24 661.088 84.352 660.304 84.352 659.568C84.352 657.616 83.68 656.08 82.336 654.96C81.024 653.84 79.072 653.28 76.48 653.28C74.496 653.28 72.736 653.584 71.2 654.192C69.696 654.8 68.4 655.744 67.312 657.024L64.864 654.912C66.176 653.376 67.856 652.192 69.904 651.36C71.952 650.528 74.24 650.112 76.768 650.112C79.04 650.112 81.008 650.48 82.672 651.216C84.336 651.92 85.616 652.96 86.512 654.336C87.44 655.712 87.904 657.328 87.904 659.184C87.904 660.272 87.744 661.344 87.424 662.4C87.136 663.456 86.592 664.576 85.792 665.76C85.024 666.912 83.888 668.224 82.384 669.696L69.568 682.272L68.608 680.928H89.44V684H65.872ZM99.5875 684L114.084 651.936L115.14 653.472H94.3555L96.1315 651.792V659.76H92.7235V650.4H117.396V652.848L103.332 684H99.5875ZM122.01 684.24C121.306 684.24 120.698 683.984 120.186 683.472C119.706 682.96 119.466 682.336 119.466 681.6C119.466 680.832 119.706 680.208 120.186 679.728C120.698 679.248 121.306 679.008 122.01 679.008C122.714 679.008 123.306 679.248 123.786 679.728C124.298 680.208 124.554 680.832 124.554 681.6C124.554 682.336 124.298 682.96 123.786 683.472C123.306 683.984 122.714 684.24 122.01 684.24ZM142.827 684.288C140.139 684.288 137.819 683.904 135.867 683.136C133.947 682.368 132.459 681.264 131.403 679.824C130.379 678.352 129.867 676.624 129.867 674.64C129.867 672.72 130.363 671.088 131.355 669.744C132.379 668.368 133.851 667.312 135.771 666.576C137.723 665.84 140.075 665.472 142.827 665.472C145.547 665.472 147.883 665.84 149.835 666.576C151.787 667.312 153.275 668.368 154.299 669.744C155.355 671.088 155.883 672.72 155.883 674.64C155.883 676.624 155.355 678.352 154.299 679.824C153.243 681.264 151.739 682.368 149.787 683.136C147.835 683.904 145.515 684.288 142.827 684.288ZM142.827 681.36C145.803 681.36 148.123 680.752 149.787 679.536C151.483 678.32 152.331 676.672 152.331 674.592C152.331 672.512 151.483 670.88 149.787 669.696C148.123 668.48 145.803 667.872 142.827 667.872C139.851 667.872 137.531 668.48 135.867 669.696C134.203 670.88 133.371 672.512 133.371 674.592C133.371 676.672 134.203 678.32 135.867 679.536C137.531 680.752 139.851 681.36 142.827 681.36ZM142.827 667.44C140.331 667.44 138.203 667.104 136.443 666.432C134.715 665.76 133.387 664.8 132.459 663.552C131.531 662.272 131.067 660.752 131.067 658.992C131.067 657.136 131.547 655.552 132.507 654.24C133.499 652.896 134.875 651.872 136.635 651.168C138.395 650.464 140.459 650.112 142.827 650.112C145.195 650.112 147.259 650.464 149.019 651.168C150.811 651.872 152.203 652.896 153.195 654.24C154.187 655.552 154.682 657.136 154.682 658.992C154.682 660.752 154.219 662.272 153.291 663.552C152.363 664.8 151.003 665.76 149.211 666.432C147.451 667.104 145.323 667.44 142.827 667.44ZM142.827 665.136C145.451 665.136 147.499 664.592 148.971 663.504C150.443 662.416 151.179 660.96 151.179 659.136C151.179 657.216 150.411 655.728 148.875 654.672C147.371 653.584 145.355 653.04 142.827 653.04C140.299 653.04 138.283 653.584 136.779 654.672C135.275 655.728 134.523 657.2 134.523 659.088C134.523 660.944 135.243 662.416 136.683 663.504C138.155 664.592 140.203 665.136 142.827 665.136Z" fill="#0E4855"/>
<path d="M302.585 651V650.235L306.95 645.96C307.35 645.57 307.65 645.23 307.85 644.94C308.05 644.64 308.185 644.36 308.255 644.1C308.325 643.84 308.36 643.595 308.36 643.365C308.36 642.755 308.15 642.275 307.73 641.925C307.32 641.575 306.71 641.4 305.9 641.4C305.28 641.4 304.73 641.495 304.25 641.685C303.78 641.875 303.375 642.17 303.035 642.57L302.27 641.91C302.68 641.43 303.205 641.06 303.845 640.8C304.485 640.54 305.2 640.41 305.99 640.41C306.7 640.41 307.315 640.525 307.835 640.755C308.355 640.975 308.755 641.3 309.035 641.73C309.325 642.16 309.47 642.665 309.47 643.245C309.47 643.585 309.42 643.92 309.32 644.25C309.23 644.58 309.06 644.93 308.81 645.3C308.57 645.66 308.215 646.07 307.745 646.53L303.74 650.46L303.44 650.04H309.95V651H302.585ZM315.581 651.09C314.651 651.09 313.866 650.885 313.226 650.475C312.586 650.055 312.101 649.455 311.771 648.675C311.441 647.885 311.276 646.94 311.276 645.84C311.276 644.65 311.476 643.655 311.876 642.855C312.286 642.045 312.851 641.435 313.571 641.025C314.291 640.615 315.126 640.41 316.076 640.41C316.546 640.41 316.996 640.455 317.426 640.545C317.856 640.635 318.236 640.78 318.566 640.98L318.131 641.85C317.861 641.67 317.551 641.545 317.201 641.475C316.851 641.395 316.481 641.355 316.091 641.355C314.961 641.355 314.056 641.715 313.376 642.435C312.706 643.155 312.371 644.23 312.371 645.66C312.371 645.88 312.381 646.155 312.401 646.485C312.431 646.805 312.491 647.125 312.581 647.445L312.206 647.16C312.316 646.64 312.531 646.2 312.851 645.84C313.171 645.47 313.571 645.19 314.051 645C314.531 644.81 315.056 644.715 315.626 644.715C316.326 644.715 316.941 644.845 317.471 645.105C318.001 645.365 318.416 645.73 318.716 646.2C319.016 646.67 319.166 647.225 319.166 647.865C319.166 648.515 319.011 649.085 318.701 649.575C318.391 650.055 317.961 650.43 317.411 650.7C316.871 650.96 316.261 651.09 315.581 651.09ZM315.536 650.175C316.036 650.175 316.476 650.085 316.856 649.905C317.246 649.715 317.551 649.45 317.771 649.11C317.991 648.76 318.101 648.355 318.101 647.895C318.101 647.205 317.861 646.655 317.381 646.245C316.911 645.835 316.271 645.63 315.461 645.63C314.921 645.63 314.451 645.73 314.051 645.93C313.651 646.13 313.336 646.405 313.106 646.755C312.876 647.095 312.761 647.485 312.761 647.925C312.761 648.305 312.866 648.67 313.076 649.02C313.286 649.36 313.596 649.64 314.006 649.86C314.426 650.07 314.936 650.175 315.536 650.175Z" fill="#0E4855"/>
<path d="M338.6 648.24V647.46L344.165 640.5H345.365L339.845 647.46L339.26 647.28H347.705V648.24H338.6ZM344.525 651V648.24L344.555 647.28V644.85H345.605V651H344.525ZM351.983 651.09C351.233 651.09 350.518 650.97 349.838 650.73C349.158 650.48 348.618 650.15 348.218 649.74L348.743 648.885C349.073 649.235 349.523 649.525 350.093 649.755C350.673 649.985 351.298 650.1 351.968 650.1C352.858 650.1 353.533 649.905 353.993 649.515C354.463 649.115 354.698 648.595 354.698 647.955C354.698 647.505 354.588 647.12 354.368 646.8C354.158 646.47 353.798 646.215 353.288 646.035C352.778 645.855 352.078 645.765 351.188 645.765H348.953L349.493 640.5H355.238V641.46H349.928L350.483 640.935L350.018 645.345L349.463 644.805H351.428C352.488 644.805 353.338 644.935 353.978 645.195C354.618 645.455 355.078 645.82 355.358 646.29C355.648 646.75 355.793 647.29 355.793 647.91C355.793 648.5 355.653 649.04 355.373 649.53C355.093 650.01 354.673 650.39 354.113 650.67C353.553 650.95 352.843 651.09 351.983 651.09Z" fill="#0E4B58"/>
<path d="M351.864 800.25C351.864 801.245 351.476 802.198 350.785 802.902C350.095 803.605 349.158 804 348.182 804C347.205 804 346.269 803.605 345.578 802.902C344.888 802.198 344.5 801.245 344.5 800.25V791.5M358 791.5C357.679 788.079 356.119 784.903 353.622 782.592C351.126 780.281 347.874 779 344.5 779C341.126 779 337.874 780.281 335.378 782.592C332.881 784.903 331.321 788.079 331 791.5H358Z" stroke="#0D4856" stroke-width="2" stroke-linecap="round" stroke-linejoin="round"/>
<path d="M90.8802 783.662C91.2293 783.3 91.6588 783.032 92.1308 782.884C92.6028 782.735 93.1027 782.71 93.5862 782.81C94.0698 782.911 94.5221 783.134 94.9032 783.46C95.2843 783.785 95.5825 784.204 95.7713 784.678C95.9601 785.153 96.0338 785.668 95.9857 786.179C95.9377 786.69 95.7695 787.181 95.496 787.608C95.2225 788.036 94.8521 788.386 94.4176 788.629C93.983 788.872 93.4978 788.999 93.0047 789H72M81.11 779.737C81.3889 779.445 81.7327 779.23 82.1109 779.109C82.4891 778.989 82.8901 778.968 83.2781 779.047C83.666 779.127 84.0291 779.306 84.3349 779.567C84.6407 779.828 84.8797 780.164 85.0309 780.545C85.182 780.925 85.2405 781.339 85.2011 781.749C85.1618 782.159 85.0258 782.552 84.8052 782.894C84.5847 783.236 84.2865 783.516 83.9371 783.709C83.5877 783.902 83.1979 784.002 82.8024 784H72L81.11 779.737ZM84.7108 798.263C84.9897 798.555 85.3335 798.77 85.7117 798.891C86.0899 799.011 86.4909 799.032 86.8789 798.953C87.2668 798.873 87.6299 798.694 87.9357 798.433C88.2415 798.172 88.4805 797.836 88.6317 797.455C88.7828 797.075 88.8413 796.661 88.8019 796.251C88.7626 795.841 88.6266 795.448 88.4061 795.106C88.1855 794.764 87.8873 794.484 87.5379 794.291C87.1885 794.098 86.7987 793.998 86.4032 794H72L84.7108 798.263Z" stroke="#0D4856" stroke-width="2" stroke-linecap="round" stroke-linejoin="round"/>
<path d="M211.994 779L219.069 786.032C220.468 787.421 221.421 789.192 221.807 791.12C222.194 793.048 221.996 795.047 221.239 796.863C220.483 798.68 219.201 800.232 217.556 801.325C215.912 802.417 213.978 803 212 803C210.022 803 208.088 802.417 206.444 801.325C204.799 800.232 203.517 798.68 202.761 796.863C202.004 795.047 201.806 793.048 202.193 791.12C202.579 789.192 203.532 787.421 204.931 786.032L211.994 779Z" stroke="#0D4856" stroke-width="2" stroke-linecap="round" stroke-linejoin="round"/>
<path d="M221.498 771L223.974 773.344C224.464 773.807 224.797 774.397 224.933 775.04C225.068 775.683 224.999 776.349 224.734 776.954C224.469 777.56 224.02 778.077 223.445 778.442C222.869 778.806 222.192 779 221.5 779C220.808 779 220.131 778.806 219.555 778.442C218.98 778.077 218.531 777.56 218.266 776.954C218.001 776.349 217.932 775.683 218.067 775.04C218.203 774.397 218.536 773.807 219.026 773.344L221.498 771Z" stroke="#0D4856" stroke-linecap="round" stroke-linejoin="round"/>
<path d="M201.997 764L205.534 767.516C206.234 768.211 206.71 769.096 206.904 770.06C207.097 771.024 206.998 772.023 206.62 772.932C206.241 773.84 205.601 774.616 204.778 775.162C203.956 775.708 202.989 776 202 776C201.011 776 200.044 775.708 199.222 775.162C198.399 774.616 197.759 773.84 197.38 772.932C197.002 772.023 196.903 771.024 197.096 770.06C197.29 769.096 197.766 768.211 198.466 767.516L201.997 764Z" stroke="#0D4856" stroke-width="2" stroke-linecap="round" stroke-linejoin="round"/>
<circle cx="216" cy="796" r="2" fill="#0D4856"/>
<path d="M52.8231 850V839.28L53.3351 839.824H50.1831V838.8H53.9751V850H52.8231ZM61.1163 850.096C60.2523 850.096 59.4843 849.872 58.8123 849.424C58.1403 848.965 57.6123 848.315 57.2283 847.472C56.8443 846.619 56.6523 845.595 56.6523 844.4C56.6523 843.205 56.8443 842.187 57.2283 841.344C57.6123 840.491 58.1403 839.84 58.8123 839.392C59.4843 838.933 60.2523 838.704 61.1163 838.704C61.9803 838.704 62.7483 838.933 63.4203 839.392C64.0923 839.84 64.6203 840.491 65.0043 841.344C65.399 842.187 65.5963 843.205 65.5963 844.4C65.5963 845.595 65.399 846.619 65.0043 847.472C64.6203 848.315 64.0923 848.965 63.4203 849.424C62.7483 849.872 61.9803 850.096 61.1163 850.096ZM61.1163 849.04C61.7776 849.04 62.3536 848.864 62.8443 848.512C63.335 848.149 63.719 847.627 63.9963 846.944C64.2736 846.251 64.4123 845.403 64.4123 844.4C64.4123 843.397 64.2736 842.555 63.9963 841.872C63.719 841.179 63.335 840.656 62.8443 840.304C62.3536 839.941 61.7776 839.76 61.1163 839.76C60.4763 839.76 59.9056 839.941 59.4043 840.304C58.903 840.656 58.5136 841.179 58.2363 841.872C57.959 842.555 57.8203 843.397 57.8203 844.4C57.8203 845.403 57.959 846.251 58.2363 846.944C58.5136 847.627 58.903 848.149 59.4043 848.512C59.9056 848.864 60.4763 849.04 61.1163 849.04ZM71.8381 850.096C70.8461 850.096 70.0087 849.877 69.3261 849.44C68.6434 848.992 68.1261 848.352 67.7741 847.52C67.4221 846.677 67.2461 845.669 67.2461 844.496C67.2461 843.227 67.4594 842.165 67.8861 841.312C68.3234 840.448 68.9261 839.797 69.6941 839.36C70.4621 838.923 71.3527 838.704 72.3661 838.704C72.8674 838.704 73.3474 838.752 73.8061 838.848C74.2647 838.944 74.6701 839.099 75.0221 839.312L74.5581 840.24C74.2701 840.048 73.9394 839.915 73.5661 839.84C73.1927 839.755 72.7981 839.712 72.3821 839.712C71.1767 839.712 70.2114 840.096 69.4861 840.864C68.7714 841.632 68.4141 842.779 68.4141 844.304C68.4141 844.539 68.4247 844.832 68.4461 845.184C68.4781 845.525 68.5421 845.867 68.6381 846.208L68.2381 845.904C68.3554 845.349 68.5847 844.88 68.9261 844.496C69.2674 844.101 69.6941 843.803 70.2061 843.6C70.7181 843.397 71.2781 843.296 71.8861 843.296C72.6327 843.296 73.2887 843.435 73.8541 843.712C74.4194 843.989 74.8621 844.379 75.1821 844.88C75.5021 845.381 75.6621 845.973 75.6621 846.656C75.6621 847.349 75.4967 847.957 75.1661 848.48C74.8354 848.992 74.3767 849.392 73.7901 849.68C73.2141 849.957 72.5634 850.096 71.8381 850.096ZM71.7901 849.12C72.3234 849.12 72.7927 849.024 73.1981 848.832C73.6141 848.629 73.9394 848.347 74.1741 847.984C74.4087 847.611 74.5261 847.179 74.5261 846.688C74.5261 845.952 74.2701 845.365 73.7581 844.928C73.2567 844.491 72.5741 844.272 71.7101 844.272C71.1341 844.272 70.6327 844.379 70.2061 844.592C69.7794 844.805 69.4434 845.099 69.1981 845.472C68.9527 845.835 68.8301 846.251 68.8301 846.72C68.8301 847.125 68.9421 847.515 69.1661 847.888C69.3901 848.251 69.7207 848.549 70.1581 848.784C70.6061 849.008 71.1501 849.12 71.7901 849.12ZM78.6441 847.824L78.6761 846.368L83.9081 841.6H85.3001L81.6041 845.136L80.9641 845.68L78.6441 847.824ZM77.7481 850V838.128H78.8841V850H77.7481ZM84.2601 850L80.7561 845.632L81.4921 844.752L85.6521 850H84.2601ZM97.7284 841.52C98.4111 841.52 99.0031 841.653 99.5044 841.92C100.016 842.176 100.411 842.571 100.688 843.104C100.976 843.637 101.12 844.309 101.12 845.12V850H99.9844V845.232C99.9844 844.347 99.7711 843.68 99.3444 843.232C98.9284 842.773 98.3364 842.544 97.5684 842.544C96.9924 842.544 96.4911 842.667 96.0644 842.912C95.6484 843.147 95.3231 843.493 95.0884 843.952C94.8644 844.4 94.7524 844.944 94.7524 845.584V850H93.6164V845.232C93.6164 844.347 93.4031 843.68 92.9764 843.232C92.5498 842.773 91.9524 842.544 91.1844 842.544C90.6191 842.544 90.1231 842.667 89.6964 842.912C89.2698 843.147 88.9391 843.493 88.7044 843.952C88.4804 844.4 88.3684 844.944 88.3684 845.584V850H87.2324V841.6H88.3204V843.872L88.1444 843.472C88.4004 842.864 88.8111 842.389 89.3764 842.048C89.9524 841.696 90.6298 841.52 91.4084 841.52C92.2298 841.52 92.9284 841.728 93.5044 842.144C94.0804 842.549 94.4538 843.163 94.6244 843.984L94.1764 843.808C94.4218 843.125 94.8538 842.576 95.4724 842.16C96.1018 841.733 96.8538 841.52 97.7284 841.52ZM109.797 839.336L102.82 852.664H101.711L108.656 839.336H109.797ZM117.891 850H116.109V844.836C116.109 844.279 115.99 843.888 115.75 843.664C115.516 843.435 115.24 843.32 114.922 843.32C114.417 843.32 113.992 843.521 113.648 843.922C113.305 844.323 113.133 844.984 113.133 845.906V850H111.352V839.336H113.133V843.492C113.576 842.357 114.352 841.789 115.461 841.789C117.081 841.789 117.891 842.719 117.891 844.578V850Z" fill="#0E4855"/>
<path d="M196.319 850V849.184L200.975 844.624C201.402 844.208 201.722 843.845 201.935 843.536C202.149 843.216 202.293 842.917 202.367 842.64C202.442 842.363 202.479 842.101 202.479 841.856C202.479 841.205 202.255 840.693 201.807 840.32C201.37 839.947 200.719 839.76 199.855 839.76C199.194 839.76 198.607 839.861 198.095 840.064C197.594 840.267 197.162 840.581 196.799 841.008L195.983 840.304C196.421 839.792 196.981 839.397 197.663 839.12C198.346 838.843 199.109 838.704 199.951 838.704C200.709 838.704 201.365 838.827 201.919 839.072C202.474 839.307 202.901 839.653 203.199 840.112C203.509 840.571 203.663 841.109 203.663 841.728C203.663 842.091 203.61 842.448 203.503 842.8C203.407 843.152 203.226 843.525 202.959 843.92C202.703 844.304 202.325 844.741 201.823 845.232L197.551 849.424L197.231 848.976H204.175V850H196.319ZM205.413 850V849.184L210.069 844.624C210.496 844.208 210.816 843.845 211.029 843.536C211.242 843.216 211.386 842.917 211.461 842.64C211.536 842.363 211.573 842.101 211.573 841.856C211.573 841.205 211.349 840.693 210.901 840.32C210.464 839.947 209.813 839.76 208.949 839.76C208.288 839.76 207.701 839.861 207.189 840.064C206.688 840.267 206.256 840.581 205.893 841.008L205.077 840.304C205.514 839.792 206.074 839.397 206.757 839.12C207.44 838.843 208.202 838.704 209.045 838.704C209.802 838.704 210.458 838.827 211.013 839.072C211.568 839.307 211.994 839.653 212.293 840.112C212.602 840.571 212.757 841.109 212.757 841.728C212.757 842.091 212.704 842.448 212.597 842.8C212.501 843.152 212.32 843.525 212.053 843.92C211.797 844.304 211.418 844.741 210.917 845.232L206.645 849.424L206.325 848.976H213.269V850H205.413ZM216.375 850L224.023 838.8H224.967L217.319 850H216.375ZM217.239 844.8C216.738 844.8 216.295 844.677 215.911 844.432C215.527 844.176 215.228 843.819 215.015 843.36C214.812 842.901 214.711 842.368 214.711 841.76C214.711 841.152 214.812 840.619 215.015 840.16C215.228 839.701 215.527 839.349 215.911 839.104C216.295 838.848 216.738 838.72 217.239 838.72C217.74 838.72 218.178 838.848 218.551 839.104C218.935 839.349 219.234 839.701 219.447 840.16C219.66 840.619 219.767 841.152 219.767 841.76C219.767 842.368 219.66 842.901 219.447 843.36C219.234 843.819 218.935 844.176 218.551 844.432C218.178 844.677 217.74 844.8 217.239 844.8ZM217.239 844.08C217.762 844.08 218.178 843.877 218.487 843.472C218.807 843.056 218.967 842.485 218.967 841.76C218.967 841.035 218.807 840.469 218.487 840.064C218.178 839.648 217.762 839.44 217.239 839.44C216.706 839.44 216.284 839.648 215.975 840.064C215.666 840.469 215.511 841.035 215.511 841.76C215.511 842.485 215.666 843.056 215.975 843.472C216.284 843.877 216.706 844.08 217.239 844.08ZM224.103 850.08C223.612 850.08 223.175 849.957 222.791 849.712C222.407 849.456 222.108 849.099 221.895 848.64C221.682 848.181 221.575 847.648 221.575 847.04C221.575 846.432 221.682 845.899 221.895 845.44C222.108 844.981 222.407 844.629 222.791 844.384C223.175 844.128 223.612 844 224.103 844C224.615 844 225.058 844.128 225.431 844.384C225.815 844.629 226.108 844.981 226.311 845.44C226.524 845.899 226.631 846.432 226.631 847.04C226.631 847.648 226.524 848.181 226.311 848.64C226.108 849.099 225.815 849.456 225.431 849.712C225.058 849.957 224.615 850.08 224.103 850.08ZM224.103 849.36C224.626 849.36 225.042 849.157 225.351 848.752C225.671 848.336 225.831 847.765 225.831 847.04C225.831 846.315 225.671 845.749 225.351 845.344C225.042 844.928 224.626 844.72 224.103 844.72C223.58 844.72 223.159 844.928 222.839 845.344C222.53 845.749 222.375 846.315 222.375 847.04C222.375 847.765 222.53 848.336 222.839 848.752C223.159 849.157 223.58 849.36 224.103 849.36Z" fill="#0E4855"/>
<path d="M329.37 850V839.28L329.882 839.824H326.73V838.8H330.522V850H329.37ZM335.151 850V839.28L335.663 839.824H332.511V838.8H336.303V850H335.151ZM340.484 850L348.132 838.8H349.076L341.428 850H340.484ZM341.348 844.8C340.847 844.8 340.404 844.677 340.02 844.432C339.636 844.176 339.338 843.819 339.124 843.36C338.922 842.901 338.82 842.368 338.82 841.76C338.82 841.152 338.922 840.619 339.124 840.16C339.338 839.701 339.636 839.349 340.02 839.104C340.404 838.848 340.847 838.72 341.348 838.72C341.85 838.72 342.287 838.848 342.66 839.104C343.044 839.349 343.343 839.701 343.556 840.16C343.77 840.619 343.876 841.152 343.876 841.76C343.876 842.368 343.77 842.901 343.556 843.36C343.343 843.819 343.044 844.176 342.66 844.432C342.287 844.677 341.85 844.8 341.348 844.8ZM341.348 844.08C341.871 844.08 342.287 843.877 342.596 843.472C342.916 843.056 343.076 842.485 343.076 841.76C343.076 841.035 342.916 840.469 342.596 840.064C342.287 839.648 341.871 839.44 341.348 839.44C340.815 839.44 340.394 839.648 340.084 840.064C339.775 840.469 339.62 841.035 339.62 841.76C339.62 842.485 339.775 843.056 340.084 843.472C340.394 843.877 340.815 844.08 341.348 844.08ZM348.212 850.08C347.722 850.08 347.284 849.957 346.9 849.712C346.516 849.456 346.218 849.099 346.004 848.64C345.791 848.181 345.684 847.648 345.684 847.04C345.684 846.432 345.791 845.899 346.004 845.44C346.218 844.981 346.516 844.629 346.9 844.384C347.284 844.128 347.722 844 348.212 844C348.724 844 349.167 844.128 349.54 844.384C349.924 844.629 350.218 844.981 350.42 845.44C350.634 845.899 350.74 846.432 350.74 847.04C350.74 847.648 350.634 848.181 350.42 848.64C350.218 849.099 349.924 849.456 349.54 849.712C349.167 849.957 348.724 850.08 348.212 850.08ZM348.212 849.36C348.735 849.36 349.151 849.157 349.46 848.752C349.78 848.336 349.94 847.765 349.94 847.04C349.94 846.315 349.78 845.749 349.46 845.344C349.151 844.928 348.735 844.72 348.212 844.72C347.69 844.72 347.268 844.928 346.948 845.344C346.639 845.749 346.484 846.315 346.484 847.04C346.484 847.765 346.639 848.336 346.948 848.752C347.268 849.157 347.69 849.36 348.212 849.36Z" fill="#0E4855"/>
<g filter="url(#filter1_d_10_2462)">
<circle cx="207" cy="356" r="68" fill="#FFB800"/>
</g>
<g filter="url(#filter2_d_10_2462)">
<ellipse cx="320" cy="291.5" rx="43" ry="44.5" fill="url(#paint0_linear_10_2462)"/>
</g>
<g filter="url(#filter3_d_10_2462)">
<rect x="204" y="302" width="181" height="70" rx="35" fill="url(#paint1_linear_10_2462)" shape-rendering="crispEdges"/>
</g>
<g filter="url(#filter4_d_10_2462)">
<ellipse cx="261.5" cy="291" rx="25.5" ry="26" fill="url(#paint2_linear_10_2462)"/>
</g>
<g filter="url(#filter5_d_10_2462)">
<ellipse rx="38.5" ry="40" transform="matrix(-1 0 0 1 106.5 342)" fill="url(#paint3_linear_10_2462)"/>
</g>
<g filter="url(#filter6_d_10_2462)">
<rect width="164" height="60" rx="30" transform="matrix(-1 0 0 1 212 351)" fill="url(#paint4_linear_10_2462)"/>
</g>
<g filter="url(#filter7_d_10_2462)">
<ellipse rx="22.5" ry="21.5" transform="matrix(-1 0 0 1 159.5 341.5)" fill="url(#paint5_linear_10_2462)"/>
</g>
<mask id="mask0_10_2462" style="mask-type:alpha" maskUnits="userSpaceOnUse" x="40" y="38" width="16" height="16">
<path d="M55.84 44.92V46.92H43.84L49.34 52.42L47.92 53.84L40 45.92L47.92 38L49.34 39.42L43.84 44.92H55.84Z" fill="#5F5F5F"/>
</mask>
<g mask="url(#mask0_10_2462)">
<rect x="28" y="26" width="40" height="40" fill="#5F5F5F"/>
</g>
<defs>
<filter id="filter0_d_10_2462" x="40" y="220" width="357" height="348" filterUnits="userSpaceOnUse" color-interpolation-filters="sRGB">
<feFlood flood-opacity="0" result="BackgroundImageFix"/>
<feColorMatrix in="SourceAlpha" type="matrix" values="0 0 0 0 0 0 0 0 0 0 0 0 0 0 0 0 0 0 127 0" result="hardAlpha"/>
<feOffset dx="4" dy="11"/>
<feGaussianBlur stdDeviation="8.5"/>
<feComposite in2="hardAlpha" operator="out"/>
<feColorMatrix type="matrix" values="0 0 0 0 0 0 0 0 0 0 0 0 0 0 0 0 0 0 0.25 0"/>
<feBlend mode="normal" in2="BackgroundImageFix" result="effect1_dropShadow_10_2462"/>
<feBlend mode="normal" in="SourceGraphic" in2="effect1_dropShadow_10_2462" result="shape"/>
</filter>
<filter id="filter1_d_10_2462" x="126" y="282" width="170" height="170" filterUnits="userSpaceOnUse" color-interpolation-filters="sRGB">
<feFlood flood-opacity="0" result="BackgroundImageFix"/>
<feColorMatrix in="SourceAlpha" type="matrix" values="0 0 0 0 0 0 0 0 0 0 0 0 0 0 0 0 0 0 127 0" result="hardAlpha"/>
<feOffset dx="4" dy="11"/>
<feGaussianBlur stdDeviation="8.5"/>
<feComposite in2="hardAlpha" operator="out"/>
<feColorMatrix type="matrix" values="0 0 0 0 0 0 0 0 0 0 0 0 0 0 0 0 0 0 0.25 0"/>
<feBlend mode="normal" in2="BackgroundImageFix" result="effect1_dropShadow_10_2462"/>
<feBlend mode="normal" in="SourceGraphic" in2="effect1_dropShadow_10_2462" result="shape"/>
</filter>
<filter id="filter2_d_10_2462" x="257" y="231" width="126" height="129" filterUnits="userSpaceOnUse" color-interpolation-filters="sRGB">
<feFlood flood-opacity="0" result="BackgroundImageFix"/>
<feColorMatrix in="SourceAlpha" type="matrix" values="0 0 0 0 0 0 0 0 0 0 0 0 0 0 0 0 0 0 127 0" result="hardAlpha"/>
<feOffset dy="4"/>
<feGaussianBlur stdDeviation="10"/>
<feComposite in2="hardAlpha" operator="out"/>
<feColorMatrix type="matrix" values="0 0 0 0 0 0 0 0 0 0 0 0 0 0 0 0 0 0 0.25 0"/>
<feBlend mode="normal" in2="BackgroundImageFix" result="effect1_dropShadow_10_2462"/>
<feBlend mode="normal" in="SourceGraphic" in2="effect1_dropShadow_10_2462" result="shape"/>
</filter>
<filter id="filter3_d_10_2462" x="196" y="298" width="197" height="86" filterUnits="userSpaceOnUse" color-interpolation-filters="sRGB">
<feFlood flood-opacity="0" result="BackgroundImageFix"/>
<feColorMatrix in="SourceAlpha" type="matrix" values="0 0 0 0 0 0 0 0 0 0 0 0 0 0 0 0 0 0 127 0" result="hardAlpha"/>
<feOffset dy="4"/>
<feGaussianBlur stdDeviation="4"/>
<feComposite in2="hardAlpha" operator="out"/>
<feColorMatrix type="matrix" values="0 0 0 0 0 0 0 0 0 0 0 0 0 0 0 0 0 0 0.25 0"/>
<feBlend mode="normal" in2="BackgroundImageFix" result="effect1_dropShadow_10_2462"/>
<feBlend mode="normal" in="SourceGraphic" in2="effect1_dropShadow_10_2462" result="shape"/>
</filter>
<filter id="filter4_d_10_2462" x="218" y="251" width="87" height="88" filterUnits="userSpaceOnUse" color-interpolation-filters="sRGB">
<feFlood flood-opacity="0" result="BackgroundImageFix"/>
<feColorMatrix in="SourceAlpha" type="matrix" values="0 0 0 0 0 0 0 0 0 0 0 0 0 0 0 0 0 0 127 0" result="hardAlpha"/>
<feOffset dy="4"/>
<feGaussianBlur stdDeviation="9"/>
<feComposite in2="hardAlpha" operator="out"/>
<feColorMatrix type="matrix" values="0 0 0 0 0 0 0 0 0 0 0 0 0 0 0 0 0 0 0.25 0"/>
<feBlend mode="normal" in2="BackgroundImageFix" result="effect1_dropShadow_10_2462"/>
<feBlend mode="normal" in="SourceGraphic" in2="effect1_dropShadow_10_2462" result="shape"/>
</filter>
<filter id="filter5_d_10_2462" x="48" y="286" width="117" height="120" filterUnits="userSpaceOnUse" color-interpolation-filters="sRGB">
<feFlood flood-opacity="0" result="BackgroundImageFix"/>
<feColorMatrix in="SourceAlpha" type="matrix" values="0 0 0 0 0 0 0 0 0 0 0 0 0 0 0 0 0 0 127 0" result="hardAlpha"/>
<feOffset dy="4"/>
<feGaussianBlur stdDeviation="10"/>
<feComposite in2="hardAlpha" operator="out"/>
<feColorMatrix type="matrix" values="0 0 0 0 0 0 0 0 0 0 0 0 0 0 0 0 0 0 0.25 0"/>
<feBlend mode="normal" in2="BackgroundImageFix" result="effect1_dropShadow_10_2462"/>
<feBlend mode="normal" in="SourceGraphic" in2="effect1_dropShadow_10_2462" result="shape"/>
</filter>
<filter id="filter6_d_10_2462" x="40" y="347" width="180" height="76" filterUnits="userSpaceOnUse" color-interpolation-filters="sRGB">
<feFlood flood-opacity="0" result="BackgroundImageFix"/>
<feColorMatrix in="SourceAlpha" type="matrix" values="0 0 0 0 0 0 0 0 0 0 0 0 0 0 0 0 0 0 127 0" result="hardAlpha"/>
<feOffset dy="4"/>
<feGaussianBlur stdDeviation="4"/>
<feComposite in2="hardAlpha" operator="out"/>
<feColorMatrix type="matrix" values="0 0 0 0 0 0 0 0 0 0 0 0 0 0 0 0 0 0 0.25 0"/>
<feBlend mode="normal" in2="BackgroundImageFix" result="effect1_dropShadow_10_2462"/>
<feBlend mode="normal" in="SourceGraphic" in2="effect1_dropShadow_10_2462" result="shape"/>
</filter>
<filter id="filter7_d_10_2462" x="119" y="306" width="81" height="79" filterUnits="userSpaceOnUse" color-interpolation-filters="sRGB">
<feFlood flood-opacity="0" result="BackgroundImageFix"/>
<feColorMatrix in="SourceAlpha" type="matrix" values="0 0 0 0 0 0 0 0 0 0 0 0 0 0 0 0 0 0 127 0" result="hardAlpha"/>
<feOffset dy="4"/>
<feGaussianBlur stdDeviation="9"/>
<feComposite in2="hardAlpha" operator="out"/>
<feColorMatrix type="matrix" values="0 0 0 0 0 0 0 0 0 0 0 0 0 0 0 0 0 0 0.25 0"/>
<feBlend mode="normal" in2="BackgroundImageFix" result="effect1_dropShadow_10_2462"/>
<feBlend mode="normal" in="SourceGraphic" in2="effect1_dropShadow_10_2462" result="shape"/>
</filter>
<linearGradient id="paint0_linear_10_2462" x1="320" y1="247" x2="320" y2="336" gradientUnits="userSpaceOnUse">
<stop offset="0.677083" stop-color="white"/>
<stop offset="1" stop-color="#C7C7C7"/>
</linearGradient>
<linearGradient id="paint1_linear_10_2462" x1="294.5" y1="302" x2="294.5" y2="372" gradientUnits="userSpaceOnUse">
<stop offset="0.755208" stop-color="white" stop-opacity="0.88"/>
<stop offset="1" stop-color="#C4C4C4"/>
</linearGradient>
<linearGradient id="paint2_linear_10_2462" x1="261.5" y1="265" x2="261.5" y2="317" gradientUnits="userSpaceOnUse">
<stop offset="0.713542" stop-color="white"/>
<stop offset="1" stop-color="#E5E5E5"/>
</linearGradient>
<linearGradient id="paint3_linear_10_2462" x1="38.5" y1="0" x2="38.5" y2="80" gradientUnits="userSpaceOnUse">
<stop offset="0.677083" stop-color="white"/>
<stop offset="1" stop-color="#C7C7C7"/>
</linearGradient>
<linearGradient id="paint4_linear_10_2462" x1="82" y1="0" x2="82" y2="60" gradientUnits="userSpaceOnUse">
<stop offset="0.614583" stop-color="white"/>
<stop offset="0.96875" stop-color="#C4C4C4"/>
</linearGradient>
<linearGradient id="paint5_linear_10_2462" x1="22.5" y1="0" x2="22.5" y2="43" gradientUnits="userSpaceOnUse">
<stop offset="0.713542" stop-color="white"/>
<stop offset="1" stop-color="#E5E5E5"/>
</linearGradient>
</defs>
</svg>
